<?xml version="1.0" encoding="UTF-8" standalone="no"?>
<!DOCTYPE svg PUBLIC "-//W3C//DTD SVG 1.1//EN"
 "http://www.w3.org/Graphics/SVG/1.1/DTD/svg11.dtd">
<!-- Generated by graphviz version 2.38.0 (20140413.2041)
 -->
<!-- Title: util.h Pages: 1 -->
<svg width="359pt" height="84pt"
 viewBox="0.00 0.00 359.00 84.00" xmlns="http://www.w3.org/2000/svg" xmlns:xlink="http://www.w3.org/1999/xlink">
<g id="graph0" class="graph" transform="scale(1 1) rotate(0) translate(4 80)">
<title>util.h</title>
<!-- Node1 -->
<g id="node1" class="node"><title>Node1</title>
<polygon fill="#bfbfbf" stroke="black" points="152.5,-56.5 152.5,-75.5 190.5,-75.5 190.5,-56.5 152.5,-56.5"/>
<text text-anchor="middle" x="171.5" y="-63.5" font-family="Helvetica,sans-Serif" font-size="10.00">util.h</text>
</g>
<!-- Node2 -->
<g id="node2" class="node"><title>Node2</title>
<g id="a_node2"><a xlink:href="../../da/d1f/chooser_8c.html" target="_top" xlink:title="chooser.c">
<polygon fill="none" stroke="black" points="0,-0.5 0,-19.5 59,-19.5 59,-0.5 0,-0.5"/>
<text text-anchor="middle" x="29.5" y="-7.5" font-family="Helvetica,sans-Serif" font-size="10.00">chooser.c</text>
</a>
</g>
</g>
<!-- Node1&#45;&gt;Node2 -->
<g id="edge1" class="edge"><title>Node1&#45;&gt;Node2</title>
<path fill="none" stroke="midnightblue" d="M142.768,-54.0739C116.012,-43.8991 76.6636,-28.9355 52.0886,-19.59"/>
<polygon fill="midnightblue" stroke="midnightblue" points="141.758,-57.4342 152.349,-57.7173 144.246,-50.8913 141.758,-57.4342"/>
</g>
<!-- Node3 -->
<g id="node3" class="node"><title>Node3</title>
<g id="a_node3"><a xlink:href="../../d1/d2a/graph_8c.html" target="_top" xlink:title="graph.c">
<polygon fill="none" stroke="black" points="77,-0.5 77,-19.5 126,-19.5 126,-0.5 77,-0.5"/>
<text text-anchor="middle" x="101.5" y="-7.5" font-family="Helvetica,sans-Serif" font-size="10.00">graph.c</text>
</a>
</g>
</g>
<!-- Node1&#45;&gt;Node3 -->
<g id="edge2" class="edge"><title>Node1&#45;&gt;Node3</title>
<path fill="none" stroke="midnightblue" d="M152.186,-50.1008C139.588,-40.3824 123.572,-28.0269 112.951,-19.8339"/>
<polygon fill="midnightblue" stroke="midnightblue" points="150.198,-52.9871 160.253,-56.324 154.473,-47.4446 150.198,-52.9871"/>
</g>
<!-- Node4 -->
<g id="node4" class="node"><title>Node4</title>
<g id="a_node4"><a xlink:href="../../d1/d0b/nanorq_8c.html" target="_top" xlink:title="nanorq.c">
<polygon fill="none" stroke="black" points="144.5,-0.5 144.5,-19.5 198.5,-19.5 198.5,-0.5 144.5,-0.5"/>
<text text-anchor="middle" x="171.5" y="-7.5" font-family="Helvetica,sans-Serif" font-size="10.00">nanorq.c</text>
</a>
</g>
</g>
<!-- Node1&#45;&gt;Node4 -->
<g id="edge3" class="edge"><title>Node1&#45;&gt;Node4</title>
<path fill="none" stroke="midnightblue" d="M171.5,-45.8045C171.5,-36.9102 171.5,-26.7798 171.5,-19.7511"/>
<polygon fill="midnightblue" stroke="midnightblue" points="168,-46.083 171.5,-56.083 175,-46.083 168,-46.083"/>
</g>
<!-- Node5 -->
<g id="node5" class="node"><title>Node5</title>
<g id="a_node5"><a xlink:href="../../da/de3/params_8c.html" target="_top" xlink:title="params.c">
<polygon fill="none" stroke="black" points="217,-0.5 217,-19.5 274,-19.5 274,-0.5 217,-0.5"/>
<text text-anchor="middle" x="245.5" y="-7.5" font-family="Helvetica,sans-Serif" font-size="10.00">params.c</text>
</a>
</g>
</g>
<!-- Node1&#45;&gt;Node5 -->
<g id="edge4" class="edge"><title>Node1&#45;&gt;Node5</title>
<path fill="none" stroke="midnightblue" d="M191.534,-50.3804C204.909,-40.6204 222.059,-28.1057 233.394,-19.8339"/>
<polygon fill="midnightblue" stroke="midnightblue" points="189.404,-47.602 183.389,-56.324 193.53,-53.2565 189.404,-47.602"/>
</g>
<!-- Node6 -->
<g id="node6" class="node"><title>Node6</title>
<g id="a_node6"><a xlink:href="../../d6/d1a/precode_8c.html" target="_top" xlink:title="precode.c">
<polygon fill="none" stroke="black" points="292,-0.5 292,-19.5 351,-19.5 351,-0.5 292,-0.5"/>
<text text-anchor="middle" x="321.5" y="-7.5" font-family="Helvetica,sans-Serif" font-size="10.00">precode.c</text>
</a>
</g>
</g>
<!-- Node1&#45;&gt;Node6 -->
<g id="edge5" class="edge"><title>Node1&#45;&gt;Node6</title>
<path fill="none" stroke="midnightblue" d="M200.544,-54.5443C228.887,-44.3409 271.478,-29.0079 297.826,-19.5225"/>
<polygon fill="midnightblue" stroke="midnightblue" points="199.026,-51.3706 190.803,-58.051 201.397,-57.9568 199.026,-51.3706"/>
</g>
</g>
</svg>
