<?xml version="1.0" encoding="UTF-8" standalone="no"?>
<!DOCTYPE svg PUBLIC "-//W3C//DTD SVG 1.1//EN"
 "http://www.w3.org/Graphics/SVG/1.1/DTD/svg11.dtd">
<!-- Generated by graphviz version 2.38.0 (20140413.2041)
 -->
<!-- Title: io.c Pages: 1 -->
<svg width="326pt" height="84pt"
 viewBox="0.00 0.00 326.00 84.00" xmlns="http://www.w3.org/2000/svg" xmlns:xlink="http://www.w3.org/1999/xlink">
<g id="graph0" class="graph" transform="scale(1 1) rotate(0) translate(4 80)">
<title>io.c</title>
<!-- Node0 -->
<g id="node1" class="node"><title>Node0</title>
<polygon fill="#bfbfbf" stroke="black" points="148,-56.5 148,-75.5 180,-75.5 180,-56.5 148,-56.5"/>
<text text-anchor="middle" x="164" y="-63.5" font-family="Helvetica,sans-Serif" font-size="10.00">io.c</text>
</g>
<!-- Node1 -->
<g id="node2" class="node"><title>Node1</title>
<polygon fill="none" stroke="#bfbfbf" points="0,-0.5 0,-19.5 46,-19.5 46,-0.5 0,-0.5"/>
<text text-anchor="middle" x="23" y="-7.5" font-family="Helvetica,sans-Serif" font-size="10.00">stdio.h</text>
</g>
<!-- Node0&#45;&gt;Node1 -->
<g id="edge1" class="edge"><title>Node0&#45;&gt;Node1</title>
<path fill="none" stroke="midnightblue" d="M147.826,-58.8055C125.307,-50.1816 84.0277,-34.3723 55.1247,-23.3031"/>
<polygon fill="midnightblue" stroke="midnightblue" points="56.0589,-19.913 45.4685,-19.605 53.5553,-26.45 56.0589,-19.913"/>
</g>
<!-- Node2 -->
<g id="node3" class="node"><title>Node2</title>
<polygon fill="none" stroke="#bfbfbf" points="64,-0.5 64,-19.5 112,-19.5 112,-0.5 64,-0.5"/>
<text text-anchor="middle" x="88" y="-7.5" font-family="Helvetica,sans-Serif" font-size="10.00">stdlib.h</text>
</g>
<!-- Node0&#45;&gt;Node2 -->
<g id="edge2" class="edge"><title>Node0&#45;&gt;Node2</title>
<path fill="none" stroke="midnightblue" d="M151.789,-56.324C140.224,-48.1066 122.625,-35.6017 108.839,-25.8069"/>
<polygon fill="midnightblue" stroke="midnightblue" points="110.612,-22.7729 100.433,-19.8339 106.557,-28.4791 110.612,-22.7729"/>
</g>
<!-- Node3 -->
<g id="node4" class="node"><title>Node3</title>
<polygon fill="none" stroke="#bfbfbf" points="130,-0.5 130,-19.5 198,-19.5 198,-0.5 130,-0.5"/>
<text text-anchor="middle" x="164" y="-7.5" font-family="Helvetica,sans-Serif" font-size="10.00">sys/types.h</text>
</g>
<!-- Node0&#45;&gt;Node3 -->
<g id="edge3" class="edge"><title>Node0&#45;&gt;Node3</title>
<path fill="none" stroke="midnightblue" d="M164,-56.083C164,-49.0059 164,-38.8611 164,-29.9865"/>
<polygon fill="midnightblue" stroke="midnightblue" points="167.5,-29.751 164,-19.7511 160.5,-29.7511 167.5,-29.751"/>
</g>
<!-- Node4 -->
<g id="node5" class="node"><title>Node4</title>
<polygon fill="none" stroke="#bfbfbf" points="216.5,-0.5 216.5,-19.5 267.5,-19.5 267.5,-0.5 216.5,-0.5"/>
<text text-anchor="middle" x="242" y="-7.5" font-family="Helvetica,sans-Serif" font-size="10.00">unistd.h</text>
</g>
<!-- Node0&#45;&gt;Node4 -->
<g id="edge4" class="edge"><title>Node0&#45;&gt;Node4</title>
<path fill="none" stroke="midnightblue" d="M176.532,-56.324C188.586,-47.979 207.027,-35.2122 221.269,-25.3524"/>
<polygon fill="midnightblue" stroke="midnightblue" points="223.269,-28.2243 229.499,-19.6545 219.285,-22.469 223.269,-28.2243"/>
</g>
<!-- Node5 -->
<g id="node6" class="node"><title>Node5</title>
<g id="a_node6"><a xlink:href="../../dc/dac/io_8h.html" target="_top" xlink:title="io.h">
<polygon fill="none" stroke="black" points="286,-0.5 286,-19.5 318,-19.5 318,-0.5 286,-0.5"/>
<text text-anchor="middle" x="302" y="-7.5" font-family="Helvetica,sans-Serif" font-size="10.00">io.h</text>
</a>
</g>
</g>
<!-- Node0&#45;&gt;Node5 -->
<g id="edge5" class="edge"><title>Node0&#45;&gt;Node5</title>
<path fill="none" stroke="midnightblue" d="M180.1,-58.6998C203.657,-49.4822 247.77,-32.2205 275.972,-21.185"/>
<polygon fill="midnightblue" stroke="midnightblue" points="277.537,-24.3308 285.574,-17.4274 274.987,-17.8121 277.537,-24.3308"/>
</g>
</g>
</svg>
