<?xml version="1.0" encoding="UTF-8" standalone="no"?>
<!DOCTYPE svg PUBLIC "-//W3C//DTD SVG 1.1//EN"
 "http://www.w3.org/Graphics/SVG/1.1/DTD/svg11.dtd">
<!-- Generated by graphviz version 2.38.0 (20140413.2041)
 -->
<!-- Title: nanorq_block_encoder Pages: 1 -->
<svg width="363pt" height="66pt"
 viewBox="0.00 0.00 363.00 66.00" xmlns="http://www.w3.org/2000/svg" xmlns:xlink="http://www.w3.org/1999/xlink">
<g id="graph0" class="graph" transform="scale(1 1) rotate(0) translate(4 62)">
<title>nanorq_block_encoder</title>
<!-- Node0 -->
<g id="node1" class="node"><title>Node0</title>
<polygon fill="#bfbfbf" stroke="black" points="0,-19.5 0,-38.5 114,-38.5 114,-19.5 0,-19.5"/>
<text text-anchor="middle" x="57" y="-26.5" font-family="Helvetica,sans-Serif" font-size="10.00">nanorq_block_encoder</text>
</g>
<!-- Node1 -->
<g id="node2" class="node"><title>Node1</title>
<g id="a_node2"><a xlink:href="../../d1/d0b/nanorq_8c_a4c02c9d148e282c464ab013a678387d0.html#a4c02c9d148e282c464ab013a678387d0" target="_top" xlink:title="nanorq_block_symbols">
<polygon fill="none" stroke="black" points="150,-38.5 150,-57.5 266,-57.5 266,-38.5 150,-38.5"/>
<text text-anchor="middle" x="208" y="-45.5" font-family="Helvetica,sans-Serif" font-size="10.00">nanorq_block_symbols</text>
</a>
</g>
</g>
<!-- Node0&#45;&gt;Node1 -->
<g id="edge1" class="edge"><title>Node0&#45;&gt;Node1</title>
<path fill="none" stroke="midnightblue" d="M114.331,-36.1831C122.533,-37.229 131.048,-38.3149 139.445,-39.3856"/>
<polygon fill="midnightblue" stroke="midnightblue" points="139.237,-42.8873 149.599,-40.6804 140.122,-35.9435 139.237,-42.8873"/>
</g>
<!-- Node2 -->
<g id="node3" class="node"><title>Node2</title>
<g id="a_node3"><a xlink:href="../../da/de3/params_8c_a6ec9c111e5ac045945d74371bc5fb5cb.html#a6ec9c111e5ac045945d74371bc5fb5cb" target="_top" xlink:title="params_init">
<polygon fill="none" stroke="black" points="174.5,-0.5 174.5,-19.5 241.5,-19.5 241.5,-0.5 174.5,-0.5"/>
<text text-anchor="middle" x="208" y="-7.5" font-family="Helvetica,sans-Serif" font-size="10.00">params_init</text>
</a>
</g>
</g>
<!-- Node0&#45;&gt;Node2 -->
<g id="edge2" class="edge"><title>Node0&#45;&gt;Node2</title>
<path fill="none" stroke="midnightblue" d="M114.331,-21.8169C130.802,-19.7165 148.536,-17.4551 164.036,-15.4786"/>
<polygon fill="midnightblue" stroke="midnightblue" points="164.891,-18.8981 174.368,-14.1612 164.005,-11.9543 164.891,-18.8981"/>
</g>
<!-- Node3 -->
<g id="node4" class="node"><title>Node3</title>
<g id="a_node4"><a xlink:href="../../da/de3/params_8c_ad7c869ce8790c11bcabfd228cd6d8906.html#ad7c869ce8790c11bcabfd228cd6d8906" target="_top" xlink:title="is_prime">
<polygon fill="none" stroke="black" points="302,-0.5 302,-19.5 355,-19.5 355,-0.5 302,-0.5"/>
<text text-anchor="middle" x="328.5" y="-7.5" font-family="Helvetica,sans-Serif" font-size="10.00">is_prime</text>
</a>
</g>
</g>
<!-- Node2&#45;&gt;Node3 -->
<g id="edge3" class="edge"><title>Node2&#45;&gt;Node3</title>
<path fill="none" stroke="midnightblue" d="M241.694,-10C257.057,-10 275.423,-10 291.214,-10"/>
<polygon fill="midnightblue" stroke="midnightblue" points="291.666,-13.5001 301.666,-10 291.666,-6.5001 291.666,-13.5001"/>
</g>
</g>
</svg>
