<?xml version="1.0" encoding="UTF-8" standalone="no"?>
<!DOCTYPE svg PUBLIC "-//W3C//DTD SVG 1.1//EN"
 "http://www.w3.org/Graphics/SVG/1.1/DTD/svg11.dtd">
<!-- Generated by graphviz version 2.38.0 (20140413.2041)
 -->
<!-- Title: fill_partition Pages: 1 -->
<svg width="293pt" height="66pt"
 viewBox="0.00 0.00 293.00 66.00" xmlns="http://www.w3.org/2000/svg" xmlns:xlink="http://www.w3.org/1999/xlink">
<g id="graph0" class="graph" transform="scale(1 1) rotate(0) translate(4 62)">
<title>fill_partition</title>
<!-- Node1 -->
<g id="node1" class="node"><title>Node1</title>
<polygon fill="#bfbfbf" stroke="black" points="0,-19.5 0,-38.5 66,-38.5 66,-19.5 0,-19.5"/>
<text text-anchor="middle" x="33" y="-26.5" font-family="Helvetica,sans-Serif" font-size="10.00">fill_partition</text>
</g>
<!-- Node2 -->
<g id="node2" class="node"><title>Node2</title>
<g id="a_node2"><a xlink:href="../../d6/da2/nanorq_8h_a72adb933d4bdb9c72d414ec4230680e7.html#a72adb933d4bdb9c72d414ec4230680e7" target="_top" xlink:title="nanorq_decoder_new">
<polygon fill="none" stroke="black" points="102,-38.5 102,-57.5 211,-57.5 211,-38.5 102,-38.5"/>
<text text-anchor="middle" x="156.5" y="-45.5" font-family="Helvetica,sans-Serif" font-size="10.00">nanorq_decoder_new</text>
</a>
</g>
</g>
<!-- Node1&#45;&gt;Node2 -->
<g id="edge1" class="edge"><title>Node1&#45;&gt;Node2</title>
<path fill="none" stroke="midnightblue" d="M76.3801,-35.6273C84.6371,-36.9186 93.3939,-38.2879 101.957,-39.627"/>
<polygon fill="midnightblue" stroke="midnightblue" points="76.6615,-32.1289 66.2408,-34.0418 75.5799,-39.0448 76.6615,-32.1289"/>
</g>
<!-- Node4 -->
<g id="node4" class="node"><title>Node4</title>
<g id="a_node4"><a xlink:href="../../d6/da2/nanorq_8h_a6ed55092bdcfad4874b4ae3d24e203fc.html#a6ed55092bdcfad4874b4ae3d24e203fc" target="_top" xlink:title="nanorq_encoder_new">
<polygon fill="none" stroke="black" points="102,-0.5 102,-19.5 211,-19.5 211,-0.5 102,-0.5"/>
<text text-anchor="middle" x="156.5" y="-7.5" font-family="Helvetica,sans-Serif" font-size="10.00">nanorq_encoder_new</text>
</a>
</g>
</g>
<!-- Node1&#45;&gt;Node4 -->
<g id="edge3" class="edge"><title>Node1&#45;&gt;Node4</title>
<path fill="none" stroke="midnightblue" d="M76.3801,-22.3727C84.6371,-21.0814 93.3939,-19.7121 101.957,-18.373"/>
<polygon fill="midnightblue" stroke="midnightblue" points="75.5799,-18.9552 66.2408,-23.9582 76.6615,-25.8711 75.5799,-18.9552"/>
</g>
<!-- Node3 -->
<g id="node3" class="node"><title>Node3</title>
<g id="a_node3"><a xlink:href="../../da/d0d/decode_8c_a3c04138a5bfe5d72780bb7e82a18e627.html#a3c04138a5bfe5d72780bb7e82a18e627" target="_top" xlink:title="main">
<polygon fill="none" stroke="black" points="247,-38.5 247,-57.5 285,-57.5 285,-38.5 247,-38.5"/>
<text text-anchor="middle" x="266" y="-45.5" font-family="Helvetica,sans-Serif" font-size="10.00">main</text>
</a>
</g>
</g>
<!-- Node2&#45;&gt;Node3 -->
<g id="edge2" class="edge"><title>Node2&#45;&gt;Node3</title>
<path fill="none" stroke="midnightblue" d="M221.402,-48C230.656,-48 239.495,-48 246.764,-48"/>
<polygon fill="midnightblue" stroke="midnightblue" points="221.25,-44.5001 211.25,-48 221.25,-51.5001 221.25,-44.5001"/>
</g>
<!-- Node5 -->
<g id="node5" class="node"><title>Node5</title>
<g id="a_node5"><a xlink:href="../../dd/d3f/encode_8c_a3c04138a5bfe5d72780bb7e82a18e627.html#a3c04138a5bfe5d72780bb7e82a18e627" target="_top" xlink:title="main">
<polygon fill="none" stroke="black" points="247,-0.5 247,-19.5 285,-19.5 285,-0.5 247,-0.5"/>
<text text-anchor="middle" x="266" y="-7.5" font-family="Helvetica,sans-Serif" font-size="10.00">main</text>
</a>
</g>
</g>
<!-- Node4&#45;&gt;Node5 -->
<g id="edge4" class="edge"><title>Node4&#45;&gt;Node5</title>
<path fill="none" stroke="midnightblue" d="M221.402,-10C230.656,-10 239.495,-10 246.764,-10"/>
<polygon fill="midnightblue" stroke="midnightblue" points="221.25,-6.5001 211.25,-10 221.25,-13.5001 221.25,-6.5001"/>
</g>
</g>
</svg>
