<?xml version="1.0" encoding="UTF-8" standalone="no"?>
<!DOCTYPE svg PUBLIC "-//W3C//DTD SVG 1.1//EN"
 "http://www.w3.org/Graphics/SVG/1.1/DTD/svg11.dtd">
<!-- Generated by graphviz version 2.38.0 (20140413.2041)
 -->
<!-- Title: bitmask_gaps Pages: 1 -->
<svg width="766pt" height="189pt"
 viewBox="0.00 0.00 766.00 189.00" xmlns="http://www.w3.org/2000/svg" xmlns:xlink="http://www.w3.org/1999/xlink">
<g id="graph0" class="graph" transform="scale(1 1) rotate(0) translate(4 185)">
<title>bitmask_gaps</title>
<!-- Node1 -->
<g id="node1" class="node"><title>Node1</title>
<polygon fill="#bfbfbf" stroke="black" points="0,-85.5 0,-104.5 77,-104.5 77,-85.5 0,-85.5"/>
<text text-anchor="middle" x="38.5" y="-92.5" font-family="Helvetica,sans-Serif" font-size="10.00">bitmask_gaps</text>
</g>
<!-- Node2 -->
<g id="node2" class="node"><title>Node2</title>
<g id="a_node2"><a xlink:href="../../d6/d1a/precode_8c_aba331164c0af3eef69c0ac91d8fe2eba.html#aba331164c0af3eef69c0ac91d8fe2eba" target="_top" xlink:title="decode_phase0">
<polygon fill="none" stroke="black" points="113,-161.5 113,-180.5 198,-180.5 198,-161.5 113,-161.5"/>
<text text-anchor="middle" x="155.5" y="-168.5" font-family="Helvetica,sans-Serif" font-size="10.00">decode_phase0</text>
</a>
</g>
</g>
<!-- Node1&#45;&gt;Node2 -->
<g id="edge1" class="edge"><title>Node1&#45;&gt;Node2</title>
<path fill="none" stroke="midnightblue" d="M60.545,-110.662C75.0538,-121.267 94.9097,-135.404 113,-147 120.708,-151.941 129.454,-157.067 136.923,-161.306"/>
<polygon fill="midnightblue" stroke="midnightblue" points="62.3945,-107.678 52.2657,-104.57 58.2456,-113.316 62.3945,-107.678"/>
</g>
<!-- Node3 -->
<g id="node3" class="node"><title>Node3</title>
<g id="a_node3"><a xlink:href="../../da/def/precode_8h_a2b6a5db8f90fc98b364cb5ed3b5eca24.html#a2b6a5db8f90fc98b364cb5ed3b5eca24" target="_top" xlink:title="precode_matrix_intermediate2">
<polygon fill="none" stroke="black" points="234,-123.5 234,-142.5 381,-142.5 381,-123.5 234,-123.5"/>
<text text-anchor="middle" x="307.5" y="-130.5" font-family="Helvetica,sans-Serif" font-size="10.00">precode_matrix_intermediate2</text>
</a>
</g>
</g>
<!-- Node1&#45;&gt;Node3 -->
<g id="edge11" class="edge"><title>Node1&#45;&gt;Node3</title>
<path fill="none" stroke="midnightblue" d="M87.1012,-104.533C95.7045,-106.123 104.607,-107.682 113,-109 152.795,-115.251 197.404,-120.877 233.754,-125.107"/>
<polygon fill="midnightblue" stroke="midnightblue" points="87.6627,-101.077 77.1875,-102.665 86.3662,-107.956 87.6627,-101.077"/>
</g>
<!-- Node4 -->
<g id="node4" class="node"><title>Node4</title>
<g id="a_node4"><a xlink:href="../../da/def/precode_8h_aee2113e8f8d7e54052fc8db5dd71fd1f.html#aee2113e8f8d7e54052fc8db5dd71fd1f" target="_top" xlink:title="precode_matrix_decode">
<polygon fill="none" stroke="black" points="417,-85.5 417,-104.5 537,-104.5 537,-85.5 417,-85.5"/>
<text text-anchor="middle" x="477" y="-92.5" font-family="Helvetica,sans-Serif" font-size="10.00">precode_matrix_decode</text>
</a>
</g>
</g>
<!-- Node1&#45;&gt;Node4 -->
<g id="edge10" class="edge"><title>Node1&#45;&gt;Node4</title>
<path fill="none" stroke="midnightblue" d="M87.41,-95C167.758,-95 329.428,-95 416.774,-95"/>
<polygon fill="midnightblue" stroke="midnightblue" points="87.0936,-91.5001 77.0935,-95 87.0935,-98.5001 87.0936,-91.5001"/>
</g>
<!-- Node7 -->
<g id="node7" class="node"><title>Node7</title>
<g id="a_node7"><a xlink:href="../../d6/da2/nanorq_8h_a4199d347f3a4d6e329a6b76fde635121.html#a4199d347f3a4d6e329a6b76fde635121" target="_top" xlink:title="nanorq_decoder_add\l_symbol">
<polygon fill="none" stroke="black" points="254,-36 254,-66 361,-66 361,-36 254,-36"/>
<text text-anchor="start" x="262" y="-54" font-family="Helvetica,sans-Serif" font-size="10.00">nanorq_decoder_add</text>
<text text-anchor="middle" x="307.5" y="-43" font-family="Helvetica,sans-Serif" font-size="10.00">_symbol</text>
</a>
</g>
</g>
<!-- Node1&#45;&gt;Node7 -->
<g id="edge6" class="edge"><title>Node1&#45;&gt;Node7</title>
<path fill="none" stroke="midnightblue" d="M87.1362,-85.679C95.7358,-84.0669 104.628,-82.4459 113,-81 160.569,-72.7846 214.902,-64.4528 253.859,-58.6615"/>
<polygon fill="midnightblue" stroke="midnightblue" points="86.3978,-82.2566 77.2239,-87.5565 87.7006,-89.1343 86.3978,-82.2566"/>
</g>
<!-- Node8 -->
<g id="node8" class="node"><title>Node8</title>
<g id="a_node8"><a xlink:href="../../d6/da2/nanorq_8h_a327401e07be8814bccd6c39facecdbe1.html#a327401e07be8814bccd6c39facecdbe1" target="_top" xlink:title="nanorq_num_missing">
<polygon fill="none" stroke="black" points="422.5,-0.5 422.5,-19.5 531.5,-19.5 531.5,-0.5 422.5,-0.5"/>
<text text-anchor="middle" x="477" y="-7.5" font-family="Helvetica,sans-Serif" font-size="10.00">nanorq_num_missing</text>
</a>
</g>
</g>
<!-- Node1&#45;&gt;Node8 -->
<g id="edge8" class="edge"><title>Node1&#45;&gt;Node8</title>
<path fill="none" stroke="midnightblue" d="M70.2929,-81.245C83.3517,-75.6125 98.8064,-69.2087 113,-64 165.917,-44.5811 178.596,-36.3773 234,-26 297.941,-14.0236 372.847,-10.6754 422.194,-9.90306"/>
<polygon fill="midnightblue" stroke="midnightblue" points="68.6018,-78.164 60.8342,-85.3692 71.3997,-84.5806 68.6018,-78.164"/>
</g>
<!-- Node2&#45;&gt;Node3 -->
<g id="edge2" class="edge"><title>Node2&#45;&gt;Node3</title>
<path fill="none" stroke="midnightblue" d="M204.311,-158.888C225.202,-153.596 249.347,-147.479 268.921,-142.52"/>
<polygon fill="midnightblue" stroke="midnightblue" points="203.186,-155.562 194.351,-161.411 204.905,-162.348 203.186,-155.562"/>
</g>
<!-- Node3&#45;&gt;Node4 -->
<g id="edge3" class="edge"><title>Node3&#45;&gt;Node4</title>
<path fill="none" stroke="midnightblue" d="M360.62,-121.176C384.235,-115.818 411.782,-109.569 434.037,-104.52"/>
<polygon fill="midnightblue" stroke="midnightblue" points="359.745,-117.785 350.767,-123.411 361.294,-124.612 359.745,-117.785"/>
</g>
<!-- Node5 -->
<g id="node5" class="node"><title>Node5</title>
<g id="a_node5"><a xlink:href="../../d6/da2/nanorq_8h_aa1dcf83669e76931be0e6e7a1f02c185.html#aa1dcf83669e76931be0e6e7a1f02c185" target="_top" xlink:title="nanorq_decode_block">
<polygon fill="none" stroke="black" points="573,-82.5 573,-101.5 684,-101.5 684,-82.5 573,-82.5"/>
<text text-anchor="middle" x="628.5" y="-89.5" font-family="Helvetica,sans-Serif" font-size="10.00">nanorq_decode_block</text>
</a>
</g>
</g>
<!-- Node4&#45;&gt;Node5 -->
<g id="edge4" class="edge"><title>Node4&#45;&gt;Node5</title>
<path fill="none" stroke="midnightblue" d="M547.104,-93.6133C555.7,-93.4408 564.396,-93.2663 572.734,-93.099"/>
<polygon fill="midnightblue" stroke="midnightblue" points="547.014,-90.1143 537.086,-93.8143 547.155,-97.1129 547.014,-90.1143"/>
</g>
<!-- Node6 -->
<g id="node6" class="node"><title>Node6</title>
<g id="a_node6"><a xlink:href="../../da/d0d/decode_8c_a3c04138a5bfe5d72780bb7e82a18e627.html#a3c04138a5bfe5d72780bb7e82a18e627" target="_top" xlink:title="main">
<polygon fill="none" stroke="black" points="720,-41.5 720,-60.5 758,-60.5 758,-41.5 720,-41.5"/>
<text text-anchor="middle" x="739" y="-48.5" font-family="Helvetica,sans-Serif" font-size="10.00">main</text>
</a>
</g>
</g>
<!-- Node5&#45;&gt;Node6 -->
<g id="edge5" class="edge"><title>Node5&#45;&gt;Node6</title>
<path fill="none" stroke="midnightblue" d="M664.22,-78.8801C682.678,-71.9051 704.617,-63.6147 719.748,-57.8972"/>
<polygon fill="midnightblue" stroke="midnightblue" points="662.782,-75.6818 654.665,-82.4907 665.256,-82.2299 662.782,-75.6818"/>
</g>
<!-- Node7&#45;&gt;Node6 -->
<g id="edge7" class="edge"><title>Node7&#45;&gt;Node6</title>
<path fill="none" stroke="midnightblue" d="M371.421,-51C471.289,-51 660.838,-51 719.939,-51"/>
<polygon fill="midnightblue" stroke="midnightblue" points="371.165,-47.5001 361.165,-51 371.165,-54.5001 371.165,-47.5001"/>
</g>
<!-- Node8&#45;&gt;Node6 -->
<g id="edge9" class="edge"><title>Node8&#45;&gt;Node6</title>
<path fill="none" stroke="midnightblue" d="M541.738,-16.3009C582.603,-20.8457 636.671,-27.7995 684,-37 695.979,-39.3286 709.247,-42.7565 719.634,-45.6374"/>
<polygon fill="midnightblue" stroke="midnightblue" points="541.966,-12.8051 531.645,-15.1974 541.205,-19.7636 541.966,-12.8051"/>
</g>
</g>
</svg>
