<?xml version="1.0" encoding="UTF-8" standalone="no"?>
<!DOCTYPE svg PUBLIC "-//W3C//DTD SVG 1.1//EN"
 "http://www.w3.org/Graphics/SVG/1.1/DTD/svg11.dtd">
<!-- Generated by graphviz version 2.38.0 (20140413.2041)
 -->
<!-- Title: om_resize Pages: 1 -->
<!--zoomable 466 -->
<svg id="main" version="1.1" xmlns="http://www.w3.org/2000/svg" xmlns:xlink="http://www.w3.org/1999/xlink" xml:space="preserve" onload="init(evt)">
<style type="text/css"><![CDATA[
.edge:hover path { stroke: red; }
.edge:hover polygon { stroke: red; fill: red; }
]]></style>
<script type="text/javascript"><![CDATA[
var edges = document.getElementsByTagName('g');
if (edges && edges.length) {
  for (var i=0;i<edges.length;i++) {
    if (edges[i].id.substr(0,4)=='edge') {
      edges[i].setAttribute('class','edge');
    }
  }
}
]]></script>
        <defs>
                <circle id="rim" cx="0" cy="0" r="7"/>
                <circle id="rim2" cx="0" cy="0" r="3.5"/>
                <g id="zoomPlus">
                        <use xlink:href="#rim" fill="#404040">
                                <set attributeName="fill" to="#808080" begin="zoomplus.mouseover" end="zoomplus.mouseout"/>
                        </use>
                        <path d="M-4,0h8M0,-4v8" fill="none" stroke="white" stroke-width="1.5" pointer-events="none"/>
                </g>
                <g id="zoomMin">
                        <use xlink:href="#rim" fill="#404040">
                                <set attributeName="fill" to="#808080" begin="zoomminus.mouseover" end="zoomminus.mouseout"/>
                        </use>
                        <path d="M-4,0h8" fill="none" stroke="white" stroke-width="1.5" pointer-events="none"/>
                </g>
                <g id="dirArrow">
                        <path fill="none" stroke="white" stroke-width="1.5" d="M0,-3.0v7 M-2.5,-0.5L0,-3.0L2.5,-0.5"/>
                </g>
               <g id="resetDef">
                       <use xlink:href="#rim2" fill="#404040">
                               <set attributeName="fill" to="#808080" begin="reset.mouseover" end="reset.mouseout"/>
                       </use>
               </g>
        </defs>

<script type="text/javascript">
var viewWidth = 1192;
var viewHeight = 466;
var sectionId = 'dynsection-1';
</script>
<script xlink:href="../../svgpan.js"/>
<svg id="graph" class="graph">
<g id="viewport">
<title>om_resize</title>
<!-- Node2 -->
<g id="node1" class="node"><title>Node2</title>
<polygon fill="#bfbfbf" stroke="black" points="0,-207 0,-226 62,-226 62,-207 0,-207"/>
<text text-anchor="middle" x="31" y="-214" font-family="Helvetica,sans-Serif" font-size="10.00">om_resize</text>
</g>
<!-- Node3 -->
<g id="node2" class="node"><title>Node3</title>
<g id="a_node2"><a xlink:href="../../d6/d1a/precode_8c_a11824185dea7b498ffadaca55ae49090.html#a11824185dea7b498ffadaca55ae49090" target="_top" xlink:title="decode_phase3">
<polygon fill="none" stroke="black" points="121.5,-226 121.5,-245 206.5,-245 206.5,-226 121.5,-226"/>
<text text-anchor="middle" x="164" y="-233" font-family="Helvetica,sans-Serif" font-size="10.00">decode_phase3</text>
</a>
</g>
</g>
<!-- Node2&#45;&gt;Node3 -->
<g id="edge1" class="edge"><title>Node2&#45;&gt;Node3</title>
<path fill="none" stroke="midnightblue" d="M72.3701,-222.355C87.857,-224.601 105.553,-227.168 121.174,-229.434"/>
<polygon fill="midnightblue" stroke="midnightblue" points="72.4529,-218.831 62.054,-220.859 71.4481,-225.758 72.4529,-218.831"/>
</g>
<!-- Node4 -->
<g id="node3" class="node"><title>Node4</title>
<g id="a_node3"><a xlink:href="../../da/def/precode_8h_a262ba8efa6b500c1e7a3cb0451245291.html#a262ba8efa6b500c1e7a3cb0451245291" target="_top" xlink:title="precode_matrix_intermediate1">
<polygon fill="none" stroke="black" points="266,-207 266,-226 413,-226 413,-207 266,-207"/>
<text text-anchor="middle" x="339.5" y="-214" font-family="Helvetica,sans-Serif" font-size="10.00">precode_matrix_intermediate1</text>
</a>
</g>
</g>
<!-- Node2&#45;&gt;Node4 -->
<g id="edge32" class="edge"><title>Node2&#45;&gt;Node4</title>
<path fill="none" stroke="midnightblue" d="M72.4657,-216.5C121.627,-216.5 205.474,-216.5 265.912,-216.5"/>
<polygon fill="midnightblue" stroke="midnightblue" points="72.2273,-213 62.2272,-216.5 72.2272,-220 72.2273,-213"/>
</g>
<!-- Node5 -->
<g id="node4" class="node"><title>Node5</title>
<g id="a_node4"><a xlink:href="../../d6/da2/nanorq_8h_ad6a9288685637cdfe83303f66b087a29.html#ad6a9288685637cdfe83303f66b087a29" target="_top" xlink:title="nanorq_generate_symbols">
<polygon fill="none" stroke="black" points="632,-269 632,-288 763,-288 763,-269 632,-269"/>
<text text-anchor="middle" x="697.5" y="-276" font-family="Helvetica,sans-Serif" font-size="10.00">nanorq_generate_symbols</text>
</a>
</g>
</g>
<!-- Node2&#45;&gt;Node5 -->
<g id="edge22" class="edge"><title>Node2&#45;&gt;Node5</title>
<path fill="none" stroke="midnightblue" d="M31.8272,-236.458C32.6917,-277.258 41.1555,-369.795 98,-410.5 294.811,-551.433 614.479,-337.634 683.216,-288.284"/>
<polygon fill="midnightblue" stroke="midnightblue" points="35.3268,-236.381 31.751,-226.408 28.327,-236.434 35.3268,-236.381"/>
</g>
<!-- Node10 -->
<g id="node9" class="node"><title>Node10</title>
<g id="a_node9"><a xlink:href="../../da/def/precode_8h_a2b6a5db8f90fc98b364cb5ed3b5eca24.html#a2b6a5db8f90fc98b364cb5ed3b5eca24" target="_top" xlink:title="precode_matrix_intermediate2">
<polygon fill="none" stroke="black" points="449,-150 449,-169 596,-169 596,-150 449,-150"/>
<text text-anchor="middle" x="522.5" y="-157" font-family="Helvetica,sans-Serif" font-size="10.00">precode_matrix_intermediate2</text>
</a>
</g>
</g>
<!-- Node2&#45;&gt;Node10 -->
<g id="edge33" class="edge"><title>Node2&#45;&gt;Node10</title>
<path fill="none" stroke="midnightblue" d="M53.8419,-201.207C66.2857,-193.119 82.4552,-183.623 98,-177.5 229.154,-125.837 272.567,-128.297 413,-140.5 434.338,-142.354 457.773,-146.223 477.385,-149.988"/>
<polygon fill="midnightblue" stroke="midnightblue" points="51.872,-198.314 45.5016,-206.78 55.7609,-204.134 51.872,-198.314"/>
</g>
<!-- Node11 -->
<g id="node10" class="node"><title>Node11</title>
<g id="a_node10"><a xlink:href="../../da/def/precode_8h_aee2113e8f8d7e54052fc8db5dd71fd1f.html#aee2113e8f8d7e54052fc8db5dd71fd1f" target="_top" xlink:title="precode_matrix_decode">
<polygon fill="none" stroke="black" points="637.5,-142 637.5,-161 757.5,-161 757.5,-142 637.5,-142"/>
<text text-anchor="middle" x="697.5" y="-149" font-family="Helvetica,sans-Serif" font-size="10.00">precode_matrix_decode</text>
</a>
</g>
</g>
<!-- Node2&#45;&gt;Node11 -->
<g id="edge23" class="edge"><title>Node2&#45;&gt;Node11</title>
<path fill="none" stroke="midnightblue" d="M40.8349,-197.909C51.3621,-178.147 70.9831,-147.933 98,-134.5 296.487,-35.8082 579.592,-113.335 668.609,-141.98"/>
<polygon fill="midnightblue" stroke="midnightblue" points="37.678,-196.396 36.2861,-206.899 43.9239,-199.556 37.678,-196.396"/>
</g>
<!-- Node14 -->
<g id="node13" class="node"><title>Node14</title>
<g id="a_node13"><a xlink:href="../../d1/d0b/nanorq_8c_a9e0825ce320f90492e45baad6a50ff4c.html#a9e0825ce320f90492e45baad6a50ff4c" target="_top" xlink:title="nanorq_block_decoder">
<polygon fill="none" stroke="black" points="640.5,-74 640.5,-93 754.5,-93 754.5,-74 640.5,-74"/>
<text text-anchor="middle" x="697.5" y="-81" font-family="Helvetica,sans-Serif" font-size="10.00">nanorq_block_decoder</text>
</a>
</g>
</g>
<!-- Node2&#45;&gt;Node14 -->
<g id="edge13" class="edge"><title>Node2&#45;&gt;Node14</title>
<path fill="none" stroke="midnightblue" d="M41.1454,-197.885C51.8376,-178.363 71.5025,-148.601 98,-134.5 277.054,-39.2134 529.51,-59.2783 640.474,-74.4181"/>
<polygon fill="midnightblue" stroke="midnightblue" points="38.0282,-196.293 36.5048,-206.778 44.2341,-199.532 38.0282,-196.293"/>
</g>
<!-- Node15 -->
<g id="node14" class="node"><title>Node15</title>
<g id="a_node14"><a xlink:href="../../d6/da2/nanorq_8h_a4199d347f3a4d6e329a6b76fde635121.html#a4199d347f3a4d6e329a6b76fde635121" target="_top" xlink:title="nanorq_decoder_add\l_symbol">
<polygon fill="none" stroke="black" points="801,-0.5 801,-30.5 908,-30.5 908,-0.5 801,-0.5"/>
<text text-anchor="start" x="809" y="-18.5" font-family="Helvetica,sans-Serif" font-size="10.00">nanorq_decoder_add</text>
<text text-anchor="middle" x="854.5" y="-7.5" font-family="Helvetica,sans-Serif" font-size="10.00">_symbol</text>
</a>
</g>
</g>
<!-- Node2&#45;&gt;Node15 -->
<g id="edge21" class="edge"><title>Node2&#45;&gt;Node15</title>
<path fill="none" stroke="midnightblue" d="M37.366,-196.886C45.8248,-169.526 64.8098,-120.058 98,-91.5 183.825,-17.6546 225.279,-7.5 338.5,-7.5 338.5,-7.5 338.5,-7.5 523.5,-7.5 621.498,-7.5 735.817,-11.0695 800.928,-13.4398"/>
<polygon fill="midnightblue" stroke="midnightblue" points="33.9075,-196.243 34.4595,-206.823 40.626,-198.208 33.9075,-196.243"/>
</g>
<!-- Node18 -->
<g id="node17" class="node"><title>Node18</title>
<g id="a_node17"><a xlink:href="../../da/def/precode_8h_ac563a7861b8d34580909af77f063ea66.html#ac563a7861b8d34580909af77f063ea66" target="_top" xlink:title="precode_matrix_encode">
<polygon fill="none" stroke="black" points="279.5,-150 279.5,-169 399.5,-169 399.5,-150 279.5,-150"/>
<text text-anchor="middle" x="339.5" y="-157" font-family="Helvetica,sans-Serif" font-size="10.00">precode_matrix_encode</text>
</a>
</g>
</g>
<!-- Node2&#45;&gt;Node18 -->
<g id="edge24" class="edge"><title>Node2&#45;&gt;Node18</title>
<path fill="none" stroke="midnightblue" d="M72.3385,-208.998C127.583,-198.724 226.799,-180.273 287.244,-169.032"/>
<polygon fill="midnightblue" stroke="midnightblue" points="71.4187,-205.609 62.2272,-210.879 72.6986,-212.491 71.4187,-205.609"/>
</g>
<!-- Node19 -->
<g id="node18" class="node"><title>Node19</title>
<g id="a_node18"><a xlink:href="../../da/def/precode_8h_a85c0aa4f7900eccf336228d43b7c133c.html#a85c0aa4f7900eccf336228d43b7c133c" target="_top" xlink:title="precode_matrix_gen">
<polygon fill="none" stroke="black" points="470.5,-286 470.5,-305 574.5,-305 574.5,-286 470.5,-286"/>
<text text-anchor="middle" x="522.5" y="-293" font-family="Helvetica,sans-Serif" font-size="10.00">precode_matrix_gen</text>
</a>
</g>
</g>
<!-- Node2&#45;&gt;Node19 -->
<g id="edge27" class="edge"><title>Node2&#45;&gt;Node19</title>
<path fill="none" stroke="midnightblue" d="M33.1934,-236.335C36.5533,-272.312 49.3483,-347.636 98,-380.5 235.332,-473.268 451.167,-342.52 507.617,-305.034"/>
<polygon fill="midnightblue" stroke="midnightblue" points="36.6655,-235.84 32.4006,-226.141 29.6866,-236.382 36.6655,-235.84"/>
</g>
<!-- Node20 -->
<g id="node19" class="node"><title>Node20</title>
<g id="a_node19"><a xlink:href="../../d6/d1a/precode_8c_a64e2c5739177d2991dea9ab54f2469b6.html#a64e2c5739177d2991dea9ab54f2469b6" target="_top" xlink:title="precode_matrix_init_HDPC">
<polygon fill="none" stroke="black" points="271.5,-311 271.5,-330 407.5,-330 407.5,-311 271.5,-311"/>
<text text-anchor="middle" x="339.5" y="-318" font-family="Helvetica,sans-Serif" font-size="10.00">precode_matrix_init_HDPC</text>
</a>
</g>
</g>
<!-- Node2&#45;&gt;Node20 -->
<g id="edge30" class="edge"><title>Node2&#45;&gt;Node20</title>
<path fill="none" stroke="midnightblue" d="M40.341,-235.374C50.6202,-256.106 70.2041,-288.452 98,-303.5 151.282,-332.345 221.2,-334.005 271.906,-330.001"/>
<polygon fill="midnightblue" stroke="midnightblue" points="43.4741,-233.812 36.0471,-226.256 37.1413,-236.794 43.4741,-233.812"/>
</g>
<!-- Node21 -->
<g id="node20" class="node"><title>Node21</title>
<g id="a_node20"><a xlink:href="../../d6/d1a/precode_8c_a88ec15cf62d897ab1df189175429c7f8.html#a88ec15cf62d897ab1df189175429c7f8" target="_top" xlink:title="precode_matrix_make\l_GAMMA">
<polygon fill="none" stroke="black" points="107.5,-264.5 107.5,-294.5 220.5,-294.5 220.5,-264.5 107.5,-264.5"/>
<text text-anchor="start" x="115.5" y="-282.5" font-family="Helvetica,sans-Serif" font-size="10.00">precode_matrix_make</text>
<text text-anchor="middle" x="164" y="-271.5" font-family="Helvetica,sans-Serif" font-size="10.00">_GAMMA</text>
</a>
</g>
</g>
<!-- Node2&#45;&gt;Node21 -->
<g id="edge34" class="edge"><title>Node2&#45;&gt;Node21</title>
<path fill="none" stroke="midnightblue" d="M55.8622,-231.438C68.1962,-238.849 83.6384,-247.655 98,-254.5 105.313,-257.985 113.25,-261.359 120.984,-264.44"/>
<polygon fill="midnightblue" stroke="midnightblue" points="57.4657,-228.317 47.1056,-226.099 53.8213,-234.293 57.4657,-228.317"/>
</g>
<!-- Node22 -->
<g id="node21" class="node"><title>Node22</title>
<g id="a_node21"><a xlink:href="../../d6/d1a/precode_8c_a291ab32ffee6435673b4693d8c74952f.html#a291ab32ffee6435673b4693d8c74952f" target="_top" xlink:title="precode_matrix_make_MT">
<polygon fill="none" stroke="black" points="98,-352 98,-371 230,-371 230,-352 98,-352"/>
<text text-anchor="middle" x="164" y="-359" font-family="Helvetica,sans-Serif" font-size="10.00">precode_matrix_make_MT</text>
</a>
</g>
</g>
<!-- Node2&#45;&gt;Node22 -->
<g id="edge36" class="edge"><title>Node2&#45;&gt;Node22</title>
<path fill="none" stroke="midnightblue" d="M37.74,-235.804C46.552,-262.279 65.8541,-309.725 98,-337.5 105.282,-343.792 114.36,-348.495 123.401,-351.988"/>
<polygon fill="midnightblue" stroke="midnightblue" points="41.0427,-234.64 34.6889,-226.162 34.3689,-236.752 41.0427,-234.64"/>
</g>
<!-- Node3&#45;&gt;Node4 -->
<g id="edge2" class="edge"><title>Node3&#45;&gt;Node4</title>
<path fill="none" stroke="midnightblue" d="M216.878,-229.819C232.232,-228.137 249.335,-226.265 265.75,-224.467"/>
<polygon fill="midnightblue" stroke="midnightblue" points="216.117,-226.381 206.558,-230.949 216.879,-233.34 216.117,-226.381"/>
</g>
<!-- Node4&#45;&gt;Node5 -->
<g id="edge3" class="edge"><title>Node4&#45;&gt;Node5</title>
<path fill="none" stroke="midnightblue" d="M405.475,-227.816C473.233,-239.616 578.26,-257.908 641.885,-268.988"/>
<polygon fill="midnightblue" stroke="midnightblue" points="405.797,-224.319 395.345,-226.052 404.596,-231.216 405.797,-224.319"/>
</g>
<!-- Node4&#45;&gt;Node10 -->
<g id="edge9" class="edge"><title>Node4&#45;&gt;Node10</title>
<path fill="none" stroke="midnightblue" d="M380.688,-203.844C414.053,-193.337 460.791,-178.618 491.106,-169.072"/>
<polygon fill="midnightblue" stroke="midnightblue" points="379.282,-200.617 370.795,-206.959 381.385,-207.294 379.282,-200.617"/>
</g>
<!-- Node6 -->
<g id="node5" class="node"><title>Node6</title>
<g id="a_node5"><a xlink:href="../../dd/d3f/encode_8c_a3c04138a5bfe5d72780bb7e82a18e627.html#a3c04138a5bfe5d72780bb7e82a18e627" target="_top" xlink:title="main">
<polygon fill="none" stroke="black" points="1146,-250 1146,-269 1184,-269 1184,-250 1146,-250"/>
<text text-anchor="middle" x="1165" y="-257" font-family="Helvetica,sans-Serif" font-size="10.00">main</text>
</a>
</g>
</g>
<!-- Node5&#45;&gt;Node6 -->
<g id="edge4" class="edge"><title>Node5&#45;&gt;Node6</title>
<path fill="none" stroke="midnightblue" d="M773.304,-275.447C883.794,-270.937 1084.19,-262.758 1145.61,-260.251"/>
<polygon fill="midnightblue" stroke="midnightblue" points="773.075,-271.953 763.226,-275.858 773.36,-278.947 773.075,-271.953"/>
</g>
<!-- Node7 -->
<g id="node6" class="node"><title>Node7</title>
<g id="a_node6"><a xlink:href="../../d6/da2/nanorq_8h_a956615eb4ea3ce34369951295e93f708.html#a956615eb4ea3ce34369951295e93f708" target="_top" xlink:title="nanorq_encode">
<polygon fill="none" stroke="black" points="813,-231 813,-250 896,-250 896,-231 813,-231"/>
<text text-anchor="middle" x="854.5" y="-238" font-family="Helvetica,sans-Serif" font-size="10.00">nanorq_encode</text>
</a>
</g>
</g>
<!-- Node5&#45;&gt;Node7 -->
<g id="edge5" class="edge"><title>Node5&#45;&gt;Node7</title>
<path fill="none" stroke="midnightblue" d="M747.611,-266.46C769.265,-261.151 794.35,-255.001 814.668,-250.02"/>
<polygon fill="midnightblue" stroke="midnightblue" points="746.492,-263.13 737.613,-268.911 748.159,-269.929 746.492,-263.13"/>
</g>
<!-- Node8 -->
<g id="node7" class="node"><title>Node8</title>
<g id="a_node7"><a xlink:href="../../dd/d3f/encode_8c_a0993cb61d7e4c1b1a1606d159f5b1410.html#a0993cb61d7e4c1b1a1606d159f5b1410" target="_top" xlink:title="dump_esi">
<polygon fill="none" stroke="black" points="946,-231 946,-250 1005,-250 1005,-231 946,-231"/>
<text text-anchor="middle" x="975.5" y="-238" font-family="Helvetica,sans-Serif" font-size="10.00">dump_esi</text>
</a>
</g>
</g>
<!-- Node7&#45;&gt;Node8 -->
<g id="edge6" class="edge"><title>Node7&#45;&gt;Node8</title>
<path fill="none" stroke="midnightblue" d="M906.263,-240.5C919.744,-240.5 933.838,-240.5 945.692,-240.5"/>
<polygon fill="midnightblue" stroke="midnightblue" points="906.12,-237 896.12,-240.5 906.12,-244 906.12,-237"/>
</g>
<!-- Node9 -->
<g id="node8" class="node"><title>Node9</title>
<g id="a_node8"><a xlink:href="../../dd/d3f/encode_8c_ae7f8bbf4dcea92f802d2521fa0264f93.html#ae7f8bbf4dcea92f802d2521fa0264f93" target="_top" xlink:title="dump_block">
<polygon fill="none" stroke="black" points="1041,-231 1041,-250 1110,-250 1110,-231 1041,-231"/>
<text text-anchor="middle" x="1075.5" y="-238" font-family="Helvetica,sans-Serif" font-size="10.00">dump_block</text>
</a>
</g>
</g>
<!-- Node8&#45;&gt;Node9 -->
<g id="edge7" class="edge"><title>Node8&#45;&gt;Node9</title>
<path fill="none" stroke="midnightblue" d="M1015.17,-240.5C1023.65,-240.5 1032.57,-240.5 1040.84,-240.5"/>
<polygon fill="midnightblue" stroke="midnightblue" points="1015.11,-237 1005.11,-240.5 1015.11,-244 1015.11,-237"/>
</g>
<!-- Node9&#45;&gt;Node6 -->
<g id="edge8" class="edge"><title>Node9&#45;&gt;Node6</title>
<path fill="none" stroke="midnightblue" d="M1119.92,-249.928C1129.06,-251.913 1138.22,-253.902 1145.8,-255.549"/>
<polygon fill="midnightblue" stroke="midnightblue" points="1120.59,-246.493 1110.08,-247.792 1119.11,-253.334 1120.59,-246.493"/>
</g>
<!-- Node10&#45;&gt;Node11 -->
<g id="edge10" class="edge"><title>Node10&#45;&gt;Node11</title>
<path fill="none" stroke="midnightblue" d="M606.19,-155.676C616.744,-155.188 627.373,-154.697 637.448,-154.231"/>
<polygon fill="midnightblue" stroke="midnightblue" points="605.943,-152.184 596.116,-156.142 606.267,-159.176 605.943,-152.184"/>
</g>
<!-- Node12 -->
<g id="node11" class="node"><title>Node12</title>
<g id="a_node11"><a xlink:href="../../d6/da2/nanorq_8h_aa1dcf83669e76931be0e6e7a1f02c185.html#aa1dcf83669e76931be0e6e7a1f02c185" target="_top" xlink:title="nanorq_decode_block">
<polygon fill="none" stroke="black" points="799,-126 799,-145 910,-145 910,-126 799,-126"/>
<text text-anchor="middle" x="854.5" y="-133" font-family="Helvetica,sans-Serif" font-size="10.00">nanorq_decode_block</text>
</a>
</g>
</g>
<!-- Node11&#45;&gt;Node12 -->
<g id="edge11" class="edge"><title>Node11&#45;&gt;Node12</title>
<path fill="none" stroke="midnightblue" d="M767.54,-144.373C778.064,-143.287 788.798,-142.179 798.954,-141.131"/>
<polygon fill="midnightblue" stroke="midnightblue" points="767.129,-140.897 757.541,-145.405 767.848,-147.86 767.129,-140.897"/>
</g>
<!-- Node13 -->
<g id="node12" class="node"><title>Node13</title>
<g id="a_node12"><a xlink:href="../../da/d0d/decode_8c_a3c04138a5bfe5d72780bb7e82a18e627.html#a3c04138a5bfe5d72780bb7e82a18e627" target="_top" xlink:title="main">
<polygon fill="none" stroke="black" points="956.5,-69 956.5,-88 994.5,-88 994.5,-69 956.5,-69"/>
<text text-anchor="middle" x="975.5" y="-76" font-family="Helvetica,sans-Serif" font-size="10.00">main</text>
</a>
</g>
</g>
<!-- Node12&#45;&gt;Node13 -->
<g id="edge12" class="edge"><title>Node12&#45;&gt;Node13</title>
<path fill="none" stroke="midnightblue" d="M895.954,-122.403C900.744,-120.557 905.52,-118.576 910,-116.5 927.924,-108.194 947.302,-96.3551 960.089,-88.1066"/>
<polygon fill="midnightblue" stroke="midnightblue" points="894.371,-119.255 886.19,-125.987 896.783,-125.826 894.371,-119.255"/>
</g>
<!-- Node14&#45;&gt;Node12 -->
<g id="edge14" class="edge"><title>Node14&#45;&gt;Node12</title>
<path fill="none" stroke="midnightblue" d="M736.556,-96.2673C763.884,-105.435 800.134,-117.596 824.989,-125.935"/>
<polygon fill="midnightblue" stroke="midnightblue" points="737.523,-92.9 726.929,-93.0376 735.297,-99.5365 737.523,-92.9"/>
</g>
<!-- Node14&#45;&gt;Node15 -->
<g id="edge15" class="edge"><title>Node14&#45;&gt;Node15</title>
<path fill="none" stroke="midnightblue" d="M729.734,-69.7973C755.648,-58.4284 792.449,-42.2836 819.182,-30.5558"/>
<polygon fill="midnightblue" stroke="midnightblue" points="728.13,-66.6788 720.379,-73.9015 730.943,-73.0891 728.13,-66.6788"/>
</g>
<!-- Node16 -->
<g id="node15" class="node"><title>Node16</title>
<g id="a_node15"><a xlink:href="../../d6/da2/nanorq_8h_a327401e07be8814bccd6c39facecdbe1.html#a327401e07be8814bccd6c39facecdbe1" target="_top" xlink:title="nanorq_num_missing">
<polygon fill="none" stroke="black" points="800,-50 800,-69 909,-69 909,-50 800,-50"/>
<text text-anchor="middle" x="854.5" y="-57" font-family="Helvetica,sans-Serif" font-size="10.00">nanorq_num_missing</text>
</a>
</g>
</g>
<!-- Node14&#45;&gt;Node16 -->
<g id="edge17" class="edge"><title>Node14&#45;&gt;Node16</title>
<path fill="none" stroke="midnightblue" d="M765.041,-73.197C776.713,-71.3895 788.725,-69.5297 799.987,-67.786"/>
<polygon fill="midnightblue" stroke="midnightblue" points="764.244,-69.7785 754.897,-74.7676 765.315,-76.6961 764.244,-69.7785"/>
</g>
<!-- Node17 -->
<g id="node16" class="node"><title>Node17</title>
<g id="a_node16"><a xlink:href="../../d6/da2/nanorq_8h_a629b649caa8a354b60fe63cd1570a061.html#a629b649caa8a354b60fe63cd1570a061" target="_top" xlink:title="nanorq_num_repair">
<polygon fill="none" stroke="black" points="805,-88 805,-107 904,-107 904,-88 805,-88"/>
<text text-anchor="middle" x="854.5" y="-95" font-family="Helvetica,sans-Serif" font-size="10.00">nanorq_num_repair</text>
</a>
</g>
</g>
<!-- Node14&#45;&gt;Node17 -->
<g id="edge19" class="edge"><title>Node14&#45;&gt;Node17</title>
<path fill="none" stroke="midnightblue" d="M765.007,-89.5071C778.377,-90.7147 792.193,-91.9626 804.818,-93.103"/>
<polygon fill="midnightblue" stroke="midnightblue" points="765.171,-86.0078 754.897,-88.5939 764.542,-92.9794 765.171,-86.0078"/>
</g>
<!-- Node15&#45;&gt;Node13 -->
<g id="edge16" class="edge"><title>Node15&#45;&gt;Node13</title>
<path fill="none" stroke="midnightblue" d="M899.044,-34.9876C902.773,-36.8035 906.468,-38.6554 910,-40.5 927.281,-49.5239 946.455,-61.0192 959.371,-68.9916"/>
<polygon fill="midnightblue" stroke="midnightblue" points="900.308,-31.7131 889.775,-30.573 897.298,-38.0329 900.308,-31.7131"/>
</g>
<!-- Node16&#45;&gt;Node13 -->
<g id="edge18" class="edge"><title>Node16&#45;&gt;Node13</title>
<path fill="none" stroke="midnightblue" d="M919.091,-69.6532C932.824,-71.8458 946.265,-73.9919 956.469,-75.6211"/>
<polygon fill="midnightblue" stroke="midnightblue" points="919.509,-66.1756 909.082,-68.0551 918.405,-73.0881 919.509,-66.1756"/>
</g>
<!-- Node17&#45;&gt;Node13 -->
<g id="edge20" class="edge"><title>Node17&#45;&gt;Node13</title>
<path fill="none" stroke="midnightblue" d="M914.235,-88.1221C929.517,-85.6821 944.866,-83.2315 956.249,-81.414"/>
<polygon fill="midnightblue" stroke="midnightblue" points="913.568,-84.6842 904.245,-89.7172 914.672,-91.5966 913.568,-84.6842"/>
</g>
<!-- Node18&#45;&gt;Node7 -->
<g id="edge25" class="edge"><title>Node18&#45;&gt;Node7</title>
<path fill="none" stroke="midnightblue" d="M403.572,-170.778C418.459,-173.376 434.281,-176.083 449,-178.5 582.029,-200.34 740.082,-223.866 812.978,-234.58"/>
<polygon fill="midnightblue" stroke="midnightblue" points="403.894,-167.282 393.44,-169.003 402.686,-174.177 403.894,-167.282"/>
</g>
<!-- Node18&#45;&gt;Node10 -->
<g id="edge26" class="edge"><title>Node18&#45;&gt;Node10</title>
<path fill="none" stroke="midnightblue" d="M409.852,-159.5C422.614,-159.5 435.97,-159.5 448.826,-159.5"/>
<polygon fill="midnightblue" stroke="midnightblue" points="409.766,-156 399.766,-159.5 409.766,-163 409.766,-156"/>
</g>
<!-- Node19&#45;&gt;Node5 -->
<g id="edge28" class="edge"><title>Node19&#45;&gt;Node5</title>
<path fill="none" stroke="midnightblue" d="M585.193,-289.438C600.297,-287.953 616.504,-286.361 631.748,-284.863"/>
<polygon fill="midnightblue" stroke="midnightblue" points="584.547,-285.984 574.937,-290.445 585.232,-292.951 584.547,-285.984"/>
</g>
<!-- Node19&#45;&gt;Node11 -->
<g id="edge29" class="edge"><title>Node19&#45;&gt;Node11</title>
<path fill="none" stroke="midnightblue" d="M543.006,-279.264C579.221,-249.12 655.809,-185.37 684.931,-161.13"/>
<polygon fill="midnightblue" stroke="midnightblue" points="540.566,-276.741 535.12,-285.828 545.045,-282.121 540.566,-276.741"/>
</g>
<!-- Node20&#45;&gt;Node19 -->
<g id="edge31" class="edge"><title>Node20&#45;&gt;Node19</title>
<path fill="none" stroke="midnightblue" d="M417.962,-309.801C435.661,-307.356 454.039,-304.818 470.312,-302.57"/>
<polygon fill="midnightblue" stroke="midnightblue" points="417.068,-306.391 407.641,-311.226 418.025,-313.325 417.068,-306.391"/>
</g>
<!-- Node21&#45;&gt;Node20 -->
<g id="edge35" class="edge"><title>Node21&#45;&gt;Node20</title>
<path fill="none" stroke="midnightblue" d="M230.759,-295.04C253.426,-300.396 278.128,-306.233 298.154,-310.966"/>
<polygon fill="midnightblue" stroke="midnightblue" points="231.388,-291.592 220.852,-292.698 229.779,-298.404 231.388,-291.592"/>
</g>
<!-- Node22&#45;&gt;Node20 -->
<g id="edge37" class="edge"><title>Node22&#45;&gt;Node20</title>
<path fill="none" stroke="midnightblue" d="M215.057,-349.671C241.449,-343.434 273.396,-335.885 298.178,-330.029"/>
<polygon fill="midnightblue" stroke="midnightblue" points="214.167,-346.285 205.24,-351.991 215.777,-353.097 214.167,-346.285"/>
</g>
</g>
</svg>
        <g id="navigator" transform="translate(0 0)" fill="#404254">
                <rect fill="#f2f5e9" fill-opacity="0.5" stroke="#606060" stroke-width=".5" x="0" y="0" width="60" height="60"/>
                <use id="zoomplus" xlink:href="#zoomPlus" x="17" y="9" onmousedown="handleZoom(evt,'in')"/>
                <use id="zoomminus" xlink:href="#zoomMin" x="42" y="9" onmousedown="handleZoom(evt,'out')"/>
                <use id="reset" xlink:href="#resetDef" x="30" y="36" onmousedown="handleReset()"/>
                <g id="arrowUp" xlink:href="#dirArrow" transform="translate(30 24)" onmousedown="handlePan(0,-1)">
                  <use xlink:href="#rim" fill="#404040">
                        <set attributeName="fill" to="#808080" begin="arrowUp.mouseover" end="arrowUp.mouseout"/>
                  </use>
                  <path fill="none" stroke="white" stroke-width="1.5" d="M0,-3.0v7 M-2.5,-0.5L0,-3.0L2.5,-0.5"/>
                </g>
                <g id="arrowRight" xlink:href="#dirArrow" transform="rotate(90) translate(36 -43)" onmousedown="handlePan(1,0)">
                  <use xlink:href="#rim" fill="#404040">
                        <set attributeName="fill" to="#808080" begin="arrowRight.mouseover" end="arrowRight.mouseout"/>
                  </use>
                  <path fill="none" stroke="white" stroke-width="1.5" d="M0,-3.0v7 M-2.5,-0.5L0,-3.0L2.5,-0.5"/>
                </g>
                <g id="arrowDown" xlink:href="#dirArrow" transform="rotate(180) translate(-30 -48)" onmousedown="handlePan(0,1)">
                  <use xlink:href="#rim" fill="#404040">
                        <set attributeName="fill" to="#808080" begin="arrowDown.mouseover" end="arrowDown.mouseout"/>
                  </use>
                  <path fill="none" stroke="white" stroke-width="1.5" d="M0,-3.0v7 M-2.5,-0.5L0,-3.0L2.5,-0.5"/>
                </g>
                <g id="arrowLeft" xlink:href="#dirArrow" transform="rotate(270) translate(-36 17)" onmousedown="handlePan(-1,0)">
                  <use xlink:href="#rim" fill="#404040">
                        <set attributeName="fill" to="#808080" begin="arrowLeft.mouseover" end="arrowLeft.mouseout"/>
                  </use>
                  <path fill="none" stroke="white" stroke-width="1.5" d="M0,-3.0v7 M-2.5,-0.5L0,-3.0L2.5,-0.5"/>
                </g>
        </g>
        <svg viewBox="0 0 15 15" width="100%" height="30px" preserveAspectRatio="xMaxYMin meet">
         <g id="arrow_out" transform="scale(0.3 0.3)">
          <a xlink:href="octmat_8h_a0db07e8a815b999f9837c74c31213cdb_a0db07e8a815b999f9837c74c31213cdb_icgraph_org.svg" target="_base">
           <rect id="button" ry="5" rx="5" y="6" x="6" height="38" width="38"
                fill="#f2f5e9" fill-opacity="0.5" stroke="#606060" stroke-width="1.0"/>
           <path id="arrow"
             d="M 11.500037,31.436501 C 11.940474,20.09759 22.043105,11.32322 32.158766,21.979434 L 37.068811,17.246167 C 37.068811,17.246167 37.088388,32 37.088388,32 L 22.160133,31.978069 C 22.160133,31.978069 26.997745,27.140456 26.997745,27.140456 C 18.528582,18.264221 13.291696,25.230495 11.500037,31.436501 z"
             style="fill:#404040;"/>
          </a>
         </g>
        </svg>
</svg>
