<?xml version="1.0" encoding="UTF-8" standalone="no"?>
<!DOCTYPE svg PUBLIC "-//W3C//DTD SVG 1.1//EN"
 "http://www.w3.org/Graphics/SVG/1.1/DTD/svg11.dtd">
<!-- Generated by graphviz version 2.38.0 (20140413.2041)
 -->
<!-- Title: io.h Pages: 1 -->
<svg width="338pt" height="84pt"
 viewBox="0.00 0.00 337.50 84.00" xmlns="http://www.w3.org/2000/svg" xmlns:xlink="http://www.w3.org/1999/xlink">
<g id="graph0" class="graph" transform="scale(1 1) rotate(0) translate(4 80)">
<title>io.h</title>
<!-- Node1 -->
<g id="node1" class="node"><title>Node1</title>
<polygon fill="#bfbfbf" stroke="black" points="163.5,-56.5 163.5,-75.5 195.5,-75.5 195.5,-56.5 163.5,-56.5"/>
<text text-anchor="middle" x="179.5" y="-63.5" font-family="Helvetica,sans-Serif" font-size="10.00">io.h</text>
</g>
<!-- Node2 -->
<g id="node2" class="node"><title>Node2</title>
<g id="a_node2"><a xlink:href="../../da/d1f/chooser_8c.html" target="_top" xlink:title="chooser.c">
<polygon fill="none" stroke="black" points="0,-0.5 0,-19.5 59,-19.5 59,-0.5 0,-0.5"/>
<text text-anchor="middle" x="29.5" y="-7.5" font-family="Helvetica,sans-Serif" font-size="10.00">chooser.c</text>
</a>
</g>
</g>
<!-- Node1&#45;&gt;Node2 -->
<g id="edge1" class="edge"><title>Node1&#45;&gt;Node2</title>
<path fill="none" stroke="midnightblue" d="M153.883,-55.7778C125.691,-45.6289 80.7439,-29.4478 53.299,-19.5676"/>
<polygon fill="midnightblue" stroke="midnightblue" points="152.853,-59.1269 163.447,-59.2211 155.224,-52.5407 152.853,-59.1269"/>
</g>
<!-- Node3 -->
<g id="node3" class="node"><title>Node3</title>
<g id="a_node3"><a xlink:href="../../da/d0d/decode_8c.html" target="_top" xlink:title="decode.c">
<polygon fill="none" stroke="black" points="77.5,-0.5 77.5,-19.5 133.5,-19.5 133.5,-0.5 77.5,-0.5"/>
<text text-anchor="middle" x="105.5" y="-7.5" font-family="Helvetica,sans-Serif" font-size="10.00">decode.c</text>
</a>
</g>
</g>
<!-- Node1&#45;&gt;Node3 -->
<g id="edge2" class="edge"><title>Node1&#45;&gt;Node3</title>
<path fill="none" stroke="midnightblue" d="M159.466,-50.3804C146.091,-40.6204 128.941,-28.1057 117.606,-19.8339"/>
<polygon fill="midnightblue" stroke="midnightblue" points="157.47,-53.2565 167.611,-56.324 161.596,-47.602 157.47,-53.2565"/>
</g>
<!-- Node4 -->
<g id="node4" class="node"><title>Node4</title>
<g id="a_node4"><a xlink:href="../../dd/d3f/encode_8c.html" target="_top" xlink:title="encode.c">
<polygon fill="none" stroke="black" points="151.5,-0.5 151.5,-19.5 207.5,-19.5 207.5,-0.5 151.5,-0.5"/>
<text text-anchor="middle" x="179.5" y="-7.5" font-family="Helvetica,sans-Serif" font-size="10.00">encode.c</text>
</a>
</g>
</g>
<!-- Node1&#45;&gt;Node4 -->
<g id="edge3" class="edge"><title>Node1&#45;&gt;Node4</title>
<path fill="none" stroke="midnightblue" d="M179.5,-45.8045C179.5,-36.9102 179.5,-26.7798 179.5,-19.7511"/>
<polygon fill="midnightblue" stroke="midnightblue" points="176,-46.083 179.5,-56.083 183,-46.083 176,-46.083"/>
</g>
<!-- Node5 -->
<g id="node5" class="node"><title>Node5</title>
<g id="a_node5"><a xlink:href="../../df/d0a/io_8c.html" target="_top" xlink:title="io.c">
<polygon fill="none" stroke="black" points="225.5,-0.5 225.5,-19.5 257.5,-19.5 257.5,-0.5 225.5,-0.5"/>
<text text-anchor="middle" x="241.5" y="-7.5" font-family="Helvetica,sans-Serif" font-size="10.00">io.c</text>
</a>
</g>
</g>
<!-- Node1&#45;&gt;Node5 -->
<g id="edge4" class="edge"><title>Node1&#45;&gt;Node5</title>
<path fill="none" stroke="midnightblue" d="M197.254,-49.5372C208.308,-39.9087 222.131,-27.8694 231.357,-19.8339"/>
<polygon fill="midnightblue" stroke="midnightblue" points="194.703,-47.1168 189.461,-56.324 199.301,-52.3954 194.703,-47.1168"/>
</g>
<!-- Node6 -->
<g id="node6" class="node"><title>Node6</title>
<g id="a_node6"><a xlink:href="../../d1/d0b/nanorq_8c.html" target="_top" xlink:title="nanorq.c">
<polygon fill="none" stroke="black" points="275.5,-0.5 275.5,-19.5 329.5,-19.5 329.5,-0.5 275.5,-0.5"/>
<text text-anchor="middle" x="302.5" y="-7.5" font-family="Helvetica,sans-Serif" font-size="10.00">nanorq.c</text>
</a>
</g>
</g>
<!-- Node1&#45;&gt;Node6 -->
<g id="edge5" class="edge"><title>Node1&#45;&gt;Node6</title>
<path fill="none" stroke="midnightblue" d="M204.764,-53.9083C227.867,-43.7659 261.572,-28.9684 282.755,-19.6685"/>
<polygon fill="midnightblue" stroke="midnightblue" points="203.33,-50.7157 195.58,-57.9404 206.144,-57.1252 203.33,-50.7157"/>
</g>
</g>
</svg>
