<?xml version="1.0" encoding="UTF-8" standalone="no"?>
<!DOCTYPE svg PUBLIC "-//W3C//DTD SVG 1.1//EN"
 "http://www.w3.org/Graphics/SVG/1.1/DTD/svg11.dtd">
<!-- Generated by graphviz version 2.38.0 (20140413.2041)
 -->
<!-- Title: source_block Pages: 1 -->
<svg width="82pt" height="226pt"
 viewBox="0.00 0.00 82.00 226.00" xmlns="http://www.w3.org/2000/svg" xmlns:xlink="http://www.w3.org/1999/xlink">
<g id="graph0" class="graph" transform="scale(1 1) rotate(0) translate(4 222)">
<title>source_block</title>
<!-- Node7 -->
<g id="node1" class="node"><title>Node7</title>
<polygon fill="#bfbfbf" stroke="black" points="0,-0.5 0,-79.5 74,-79.5 74,-0.5 0,-0.5"/>
<text text-anchor="middle" x="37" y="-67.5" font-family="Helvetica,sans-Serif" font-size="10.00">source_block</text>
<polyline fill="none" stroke="black" points="0,-60.5 74,-60.5 "/>
<text text-anchor="start" x="8" y="-48.5" font-family="Helvetica,sans-Serif" font-size="10.00">+ sbloc</text>
<text text-anchor="start" x="8" y="-37.5" font-family="Helvetica,sans-Serif" font-size="10.00">+ part_tot</text>
<text text-anchor="start" x="8" y="-26.5" font-family="Helvetica,sans-Serif" font-size="10.00">+ al</text>
<polyline fill="none" stroke="black" points="0,-19.5 74,-19.5 "/>
<text text-anchor="middle" x="37" y="-7.5" font-family="Helvetica,sans-Serif" font-size="10.00"> </text>
</g>
<!-- Node8 -->
<g id="node2" class="node"><title>Node8</title>
<g id="a_node2"><a xlink:href="../../d1/d0b/nanorq_8c.html#d3/d98/structpartition" target="_top" xlink:title="{partition\n|+ IL\l+ IS\l+ JL\l+ JS\l|}">
<polygon fill="none" stroke="black" points="11.5,-127.5 11.5,-217.5 62.5,-217.5 62.5,-127.5 11.5,-127.5"/>
<text text-anchor="middle" x="37" y="-205.5" font-family="Helvetica,sans-Serif" font-size="10.00">partition</text>
<polyline fill="none" stroke="black" points="11.5,-198.5 62.5,-198.5 "/>
<text text-anchor="start" x="19.5" y="-186.5" font-family="Helvetica,sans-Serif" font-size="10.00">+ IL</text>
<text text-anchor="start" x="19.5" y="-175.5" font-family="Helvetica,sans-Serif" font-size="10.00">+ IS</text>
<text text-anchor="start" x="19.5" y="-164.5" font-family="Helvetica,sans-Serif" font-size="10.00">+ JL</text>
<text text-anchor="start" x="19.5" y="-153.5" font-family="Helvetica,sans-Serif" font-size="10.00">+ JS</text>
<polyline fill="none" stroke="black" points="11.5,-146.5 62.5,-146.5 "/>
<text text-anchor="middle" x="37" y="-134.5" font-family="Helvetica,sans-Serif" font-size="10.00"> </text>
</a>
</g>
</g>
<!-- Node8&#45;&gt;Node7 -->
<g id="edge1" class="edge"><title>Node8&#45;&gt;Node7</title>
<path fill="none" stroke="#404040" d="M37,-127.319C37,-116.024 37,-103.785 37,-92.1718"/>
<polygon fill="none" stroke="#404040" points="37.0001,-91.8892 33,-85.8893 37,-79.8892 41,-85.8892 37.0001,-91.8892"/>
<text text-anchor="middle" x="50" y="-101" font-family="Helvetica,sans-Serif" font-size="10.00"> +part</text>
</g>
</g>
</svg>
