<?xml version="1.0" encoding="UTF-8" standalone="no"?>
<!DOCTYPE svg PUBLIC "-//W3C//DTD SVG 1.1//EN"
 "http://www.w3.org/Graphics/SVG/1.1/DTD/svg11.dtd">
<!-- Generated by graphviz version 2.38.0 (20140413.2041)
 -->
<!-- Title: precode_matrix_init_HDPC Pages: 1 -->
<svg width="487pt" height="192pt"
 viewBox="0.00 0.00 487.00 192.00" xmlns="http://www.w3.org/2000/svg" xmlns:xlink="http://www.w3.org/1999/xlink">
<g id="graph0" class="graph" transform="scale(1 1) rotate(0) translate(4 188)">
<title>precode_matrix_init_HDPC</title>
<!-- Node0 -->
<g id="node1" class="node"><title>Node0</title>
<polygon fill="#bfbfbf" stroke="black" points="0,-88.5 0,-107.5 136,-107.5 136,-88.5 0,-88.5"/>
<text text-anchor="middle" x="68" y="-95.5" font-family="Helvetica,sans-Serif" font-size="10.00">precode_matrix_init_HDPC</text>
</g>
<!-- Node1 -->
<g id="node2" class="node"><title>Node1</title>
<g id="a_node2"><a xlink:href="../../d3/d5a/oblas_8h_a85e2604cc8aec26b591370ab48307bcc.html#a85e2604cc8aec26b591370ab48307bcc" target="_top" xlink:title="ogemm">
<polygon fill="none" stroke="black" points="213.5,-164.5 213.5,-183.5 262.5,-183.5 262.5,-164.5 213.5,-164.5"/>
<text text-anchor="middle" x="238" y="-171.5" font-family="Helvetica,sans-Serif" font-size="10.00">ogemm</text>
</a>
</g>
</g>
<!-- Node0&#45;&gt;Node1 -->
<g id="edge1" class="edge"><title>Node0&#45;&gt;Node1</title>
<path fill="none" stroke="midnightblue" d="M83.8302,-107.587C103.389,-119.903 139.176,-141.318 172,-155 182.011,-159.173 193.247,-162.805 203.526,-165.745"/>
<polygon fill="midnightblue" stroke="midnightblue" points="202.836,-169.185 213.405,-168.449 204.684,-162.433 202.836,-169.185"/>
</g>
<!-- Node2 -->
<g id="node3" class="node"><title>Node2</title>
<g id="a_node3"><a xlink:href="../../d2/dd1/octmat_8c_ac7854c0635a9441a5a352f95dbbd7bbd.html#ac7854c0635a9441a5a352f95dbbd7bbd" target="_top" xlink:title="om_destroy">
<polygon fill="none" stroke="black" points="204,-126.5 204,-145.5 272,-145.5 272,-126.5 204,-126.5"/>
<text text-anchor="middle" x="238" y="-133.5" font-family="Helvetica,sans-Serif" font-size="10.00">om_destroy</text>
</a>
</g>
</g>
<!-- Node0&#45;&gt;Node2 -->
<g id="edge2" class="edge"><title>Node0&#45;&gt;Node2</title>
<path fill="none" stroke="midnightblue" d="M111.393,-107.589C136.596,-113.29 168.485,-120.502 193.824,-126.234"/>
<polygon fill="midnightblue" stroke="midnightblue" points="193.364,-129.718 203.89,-128.511 194.909,-122.891 193.364,-129.718"/>
</g>
<!-- Node3 -->
<g id="node4" class="node"><title>Node3</title>
<g id="a_node4"><a xlink:href="../../d2/dd1/octmat_8c_a0db07e8a815b999f9837c74c31213cdb.html#a0db07e8a815b999f9837c74c31213cdb" target="_top" xlink:title="om_resize">
<polygon fill="none" stroke="black" points="340,-44.5 340,-63.5 402,-63.5 402,-44.5 340,-44.5"/>
<text text-anchor="middle" x="371" y="-51.5" font-family="Helvetica,sans-Serif" font-size="10.00">om_resize</text>
</a>
</g>
</g>
<!-- Node0&#45;&gt;Node3 -->
<g id="edge3" class="edge"><title>Node0&#45;&gt;Node3</title>
<path fill="none" stroke="midnightblue" d="M136.098,-97.5664C183.518,-96.0532 248.294,-91.5378 304,-79 316.112,-76.274 328.975,-71.7898 340.097,-67.366"/>
<polygon fill="midnightblue" stroke="midnightblue" points="341.454,-70.5923 349.36,-63.5397 338.782,-64.1225 341.454,-70.5923"/>
</g>
<!-- Node5 -->
<g id="node6" class="node"><title>Node5</title>
<g id="a_node6"><a xlink:href="../../d6/d1a/precode_8c_a88ec15cf62d897ab1df189175429c7f8.html#a88ec15cf62d897ab1df189175429c7f8" target="_top" xlink:title="precode_matrix_make\l_GAMMA">
<polygon fill="none" stroke="black" points="181.5,-39 181.5,-69 294.5,-69 294.5,-39 181.5,-39"/>
<text text-anchor="start" x="189.5" y="-57" font-family="Helvetica,sans-Serif" font-size="10.00">precode_matrix_make</text>
<text text-anchor="middle" x="238" y="-46" font-family="Helvetica,sans-Serif" font-size="10.00">_GAMMA</text>
</a>
</g>
</g>
<!-- Node0&#45;&gt;Node5 -->
<g id="edge5" class="edge"><title>Node0&#45;&gt;Node5</title>
<path fill="none" stroke="midnightblue" d="M105.453,-88.4527C124.788,-83.3888 149.134,-77.0125 171.609,-71.1262"/>
<polygon fill="midnightblue" stroke="midnightblue" points="172.654,-74.4706 181.441,-68.5511 170.881,-67.699 172.654,-74.4706"/>
</g>
<!-- Node6 -->
<g id="node7" class="node"><title>Node6</title>
<g id="a_node7"><a xlink:href="../../d6/d1a/precode_8c_a291ab32ffee6435673b4693d8c74952f.html#a291ab32ffee6435673b4693d8c74952f" target="_top" xlink:title="precode_matrix_make_MT">
<polygon fill="none" stroke="black" points="172,-0.5 172,-19.5 304,-19.5 304,-0.5 172,-0.5"/>
<text text-anchor="middle" x="238" y="-7.5" font-family="Helvetica,sans-Serif" font-size="10.00">precode_matrix_make_MT</text>
</a>
</g>
</g>
<!-- Node0&#45;&gt;Node6 -->
<g id="edge7" class="edge"><title>Node0&#45;&gt;Node6</title>
<path fill="none" stroke="midnightblue" d="M80.6453,-88.4371C99.0173,-73.7726 136.319,-45.6811 172,-29 176.926,-26.6971 182.193,-24.6062 187.519,-22.7258"/>
<polygon fill="midnightblue" stroke="midnightblue" points="188.701,-26.0213 197.104,-19.5682 186.511,-19.3727 188.701,-26.0213"/>
</g>
<!-- Node4 -->
<g id="node5" class="node"><title>Node4</title>
<g id="a_node5"><a xlink:href="../../d3/d5a/oblas_8h_a1185f4074fc7932ed79a6f216203f2c4.html#a1185f4074fc7932ed79a6f216203f2c4" target="_top" xlink:title="ozero">
<polygon fill="none" stroke="black" points="438,-44.5 438,-63.5 479,-63.5 479,-44.5 438,-44.5"/>
<text text-anchor="middle" x="458.5" y="-51.5" font-family="Helvetica,sans-Serif" font-size="10.00">ozero</text>
</a>
</g>
</g>
<!-- Node3&#45;&gt;Node4 -->
<g id="edge4" class="edge"><title>Node3&#45;&gt;Node4</title>
<path fill="none" stroke="midnightblue" d="M402.385,-54C410.595,-54 419.47,-54 427.651,-54"/>
<polygon fill="midnightblue" stroke="midnightblue" points="427.89,-57.5001 437.89,-54 427.89,-50.5001 427.89,-57.5001"/>
</g>
<!-- Node5&#45;&gt;Node3 -->
<g id="edge6" class="edge"><title>Node5&#45;&gt;Node3</title>
<path fill="none" stroke="midnightblue" d="M294.556,-54C306.288,-54 318.455,-54 329.505,-54"/>
<polygon fill="midnightblue" stroke="midnightblue" points="329.707,-57.5001 339.707,-54 329.707,-50.5001 329.707,-57.5001"/>
</g>
<!-- Node6&#45;&gt;Node3 -->
<g id="edge8" class="edge"><title>Node6&#45;&gt;Node3</title>
<path fill="none" stroke="midnightblue" d="M273.564,-19.5623C283.443,-22.4416 294.19,-25.7137 304,-29 314.653,-32.5687 326.143,-36.7883 336.502,-40.7347"/>
<polygon fill="midnightblue" stroke="midnightblue" points="335.434,-44.0741 346.024,-44.4044 337.952,-37.5424 335.434,-44.0741"/>
</g>
<!-- Node7 -->
<g id="node8" class="node"><title>Node7</title>
<g id="a_node8"><a xlink:href="../../d6/df4/rand_8c_a080635c045f160d270060da9f4d8e5b7.html#a080635c045f160d270060da9f4d8e5b7" target="_top" xlink:title="rnd_get">
<polygon fill="none" stroke="black" points="346.5,-0.5 346.5,-19.5 395.5,-19.5 395.5,-0.5 346.5,-0.5"/>
<text text-anchor="middle" x="371" y="-7.5" font-family="Helvetica,sans-Serif" font-size="10.00">rnd_get</text>
</a>
</g>
</g>
<!-- Node6&#45;&gt;Node7 -->
<g id="edge9" class="edge"><title>Node6&#45;&gt;Node7</title>
<path fill="none" stroke="midnightblue" d="M304.116,-10C315.245,-10 326.389,-10 336.262,-10"/>
<polygon fill="midnightblue" stroke="midnightblue" points="336.417,-13.5001 346.417,-10 336.417,-6.5001 336.417,-13.5001"/>
</g>
</g>
</svg>
