<?xml version="1.0" encoding="UTF-8" standalone="no"?>
<!DOCTYPE svg PUBLIC "-//W3C//DTD SVG 1.1//EN"
 "http://www.w3.org/Graphics/SVG/1.1/DTD/svg11.dtd">
<!-- Generated by graphviz version 2.38.0 (20140413.2041)
 -->
<!-- Title: precode_matrix_intermediate1 Pages: 1 -->
<svg width="656pt" height="598pt"
 viewBox="0.00 0.00 656.00 598.00" xmlns="http://www.w3.org/2000/svg" xmlns:xlink="http://www.w3.org/1999/xlink">
<g id="graph0" class="graph" transform="scale(1 1) rotate(0) translate(4 594)">
<title>precode_matrix_intermediate1</title>
<!-- Node0 -->
<g id="node1" class="node"><title>Node0</title>
<polygon fill="#bfbfbf" stroke="black" points="0,-152.5 0,-171.5 147,-171.5 147,-152.5 0,-152.5"/>
<text text-anchor="middle" x="73.5" y="-159.5" font-family="Helvetica,sans-Serif" font-size="10.00">precode_matrix_intermediate1</text>
</g>
<!-- Node1 -->
<g id="node2" class="node"><title>Node1</title>
<g id="a_node2"><a xlink:href="../../d6/d1a/precode_8c_adde325d451f8ec9eb7f8f4542d81e884.html#adde325d451f8ec9eb7f8f4542d81e884" target="_top" xlink:title="decode_phase1">
<polygon fill="none" stroke="black" points="183,-380.5 183,-399.5 268,-399.5 268,-380.5 183,-380.5"/>
<text text-anchor="middle" x="225.5" y="-387.5" font-family="Helvetica,sans-Serif" font-size="10.00">decode_phase1</text>
</a>
</g>
</g>
<!-- Node0&#45;&gt;Node1 -->
<g id="edge1" class="edge"><title>Node0&#45;&gt;Node1</title>
<path fill="none" stroke="midnightblue" d="M80.7543,-171.507C103.531,-206.127 182.288,-325.838 212.538,-371.818"/>
<polygon fill="midnightblue" stroke="midnightblue" points="209.799,-374.022 218.219,-380.453 215.647,-370.175 209.799,-374.022"/>
</g>
<!-- Node15 -->
<g id="node16" class="node"><title>Node15</title>
<g id="a_node16"><a xlink:href="../../d6/d1a/precode_8c_a41bb3b163c071597877ad0de9bbbd756.html#a41bb3b163c071597877ad0de9bbbd756" target="_top" xlink:title="decode_phase2">
<polygon fill="none" stroke="black" points="183,-266.5 183,-285.5 268,-285.5 268,-266.5 183,-266.5"/>
<text text-anchor="middle" x="225.5" y="-273.5" font-family="Helvetica,sans-Serif" font-size="10.00">decode_phase2</text>
</a>
</g>
</g>
<!-- Node0&#45;&gt;Node15 -->
<g id="edge16" class="edge"><title>Node0&#45;&gt;Node15</title>
<path fill="none" stroke="midnightblue" d="M83.6077,-171.659C101.363,-190.085 142.43,-230.752 183,-257 185.728,-258.765 188.646,-260.452 191.624,-262.04"/>
<polygon fill="midnightblue" stroke="midnightblue" points="190.093,-265.187 200.607,-266.491 193.201,-258.915 190.093,-265.187"/>
</g>
<!-- Node17 -->
<g id="node18" class="node"><title>Node17</title>
<g id="a_node18"><a xlink:href="../../d6/d1a/precode_8c_a11824185dea7b498ffadaca55ae49090.html#a11824185dea7b498ffadaca55ae49090" target="_top" xlink:title="decode_phase3">
<polygon fill="none" stroke="black" points="183,-114.5 183,-133.5 268,-133.5 268,-114.5 183,-114.5"/>
<text text-anchor="middle" x="225.5" y="-121.5" font-family="Helvetica,sans-Serif" font-size="10.00">decode_phase3</text>
</a>
</g>
</g>
<!-- Node0&#45;&gt;Node17 -->
<g id="edge20" class="edge"><title>Node0&#45;&gt;Node17</title>
<path fill="none" stroke="midnightblue" d="M112.351,-152.411C131.967,-147.442 156.119,-141.323 176.979,-136.039"/>
<polygon fill="midnightblue" stroke="midnightblue" points="178.087,-139.369 186.921,-133.52 176.368,-132.583 178.087,-139.369"/>
</g>
<!-- Node19 -->
<g id="node20" class="node"><title>Node19</title>
<g id="a_node20"><a xlink:href="../../d2/dd1/octmat_8c_a4d2ed06936f8e9cba88b6b37e5a23712.html#a4d2ed06936f8e9cba88b6b37e5a23712" target="_top" xlink:title="om_copy">
<polygon fill="none" stroke="black" points="342.5,-152.5 342.5,-171.5 398.5,-171.5 398.5,-152.5 342.5,-152.5"/>
<text text-anchor="middle" x="370.5" y="-159.5" font-family="Helvetica,sans-Serif" font-size="10.00">om_copy</text>
</a>
</g>
</g>
<!-- Node0&#45;&gt;Node19 -->
<g id="edge32" class="edge"><title>Node0&#45;&gt;Node19</title>
<path fill="none" stroke="midnightblue" d="M147.043,-162C205.603,-162 285.632,-162 332.021,-162"/>
<polygon fill="midnightblue" stroke="midnightblue" points="332.223,-165.5 342.223,-162 332.223,-158.5 332.223,-165.5"/>
</g>
<!-- Node20 -->
<g id="node21" class="node"><title>Node20</title>
<g id="a_node21"><a xlink:href="../../d2/dd1/octmat_8c_ac7854c0635a9441a5a352f95dbbd7bbd.html#ac7854c0635a9441a5a352f95dbbd7bbd" target="_top" xlink:title="om_destroy">
<polygon fill="none" stroke="black" points="336.5,-76.5 336.5,-95.5 404.5,-95.5 404.5,-76.5 336.5,-76.5"/>
<text text-anchor="middle" x="370.5" y="-83.5" font-family="Helvetica,sans-Serif" font-size="10.00">om_destroy</text>
</a>
</g>
</g>
<!-- Node0&#45;&gt;Node20 -->
<g id="edge33" class="edge"><title>Node0&#45;&gt;Node20</title>
<path fill="none" stroke="midnightblue" d="M88.4798,-152.393C108.446,-139.215 146.735,-115.926 183,-105 230.569,-90.6688 287.72,-86.673 326.112,-85.7824"/>
<polygon fill="midnightblue" stroke="midnightblue" points="326.48,-89.2768 336.419,-85.6076 326.361,-82.2778 326.48,-89.2768"/>
</g>
<!-- Node21 -->
<g id="node22" class="node"><title>Node21</title>
<g id="a_node22"><a xlink:href="../../d2/dd1/octmat_8c_a0db07e8a815b999f9837c74c31213cdb.html#a0db07e8a815b999f9837c74c31213cdb" target="_top" xlink:title="om_resize">
<polygon fill="none" stroke="black" points="339.5,-38.5 339.5,-57.5 401.5,-57.5 401.5,-38.5 339.5,-38.5"/>
<text text-anchor="middle" x="370.5" y="-45.5" font-family="Helvetica,sans-Serif" font-size="10.00">om_resize</text>
</a>
</g>
</g>
<!-- Node0&#45;&gt;Node21 -->
<g id="edge34" class="edge"><title>Node0&#45;&gt;Node21</title>
<path fill="none" stroke="midnightblue" d="M84.6658,-152.485C102.872,-136.005 142.902,-102.262 183,-85 230.668,-64.4791 290.127,-55.2084 328.917,-51.1093"/>
<polygon fill="midnightblue" stroke="midnightblue" points="329.675,-54.5516 339.282,-50.0853 328.987,-47.5855 329.675,-54.5516"/>
</g>
<!-- Node23 -->
<g id="node24" class="node"><title>Node23</title>
<g id="a_node24"><a xlink:href="../../d6/d1a/precode_8c_a84a742aaa0a90e37baf8db8cd5a035b7.html#a84a742aaa0a90e37baf8db8cd5a035b7" target="_top" xlink:title="decode_phase4">
<polygon fill="none" stroke="black" points="183,-228.5 183,-247.5 268,-247.5 268,-228.5 183,-228.5"/>
<text text-anchor="middle" x="225.5" y="-235.5" font-family="Helvetica,sans-Serif" font-size="10.00">decode_phase4</text>
</a>
</g>
</g>
<!-- Node0&#45;&gt;Node23 -->
<g id="edge26" class="edge"><title>Node0&#45;&gt;Node23</title>
<path fill="none" stroke="midnightblue" d="M92.0147,-171.577C113.339,-183.15 150.532,-203.054 183,-219 186.401,-220.67 189.979,-222.379 193.549,-224.054"/>
<polygon fill="midnightblue" stroke="midnightblue" points="192.31,-227.338 202.856,-228.36 195.249,-220.985 192.31,-227.338"/>
</g>
<!-- Node24 -->
<g id="node25" class="node"><title>Node24</title>
<g id="a_node25"><a xlink:href="../../d6/d1a/precode_8c_a16925f32060a478093240f3b35ee664a.html#a16925f32060a478093240f3b35ee664a" target="_top" xlink:title="decode_phase5">
<polygon fill="none" stroke="black" points="183,-190.5 183,-209.5 268,-209.5 268,-190.5 183,-190.5"/>
<text text-anchor="middle" x="225.5" y="-197.5" font-family="Helvetica,sans-Serif" font-size="10.00">decode_phase5</text>
</a>
</g>
</g>
<!-- Node0&#45;&gt;Node24 -->
<g id="edge28" class="edge"><title>Node0&#45;&gt;Node24</title>
<path fill="none" stroke="midnightblue" d="M112.351,-171.589C131.967,-176.558 156.119,-182.677 176.979,-187.961"/>
<polygon fill="midnightblue" stroke="midnightblue" points="176.368,-191.417 186.921,-190.48 178.087,-184.631 176.368,-191.417"/>
</g>
<!-- Node25 -->
<g id="node26" class="node"><title>Node25</title>
<g id="a_node26"><a xlink:href="../../d3/d5a/oblas_8h_a1b5ea186506d2e5d84ba3cc292043e21.html#a1b5ea186506d2e5d84ba3cc292043e21" target="_top" xlink:title="ocopy">
<polygon fill="none" stroke="black" points="204,-0.5 204,-19.5 247,-19.5 247,-0.5 204,-0.5"/>
<text text-anchor="middle" x="225.5" y="-7.5" font-family="Helvetica,sans-Serif" font-size="10.00">ocopy</text>
</a>
</g>
</g>
<!-- Node0&#45;&gt;Node25 -->
<g id="edge31" class="edge"><title>Node0&#45;&gt;Node25</title>
<path fill="none" stroke="midnightblue" d="M80.9183,-152.353C96.3942,-129.612 137.841,-71.7289 183,-34 186.868,-30.7682 191.229,-27.7224 195.632,-24.9553"/>
<polygon fill="midnightblue" stroke="midnightblue" points="197.736,-27.7787 204.587,-19.6969 194.192,-21.7424 197.736,-27.7787"/>
</g>
<!-- Node2 -->
<g id="node3" class="node"><title>Node2</title>
<g id="a_node3"><a xlink:href="../../da/d1f/chooser_8c_a1563620df95c0a0ec6b572f5b1c89356.html#a1563620df95c0a0ec6b572f5b1c89356" target="_top" xlink:title="chooser_add_tracking_pair">
<polygon fill="none" stroke="black" points="304,-380.5 304,-399.5 437,-399.5 437,-380.5 304,-380.5"/>
<text text-anchor="middle" x="370.5" y="-387.5" font-family="Helvetica,sans-Serif" font-size="10.00">chooser_add_tracking_pair</text>
</a>
</g>
</g>
<!-- Node1&#45;&gt;Node2 -->
<g id="edge2" class="edge"><title>Node1&#45;&gt;Node2</title>
<path fill="none" stroke="midnightblue" d="M268.246,-390C276.245,-390 284.849,-390 293.541,-390"/>
<polygon fill="midnightblue" stroke="midnightblue" points="293.754,-393.5 303.754,-390 293.754,-386.5 293.754,-393.5"/>
</g>
<!-- Node3 -->
<g id="node4" class="node"><title>Node3</title>
<g id="a_node4"><a xlink:href="../../da/d1f/chooser_8c_a58a7864908285660f79e29bc9674c359.html#a58a7864908285660f79e29bc9674c359" target="_top" xlink:title="chooser_clear">
<polygon fill="none" stroke="black" points="332,-342.5 332,-361.5 409,-361.5 409,-342.5 332,-342.5"/>
<text text-anchor="middle" x="370.5" y="-349.5" font-family="Helvetica,sans-Serif" font-size="10.00">chooser_clear</text>
</a>
</g>
</g>
<!-- Node1&#45;&gt;Node3 -->
<g id="edge3" class="edge"><title>Node1&#45;&gt;Node3</title>
<path fill="none" stroke="midnightblue" d="M262.585,-380.411C281.13,-375.483 303.926,-369.425 323.699,-364.171"/>
<polygon fill="midnightblue" stroke="midnightblue" points="324.661,-367.537 333.427,-361.586 322.863,-360.772 324.661,-367.537"/>
</g>
<!-- Node4 -->
<g id="node5" class="node"><title>Node4</title>
<g id="a_node5"><a xlink:href="../../da/d1f/chooser_8c_a4dc17557beabc712765e7e223e701c8f.html#a4dc17557beabc712765e7e223e701c8f" target="_top" xlink:title="chooser_init">
<polygon fill="none" stroke="black" points="336,-304.5 336,-323.5 405,-323.5 405,-304.5 336,-304.5"/>
<text text-anchor="middle" x="370.5" y="-311.5" font-family="Helvetica,sans-Serif" font-size="10.00">chooser_init</text>
</a>
</g>
</g>
<!-- Node1&#45;&gt;Node4 -->
<g id="edge4" class="edge"><title>Node1&#45;&gt;Node4</title>
<path fill="none" stroke="midnightblue" d="M237.238,-380.159C251.5,-367.568 277.936,-345.856 304,-333 310.94,-329.577 318.606,-326.663 326.175,-324.222"/>
<polygon fill="midnightblue" stroke="midnightblue" points="327.423,-327.502 336,-321.281 325.416,-320.795 327.423,-327.502"/>
</g>
<!-- Node5 -->
<g id="node6" class="node"><title>Node5</title>
<g id="a_node6"><a xlink:href="../../da/d1f/chooser_8c_a64daad8f3ad3f45b51da8813fc7e515e.html#a64daad8f3ad3f45b51da8813fc7e515e" target="_top" xlink:title="chooser_non_zero">
<polygon fill="none" stroke="black" points="322.5,-532.5 322.5,-551.5 418.5,-551.5 418.5,-532.5 322.5,-532.5"/>
<text text-anchor="middle" x="370.5" y="-539.5" font-family="Helvetica,sans-Serif" font-size="10.00">chooser_non_zero</text>
</a>
</g>
</g>
<!-- Node1&#45;&gt;Node5 -->
<g id="edge5" class="edge"><title>Node1&#45;&gt;Node5</title>
<path fill="none" stroke="midnightblue" d="M229.36,-399.719C237.096,-424.283 260.813,-489.291 304,-523 306.791,-525.179 309.824,-527.108 313.005,-528.816"/>
<polygon fill="midnightblue" stroke="midnightblue" points="311.729,-532.081 322.278,-533.067 314.646,-525.718 311.729,-532.081"/>
</g>
<!-- Node8 -->
<g id="node9" class="node"><title>Node8</title>
<g id="a_node9"><a xlink:href="../../da/d1f/chooser_8c_a09a8333de36cfe874df03c793ff133e2.html#a09a8333de36cfe874df03c793ff133e2" target="_top" xlink:title="chooser_pick">
<polygon fill="none" stroke="black" points="333.5,-570.5 333.5,-589.5 407.5,-589.5 407.5,-570.5 333.5,-570.5"/>
<text text-anchor="middle" x="370.5" y="-577.5" font-family="Helvetica,sans-Serif" font-size="10.00">chooser_pick</text>
</a>
</g>
</g>
<!-- Node1&#45;&gt;Node8 -->
<g id="edge8" class="edge"><title>Node1&#45;&gt;Node8</title>
<path fill="none" stroke="midnightblue" d="M228.023,-399.82C233.076,-429.004 252.015,-515.973 304,-561 309.661,-565.903 316.523,-569.543 323.647,-572.245"/>
<polygon fill="midnightblue" stroke="midnightblue" points="322.844,-575.663 333.435,-575.379 324.979,-568.996 322.844,-575.663"/>
</g>
<!-- Node10 -->
<g id="node11" class="node"><title>Node10</title>
<g id="a_node11"><a xlink:href="../../d1/d2a/graph_8c_ac683cc08fc4c4391a1e872db552f4c3b.html#ac683cc08fc4c4391a1e872db552f4c3b" target="_top" xlink:title="graph_free">
<polygon fill="none" stroke="black" points="339.5,-494.5 339.5,-513.5 401.5,-513.5 401.5,-494.5 339.5,-494.5"/>
<text text-anchor="middle" x="370.5" y="-501.5" font-family="Helvetica,sans-Serif" font-size="10.00">graph_free</text>
</a>
</g>
</g>
<!-- Node1&#45;&gt;Node10 -->
<g id="edge11" class="edge"><title>Node1&#45;&gt;Node10</title>
<path fill="none" stroke="midnightblue" d="M231.707,-399.711C242.536,-418.967 269.383,-462.101 304,-485 311.605,-490.031 320.563,-493.755 329.371,-496.502"/>
<polygon fill="midnightblue" stroke="midnightblue" points="328.6,-499.92 339.171,-499.207 330.463,-493.172 328.6,-499.92"/>
</g>
<!-- Node11 -->
<g id="node12" class="node"><title>Node11</title>
<g id="a_node12"><a xlink:href="../../d1/d2a/graph_8c_ac96bb5f2ca9a14261f32f070172fb6d9.html#ac96bb5f2ca9a14261f32f070172fb6d9" target="_top" xlink:title="graph_new">
<polygon fill="none" stroke="black" points="338.5,-456.5 338.5,-475.5 402.5,-475.5 402.5,-456.5 338.5,-456.5"/>
<text text-anchor="middle" x="370.5" y="-463.5" font-family="Helvetica,sans-Serif" font-size="10.00">graph_new</text>
</a>
</g>
</g>
<!-- Node1&#45;&gt;Node11 -->
<g id="edge12" class="edge"><title>Node1&#45;&gt;Node11</title>
<path fill="none" stroke="midnightblue" d="M237.238,-399.841C251.5,-412.432 277.936,-434.144 304,-447 311.709,-450.802 320.312,-453.976 328.684,-456.572"/>
<polygon fill="midnightblue" stroke="midnightblue" points="327.758,-459.947 338.336,-459.357 329.699,-453.222 327.758,-459.947"/>
</g>
<!-- Node12 -->
<g id="node13" class="node"><title>Node12</title>
<g id="a_node13"><a xlink:href="../../d3/d5a/oblas_8h_a962c3db45b173ccbaf6418d5894409be.html#a962c3db45b173ccbaf6418d5894409be" target="_top" xlink:title="oaxpy">
<polygon fill="none" stroke="black" points="349,-228.5 349,-247.5 392,-247.5 392,-228.5 349,-228.5"/>
<text text-anchor="middle" x="370.5" y="-235.5" font-family="Helvetica,sans-Serif" font-size="10.00">oaxpy</text>
</a>
</g>
</g>
<!-- Node1&#45;&gt;Node12 -->
<g id="edge13" class="edge"><title>Node1&#45;&gt;Node12</title>
<path fill="none" stroke="midnightblue" d="M229.36,-380.281C237.096,-355.717 260.813,-290.709 304,-257 313.962,-249.224 327.003,-244.629 338.824,-241.915"/>
<polygon fill="midnightblue" stroke="midnightblue" points="339.64,-245.322 348.79,-239.981 338.306,-238.45 339.64,-245.322"/>
</g>
<!-- Node13 -->
<g id="node14" class="node"><title>Node13</title>
<g id="a_node14"><a xlink:href="../../d3/d5a/oblas_8h_aac1e9520179bae9bf58901a111aad57d.html#aac1e9520179bae9bf58901a111aad57d" target="_top" xlink:title="oswapcol">
<polygon fill="none" stroke="black" points="341.5,-418.5 341.5,-437.5 399.5,-437.5 399.5,-418.5 341.5,-418.5"/>
<text text-anchor="middle" x="370.5" y="-425.5" font-family="Helvetica,sans-Serif" font-size="10.00">oswapcol</text>
</a>
</g>
</g>
<!-- Node1&#45;&gt;Node13 -->
<g id="edge14" class="edge"><title>Node1&#45;&gt;Node13</title>
<path fill="none" stroke="midnightblue" d="M262.585,-399.589C283.585,-405.169 310.037,-412.199 331.376,-417.869"/>
<polygon fill="midnightblue" stroke="midnightblue" points="330.524,-421.264 341.088,-420.45 332.322,-414.499 330.524,-421.264"/>
</g>
<!-- Node14 -->
<g id="node15" class="node"><title>Node14</title>
<g id="a_node15"><a xlink:href="../../d3/d5a/oblas_8h_ad0978d40d1e2a78b8ff34f3d0d376dd3.html#ad0978d40d1e2a78b8ff34f3d0d376dd3" target="_top" xlink:title="oswaprow">
<polygon fill="none" stroke="black" points="340,-266.5 340,-285.5 401,-285.5 401,-266.5 340,-266.5"/>
<text text-anchor="middle" x="370.5" y="-273.5" font-family="Helvetica,sans-Serif" font-size="10.00">oswaprow</text>
</a>
</g>
</g>
<!-- Node1&#45;&gt;Node14 -->
<g id="edge15" class="edge"><title>Node1&#45;&gt;Node14</title>
<path fill="none" stroke="midnightblue" d="M231.707,-380.289C242.536,-361.033 269.383,-317.899 304,-295 311.832,-289.819 321.098,-286.025 330.158,-283.255"/>
<polygon fill="midnightblue" stroke="midnightblue" points="331.094,-286.628 339.831,-280.634 329.263,-279.871 331.094,-286.628"/>
</g>
<!-- Node6 -->
<g id="node7" class="node"><title>Node6</title>
<g id="a_node7"><a xlink:href="../../d1/d2a/graph_8c_a4df6f2af3bed651a7f3d19803ec598e4.html#a4df6f2af3bed651a7f3d19803ec598e4" target="_top" xlink:title="graph_link">
<polygon fill="none" stroke="black" points="481,-532.5 481,-551.5 542,-551.5 542,-532.5 481,-532.5"/>
<text text-anchor="middle" x="511.5" y="-539.5" font-family="Helvetica,sans-Serif" font-size="10.00">graph_link</text>
</a>
</g>
</g>
<!-- Node5&#45;&gt;Node6 -->
<g id="edge6" class="edge"><title>Node5&#45;&gt;Node6</title>
<path fill="none" stroke="midnightblue" d="M418.559,-542C435.486,-542 454.403,-542 470.656,-542"/>
<polygon fill="midnightblue" stroke="midnightblue" points="470.905,-545.5 480.905,-542 470.905,-538.5 470.905,-545.5"/>
</g>
<!-- Node7 -->
<g id="node8" class="node"><title>Node7</title>
<g id="a_node8"><a xlink:href="../../d1/d2a/graph_8c_aebad20ec3b086b7fae30e6ef61892839.html#aebad20ec3b086b7fae30e6ef61892839" target="_top" xlink:title="graph_find">
<polygon fill="none" stroke="black" points="586,-551.5 586,-570.5 648,-570.5 648,-551.5 586,-551.5"/>
<text text-anchor="middle" x="617" y="-558.5" font-family="Helvetica,sans-Serif" font-size="10.00">graph_find</text>
</a>
</g>
</g>
<!-- Node6&#45;&gt;Node7 -->
<g id="edge7" class="edge"><title>Node6&#45;&gt;Node7</title>
<path fill="none" stroke="midnightblue" d="M542.159,-547.445C552.678,-549.376 564.696,-551.582 575.937,-553.646"/>
<polygon fill="midnightblue" stroke="midnightblue" points="575.51,-557.125 585.978,-555.489 576.774,-550.241 575.51,-557.125"/>
</g>
<!-- Node9 -->
<g id="node10" class="node"><title>Node9</title>
<g id="a_node10"><a xlink:href="../../d1/d2a/graph_8c_ab380f8ec271892c52ab6836e6dba1746.html#ab380f8ec271892c52ab6836e6dba1746" target="_top" xlink:title="graph_is_max">
<polygon fill="none" stroke="black" points="473,-570.5 473,-589.5 550,-589.5 550,-570.5 473,-570.5"/>
<text text-anchor="middle" x="511.5" y="-577.5" font-family="Helvetica,sans-Serif" font-size="10.00">graph_is_max</text>
</a>
</g>
</g>
<!-- Node8&#45;&gt;Node9 -->
<g id="edge9" class="edge"><title>Node8&#45;&gt;Node9</title>
<path fill="none" stroke="midnightblue" d="M407.658,-580C424.412,-580 444.554,-580 462.555,-580"/>
<polygon fill="midnightblue" stroke="midnightblue" points="462.581,-583.5 472.581,-580 462.581,-576.5 462.581,-583.5"/>
</g>
<!-- Node9&#45;&gt;Node7 -->
<g id="edge10" class="edge"><title>Node9&#45;&gt;Node7</title>
<path fill="none" stroke="midnightblue" d="M550.159,-573.087C558.541,-571.548 567.458,-569.911 575.934,-568.355"/>
<polygon fill="midnightblue" stroke="midnightblue" points="576.784,-571.758 585.988,-566.51 575.52,-564.873 576.784,-571.758"/>
</g>
<!-- Node15&#45;&gt;Node12 -->
<g id="edge17" class="edge"><title>Node15&#45;&gt;Node12</title>
<path fill="none" stroke="midnightblue" d="M262.585,-266.411C286.156,-260.147 316.597,-252.058 338.965,-246.114"/>
<polygon fill="midnightblue" stroke="midnightblue" points="340.16,-249.418 348.926,-243.467 338.362,-242.653 340.16,-249.418"/>
</g>
<!-- Node15&#45;&gt;Node14 -->
<g id="edge19" class="edge"><title>Node15&#45;&gt;Node14</title>
<path fill="none" stroke="midnightblue" d="M268.246,-276C287.583,-276 310.454,-276 329.562,-276"/>
<polygon fill="midnightblue" stroke="midnightblue" points="329.744,-279.5 339.744,-276 329.744,-272.5 329.744,-279.5"/>
</g>
<!-- Node16 -->
<g id="node17" class="node"><title>Node16</title>
<g id="a_node17"><a xlink:href="../../d3/d5a/oblas_8h_abfa7ba50070fbebe1ea2e0e2fc3f913b.html#abfa7ba50070fbebe1ea2e0e2fc3f913b" target="_top" xlink:title="oscal">
<polygon fill="none" stroke="black" points="350.5,-190.5 350.5,-209.5 390.5,-209.5 390.5,-190.5 350.5,-190.5"/>
<text text-anchor="middle" x="370.5" y="-197.5" font-family="Helvetica,sans-Serif" font-size="10.00">oscal</text>
</a>
</g>
</g>
<!-- Node15&#45;&gt;Node16 -->
<g id="edge18" class="edge"><title>Node15&#45;&gt;Node16</title>
<path fill="none" stroke="midnightblue" d="M251.498,-266.432C257.156,-263.764 262.973,-260.596 268,-257 286.922,-243.466 284.135,-231.108 304,-219 315.026,-212.28 328.544,-207.837 340.431,-204.951"/>
<polygon fill="midnightblue" stroke="midnightblue" points="341.322,-208.339 350.352,-202.798 339.837,-201.498 341.322,-208.339"/>
</g>
<!-- Node18 -->
<g id="node19" class="node"><title>Node18</title>
<g id="a_node19"><a xlink:href="../../d3/d5a/oblas_8h_a85e2604cc8aec26b591370ab48307bcc.html#a85e2604cc8aec26b591370ab48307bcc" target="_top" xlink:title="ogemm">
<polygon fill="none" stroke="black" points="346,-114.5 346,-133.5 395,-133.5 395,-114.5 346,-114.5"/>
<text text-anchor="middle" x="370.5" y="-121.5" font-family="Helvetica,sans-Serif" font-size="10.00">ogemm</text>
</a>
</g>
</g>
<!-- Node17&#45;&gt;Node18 -->
<g id="edge21" class="edge"><title>Node17&#45;&gt;Node18</title>
<path fill="none" stroke="midnightblue" d="M268.246,-124C289.629,-124 315.333,-124 335.493,-124"/>
<polygon fill="midnightblue" stroke="midnightblue" points="335.767,-127.5 345.767,-124 335.767,-120.5 335.767,-127.5"/>
</g>
<!-- Node17&#45;&gt;Node19 -->
<g id="edge22" class="edge"><title>Node17&#45;&gt;Node19</title>
<path fill="none" stroke="midnightblue" d="M262.585,-133.589C284.013,-139.283 311.119,-146.486 332.676,-152.215"/>
<polygon fill="midnightblue" stroke="midnightblue" points="331.892,-155.628 342.456,-154.813 333.69,-148.863 331.892,-155.628"/>
</g>
<!-- Node17&#45;&gt;Node20 -->
<g id="edge23" class="edge"><title>Node17&#45;&gt;Node20</title>
<path fill="none" stroke="midnightblue" d="M262.585,-114.411C282.067,-109.234 306.243,-102.809 326.675,-97.3801"/>
<polygon fill="midnightblue" stroke="midnightblue" points="327.602,-100.755 336.367,-94.8045 325.804,-93.9902 327.602,-100.755"/>
</g>
<!-- Node17&#45;&gt;Node21 -->
<g id="edge24" class="edge"><title>Node17&#45;&gt;Node21</title>
<path fill="none" stroke="midnightblue" d="M237.238,-114.159C251.5,-101.568 277.936,-79.8559 304,-67 311.938,-63.0848 320.824,-59.836 329.429,-57.1984"/>
<polygon fill="midnightblue" stroke="midnightblue" points="330.668,-60.4848 339.327,-54.3794 328.751,-53.7525 330.668,-60.4848"/>
</g>
<!-- Node22 -->
<g id="node23" class="node"><title>Node22</title>
<g id="a_node23"><a xlink:href="../../d3/d5a/oblas_8h_a1185f4074fc7932ed79a6f216203f2c4.html#a1185f4074fc7932ed79a6f216203f2c4" target="_top" xlink:title="ozero">
<polygon fill="none" stroke="black" points="491,-38.5 491,-57.5 532,-57.5 532,-38.5 491,-38.5"/>
<text text-anchor="middle" x="511.5" y="-45.5" font-family="Helvetica,sans-Serif" font-size="10.00">ozero</text>
</a>
</g>
</g>
<!-- Node21&#45;&gt;Node22 -->
<g id="edge25" class="edge"><title>Node21&#45;&gt;Node22</title>
<path fill="none" stroke="midnightblue" d="M401.661,-48C425.064,-48 457.342,-48 480.663,-48"/>
<polygon fill="midnightblue" stroke="midnightblue" points="480.684,-51.5001 490.684,-48 480.684,-44.5001 480.684,-51.5001"/>
</g>
<!-- Node23&#45;&gt;Node12 -->
<g id="edge27" class="edge"><title>Node23&#45;&gt;Node12</title>
<path fill="none" stroke="midnightblue" d="M268.246,-238C290.851,-238 318.285,-238 338.892,-238"/>
<polygon fill="midnightblue" stroke="midnightblue" points="338.984,-241.5 348.984,-238 338.984,-234.5 338.984,-241.5"/>
</g>
<!-- Node24&#45;&gt;Node12 -->
<g id="edge29" class="edge"><title>Node24&#45;&gt;Node12</title>
<path fill="none" stroke="midnightblue" d="M262.585,-209.589C286.156,-215.853 316.597,-223.942 338.965,-229.886"/>
<polygon fill="midnightblue" stroke="midnightblue" points="338.362,-233.347 348.926,-232.533 340.16,-226.582 338.362,-233.347"/>
</g>
<!-- Node24&#45;&gt;Node16 -->
<g id="edge30" class="edge"><title>Node24&#45;&gt;Node16</title>
<path fill="none" stroke="midnightblue" d="M268.246,-200C291.272,-200 319.309,-200 340.037,-200"/>
<polygon fill="midnightblue" stroke="midnightblue" points="340.145,-203.5 350.145,-200 340.145,-196.5 340.145,-203.5"/>
</g>
</g>
</svg>
