<?xml version="1.0" encoding="UTF-8" standalone="no"?>
<!DOCTYPE svg PUBLIC "-//W3C//DTD SVG 1.1//EN"
 "http://www.w3.org/Graphics/SVG/1.1/DTD/svg11.dtd">
<!-- Generated by graphviz version 2.38.0 (20140413.2041)
 -->
<!-- Title: decode_phase1 Pages: 1 -->
<svg width="473pt" height="370pt"
 viewBox="0.00 0.00 473.00 370.00" xmlns="http://www.w3.org/2000/svg" xmlns:xlink="http://www.w3.org/1999/xlink">
<g id="graph0" class="graph" transform="scale(1 1) rotate(0) translate(4 366)">
<title>decode_phase1</title>
<!-- Node0 -->
<g id="node1" class="node"><title>Node0</title>
<polygon fill="#bfbfbf" stroke="black" points="0,-171.5 0,-190.5 85,-190.5 85,-171.5 0,-171.5"/>
<text text-anchor="middle" x="42.5" y="-178.5" font-family="Helvetica,sans-Serif" font-size="10.00">decode_phase1</text>
</g>
<!-- Node1 -->
<g id="node2" class="node"><title>Node1</title>
<g id="a_node2"><a xlink:href="../../da/d1f/chooser_8c_a1563620df95c0a0ec6b572f5b1c89356.html#a1563620df95c0a0ec6b572f5b1c89356" target="_top" xlink:title="chooser_add_tracking_pair">
<polygon fill="none" stroke="black" points="121,-342.5 121,-361.5 254,-361.5 254,-342.5 121,-342.5"/>
<text text-anchor="middle" x="187.5" y="-349.5" font-family="Helvetica,sans-Serif" font-size="10.00">chooser_add_tracking_pair</text>
</a>
</g>
</g>
<!-- Node0&#45;&gt;Node1 -->
<g id="edge1" class="edge"><title>Node0&#45;&gt;Node1</title>
<path fill="none" stroke="midnightblue" d="M45.5527,-190.5C51.8246,-217.205 73.2855,-293.555 121,-333 123.036,-334.683 125.215,-336.217 127.496,-337.616"/>
<polygon fill="midnightblue" stroke="midnightblue" points="126.223,-340.897 136.716,-342.363 129.428,-334.674 126.223,-340.897"/>
</g>
<!-- Node2 -->
<g id="node3" class="node"><title>Node2</title>
<g id="a_node3"><a xlink:href="../../da/d1f/chooser_8c_a58a7864908285660f79e29bc9674c359.html#a58a7864908285660f79e29bc9674c359" target="_top" xlink:title="chooser_clear">
<polygon fill="none" stroke="black" points="149,-304.5 149,-323.5 226,-323.5 226,-304.5 149,-304.5"/>
<text text-anchor="middle" x="187.5" y="-311.5" font-family="Helvetica,sans-Serif" font-size="10.00">chooser_clear</text>
</a>
</g>
</g>
<!-- Node0&#45;&gt;Node2 -->
<g id="edge2" class="edge"><title>Node0&#45;&gt;Node2</title>
<path fill="none" stroke="midnightblue" d="M47.3046,-190.611C56.4982,-212.578 82.0755,-266.737 121,-295 126.472,-298.973 132.762,-302.119 139.233,-304.609"/>
<polygon fill="midnightblue" stroke="midnightblue" points="138.175,-307.946 148.769,-307.808 140.401,-301.309 138.175,-307.946"/>
</g>
<!-- Node3 -->
<g id="node4" class="node"><title>Node3</title>
<g id="a_node4"><a xlink:href="../../da/d1f/chooser_8c_a4dc17557beabc712765e7e223e701c8f.html#a4dc17557beabc712765e7e223e701c8f" target="_top" xlink:title="chooser_init">
<polygon fill="none" stroke="black" points="153,-266.5 153,-285.5 222,-285.5 222,-266.5 153,-266.5"/>
<text text-anchor="middle" x="187.5" y="-273.5" font-family="Helvetica,sans-Serif" font-size="10.00">chooser_init</text>
</a>
</g>
</g>
<!-- Node0&#45;&gt;Node3 -->
<g id="edge3" class="edge"><title>Node0&#45;&gt;Node3</title>
<path fill="none" stroke="midnightblue" d="M50.7249,-190.711C63.2471,-206.861 90.5767,-239.216 121,-257 127.828,-260.991 135.552,-264.193 143.24,-266.746"/>
<polygon fill="midnightblue" stroke="midnightblue" points="142.304,-270.119 152.888,-269.643 144.317,-263.415 142.304,-270.119"/>
</g>
<!-- Node4 -->
<g id="node5" class="node"><title>Node4</title>
<g id="a_node5"><a xlink:href="../../da/d1f/chooser_8c_a64daad8f3ad3f45b51da8813fc7e515e.html#a64daad8f3ad3f45b51da8813fc7e515e" target="_top" xlink:title="chooser_non_zero">
<polygon fill="none" stroke="black" points="139.5,-228.5 139.5,-247.5 235.5,-247.5 235.5,-228.5 139.5,-228.5"/>
<text text-anchor="middle" x="187.5" y="-235.5" font-family="Helvetica,sans-Serif" font-size="10.00">chooser_non_zero</text>
</a>
</g>
</g>
<!-- Node0&#45;&gt;Node4 -->
<g id="edge4" class="edge"><title>Node0&#45;&gt;Node4</title>
<path fill="none" stroke="midnightblue" d="M60.9613,-190.65C76.4179,-198.927 99.7565,-210.782 121,-219 126.942,-221.299 133.281,-223.471 139.586,-225.467"/>
<polygon fill="midnightblue" stroke="midnightblue" points="138.82,-228.892 149.405,-228.454 140.857,-222.195 138.82,-228.892"/>
</g>
<!-- Node7 -->
<g id="node8" class="node"><title>Node7</title>
<g id="a_node8"><a xlink:href="../../da/d1f/chooser_8c_a09a8333de36cfe874df03c793ff133e2.html#a09a8333de36cfe874df03c793ff133e2" target="_top" xlink:title="chooser_pick">
<polygon fill="none" stroke="black" points="150.5,-190.5 150.5,-209.5 224.5,-209.5 224.5,-190.5 150.5,-190.5"/>
<text text-anchor="middle" x="187.5" y="-197.5" font-family="Helvetica,sans-Serif" font-size="10.00">chooser_pick</text>
</a>
</g>
</g>
<!-- Node0&#45;&gt;Node7 -->
<g id="edge7" class="edge"><title>Node0&#45;&gt;Node7</title>
<path fill="none" stroke="midnightblue" d="M85.2459,-186.547C102.474,-188.836 122.508,-191.498 140.186,-193.846"/>
<polygon fill="midnightblue" stroke="midnightblue" points="139.91,-197.34 150.284,-195.188 140.832,-190.401 139.91,-197.34"/>
</g>
<!-- Node9 -->
<g id="node10" class="node"><title>Node9</title>
<g id="a_node10"><a xlink:href="../../d1/d2a/graph_8c_ac683cc08fc4c4391a1e872db552f4c3b.html#ac683cc08fc4c4391a1e872db552f4c3b" target="_top" xlink:title="graph_free">
<polygon fill="none" stroke="black" points="156.5,-152.5 156.5,-171.5 218.5,-171.5 218.5,-152.5 156.5,-152.5"/>
<text text-anchor="middle" x="187.5" y="-159.5" font-family="Helvetica,sans-Serif" font-size="10.00">graph_free</text>
</a>
</g>
</g>
<!-- Node0&#45;&gt;Node9 -->
<g id="edge10" class="edge"><title>Node0&#45;&gt;Node9</title>
<path fill="none" stroke="midnightblue" d="M85.2459,-175.453C104.444,-172.903 127.125,-169.889 146.149,-167.361"/>
<polygon fill="midnightblue" stroke="midnightblue" points="146.844,-170.8 156.296,-166.013 145.922,-163.861 146.844,-170.8"/>
</g>
<!-- Node10 -->
<g id="node11" class="node"><title>Node10</title>
<g id="a_node11"><a xlink:href="../../d1/d2a/graph_8c_ac96bb5f2ca9a14261f32f070172fb6d9.html#ac96bb5f2ca9a14261f32f070172fb6d9" target="_top" xlink:title="graph_new">
<polygon fill="none" stroke="black" points="155.5,-114.5 155.5,-133.5 219.5,-133.5 219.5,-114.5 155.5,-114.5"/>
<text text-anchor="middle" x="187.5" y="-121.5" font-family="Helvetica,sans-Serif" font-size="10.00">graph_new</text>
</a>
</g>
</g>
<!-- Node0&#45;&gt;Node10 -->
<g id="edge11" class="edge"><title>Node0&#45;&gt;Node10</title>
<path fill="none" stroke="midnightblue" d="M60.9613,-171.35C76.4179,-163.073 99.7565,-151.218 121,-143 128.851,-139.963 137.393,-137.148 145.636,-134.665"/>
<polygon fill="midnightblue" stroke="midnightblue" points="146.849,-137.957 155.477,-131.809 144.898,-131.235 146.849,-137.957"/>
</g>
<!-- Node11 -->
<g id="node12" class="node"><title>Node11</title>
<g id="a_node12"><a xlink:href="../../d3/d5a/oblas_8h_a962c3db45b173ccbaf6418d5894409be.html#a962c3db45b173ccbaf6418d5894409be" target="_top" xlink:title="oaxpy">
<polygon fill="none" stroke="black" points="166,-76.5 166,-95.5 209,-95.5 209,-76.5 166,-76.5"/>
<text text-anchor="middle" x="187.5" y="-83.5" font-family="Helvetica,sans-Serif" font-size="10.00">oaxpy</text>
</a>
</g>
</g>
<!-- Node0&#45;&gt;Node11 -->
<g id="edge12" class="edge"><title>Node0&#45;&gt;Node11</title>
<path fill="none" stroke="midnightblue" d="M50.7249,-171.289C63.2471,-155.139 90.5767,-122.784 121,-105 131.644,-98.7783 144.465,-94.4745 155.932,-91.5578"/>
<polygon fill="midnightblue" stroke="midnightblue" points="157.015,-94.9002 165.98,-89.2539 155.451,-88.0773 157.015,-94.9002"/>
</g>
<!-- Node12 -->
<g id="node13" class="node"><title>Node12</title>
<g id="a_node13"><a xlink:href="../../d3/d5a/oblas_8h_aac1e9520179bae9bf58901a111aad57d.html#aac1e9520179bae9bf58901a111aad57d" target="_top" xlink:title="oswapcol">
<polygon fill="none" stroke="black" points="158.5,-38.5 158.5,-57.5 216.5,-57.5 216.5,-38.5 158.5,-38.5"/>
<text text-anchor="middle" x="187.5" y="-45.5" font-family="Helvetica,sans-Serif" font-size="10.00">oswapcol</text>
</a>
</g>
</g>
<!-- Node0&#45;&gt;Node12 -->
<g id="edge13" class="edge"><title>Node0&#45;&gt;Node12</title>
<path fill="none" stroke="midnightblue" d="M47.3046,-171.389C56.4982,-149.422 82.0755,-95.2634 121,-67 129.106,-61.1139 139.009,-57.0431 148.635,-54.2307"/>
<polygon fill="midnightblue" stroke="midnightblue" points="149.648,-57.5846 158.48,-51.732 147.926,-50.7998 149.648,-57.5846"/>
</g>
<!-- Node13 -->
<g id="node14" class="node"><title>Node13</title>
<g id="a_node14"><a xlink:href="../../d3/d5a/oblas_8h_ad0978d40d1e2a78b8ff34f3d0d376dd3.html#ad0978d40d1e2a78b8ff34f3d0d376dd3" target="_top" xlink:title="oswaprow">
<polygon fill="none" stroke="black" points="157,-0.5 157,-19.5 218,-19.5 218,-0.5 157,-0.5"/>
<text text-anchor="middle" x="187.5" y="-7.5" font-family="Helvetica,sans-Serif" font-size="10.00">oswaprow</text>
</a>
</g>
</g>
<!-- Node0&#45;&gt;Node13 -->
<g id="edge14" class="edge"><title>Node0&#45;&gt;Node13</title>
<path fill="none" stroke="midnightblue" d="M45.5527,-171.5C51.8246,-144.795 73.2855,-68.4452 121,-29 128.372,-22.9057 137.613,-18.7657 146.81,-15.9534"/>
<polygon fill="midnightblue" stroke="midnightblue" points="147.881,-19.2916 156.682,-13.3932 146.124,-12.5157 147.881,-19.2916"/>
</g>
<!-- Node5 -->
<g id="node6" class="node"><title>Node5</title>
<g id="a_node6"><a xlink:href="../../d1/d2a/graph_8c_a4df6f2af3bed651a7f3d19803ec598e4.html#a4df6f2af3bed651a7f3d19803ec598e4" target="_top" xlink:title="graph_link">
<polygon fill="none" stroke="black" points="298,-228.5 298,-247.5 359,-247.5 359,-228.5 298,-228.5"/>
<text text-anchor="middle" x="328.5" y="-235.5" font-family="Helvetica,sans-Serif" font-size="10.00">graph_link</text>
</a>
</g>
</g>
<!-- Node4&#45;&gt;Node5 -->
<g id="edge5" class="edge"><title>Node4&#45;&gt;Node5</title>
<path fill="none" stroke="midnightblue" d="M235.559,-238C252.486,-238 271.403,-238 287.656,-238"/>
<polygon fill="midnightblue" stroke="midnightblue" points="287.905,-241.5 297.905,-238 287.905,-234.5 287.905,-241.5"/>
</g>
<!-- Node6 -->
<g id="node7" class="node"><title>Node6</title>
<g id="a_node7"><a xlink:href="../../d1/d2a/graph_8c_aebad20ec3b086b7fae30e6ef61892839.html#aebad20ec3b086b7fae30e6ef61892839" target="_top" xlink:title="graph_find">
<polygon fill="none" stroke="black" points="403,-209.5 403,-228.5 465,-228.5 465,-209.5 403,-209.5"/>
<text text-anchor="middle" x="434" y="-216.5" font-family="Helvetica,sans-Serif" font-size="10.00">graph_find</text>
</a>
</g>
</g>
<!-- Node5&#45;&gt;Node6 -->
<g id="edge6" class="edge"><title>Node5&#45;&gt;Node6</title>
<path fill="none" stroke="midnightblue" d="M359.159,-232.555C369.678,-230.624 381.696,-228.418 392.937,-226.354"/>
<polygon fill="midnightblue" stroke="midnightblue" points="393.774,-229.759 402.978,-224.511 392.51,-222.875 393.774,-229.759"/>
</g>
<!-- Node8 -->
<g id="node9" class="node"><title>Node8</title>
<g id="a_node9"><a xlink:href="../../d1/d2a/graph_8c_ab380f8ec271892c52ab6836e6dba1746.html#ab380f8ec271892c52ab6836e6dba1746" target="_top" xlink:title="graph_is_max">
<polygon fill="none" stroke="black" points="290,-190.5 290,-209.5 367,-209.5 367,-190.5 290,-190.5"/>
<text text-anchor="middle" x="328.5" y="-197.5" font-family="Helvetica,sans-Serif" font-size="10.00">graph_is_max</text>
</a>
</g>
</g>
<!-- Node7&#45;&gt;Node8 -->
<g id="edge8" class="edge"><title>Node7&#45;&gt;Node8</title>
<path fill="none" stroke="midnightblue" d="M224.658,-200C241.412,-200 261.554,-200 279.555,-200"/>
<polygon fill="midnightblue" stroke="midnightblue" points="279.581,-203.5 289.581,-200 279.581,-196.5 279.581,-203.5"/>
</g>
<!-- Node8&#45;&gt;Node6 -->
<g id="edge9" class="edge"><title>Node8&#45;&gt;Node6</title>
<path fill="none" stroke="midnightblue" d="M367.159,-206.913C375.541,-208.452 384.458,-210.089 392.934,-211.645"/>
<polygon fill="midnightblue" stroke="midnightblue" points="392.52,-215.127 402.988,-213.49 393.784,-208.242 392.52,-215.127"/>
</g>
</g>
</svg>
