<?xml version="1.0" encoding="UTF-8" standalone="no"?>
<!DOCTYPE svg PUBLIC "-//W3C//DTD SVG 1.1//EN"
 "http://www.w3.org/Graphics/SVG/1.1/DTD/svg11.dtd">
<!-- Generated by graphviz version 2.38.0 (20140413.2041)
 -->
<!-- Title: precode_matrix_make_MT Pages: 1 -->
<svg width="315pt" height="66pt"
 viewBox="0.00 0.00 315.00 66.00" xmlns="http://www.w3.org/2000/svg" xmlns:xlink="http://www.w3.org/1999/xlink">
<g id="graph0" class="graph" transform="scale(1 1) rotate(0) translate(4 62)">
<title>precode_matrix_make_MT</title>
<!-- Node0 -->
<g id="node1" class="node"><title>Node0</title>
<polygon fill="#bfbfbf" stroke="black" points="0,-19.5 0,-38.5 132,-38.5 132,-19.5 0,-19.5"/>
<text text-anchor="middle" x="66" y="-26.5" font-family="Helvetica,sans-Serif" font-size="10.00">precode_matrix_make_MT</text>
</g>
<!-- Node1 -->
<g id="node2" class="node"><title>Node1</title>
<g id="a_node2"><a xlink:href="../../d2/dd1/octmat_8c_a0db07e8a815b999f9837c74c31213cdb.html#a0db07e8a815b999f9837c74c31213cdb" target="_top" xlink:title="om_resize">
<polygon fill="none" stroke="black" points="168,-38.5 168,-57.5 230,-57.5 230,-38.5 168,-38.5"/>
<text text-anchor="middle" x="199" y="-45.5" font-family="Helvetica,sans-Serif" font-size="10.00">om_resize</text>
</a>
</g>
</g>
<!-- Node0&#45;&gt;Node1 -->
<g id="edge1" class="edge"><title>Node0&#45;&gt;Node1</title>
<path fill="none" stroke="midnightblue" d="M132.116,-38.4443C140.875,-39.7147 149.644,-40.9865 157.795,-42.1687"/>
<polygon fill="midnightblue" stroke="midnightblue" points="157.343,-45.6397 167.742,-43.6114 158.348,-38.7122 157.343,-45.6397"/>
</g>
<!-- Node3 -->
<g id="node4" class="node"><title>Node3</title>
<g id="a_node4"><a xlink:href="../../d6/df4/rand_8c_a080635c045f160d270060da9f4d8e5b7.html#a080635c045f160d270060da9f4d8e5b7" target="_top" xlink:title="rnd_get">
<polygon fill="none" stroke="black" points="174.5,-0.5 174.5,-19.5 223.5,-19.5 223.5,-0.5 174.5,-0.5"/>
<text text-anchor="middle" x="199" y="-7.5" font-family="Helvetica,sans-Serif" font-size="10.00">rnd_get</text>
</a>
</g>
</g>
<!-- Node0&#45;&gt;Node3 -->
<g id="edge3" class="edge"><title>Node0&#45;&gt;Node3</title>
<path fill="none" stroke="midnightblue" d="M132.116,-19.5557C143.245,-17.9415 154.389,-16.3252 164.262,-14.8932"/>
<polygon fill="midnightblue" stroke="midnightblue" points="165.023,-18.3197 174.417,-13.4205 164.018,-11.3922 165.023,-18.3197"/>
</g>
<!-- Node2 -->
<g id="node3" class="node"><title>Node2</title>
<g id="a_node3"><a xlink:href="../../d3/d5a/oblas_8h_a1185f4074fc7932ed79a6f216203f2c4.html#a1185f4074fc7932ed79a6f216203f2c4" target="_top" xlink:title="ozero">
<polygon fill="none" stroke="black" points="266,-38.5 266,-57.5 307,-57.5 307,-38.5 266,-38.5"/>
<text text-anchor="middle" x="286.5" y="-45.5" font-family="Helvetica,sans-Serif" font-size="10.00">ozero</text>
</a>
</g>
</g>
<!-- Node1&#45;&gt;Node2 -->
<g id="edge2" class="edge"><title>Node1&#45;&gt;Node2</title>
<path fill="none" stroke="midnightblue" d="M230.385,-48C238.595,-48 247.47,-48 255.651,-48"/>
<polygon fill="midnightblue" stroke="midnightblue" points="255.89,-51.5001 265.89,-48 255.89,-44.5001 255.89,-51.5001"/>
</g>
</g>
</svg>
