<?xml version="1.0" encoding="UTF-8" standalone="no"?>
<!DOCTYPE svg PUBLIC "-//W3C//DTD SVG 1.1//EN"
 "http://www.w3.org/Graphics/SVG/1.1/DTD/svg11.dtd">
<!-- Generated by graphviz version 2.38.0 (20140413.2041)
 -->
<!-- Title: precode_matrix_add_G_ENC Pages: 1 -->
<svg width="419pt" height="66pt"
 viewBox="0.00 0.00 419.00 66.00" xmlns="http://www.w3.org/2000/svg" xmlns:xlink="http://www.w3.org/1999/xlink">
<g id="graph0" class="graph" transform="scale(1 1) rotate(0) translate(4 62)">
<title>precode_matrix_add_G_ENC</title>
<!-- Node0 -->
<g id="node1" class="node"><title>Node0</title>
<polygon fill="#bfbfbf" stroke="black" points="0,-14 0,-44 104,-44 104,-14 0,-14"/>
<text text-anchor="start" x="8" y="-32" font-family="Helvetica,sans-Serif" font-size="10.00">precode_matrix_add</text>
<text text-anchor="middle" x="52" y="-21" font-family="Helvetica,sans-Serif" font-size="10.00">_G_ENC</text>
</g>
<!-- Node1 -->
<g id="node2" class="node"><title>Node1</title>
<g id="a_node2"><a xlink:href="../../da/de3/params_8c_a5e51228448fbdf5e0d4310916b8eea93.html#a5e51228448fbdf5e0d4310916b8eea93" target="_top" xlink:title="params_get_idxs">
<polygon fill="none" stroke="black" points="140,-19.5 140,-38.5 231,-38.5 231,-19.5 140,-19.5"/>
<text text-anchor="middle" x="185.5" y="-26.5" font-family="Helvetica,sans-Serif" font-size="10.00">params_get_idxs</text>
</a>
</g>
</g>
<!-- Node0&#45;&gt;Node1 -->
<g id="edge1" class="edge"><title>Node0&#45;&gt;Node1</title>
<path fill="none" stroke="midnightblue" d="M104.218,-29C112.524,-29 121.155,-29 129.545,-29"/>
<polygon fill="midnightblue" stroke="midnightblue" points="129.622,-32.5001 139.622,-29 129.622,-25.5001 129.622,-32.5001"/>
</g>
<!-- Node2 -->
<g id="node3" class="node"><title>Node2</title>
<g id="a_node3"><a xlink:href="../../da/de3/params_8c_a071cc3dcf4ecfd727003e3563af63add.html#a071cc3dcf4ecfd727003e3563af63add" target="_top" xlink:title="gen_tuple">
<polygon fill="none" stroke="black" points="267,-19.5 267,-38.5 326,-38.5 326,-19.5 267,-19.5"/>
<text text-anchor="middle" x="296.5" y="-26.5" font-family="Helvetica,sans-Serif" font-size="10.00">gen_tuple</text>
</a>
</g>
</g>
<!-- Node1&#45;&gt;Node2 -->
<g id="edge2" class="edge"><title>Node1&#45;&gt;Node2</title>
<path fill="none" stroke="midnightblue" d="M231.149,-29C239.665,-29 248.512,-29 256.823,-29"/>
<polygon fill="midnightblue" stroke="midnightblue" points="256.996,-32.5001 266.996,-29 256.996,-25.5001 256.996,-32.5001"/>
</g>
<!-- Node3 -->
<g id="node4" class="node"><title>Node3</title>
<g id="a_node4"><a xlink:href="../../da/de3/params_8c_aa429ac3cf74cd69c05967cd86ccec2c3.html#aa429ac3cf74cd69c05967cd86ccec2c3" target="_top" xlink:title="deg">
<polygon fill="none" stroke="black" points="370.5,-38.5 370.5,-57.5 402.5,-57.5 402.5,-38.5 370.5,-38.5"/>
<text text-anchor="middle" x="386.5" y="-45.5" font-family="Helvetica,sans-Serif" font-size="10.00">deg</text>
</a>
</g>
</g>
<!-- Node2&#45;&gt;Node3 -->
<g id="edge3" class="edge"><title>Node2&#45;&gt;Node3</title>
<path fill="none" stroke="midnightblue" d="M326.314,-35.2213C337.292,-37.5915 349.707,-40.272 360.321,-42.5637"/>
<polygon fill="midnightblue" stroke="midnightblue" points="359.702,-46.0106 370.216,-44.6999 361.179,-39.1682 359.702,-46.0106"/>
</g>
<!-- Node4 -->
<g id="node5" class="node"><title>Node4</title>
<g id="a_node5"><a xlink:href="../../d6/df4/rand_8c_a080635c045f160d270060da9f4d8e5b7.html#a080635c045f160d270060da9f4d8e5b7" target="_top" xlink:title="rnd_get">
<polygon fill="none" stroke="black" points="362,-0.5 362,-19.5 411,-19.5 411,-0.5 362,-0.5"/>
<text text-anchor="middle" x="386.5" y="-7.5" font-family="Helvetica,sans-Serif" font-size="10.00">rnd_get</text>
</a>
</g>
</g>
<!-- Node2&#45;&gt;Node4 -->
<g id="edge4" class="edge"><title>Node2&#45;&gt;Node4</title>
<path fill="none" stroke="midnightblue" d="M326.314,-22.7787C334.511,-21.009 343.509,-19.0663 351.96,-17.2416"/>
<polygon fill="midnightblue" stroke="midnightblue" points="352.871,-20.6257 361.907,-15.094 351.393,-13.7834 352.871,-20.6257"/>
</g>
</g>
</svg>
