<?xml version="1.0" encoding="UTF-8" standalone="no"?>
<!DOCTYPE svg PUBLIC "-//W3C//DTD SVG 1.1//EN"
 "http://www.w3.org/Graphics/SVG/1.1/DTD/svg11.dtd">
<!-- Generated by graphviz version 2.38.0 (20140413.2041)
 -->
<!-- Title: precode_matrix_encode Pages: 1 -->
<svg width="435pt" height="123pt"
 viewBox="0.00 0.00 435.00 123.00" xmlns="http://www.w3.org/2000/svg" xmlns:xlink="http://www.w3.org/1999/xlink">
<g id="graph0" class="graph" transform="scale(1 1) rotate(0) translate(4 119)">
<title>precode_matrix_encode</title>
<!-- Node0 -->
<g id="node1" class="node"><title>Node0</title>
<polygon fill="#bfbfbf" stroke="black" points="0,-57.5 0,-76.5 120,-76.5 120,-57.5 0,-57.5"/>
<text text-anchor="middle" x="60" y="-64.5" font-family="Helvetica,sans-Serif" font-size="10.00">precode_matrix_encode</text>
</g>
<!-- Node1 -->
<g id="node2" class="node"><title>Node1</title>
<g id="a_node2"><a xlink:href="../../d3/d5a/oblas_8h_a06e2686eb0ba47ab72527cc2d8924583.html#a06e2686eb0ba47ab72527cc2d8924583" target="_top" xlink:title="oaddrow">
<polygon fill="none" stroke="black" points="175,-95.5 175,-114.5 228,-114.5 228,-95.5 175,-95.5"/>
<text text-anchor="middle" x="201.5" y="-102.5" font-family="Helvetica,sans-Serif" font-size="10.00">oaddrow</text>
</a>
</g>
</g>
<!-- Node0&#45;&gt;Node1 -->
<g id="edge1" class="edge"><title>Node0&#45;&gt;Node1</title>
<path fill="none" stroke="midnightblue" d="M96.2017,-76.589C117.288,-82.333 144.011,-89.6123 165.128,-95.3646"/>
<polygon fill="midnightblue" stroke="midnightblue" points="164.426,-98.801 174.995,-98.0523 166.266,-92.047 164.426,-98.801"/>
</g>
<!-- Node2 -->
<g id="node3" class="node"><title>Node2</title>
<g id="a_node3"><a xlink:href="../../d2/dd1/octmat_8c_a0db07e8a815b999f9837c74c31213cdb.html#a0db07e8a815b999f9837c74c31213cdb" target="_top" xlink:title="om_resize">
<polygon fill="none" stroke="black" points="170.5,-57.5 170.5,-76.5 232.5,-76.5 232.5,-57.5 170.5,-57.5"/>
<text text-anchor="middle" x="201.5" y="-64.5" font-family="Helvetica,sans-Serif" font-size="10.00">om_resize</text>
</a>
</g>
</g>
<!-- Node0&#45;&gt;Node2 -->
<g id="edge2" class="edge"><title>Node0&#45;&gt;Node2</title>
<path fill="none" stroke="midnightblue" d="M120.161,-67C133.62,-67 147.618,-67 160.087,-67"/>
<polygon fill="midnightblue" stroke="midnightblue" points="160.155,-70.5001 170.155,-67 160.155,-63.5001 160.155,-70.5001"/>
</g>
<!-- Node4 -->
<g id="node5" class="node"><title>Node4</title>
<g id="a_node5"><a xlink:href="../../da/de3/params_8c_a5e51228448fbdf5e0d4310916b8eea93.html#a5e51228448fbdf5e0d4310916b8eea93" target="_top" xlink:title="params_get_idxs">
<polygon fill="none" stroke="black" points="156,-19.5 156,-38.5 247,-38.5 247,-19.5 156,-19.5"/>
<text text-anchor="middle" x="201.5" y="-26.5" font-family="Helvetica,sans-Serif" font-size="10.00">params_get_idxs</text>
</a>
</g>
</g>
<!-- Node0&#45;&gt;Node4 -->
<g id="edge4" class="edge"><title>Node0&#45;&gt;Node4</title>
<path fill="none" stroke="midnightblue" d="M96.2017,-57.411C114.21,-52.5056 136.328,-46.4804 155.556,-41.2429"/>
<polygon fill="midnightblue" stroke="midnightblue" points="156.581,-44.5912 165.31,-38.5859 154.741,-37.8373 156.581,-44.5912"/>
</g>
<!-- Node3 -->
<g id="node4" class="node"><title>Node3</title>
<g id="a_node4"><a xlink:href="../../d3/d5a/oblas_8h_a1185f4074fc7932ed79a6f216203f2c4.html#a1185f4074fc7932ed79a6f216203f2c4" target="_top" xlink:title="ozero">
<polygon fill="none" stroke="black" points="292,-57.5 292,-76.5 333,-76.5 333,-57.5 292,-57.5"/>
<text text-anchor="middle" x="312.5" y="-64.5" font-family="Helvetica,sans-Serif" font-size="10.00">ozero</text>
</a>
</g>
</g>
<!-- Node2&#45;&gt;Node3 -->
<g id="edge3" class="edge"><title>Node2&#45;&gt;Node3</title>
<path fill="none" stroke="midnightblue" d="M232.573,-67C247.785,-67 266.199,-67 281.413,-67"/>
<polygon fill="midnightblue" stroke="midnightblue" points="281.834,-70.5001 291.834,-67 281.834,-63.5001 281.834,-70.5001"/>
</g>
<!-- Node5 -->
<g id="node6" class="node"><title>Node5</title>
<g id="a_node6"><a xlink:href="../../da/de3/params_8c_a071cc3dcf4ecfd727003e3563af63add.html#a071cc3dcf4ecfd727003e3563af63add" target="_top" xlink:title="gen_tuple">
<polygon fill="none" stroke="black" points="283,-19.5 283,-38.5 342,-38.5 342,-19.5 283,-19.5"/>
<text text-anchor="middle" x="312.5" y="-26.5" font-family="Helvetica,sans-Serif" font-size="10.00">gen_tuple</text>
</a>
</g>
</g>
<!-- Node4&#45;&gt;Node5 -->
<g id="edge5" class="edge"><title>Node4&#45;&gt;Node5</title>
<path fill="none" stroke="midnightblue" d="M247.149,-29C255.665,-29 264.512,-29 272.823,-29"/>
<polygon fill="midnightblue" stroke="midnightblue" points="272.996,-32.5001 282.996,-29 272.996,-25.5001 272.996,-32.5001"/>
</g>
<!-- Node6 -->
<g id="node7" class="node"><title>Node6</title>
<g id="a_node7"><a xlink:href="../../da/de3/params_8c_aa429ac3cf74cd69c05967cd86ccec2c3.html#aa429ac3cf74cd69c05967cd86ccec2c3" target="_top" xlink:title="deg">
<polygon fill="none" stroke="black" points="386.5,-38.5 386.5,-57.5 418.5,-57.5 418.5,-38.5 386.5,-38.5"/>
<text text-anchor="middle" x="402.5" y="-45.5" font-family="Helvetica,sans-Serif" font-size="10.00">deg</text>
</a>
</g>
</g>
<!-- Node5&#45;&gt;Node6 -->
<g id="edge6" class="edge"><title>Node5&#45;&gt;Node6</title>
<path fill="none" stroke="midnightblue" d="M342.314,-35.2213C353.292,-37.5915 365.707,-40.272 376.321,-42.5637"/>
<polygon fill="midnightblue" stroke="midnightblue" points="375.702,-46.0106 386.216,-44.6999 377.179,-39.1682 375.702,-46.0106"/>
</g>
<!-- Node7 -->
<g id="node8" class="node"><title>Node7</title>
<g id="a_node8"><a xlink:href="../../d6/df4/rand_8c_a080635c045f160d270060da9f4d8e5b7.html#a080635c045f160d270060da9f4d8e5b7" target="_top" xlink:title="rnd_get">
<polygon fill="none" stroke="black" points="378,-0.5 378,-19.5 427,-19.5 427,-0.5 378,-0.5"/>
<text text-anchor="middle" x="402.5" y="-7.5" font-family="Helvetica,sans-Serif" font-size="10.00">rnd_get</text>
</a>
</g>
</g>
<!-- Node5&#45;&gt;Node7 -->
<g id="edge7" class="edge"><title>Node5&#45;&gt;Node7</title>
<path fill="none" stroke="midnightblue" d="M342.314,-22.7787C350.511,-21.009 359.509,-19.0663 367.96,-17.2416"/>
<polygon fill="midnightblue" stroke="midnightblue" points="368.871,-20.6257 377.907,-15.094 367.393,-13.7834 368.871,-20.6257"/>
</g>
</g>
</svg>
