<?xml version="1.0" encoding="UTF-8" standalone="no"?>
<!DOCTYPE svg PUBLIC "-//W3C//DTD SVG 1.1//EN"
 "http://www.w3.org/Graphics/SVG/1.1/DTD/svg11.dtd">
<!-- Generated by graphviz version 2.38.0 (20140413.2041)
 -->
<!-- Title: precode_matrix_encode Pages: 1 -->
<svg width="688pt" height="66pt"
 viewBox="0.00 0.00 688.00 66.00" xmlns="http://www.w3.org/2000/svg" xmlns:xlink="http://www.w3.org/1999/xlink">
<g id="graph0" class="graph" transform="scale(1 1) rotate(0) translate(4 62)">
<title>precode_matrix_encode</title>
<!-- Node8 -->
<g id="node1" class="node"><title>Node8</title>
<polygon fill="#bfbfbf" stroke="black" points="0,-19.5 0,-38.5 120,-38.5 120,-19.5 0,-19.5"/>
<text text-anchor="middle" x="60" y="-26.5" font-family="Helvetica,sans-Serif" font-size="10.00">precode_matrix_encode</text>
</g>
<!-- Node9 -->
<g id="node2" class="node"><title>Node9</title>
<g id="a_node2"><a xlink:href="../../d6/da2/nanorq_8h_a956615eb4ea3ce34369951295e93f708.html#a956615eb4ea3ce34369951295e93f708" target="_top" xlink:title="nanorq_encode">
<polygon fill="none" stroke="black" points="188,-38.5 188,-57.5 271,-57.5 271,-38.5 188,-38.5"/>
<text text-anchor="middle" x="229.5" y="-45.5" font-family="Helvetica,sans-Serif" font-size="10.00">nanorq_encode</text>
</a>
</g>
</g>
<!-- Node8&#45;&gt;Node9 -->
<g id="edge1" class="edge"><title>Node8&#45;&gt;Node9</title>
<path fill="none" stroke="midnightblue" d="M130.184,-36.8478C149.793,-39.072 170.5,-41.4209 187.828,-43.3864"/>
<polygon fill="midnightblue" stroke="midnightblue" points="130.385,-33.3482 120.054,-35.6987 129.596,-40.3036 130.385,-33.3482"/>
</g>
<!-- Node13 -->
<g id="node6" class="node"><title>Node13</title>
<g id="a_node6"><a xlink:href="../../da/def/precode_8h_a2b6a5db8f90fc98b364cb5ed3b5eca24.html#a2b6a5db8f90fc98b364cb5ed3b5eca24" target="_top" xlink:title="precode_matrix_intermediate2">
<polygon fill="none" stroke="black" points="156,-0.5 156,-19.5 303,-19.5 303,-0.5 156,-0.5"/>
<text text-anchor="middle" x="229.5" y="-7.5" font-family="Helvetica,sans-Serif" font-size="10.00">precode_matrix_intermediate2</text>
</a>
</g>
</g>
<!-- Node8&#45;&gt;Node13 -->
<g id="edge5" class="edge"><title>Node8&#45;&gt;Node13</title>
<path fill="none" stroke="midnightblue" d="M130.25,-21.1448C138.711,-20.185 147.377,-19.2021 155.886,-18.2369"/>
<polygon fill="midnightblue" stroke="midnightblue" points="129.596,-17.6964 120.054,-22.3013 130.385,-24.6518 129.596,-17.6964"/>
</g>
<!-- Node10 -->
<g id="node3" class="node"><title>Node10</title>
<g id="a_node3"><a xlink:href="../../dd/d3f/encode_8c_a0993cb61d7e4c1b1a1606d159f5b1410.html#a0993cb61d7e4c1b1a1606d159f5b1410" target="_top" xlink:title="dump_esi">
<polygon fill="none" stroke="black" points="369.5,-38.5 369.5,-57.5 428.5,-57.5 428.5,-38.5 369.5,-38.5"/>
<text text-anchor="middle" x="399" y="-45.5" font-family="Helvetica,sans-Serif" font-size="10.00">dump_esi</text>
</a>
</g>
</g>
<!-- Node9&#45;&gt;Node10 -->
<g id="edge2" class="edge"><title>Node9&#45;&gt;Node10</title>
<path fill="none" stroke="midnightblue" d="M281.366,-48C310.222,-48 345.269,-48 369.366,-48"/>
<polygon fill="midnightblue" stroke="midnightblue" points="281.047,-44.5001 271.047,-48 281.047,-51.5001 281.047,-44.5001"/>
</g>
<!-- Node11 -->
<g id="node4" class="node"><title>Node11</title>
<g id="a_node4"><a xlink:href="../../dd/d3f/encode_8c_ae7f8bbf4dcea92f802d2521fa0264f93.html#ae7f8bbf4dcea92f802d2521fa0264f93" target="_top" xlink:title="dump_block">
<polygon fill="none" stroke="black" points="516,-38.5 516,-57.5 585,-57.5 585,-38.5 516,-38.5"/>
<text text-anchor="middle" x="550.5" y="-45.5" font-family="Helvetica,sans-Serif" font-size="10.00">dump_block</text>
</a>
</g>
</g>
<!-- Node10&#45;&gt;Node11 -->
<g id="edge3" class="edge"><title>Node10&#45;&gt;Node11</title>
<path fill="none" stroke="midnightblue" d="M438.946,-48C462.786,-48 492.988,-48 515.798,-48"/>
<polygon fill="midnightblue" stroke="midnightblue" points="438.825,-44.5001 428.825,-48 438.825,-51.5001 438.825,-44.5001"/>
</g>
<!-- Node12 -->
<g id="node5" class="node"><title>Node12</title>
<g id="a_node5"><a xlink:href="../../dd/d3f/encode_8c_a3c04138a5bfe5d72780bb7e82a18e627.html#a3c04138a5bfe5d72780bb7e82a18e627" target="_top" xlink:title="main">
<polygon fill="none" stroke="black" points="642,-38.5 642,-57.5 680,-57.5 680,-38.5 642,-38.5"/>
<text text-anchor="middle" x="661" y="-45.5" font-family="Helvetica,sans-Serif" font-size="10.00">main</text>
</a>
</g>
</g>
<!-- Node11&#45;&gt;Node12 -->
<g id="edge4" class="edge"><title>Node11&#45;&gt;Node12</title>
<path fill="none" stroke="midnightblue" d="M595.6,-48C611.742,-48 629.126,-48 641.759,-48"/>
<polygon fill="midnightblue" stroke="midnightblue" points="595.235,-44.5001 585.235,-48 595.235,-51.5001 595.235,-44.5001"/>
</g>
<!-- Node14 -->
<g id="node7" class="node"><title>Node14</title>
<g id="a_node7"><a xlink:href="../../da/def/precode_8h_aee2113e8f8d7e54052fc8db5dd71fd1f.html#aee2113e8f8d7e54052fc8db5dd71fd1f" target="_top" xlink:title="precode_matrix_decode">
<polygon fill="none" stroke="black" points="339,-0.5 339,-19.5 459,-19.5 459,-0.5 339,-0.5"/>
<text text-anchor="middle" x="399" y="-7.5" font-family="Helvetica,sans-Serif" font-size="10.00">precode_matrix_decode</text>
</a>
</g>
</g>
<!-- Node13&#45;&gt;Node14 -->
<g id="edge6" class="edge"><title>Node13&#45;&gt;Node14</title>
<path fill="none" stroke="midnightblue" d="M313.496,-10C322.05,-10 330.614,-10 338.832,-10"/>
<polygon fill="midnightblue" stroke="midnightblue" points="313.481,-6.5001 303.481,-10 313.481,-13.5001 313.481,-6.5001"/>
</g>
<!-- Node15 -->
<g id="node8" class="node"><title>Node15</title>
<g id="a_node8"><a xlink:href="../../d6/da2/nanorq_8h_aa1dcf83669e76931be0e6e7a1f02c185.html#aa1dcf83669e76931be0e6e7a1f02c185" target="_top" xlink:title="nanorq_decode_block">
<polygon fill="none" stroke="black" points="495,-0.5 495,-19.5 606,-19.5 606,-0.5 495,-0.5"/>
<text text-anchor="middle" x="550.5" y="-7.5" font-family="Helvetica,sans-Serif" font-size="10.00">nanorq_decode_block</text>
</a>
</g>
</g>
<!-- Node14&#45;&gt;Node15 -->
<g id="edge7" class="edge"><title>Node14&#45;&gt;Node15</title>
<path fill="none" stroke="midnightblue" d="M469.104,-10C477.7,-10 486.396,-10 494.734,-10"/>
<polygon fill="midnightblue" stroke="midnightblue" points="469.086,-6.5001 459.086,-10 469.086,-13.5001 469.086,-6.5001"/>
</g>
<!-- Node16 -->
<g id="node9" class="node"><title>Node16</title>
<g id="a_node9"><a xlink:href="../../da/d0d/decode_8c_a3c04138a5bfe5d72780bb7e82a18e627.html#a3c04138a5bfe5d72780bb7e82a18e627" target="_top" xlink:title="main">
<polygon fill="none" stroke="black" points="642,-0.5 642,-19.5 680,-19.5 680,-0.5 642,-0.5"/>
<text text-anchor="middle" x="661" y="-7.5" font-family="Helvetica,sans-Serif" font-size="10.00">main</text>
</a>
</g>
</g>
<!-- Node15&#45;&gt;Node16 -->
<g id="edge8" class="edge"><title>Node15&#45;&gt;Node16</title>
<path fill="none" stroke="midnightblue" d="M616.269,-10C625.565,-10 634.433,-10 641.723,-10"/>
<polygon fill="midnightblue" stroke="midnightblue" points="616.068,-6.5001 606.068,-10 616.068,-13.5001 616.068,-6.5001"/>
</g>
</g>
</svg>
