<?xml version="1.0" encoding="UTF-8" standalone="no"?>
<!DOCTYPE svg PUBLIC "-//W3C//DTD SVG 1.1//EN"
 "http://www.w3.org/Graphics/SVG/1.1/DTD/svg11.dtd">
<!-- Generated by graphviz version 2.38.0 (20140413.2041)
 -->
<!-- Title: nanorq_num_missing Pages: 1 -->
<svg width="508pt" height="180pt"
 viewBox="0.00 0.00 508.00 180.00" xmlns="http://www.w3.org/2000/svg" xmlns:xlink="http://www.w3.org/1999/xlink">
<g id="graph0" class="graph" transform="scale(1 1) rotate(0) translate(4 176)">
<title>nanorq_num_missing</title>
<!-- Node0 -->
<g id="node1" class="node"><title>Node0</title>
<polygon fill="#bfbfbf" stroke="black" points="0,-114.5 0,-133.5 109,-133.5 109,-114.5 0,-114.5"/>
<text text-anchor="middle" x="54.5" y="-121.5" font-family="Helvetica,sans-Serif" font-size="10.00">nanorq_num_missing</text>
</g>
<!-- Node1 -->
<g id="node2" class="node"><title>Node1</title>
<g id="a_node2"><a xlink:href="../../d6/d74/bitmask_8c_a3b8b7d670ea2a2526b93623a8681341a.html#a3b8b7d670ea2a2526b93623a8681341a" target="_top" xlink:title="bitmask_gaps">
<polygon fill="none" stroke="black" points="163.5,-152.5 163.5,-171.5 240.5,-171.5 240.5,-152.5 163.5,-152.5"/>
<text text-anchor="middle" x="202" y="-159.5" font-family="Helvetica,sans-Serif" font-size="10.00">bitmask_gaps</text>
</a>
</g>
</g>
<!-- Node0&#45;&gt;Node1 -->
<g id="edge1" class="edge"><title>Node0&#45;&gt;Node1</title>
<path fill="none" stroke="midnightblue" d="M92.2158,-133.589C111.157,-138.536 134.457,-144.621 154.629,-149.889"/>
<polygon fill="midnightblue" stroke="midnightblue" points="153.988,-153.339 164.548,-152.48 155.757,-146.567 153.988,-153.339"/>
</g>
<!-- Node2 -->
<g id="node3" class="node"><title>Node2</title>
<g id="a_node3"><a xlink:href="../../d1/d0b/nanorq_8c_a9e0825ce320f90492e45baad6a50ff4c.html#a9e0825ce320f90492e45baad6a50ff4c" target="_top" xlink:title="nanorq_block_decoder">
<polygon fill="none" stroke="black" points="145,-76.5 145,-95.5 259,-95.5 259,-76.5 145,-76.5"/>
<text text-anchor="middle" x="202" y="-83.5" font-family="Helvetica,sans-Serif" font-size="10.00">nanorq_block_decoder</text>
</a>
</g>
</g>
<!-- Node0&#45;&gt;Node2 -->
<g id="edge2" class="edge"><title>Node0&#45;&gt;Node2</title>
<path fill="none" stroke="midnightblue" d="M92.2158,-114.411C111.157,-109.464 134.457,-103.379 154.629,-98.1108"/>
<polygon fill="midnightblue" stroke="midnightblue" points="155.757,-101.433 164.548,-95.5201 153.988,-94.6606 155.757,-101.433"/>
</g>
<!-- Node4 -->
<g id="node5" class="node"><title>Node4</title>
<g id="a_node5"><a xlink:href="../../d1/d0b/nanorq_8c_a4c02c9d148e282c464ab013a678387d0.html#a4c02c9d148e282c464ab013a678387d0" target="_top" xlink:title="nanorq_block_symbols">
<polygon fill="none" stroke="black" points="295,-114.5 295,-133.5 411,-133.5 411,-114.5 295,-114.5"/>
<text text-anchor="middle" x="353" y="-121.5" font-family="Helvetica,sans-Serif" font-size="10.00">nanorq_block_symbols</text>
</a>
</g>
</g>
<!-- Node0&#45;&gt;Node4 -->
<g id="edge9" class="edge"><title>Node0&#45;&gt;Node4</title>
<path fill="none" stroke="midnightblue" d="M109.194,-124C158.5,-124 231.756,-124 284.902,-124"/>
<polygon fill="midnightblue" stroke="midnightblue" points="284.915,-127.5 294.915,-124 284.915,-120.5 284.915,-127.5"/>
</g>
<!-- Node3 -->
<g id="node4" class="node"><title>Node3</title>
<g id="a_node4"><a xlink:href="../../d6/d74/bitmask_8c_ad97925cb0b34333cab279b3034100c7b.html#ad97925cb0b34333cab279b3034100c7b" target="_top" xlink:title="bitmask_new">
<polygon fill="none" stroke="black" points="316,-76.5 316,-95.5 390,-95.5 390,-76.5 316,-76.5"/>
<text text-anchor="middle" x="353" y="-83.5" font-family="Helvetica,sans-Serif" font-size="10.00">bitmask_new</text>
</a>
</g>
</g>
<!-- Node2&#45;&gt;Node3 -->
<g id="edge3" class="edge"><title>Node2&#45;&gt;Node3</title>
<path fill="none" stroke="midnightblue" d="M259.331,-86C274.583,-86 290.917,-86 305.559,-86"/>
<polygon fill="midnightblue" stroke="midnightblue" points="305.881,-89.5001 315.881,-86 305.881,-82.5001 305.881,-89.5001"/>
</g>
<!-- Node2&#45;&gt;Node4 -->
<g id="edge4" class="edge"><title>Node2&#45;&gt;Node4</title>
<path fill="none" stroke="midnightblue" d="M240.599,-95.589C260.084,-100.558 284.075,-106.677 304.796,-111.961"/>
<polygon fill="midnightblue" stroke="midnightblue" points="304.117,-115.4 314.671,-114.48 305.846,-108.617 304.117,-115.4"/>
</g>
<!-- Node5 -->
<g id="node6" class="node"><title>Node5</title>
<g id="a_node6"><a xlink:href="../../d2/dd1/octmat_8c_a0db07e8a815b999f9837c74c31213cdb.html#a0db07e8a815b999f9837c74c31213cdb" target="_top" xlink:title="om_resize">
<polygon fill="none" stroke="black" points="322,-38.5 322,-57.5 384,-57.5 384,-38.5 322,-38.5"/>
<text text-anchor="middle" x="353" y="-45.5" font-family="Helvetica,sans-Serif" font-size="10.00">om_resize</text>
</a>
</g>
</g>
<!-- Node2&#45;&gt;Node5 -->
<g id="edge5" class="edge"><title>Node2&#45;&gt;Node5</title>
<path fill="none" stroke="midnightblue" d="M240.599,-76.411C262.429,-70.8436 289.915,-63.8338 312.122,-58.1702"/>
<polygon fill="midnightblue" stroke="midnightblue" points="313.09,-61.5355 321.915,-55.6727 311.36,-54.7526 313.09,-61.5355"/>
</g>
<!-- Node7 -->
<g id="node8" class="node"><title>Node7</title>
<g id="a_node8"><a xlink:href="../../da/de3/params_8c_a6ec9c111e5ac045945d74371bc5fb5cb.html#a6ec9c111e5ac045945d74371bc5fb5cb" target="_top" xlink:title="params_init">
<polygon fill="none" stroke="black" points="319.5,-0.5 319.5,-19.5 386.5,-19.5 386.5,-0.5 319.5,-0.5"/>
<text text-anchor="middle" x="353" y="-7.5" font-family="Helvetica,sans-Serif" font-size="10.00">params_init</text>
</a>
</g>
</g>
<!-- Node2&#45;&gt;Node7 -->
<g id="edge7" class="edge"><title>Node2&#45;&gt;Node7</title>
<path fill="none" stroke="midnightblue" d="M216.158,-76.4719C233.533,-64.2197 265.396,-42.8726 295,-29 299.662,-26.8153 304.646,-24.7667 309.653,-22.8829"/>
<polygon fill="midnightblue" stroke="midnightblue" points="310.988,-26.1231 319.234,-19.4712 308.639,-19.5287 310.988,-26.1231"/>
</g>
<!-- Node6 -->
<g id="node7" class="node"><title>Node6</title>
<g id="a_node7"><a xlink:href="../../d3/d5a/oblas_8h_a1185f4074fc7932ed79a6f216203f2c4.html#a1185f4074fc7932ed79a6f216203f2c4" target="_top" xlink:title="ozero">
<polygon fill="none" stroke="black" points="453,-38.5 453,-57.5 494,-57.5 494,-38.5 453,-38.5"/>
<text text-anchor="middle" x="473.5" y="-45.5" font-family="Helvetica,sans-Serif" font-size="10.00">ozero</text>
</a>
</g>
</g>
<!-- Node5&#45;&gt;Node6 -->
<g id="edge6" class="edge"><title>Node5&#45;&gt;Node6</title>
<path fill="none" stroke="midnightblue" d="M384.209,-48C402.124,-48 424.745,-48 442.604,-48"/>
<polygon fill="midnightblue" stroke="midnightblue" points="442.761,-51.5001 452.761,-48 442.761,-44.5001 442.761,-51.5001"/>
</g>
<!-- Node8 -->
<g id="node9" class="node"><title>Node8</title>
<g id="a_node9"><a xlink:href="../../da/de3/params_8c_ad7c869ce8790c11bcabfd228cd6d8906.html#ad7c869ce8790c11bcabfd228cd6d8906" target="_top" xlink:title="is_prime">
<polygon fill="none" stroke="black" points="447,-0.5 447,-19.5 500,-19.5 500,-0.5 447,-0.5"/>
<text text-anchor="middle" x="473.5" y="-7.5" font-family="Helvetica,sans-Serif" font-size="10.00">is_prime</text>
</a>
</g>
</g>
<!-- Node7&#45;&gt;Node8 -->
<g id="edge8" class="edge"><title>Node7&#45;&gt;Node8</title>
<path fill="none" stroke="midnightblue" d="M386.694,-10C402.057,-10 420.423,-10 436.214,-10"/>
<polygon fill="midnightblue" stroke="midnightblue" points="436.666,-13.5001 446.666,-10 436.666,-6.5001 436.666,-13.5001"/>
</g>
</g>
</svg>
