<?xml version="1.0" encoding="UTF-8" standalone="no"?>
<!DOCTYPE svg PUBLIC "-//W3C//DTD SVG 1.1//EN"
 "http://www.w3.org/Graphics/SVG/1.1/DTD/svg11.dtd">
<!-- Generated by graphviz version 2.38.0 (20140413.2041)
 -->
<!-- Title: gen_scheme_specific Pages: 1 -->
<svg width="338pt" height="28pt"
 viewBox="0.00 0.00 338.00 28.00" xmlns="http://www.w3.org/2000/svg" xmlns:xlink="http://www.w3.org/1999/xlink">
<g id="graph0" class="graph" transform="scale(1 1) rotate(0) translate(4 24)">
<title>gen_scheme_specific</title>
<!-- Node1 -->
<g id="node1" class="node"><title>Node1</title>
<polygon fill="#bfbfbf" stroke="black" points="0,-0.5 0,-19.5 111,-19.5 111,-0.5 0,-0.5"/>
<text text-anchor="middle" x="55.5" y="-7.5" font-family="Helvetica,sans-Serif" font-size="10.00">gen_scheme_specific</text>
</g>
<!-- Node2 -->
<g id="node2" class="node"><title>Node2</title>
<g id="a_node2"><a xlink:href="../../d6/da2/nanorq_8h_a6ed55092bdcfad4874b4ae3d24e203fc.html#a6ed55092bdcfad4874b4ae3d24e203fc" target="_top" xlink:title="nanorq_encoder_new">
<polygon fill="none" stroke="black" points="147,-0.5 147,-19.5 256,-19.5 256,-0.5 147,-0.5"/>
<text text-anchor="middle" x="201.5" y="-7.5" font-family="Helvetica,sans-Serif" font-size="10.00">nanorq_encoder_new</text>
</a>
</g>
</g>
<!-- Node1&#45;&gt;Node2 -->
<g id="edge1" class="edge"><title>Node1&#45;&gt;Node2</title>
<path fill="none" stroke="midnightblue" d="M121.541,-10C129.973,-10 138.533,-10 146.753,-10"/>
<polygon fill="midnightblue" stroke="midnightblue" points="121.351,-6.5001 111.351,-10 121.351,-13.5001 121.351,-6.5001"/>
</g>
<!-- Node3 -->
<g id="node3" class="node"><title>Node3</title>
<g id="a_node3"><a xlink:href="../../dd/d3f/encode_8c_a3c04138a5bfe5d72780bb7e82a18e627.html#a3c04138a5bfe5d72780bb7e82a18e627" target="_top" xlink:title="main">
<polygon fill="none" stroke="black" points="292,-0.5 292,-19.5 330,-19.5 330,-0.5 292,-0.5"/>
<text text-anchor="middle" x="311" y="-7.5" font-family="Helvetica,sans-Serif" font-size="10.00">main</text>
</a>
</g>
</g>
<!-- Node2&#45;&gt;Node3 -->
<g id="edge2" class="edge"><title>Node2&#45;&gt;Node3</title>
<path fill="none" stroke="midnightblue" d="M266.402,-10C275.656,-10 284.495,-10 291.764,-10"/>
<polygon fill="midnightblue" stroke="midnightblue" points="266.25,-6.5001 256.25,-10 266.25,-13.5001 266.25,-6.5001"/>
</g>
</g>
</svg>
