<?xml version="1.0" encoding="UTF-8" standalone="no"?>
<!DOCTYPE svg PUBLIC "-//W3C//DTD SVG 1.1//EN"
 "http://www.w3.org/Graphics/SVG/1.1/DTD/svg11.dtd">
<!-- Generated by graphviz version 2.38.0 (20140413.2041)
 -->
<!-- Title: nanorq_block_decoder Pages: 1 -->
<svg width="363pt" height="142pt"
 viewBox="0.00 0.00 363.00 142.00" xmlns="http://www.w3.org/2000/svg" xmlns:xlink="http://www.w3.org/1999/xlink">
<g id="graph0" class="graph" transform="scale(1 1) rotate(0) translate(4 138)">
<title>nanorq_block_decoder</title>
<!-- Node0 -->
<g id="node1" class="node"><title>Node0</title>
<polygon fill="#bfbfbf" stroke="black" points="0,-57.5 0,-76.5 114,-76.5 114,-57.5 0,-57.5"/>
<text text-anchor="middle" x="57" y="-64.5" font-family="Helvetica,sans-Serif" font-size="10.00">nanorq_block_decoder</text>
</g>
<!-- Node1 -->
<g id="node2" class="node"><title>Node1</title>
<g id="a_node2"><a xlink:href="../../d6/d74/bitmask_8c_ad97925cb0b34333cab279b3034100c7b.html#ad97925cb0b34333cab279b3034100c7b" target="_top" xlink:title="bitmask_new">
<polygon fill="none" stroke="black" points="171,-114.5 171,-133.5 245,-133.5 245,-114.5 171,-114.5"/>
<text text-anchor="middle" x="208" y="-121.5" font-family="Helvetica,sans-Serif" font-size="10.00">bitmask_new</text>
</a>
</g>
</g>
<!-- Node0&#45;&gt;Node1 -->
<g id="edge1" class="edge"><title>Node0&#45;&gt;Node1</title>
<path fill="none" stroke="midnightblue" d="M80.136,-76.6537C98.6647,-84.6106 125.872,-96.0083 150,-105 155.573,-107.077 161.491,-109.171 167.324,-111.172"/>
<polygon fill="midnightblue" stroke="midnightblue" points="166.389,-114.55 176.984,-114.431 168.628,-107.918 166.389,-114.55"/>
</g>
<!-- Node2 -->
<g id="node3" class="node"><title>Node2</title>
<g id="a_node3"><a xlink:href="../../d1/d0b/nanorq_8c_a4c02c9d148e282c464ab013a678387d0.html#a4c02c9d148e282c464ab013a678387d0" target="_top" xlink:title="nanorq_block_symbols">
<polygon fill="none" stroke="black" points="150,-76.5 150,-95.5 266,-95.5 266,-76.5 150,-76.5"/>
<text text-anchor="middle" x="208" y="-83.5" font-family="Helvetica,sans-Serif" font-size="10.00">nanorq_block_symbols</text>
</a>
</g>
</g>
<!-- Node0&#45;&gt;Node2 -->
<g id="edge2" class="edge"><title>Node0&#45;&gt;Node2</title>
<path fill="none" stroke="midnightblue" d="M114.331,-74.1831C122.533,-75.229 131.048,-76.3149 139.445,-77.3856"/>
<polygon fill="midnightblue" stroke="midnightblue" points="139.237,-80.8873 149.599,-78.6804 140.122,-73.9435 139.237,-80.8873"/>
</g>
<!-- Node3 -->
<g id="node4" class="node"><title>Node3</title>
<g id="a_node4"><a xlink:href="../../d2/dd1/octmat_8c_a0db07e8a815b999f9837c74c31213cdb.html#a0db07e8a815b999f9837c74c31213cdb" target="_top" xlink:title="om_resize">
<polygon fill="none" stroke="black" points="177,-38.5 177,-57.5 239,-57.5 239,-38.5 177,-38.5"/>
<text text-anchor="middle" x="208" y="-45.5" font-family="Helvetica,sans-Serif" font-size="10.00">om_resize</text>
</a>
</g>
</g>
<!-- Node0&#45;&gt;Node3 -->
<g id="edge3" class="edge"><title>Node0&#45;&gt;Node3</title>
<path fill="none" stroke="midnightblue" d="M114.331,-59.8169C131.772,-57.5928 150.628,-55.1883 166.75,-53.1326"/>
<polygon fill="midnightblue" stroke="midnightblue" points="167.43,-56.5743 176.906,-51.8374 166.544,-49.6306 167.43,-56.5743"/>
</g>
<!-- Node5 -->
<g id="node6" class="node"><title>Node5</title>
<g id="a_node6"><a xlink:href="../../da/de3/params_8c_a6ec9c111e5ac045945d74371bc5fb5cb.html#a6ec9c111e5ac045945d74371bc5fb5cb" target="_top" xlink:title="params_init">
<polygon fill="none" stroke="black" points="174.5,-0.5 174.5,-19.5 241.5,-19.5 241.5,-0.5 174.5,-0.5"/>
<text text-anchor="middle" x="208" y="-7.5" font-family="Helvetica,sans-Serif" font-size="10.00">params_init</text>
</a>
</g>
</g>
<!-- Node0&#45;&gt;Node5 -->
<g id="edge5" class="edge"><title>Node0&#45;&gt;Node5</title>
<path fill="none" stroke="midnightblue" d="M80.136,-57.3463C98.6647,-49.3894 125.872,-37.9917 150,-29 155.573,-26.9231 161.491,-24.8289 167.324,-22.8281"/>
<polygon fill="midnightblue" stroke="midnightblue" points="168.628,-26.0821 176.984,-19.5686 166.389,-19.4495 168.628,-26.0821"/>
</g>
<!-- Node4 -->
<g id="node5" class="node"><title>Node4</title>
<g id="a_node5"><a xlink:href="../../d3/d5a/oblas_8h_a1185f4074fc7932ed79a6f216203f2c4.html#a1185f4074fc7932ed79a6f216203f2c4" target="_top" xlink:title="ozero">
<polygon fill="none" stroke="black" points="308,-38.5 308,-57.5 349,-57.5 349,-38.5 308,-38.5"/>
<text text-anchor="middle" x="328.5" y="-45.5" font-family="Helvetica,sans-Serif" font-size="10.00">ozero</text>
</a>
</g>
</g>
<!-- Node3&#45;&gt;Node4 -->
<g id="edge4" class="edge"><title>Node3&#45;&gt;Node4</title>
<path fill="none" stroke="midnightblue" d="M239.209,-48C257.124,-48 279.745,-48 297.604,-48"/>
<polygon fill="midnightblue" stroke="midnightblue" points="297.761,-51.5001 307.761,-48 297.761,-44.5001 297.761,-51.5001"/>
</g>
<!-- Node6 -->
<g id="node7" class="node"><title>Node6</title>
<g id="a_node7"><a xlink:href="../../da/de3/params_8c_ad7c869ce8790c11bcabfd228cd6d8906.html#ad7c869ce8790c11bcabfd228cd6d8906" target="_top" xlink:title="is_prime">
<polygon fill="none" stroke="black" points="302,-0.5 302,-19.5 355,-19.5 355,-0.5 302,-0.5"/>
<text text-anchor="middle" x="328.5" y="-7.5" font-family="Helvetica,sans-Serif" font-size="10.00">is_prime</text>
</a>
</g>
</g>
<!-- Node5&#45;&gt;Node6 -->
<g id="edge6" class="edge"><title>Node5&#45;&gt;Node6</title>
<path fill="none" stroke="midnightblue" d="M241.694,-10C257.057,-10 275.423,-10 291.214,-10"/>
<polygon fill="midnightblue" stroke="midnightblue" points="291.666,-13.5001 301.666,-10 291.666,-6.5001 291.666,-13.5001"/>
</g>
</g>
</svg>
