<?xml version="1.0" encoding="UTF-8" standalone="no"?>
<!DOCTYPE svg PUBLIC "-//W3C//DTD SVG 1.1//EN"
 "http://www.w3.org/Graphics/SVG/1.1/DTD/svg11.dtd">
<!-- Generated by graphviz version 2.38.0 (20140413.2041)
 -->
<!-- Title: nanorq_block_decoder Pages: 1 -->
<svg width="343pt" height="154pt"
 viewBox="0.00 0.00 343.00 154.00" xmlns="http://www.w3.org/2000/svg" xmlns:xlink="http://www.w3.org/1999/xlink">
<g id="graph0" class="graph" transform="scale(1 1) rotate(0) translate(4 150)">
<title>nanorq_block_decoder</title>
<!-- Node7 -->
<g id="node1" class="node"><title>Node7</title>
<polygon fill="#bfbfbf" stroke="black" points="0,-60.5 0,-79.5 114,-79.5 114,-60.5 0,-60.5"/>
<text text-anchor="middle" x="57" y="-67.5" font-family="Helvetica,sans-Serif" font-size="10.00">nanorq_block_decoder</text>
</g>
<!-- Node8 -->
<g id="node2" class="node"><title>Node8</title>
<g id="a_node2"><a xlink:href="../../d6/da2/nanorq_8h_aa1dcf83669e76931be0e6e7a1f02c185.html#aa1dcf83669e76931be0e6e7a1f02c185" target="_top" xlink:title="nanorq_decode_block">
<polygon fill="none" stroke="black" points="150,-126.5 150,-145.5 261,-145.5 261,-126.5 150,-126.5"/>
<text text-anchor="middle" x="205.5" y="-133.5" font-family="Helvetica,sans-Serif" font-size="10.00">nanorq_decode_block</text>
</a>
</g>
</g>
<!-- Node7&#45;&gt;Node8 -->
<g id="edge1" class="edge"><title>Node7&#45;&gt;Node8</title>
<path fill="none" stroke="midnightblue" d="M83.7962,-84.3803C101.993,-94.2248 127.107,-107.216 150,-117 157.924,-120.387 166.675,-123.642 174.802,-126.472"/>
<polygon fill="midnightblue" stroke="midnightblue" points="85.4133,-81.2755 74.9594,-79.5528 82.0573,-87.4186 85.4133,-81.2755"/>
</g>
<!-- Node10 -->
<g id="node4" class="node"><title>Node10</title>
<g id="a_node4"><a xlink:href="../../d6/da2/nanorq_8h_a4199d347f3a4d6e329a6b76fde635121.html#a4199d347f3a4d6e329a6b76fde635121" target="_top" xlink:title="nanorq_decoder_add\l_symbol">
<polygon fill="none" stroke="black" points="152,-77 152,-107 259,-107 259,-77 152,-77"/>
<text text-anchor="start" x="160" y="-95" font-family="Helvetica,sans-Serif" font-size="10.00">nanorq_decoder_add</text>
<text text-anchor="middle" x="205.5" y="-84" font-family="Helvetica,sans-Serif" font-size="10.00">_symbol</text>
</a>
</g>
</g>
<!-- Node7&#45;&gt;Node10 -->
<g id="edge3" class="edge"><title>Node7&#45;&gt;Node10</title>
<path fill="none" stroke="midnightblue" d="M124.404,-79.9719C133.503,-81.3383 142.744,-82.726 151.558,-84.0497"/>
<polygon fill="midnightblue" stroke="midnightblue" points="124.631,-76.4668 114.222,-78.4429 123.591,-83.3892 124.631,-76.4668"/>
</g>
<!-- Node11 -->
<g id="node5" class="node"><title>Node11</title>
<g id="a_node5"><a xlink:href="../../d6/da2/nanorq_8h_a327401e07be8814bccd6c39facecdbe1.html#a327401e07be8814bccd6c39facecdbe1" target="_top" xlink:title="nanorq_num_missing">
<polygon fill="none" stroke="black" points="151,-38.5 151,-57.5 260,-57.5 260,-38.5 151,-38.5"/>
<text text-anchor="middle" x="205.5" y="-45.5" font-family="Helvetica,sans-Serif" font-size="10.00">nanorq_num_missing</text>
</a>
</g>
</g>
<!-- Node7&#45;&gt;Node11 -->
<g id="edge5" class="edge"><title>Node7&#45;&gt;Node11</title>
<path fill="none" stroke="midnightblue" d="M124.134,-60.0687C132.99,-58.7387 141.987,-57.3877 150.599,-56.0944"/>
<polygon fill="midnightblue" stroke="midnightblue" points="123.591,-56.6108 114.222,-61.5571 124.631,-63.5332 123.591,-56.6108"/>
</g>
<!-- Node12 -->
<g id="node6" class="node"><title>Node12</title>
<g id="a_node6"><a xlink:href="../../d6/da2/nanorq_8h_a629b649caa8a354b60fe63cd1570a061.html#a629b649caa8a354b60fe63cd1570a061" target="_top" xlink:title="nanorq_num_repair">
<polygon fill="none" stroke="black" points="156,-0.5 156,-19.5 255,-19.5 255,-0.5 156,-0.5"/>
<text text-anchor="middle" x="205.5" y="-7.5" font-family="Helvetica,sans-Serif" font-size="10.00">nanorq_num_repair</text>
</a>
</g>
</g>
<!-- Node7&#45;&gt;Node12 -->
<g id="edge7" class="edge"><title>Node7&#45;&gt;Node12</title>
<path fill="none" stroke="midnightblue" d="M87.5893,-56.0556C105.495,-47.8077 128.877,-37.3717 150,-29 158.291,-25.7141 167.404,-22.4165 175.766,-19.5125"/>
<polygon fill="midnightblue" stroke="midnightblue" points="85.853,-53.0027 78.2542,-60.3856 88.7986,-59.3528 85.853,-53.0027"/>
</g>
<!-- Node9 -->
<g id="node3" class="node"><title>Node9</title>
<g id="a_node3"><a xlink:href="../../da/d0d/decode_8c_a3c04138a5bfe5d72780bb7e82a18e627.html#a3c04138a5bfe5d72780bb7e82a18e627" target="_top" xlink:title="main">
<polygon fill="none" stroke="black" points="297,-60.5 297,-79.5 335,-79.5 335,-60.5 297,-60.5"/>
<text text-anchor="middle" x="316" y="-67.5" font-family="Helvetica,sans-Serif" font-size="10.00">main</text>
</a>
</g>
</g>
<!-- Node8&#45;&gt;Node9 -->
<g id="edge2" class="edge"><title>Node8&#45;&gt;Node9</title>
<path fill="none" stroke="midnightblue" d="M249.557,-122.748C253.517,-121.009 257.392,-119.094 261,-117 278.844,-106.644 296.252,-89.9566 306.287,-79.5029"/>
<polygon fill="midnightblue" stroke="midnightblue" points="248.221,-119.513 240.247,-126.488 250.831,-126.008 248.221,-119.513"/>
</g>
<!-- Node10&#45;&gt;Node9 -->
<g id="edge4" class="edge"><title>Node10&#45;&gt;Node9</title>
<path fill="none" stroke="midnightblue" d="M269.021,-79.3229C279.229,-77.2531 289.036,-75.2645 296.952,-73.6595"/>
<polygon fill="midnightblue" stroke="midnightblue" points="268.266,-75.9047 259.161,-81.3222 269.657,-82.7651 268.266,-75.9047"/>
</g>
<!-- Node11&#45;&gt;Node9 -->
<g id="edge6" class="edge"><title>Node11&#45;&gt;Node9</title>
<path fill="none" stroke="midnightblue" d="M263.593,-59.5764C275.667,-62.0246 287.553,-64.4346 296.849,-66.3196"/>
<polygon fill="midnightblue" stroke="midnightblue" points="263.955,-56.0787 253.459,-57.5216 262.564,-62.9391 263.955,-56.0787"/>
</g>
<!-- Node12&#45;&gt;Node9 -->
<g id="edge8" class="edge"><title>Node12&#45;&gt;Node9</title>
<path fill="none" stroke="midnightblue" d="M248.582,-23.1587C252.858,-24.9413 257.069,-26.8912 261,-29 277.389,-37.7926 294.117,-51.3496 304.523,-60.4406"/>
<polygon fill="midnightblue" stroke="midnightblue" points="249.791,-19.8739 239.202,-19.5272 247.264,-26.4017 249.791,-19.8739"/>
</g>
</g>
</svg>
