<?xml version="1.0" encoding="UTF-8" standalone="no"?>
<!DOCTYPE svg PUBLIC "-//W3C//DTD SVG 1.1//EN"
 "http://www.w3.org/Graphics/SVG/1.1/DTD/svg11.dtd">
<!-- Generated by graphviz version 2.38.0 (20140413.2041)
 -->
<!-- Title: oblas/oblas.h Pages: 1 -->
<svg width="295pt" height="84pt"
 viewBox="0.00 0.00 294.50 84.00" xmlns="http://www.w3.org/2000/svg" xmlns:xlink="http://www.w3.org/1999/xlink">
<g id="graph0" class="graph" transform="scale(1 1) rotate(0) translate(4 80)">
<title>oblas/oblas.h</title>
<!-- Node1 -->
<g id="node1" class="node"><title>Node1</title>
<polygon fill="#bfbfbf" stroke="black" points="132,-56.5 132,-75.5 206,-75.5 206,-56.5 132,-56.5"/>
<text text-anchor="middle" x="169" y="-63.5" font-family="Helvetica,sans-Serif" font-size="10.00">oblas/oblas.h</text>
</g>
<!-- Node2 -->
<g id="node2" class="node"><title>Node2</title>
<g id="a_node2"><a xlink:href="../../d9/df6/oblas__classic_8c.html" target="_top" xlink:title="oblas/oblas_classic.c">
<polygon fill="none" stroke="black" points="0,-0.5 0,-19.5 110,-19.5 110,-0.5 0,-0.5"/>
<text text-anchor="middle" x="55" y="-7.5" font-family="Helvetica,sans-Serif" font-size="10.00">oblas/oblas_classic.c</text>
</a>
</g>
</g>
<!-- Node1&#45;&gt;Node2 -->
<g id="edge1" class="edge"><title>Node1&#45;&gt;Node2</title>
<path fill="none" stroke="midnightblue" d="M141.758,-52.096C120.46,-42.0073 91.4583,-28.2697 72.9791,-19.5164"/>
<polygon fill="midnightblue" stroke="midnightblue" points="140.401,-55.3257 150.936,-56.4435 143.397,-48.9995 140.401,-55.3257"/>
</g>
<!-- Node3 -->
<g id="node3" class="node"><title>Node3</title>
<g id="a_node3"><a xlink:href="../../d2/dd1/octmat_8c.html" target="_top" xlink:title="oblas/octmat.c">
<polygon fill="none" stroke="black" points="128.5,-0.5 128.5,-19.5 209.5,-19.5 209.5,-0.5 128.5,-0.5"/>
<text text-anchor="middle" x="169" y="-7.5" font-family="Helvetica,sans-Serif" font-size="10.00">oblas/octmat.c</text>
</a>
</g>
</g>
<!-- Node1&#45;&gt;Node3 -->
<g id="edge2" class="edge"><title>Node1&#45;&gt;Node3</title>
<path fill="none" stroke="midnightblue" d="M169,-45.8045C169,-36.9102 169,-26.7798 169,-19.7511"/>
<polygon fill="midnightblue" stroke="midnightblue" points="165.5,-46.083 169,-56.083 172.5,-46.083 165.5,-46.083"/>
</g>
<!-- Node4 -->
<g id="node4" class="node"><title>Node4</title>
<g id="a_node4"><a xlink:href="../../d6/d1a/precode_8c.html" target="_top" xlink:title="precode.c">
<polygon fill="none" stroke="black" points="227.5,-0.5 227.5,-19.5 286.5,-19.5 286.5,-0.5 227.5,-0.5"/>
<text text-anchor="middle" x="257" y="-7.5" font-family="Helvetica,sans-Serif" font-size="10.00">precode.c</text>
</a>
</g>
</g>
<!-- Node1&#45;&gt;Node4 -->
<g id="edge3" class="edge"><title>Node1&#45;&gt;Node4</title>
<path fill="none" stroke="midnightblue" d="M191.977,-50.9005C208.113,-40.9986 229.181,-28.0705 242.896,-19.6545"/>
<polygon fill="midnightblue" stroke="midnightblue" points="189.831,-48.1106 183.139,-56.324 193.493,-54.0769 189.831,-48.1106"/>
</g>
</g>
</svg>
