<?xml version="1.0" encoding="UTF-8" standalone="no"?>
<!DOCTYPE svg PUBLIC "-//W3C//DTD SVG 1.1//EN"
 "http://www.w3.org/Graphics/SVG/1.1/DTD/svg11.dtd">
<!-- Generated by graphviz version 2.38.0 (20140413.2041)
 -->
<!-- Title: chooser_non_zero Pages: 1 -->
<svg width="299pt" height="28pt"
 viewBox="0.00 0.00 299.00 28.00" xmlns="http://www.w3.org/2000/svg" xmlns:xlink="http://www.w3.org/1999/xlink">
<g id="graph0" class="graph" transform="scale(1 1) rotate(0) translate(4 24)">
<title>chooser_non_zero</title>
<!-- Node0 -->
<g id="node1" class="node"><title>Node0</title>
<polygon fill="#bfbfbf" stroke="black" points="0,-0.5 0,-19.5 96,-19.5 96,-0.5 0,-0.5"/>
<text text-anchor="middle" x="48" y="-7.5" font-family="Helvetica,sans-Serif" font-size="10.00">chooser_non_zero</text>
</g>
<!-- Node1 -->
<g id="node2" class="node"><title>Node1</title>
<g id="a_node2"><a xlink:href="../../d1/d2a/graph_8c_a4df6f2af3bed651a7f3d19803ec598e4.html#a4df6f2af3bed651a7f3d19803ec598e4" target="_top" xlink:title="graph_link">
<polygon fill="none" stroke="black" points="132,-0.5 132,-19.5 193,-19.5 193,-0.5 132,-0.5"/>
<text text-anchor="middle" x="162.5" y="-7.5" font-family="Helvetica,sans-Serif" font-size="10.00">graph_link</text>
</a>
</g>
</g>
<!-- Node0&#45;&gt;Node1 -->
<g id="edge1" class="edge"><title>Node0&#45;&gt;Node1</title>
<path fill="none" stroke="midnightblue" d="M96.0583,-10C104.61,-10 113.453,-10 121.768,-10"/>
<polygon fill="midnightblue" stroke="midnightblue" points="121.956,-13.5001 131.956,-10 121.956,-6.5001 121.956,-13.5001"/>
</g>
<!-- Node2 -->
<g id="node3" class="node"><title>Node2</title>
<g id="a_node3"><a xlink:href="../../d1/d2a/graph_8c_aebad20ec3b086b7fae30e6ef61892839.html#aebad20ec3b086b7fae30e6ef61892839" target="_top" xlink:title="graph_find">
<polygon fill="none" stroke="black" points="229,-0.5 229,-19.5 291,-19.5 291,-0.5 229,-0.5"/>
<text text-anchor="middle" x="260" y="-7.5" font-family="Helvetica,sans-Serif" font-size="10.00">graph_find</text>
</a>
</g>
</g>
<!-- Node1&#45;&gt;Node2 -->
<g id="edge2" class="edge"><title>Node1&#45;&gt;Node2</title>
<path fill="none" stroke="midnightblue" d="M193.193,-10C201.29,-10 210.199,-10 218.776,-10"/>
<polygon fill="midnightblue" stroke="midnightblue" points="218.996,-13.5001 228.996,-10 218.996,-6.5001 218.996,-13.5001"/>
</g>
</g>
</svg>
