<?xml version="1.0" encoding="UTF-8" standalone="no"?>
<!DOCTYPE svg PUBLIC "-//W3C//DTD SVG 1.1//EN"
 "http://www.w3.org/Graphics/SVG/1.1/DTD/svg11.dtd">
<!-- Generated by graphviz version 2.38.0 (20140413.2041)
 -->
<!-- Title: params_init Pages: 1 -->
<!--zoomable 230 -->
<svg id="main" version="1.1" xmlns="http://www.w3.org/2000/svg" xmlns:xlink="http://www.w3.org/1999/xlink" xml:space="preserve" onload="init(evt)">
<style type="text/css"><![CDATA[
.edge:hover path { stroke: red; }
.edge:hover polygon { stroke: red; fill: red; }
]]></style>
<script type="text/javascript"><![CDATA[
var edges = document.getElementsByTagName('g');
if (edges && edges.length) {
  for (var i=0;i<edges.length;i++) {
    if (edges[i].id.substr(0,4)=='edge') {
      edges[i].setAttribute('class','edge');
    }
  }
}
]]></script>
        <defs>
                <circle id="rim" cx="0" cy="0" r="7"/>
                <circle id="rim2" cx="0" cy="0" r="3.5"/>
                <g id="zoomPlus">
                        <use xlink:href="#rim" fill="#404040">
                                <set attributeName="fill" to="#808080" begin="zoomplus.mouseover" end="zoomplus.mouseout"/>
                        </use>
                        <path d="M-4,0h8M0,-4v8" fill="none" stroke="white" stroke-width="1.5" pointer-events="none"/>
                </g>
                <g id="zoomMin">
                        <use xlink:href="#rim" fill="#404040">
                                <set attributeName="fill" to="#808080" begin="zoomminus.mouseover" end="zoomminus.mouseout"/>
                        </use>
                        <path d="M-4,0h8" fill="none" stroke="white" stroke-width="1.5" pointer-events="none"/>
                </g>
                <g id="dirArrow">
                        <path fill="none" stroke="white" stroke-width="1.5" d="M0,-3.0v7 M-2.5,-0.5L0,-3.0L2.5,-0.5"/>
                </g>
               <g id="resetDef">
                       <use xlink:href="#rim2" fill="#404040">
                               <set attributeName="fill" to="#808080" begin="reset.mouseover" end="reset.mouseout"/>
                       </use>
               </g>
        </defs>

<script type="text/javascript">
var viewWidth = 785;
var viewHeight = 230;
var sectionId = 'dynsection-1';
</script>
<script xlink:href="../../svgpan.js"/>
<svg id="graph" class="graph">
<g id="viewport">
<title>params_init</title>
<!-- Node2 -->
<g id="node1" class="node"><title>Node2</title>
<polygon fill="#bfbfbf" stroke="black" points="0,-76.5 0,-95.5 67,-95.5 67,-76.5 0,-76.5"/>
<text text-anchor="middle" x="33.5" y="-83.5" font-family="Helvetica,sans-Serif" font-size="10.00">params_init</text>
</g>
<!-- Node3 -->
<g id="node2" class="node"><title>Node3</title>
<g id="a_node2"><a xlink:href="../../d1/d0b/nanorq_8c_a9e0825ce320f90492e45baad6a50ff4c.html#a9e0825ce320f90492e45baad6a50ff4c" target="_top" xlink:title="nanorq_block_decoder">
<polygon fill="none" stroke="black" points="103,-114.5 103,-133.5 217,-133.5 217,-114.5 103,-114.5"/>
<text text-anchor="middle" x="160" y="-121.5" font-family="Helvetica,sans-Serif" font-size="10.00">nanorq_block_decoder</text>
</a>
</g>
</g>
<!-- Node2&#45;&gt;Node3 -->
<g id="edge1" class="edge"><title>Node2&#45;&gt;Node3</title>
<path fill="none" stroke="midnightblue" d="M75.5696,-98.5353C92.5064,-103.705 111.818,-109.599 127.593,-114.414"/>
<polygon fill="midnightblue" stroke="midnightblue" points="76.5028,-95.1608 65.9166,-95.589 74.4593,-101.856 76.5028,-95.1608"/>
</g>
<!-- Node9 -->
<g id="node8" class="node"><title>Node9</title>
<g id="a_node8"><a xlink:href="../../d1/d0b/nanorq_8c_ae51b5ce95f964fb7c4141edd8128dc0e.html#ae51b5ce95f964fb7c4141edd8128dc0e" target="_top" xlink:title="nanorq_block_encoder">
<polygon fill="none" stroke="black" points="103,-38.5 103,-57.5 217,-57.5 217,-38.5 103,-38.5"/>
<text text-anchor="middle" x="160" y="-45.5" font-family="Helvetica,sans-Serif" font-size="10.00">nanorq_block_encoder</text>
</a>
</g>
</g>
<!-- Node2&#45;&gt;Node9 -->
<g id="edge10" class="edge"><title>Node2&#45;&gt;Node9</title>
<path fill="none" stroke="midnightblue" d="M75.5696,-73.4647C92.5064,-68.2952 111.818,-62.4009 127.593,-57.5859"/>
<polygon fill="midnightblue" stroke="midnightblue" points="74.4593,-70.1441 65.9166,-76.411 76.5028,-76.8392 74.4593,-70.1441"/>
</g>
<!-- Node4 -->
<g id="node3" class="node"><title>Node4</title>
<g id="a_node3"><a xlink:href="../../d6/da2/nanorq_8h_aa1dcf83669e76931be0e6e7a1f02c185.html#aa1dcf83669e76931be0e6e7a1f02c185" target="_top" xlink:title="nanorq_decode_block">
<polygon fill="none" stroke="black" points="263,-202.5 263,-221.5 374,-221.5 374,-202.5 263,-202.5"/>
<text text-anchor="middle" x="318.5" y="-209.5" font-family="Helvetica,sans-Serif" font-size="10.00">nanorq_decode_block</text>
</a>
</g>
</g>
<!-- Node3&#45;&gt;Node4 -->
<g id="edge2" class="edge"><title>Node3&#45;&gt;Node4</title>
<path fill="none" stroke="midnightblue" d="M178.975,-140.591C196.632,-156.1 224.935,-178.921 253,-193 260.408,-196.717 268.669,-199.833 276.739,-202.396"/>
<polygon fill="midnightblue" stroke="midnightblue" points="180.994,-137.701 171.21,-133.636 176.323,-142.915 180.994,-137.701"/>
</g>
<!-- Node6 -->
<g id="node5" class="node"><title>Node6</title>
<g id="a_node5"><a xlink:href="../../d6/da2/nanorq_8h_a4199d347f3a4d6e329a6b76fde635121.html#a4199d347f3a4d6e329a6b76fde635121" target="_top" xlink:title="nanorq_decoder_add\l_symbol">
<polygon fill="none" stroke="black" points="265,-153 265,-183 372,-183 372,-153 265,-153"/>
<text text-anchor="start" x="273" y="-171" font-family="Helvetica,sans-Serif" font-size="10.00">nanorq_decoder_add</text>
<text text-anchor="middle" x="318.5" y="-160" font-family="Helvetica,sans-Serif" font-size="10.00">_symbol</text>
</a>
</g>
</g>
<!-- Node3&#45;&gt;Node6 -->
<g id="edge4" class="edge"><title>Node3&#45;&gt;Node6</title>
<path fill="none" stroke="midnightblue" d="M204.669,-136.278C223.331,-141.524 245.279,-147.695 264.832,-153.192"/>
<polygon fill="midnightblue" stroke="midnightblue" points="205.532,-132.885 194.958,-133.547 203.638,-139.623 205.532,-132.885"/>
</g>
<!-- Node7 -->
<g id="node6" class="node"><title>Node7</title>
<g id="a_node6"><a xlink:href="../../d6/da2/nanorq_8h_a327401e07be8814bccd6c39facecdbe1.html#a327401e07be8814bccd6c39facecdbe1" target="_top" xlink:title="nanorq_num_missing">
<polygon fill="none" stroke="black" points="264,-114.5 264,-133.5 373,-133.5 373,-114.5 264,-114.5"/>
<text text-anchor="middle" x="318.5" y="-121.5" font-family="Helvetica,sans-Serif" font-size="10.00">nanorq_num_missing</text>
</a>
</g>
</g>
<!-- Node3&#45;&gt;Node7 -->
<g id="edge6" class="edge"><title>Node3&#45;&gt;Node7</title>
<path fill="none" stroke="midnightblue" d="M227.222,-124C239.467,-124 252.115,-124 263.927,-124"/>
<polygon fill="midnightblue" stroke="midnightblue" points="227.058,-120.5 217.058,-124 227.058,-127.5 227.058,-120.5"/>
</g>
<!-- Node8 -->
<g id="node7" class="node"><title>Node8</title>
<g id="a_node7"><a xlink:href="../../d6/da2/nanorq_8h_a629b649caa8a354b60fe63cd1570a061.html#a629b649caa8a354b60fe63cd1570a061" target="_top" xlink:title="nanorq_num_repair">
<polygon fill="none" stroke="black" points="269,-76.5 269,-95.5 368,-95.5 368,-76.5 269,-76.5"/>
<text text-anchor="middle" x="318.5" y="-83.5" font-family="Helvetica,sans-Serif" font-size="10.00">nanorq_num_repair</text>
</a>
</g>
</g>
<!-- Node3&#45;&gt;Node8 -->
<g id="edge8" class="edge"><title>Node3&#45;&gt;Node8</title>
<path fill="none" stroke="midnightblue" d="M210.289,-112.032C232.22,-106.707 257.685,-100.524 278.292,-95.5201"/>
<polygon fill="midnightblue" stroke="midnightblue" points="209.383,-108.65 200.492,-114.411 211.035,-115.453 209.383,-108.65"/>
</g>
<!-- Node5 -->
<g id="node4" class="node"><title>Node5</title>
<g id="a_node4"><a xlink:href="../../da/d0d/decode_8c_a3c04138a5bfe5d72780bb7e82a18e627.html#a3c04138a5bfe5d72780bb7e82a18e627" target="_top" xlink:title="main">
<polygon fill="none" stroke="black" points="442.5,-136.5 442.5,-155.5 480.5,-155.5 480.5,-136.5 442.5,-136.5"/>
<text text-anchor="middle" x="461.5" y="-143.5" font-family="Helvetica,sans-Serif" font-size="10.00">main</text>
</a>
</g>
</g>
<!-- Node4&#45;&gt;Node5 -->
<g id="edge3" class="edge"><title>Node4&#45;&gt;Node5</title>
<path fill="none" stroke="midnightblue" d="M367.866,-199.28C373.385,-197.381 378.867,-195.284 384,-193 407.498,-182.543 432.485,-166.041 447.28,-155.63"/>
<polygon fill="midnightblue" stroke="midnightblue" points="366.398,-196.076 357.959,-202.483 368.551,-202.737 366.398,-196.076"/>
</g>
<!-- Node6&#45;&gt;Node5 -->
<g id="edge5" class="edge"><title>Node6&#45;&gt;Node5</title>
<path fill="none" stroke="midnightblue" d="M381.998,-158.249C403.98,-154.819 427.013,-151.225 442.4,-148.824"/>
<polygon fill="midnightblue" stroke="midnightblue" points="381.344,-154.808 372.003,-159.808 382.423,-161.724 381.344,-154.808"/>
</g>
<!-- Node7&#45;&gt;Node5 -->
<g id="edge7" class="edge"><title>Node7&#45;&gt;Node5</title>
<path fill="none" stroke="midnightblue" d="M383.359,-133.964C404.925,-137.329 427.327,-140.824 442.397,-143.175"/>
<polygon fill="midnightblue" stroke="midnightblue" points="383.628,-130.464 373.208,-132.38 382.549,-137.38 383.628,-130.464"/>
</g>
<!-- Node8&#45;&gt;Node5 -->
<g id="edge9" class="edge"><title>Node8&#45;&gt;Node5</title>
<path fill="none" stroke="midnightblue" d="M366.657,-98.6636C372.561,-100.607 378.465,-102.73 384,-105 405.888,-113.977 429.702,-127.364 444.847,-136.375"/>
<polygon fill="midnightblue" stroke="midnightblue" points="367.378,-95.2214 356.788,-95.5681 365.283,-101.901 367.378,-95.2214"/>
</g>
<!-- Node10 -->
<g id="node9" class="node"><title>Node10</title>
<g id="a_node9"><a xlink:href="../../d6/da2/nanorq_8h_a956615eb4ea3ce34369951295e93f708.html#a956615eb4ea3ce34369951295e93f708" target="_top" xlink:title="nanorq_encode">
<polygon fill="none" stroke="black" points="420,-38.5 420,-57.5 503,-57.5 503,-38.5 420,-38.5"/>
<text text-anchor="middle" x="461.5" y="-45.5" font-family="Helvetica,sans-Serif" font-size="10.00">nanorq_encode</text>
</a>
</g>
</g>
<!-- Node9&#45;&gt;Node10 -->
<g id="edge11" class="edge"><title>Node9&#45;&gt;Node10</title>
<path fill="none" stroke="midnightblue" d="M227.65,-48C286.502,-48 370.412,-48 419.787,-48"/>
<polygon fill="midnightblue" stroke="midnightblue" points="227.334,-44.5001 217.334,-48 227.334,-51.5001 227.334,-44.5001"/>
</g>
<!-- Node14 -->
<g id="node13" class="node"><title>Node14</title>
<g id="a_node13"><a xlink:href="../../d6/da2/nanorq_8h_ad6a9288685637cdfe83303f66b087a29.html#ad6a9288685637cdfe83303f66b087a29" target="_top" xlink:title="nanorq_generate_symbols">
<polygon fill="none" stroke="black" points="253,-0.5 253,-19.5 384,-19.5 384,-0.5 253,-0.5"/>
<text text-anchor="middle" x="318.5" y="-7.5" font-family="Helvetica,sans-Serif" font-size="10.00">nanorq_generate_symbols</text>
</a>
</g>
</g>
<!-- Node9&#45;&gt;Node14 -->
<g id="edge15" class="edge"><title>Node9&#45;&gt;Node14</title>
<path fill="none" stroke="midnightblue" d="M210.289,-36.032C232.22,-30.7069 257.685,-24.5238 278.292,-19.5201"/>
<polygon fill="midnightblue" stroke="midnightblue" points="209.383,-32.6502 200.492,-38.411 211.035,-39.4525 209.383,-32.6502"/>
</g>
<!-- Node11 -->
<g id="node10" class="node"><title>Node11</title>
<g id="a_node10"><a xlink:href="../../dd/d3f/encode_8c_a0993cb61d7e4c1b1a1606d159f5b1410.html#a0993cb61d7e4c1b1a1606d159f5b1410" target="_top" xlink:title="dump_esi">
<polygon fill="none" stroke="black" points="539,-38.5 539,-57.5 598,-57.5 598,-38.5 539,-38.5"/>
<text text-anchor="middle" x="568.5" y="-45.5" font-family="Helvetica,sans-Serif" font-size="10.00">dump_esi</text>
</a>
</g>
</g>
<!-- Node10&#45;&gt;Node11 -->
<g id="edge12" class="edge"><title>Node10&#45;&gt;Node11</title>
<path fill="none" stroke="midnightblue" d="M513.272,-48C522.015,-48 530.823,-48 538.723,-48"/>
<polygon fill="midnightblue" stroke="midnightblue" points="513.096,-44.5001 503.096,-48 513.096,-51.5001 513.096,-44.5001"/>
</g>
<!-- Node12 -->
<g id="node11" class="node"><title>Node12</title>
<g id="a_node11"><a xlink:href="../../dd/d3f/encode_8c_ae7f8bbf4dcea92f802d2521fa0264f93.html#ae7f8bbf4dcea92f802d2521fa0264f93" target="_top" xlink:title="dump_block">
<polygon fill="none" stroke="black" points="634,-38.5 634,-57.5 703,-57.5 703,-38.5 634,-38.5"/>
<text text-anchor="middle" x="668.5" y="-45.5" font-family="Helvetica,sans-Serif" font-size="10.00">dump_block</text>
</a>
</g>
</g>
<!-- Node11&#45;&gt;Node12 -->
<g id="edge13" class="edge"><title>Node11&#45;&gt;Node12</title>
<path fill="none" stroke="midnightblue" d="M608.17,-48C616.653,-48 625.569,-48 633.837,-48"/>
<polygon fill="midnightblue" stroke="midnightblue" points="608.109,-44.5001 598.109,-48 608.109,-51.5001 608.109,-44.5001"/>
</g>
<!-- Node13 -->
<g id="node12" class="node"><title>Node13</title>
<g id="a_node12"><a xlink:href="../../dd/d3f/encode_8c_a3c04138a5bfe5d72780bb7e82a18e627.html#a3c04138a5bfe5d72780bb7e82a18e627" target="_top" xlink:title="main">
<polygon fill="none" stroke="black" points="739,-19.5 739,-38.5 777,-38.5 777,-19.5 739,-19.5"/>
<text text-anchor="middle" x="758" y="-26.5" font-family="Helvetica,sans-Serif" font-size="10.00">main</text>
</a>
</g>
</g>
<!-- Node12&#45;&gt;Node13 -->
<g id="edge14" class="edge"><title>Node12&#45;&gt;Node13</title>
<path fill="none" stroke="midnightblue" d="M712.916,-38.5725C722.058,-36.5874 731.22,-34.598 738.804,-32.9512"/>
<polygon fill="midnightblue" stroke="midnightblue" points="712.109,-35.1661 703.08,-40.7084 713.595,-42.0067 712.109,-35.1661"/>
</g>
<!-- Node14&#45;&gt;Node10 -->
<g id="edge17" class="edge"><title>Node14&#45;&gt;Node10</title>
<path fill="none" stroke="midnightblue" d="M364.94,-22.2462C384.375,-27.484 406.731,-33.5091 424.931,-38.4141"/>
<polygon fill="midnightblue" stroke="midnightblue" points="365.647,-18.8118 355.08,-19.589 363.825,-25.5707 365.647,-18.8118"/>
</g>
<!-- Node14&#45;&gt;Node13 -->
<g id="edge16" class="edge"><title>Node14&#45;&gt;Node13</title>
<path fill="none" stroke="midnightblue" d="M394.189,-13.2436C498.32,-17.7659 680.875,-25.694 738.814,-28.2102"/>
<polygon fill="midnightblue" stroke="midnightblue" points="394.197,-9.74078 384.055,-12.8035 393.893,-16.7342 394.197,-9.74078"/>
</g>
</g>
</svg>
        <g id="navigator" transform="translate(0 0)" fill="#404254">
                <rect fill="#f2f5e9" fill-opacity="0.5" stroke="#606060" stroke-width=".5" x="0" y="0" width="60" height="60"/>
                <use id="zoomplus" xlink:href="#zoomPlus" x="17" y="9" onmousedown="handleZoom(evt,'in')"/>
                <use id="zoomminus" xlink:href="#zoomMin" x="42" y="9" onmousedown="handleZoom(evt,'out')"/>
                <use id="reset" xlink:href="#resetDef" x="30" y="36" onmousedown="handleReset()"/>
                <g id="arrowUp" xlink:href="#dirArrow" transform="translate(30 24)" onmousedown="handlePan(0,-1)">
                  <use xlink:href="#rim" fill="#404040">
                        <set attributeName="fill" to="#808080" begin="arrowUp.mouseover" end="arrowUp.mouseout"/>
                  </use>
                  <path fill="none" stroke="white" stroke-width="1.5" d="M0,-3.0v7 M-2.5,-0.5L0,-3.0L2.5,-0.5"/>
                </g>
                <g id="arrowRight" xlink:href="#dirArrow" transform="rotate(90) translate(36 -43)" onmousedown="handlePan(1,0)">
                  <use xlink:href="#rim" fill="#404040">
                        <set attributeName="fill" to="#808080" begin="arrowRight.mouseover" end="arrowRight.mouseout"/>
                  </use>
                  <path fill="none" stroke="white" stroke-width="1.5" d="M0,-3.0v7 M-2.5,-0.5L0,-3.0L2.5,-0.5"/>
                </g>
                <g id="arrowDown" xlink:href="#dirArrow" transform="rotate(180) translate(-30 -48)" onmousedown="handlePan(0,1)">
                  <use xlink:href="#rim" fill="#404040">
                        <set attributeName="fill" to="#808080" begin="arrowDown.mouseover" end="arrowDown.mouseout"/>
                  </use>
                  <path fill="none" stroke="white" stroke-width="1.5" d="M0,-3.0v7 M-2.5,-0.5L0,-3.0L2.5,-0.5"/>
                </g>
                <g id="arrowLeft" xlink:href="#dirArrow" transform="rotate(270) translate(-36 17)" onmousedown="handlePan(-1,0)">
                  <use xlink:href="#rim" fill="#404040">
                        <set attributeName="fill" to="#808080" begin="arrowLeft.mouseover" end="arrowLeft.mouseout"/>
                  </use>
                  <path fill="none" stroke="white" stroke-width="1.5" d="M0,-3.0v7 M-2.5,-0.5L0,-3.0L2.5,-0.5"/>
                </g>
        </g>
        <svg viewBox="0 0 15 15" width="100%" height="30px" preserveAspectRatio="xMaxYMin meet">
         <g id="arrow_out" transform="scale(0.3 0.3)">
          <a xlink:href="params_8h_a6ec9c111e5ac045945d74371bc5fb5cb_a6ec9c111e5ac045945d74371bc5fb5cb_icgraph_org.svg" target="_base">
           <rect id="button" ry="5" rx="5" y="6" x="6" height="38" width="38"
                fill="#f2f5e9" fill-opacity="0.5" stroke="#606060" stroke-width="1.0"/>
           <path id="arrow"
             d="M 11.500037,31.436501 C 11.940474,20.09759 22.043105,11.32322 32.158766,21.979434 L 37.068811,17.246167 C 37.068811,17.246167 37.088388,32 37.088388,32 L 22.160133,31.978069 C 22.160133,31.978069 26.997745,27.140456 26.997745,27.140456 C 18.528582,18.264221 13.291696,25.230495 11.500037,31.436501 z"
             style="fill:#404040;"/>
          </a>
         </g>
        </svg>
</svg>
