<?xml version="1.0" encoding="UTF-8" standalone="no"?>
<!DOCTYPE svg PUBLIC "-//W3C//DTD SVG 1.1//EN"
 "http://www.w3.org/Graphics/SVG/1.1/DTD/svg11.dtd">
<!-- Generated by graphviz version 2.38.0 (20140413.2041)
 -->
<!-- Title: params_get_idxs Pages: 1 -->
<svg width="1026pt" height="116pt"
 viewBox="0.00 0.00 1026.00 116.00" xmlns="http://www.w3.org/2000/svg" xmlns:xlink="http://www.w3.org/1999/xlink">
<g id="graph0" class="graph" transform="scale(1 1) rotate(0) translate(4 112)">
<title>params_get_idxs</title>
<!-- Node4 -->
<g id="node1" class="node"><title>Node4</title>
<polygon fill="#bfbfbf" stroke="black" points="0,-44.5 0,-63.5 91,-63.5 91,-44.5 0,-44.5"/>
<text text-anchor="middle" x="45.5" y="-51.5" font-family="Helvetica,sans-Serif" font-size="10.00">params_get_idxs</text>
</g>
<!-- Node5 -->
<g id="node2" class="node"><title>Node5</title>
<g id="a_node2"><a xlink:href="../../d6/d1a/precode_8c_aba331164c0af3eef69c0ac91d8fe2eba.html#aba331164c0af3eef69c0ac91d8fe2eba" target="_top" xlink:title="decode_phase0">
<polygon fill="none" stroke="black" points="144.5,-88.5 144.5,-107.5 229.5,-107.5 229.5,-88.5 144.5,-88.5"/>
<text text-anchor="middle" x="187" y="-95.5" font-family="Helvetica,sans-Serif" font-size="10.00">decode_phase0</text>
</a>
</g>
</g>
<!-- Node4&#45;&gt;Node5 -->
<g id="edge1" class="edge"><title>Node4&#45;&gt;Node5</title>
<path fill="none" stroke="midnightblue" d="M86.5187,-66.6224C108.575,-73.5793 135.511,-82.0753 155.79,-88.4713"/>
<polygon fill="midnightblue" stroke="midnightblue" points="87.3591,-63.2176 76.7694,-63.5473 85.2534,-69.8934 87.3591,-63.2176"/>
</g>
<!-- Node10 -->
<g id="node7" class="node"><title>Node10</title>
<g id="a_node7"><a xlink:href="../../d6/d1a/precode_8c_a7fb81075ad77cf8790ba330c7fc6c221.html#a7fb81075ad77cf8790ba330c7fc6c221" target="_top" xlink:title="precode_matrix_add\l_G_ENC">
<polygon fill="none" stroke="black" points="135,-39 135,-69 239,-69 239,-39 135,-39"/>
<text text-anchor="start" x="143" y="-57" font-family="Helvetica,sans-Serif" font-size="10.00">precode_matrix_add</text>
<text text-anchor="middle" x="187" y="-46" font-family="Helvetica,sans-Serif" font-size="10.00">_G_ENC</text>
</a>
</g>
</g>
<!-- Node4&#45;&gt;Node10 -->
<g id="edge6" class="edge"><title>Node4&#45;&gt;Node10</title>
<path fill="none" stroke="midnightblue" d="M101.336,-54C112.297,-54 123.774,-54 134.614,-54"/>
<polygon fill="midnightblue" stroke="midnightblue" points="101.022,-50.5001 91.0222,-54 101.022,-57.5001 101.022,-50.5001"/>
</g>
<!-- Node17 -->
<g id="node14" class="node"><title>Node17</title>
<g id="a_node14"><a xlink:href="../../da/def/precode_8h_ac563a7861b8d34580909af77f063ea66.html#ac563a7861b8d34580909af77f063ea66" target="_top" xlink:title="precode_matrix_encode">
<polygon fill="none" stroke="black" points="127,-0.5 127,-19.5 247,-19.5 247,-0.5 127,-0.5"/>
<text text-anchor="middle" x="187" y="-7.5" font-family="Helvetica,sans-Serif" font-size="10.00">precode_matrix_encode</text>
</a>
</g>
</g>
<!-- Node4&#45;&gt;Node17 -->
<g id="edge15" class="edge"><title>Node4&#45;&gt;Node17</title>
<path fill="none" stroke="midnightblue" d="M86.5187,-41.3776C108.575,-34.4207 135.511,-25.9247 155.79,-19.5287"/>
<polygon fill="midnightblue" stroke="midnightblue" points="85.2534,-38.1066 76.7694,-44.4527 87.3591,-44.7824 85.2534,-38.1066"/>
</g>
<!-- Node6 -->
<g id="node3" class="node"><title>Node6</title>
<g id="a_node3"><a xlink:href="../../da/def/precode_8h_a2b6a5db8f90fc98b364cb5ed3b5eca24.html#a2b6a5db8f90fc98b364cb5ed3b5eca24" target="_top" xlink:title="precode_matrix_intermediate2">
<polygon fill="none" stroke="black" points="283,-81.5 283,-100.5 430,-100.5 430,-81.5 283,-81.5"/>
<text text-anchor="middle" x="356.5" y="-88.5" font-family="Helvetica,sans-Serif" font-size="10.00">precode_matrix_intermediate2</text>
</a>
</g>
</g>
<!-- Node5&#45;&gt;Node6 -->
<g id="edge2" class="edge"><title>Node5&#45;&gt;Node6</title>
<path fill="none" stroke="midnightblue" d="M239.952,-95.8289C253.555,-95.2604 268.472,-94.637 282.936,-94.0325"/>
<polygon fill="midnightblue" stroke="midnightblue" points="239.68,-92.3371 229.835,-96.2517 239.973,-99.331 239.68,-92.3371"/>
</g>
<!-- Node7 -->
<g id="node4" class="node"><title>Node7</title>
<g id="a_node4"><a xlink:href="../../da/def/precode_8h_aee2113e8f8d7e54052fc8db5dd71fd1f.html#aee2113e8f8d7e54052fc8db5dd71fd1f" target="_top" xlink:title="precode_matrix_decode">
<polygon fill="none" stroke="black" points="471.5,-78.5 471.5,-97.5 591.5,-97.5 591.5,-78.5 471.5,-78.5"/>
<text text-anchor="middle" x="531.5" y="-85.5" font-family="Helvetica,sans-Serif" font-size="10.00">precode_matrix_decode</text>
</a>
</g>
</g>
<!-- Node6&#45;&gt;Node7 -->
<g id="edge3" class="edge"><title>Node6&#45;&gt;Node7</title>
<path fill="none" stroke="midnightblue" d="M440.19,-89.5661C450.744,-89.3831 461.373,-89.1987 471.448,-89.024"/>
<polygon fill="midnightblue" stroke="midnightblue" points="440.053,-86.0678 430.116,-89.7408 440.175,-93.0668 440.053,-86.0678"/>
</g>
<!-- Node8 -->
<g id="node5" class="node"><title>Node8</title>
<g id="a_node5"><a xlink:href="../../d6/da2/nanorq_8h_aa1dcf83669e76931be0e6e7a1f02c185.html#aa1dcf83669e76931be0e6e7a1f02c185" target="_top" xlink:title="nanorq_decode_block">
<polygon fill="none" stroke="black" points="633,-78.5 633,-97.5 744,-97.5 744,-78.5 633,-78.5"/>
<text text-anchor="middle" x="688.5" y="-85.5" font-family="Helvetica,sans-Serif" font-size="10.00">nanorq_decode_block</text>
</a>
</g>
</g>
<!-- Node7&#45;&gt;Node8 -->
<g id="edge4" class="edge"><title>Node7&#45;&gt;Node8</title>
<path fill="none" stroke="midnightblue" d="M601.866,-88C612.285,-88 622.903,-88 632.954,-88"/>
<polygon fill="midnightblue" stroke="midnightblue" points="601.541,-84.5001 591.541,-88 601.541,-91.5001 601.541,-84.5001"/>
</g>
<!-- Node9 -->
<g id="node6" class="node"><title>Node9</title>
<g id="a_node6"><a xlink:href="../../da/d0d/decode_8c_a3c04138a5bfe5d72780bb7e82a18e627.html#a3c04138a5bfe5d72780bb7e82a18e627" target="_top" xlink:title="main">
<polygon fill="none" stroke="black" points="790.5,-78.5 790.5,-97.5 828.5,-97.5 828.5,-78.5 790.5,-78.5"/>
<text text-anchor="middle" x="809.5" y="-85.5" font-family="Helvetica,sans-Serif" font-size="10.00">main</text>
</a>
</g>
</g>
<!-- Node8&#45;&gt;Node9 -->
<g id="edge5" class="edge"><title>Node8&#45;&gt;Node9</title>
<path fill="none" stroke="midnightblue" d="M754.271,-88C767.507,-88 780.393,-88 790.281,-88"/>
<polygon fill="midnightblue" stroke="midnightblue" points="754.124,-84.5001 744.124,-88 754.124,-91.5001 754.124,-84.5001"/>
</g>
<!-- Node11 -->
<g id="node8" class="node"><title>Node11</title>
<g id="a_node8"><a xlink:href="../../da/def/precode_8h_a85c0aa4f7900eccf336228d43b7c133c.html#a85c0aa4f7900eccf336228d43b7c133c" target="_top" xlink:title="precode_matrix_gen">
<polygon fill="none" stroke="black" points="304.5,-43.5 304.5,-62.5 408.5,-62.5 408.5,-43.5 304.5,-43.5"/>
<text text-anchor="middle" x="356.5" y="-50.5" font-family="Helvetica,sans-Serif" font-size="10.00">precode_matrix_gen</text>
</a>
</g>
</g>
<!-- Node10&#45;&gt;Node11 -->
<g id="edge7" class="edge"><title>Node10&#45;&gt;Node11</title>
<path fill="none" stroke="midnightblue" d="M249.32,-53.6339C267.402,-53.526 286.989,-53.409 304.359,-53.3053"/>
<polygon fill="midnightblue" stroke="midnightblue" points="249.145,-50.1348 239.166,-53.6945 249.186,-57.1347 249.145,-50.1348"/>
</g>
<!-- Node11&#45;&gt;Node7 -->
<g id="edge14" class="edge"><title>Node11&#45;&gt;Node7</title>
<path fill="none" stroke="midnightblue" d="M414.754,-64.5832C436.979,-69.0795 462.123,-74.1665 483.284,-78.4477"/>
<polygon fill="midnightblue" stroke="midnightblue" points="415.268,-61.1164 404.773,-62.5639 413.88,-67.9774 415.268,-61.1164"/>
</g>
<!-- Node12 -->
<g id="node9" class="node"><title>Node12</title>
<g id="a_node9"><a xlink:href="../../d6/da2/nanorq_8h_ad6a9288685637cdfe83303f66b087a29.html#ad6a9288685637cdfe83303f66b087a29" target="_top" xlink:title="nanorq_generate_symbols">
<polygon fill="none" stroke="black" points="466,-39.5 466,-58.5 597,-58.5 597,-39.5 466,-39.5"/>
<text text-anchor="middle" x="531.5" y="-46.5" font-family="Helvetica,sans-Serif" font-size="10.00">nanorq_generate_symbols</text>
</a>
</g>
</g>
<!-- Node11&#45;&gt;Node12 -->
<g id="edge8" class="edge"><title>Node11&#45;&gt;Node12</title>
<path fill="none" stroke="midnightblue" d="M419.193,-51.5736C434.297,-51.2243 450.504,-50.8496 465.748,-50.4972"/>
<polygon fill="midnightblue" stroke="midnightblue" points="418.854,-48.0804 408.937,-51.8107 419.016,-55.0785 418.854,-48.0804"/>
</g>
<!-- Node13 -->
<g id="node10" class="node"><title>Node13</title>
<g id="a_node10"><a xlink:href="../../dd/d3f/encode_8c_a3c04138a5bfe5d72780bb7e82a18e627.html#a3c04138a5bfe5d72780bb7e82a18e627" target="_top" xlink:title="main">
<polygon fill="none" stroke="black" points="980,-20.5 980,-39.5 1018,-39.5 1018,-20.5 980,-20.5"/>
<text text-anchor="middle" x="999" y="-27.5" font-family="Helvetica,sans-Serif" font-size="10.00">main</text>
</a>
</g>
</g>
<!-- Node12&#45;&gt;Node13 -->
<g id="edge9" class="edge"><title>Node12&#45;&gt;Node13</title>
<path fill="none" stroke="midnightblue" d="M607.304,-45.9468C717.794,-41.437 918.186,-33.2577 979.608,-30.7507"/>
<polygon fill="midnightblue" stroke="midnightblue" points="607.075,-42.4531 597.226,-46.3581 607.36,-49.4473 607.075,-42.4531"/>
</g>
<!-- Node14 -->
<g id="node11" class="node"><title>Node14</title>
<g id="a_node11"><a xlink:href="../../d6/da2/nanorq_8h_a956615eb4ea3ce34369951295e93f708.html#a956615eb4ea3ce34369951295e93f708" target="_top" xlink:title="nanorq_encode">
<polygon fill="none" stroke="black" points="647,-1.5 647,-20.5 730,-20.5 730,-1.5 647,-1.5"/>
<text text-anchor="middle" x="688.5" y="-8.5" font-family="Helvetica,sans-Serif" font-size="10.00">nanorq_encode</text>
</a>
</g>
</g>
<!-- Node12&#45;&gt;Node14 -->
<g id="edge10" class="edge"><title>Node12&#45;&gt;Node14</title>
<path fill="none" stroke="midnightblue" d="M581.611,-36.96C603.265,-31.6512 628.35,-25.5012 648.668,-20.5201"/>
<polygon fill="midnightblue" stroke="midnightblue" points="580.492,-33.6305 571.613,-39.411 582.159,-40.4292 580.492,-33.6305"/>
</g>
<!-- Node15 -->
<g id="node12" class="node"><title>Node15</title>
<g id="a_node12"><a xlink:href="../../dd/d3f/encode_8c_a0993cb61d7e4c1b1a1606d159f5b1410.html#a0993cb61d7e4c1b1a1606d159f5b1410" target="_top" xlink:title="dump_esi">
<polygon fill="none" stroke="black" points="780,-1.5 780,-20.5 839,-20.5 839,-1.5 780,-1.5"/>
<text text-anchor="middle" x="809.5" y="-8.5" font-family="Helvetica,sans-Serif" font-size="10.00">dump_esi</text>
</a>
</g>
</g>
<!-- Node14&#45;&gt;Node15 -->
<g id="edge11" class="edge"><title>Node14&#45;&gt;Node15</title>
<path fill="none" stroke="midnightblue" d="M740.263,-11C753.744,-11 767.838,-11 779.692,-11"/>
<polygon fill="midnightblue" stroke="midnightblue" points="740.12,-7.5001 730.12,-11 740.12,-14.5001 740.12,-7.5001"/>
</g>
<!-- Node16 -->
<g id="node13" class="node"><title>Node16</title>
<g id="a_node13"><a xlink:href="../../dd/d3f/encode_8c_ae7f8bbf4dcea92f802d2521fa0264f93.html#ae7f8bbf4dcea92f802d2521fa0264f93" target="_top" xlink:title="dump_block">
<polygon fill="none" stroke="black" points="875,-1.5 875,-20.5 944,-20.5 944,-1.5 875,-1.5"/>
<text text-anchor="middle" x="909.5" y="-8.5" font-family="Helvetica,sans-Serif" font-size="10.00">dump_block</text>
</a>
</g>
</g>
<!-- Node15&#45;&gt;Node16 -->
<g id="edge12" class="edge"><title>Node15&#45;&gt;Node16</title>
<path fill="none" stroke="midnightblue" d="M849.17,-11C857.653,-11 866.569,-11 874.837,-11"/>
<polygon fill="midnightblue" stroke="midnightblue" points="849.109,-7.5001 839.109,-11 849.109,-14.5001 849.109,-7.5001"/>
</g>
<!-- Node16&#45;&gt;Node13 -->
<g id="edge13" class="edge"><title>Node16&#45;&gt;Node13</title>
<path fill="none" stroke="midnightblue" d="M953.916,-20.4275C963.058,-22.4126 972.22,-24.402 979.804,-26.0488"/>
<polygon fill="midnightblue" stroke="midnightblue" points="954.595,-16.9933 944.08,-18.2916 953.109,-23.8339 954.595,-16.9933"/>
</g>
<!-- Node17&#45;&gt;Node6 -->
<g id="edge17" class="edge"><title>Node17&#45;&gt;Node6</title>
<path fill="none" stroke="midnightblue" d="M237.606,-23.6188C240.888,-25.2285 244.054,-27.0164 247,-29 267.674,-42.9221 261.95,-58.6541 283,-72 289.154,-75.9016 296.085,-79.0055 303.158,-81.4739"/>
<polygon fill="midnightblue" stroke="midnightblue" points="238.71,-20.2833 228.141,-19.5396 235.939,-26.7117 238.71,-20.2833"/>
</g>
<!-- Node17&#45;&gt;Node14 -->
<g id="edge16" class="edge"><title>Node17&#45;&gt;Node14</title>
<path fill="none" stroke="midnightblue" d="M257.514,-10.1392C363.302,-10.351 561.398,-10.7475 646.708,-10.9183"/>
<polygon fill="midnightblue" stroke="midnightblue" points="257.268,-6.63876 247.261,-10.1186 257.254,-13.6388 257.268,-6.63876"/>
</g>
</g>
</svg>
