<?xml version="1.0" encoding="UTF-8" standalone="no"?>
<!DOCTYPE svg PUBLIC "-//W3C//DTD SVG 1.1//EN"
 "http://www.w3.org/Graphics/SVG/1.1/DTD/svg11.dtd">
<!-- Generated by graphviz version 2.38.0 (20140413.2041)
 -->
<!-- Title: fileio_size Pages: 1 -->
<svg width="258pt" height="28pt"
 viewBox="0.00 0.00 258.00 28.00" xmlns="http://www.w3.org/2000/svg" xmlns:xlink="http://www.w3.org/1999/xlink">
<g id="graph0" class="graph" transform="scale(1 1) rotate(0) translate(4 24)">
<title>fileio_size</title>
<!-- Node1 -->
<g id="node1" class="node"><title>Node1</title>
<polygon fill="#bfbfbf" stroke="black" points="0,-0.5 0,-19.5 60,-19.5 60,-0.5 0,-0.5"/>
<text text-anchor="middle" x="30" y="-7.5" font-family="Helvetica,sans-Serif" font-size="10.00">fileio_size</text>
</g>
<!-- Node2 -->
<g id="node2" class="node"><title>Node2</title>
<g id="a_node2"><a xlink:href="../../dc/dac/io_8h_a32215e78dd8a449ad2242009fb4dfa93.html#a32215e78dd8a449ad2242009fb4dfa93" target="_top" xlink:title="ioctx_from_file">
<polygon fill="none" stroke="black" points="96,-0.5 96,-19.5 176,-19.5 176,-0.5 96,-0.5"/>
<text text-anchor="middle" x="136" y="-7.5" font-family="Helvetica,sans-Serif" font-size="10.00">ioctx_from_file</text>
</a>
</g>
</g>
<!-- Node1&#45;&gt;Node2 -->
<g id="edge1" class="edge"><title>Node1&#45;&gt;Node2</title>
<path fill="none" stroke="midnightblue" d="M70.4744,-10C78.796,-10 87.5727,-10 95.8812,-10"/>
<polygon fill="midnightblue" stroke="midnightblue" points="70.2466,-6.5001 60.2466,-10 70.2465,-13.5001 70.2466,-6.5001"/>
</g>
<!-- Node3 -->
<g id="node3" class="node"><title>Node3</title>
<g id="a_node3"><a xlink:href="../../da/d0d/decode_8c_a3c04138a5bfe5d72780bb7e82a18e627.html#a3c04138a5bfe5d72780bb7e82a18e627" target="_top" xlink:title="main">
<polygon fill="none" stroke="black" points="212,-0.5 212,-19.5 250,-19.5 250,-0.5 212,-0.5"/>
<text text-anchor="middle" x="231" y="-7.5" font-family="Helvetica,sans-Serif" font-size="10.00">main</text>
</a>
</g>
</g>
<!-- Node2&#45;&gt;Node3 -->
<g id="edge2" class="edge"><title>Node2&#45;&gt;Node3</title>
<path fill="none" stroke="midnightblue" d="M186.354,-10C195.385,-10 204.271,-10 211.644,-10"/>
<polygon fill="midnightblue" stroke="midnightblue" points="186.171,-6.5001 176.171,-10 186.171,-13.5001 186.171,-6.5001"/>
</g>
</g>
</svg>
