<?xml version="1.0" encoding="UTF-8" standalone="no"?>
<!DOCTYPE svg PUBLIC "-//W3C//DTD SVG 1.1//EN"
 "http://www.w3.org/Graphics/SVG/1.1/DTD/svg11.dtd">
<!-- Generated by graphviz version 2.38.0 (20140413.2041)
 -->
<!-- Title: oblas/octmat.h Pages: 1 -->
<svg width="586pt" height="84pt"
 viewBox="0.00 0.00 586.00 84.00" xmlns="http://www.w3.org/2000/svg" xmlns:xlink="http://www.w3.org/1999/xlink">
<g id="graph0" class="graph" transform="scale(1 1) rotate(0) translate(4 80)">
<title>oblas/octmat.h</title>
<!-- Node1 -->
<g id="node1" class="node"><title>Node1</title>
<polygon fill="#bfbfbf" stroke="black" points="231,-56.5 231,-75.5 312,-75.5 312,-56.5 231,-56.5"/>
<text text-anchor="middle" x="271.5" y="-63.5" font-family="Helvetica,sans-Serif" font-size="10.00">oblas/octmat.h</text>
</g>
<!-- Node2 -->
<g id="node2" class="node"><title>Node2</title>
<g id="a_node2"><a xlink:href="../../da/d1f/chooser_8c.html" target="_top" xlink:title="chooser.c">
<polygon fill="none" stroke="black" points="0,-0.5 0,-19.5 59,-19.5 59,-0.5 0,-0.5"/>
<text text-anchor="middle" x="29.5" y="-7.5" font-family="Helvetica,sans-Serif" font-size="10.00">chooser.c</text>
</a>
</g>
</g>
<!-- Node1&#45;&gt;Node2 -->
<g id="edge1" class="edge"><title>Node1&#45;&gt;Node2</title>
<path fill="none" stroke="midnightblue" d="M222.15,-54.3375C180.805,-45.3507 120.249,-32.0638 67.5,-20 64.8564,-19.3954 62.1111,-18.76 59.3606,-18.1182"/>
<polygon fill="midnightblue" stroke="midnightblue" points="221.455,-57.7681 231.97,-56.4696 222.941,-50.9275 221.455,-57.7681"/>
</g>
<!-- Node3 -->
<g id="node3" class="node"><title>Node3</title>
<g id="a_node3"><a xlink:href="../../d1/d2a/graph_8c.html" target="_top" xlink:title="graph.c">
<polygon fill="none" stroke="black" points="77,-0.5 77,-19.5 126,-19.5 126,-0.5 77,-0.5"/>
<text text-anchor="middle" x="101.5" y="-7.5" font-family="Helvetica,sans-Serif" font-size="10.00">graph.c</text>
</a>
</g>
</g>
<!-- Node1&#45;&gt;Node3 -->
<g id="edge2" class="edge"><title>Node1&#45;&gt;Node3</title>
<path fill="none" stroke="midnightblue" d="M234.862,-53.3619C201.986,-42.9192 154.646,-27.8818 126.103,-18.8151"/>
<polygon fill="midnightblue" stroke="midnightblue" points="233.973,-56.7518 244.563,-56.4435 236.092,-50.0803 233.973,-56.7518"/>
</g>
<!-- Node4 -->
<g id="node4" class="node"><title>Node4</title>
<g id="a_node4"><a xlink:href="../../d1/d0b/nanorq_8c.html" target="_top" xlink:title="nanorq.c">
<polygon fill="none" stroke="black" points="144.5,-0.5 144.5,-19.5 198.5,-19.5 198.5,-0.5 144.5,-0.5"/>
<text text-anchor="middle" x="171.5" y="-7.5" font-family="Helvetica,sans-Serif" font-size="10.00">nanorq.c</text>
</a>
</g>
</g>
<!-- Node1&#45;&gt;Node4 -->
<g id="edge3" class="edge"><title>Node1&#45;&gt;Node4</title>
<path fill="none" stroke="midnightblue" d="M246.412,-51.4526C227.951,-41.4835 203.403,-28.2279 187.527,-19.6545"/>
<polygon fill="midnightblue" stroke="midnightblue" points="244.971,-54.6521 255.433,-56.324 248.297,-48.4928 244.971,-54.6521"/>
</g>
<!-- Node5 -->
<g id="node5" class="node"><title>Node5</title>
<g id="a_node5"><a xlink:href="../../d9/df6/oblas__classic_8c.html" target="_top" xlink:title="oblas/oblas_classic.c">
<polygon fill="none" stroke="black" points="216.5,-0.5 216.5,-19.5 326.5,-19.5 326.5,-0.5 216.5,-0.5"/>
<text text-anchor="middle" x="271.5" y="-7.5" font-family="Helvetica,sans-Serif" font-size="10.00">oblas/oblas_classic.c</text>
</a>
</g>
</g>
<!-- Node1&#45;&gt;Node5 -->
<g id="edge4" class="edge"><title>Node1&#45;&gt;Node5</title>
<path fill="none" stroke="midnightblue" d="M271.5,-45.8045C271.5,-36.9102 271.5,-26.7798 271.5,-19.7511"/>
<polygon fill="midnightblue" stroke="midnightblue" points="268,-46.083 271.5,-56.083 275,-46.083 268,-46.083"/>
</g>
<!-- Node6 -->
<g id="node6" class="node"><title>Node6</title>
<g id="a_node6"><a xlink:href="../../d2/dd1/octmat_8c.html" target="_top" xlink:title="oblas/octmat.c">
<polygon fill="none" stroke="black" points="345,-0.5 345,-19.5 426,-19.5 426,-0.5 345,-0.5"/>
<text text-anchor="middle" x="385.5" y="-7.5" font-family="Helvetica,sans-Serif" font-size="10.00">oblas/octmat.c</text>
</a>
</g>
</g>
<!-- Node1&#45;&gt;Node6 -->
<g id="edge5" class="edge"><title>Node1&#45;&gt;Node6</title>
<path fill="none" stroke="midnightblue" d="M298.742,-52.096C320.04,-42.0073 349.042,-28.2697 367.521,-19.5164"/>
<polygon fill="midnightblue" stroke="midnightblue" points="297.103,-48.9995 289.564,-56.4435 300.099,-55.3257 297.103,-48.9995"/>
</g>
<!-- Node7 -->
<g id="node7" class="node"><title>Node7</title>
<g id="a_node7"><a xlink:href="../../da/de3/params_8c.html" target="_top" xlink:title="params.c">
<polygon fill="none" stroke="black" points="444,-0.5 444,-19.5 501,-19.5 501,-0.5 444,-0.5"/>
<text text-anchor="middle" x="472.5" y="-7.5" font-family="Helvetica,sans-Serif" font-size="10.00">params.c</text>
</a>
</g>
</g>
<!-- Node1&#45;&gt;Node7 -->
<g id="edge6" class="edge"><title>Node1&#45;&gt;Node7</title>
<path fill="none" stroke="midnightblue" d="M313.35,-53.7566C352.39,-43.2685 409.591,-27.9008 443.731,-18.729"/>
<polygon fill="midnightblue" stroke="midnightblue" points="312.098,-50.4688 303.349,-56.4435 313.915,-57.229 312.098,-50.4688"/>
</g>
<!-- Node8 -->
<g id="node8" class="node"><title>Node8</title>
<g id="a_node8"><a xlink:href="../../d6/d1a/precode_8c.html" target="_top" xlink:title="precode.c">
<polygon fill="none" stroke="black" points="519,-0.5 519,-19.5 578,-19.5 578,-0.5 519,-0.5"/>
<text text-anchor="middle" x="548.5" y="-7.5" font-family="Helvetica,sans-Serif" font-size="10.00">precode.c</text>
</a>
</g>
</g>
<!-- Node1&#45;&gt;Node8 -->
<g id="edge7" class="edge"><title>Node1&#45;&gt;Node8</title>
<path fill="none" stroke="midnightblue" d="M322.137,-56.1702C370.607,-47.5519 445.723,-33.7615 510.5,-20 513.153,-19.4365 515.904,-18.8293 518.659,-18.2059"/>
<polygon fill="midnightblue" stroke="midnightblue" points="321.447,-52.7378 312.211,-57.9289 322.669,-59.6304 321.447,-52.7378"/>
</g>
</g>
</svg>
