<?xml version="1.0" encoding="UTF-8" standalone="no"?>
<!DOCTYPE svg PUBLIC "-//W3C//DTD SVG 1.1//EN"
 "http://www.w3.org/Graphics/SVG/1.1/DTD/svg11.dtd">
<!-- Generated by graphviz version 2.38.0 (20140413.2041)
 -->
<!-- Title: ogemm Pages: 1 -->
<svg width="225pt" height="66pt"
 viewBox="0.00 0.00 225.00 66.00" xmlns="http://www.w3.org/2000/svg" xmlns:xlink="http://www.w3.org/1999/xlink">
<g id="graph0" class="graph" transform="scale(1 1) rotate(0) translate(4 62)">
<title>ogemm</title>
<!-- Node0 -->
<g id="node1" class="node"><title>Node0</title>
<polygon fill="#bfbfbf" stroke="black" points="0,-19.5 0,-38.5 49,-38.5 49,-19.5 0,-19.5"/>
<text text-anchor="middle" x="24.5" y="-26.5" font-family="Helvetica,sans-Serif" font-size="10.00">ogemm</text>
</g>
<!-- Node1 -->
<g id="node2" class="node"><title>Node1</title>
<g id="a_node2"><a xlink:href="../../d9/df6/oblas__classic_8c_a95d88cdc6582b4ba84db297cbb28dc94.html#a95d88cdc6582b4ba84db297cbb28dc94" target="_top" xlink:title="oaxpy">
<polygon fill="none" stroke="black" points="85,-38.5 85,-57.5 128,-57.5 128,-38.5 85,-38.5"/>
<text text-anchor="middle" x="106.5" y="-45.5" font-family="Helvetica,sans-Serif" font-size="10.00">oaxpy</text>
</a>
</g>
</g>
<!-- Node0&#45;&gt;Node1 -->
<g id="edge1" class="edge"><title>Node0&#45;&gt;Node1</title>
<path fill="none" stroke="midnightblue" d="M49.0699,-34.5979C57.1306,-36.5123 66.2687,-38.6826 74.8077,-40.7106"/>
<polygon fill="midnightblue" stroke="midnightblue" points="74.2753,-44.1814 84.8135,-43.087 75.8929,-37.3709 74.2753,-44.1814"/>
</g>
<!-- Node3 -->
<g id="node4" class="node"><title>Node3</title>
<g id="a_node4"><a xlink:href="../../d9/df6/oblas__classic_8c_a1185f4074fc7932ed79a6f216203f2c4.html#a1185f4074fc7932ed79a6f216203f2c4" target="_top" xlink:title="ozero">
<polygon fill="none" stroke="black" points="86,-0.5 86,-19.5 127,-19.5 127,-0.5 86,-0.5"/>
<text text-anchor="middle" x="106.5" y="-7.5" font-family="Helvetica,sans-Serif" font-size="10.00">ozero</text>
</a>
</g>
</g>
<!-- Node0&#45;&gt;Node3 -->
<g id="edge3" class="edge"><title>Node0&#45;&gt;Node3</title>
<path fill="none" stroke="midnightblue" d="M49.0699,-23.4021C57.4842,-21.4037 67.0725,-19.1265 75.9278,-17.0234"/>
<polygon fill="midnightblue" stroke="midnightblue" points="76.9516,-20.3777 85.8722,-14.6616 75.334,-13.5671 76.9516,-20.3777"/>
</g>
<!-- Node2 -->
<g id="node3" class="node"><title>Node2</title>
<g id="a_node3"><a xlink:href="../../d9/df6/oblas__classic_8c_a5b42e539d80b0285eb6915350e4b7917.html#a5b42e539d80b0285eb6915350e4b7917" target="_top" xlink:title="oaddrow">
<polygon fill="none" stroke="black" points="164,-38.5 164,-57.5 217,-57.5 217,-38.5 164,-38.5"/>
<text text-anchor="middle" x="190.5" y="-45.5" font-family="Helvetica,sans-Serif" font-size="10.00">oaddrow</text>
</a>
</g>
</g>
<!-- Node1&#45;&gt;Node2 -->
<g id="edge2" class="edge"><title>Node1&#45;&gt;Node2</title>
<path fill="none" stroke="midnightblue" d="M128.192,-48C135.967,-48 145.046,-48 153.797,-48"/>
<polygon fill="midnightblue" stroke="midnightblue" points="153.822,-51.5001 163.822,-48 153.822,-44.5001 153.822,-51.5001"/>
</g>
</g>
</svg>
