<?xml version="1.0" encoding="UTF-8" standalone="no"?>
<!DOCTYPE svg PUBLIC "-//W3C//DTD SVG 1.1//EN"
 "http://www.w3.org/Graphics/SVG/1.1/DTD/svg11.dtd">
<!-- Generated by graphviz version 2.38.0 (20140413.2041)
 -->
<!-- Title: nanorq_decode_cleanup Pages: 1 -->
<svg width="239pt" height="66pt"
 viewBox="0.00 0.00 239.00 66.00" xmlns="http://www.w3.org/2000/svg" xmlns:xlink="http://www.w3.org/1999/xlink">
<g id="graph0" class="graph" transform="scale(1 1) rotate(0) translate(4 62)">
<title>nanorq_decode_cleanup</title>
<!-- Node0 -->
<g id="node1" class="node"><title>Node0</title>
<polygon fill="#bfbfbf" stroke="black" points="0,-19.5 0,-38.5 122,-38.5 122,-19.5 0,-19.5"/>
<text text-anchor="middle" x="61" y="-26.5" font-family="Helvetica,sans-Serif" font-size="10.00">nanorq_decode_cleanup</text>
</g>
<!-- Node1 -->
<g id="node2" class="node"><title>Node1</title>
<g id="a_node2"><a xlink:href="../../d6/d74/bitmask_8c_a4486db4fb9c5530dc5131eacdb0114ae.html#a4486db4fb9c5530dc5131eacdb0114ae" target="_top" xlink:title="bitmask_free">
<polygon fill="none" stroke="black" points="158,-38.5 158,-57.5 231,-57.5 231,-38.5 158,-38.5"/>
<text text-anchor="middle" x="194.5" y="-45.5" font-family="Helvetica,sans-Serif" font-size="10.00">bitmask_free</text>
</a>
</g>
</g>
<!-- Node0&#45;&gt;Node1 -->
<g id="edge1" class="edge"><title>Node0&#45;&gt;Node1</title>
<path fill="none" stroke="midnightblue" d="M122.362,-37.7215C130.907,-38.9562 139.574,-40.2085 147.782,-41.3943"/>
<polygon fill="midnightblue" stroke="midnightblue" points="147.489,-44.8883 157.887,-42.8544 148.49,-37.9603 147.489,-44.8883"/>
</g>
<!-- Node2 -->
<g id="node3" class="node"><title>Node2</title>
<g id="a_node3"><a xlink:href="../../d2/dd1/octmat_8c_ac7854c0635a9441a5a352f95dbbd7bbd.html#ac7854c0635a9441a5a352f95dbbd7bbd" target="_top" xlink:title="om_destroy">
<polygon fill="none" stroke="black" points="160.5,-0.5 160.5,-19.5 228.5,-19.5 228.5,-0.5 160.5,-0.5"/>
<text text-anchor="middle" x="194.5" y="-7.5" font-family="Helvetica,sans-Serif" font-size="10.00">om_destroy</text>
</a>
</g>
</g>
<!-- Node0&#45;&gt;Node2 -->
<g id="edge2" class="edge"><title>Node0&#45;&gt;Node2</title>
<path fill="none" stroke="midnightblue" d="M122.362,-20.2785C131.776,-18.9182 141.339,-17.5365 150.271,-16.246"/>
<polygon fill="midnightblue" stroke="midnightblue" points="151.024,-19.6737 160.42,-14.7796 150.023,-12.7456 151.024,-19.6737"/>
</g>
</g>
</svg>
