<?xml version="1.0" encoding="UTF-8" standalone="no"?>
<!DOCTYPE svg PUBLIC "-//W3C//DTD SVG 1.1//EN"
 "http://www.w3.org/Graphics/SVG/1.1/DTD/svg11.dtd">
<!-- Generated by graphviz version 2.38.0 (20140413.2041)
 -->
<!-- Title: nanorq_blocks Pages: 1 -->
<svg width="266pt" height="47pt"
 viewBox="0.00 0.00 266.00 47.00" xmlns="http://www.w3.org/2000/svg" xmlns:xlink="http://www.w3.org/1999/xlink">
<g id="graph0" class="graph" transform="scale(1 1) rotate(0) translate(4 43)">
<title>nanorq_blocks</title>
<!-- Node1 -->
<g id="node1" class="node"><title>Node1</title>
<polygon fill="#bfbfbf" stroke="black" points="0,-19.5 0,-38.5 80,-38.5 80,-19.5 0,-19.5"/>
<text text-anchor="middle" x="40" y="-26.5" font-family="Helvetica,sans-Serif" font-size="10.00">nanorq_blocks</text>
</g>
<!-- Node2 -->
<g id="node2" class="node"><title>Node2</title>
<g id="a_node2"><a xlink:href="../../da/d0d/decode_8c_a3c04138a5bfe5d72780bb7e82a18e627.html#a3c04138a5bfe5d72780bb7e82a18e627" target="_top" xlink:title="main">
<polygon fill="none" stroke="black" points="220,-19.5 220,-38.5 258,-38.5 258,-19.5 220,-19.5"/>
<text text-anchor="middle" x="239" y="-26.5" font-family="Helvetica,sans-Serif" font-size="10.00">main</text>
</a>
</g>
</g>
<!-- Node1&#45;&gt;Node2 -->
<g id="edge1" class="edge"><title>Node1&#45;&gt;Node2</title>
<path fill="none" stroke="midnightblue" d="M90.4705,-29C132.643,-29 190.912,-29 219.986,-29"/>
<polygon fill="midnightblue" stroke="midnightblue" points="90.3924,-25.5001 80.3924,-29 90.3924,-32.5001 90.3924,-25.5001"/>
</g>
<!-- Node3 -->
<g id="node3" class="node"><title>Node3</title>
<g id="a_node3"><a xlink:href="../../d6/da2/nanorq_8h_aa9e53dbae07d172696c2ab8a56ffa150.html#aa9e53dbae07d172696c2ab8a56ffa150" target="_top" xlink:title="nanorq_free">
<polygon fill="none" stroke="black" points="116,-0.5 116,-19.5 184,-19.5 184,-0.5 116,-0.5"/>
<text text-anchor="middle" x="150" y="-7.5" font-family="Helvetica,sans-Serif" font-size="10.00">nanorq_free</text>
</a>
</g>
</g>
<!-- Node1&#45;&gt;Node3 -->
<g id="edge2" class="edge"><title>Node1&#45;&gt;Node3</title>
<path fill="none" stroke="midnightblue" d="M90.3508,-20.3179C99.0252,-18.7919 107.861,-17.2375 115.953,-15.8138"/>
<polygon fill="midnightblue" stroke="midnightblue" points="89.5383,-16.907 80.296,-22.0868 90.7512,-23.8011 89.5383,-16.907"/>
</g>
<!-- Node3&#45;&gt;Node2 -->
<g id="edge3" class="edge"><title>Node3&#45;&gt;Node2</title>
<path fill="none" stroke="midnightblue" d="M194.168,-19.4275C203.258,-21.4126 212.367,-23.402 219.908,-25.0488"/>
<polygon fill="midnightblue" stroke="midnightblue" points="194.904,-16.0058 184.388,-17.2916 193.411,-22.8447 194.904,-16.0058"/>
</g>
</g>
</svg>
