<?xml version="1.0" encoding="UTF-8" standalone="no"?>
<!DOCTYPE svg PUBLIC "-//W3C//DTD SVG 1.1//EN"
 "http://www.w3.org/Graphics/SVG/1.1/DTD/svg11.dtd">
<!-- Generated by graphviz version 2.38.0 (20140413.2041)
 -->
<!-- Title: nanorq_encoder_new Pages: 1 -->
<svg width="264pt" height="66pt"
 viewBox="0.00 0.00 264.00 66.00" xmlns="http://www.w3.org/2000/svg" xmlns:xlink="http://www.w3.org/1999/xlink">
<g id="graph0" class="graph" transform="scale(1 1) rotate(0) translate(4 62)">
<title>nanorq_encoder_new</title>
<!-- Node0 -->
<g id="node1" class="node"><title>Node0</title>
<polygon fill="#bfbfbf" stroke="black" points="0,-19.5 0,-38.5 109,-38.5 109,-19.5 0,-19.5"/>
<text text-anchor="middle" x="54.5" y="-26.5" font-family="Helvetica,sans-Serif" font-size="10.00">nanorq_encoder_new</text>
</g>
<!-- Node1 -->
<g id="node2" class="node"><title>Node1</title>
<g id="a_node2"><a xlink:href="../../d1/d0b/nanorq_8c_ad727bd781d5c718f3bc1513698f98011.html#ad727bd781d5c718f3bc1513698f98011" target="_top" xlink:title="fill_partition">
<polygon fill="none" stroke="black" points="167.5,-38.5 167.5,-57.5 233.5,-57.5 233.5,-38.5 167.5,-38.5"/>
<text text-anchor="middle" x="200.5" y="-45.5" font-family="Helvetica,sans-Serif" font-size="10.00">fill_partition</text>
</a>
</g>
</g>
<!-- Node0&#45;&gt;Node1 -->
<g id="edge1" class="edge"><title>Node0&#45;&gt;Node1</title>
<path fill="none" stroke="midnightblue" d="M109.12,-36.0749C124.973,-38.1666 142.1,-40.4264 157.137,-42.4104"/>
<polygon fill="midnightblue" stroke="midnightblue" points="156.8,-45.8963 167.172,-43.7345 157.716,-38.9564 156.8,-45.8963"/>
</g>
<!-- Node2 -->
<g id="node3" class="node"><title>Node2</title>
<g id="a_node3"><a xlink:href="../../d1/d0b/nanorq_8c_ab1a16ff2c87209a49cea3ec8af98d5ed.html#ab1a16ff2c87209a49cea3ec8af98d5ed" target="_top" xlink:title="gen_scheme_specific">
<polygon fill="none" stroke="black" points="145,-0.5 145,-19.5 256,-19.5 256,-0.5 145,-0.5"/>
<text text-anchor="middle" x="200.5" y="-7.5" font-family="Helvetica,sans-Serif" font-size="10.00">gen_scheme_specific</text>
</a>
</g>
</g>
<!-- Node0&#45;&gt;Node2 -->
<g id="edge2" class="edge"><title>Node0&#45;&gt;Node2</title>
<path fill="none" stroke="midnightblue" d="M109.12,-21.9251C117.511,-20.8179 126.26,-19.6637 134.866,-18.5281"/>
<polygon fill="midnightblue" stroke="midnightblue" points="135.417,-21.9858 144.874,-17.2076 134.502,-15.0459 135.417,-21.9858"/>
</g>
</g>
</svg>
