<?xml version="1.0" encoding="UTF-8" standalone="no"?>
<!DOCTYPE svg PUBLIC "-//W3C//DTD SVG 1.1//EN"
 "http://www.w3.org/Graphics/SVG/1.1/DTD/svg11.dtd">
<!-- Generated by graphviz version 2.38.0 (20140413.2041)
 -->
<!-- Title: chooser.c Pages: 1 -->
<svg width="1098pt" height="84pt"
 viewBox="0.00 0.00 1098.00 84.00" xmlns="http://www.w3.org/2000/svg" xmlns:xlink="http://www.w3.org/1999/xlink">
<g id="graph0" class="graph" transform="scale(1 1) rotate(0) translate(4 80)">
<title>chooser.c</title>
<!-- Node0 -->
<g id="node1" class="node"><title>Node0</title>
<polygon fill="#bfbfbf" stroke="black" points="500,-56.5 500,-75.5 559,-75.5 559,-56.5 500,-56.5"/>
<text text-anchor="middle" x="529.5" y="-63.5" font-family="Helvetica,sans-Serif" font-size="10.00">chooser.c</text>
</g>
<!-- Node1 -->
<g id="node2" class="node"><title>Node1</title>
<polygon fill="none" stroke="#bfbfbf" points="0,-0.5 0,-19.5 49,-19.5 49,-0.5 0,-0.5"/>
<text text-anchor="middle" x="24.5" y="-7.5" font-family="Helvetica,sans-Serif" font-size="10.00">stdint.h</text>
</g>
<!-- Node0&#45;&gt;Node1 -->
<g id="edge1" class="edge"><title>Node0&#45;&gt;Node1</title>
<path fill="none" stroke="midnightblue" d="M499.787,-63.8486C426.517,-60.652 231.282,-49.9616 59.268,-19.8363"/>
<polygon fill="midnightblue" stroke="midnightblue" points="59.7359,-16.3647 49.2776,-18.0598 58.5104,-23.2566 59.7359,-16.3647"/>
</g>
<!-- Node2 -->
<g id="node3" class="node"><title>Node2</title>
<polygon fill="none" stroke="#bfbfbf" points="67.5,-0.5 67.5,-19.5 113.5,-19.5 113.5,-0.5 67.5,-0.5"/>
<text text-anchor="middle" x="90.5" y="-7.5" font-family="Helvetica,sans-Serif" font-size="10.00">stdio.h</text>
</g>
<!-- Node0&#45;&gt;Node2 -->
<g id="edge2" class="edge"><title>Node0&#45;&gt;Node2</title>
<path fill="none" stroke="midnightblue" d="M499.882,-63.3949C433.913,-59.4652 269.831,-47.7286 123.845,-19.9725"/>
<polygon fill="midnightblue" stroke="midnightblue" points="124.295,-16.4947 113.813,-18.0337 122.967,-23.3675 124.295,-16.4947"/>
</g>
<!-- Node3 -->
<g id="node4" class="node"><title>Node3</title>
<polygon fill="none" stroke="#bfbfbf" points="131.5,-0.5 131.5,-19.5 187.5,-19.5 187.5,-0.5 131.5,-0.5"/>
<text text-anchor="middle" x="159.5" y="-7.5" font-family="Helvetica,sans-Serif" font-size="10.00">stdbool.h</text>
</g>
<!-- Node0&#45;&gt;Node3 -->
<g id="edge3" class="edge"><title>Node0&#45;&gt;Node3</title>
<path fill="none" stroke="midnightblue" d="M499.934,-62.0521C443.199,-56.1707 314.98,-41.7962 197.589,-20.0369"/>
<polygon fill="midnightblue" stroke="midnightblue" points="198.19,-16.5887 187.716,-18.1843 196.899,-23.4686 198.19,-16.5887"/>
</g>
<!-- Node4 -->
<g id="node5" class="node"><title>Node4</title>
<polygon fill="none" stroke="#bfbfbf" points="205.5,-0.5 205.5,-19.5 253.5,-19.5 253.5,-0.5 205.5,-0.5"/>
<text text-anchor="middle" x="229.5" y="-7.5" font-family="Helvetica,sans-Serif" font-size="10.00">stdlib.h</text>
</g>
<!-- Node0&#45;&gt;Node4 -->
<g id="edge4" class="edge"><title>Node0&#45;&gt;Node4</title>
<path fill="none" stroke="midnightblue" d="M499.682,-60.9613C451.887,-54.2754 355.016,-39.8529 263.556,-20.0505"/>
<polygon fill="midnightblue" stroke="midnightblue" points="264.1,-16.5867 253.582,-17.8645 262.601,-23.4244 264.1,-16.5867"/>
</g>
<!-- Node5 -->
<g id="node6" class="node"><title>Node5</title>
<polygon fill="none" stroke="#bfbfbf" points="271.5,-0.5 271.5,-19.5 331.5,-19.5 331.5,-0.5 271.5,-0.5"/>
<text text-anchor="middle" x="301.5" y="-7.5" font-family="Helvetica,sans-Serif" font-size="10.00">memory.h</text>
</g>
<!-- Node0&#45;&gt;Node5 -->
<g id="edge5" class="edge"><title>Node0&#45;&gt;Node5</title>
<path fill="none" stroke="midnightblue" d="M499.693,-57.9404C459.182,-48.3456 386.621,-31.1601 341.434,-20.4581"/>
<polygon fill="midnightblue" stroke="midnightblue" points="342.215,-17.0462 331.677,-18.1473 340.601,-23.8578 342.215,-17.0462"/>
</g>
<!-- Node6 -->
<g id="node7" class="node"><title>Node6</title>
<g id="a_node7"><a xlink:href="../../dc/dac/io_8h.html" target="_top" xlink:title="io.h">
<polygon fill="none" stroke="black" points="349.5,-0.5 349.5,-19.5 381.5,-19.5 381.5,-0.5 349.5,-0.5"/>
<text text-anchor="middle" x="365.5" y="-7.5" font-family="Helvetica,sans-Serif" font-size="10.00">io.h</text>
</a>
</g>
</g>
<!-- Node0&#45;&gt;Node6 -->
<g id="edge6" class="edge"><title>Node0&#45;&gt;Node6</title>
<path fill="none" stroke="midnightblue" d="M502.246,-56.4647C476.078,-48.2066 435.218,-35.1491 391.319,-20.2055"/>
<polygon fill="midnightblue" stroke="midnightblue" points="392.205,-16.8098 381.611,-16.8867 389.941,-23.4334 392.205,-16.8098"/>
</g>
<!-- Node7 -->
<g id="node8" class="node"><title>Node7</title>
<g id="a_node8"><a xlink:href="../../d6/da2/nanorq_8h.html" target="_top" xlink:title="nanorq.h">
<polygon fill="none" stroke="black" points="399.5,-0.5 399.5,-19.5 453.5,-19.5 453.5,-0.5 399.5,-0.5"/>
<text text-anchor="middle" x="426.5" y="-7.5" font-family="Helvetica,sans-Serif" font-size="10.00">nanorq.h</text>
</a>
</g>
</g>
<!-- Node0&#45;&gt;Node7 -->
<g id="edge7" class="edge"><title>Node0&#45;&gt;Node7</title>
<path fill="none" stroke="midnightblue" d="M512.951,-56.324C496.508,-47.7034 471.065,-34.3643 452.032,-24.3855"/>
<polygon fill="midnightblue" stroke="midnightblue" points="453.489,-21.198 443.008,-19.6545 450.239,-27.3977 453.489,-21.198"/>
</g>
<!-- Node8 -->
<g id="node9" class="node"><title>Node8</title>
<g id="a_node9"><a xlink:href="../../d5/d99/kvec_8h.html" target="_top" xlink:title="kvec.h">
<polygon fill="none" stroke="black" points="471.5,-0.5 471.5,-19.5 517.5,-19.5 517.5,-0.5 471.5,-0.5"/>
<text text-anchor="middle" x="494.5" y="-7.5" font-family="Helvetica,sans-Serif" font-size="10.00">kvec.h</text>
</a>
</g>
</g>
<!-- Node0&#45;&gt;Node8 -->
<g id="edge8" class="edge"><title>Node0&#45;&gt;Node8</title>
<path fill="none" stroke="midnightblue" d="M523.72,-56.083C518.828,-48.5341 511.673,-37.4948 505.667,-28.2298"/>
<polygon fill="midnightblue" stroke="midnightblue" points="508.548,-26.239 500.172,-19.7511 502.674,-30.0463 508.548,-26.239"/>
</g>
<!-- Node9 -->
<g id="node10" class="node"><title>Node9</title>
<g id="a_node10"><a xlink:href="../../d3/dfe/bitmask_8h.html" target="_top" xlink:title="bitmask.h">
<polygon fill="none" stroke="black" points="536,-0.5 536,-19.5 595,-19.5 595,-0.5 536,-0.5"/>
<text text-anchor="middle" x="565.5" y="-7.5" font-family="Helvetica,sans-Serif" font-size="10.00">bitmask.h</text>
</a>
</g>
</g>
<!-- Node0&#45;&gt;Node9 -->
<g id="edge9" class="edge"><title>Node0&#45;&gt;Node9</title>
<path fill="none" stroke="midnightblue" d="M535.445,-56.083C540.477,-48.5341 547.837,-37.4948 554.013,-28.2298"/>
<polygon fill="midnightblue" stroke="midnightblue" points="557.031,-30.0131 559.666,-19.7511 551.207,-26.1301 557.031,-30.0131"/>
</g>
<!-- Node10 -->
<g id="node11" class="node"><title>Node10</title>
<g id="a_node11"><a xlink:href="../../dd/d1c/table2_8h.html" target="_top" xlink:title="table2.h">
<polygon fill="none" stroke="black" points="613,-0.5 613,-19.5 664,-19.5 664,-0.5 613,-0.5"/>
<text text-anchor="middle" x="638.5" y="-7.5" font-family="Helvetica,sans-Serif" font-size="10.00">table2.h</text>
</a>
</g>
</g>
<!-- Node0&#45;&gt;Node10 -->
<g id="edge10" class="edge"><title>Node0&#45;&gt;Node10</title>
<path fill="none" stroke="midnightblue" d="M547.013,-56.324C564.572,-47.6247 591.831,-34.1202 612.031,-24.113"/>
<polygon fill="midnightblue" stroke="midnightblue" points="613.624,-27.23 621.031,-19.6545 610.516,-20.9575 613.624,-27.23"/>
</g>
<!-- Node11 -->
<g id="node12" class="node"><title>Node11</title>
<g id="a_node12"><a xlink:href="../../de/d35/octmat_8h.html" target="_top" xlink:title="octmat.h">
<polygon fill="none" stroke="black" points="682,-0.5 682,-19.5 737,-19.5 737,-0.5 682,-0.5"/>
<text text-anchor="middle" x="709.5" y="-7.5" font-family="Helvetica,sans-Serif" font-size="10.00">octmat.h</text>
</a>
</g>
</g>
<!-- Node0&#45;&gt;Node11 -->
<g id="edge11" class="edge"><title>Node0&#45;&gt;Node11</title>
<path fill="none" stroke="midnightblue" d="M558.022,-56.4435C588.836,-47.1993 638.068,-32.4296 671.996,-22.2511"/>
<polygon fill="midnightblue" stroke="midnightblue" points="673.425,-25.4767 681.997,-19.2508 671.413,-18.7719 673.425,-25.4767"/>
</g>
<!-- Node12 -->
<g id="node13" class="node"><title>Node12</title>
<g id="a_node13"><a xlink:href="../../d8/d3c/util_8h.html" target="_top" xlink:title="util.h">
<polygon fill="none" stroke="black" points="755.5,-0.5 755.5,-19.5 793.5,-19.5 793.5,-0.5 755.5,-0.5"/>
<text text-anchor="middle" x="774.5" y="-7.5" font-family="Helvetica,sans-Serif" font-size="10.00">util.h</text>
</a>
</g>
</g>
<!-- Node0&#45;&gt;Node12 -->
<g id="edge12" class="edge"><title>Node0&#45;&gt;Node12</title>
<path fill="none" stroke="midnightblue" d="M559.216,-59.8747C599.429,-52.7147 673.552,-38.7264 745.61,-20.0171"/>
<polygon fill="midnightblue" stroke="midnightblue" points="746.519,-23.3971 755.3,-17.4687 744.738,-16.6273 746.519,-23.3971"/>
</g>
<!-- Node13 -->
<g id="node14" class="node"><title>Node13</title>
<g id="a_node14"><a xlink:href="../../da/d33/params_8h.html" target="_top" xlink:title="params.h">
<polygon fill="none" stroke="black" points="812,-0.5 812,-19.5 869,-19.5 869,-0.5 812,-0.5"/>
<text text-anchor="middle" x="840.5" y="-7.5" font-family="Helvetica,sans-Serif" font-size="10.00">params.h</text>
</a>
</g>
</g>
<!-- Node0&#45;&gt;Node13 -->
<g id="edge13" class="edge"><title>Node0&#45;&gt;Node13</title>
<path fill="none" stroke="midnightblue" d="M559.112,-60.8051C607.638,-53.783 707.309,-38.7409 801.893,-19.9981"/>
<polygon fill="midnightblue" stroke="midnightblue" points="802.793,-23.3874 811.913,-17.9945 801.421,-16.5233 802.793,-23.3874"/>
</g>
<!-- Node14 -->
<g id="node15" class="node"><title>Node14</title>
<g id="a_node15"><a xlink:href="../../da/def/precode_8h.html" target="_top" xlink:title="precode.h">
<polygon fill="none" stroke="black" points="887,-0.5 887,-19.5 946,-19.5 946,-0.5 887,-0.5"/>
<text text-anchor="middle" x="916.5" y="-7.5" font-family="Helvetica,sans-Serif" font-size="10.00">precode.h</text>
</a>
</g>
</g>
<!-- Node0&#45;&gt;Node14 -->
<g id="edge14" class="edge"><title>Node0&#45;&gt;Node14</title>
<path fill="none" stroke="midnightblue" d="M559.076,-62.2385C617.838,-56.5268 753.594,-42.2104 876.718,-20.1773"/>
<polygon fill="midnightblue" stroke="midnightblue" points="877.475,-23.5971 886.691,-18.3703 876.227,-16.7093 877.475,-23.5971"/>
</g>
<!-- Node15 -->
<g id="node16" class="node"><title>Node15</title>
<g id="a_node16"><a xlink:href="../../d6/df3/graph_8h.html" target="_top" xlink:title="graph.h">
<polygon fill="none" stroke="black" points="964,-0.5 964,-19.5 1013,-19.5 1013,-0.5 964,-0.5"/>
<text text-anchor="middle" x="988.5" y="-7.5" font-family="Helvetica,sans-Serif" font-size="10.00">graph.h</text>
</a>
</g>
</g>
<!-- Node0&#45;&gt;Node15 -->
<g id="edge15" class="edge"><title>Node0&#45;&gt;Node15</title>
<path fill="none" stroke="midnightblue" d="M559.176,-63.5128C627.37,-59.7458 800.567,-48.1868 953.678,-20.089"/>
<polygon fill="midnightblue" stroke="midnightblue" points="954.544,-23.488 963.733,-18.2142 953.261,-16.6066 954.544,-23.488"/>
</g>
<!-- Node16 -->
<g id="node17" class="node"><title>Node16</title>
<g id="a_node17"><a xlink:href="../../d8/db7/chooser_8h.html" target="_top" xlink:title="chooser.h">
<polygon fill="none" stroke="black" points="1031,-0.5 1031,-19.5 1090,-19.5 1090,-0.5 1031,-0.5"/>
<text text-anchor="middle" x="1060.5" y="-7.5" font-family="Helvetica,sans-Serif" font-size="10.00">chooser.h</text>
</a>
</g>
</g>
<!-- Node0&#45;&gt;Node16 -->
<g id="edge16" class="edge"><title>Node0&#45;&gt;Node16</title>
<path fill="none" stroke="midnightblue" d="M559.135,-63.7589C634.658,-60.2859 840.566,-48.8736 1020.79,-20.0833"/>
<polygon fill="midnightblue" stroke="midnightblue" points="1021.4,-23.5304 1030.71,-18.4765 1020.28,-16.6204 1021.4,-23.5304"/>
</g>
</g>
</svg>
