<?xml version="1.0" encoding="UTF-8" standalone="no"?>
<!DOCTYPE svg PUBLIC "-//W3C//DTD SVG 1.1//EN"
 "http://www.w3.org/Graphics/SVG/1.1/DTD/svg11.dtd">
<!-- Generated by graphviz version 2.38.0 (20140413.2041)
 -->
<!-- Title: oswaprow Pages: 1 -->
<!--zoomable 85 -->
<svg id="main" version="1.1" xmlns="http://www.w3.org/2000/svg" xmlns:xlink="http://www.w3.org/1999/xlink" xml:space="preserve" onload="init(evt)">
<style type="text/css"><![CDATA[
.edge:hover path { stroke: red; }
.edge:hover polygon { stroke: red; fill: red; }
]]></style>
<script type="text/javascript"><![CDATA[
var edges = document.getElementsByTagName('g');
if (edges && edges.length) {
  for (var i=0;i<edges.length;i++) {
    if (edges[i].id.substr(0,4)=='edge') {
      edges[i].setAttribute('class','edge');
    }
  }
}
]]></script>
        <defs>
                <circle id="rim" cx="0" cy="0" r="7"/>
                <circle id="rim2" cx="0" cy="0" r="3.5"/>
                <g id="zoomPlus">
                        <use xlink:href="#rim" fill="#404040">
                                <set attributeName="fill" to="#808080" begin="zoomplus.mouseover" end="zoomplus.mouseout"/>
                        </use>
                        <path d="M-4,0h8M0,-4v8" fill="none" stroke="white" stroke-width="1.5" pointer-events="none"/>
                </g>
                <g id="zoomMin">
                        <use xlink:href="#rim" fill="#404040">
                                <set attributeName="fill" to="#808080" begin="zoomminus.mouseover" end="zoomminus.mouseout"/>
                        </use>
                        <path d="M-4,0h8" fill="none" stroke="white" stroke-width="1.5" pointer-events="none"/>
                </g>
                <g id="dirArrow">
                        <path fill="none" stroke="white" stroke-width="1.5" d="M0,-3.0v7 M-2.5,-0.5L0,-3.0L2.5,-0.5"/>
                </g>
               <g id="resetDef">
                       <use xlink:href="#rim2" fill="#404040">
                               <set attributeName="fill" to="#808080" begin="reset.mouseover" end="reset.mouseout"/>
                       </use>
               </g>
        </defs>

<script type="text/javascript">
var viewWidth = 1038;
var viewHeight = 85;
var sectionId = 'dynsection-0';
</script>
<script xlink:href="../../svgpan.js"/>
<svg id="graph" class="graph">
<g id="viewport">
<title>oswaprow</title>
<!-- Node1 -->
<g id="node1" class="node"><title>Node1</title>
<polygon fill="#bfbfbf" stroke="black" points="0,-19.5 0,-38.5 61,-38.5 61,-19.5 0,-19.5"/>
<text text-anchor="middle" x="30.5" y="-26.5" font-family="Helvetica,sans-Serif" font-size="10.00">oswaprow</text>
</g>
<!-- Node2 -->
<g id="node2" class="node"><title>Node2</title>
<g id="a_node2"><a xlink:href="../../d6/d1a/precode_8c_adde325d451f8ec9eb7f8f4542d81e884.html#adde325d451f8ec9eb7f8f4542d81e884" target="_top" xlink:title="decode_phase1">
<polygon fill="none" stroke="black" points="97,-38.5 97,-57.5 182,-57.5 182,-38.5 97,-38.5"/>
<text text-anchor="middle" x="139.5" y="-45.5" font-family="Helvetica,sans-Serif" font-size="10.00">decode_phase1</text>
</a>
</g>
</g>
<!-- Node1&#45;&gt;Node2 -->
<g id="edge1" class="edge"><title>Node1&#45;&gt;Node2</title>
<path fill="none" stroke="midnightblue" d="M70.9373,-36.0029C79.3178,-37.491 88.1939,-39.0671 96.6605,-40.5706"/>
<polygon fill="midnightblue" stroke="midnightblue" points="71.4794,-32.5445 61.0215,-34.2421 70.2555,-39.4367 71.4794,-32.5445"/>
</g>
<!-- Node13 -->
<g id="node13" class="node"><title>Node13</title>
<g id="a_node13"><a xlink:href="../../d6/d1a/precode_8c_a41bb3b163c071597877ad0de9bbbd756.html#a41bb3b163c071597877ad0de9bbbd756" target="_top" xlink:title="decode_phase2">
<polygon fill="none" stroke="black" points="97,-0.5 97,-19.5 182,-19.5 182,-0.5 97,-0.5"/>
<text text-anchor="middle" x="139.5" y="-7.5" font-family="Helvetica,sans-Serif" font-size="10.00">decode_phase2</text>
</a>
</g>
</g>
<!-- Node1&#45;&gt;Node13 -->
<g id="edge13" class="edge"><title>Node1&#45;&gt;Node13</title>
<path fill="none" stroke="midnightblue" d="M70.9373,-21.9971C79.3178,-20.509 88.1939,-18.9329 96.6605,-17.4294"/>
<polygon fill="midnightblue" stroke="midnightblue" points="70.2555,-18.5633 61.0215,-23.7579 71.4794,-25.4555 70.2555,-18.5633"/>
</g>
<!-- Node3 -->
<g id="node3" class="node"><title>Node3</title>
<g id="a_node3"><a xlink:href="../../da/def/precode_8h_a262ba8efa6b500c1e7a3cb0451245291.html#a262ba8efa6b500c1e7a3cb0451245291" target="_top" xlink:title="precode_matrix_intermediate1">
<polygon fill="none" stroke="black" points="218,-19.5 218,-38.5 365,-38.5 365,-19.5 218,-19.5"/>
<text text-anchor="middle" x="291.5" y="-26.5" font-family="Helvetica,sans-Serif" font-size="10.00">precode_matrix_intermediate1</text>
</a>
</g>
</g>
<!-- Node2&#45;&gt;Node3 -->
<g id="edge2" class="edge"><title>Node2&#45;&gt;Node3</title>
<path fill="none" stroke="midnightblue" d="M192.453,-41.4193C200.682,-40.377 209.32,-39.2828 217.917,-38.1939"/>
<polygon fill="midnightblue" stroke="midnightblue" points="191.764,-37.9785 182.283,-42.7074 192.644,-44.923 191.764,-37.9785"/>
</g>
<!-- Node4 -->
<g id="node4" class="node"><title>Node4</title>
<g id="a_node4"><a xlink:href="../../d6/da2/nanorq_8h_ad6a9288685637cdfe83303f66b087a29.html#ad6a9288685637cdfe83303f66b087a29" target="_top" xlink:title="nanorq_generate_symbols">
<polygon fill="none" stroke="black" points="409,-38.5 409,-57.5 540,-57.5 540,-38.5 409,-38.5"/>
<text text-anchor="middle" x="474.5" y="-45.5" font-family="Helvetica,sans-Serif" font-size="10.00">nanorq_generate_symbols</text>
</a>
</g>
</g>
<!-- Node3&#45;&gt;Node4 -->
<g id="edge3" class="edge"><title>Node3&#45;&gt;Node4</title>
<path fill="none" stroke="midnightblue" d="M375.327,-37.6945C386.559,-38.8736 397.949,-40.0692 408.8,-41.2083"/>
<polygon fill="midnightblue" stroke="midnightblue" points="375.387,-34.1817 365.077,-36.6185 374.657,-41.1435 375.387,-34.1817"/>
</g>
<!-- Node9 -->
<g id="node9" class="node"><title>Node9</title>
<g id="a_node9"><a xlink:href="../../da/def/precode_8h_a2b6a5db8f90fc98b364cb5ed3b5eca24.html#a2b6a5db8f90fc98b364cb5ed3b5eca24" target="_top" xlink:title="precode_matrix_intermediate2">
<polygon fill="none" stroke="black" points="401,-0.5 401,-19.5 548,-19.5 548,-0.5 401,-0.5"/>
<text text-anchor="middle" x="474.5" y="-7.5" font-family="Helvetica,sans-Serif" font-size="10.00">precode_matrix_intermediate2</text>
</a>
</g>
</g>
<!-- Node3&#45;&gt;Node9 -->
<g id="edge9" class="edge"><title>Node3&#45;&gt;Node9</title>
<path fill="none" stroke="midnightblue" d="M375.116,-20.3276C383.722,-19.4242 392.424,-18.5107 400.907,-17.6203"/>
<polygon fill="midnightblue" stroke="midnightblue" points="374.657,-16.8565 365.077,-21.3815 375.387,-23.8182 374.657,-16.8565"/>
</g>
<!-- Node5 -->
<g id="node5" class="node"><title>Node5</title>
<g id="a_node5"><a xlink:href="../../dd/d3f/encode_8c_a3c04138a5bfe5d72780bb7e82a18e627.html#a3c04138a5bfe5d72780bb7e82a18e627" target="_top" xlink:title="main">
<polygon fill="none" stroke="black" points="992,-57.5 992,-76.5 1030,-76.5 1030,-57.5 992,-57.5"/>
<text text-anchor="middle" x="1011" y="-64.5" font-family="Helvetica,sans-Serif" font-size="10.00">main</text>
</a>
</g>
</g>
<!-- Node4&#45;&gt;Node5 -->
<g id="edge4" class="edge"><title>Node4&#45;&gt;Node5</title>
<path fill="none" stroke="midnightblue" d="M529.55,-59.3642C546.86,-62.4925 566.163,-65.45 584,-67 741.308,-80.6695 932.527,-71.5387 991.682,-68.1302"/>
<polygon fill="midnightblue" stroke="midnightblue" points="530.087,-55.904 519.615,-57.5119 528.804,-62.7854 530.087,-55.904"/>
</g>
<!-- Node6 -->
<g id="node6" class="node"><title>Node6</title>
<g id="a_node6"><a xlink:href="../../d6/da2/nanorq_8h_a956615eb4ea3ce34369951295e93f708.html#a956615eb4ea3ce34369951295e93f708" target="_top" xlink:title="nanorq_encode">
<polygon fill="none" stroke="black" points="602.5,-38.5 602.5,-57.5 685.5,-57.5 685.5,-38.5 602.5,-38.5"/>
<text text-anchor="middle" x="644" y="-45.5" font-family="Helvetica,sans-Serif" font-size="10.00">nanorq_encode</text>
</a>
</g>
</g>
<!-- Node4&#45;&gt;Node6 -->
<g id="edge5" class="edge"><title>Node4&#45;&gt;Node6</title>
<path fill="none" stroke="midnightblue" d="M550.609,-48C568.33,-48 586.572,-48 602.117,-48"/>
<polygon fill="midnightblue" stroke="midnightblue" points="550.26,-44.5001 540.26,-48 550.26,-51.5001 550.26,-44.5001"/>
</g>
<!-- Node7 -->
<g id="node7" class="node"><title>Node7</title>
<g id="a_node7"><a xlink:href="../../dd/d3f/encode_8c_a0993cb61d7e4c1b1a1606d159f5b1410.html#a0993cb61d7e4c1b1a1606d159f5b1410" target="_top" xlink:title="dump_esi">
<polygon fill="none" stroke="black" points="766,-38.5 766,-57.5 825,-57.5 825,-38.5 766,-38.5"/>
<text text-anchor="middle" x="795.5" y="-45.5" font-family="Helvetica,sans-Serif" font-size="10.00">dump_esi</text>
</a>
</g>
</g>
<!-- Node6&#45;&gt;Node7 -->
<g id="edge6" class="edge"><title>Node6&#45;&gt;Node7</title>
<path fill="none" stroke="midnightblue" d="M695.907,-48C719.14,-48 745.805,-48 765.542,-48"/>
<polygon fill="midnightblue" stroke="midnightblue" points="695.852,-44.5001 685.852,-48 695.851,-51.5001 695.852,-44.5001"/>
</g>
<!-- Node8 -->
<g id="node8" class="node"><title>Node8</title>
<g id="a_node8"><a xlink:href="../../dd/d3f/encode_8c_ae7f8bbf4dcea92f802d2521fa0264f93.html#ae7f8bbf4dcea92f802d2521fa0264f93" target="_top" xlink:title="dump_block">
<polygon fill="none" stroke="black" points="887,-38.5 887,-57.5 956,-57.5 956,-38.5 887,-38.5"/>
<text text-anchor="middle" x="921.5" y="-45.5" font-family="Helvetica,sans-Serif" font-size="10.00">dump_block</text>
</a>
</g>
</g>
<!-- Node7&#45;&gt;Node8 -->
<g id="edge7" class="edge"><title>Node7&#45;&gt;Node8</title>
<path fill="none" stroke="midnightblue" d="M835.607,-48C851.984,-48 870.841,-48 886.616,-48"/>
<polygon fill="midnightblue" stroke="midnightblue" points="835.26,-44.5001 825.26,-48 835.26,-51.5001 835.26,-44.5001"/>
</g>
<!-- Node8&#45;&gt;Node5 -->
<g id="edge8" class="edge"><title>Node8&#45;&gt;Node5</title>
<path fill="none" stroke="midnightblue" d="M965.916,-57.4275C975.058,-59.4126 984.22,-61.402 991.804,-63.0488"/>
<polygon fill="midnightblue" stroke="midnightblue" points="966.595,-53.9933 956.08,-55.2916 965.109,-60.8339 966.595,-53.9933"/>
</g>
<!-- Node10 -->
<g id="node10" class="node"><title>Node10</title>
<g id="a_node10"><a xlink:href="../../da/def/precode_8h_aee2113e8f8d7e54052fc8db5dd71fd1f.html#aee2113e8f8d7e54052fc8db5dd71fd1f" target="_top" xlink:title="precode_matrix_decode">
<polygon fill="none" stroke="black" points="584,-0.5 584,-19.5 704,-19.5 704,-0.5 584,-0.5"/>
<text text-anchor="middle" x="644" y="-7.5" font-family="Helvetica,sans-Serif" font-size="10.00">precode_matrix_decode</text>
</a>
</g>
</g>
<!-- Node9&#45;&gt;Node10 -->
<g id="edge10" class="edge"><title>Node9&#45;&gt;Node10</title>
<path fill="none" stroke="midnightblue" d="M558.496,-10C567.05,-10 575.614,-10 583.832,-10"/>
<polygon fill="midnightblue" stroke="midnightblue" points="558.481,-6.5001 548.481,-10 558.481,-13.5001 558.481,-6.5001"/>
</g>
<!-- Node11 -->
<g id="node11" class="node"><title>Node11</title>
<g id="a_node11"><a xlink:href="../../d6/da2/nanorq_8h_aa1dcf83669e76931be0e6e7a1f02c185.html#aa1dcf83669e76931be0e6e7a1f02c185" target="_top" xlink:title="nanorq_decode_block">
<polygon fill="none" stroke="black" points="740,-0.5 740,-19.5 851,-19.5 851,-0.5 740,-0.5"/>
<text text-anchor="middle" x="795.5" y="-7.5" font-family="Helvetica,sans-Serif" font-size="10.00">nanorq_decode_block</text>
</a>
</g>
</g>
<!-- Node10&#45;&gt;Node11 -->
<g id="edge11" class="edge"><title>Node10&#45;&gt;Node11</title>
<path fill="none" stroke="midnightblue" d="M714.104,-10C722.7,-10 731.396,-10 739.734,-10"/>
<polygon fill="midnightblue" stroke="midnightblue" points="714.086,-6.5001 704.086,-10 714.086,-13.5001 714.086,-6.5001"/>
</g>
<!-- Node12 -->
<g id="node12" class="node"><title>Node12</title>
<g id="a_node12"><a xlink:href="../../da/d0d/decode_8c_a3c04138a5bfe5d72780bb7e82a18e627.html#a3c04138a5bfe5d72780bb7e82a18e627" target="_top" xlink:title="main">
<polygon fill="none" stroke="black" points="902.5,-0.5 902.5,-19.5 940.5,-19.5 940.5,-0.5 902.5,-0.5"/>
<text text-anchor="middle" x="921.5" y="-7.5" font-family="Helvetica,sans-Serif" font-size="10.00">main</text>
</a>
</g>
</g>
<!-- Node11&#45;&gt;Node12 -->
<g id="edge12" class="edge"><title>Node11&#45;&gt;Node12</title>
<path fill="none" stroke="midnightblue" d="M861.661,-10C876.706,-10 891.503,-10 902.494,-10"/>
<polygon fill="midnightblue" stroke="midnightblue" points="861.249,-6.5001 851.249,-10 861.249,-13.5001 861.249,-6.5001"/>
</g>
<!-- Node13&#45;&gt;Node3 -->
<g id="edge14" class="edge"><title>Node13&#45;&gt;Node3</title>
<path fill="none" stroke="midnightblue" d="M192.453,-16.5807C200.682,-17.623 209.32,-18.7172 217.917,-19.8061"/>
<polygon fill="midnightblue" stroke="midnightblue" points="192.644,-13.077 182.283,-15.2926 191.764,-20.0215 192.644,-13.077"/>
</g>
</g>
</svg>
        <g id="navigator" transform="translate(0 0)" fill="#404254">
                <rect fill="#f2f5e9" fill-opacity="0.5" stroke="#606060" stroke-width=".5" x="0" y="0" width="60" height="60"/>
                <use id="zoomplus" xlink:href="#zoomPlus" x="17" y="9" onmousedown="handleZoom(evt,'in')"/>
                <use id="zoomminus" xlink:href="#zoomMin" x="42" y="9" onmousedown="handleZoom(evt,'out')"/>
                <use id="reset" xlink:href="#resetDef" x="30" y="36" onmousedown="handleReset()"/>
                <g id="arrowUp" xlink:href="#dirArrow" transform="translate(30 24)" onmousedown="handlePan(0,-1)">
                  <use xlink:href="#rim" fill="#404040">
                        <set attributeName="fill" to="#808080" begin="arrowUp.mouseover" end="arrowUp.mouseout"/>
                  </use>
                  <path fill="none" stroke="white" stroke-width="1.5" d="M0,-3.0v7 M-2.5,-0.5L0,-3.0L2.5,-0.5"/>
                </g>
                <g id="arrowRight" xlink:href="#dirArrow" transform="rotate(90) translate(36 -43)" onmousedown="handlePan(1,0)">
                  <use xlink:href="#rim" fill="#404040">
                        <set attributeName="fill" to="#808080" begin="arrowRight.mouseover" end="arrowRight.mouseout"/>
                  </use>
                  <path fill="none" stroke="white" stroke-width="1.5" d="M0,-3.0v7 M-2.5,-0.5L0,-3.0L2.5,-0.5"/>
                </g>
                <g id="arrowDown" xlink:href="#dirArrow" transform="rotate(180) translate(-30 -48)" onmousedown="handlePan(0,1)">
                  <use xlink:href="#rim" fill="#404040">
                        <set attributeName="fill" to="#808080" begin="arrowDown.mouseover" end="arrowDown.mouseout"/>
                  </use>
                  <path fill="none" stroke="white" stroke-width="1.5" d="M0,-3.0v7 M-2.5,-0.5L0,-3.0L2.5,-0.5"/>
                </g>
                <g id="arrowLeft" xlink:href="#dirArrow" transform="rotate(270) translate(-36 17)" onmousedown="handlePan(-1,0)">
                  <use xlink:href="#rim" fill="#404040">
                        <set attributeName="fill" to="#808080" begin="arrowLeft.mouseover" end="arrowLeft.mouseout"/>
                  </use>
                  <path fill="none" stroke="white" stroke-width="1.5" d="M0,-3.0v7 M-2.5,-0.5L0,-3.0L2.5,-0.5"/>
                </g>
        </g>
        <svg viewBox="0 0 15 15" width="100%" height="30px" preserveAspectRatio="xMaxYMin meet">
         <g id="arrow_out" transform="scale(0.3 0.3)">
          <a xlink:href="oblas_8h_ad0978d40d1e2a78b8ff34f3d0d376dd3_ad0978d40d1e2a78b8ff34f3d0d376dd3_icgraph_org.svg" target="_base">
           <rect id="button" ry="5" rx="5" y="6" x="6" height="38" width="38"
                fill="#f2f5e9" fill-opacity="0.5" stroke="#606060" stroke-width="1.0"/>
           <path id="arrow"
             d="M 11.500037,31.436501 C 11.940474,20.09759 22.043105,11.32322 32.158766,21.979434 L 37.068811,17.246167 C 37.068811,17.246167 37.088388,32 37.088388,32 L 22.160133,31.978069 C 22.160133,31.978069 26.997745,27.140456 26.997745,27.140456 C 18.528582,18.264221 13.291696,25.230495 11.500037,31.436501 z"
             style="fill:#404040;"/>
          </a>
         </g>
        </svg>
</svg>
