<?xml version="1.0" encoding="UTF-8" standalone="no"?>
<!DOCTYPE svg PUBLIC "-//W3C//DTD SVG 1.1//EN"
 "http://www.w3.org/Graphics/SVG/1.1/DTD/svg11.dtd">
<!-- Generated by graphviz version 2.38.0 (20140413.2041)
 -->
<!-- Title: oaxpy Pages: 1 -->
<!--zoomable 142 -->
<svg id="main" version="1.1" xmlns="http://www.w3.org/2000/svg" xmlns:xlink="http://www.w3.org/1999/xlink" xml:space="preserve" onload="init(evt)">
<style type="text/css"><![CDATA[
.edge:hover path { stroke: red; }
.edge:hover polygon { stroke: red; fill: red; }
]]></style>
<script type="text/javascript"><![CDATA[
var edges = document.getElementsByTagName('g');
if (edges && edges.length) {
  for (var i=0;i<edges.length;i++) {
    if (edges[i].id.substr(0,4)=='edge') {
      edges[i].setAttribute('class','edge');
    }
  }
}
]]></script>
        <defs>
                <circle id="rim" cx="0" cy="0" r="7"/>
                <circle id="rim2" cx="0" cy="0" r="3.5"/>
                <g id="zoomPlus">
                        <use xlink:href="#rim" fill="#404040">
                                <set attributeName="fill" to="#808080" begin="zoomplus.mouseover" end="zoomplus.mouseout"/>
                        </use>
                        <path d="M-4,0h8M0,-4v8" fill="none" stroke="white" stroke-width="1.5" pointer-events="none"/>
                </g>
                <g id="zoomMin">
                        <use xlink:href="#rim" fill="#404040">
                                <set attributeName="fill" to="#808080" begin="zoomminus.mouseover" end="zoomminus.mouseout"/>
                        </use>
                        <path d="M-4,0h8" fill="none" stroke="white" stroke-width="1.5" pointer-events="none"/>
                </g>
                <g id="dirArrow">
                        <path fill="none" stroke="white" stroke-width="1.5" d="M0,-3.0v7 M-2.5,-0.5L0,-3.0L2.5,-0.5"/>
                </g>
               <g id="resetDef">
                       <use xlink:href="#rim2" fill="#404040">
                               <set attributeName="fill" to="#808080" begin="reset.mouseover" end="reset.mouseout"/>
                       </use>
               </g>
        </defs>

<script type="text/javascript">
var viewWidth = 1020;
var viewHeight = 142;
var sectionId = 'dynsection-0';
</script>
<script xlink:href="../../svgpan.js"/>
<svg id="graph" class="graph">
<g id="viewport">
<title>oaxpy</title>
<!-- Node1 -->
<g id="node1" class="node"><title>Node1</title>
<polygon fill="#bfbfbf" stroke="black" points="0,-57.5 0,-76.5 43,-76.5 43,-57.5 0,-57.5"/>
<text text-anchor="middle" x="21.5" y="-64.5" font-family="Helvetica,sans-Serif" font-size="10.00">oaxpy</text>
</g>
<!-- Node2 -->
<g id="node2" class="node"><title>Node2</title>
<g id="a_node2"><a xlink:href="../../d6/d1a/precode_8c_adde325d451f8ec9eb7f8f4542d81e884.html#adde325d451f8ec9eb7f8f4542d81e884" target="_top" xlink:title="decode_phase1">
<polygon fill="none" stroke="black" points="79,-114.5 79,-133.5 164,-133.5 164,-114.5 79,-114.5"/>
<text text-anchor="middle" x="121.5" y="-121.5" font-family="Helvetica,sans-Serif" font-size="10.00">decode_phase1</text>
</a>
</g>
</g>
<!-- Node1&#45;&gt;Node2 -->
<g id="edge1" class="edge"><title>Node1&#45;&gt;Node2</title>
<path fill="none" stroke="midnightblue" d="M43.9736,-82.6474C54.3115,-89.8644 67.0356,-98.2964 79,-105 84.9451,-108.331 91.5793,-111.568 97.7687,-114.399"/>
<polygon fill="midnightblue" stroke="midnightblue" points="45.7627,-79.6253 35.5821,-76.6919 41.7114,-85.3338 45.7627,-79.6253"/>
</g>
<!-- Node13 -->
<g id="node13" class="node"><title>Node13</title>
<g id="a_node13"><a xlink:href="../../d6/d1a/precode_8c_a41bb3b163c071597877ad0de9bbbd756.html#a41bb3b163c071597877ad0de9bbbd756" target="_top" xlink:title="decode_phase2">
<polygon fill="none" stroke="black" points="79,-76.5 79,-95.5 164,-95.5 164,-76.5 79,-76.5"/>
<text text-anchor="middle" x="121.5" y="-83.5" font-family="Helvetica,sans-Serif" font-size="10.00">decode_phase2</text>
</a>
</g>
</g>
<!-- Node1&#45;&gt;Node13 -->
<g id="edge13" class="edge"><title>Node1&#45;&gt;Node13</title>
<path fill="none" stroke="midnightblue" d="M53.3515,-72.9814C61.4127,-74.5443 70.237,-76.2551 78.7615,-77.9078"/>
<polygon fill="midnightblue" stroke="midnightblue" points="53.7667,-69.4968 43.2833,-71.0294 52.4343,-76.3688 53.7667,-69.4968"/>
</g>
<!-- Node14 -->
<g id="node14" class="node"><title>Node14</title>
<g id="a_node14"><a xlink:href="../../d6/d1a/precode_8c_a84a742aaa0a90e37baf8db8cd5a035b7.html#a84a742aaa0a90e37baf8db8cd5a035b7" target="_top" xlink:title="decode_phase4">
<polygon fill="none" stroke="black" points="79,-38.5 79,-57.5 164,-57.5 164,-38.5 79,-38.5"/>
<text text-anchor="middle" x="121.5" y="-45.5" font-family="Helvetica,sans-Serif" font-size="10.00">decode_phase4</text>
</a>
</g>
</g>
<!-- Node1&#45;&gt;Node14 -->
<g id="edge15" class="edge"><title>Node1&#45;&gt;Node14</title>
<path fill="none" stroke="midnightblue" d="M53.3515,-61.0186C61.4127,-59.4557 70.237,-57.7449 78.7615,-56.0922"/>
<polygon fill="midnightblue" stroke="midnightblue" points="52.4343,-57.6312 43.2833,-62.9706 53.7667,-64.5032 52.4343,-57.6312"/>
</g>
<!-- Node15 -->
<g id="node15" class="node"><title>Node15</title>
<g id="a_node15"><a xlink:href="../../d6/d1a/precode_8c_a16925f32060a478093240f3b35ee664a.html#a16925f32060a478093240f3b35ee664a" target="_top" xlink:title="decode_phase5">
<polygon fill="none" stroke="black" points="79,-0.5 79,-19.5 164,-19.5 164,-0.5 79,-0.5"/>
<text text-anchor="middle" x="121.5" y="-7.5" font-family="Helvetica,sans-Serif" font-size="10.00">decode_phase5</text>
</a>
</g>
</g>
<!-- Node1&#45;&gt;Node15 -->
<g id="edge17" class="edge"><title>Node1&#45;&gt;Node15</title>
<path fill="none" stroke="midnightblue" d="M43.9736,-51.3526C54.3115,-44.1356 67.0356,-35.7036 79,-29 84.9451,-25.669 91.5793,-22.4318 97.7687,-19.6013"/>
<polygon fill="midnightblue" stroke="midnightblue" points="41.7114,-48.6662 35.5821,-57.3081 45.7627,-54.3747 41.7114,-48.6662"/>
</g>
<!-- Node3 -->
<g id="node3" class="node"><title>Node3</title>
<g id="a_node3"><a xlink:href="../../da/def/precode_8h_a262ba8efa6b500c1e7a3cb0451245291.html#a262ba8efa6b500c1e7a3cb0451245291" target="_top" xlink:title="precode_matrix_intermediate1">
<polygon fill="none" stroke="black" points="200,-57.5 200,-76.5 347,-76.5 347,-57.5 200,-57.5"/>
<text text-anchor="middle" x="273.5" y="-64.5" font-family="Helvetica,sans-Serif" font-size="10.00">precode_matrix_intermediate1</text>
</a>
</g>
</g>
<!-- Node2&#45;&gt;Node3 -->
<g id="edge2" class="edge"><title>Node2&#45;&gt;Node3</title>
<path fill="none" stroke="midnightblue" d="M157.245,-110.797C184.787,-100.331 222.622,-85.9538 247.311,-76.5716"/>
<polygon fill="midnightblue" stroke="midnightblue" points="155.711,-107.635 147.607,-114.459 158.198,-114.179 155.711,-107.635"/>
</g>
<!-- Node4 -->
<g id="node4" class="node"><title>Node4</title>
<g id="a_node4"><a xlink:href="../../d6/da2/nanorq_8h_ad6a9288685637cdfe83303f66b087a29.html#ad6a9288685637cdfe83303f66b087a29" target="_top" xlink:title="nanorq_generate_symbols">
<polygon fill="none" stroke="black" points="391,-76.5 391,-95.5 522,-95.5 522,-76.5 391,-76.5"/>
<text text-anchor="middle" x="456.5" y="-83.5" font-family="Helvetica,sans-Serif" font-size="10.00">nanorq_generate_symbols</text>
</a>
</g>
</g>
<!-- Node3&#45;&gt;Node4 -->
<g id="edge3" class="edge"><title>Node3&#45;&gt;Node4</title>
<path fill="none" stroke="midnightblue" d="M357.327,-75.6945C368.559,-76.8736 379.949,-78.0692 390.8,-79.2083"/>
<polygon fill="midnightblue" stroke="midnightblue" points="357.387,-72.1817 347.077,-74.6185 356.657,-79.1435 357.387,-72.1817"/>
</g>
<!-- Node9 -->
<g id="node9" class="node"><title>Node9</title>
<g id="a_node9"><a xlink:href="../../da/def/precode_8h_a2b6a5db8f90fc98b364cb5ed3b5eca24.html#a2b6a5db8f90fc98b364cb5ed3b5eca24" target="_top" xlink:title="precode_matrix_intermediate2">
<polygon fill="none" stroke="black" points="383,-38.5 383,-57.5 530,-57.5 530,-38.5 383,-38.5"/>
<text text-anchor="middle" x="456.5" y="-45.5" font-family="Helvetica,sans-Serif" font-size="10.00">precode_matrix_intermediate2</text>
</a>
</g>
</g>
<!-- Node3&#45;&gt;Node9 -->
<g id="edge9" class="edge"><title>Node3&#45;&gt;Node9</title>
<path fill="none" stroke="midnightblue" d="M357.116,-58.3276C365.722,-57.4242 374.424,-56.5107 382.907,-55.6203"/>
<polygon fill="midnightblue" stroke="midnightblue" points="356.657,-54.8565 347.077,-59.3815 357.387,-61.8182 356.657,-54.8565"/>
</g>
<!-- Node5 -->
<g id="node5" class="node"><title>Node5</title>
<g id="a_node5"><a xlink:href="../../dd/d3f/encode_8c_a3c04138a5bfe5d72780bb7e82a18e627.html#a3c04138a5bfe5d72780bb7e82a18e627" target="_top" xlink:title="main">
<polygon fill="none" stroke="black" points="974,-95.5 974,-114.5 1012,-114.5 1012,-95.5 974,-95.5"/>
<text text-anchor="middle" x="993" y="-102.5" font-family="Helvetica,sans-Serif" font-size="10.00">main</text>
</a>
</g>
</g>
<!-- Node4&#45;&gt;Node5 -->
<g id="edge4" class="edge"><title>Node4&#45;&gt;Node5</title>
<path fill="none" stroke="midnightblue" d="M511.55,-97.3642C528.86,-100.492 548.163,-103.45 566,-105 723.308,-118.67 914.527,-109.539 973.682,-106.13"/>
<polygon fill="midnightblue" stroke="midnightblue" points="512.087,-93.904 501.615,-95.5119 510.804,-100.785 512.087,-93.904"/>
</g>
<!-- Node6 -->
<g id="node6" class="node"><title>Node6</title>
<g id="a_node6"><a xlink:href="../../d6/da2/nanorq_8h_a956615eb4ea3ce34369951295e93f708.html#a956615eb4ea3ce34369951295e93f708" target="_top" xlink:title="nanorq_encode">
<polygon fill="none" stroke="black" points="584.5,-76.5 584.5,-95.5 667.5,-95.5 667.5,-76.5 584.5,-76.5"/>
<text text-anchor="middle" x="626" y="-83.5" font-family="Helvetica,sans-Serif" font-size="10.00">nanorq_encode</text>
</a>
</g>
</g>
<!-- Node4&#45;&gt;Node6 -->
<g id="edge5" class="edge"><title>Node4&#45;&gt;Node6</title>
<path fill="none" stroke="midnightblue" d="M532.609,-86C550.33,-86 568.572,-86 584.117,-86"/>
<polygon fill="midnightblue" stroke="midnightblue" points="532.26,-82.5001 522.26,-86 532.26,-89.5001 532.26,-82.5001"/>
</g>
<!-- Node7 -->
<g id="node7" class="node"><title>Node7</title>
<g id="a_node7"><a xlink:href="../../dd/d3f/encode_8c_a0993cb61d7e4c1b1a1606d159f5b1410.html#a0993cb61d7e4c1b1a1606d159f5b1410" target="_top" xlink:title="dump_esi">
<polygon fill="none" stroke="black" points="748,-76.5 748,-95.5 807,-95.5 807,-76.5 748,-76.5"/>
<text text-anchor="middle" x="777.5" y="-83.5" font-family="Helvetica,sans-Serif" font-size="10.00">dump_esi</text>
</a>
</g>
</g>
<!-- Node6&#45;&gt;Node7 -->
<g id="edge6" class="edge"><title>Node6&#45;&gt;Node7</title>
<path fill="none" stroke="midnightblue" d="M677.907,-86C701.14,-86 727.805,-86 747.542,-86"/>
<polygon fill="midnightblue" stroke="midnightblue" points="677.852,-82.5001 667.852,-86 677.851,-89.5001 677.852,-82.5001"/>
</g>
<!-- Node8 -->
<g id="node8" class="node"><title>Node8</title>
<g id="a_node8"><a xlink:href="../../dd/d3f/encode_8c_ae7f8bbf4dcea92f802d2521fa0264f93.html#ae7f8bbf4dcea92f802d2521fa0264f93" target="_top" xlink:title="dump_block">
<polygon fill="none" stroke="black" points="869,-76.5 869,-95.5 938,-95.5 938,-76.5 869,-76.5"/>
<text text-anchor="middle" x="903.5" y="-83.5" font-family="Helvetica,sans-Serif" font-size="10.00">dump_block</text>
</a>
</g>
</g>
<!-- Node7&#45;&gt;Node8 -->
<g id="edge7" class="edge"><title>Node7&#45;&gt;Node8</title>
<path fill="none" stroke="midnightblue" d="M817.607,-86C833.984,-86 852.841,-86 868.616,-86"/>
<polygon fill="midnightblue" stroke="midnightblue" points="817.26,-82.5001 807.26,-86 817.26,-89.5001 817.26,-82.5001"/>
</g>
<!-- Node8&#45;&gt;Node5 -->
<g id="edge8" class="edge"><title>Node8&#45;&gt;Node5</title>
<path fill="none" stroke="midnightblue" d="M947.916,-95.4275C957.058,-97.4126 966.22,-99.402 973.804,-101.049"/>
<polygon fill="midnightblue" stroke="midnightblue" points="948.595,-91.9933 938.08,-93.2916 947.109,-98.8339 948.595,-91.9933"/>
</g>
<!-- Node10 -->
<g id="node10" class="node"><title>Node10</title>
<g id="a_node10"><a xlink:href="../../da/def/precode_8h_aee2113e8f8d7e54052fc8db5dd71fd1f.html#aee2113e8f8d7e54052fc8db5dd71fd1f" target="_top" xlink:title="precode_matrix_decode">
<polygon fill="none" stroke="black" points="566,-38.5 566,-57.5 686,-57.5 686,-38.5 566,-38.5"/>
<text text-anchor="middle" x="626" y="-45.5" font-family="Helvetica,sans-Serif" font-size="10.00">precode_matrix_decode</text>
</a>
</g>
</g>
<!-- Node9&#45;&gt;Node10 -->
<g id="edge10" class="edge"><title>Node9&#45;&gt;Node10</title>
<path fill="none" stroke="midnightblue" d="M540.496,-48C549.05,-48 557.614,-48 565.832,-48"/>
<polygon fill="midnightblue" stroke="midnightblue" points="540.481,-44.5001 530.481,-48 540.481,-51.5001 540.481,-44.5001"/>
</g>
<!-- Node11 -->
<g id="node11" class="node"><title>Node11</title>
<g id="a_node11"><a xlink:href="../../d6/da2/nanorq_8h_aa1dcf83669e76931be0e6e7a1f02c185.html#aa1dcf83669e76931be0e6e7a1f02c185" target="_top" xlink:title="nanorq_decode_block">
<polygon fill="none" stroke="black" points="722,-38.5 722,-57.5 833,-57.5 833,-38.5 722,-38.5"/>
<text text-anchor="middle" x="777.5" y="-45.5" font-family="Helvetica,sans-Serif" font-size="10.00">nanorq_decode_block</text>
</a>
</g>
</g>
<!-- Node10&#45;&gt;Node11 -->
<g id="edge11" class="edge"><title>Node10&#45;&gt;Node11</title>
<path fill="none" stroke="midnightblue" d="M696.104,-48C704.7,-48 713.396,-48 721.734,-48"/>
<polygon fill="midnightblue" stroke="midnightblue" points="696.086,-44.5001 686.086,-48 696.086,-51.5001 696.086,-44.5001"/>
</g>
<!-- Node12 -->
<g id="node12" class="node"><title>Node12</title>
<g id="a_node12"><a xlink:href="../../da/d0d/decode_8c_a3c04138a5bfe5d72780bb7e82a18e627.html#a3c04138a5bfe5d72780bb7e82a18e627" target="_top" xlink:title="main">
<polygon fill="none" stroke="black" points="884.5,-38.5 884.5,-57.5 922.5,-57.5 922.5,-38.5 884.5,-38.5"/>
<text text-anchor="middle" x="903.5" y="-45.5" font-family="Helvetica,sans-Serif" font-size="10.00">main</text>
</a>
</g>
</g>
<!-- Node11&#45;&gt;Node12 -->
<g id="edge12" class="edge"><title>Node11&#45;&gt;Node12</title>
<path fill="none" stroke="midnightblue" d="M843.661,-48C858.706,-48 873.503,-48 884.494,-48"/>
<polygon fill="midnightblue" stroke="midnightblue" points="843.249,-44.5001 833.249,-48 843.249,-51.5001 843.249,-44.5001"/>
</g>
<!-- Node13&#45;&gt;Node3 -->
<g id="edge14" class="edge"><title>Node13&#45;&gt;Node3</title>
<path fill="none" stroke="midnightblue" d="M174.453,-79.4193C182.682,-78.377 191.32,-77.2828 199.917,-76.1939"/>
<polygon fill="midnightblue" stroke="midnightblue" points="173.764,-75.9785 164.283,-80.7074 174.644,-82.923 173.764,-75.9785"/>
</g>
<!-- Node14&#45;&gt;Node3 -->
<g id="edge16" class="edge"><title>Node14&#45;&gt;Node3</title>
<path fill="none" stroke="midnightblue" d="M174.453,-54.5807C182.682,-55.623 191.32,-56.7172 199.917,-57.8061"/>
<polygon fill="midnightblue" stroke="midnightblue" points="174.644,-51.077 164.283,-53.2926 173.764,-58.0215 174.644,-51.077"/>
</g>
<!-- Node15&#45;&gt;Node3 -->
<g id="edge18" class="edge"><title>Node15&#45;&gt;Node3</title>
<path fill="none" stroke="midnightblue" d="M157.245,-23.203C184.787,-33.669 222.622,-48.0462 247.311,-57.4284"/>
<polygon fill="midnightblue" stroke="midnightblue" points="158.198,-19.821 147.607,-19.5405 155.711,-26.3645 158.198,-19.821"/>
</g>
</g>
</svg>
        <g id="navigator" transform="translate(0 0)" fill="#404254">
                <rect fill="#f2f5e9" fill-opacity="0.5" stroke="#606060" stroke-width=".5" x="0" y="0" width="60" height="60"/>
                <use id="zoomplus" xlink:href="#zoomPlus" x="17" y="9" onmousedown="handleZoom(evt,'in')"/>
                <use id="zoomminus" xlink:href="#zoomMin" x="42" y="9" onmousedown="handleZoom(evt,'out')"/>
                <use id="reset" xlink:href="#resetDef" x="30" y="36" onmousedown="handleReset()"/>
                <g id="arrowUp" xlink:href="#dirArrow" transform="translate(30 24)" onmousedown="handlePan(0,-1)">
                  <use xlink:href="#rim" fill="#404040">
                        <set attributeName="fill" to="#808080" begin="arrowUp.mouseover" end="arrowUp.mouseout"/>
                  </use>
                  <path fill="none" stroke="white" stroke-width="1.5" d="M0,-3.0v7 M-2.5,-0.5L0,-3.0L2.5,-0.5"/>
                </g>
                <g id="arrowRight" xlink:href="#dirArrow" transform="rotate(90) translate(36 -43)" onmousedown="handlePan(1,0)">
                  <use xlink:href="#rim" fill="#404040">
                        <set attributeName="fill" to="#808080" begin="arrowRight.mouseover" end="arrowRight.mouseout"/>
                  </use>
                  <path fill="none" stroke="white" stroke-width="1.5" d="M0,-3.0v7 M-2.5,-0.5L0,-3.0L2.5,-0.5"/>
                </g>
                <g id="arrowDown" xlink:href="#dirArrow" transform="rotate(180) translate(-30 -48)" onmousedown="handlePan(0,1)">
                  <use xlink:href="#rim" fill="#404040">
                        <set attributeName="fill" to="#808080" begin="arrowDown.mouseover" end="arrowDown.mouseout"/>
                  </use>
                  <path fill="none" stroke="white" stroke-width="1.5" d="M0,-3.0v7 M-2.5,-0.5L0,-3.0L2.5,-0.5"/>
                </g>
                <g id="arrowLeft" xlink:href="#dirArrow" transform="rotate(270) translate(-36 17)" onmousedown="handlePan(-1,0)">
                  <use xlink:href="#rim" fill="#404040">
                        <set attributeName="fill" to="#808080" begin="arrowLeft.mouseover" end="arrowLeft.mouseout"/>
                  </use>
                  <path fill="none" stroke="white" stroke-width="1.5" d="M0,-3.0v7 M-2.5,-0.5L0,-3.0L2.5,-0.5"/>
                </g>
        </g>
        <svg viewBox="0 0 15 15" width="100%" height="30px" preserveAspectRatio="xMaxYMin meet">
         <g id="arrow_out" transform="scale(0.3 0.3)">
          <a xlink:href="oblas_8h_a962c3db45b173ccbaf6418d5894409be_a962c3db45b173ccbaf6418d5894409be_icgraph_org.svg" target="_base">
           <rect id="button" ry="5" rx="5" y="6" x="6" height="38" width="38"
                fill="#f2f5e9" fill-opacity="0.5" stroke="#606060" stroke-width="1.0"/>
           <path id="arrow"
             d="M 11.500037,31.436501 C 11.940474,20.09759 22.043105,11.32322 32.158766,21.979434 L 37.068811,17.246167 C 37.068811,17.246167 37.088388,32 37.088388,32 L 22.160133,31.978069 C 22.160133,31.978069 26.997745,27.140456 26.997745,27.140456 C 18.528582,18.264221 13.291696,25.230495 11.500037,31.436501 z"
             style="fill:#404040;"/>
          </a>
         </g>
        </svg>
</svg>
