<?xml version="1.0" encoding="UTF-8" standalone="no"?>
<!DOCTYPE svg PUBLIC "-//W3C//DTD SVG 1.1//EN"
 "http://www.w3.org/Graphics/SVG/1.1/DTD/svg11.dtd">
<!-- Generated by graphviz version 2.38.0 (20140413.2041)
 -->
<!-- Title: decode_phase0 Pages: 1 -->
<svg width="400pt" height="123pt"
 viewBox="0.00 0.00 400.00 123.00" xmlns="http://www.w3.org/2000/svg" xmlns:xlink="http://www.w3.org/1999/xlink">
<g id="graph0" class="graph" transform="scale(1 1) rotate(0) translate(4 119)">
<title>decode_phase0</title>
<!-- Node0 -->
<g id="node1" class="node"><title>Node0</title>
<polygon fill="#bfbfbf" stroke="black" points="0,-57.5 0,-76.5 85,-76.5 85,-57.5 0,-57.5"/>
<text text-anchor="middle" x="42.5" y="-64.5" font-family="Helvetica,sans-Serif" font-size="10.00">decode_phase0</text>
</g>
<!-- Node1 -->
<g id="node2" class="node"><title>Node1</title>
<g id="a_node2"><a xlink:href="../../d6/d74/bitmask_8c_ad67256bcd0a6b5b9e739bc889e22a45b.html#ad67256bcd0a6b5b9e739bc889e22a45b" target="_top" xlink:title="bitmask_check">
<polygon fill="none" stroke="black" points="125,-95.5 125,-114.5 208,-114.5 208,-95.5 125,-95.5"/>
<text text-anchor="middle" x="166.5" y="-102.5" font-family="Helvetica,sans-Serif" font-size="10.00">bitmask_check</text>
</a>
</g>
</g>
<!-- Node0&#45;&gt;Node1 -->
<g id="edge1" class="edge"><title>Node0&#45;&gt;Node1</title>
<path fill="none" stroke="midnightblue" d="M74.2858,-76.589C89.6013,-81.3594 108.317,-87.1888 124.8,-92.3229"/>
<polygon fill="midnightblue" stroke="midnightblue" points="124.136,-95.7818 134.724,-95.4141 126.217,-89.0985 124.136,-95.7818"/>
</g>
<!-- Node2 -->
<g id="node3" class="node"><title>Node2</title>
<g id="a_node3"><a xlink:href="../../d6/d74/bitmask_8c_a3b8b7d670ea2a2526b93623a8681341a.html#a3b8b7d670ea2a2526b93623a8681341a" target="_top" xlink:title="bitmask_gaps">
<polygon fill="none" stroke="black" points="128,-57.5 128,-76.5 205,-76.5 205,-57.5 128,-57.5"/>
<text text-anchor="middle" x="166.5" y="-64.5" font-family="Helvetica,sans-Serif" font-size="10.00">bitmask_gaps</text>
</a>
</g>
</g>
<!-- Node0&#45;&gt;Node2 -->
<g id="edge2" class="edge"><title>Node0&#45;&gt;Node2</title>
<path fill="none" stroke="midnightblue" d="M85.1443,-67C95.6063,-67 106.916,-67 117.654,-67"/>
<polygon fill="midnightblue" stroke="midnightblue" points="117.729,-70.5001 127.729,-67 117.729,-63.5001 117.729,-70.5001"/>
</g>
<!-- Node3 -->
<g id="node4" class="node"><title>Node3</title>
<g id="a_node4"><a xlink:href="../../da/de3/params_8c_a5e51228448fbdf5e0d4310916b8eea93.html#a5e51228448fbdf5e0d4310916b8eea93" target="_top" xlink:title="params_get_idxs">
<polygon fill="none" stroke="black" points="121,-19.5 121,-38.5 212,-38.5 212,-19.5 121,-19.5"/>
<text text-anchor="middle" x="166.5" y="-26.5" font-family="Helvetica,sans-Serif" font-size="10.00">params_get_idxs</text>
</a>
</g>
</g>
<!-- Node0&#45;&gt;Node3 -->
<g id="edge3" class="edge"><title>Node0&#45;&gt;Node3</title>
<path fill="none" stroke="midnightblue" d="M74.2858,-57.411C89.6013,-52.6406 108.317,-46.8112 124.8,-41.6771"/>
<polygon fill="midnightblue" stroke="midnightblue" points="126.217,-44.9015 134.724,-38.5859 124.136,-38.2182 126.217,-44.9015"/>
</g>
<!-- Node4 -->
<g id="node5" class="node"><title>Node4</title>
<g id="a_node5"><a xlink:href="../../da/de3/params_8c_a071cc3dcf4ecfd727003e3563af63add.html#a071cc3dcf4ecfd727003e3563af63add" target="_top" xlink:title="gen_tuple">
<polygon fill="none" stroke="black" points="248,-19.5 248,-38.5 307,-38.5 307,-19.5 248,-19.5"/>
<text text-anchor="middle" x="277.5" y="-26.5" font-family="Helvetica,sans-Serif" font-size="10.00">gen_tuple</text>
</a>
</g>
</g>
<!-- Node3&#45;&gt;Node4 -->
<g id="edge4" class="edge"><title>Node3&#45;&gt;Node4</title>
<path fill="none" stroke="midnightblue" d="M212.149,-29C220.665,-29 229.512,-29 237.823,-29"/>
<polygon fill="midnightblue" stroke="midnightblue" points="237.996,-32.5001 247.996,-29 237.996,-25.5001 237.996,-32.5001"/>
</g>
<!-- Node5 -->
<g id="node6" class="node"><title>Node5</title>
<g id="a_node6"><a xlink:href="../../da/de3/params_8c_aa429ac3cf74cd69c05967cd86ccec2c3.html#aa429ac3cf74cd69c05967cd86ccec2c3" target="_top" xlink:title="deg">
<polygon fill="none" stroke="black" points="351.5,-38.5 351.5,-57.5 383.5,-57.5 383.5,-38.5 351.5,-38.5"/>
<text text-anchor="middle" x="367.5" y="-45.5" font-family="Helvetica,sans-Serif" font-size="10.00">deg</text>
</a>
</g>
</g>
<!-- Node4&#45;&gt;Node5 -->
<g id="edge5" class="edge"><title>Node4&#45;&gt;Node5</title>
<path fill="none" stroke="midnightblue" d="M307.314,-35.2213C318.292,-37.5915 330.707,-40.272 341.321,-42.5637"/>
<polygon fill="midnightblue" stroke="midnightblue" points="340.702,-46.0106 351.216,-44.6999 342.179,-39.1682 340.702,-46.0106"/>
</g>
<!-- Node6 -->
<g id="node7" class="node"><title>Node6</title>
<g id="a_node7"><a xlink:href="../../d6/df4/rand_8c_a080635c045f160d270060da9f4d8e5b7.html#a080635c045f160d270060da9f4d8e5b7" target="_top" xlink:title="rnd_get">
<polygon fill="none" stroke="black" points="343,-0.5 343,-19.5 392,-19.5 392,-0.5 343,-0.5"/>
<text text-anchor="middle" x="367.5" y="-7.5" font-family="Helvetica,sans-Serif" font-size="10.00">rnd_get</text>
</a>
</g>
</g>
<!-- Node4&#45;&gt;Node6 -->
<g id="edge6" class="edge"><title>Node4&#45;&gt;Node6</title>
<path fill="none" stroke="midnightblue" d="M307.314,-22.7787C315.511,-21.009 324.509,-19.0663 332.96,-17.2416"/>
<polygon fill="midnightblue" stroke="midnightblue" points="333.871,-20.6257 342.907,-15.094 332.393,-13.7834 333.871,-20.6257"/>
</g>
</g>
</svg>
