<?xml version="1.0" encoding="UTF-8" standalone="no"?>
<!DOCTYPE svg PUBLIC "-//W3C//DTD SVG 1.1//EN"
 "http://www.w3.org/Graphics/SVG/1.1/DTD/svg11.dtd">
<!-- Generated by graphviz version 2.38.0 (20140413.2041)
 -->
<!-- Title: precode_matrix_intermediate1 Pages: 1 -->
<!--zoomable 85 -->
<svg id="main" version="1.1" xmlns="http://www.w3.org/2000/svg" xmlns:xlink="http://www.w3.org/1999/xlink" xml:space="preserve" onload="init(evt)">
<style type="text/css"><![CDATA[
.edge:hover path { stroke: red; }
.edge:hover polygon { stroke: red; fill: red; }
]]></style>
<script type="text/javascript"><![CDATA[
var edges = document.getElementsByTagName('g');
if (edges && edges.length) {
  for (var i=0;i<edges.length;i++) {
    if (edges[i].id.substr(0,4)=='edge') {
      edges[i].setAttribute('class','edge');
    }
  }
}
]]></script>
        <defs>
                <circle id="rim" cx="0" cy="0" r="7"/>
                <circle id="rim2" cx="0" cy="0" r="3.5"/>
                <g id="zoomPlus">
                        <use xlink:href="#rim" fill="#404040">
                                <set attributeName="fill" to="#808080" begin="zoomplus.mouseover" end="zoomplus.mouseout"/>
                        </use>
                        <path d="M-4,0h8M0,-4v8" fill="none" stroke="white" stroke-width="1.5" pointer-events="none"/>
                </g>
                <g id="zoomMin">
                        <use xlink:href="#rim" fill="#404040">
                                <set attributeName="fill" to="#808080" begin="zoomminus.mouseover" end="zoomminus.mouseout"/>
                        </use>
                        <path d="M-4,0h8" fill="none" stroke="white" stroke-width="1.5" pointer-events="none"/>
                </g>
                <g id="dirArrow">
                        <path fill="none" stroke="white" stroke-width="1.5" d="M0,-3.0v7 M-2.5,-0.5L0,-3.0L2.5,-0.5"/>
                </g>
               <g id="resetDef">
                       <use xlink:href="#rim2" fill="#404040">
                               <set attributeName="fill" to="#808080" begin="reset.mouseover" end="reset.mouseout"/>
                       </use>
               </g>
        </defs>

<script type="text/javascript">
var viewWidth = 820;
var viewHeight = 85;
var sectionId = 'dynsection-1';
</script>
<script xlink:href="../../svgpan.js"/>
<svg id="graph" class="graph">
<g id="viewport">
<title>precode_matrix_intermediate1</title>
<!-- Node26 -->
<g id="node1" class="node"><title>Node26</title>
<polygon fill="#bfbfbf" stroke="black" points="0,-19.5 0,-38.5 147,-38.5 147,-19.5 0,-19.5"/>
<text text-anchor="middle" x="73.5" y="-26.5" font-family="Helvetica,sans-Serif" font-size="10.00">precode_matrix_intermediate1</text>
</g>
<!-- Node27 -->
<g id="node2" class="node"><title>Node27</title>
<g id="a_node2"><a xlink:href="../../d6/da2/nanorq_8h_ad6a9288685637cdfe83303f66b087a29.html#ad6a9288685637cdfe83303f66b087a29" target="_top" xlink:title="nanorq_generate_symbols">
<polygon fill="none" stroke="black" points="191,-38.5 191,-57.5 322,-57.5 322,-38.5 191,-38.5"/>
<text text-anchor="middle" x="256.5" y="-45.5" font-family="Helvetica,sans-Serif" font-size="10.00">nanorq_generate_symbols</text>
</a>
</g>
</g>
<!-- Node26&#45;&gt;Node27 -->
<g id="edge1" class="edge"><title>Node26&#45;&gt;Node27</title>
<path fill="none" stroke="midnightblue" d="M157.327,-37.6945C168.559,-38.8736 179.949,-40.0692 190.8,-41.2083"/>
<polygon fill="midnightblue" stroke="midnightblue" points="157.387,-34.1817 147.077,-36.6185 156.657,-41.1435 157.387,-34.1817"/>
</g>
<!-- Node32 -->
<g id="node7" class="node"><title>Node32</title>
<g id="a_node7"><a xlink:href="../../da/def/precode_8h_a2b6a5db8f90fc98b364cb5ed3b5eca24.html#a2b6a5db8f90fc98b364cb5ed3b5eca24" target="_top" xlink:title="precode_matrix_intermediate2">
<polygon fill="none" stroke="black" points="183,-0.5 183,-19.5 330,-19.5 330,-0.5 183,-0.5"/>
<text text-anchor="middle" x="256.5" y="-7.5" font-family="Helvetica,sans-Serif" font-size="10.00">precode_matrix_intermediate2</text>
</a>
</g>
</g>
<!-- Node26&#45;&gt;Node32 -->
<g id="edge7" class="edge"><title>Node26&#45;&gt;Node32</title>
<path fill="none" stroke="midnightblue" d="M157.116,-20.3276C165.722,-19.4242 174.424,-18.5107 182.907,-17.6203"/>
<polygon fill="midnightblue" stroke="midnightblue" points="156.657,-16.8565 147.077,-21.3815 157.387,-23.8182 156.657,-16.8565"/>
</g>
<!-- Node28 -->
<g id="node3" class="node"><title>Node28</title>
<g id="a_node3"><a xlink:href="../../dd/d3f/encode_8c_a3c04138a5bfe5d72780bb7e82a18e627.html#a3c04138a5bfe5d72780bb7e82a18e627" target="_top" xlink:title="main">
<polygon fill="none" stroke="black" points="774,-57.5 774,-76.5 812,-76.5 812,-57.5 774,-57.5"/>
<text text-anchor="middle" x="793" y="-64.5" font-family="Helvetica,sans-Serif" font-size="10.00">main</text>
</a>
</g>
</g>
<!-- Node27&#45;&gt;Node28 -->
<g id="edge2" class="edge"><title>Node27&#45;&gt;Node28</title>
<path fill="none" stroke="midnightblue" d="M311.55,-59.3642C328.86,-62.4925 348.163,-65.45 366,-67 523.308,-80.6695 714.527,-71.5387 773.682,-68.1302"/>
<polygon fill="midnightblue" stroke="midnightblue" points="312.087,-55.904 301.615,-57.5119 310.804,-62.7854 312.087,-55.904"/>
</g>
<!-- Node29 -->
<g id="node4" class="node"><title>Node29</title>
<g id="a_node4"><a xlink:href="../../d6/da2/nanorq_8h_a956615eb4ea3ce34369951295e93f708.html#a956615eb4ea3ce34369951295e93f708" target="_top" xlink:title="nanorq_encode">
<polygon fill="none" stroke="black" points="384.5,-38.5 384.5,-57.5 467.5,-57.5 467.5,-38.5 384.5,-38.5"/>
<text text-anchor="middle" x="426" y="-45.5" font-family="Helvetica,sans-Serif" font-size="10.00">nanorq_encode</text>
</a>
</g>
</g>
<!-- Node27&#45;&gt;Node29 -->
<g id="edge3" class="edge"><title>Node27&#45;&gt;Node29</title>
<path fill="none" stroke="midnightblue" d="M332.609,-48C350.33,-48 368.572,-48 384.117,-48"/>
<polygon fill="midnightblue" stroke="midnightblue" points="332.26,-44.5001 322.26,-48 332.26,-51.5001 332.26,-44.5001"/>
</g>
<!-- Node30 -->
<g id="node5" class="node"><title>Node30</title>
<g id="a_node5"><a xlink:href="../../dd/d3f/encode_8c_a0993cb61d7e4c1b1a1606d159f5b1410.html#a0993cb61d7e4c1b1a1606d159f5b1410" target="_top" xlink:title="dump_esi">
<polygon fill="none" stroke="black" points="548,-38.5 548,-57.5 607,-57.5 607,-38.5 548,-38.5"/>
<text text-anchor="middle" x="577.5" y="-45.5" font-family="Helvetica,sans-Serif" font-size="10.00">dump_esi</text>
</a>
</g>
</g>
<!-- Node29&#45;&gt;Node30 -->
<g id="edge4" class="edge"><title>Node29&#45;&gt;Node30</title>
<path fill="none" stroke="midnightblue" d="M477.907,-48C501.14,-48 527.805,-48 547.542,-48"/>
<polygon fill="midnightblue" stroke="midnightblue" points="477.852,-44.5001 467.852,-48 477.851,-51.5001 477.852,-44.5001"/>
</g>
<!-- Node31 -->
<g id="node6" class="node"><title>Node31</title>
<g id="a_node6"><a xlink:href="../../dd/d3f/encode_8c_ae7f8bbf4dcea92f802d2521fa0264f93.html#ae7f8bbf4dcea92f802d2521fa0264f93" target="_top" xlink:title="dump_block">
<polygon fill="none" stroke="black" points="669,-38.5 669,-57.5 738,-57.5 738,-38.5 669,-38.5"/>
<text text-anchor="middle" x="703.5" y="-45.5" font-family="Helvetica,sans-Serif" font-size="10.00">dump_block</text>
</a>
</g>
</g>
<!-- Node30&#45;&gt;Node31 -->
<g id="edge5" class="edge"><title>Node30&#45;&gt;Node31</title>
<path fill="none" stroke="midnightblue" d="M617.607,-48C633.984,-48 652.841,-48 668.616,-48"/>
<polygon fill="midnightblue" stroke="midnightblue" points="617.26,-44.5001 607.26,-48 617.26,-51.5001 617.26,-44.5001"/>
</g>
<!-- Node31&#45;&gt;Node28 -->
<g id="edge6" class="edge"><title>Node31&#45;&gt;Node28</title>
<path fill="none" stroke="midnightblue" d="M747.916,-57.4275C757.058,-59.4126 766.22,-61.402 773.804,-63.0488"/>
<polygon fill="midnightblue" stroke="midnightblue" points="748.595,-53.9933 738.08,-55.2916 747.109,-60.8339 748.595,-53.9933"/>
</g>
<!-- Node33 -->
<g id="node8" class="node"><title>Node33</title>
<g id="a_node8"><a xlink:href="../../da/def/precode_8h_aee2113e8f8d7e54052fc8db5dd71fd1f.html#aee2113e8f8d7e54052fc8db5dd71fd1f" target="_top" xlink:title="precode_matrix_decode">
<polygon fill="none" stroke="black" points="366,-0.5 366,-19.5 486,-19.5 486,-0.5 366,-0.5"/>
<text text-anchor="middle" x="426" y="-7.5" font-family="Helvetica,sans-Serif" font-size="10.00">precode_matrix_decode</text>
</a>
</g>
</g>
<!-- Node32&#45;&gt;Node33 -->
<g id="edge8" class="edge"><title>Node32&#45;&gt;Node33</title>
<path fill="none" stroke="midnightblue" d="M340.496,-10C349.05,-10 357.614,-10 365.832,-10"/>
<polygon fill="midnightblue" stroke="midnightblue" points="340.481,-6.5001 330.481,-10 340.481,-13.5001 340.481,-6.5001"/>
</g>
<!-- Node34 -->
<g id="node9" class="node"><title>Node34</title>
<g id="a_node9"><a xlink:href="../../d6/da2/nanorq_8h_aa1dcf83669e76931be0e6e7a1f02c185.html#aa1dcf83669e76931be0e6e7a1f02c185" target="_top" xlink:title="nanorq_decode_block">
<polygon fill="none" stroke="black" points="522,-0.5 522,-19.5 633,-19.5 633,-0.5 522,-0.5"/>
<text text-anchor="middle" x="577.5" y="-7.5" font-family="Helvetica,sans-Serif" font-size="10.00">nanorq_decode_block</text>
</a>
</g>
</g>
<!-- Node33&#45;&gt;Node34 -->
<g id="edge9" class="edge"><title>Node33&#45;&gt;Node34</title>
<path fill="none" stroke="midnightblue" d="M496.104,-10C504.7,-10 513.396,-10 521.734,-10"/>
<polygon fill="midnightblue" stroke="midnightblue" points="496.086,-6.5001 486.086,-10 496.086,-13.5001 496.086,-6.5001"/>
</g>
<!-- Node35 -->
<g id="node10" class="node"><title>Node35</title>
<g id="a_node10"><a xlink:href="../../da/d0d/decode_8c_a3c04138a5bfe5d72780bb7e82a18e627.html#a3c04138a5bfe5d72780bb7e82a18e627" target="_top" xlink:title="main">
<polygon fill="none" stroke="black" points="684.5,-0.5 684.5,-19.5 722.5,-19.5 722.5,-0.5 684.5,-0.5"/>
<text text-anchor="middle" x="703.5" y="-7.5" font-family="Helvetica,sans-Serif" font-size="10.00">main</text>
</a>
</g>
</g>
<!-- Node34&#45;&gt;Node35 -->
<g id="edge10" class="edge"><title>Node34&#45;&gt;Node35</title>
<path fill="none" stroke="midnightblue" d="M643.661,-10C658.706,-10 673.503,-10 684.494,-10"/>
<polygon fill="midnightblue" stroke="midnightblue" points="643.249,-6.5001 633.249,-10 643.249,-13.5001 643.249,-6.5001"/>
</g>
</g>
</svg>
        <g id="navigator" transform="translate(0 0)" fill="#404254">
                <rect fill="#f2f5e9" fill-opacity="0.5" stroke="#606060" stroke-width=".5" x="0" y="0" width="60" height="60"/>
                <use id="zoomplus" xlink:href="#zoomPlus" x="17" y="9" onmousedown="handleZoom(evt,'in')"/>
                <use id="zoomminus" xlink:href="#zoomMin" x="42" y="9" onmousedown="handleZoom(evt,'out')"/>
                <use id="reset" xlink:href="#resetDef" x="30" y="36" onmousedown="handleReset()"/>
                <g id="arrowUp" xlink:href="#dirArrow" transform="translate(30 24)" onmousedown="handlePan(0,-1)">
                  <use xlink:href="#rim" fill="#404040">
                        <set attributeName="fill" to="#808080" begin="arrowUp.mouseover" end="arrowUp.mouseout"/>
                  </use>
                  <path fill="none" stroke="white" stroke-width="1.5" d="M0,-3.0v7 M-2.5,-0.5L0,-3.0L2.5,-0.5"/>
                </g>
                <g id="arrowRight" xlink:href="#dirArrow" transform="rotate(90) translate(36 -43)" onmousedown="handlePan(1,0)">
                  <use xlink:href="#rim" fill="#404040">
                        <set attributeName="fill" to="#808080" begin="arrowRight.mouseover" end="arrowRight.mouseout"/>
                  </use>
                  <path fill="none" stroke="white" stroke-width="1.5" d="M0,-3.0v7 M-2.5,-0.5L0,-3.0L2.5,-0.5"/>
                </g>
                <g id="arrowDown" xlink:href="#dirArrow" transform="rotate(180) translate(-30 -48)" onmousedown="handlePan(0,1)">
                  <use xlink:href="#rim" fill="#404040">
                        <set attributeName="fill" to="#808080" begin="arrowDown.mouseover" end="arrowDown.mouseout"/>
                  </use>
                  <path fill="none" stroke="white" stroke-width="1.5" d="M0,-3.0v7 M-2.5,-0.5L0,-3.0L2.5,-0.5"/>
                </g>
                <g id="arrowLeft" xlink:href="#dirArrow" transform="rotate(270) translate(-36 17)" onmousedown="handlePan(-1,0)">
                  <use xlink:href="#rim" fill="#404040">
                        <set attributeName="fill" to="#808080" begin="arrowLeft.mouseover" end="arrowLeft.mouseout"/>
                  </use>
                  <path fill="none" stroke="white" stroke-width="1.5" d="M0,-3.0v7 M-2.5,-0.5L0,-3.0L2.5,-0.5"/>
                </g>
        </g>
        <svg viewBox="0 0 15 15" width="100%" height="30px" preserveAspectRatio="xMaxYMin meet">
         <g id="arrow_out" transform="scale(0.3 0.3)">
          <a xlink:href="precode_8c_a262ba8efa6b500c1e7a3cb0451245291_a262ba8efa6b500c1e7a3cb0451245291_icgraph_org.svg" target="_base">
           <rect id="button" ry="5" rx="5" y="6" x="6" height="38" width="38"
                fill="#f2f5e9" fill-opacity="0.5" stroke="#606060" stroke-width="1.0"/>
           <path id="arrow"
             d="M 11.500037,31.436501 C 11.940474,20.09759 22.043105,11.32322 32.158766,21.979434 L 37.068811,17.246167 C 37.068811,17.246167 37.088388,32 37.088388,32 L 22.160133,31.978069 C 22.160133,31.978069 26.997745,27.140456 26.997745,27.140456 C 18.528582,18.264221 13.291696,25.230495 11.500037,31.436501 z"
             style="fill:#404040;"/>
          </a>
         </g>
        </svg>
</svg>
