<?xml version="1.0" encoding="UTF-8" standalone="no"?>
<!DOCTYPE svg PUBLIC "-//W3C//DTD SVG 1.1//EN"
 "http://www.w3.org/Graphics/SVG/1.1/DTD/svg11.dtd">
<!-- Generated by graphviz version 2.38.0 (20140413.2041)
 -->
<!-- Title: precode_matrix_make_GAMMA Pages: 1 -->
<svg width="1021pt" height="85pt"
 viewBox="0.00 0.00 1021.00 85.00" xmlns="http://www.w3.org/2000/svg" xmlns:xlink="http://www.w3.org/1999/xlink">
<g id="graph0" class="graph" transform="scale(1 1) rotate(0) translate(4 81)">
<title>precode_matrix_make_GAMMA</title>
<!-- Node3 -->
<g id="node1" class="node"><title>Node3</title>
<polygon fill="#bfbfbf" stroke="black" points="0,-14 0,-44 113,-44 113,-14 0,-14"/>
<text text-anchor="start" x="8" y="-32" font-family="Helvetica,sans-Serif" font-size="10.00">precode_matrix_make</text>
<text text-anchor="middle" x="56.5" y="-21" font-family="Helvetica,sans-Serif" font-size="10.00">_GAMMA</text>
</g>
<!-- Node4 -->
<g id="node2" class="node"><title>Node4</title>
<g id="a_node2"><a xlink:href="../../d6/d1a/precode_8c_a64e2c5739177d2991dea9ab54f2469b6.html#a64e2c5739177d2991dea9ab54f2469b6" target="_top" xlink:title="precode_matrix_init_HDPC">
<polygon fill="none" stroke="black" points="149,-19.5 149,-38.5 285,-38.5 285,-19.5 149,-19.5"/>
<text text-anchor="middle" x="217" y="-26.5" font-family="Helvetica,sans-Serif" font-size="10.00">precode_matrix_init_HDPC</text>
</a>
</g>
</g>
<!-- Node3&#45;&gt;Node4 -->
<g id="edge1" class="edge"><title>Node3&#45;&gt;Node4</title>
<path fill="none" stroke="midnightblue" d="M123.506,-29C131.911,-29 140.521,-29 148.942,-29"/>
<polygon fill="midnightblue" stroke="midnightblue" points="123.381,-25.5001 113.381,-29 123.381,-32.5001 123.381,-25.5001"/>
</g>
<!-- Node5 -->
<g id="node3" class="node"><title>Node5</title>
<g id="a_node3"><a xlink:href="../../da/def/precode_8h_a85c0aa4f7900eccf336228d43b7c133c.html#a85c0aa4f7900eccf336228d43b7c133c" target="_top" xlink:title="precode_matrix_gen">
<polygon fill="none" stroke="black" points="321,-19.5 321,-38.5 425,-38.5 425,-19.5 321,-19.5"/>
<text text-anchor="middle" x="373" y="-26.5" font-family="Helvetica,sans-Serif" font-size="10.00">precode_matrix_gen</text>
</a>
</g>
</g>
<!-- Node4&#45;&gt;Node5 -->
<g id="edge2" class="edge"><title>Node4&#45;&gt;Node5</title>
<path fill="none" stroke="midnightblue" d="M295.271,-29C303.957,-29 312.639,-29 320.874,-29"/>
<polygon fill="midnightblue" stroke="midnightblue" points="295.099,-25.5001 285.099,-29 295.099,-32.5001 295.099,-25.5001"/>
</g>
<!-- Node6 -->
<g id="node4" class="node"><title>Node6</title>
<g id="a_node4"><a xlink:href="../../d6/da2/nanorq_8h_ad6a9288685637cdfe83303f66b087a29.html#ad6a9288685637cdfe83303f66b087a29" target="_top" xlink:title="nanorq_generate_symbols">
<polygon fill="none" stroke="black" points="461,-38.5 461,-57.5 592,-57.5 592,-38.5 461,-38.5"/>
<text text-anchor="middle" x="526.5" y="-45.5" font-family="Helvetica,sans-Serif" font-size="10.00">nanorq_generate_symbols</text>
</a>
</g>
</g>
<!-- Node5&#45;&gt;Node6 -->
<g id="edge3" class="edge"><title>Node5&#45;&gt;Node6</title>
<path fill="none" stroke="midnightblue" d="M435.371,-36.6967C443.758,-37.7485 452.388,-38.8309 460.832,-39.8898"/>
<polygon fill="midnightblue" stroke="midnightblue" points="435.649,-33.2042 425.291,-35.4325 434.778,-40.1498 435.649,-33.2042"/>
</g>
<!-- Node11 -->
<g id="node9" class="node"><title>Node11</title>
<g id="a_node9"><a xlink:href="../../da/def/precode_8h_aee2113e8f8d7e54052fc8db5dd71fd1f.html#aee2113e8f8d7e54052fc8db5dd71fd1f" target="_top" xlink:title="precode_matrix_decode">
<polygon fill="none" stroke="black" points="466.5,-0.5 466.5,-19.5 586.5,-19.5 586.5,-0.5 466.5,-0.5"/>
<text text-anchor="middle" x="526.5" y="-7.5" font-family="Helvetica,sans-Serif" font-size="10.00">precode_matrix_decode</text>
</a>
</g>
</g>
<!-- Node5&#45;&gt;Node11 -->
<g id="edge9" class="edge"><title>Node5&#45;&gt;Node11</title>
<path fill="none" stroke="midnightblue" d="M435.385,-21.3015C445.63,-20.0167 456.239,-18.6862 466.425,-17.4088"/>
<polygon fill="midnightblue" stroke="midnightblue" points="434.778,-17.8502 425.291,-22.5675 435.649,-24.7958 434.778,-17.8502"/>
</g>
<!-- Node7 -->
<g id="node5" class="node"><title>Node7</title>
<g id="a_node5"><a xlink:href="../../dd/d3f/encode_8c_a3c04138a5bfe5d72780bb7e82a18e627.html#a3c04138a5bfe5d72780bb7e82a18e627" target="_top" xlink:title="main">
<polygon fill="none" stroke="black" points="975,-57.5 975,-76.5 1013,-76.5 1013,-57.5 975,-57.5"/>
<text text-anchor="middle" x="994" y="-64.5" font-family="Helvetica,sans-Serif" font-size="10.00">main</text>
</a>
</g>
</g>
<!-- Node6&#45;&gt;Node7 -->
<g id="edge4" class="edge"><title>Node6&#45;&gt;Node7</title>
<path fill="none" stroke="midnightblue" d="M578.429,-59.5383C594.228,-62.6013 611.757,-65.4781 628,-67 760.493,-79.4142 921.228,-71.4614 974.714,-68.2025"/>
<polygon fill="midnightblue" stroke="midnightblue" points="578.82,-56.0471 568.327,-57.5109 577.443,-62.9103 578.82,-56.0471"/>
</g>
<!-- Node8 -->
<g id="node6" class="node"><title>Node8</title>
<g id="a_node6"><a xlink:href="../../d6/da2/nanorq_8h_a956615eb4ea3ce34369951295e93f708.html#a956615eb4ea3ce34369951295e93f708" target="_top" xlink:title="nanorq_encode">
<polygon fill="none" stroke="black" points="642,-38.5 642,-57.5 725,-57.5 725,-38.5 642,-38.5"/>
<text text-anchor="middle" x="683.5" y="-45.5" font-family="Helvetica,sans-Serif" font-size="10.00">nanorq_encode</text>
</a>
</g>
</g>
<!-- Node6&#45;&gt;Node8 -->
<g id="edge5" class="edge"><title>Node6&#45;&gt;Node8</title>
<path fill="none" stroke="midnightblue" d="M602.621,-48C616.13,-48 629.736,-48 641.795,-48"/>
<polygon fill="midnightblue" stroke="midnightblue" points="602.336,-44.5001 592.336,-48 602.336,-51.5001 602.336,-44.5001"/>
</g>
<!-- Node9 -->
<g id="node7" class="node"><title>Node9</title>
<g id="a_node7"><a xlink:href="../../dd/d3f/encode_8c_a0993cb61d7e4c1b1a1606d159f5b1410.html#a0993cb61d7e4c1b1a1606d159f5b1410" target="_top" xlink:title="dump_esi">
<polygon fill="none" stroke="black" points="775,-38.5 775,-57.5 834,-57.5 834,-38.5 775,-38.5"/>
<text text-anchor="middle" x="804.5" y="-45.5" font-family="Helvetica,sans-Serif" font-size="10.00">dump_esi</text>
</a>
</g>
</g>
<!-- Node8&#45;&gt;Node9 -->
<g id="edge6" class="edge"><title>Node8&#45;&gt;Node9</title>
<path fill="none" stroke="midnightblue" d="M735.263,-48C748.744,-48 762.838,-48 774.692,-48"/>
<polygon fill="midnightblue" stroke="midnightblue" points="735.12,-44.5001 725.12,-48 735.12,-51.5001 735.12,-44.5001"/>
</g>
<!-- Node10 -->
<g id="node8" class="node"><title>Node10</title>
<g id="a_node8"><a xlink:href="../../dd/d3f/encode_8c_ae7f8bbf4dcea92f802d2521fa0264f93.html#ae7f8bbf4dcea92f802d2521fa0264f93" target="_top" xlink:title="dump_block">
<polygon fill="none" stroke="black" points="870,-38.5 870,-57.5 939,-57.5 939,-38.5 870,-38.5"/>
<text text-anchor="middle" x="904.5" y="-45.5" font-family="Helvetica,sans-Serif" font-size="10.00">dump_block</text>
</a>
</g>
</g>
<!-- Node9&#45;&gt;Node10 -->
<g id="edge7" class="edge"><title>Node9&#45;&gt;Node10</title>
<path fill="none" stroke="midnightblue" d="M844.17,-48C852.653,-48 861.569,-48 869.837,-48"/>
<polygon fill="midnightblue" stroke="midnightblue" points="844.109,-44.5001 834.109,-48 844.109,-51.5001 844.109,-44.5001"/>
</g>
<!-- Node10&#45;&gt;Node7 -->
<g id="edge8" class="edge"><title>Node10&#45;&gt;Node7</title>
<path fill="none" stroke="midnightblue" d="M948.916,-57.4275C958.058,-59.4126 967.22,-61.402 974.804,-63.0488"/>
<polygon fill="midnightblue" stroke="midnightblue" points="949.595,-53.9933 939.08,-55.2916 948.109,-60.8339 949.595,-53.9933"/>
</g>
<!-- Node12 -->
<g id="node10" class="node"><title>Node12</title>
<g id="a_node10"><a xlink:href="../../d6/da2/nanorq_8h_aa1dcf83669e76931be0e6e7a1f02c185.html#aa1dcf83669e76931be0e6e7a1f02c185" target="_top" xlink:title="nanorq_decode_block">
<polygon fill="none" stroke="black" points="628,-0.5 628,-19.5 739,-19.5 739,-0.5 628,-0.5"/>
<text text-anchor="middle" x="683.5" y="-7.5" font-family="Helvetica,sans-Serif" font-size="10.00">nanorq_decode_block</text>
</a>
</g>
</g>
<!-- Node11&#45;&gt;Node12 -->
<g id="edge10" class="edge"><title>Node11&#45;&gt;Node12</title>
<path fill="none" stroke="midnightblue" d="M596.866,-10C607.285,-10 617.903,-10 627.954,-10"/>
<polygon fill="midnightblue" stroke="midnightblue" points="596.541,-6.5001 586.541,-10 596.541,-13.5001 596.541,-6.5001"/>
</g>
<!-- Node13 -->
<g id="node11" class="node"><title>Node13</title>
<g id="a_node11"><a xlink:href="../../da/d0d/decode_8c_a3c04138a5bfe5d72780bb7e82a18e627.html#a3c04138a5bfe5d72780bb7e82a18e627" target="_top" xlink:title="main">
<polygon fill="none" stroke="black" points="785.5,-0.5 785.5,-19.5 823.5,-19.5 823.5,-0.5 785.5,-0.5"/>
<text text-anchor="middle" x="804.5" y="-7.5" font-family="Helvetica,sans-Serif" font-size="10.00">main</text>
</a>
</g>
</g>
<!-- Node12&#45;&gt;Node13 -->
<g id="edge11" class="edge"><title>Node12&#45;&gt;Node13</title>
<path fill="none" stroke="midnightblue" d="M749.271,-10C762.507,-10 775.393,-10 785.281,-10"/>
<polygon fill="midnightblue" stroke="midnightblue" points="749.124,-6.5001 739.124,-10 749.124,-13.5001 749.124,-6.5001"/>
</g>
</g>
</svg>
