<?xml version="1.0" encoding="UTF-8" standalone="no"?>
<!DOCTYPE svg PUBLIC "-//W3C//DTD SVG 1.1//EN"
 "http://www.w3.org/Graphics/SVG/1.1/DTD/svg11.dtd">
<!-- Generated by graphviz version 2.38.0 (20140413.2041)
 -->
<!-- Title: precode_matrix_gen Pages: 1 -->
<svg width="700pt" height="85pt"
 viewBox="0.00 0.00 700.00 85.00" xmlns="http://www.w3.org/2000/svg" xmlns:xlink="http://www.w3.org/1999/xlink">
<g id="graph0" class="graph" transform="scale(1 1) rotate(0) translate(4 81)">
<title>precode_matrix_gen</title>
<!-- Node16 -->
<g id="node1" class="node"><title>Node16</title>
<polygon fill="#bfbfbf" stroke="black" points="0,-19.5 0,-38.5 104,-38.5 104,-19.5 0,-19.5"/>
<text text-anchor="middle" x="52" y="-26.5" font-family="Helvetica,sans-Serif" font-size="10.00">precode_matrix_gen</text>
</g>
<!-- Node17 -->
<g id="node2" class="node"><title>Node17</title>
<g id="a_node2"><a xlink:href="../../d6/da2/nanorq_8h_ad6a9288685637cdfe83303f66b087a29.html#ad6a9288685637cdfe83303f66b087a29" target="_top" xlink:title="nanorq_generate_symbols">
<polygon fill="none" stroke="black" points="140,-38.5 140,-57.5 271,-57.5 271,-38.5 140,-38.5"/>
<text text-anchor="middle" x="205.5" y="-45.5" font-family="Helvetica,sans-Serif" font-size="10.00">nanorq_generate_symbols</text>
</a>
</g>
</g>
<!-- Node16&#45;&gt;Node17 -->
<g id="edge1" class="edge"><title>Node16&#45;&gt;Node17</title>
<path fill="none" stroke="midnightblue" d="M114.371,-36.6967C122.758,-37.7485 131.388,-38.8309 139.832,-39.8898"/>
<polygon fill="midnightblue" stroke="midnightblue" points="114.649,-33.2042 104.291,-35.4325 113.778,-40.1498 114.649,-33.2042"/>
</g>
<!-- Node22 -->
<g id="node7" class="node"><title>Node22</title>
<g id="a_node7"><a xlink:href="../../da/def/precode_8h_aee2113e8f8d7e54052fc8db5dd71fd1f.html#aee2113e8f8d7e54052fc8db5dd71fd1f" target="_top" xlink:title="precode_matrix_decode">
<polygon fill="none" stroke="black" points="145.5,-0.5 145.5,-19.5 265.5,-19.5 265.5,-0.5 145.5,-0.5"/>
<text text-anchor="middle" x="205.5" y="-7.5" font-family="Helvetica,sans-Serif" font-size="10.00">precode_matrix_decode</text>
</a>
</g>
</g>
<!-- Node16&#45;&gt;Node22 -->
<g id="edge7" class="edge"><title>Node16&#45;&gt;Node22</title>
<path fill="none" stroke="midnightblue" d="M114.385,-21.3015C124.63,-20.0167 135.239,-18.6862 145.425,-17.4088"/>
<polygon fill="midnightblue" stroke="midnightblue" points="113.778,-17.8502 104.291,-22.5675 114.649,-24.7958 113.778,-17.8502"/>
</g>
<!-- Node18 -->
<g id="node3" class="node"><title>Node18</title>
<g id="a_node3"><a xlink:href="../../dd/d3f/encode_8c_a3c04138a5bfe5d72780bb7e82a18e627.html#a3c04138a5bfe5d72780bb7e82a18e627" target="_top" xlink:title="main">
<polygon fill="none" stroke="black" points="654,-57.5 654,-76.5 692,-76.5 692,-57.5 654,-57.5"/>
<text text-anchor="middle" x="673" y="-64.5" font-family="Helvetica,sans-Serif" font-size="10.00">main</text>
</a>
</g>
</g>
<!-- Node17&#45;&gt;Node18 -->
<g id="edge2" class="edge"><title>Node17&#45;&gt;Node18</title>
<path fill="none" stroke="midnightblue" d="M257.429,-59.5383C273.228,-62.6013 290.757,-65.4781 307,-67 439.493,-79.4142 600.228,-71.4614 653.714,-68.2025"/>
<polygon fill="midnightblue" stroke="midnightblue" points="257.82,-56.0471 247.327,-57.5109 256.443,-62.9103 257.82,-56.0471"/>
</g>
<!-- Node19 -->
<g id="node4" class="node"><title>Node19</title>
<g id="a_node4"><a xlink:href="../../d6/da2/nanorq_8h_a956615eb4ea3ce34369951295e93f708.html#a956615eb4ea3ce34369951295e93f708" target="_top" xlink:title="nanorq_encode">
<polygon fill="none" stroke="black" points="321,-38.5 321,-57.5 404,-57.5 404,-38.5 321,-38.5"/>
<text text-anchor="middle" x="362.5" y="-45.5" font-family="Helvetica,sans-Serif" font-size="10.00">nanorq_encode</text>
</a>
</g>
</g>
<!-- Node17&#45;&gt;Node19 -->
<g id="edge3" class="edge"><title>Node17&#45;&gt;Node19</title>
<path fill="none" stroke="midnightblue" d="M281.621,-48C295.13,-48 308.736,-48 320.795,-48"/>
<polygon fill="midnightblue" stroke="midnightblue" points="281.336,-44.5001 271.336,-48 281.336,-51.5001 281.336,-44.5001"/>
</g>
<!-- Node20 -->
<g id="node5" class="node"><title>Node20</title>
<g id="a_node5"><a xlink:href="../../dd/d3f/encode_8c_a0993cb61d7e4c1b1a1606d159f5b1410.html#a0993cb61d7e4c1b1a1606d159f5b1410" target="_top" xlink:title="dump_esi">
<polygon fill="none" stroke="black" points="454,-38.5 454,-57.5 513,-57.5 513,-38.5 454,-38.5"/>
<text text-anchor="middle" x="483.5" y="-45.5" font-family="Helvetica,sans-Serif" font-size="10.00">dump_esi</text>
</a>
</g>
</g>
<!-- Node19&#45;&gt;Node20 -->
<g id="edge4" class="edge"><title>Node19&#45;&gt;Node20</title>
<path fill="none" stroke="midnightblue" d="M414.263,-48C427.744,-48 441.838,-48 453.692,-48"/>
<polygon fill="midnightblue" stroke="midnightblue" points="414.12,-44.5001 404.12,-48 414.12,-51.5001 414.12,-44.5001"/>
</g>
<!-- Node21 -->
<g id="node6" class="node"><title>Node21</title>
<g id="a_node6"><a xlink:href="../../dd/d3f/encode_8c_ae7f8bbf4dcea92f802d2521fa0264f93.html#ae7f8bbf4dcea92f802d2521fa0264f93" target="_top" xlink:title="dump_block">
<polygon fill="none" stroke="black" points="549,-38.5 549,-57.5 618,-57.5 618,-38.5 549,-38.5"/>
<text text-anchor="middle" x="583.5" y="-45.5" font-family="Helvetica,sans-Serif" font-size="10.00">dump_block</text>
</a>
</g>
</g>
<!-- Node20&#45;&gt;Node21 -->
<g id="edge5" class="edge"><title>Node20&#45;&gt;Node21</title>
<path fill="none" stroke="midnightblue" d="M523.17,-48C531.653,-48 540.569,-48 548.837,-48"/>
<polygon fill="midnightblue" stroke="midnightblue" points="523.109,-44.5001 513.109,-48 523.109,-51.5001 523.109,-44.5001"/>
</g>
<!-- Node21&#45;&gt;Node18 -->
<g id="edge6" class="edge"><title>Node21&#45;&gt;Node18</title>
<path fill="none" stroke="midnightblue" d="M627.916,-57.4275C637.058,-59.4126 646.22,-61.402 653.804,-63.0488"/>
<polygon fill="midnightblue" stroke="midnightblue" points="628.595,-53.9933 618.08,-55.2916 627.109,-60.8339 628.595,-53.9933"/>
</g>
<!-- Node23 -->
<g id="node8" class="node"><title>Node23</title>
<g id="a_node8"><a xlink:href="../../d6/da2/nanorq_8h_aa1dcf83669e76931be0e6e7a1f02c185.html#aa1dcf83669e76931be0e6e7a1f02c185" target="_top" xlink:title="nanorq_decode_block">
<polygon fill="none" stroke="black" points="307,-0.5 307,-19.5 418,-19.5 418,-0.5 307,-0.5"/>
<text text-anchor="middle" x="362.5" y="-7.5" font-family="Helvetica,sans-Serif" font-size="10.00">nanorq_decode_block</text>
</a>
</g>
</g>
<!-- Node22&#45;&gt;Node23 -->
<g id="edge8" class="edge"><title>Node22&#45;&gt;Node23</title>
<path fill="none" stroke="midnightblue" d="M275.866,-10C286.285,-10 296.903,-10 306.954,-10"/>
<polygon fill="midnightblue" stroke="midnightblue" points="275.541,-6.5001 265.541,-10 275.541,-13.5001 275.541,-6.5001"/>
</g>
<!-- Node24 -->
<g id="node9" class="node"><title>Node24</title>
<g id="a_node9"><a xlink:href="../../da/d0d/decode_8c_a3c04138a5bfe5d72780bb7e82a18e627.html#a3c04138a5bfe5d72780bb7e82a18e627" target="_top" xlink:title="main">
<polygon fill="none" stroke="black" points="464.5,-0.5 464.5,-19.5 502.5,-19.5 502.5,-0.5 464.5,-0.5"/>
<text text-anchor="middle" x="483.5" y="-7.5" font-family="Helvetica,sans-Serif" font-size="10.00">main</text>
</a>
</g>
</g>
<!-- Node23&#45;&gt;Node24 -->
<g id="edge9" class="edge"><title>Node23&#45;&gt;Node24</title>
<path fill="none" stroke="midnightblue" d="M428.271,-10C441.507,-10 454.393,-10 464.281,-10"/>
<polygon fill="midnightblue" stroke="midnightblue" points="428.124,-6.5001 418.124,-10 428.124,-13.5001 428.124,-6.5001"/>
</g>
</g>
</svg>
