<?xml version="1.0" encoding="UTF-8" standalone="no"?>
<!DOCTYPE svg PUBLIC "-//W3C//DTD SVG 1.1//EN"
 "http://www.w3.org/Graphics/SVG/1.1/DTD/svg11.dtd">
<!-- Generated by graphviz version 2.38.0 (20140413.2041)
 -->
<!-- Title: precode_matrix_init_HDPC Pages: 1 -->
<svg width="872pt" height="85pt"
 viewBox="0.00 0.00 872.00 85.00" xmlns="http://www.w3.org/2000/svg" xmlns:xlink="http://www.w3.org/1999/xlink">
<g id="graph0" class="graph" transform="scale(1 1) rotate(0) translate(4 81)">
<title>precode_matrix_init_HDPC</title>
<!-- Node8 -->
<g id="node1" class="node"><title>Node8</title>
<polygon fill="#bfbfbf" stroke="black" points="0,-19.5 0,-38.5 136,-38.5 136,-19.5 0,-19.5"/>
<text text-anchor="middle" x="68" y="-26.5" font-family="Helvetica,sans-Serif" font-size="10.00">precode_matrix_init_HDPC</text>
</g>
<!-- Node9 -->
<g id="node2" class="node"><title>Node9</title>
<g id="a_node2"><a xlink:href="../../da/def/precode_8h_a85c0aa4f7900eccf336228d43b7c133c.html#a85c0aa4f7900eccf336228d43b7c133c" target="_top" xlink:title="precode_matrix_gen">
<polygon fill="none" stroke="black" points="172,-19.5 172,-38.5 276,-38.5 276,-19.5 172,-19.5"/>
<text text-anchor="middle" x="224" y="-26.5" font-family="Helvetica,sans-Serif" font-size="10.00">precode_matrix_gen</text>
</a>
</g>
</g>
<!-- Node8&#45;&gt;Node9 -->
<g id="edge1" class="edge"><title>Node8&#45;&gt;Node9</title>
<path fill="none" stroke="midnightblue" d="M146.271,-29C154.957,-29 163.639,-29 171.874,-29"/>
<polygon fill="midnightblue" stroke="midnightblue" points="146.099,-25.5001 136.099,-29 146.099,-32.5001 146.099,-25.5001"/>
</g>
<!-- Node10 -->
<g id="node3" class="node"><title>Node10</title>
<g id="a_node3"><a xlink:href="../../d6/da2/nanorq_8h_ad6a9288685637cdfe83303f66b087a29.html#ad6a9288685637cdfe83303f66b087a29" target="_top" xlink:title="nanorq_generate_symbols">
<polygon fill="none" stroke="black" points="312,-38.5 312,-57.5 443,-57.5 443,-38.5 312,-38.5"/>
<text text-anchor="middle" x="377.5" y="-45.5" font-family="Helvetica,sans-Serif" font-size="10.00">nanorq_generate_symbols</text>
</a>
</g>
</g>
<!-- Node9&#45;&gt;Node10 -->
<g id="edge2" class="edge"><title>Node9&#45;&gt;Node10</title>
<path fill="none" stroke="midnightblue" d="M286.371,-36.6967C294.758,-37.7485 303.388,-38.8309 311.832,-39.8898"/>
<polygon fill="midnightblue" stroke="midnightblue" points="286.649,-33.2042 276.291,-35.4325 285.778,-40.1498 286.649,-33.2042"/>
</g>
<!-- Node15 -->
<g id="node8" class="node"><title>Node15</title>
<g id="a_node8"><a xlink:href="../../da/def/precode_8h_aee2113e8f8d7e54052fc8db5dd71fd1f.html#aee2113e8f8d7e54052fc8db5dd71fd1f" target="_top" xlink:title="precode_matrix_decode">
<polygon fill="none" stroke="black" points="317.5,-0.5 317.5,-19.5 437.5,-19.5 437.5,-0.5 317.5,-0.5"/>
<text text-anchor="middle" x="377.5" y="-7.5" font-family="Helvetica,sans-Serif" font-size="10.00">precode_matrix_decode</text>
</a>
</g>
</g>
<!-- Node9&#45;&gt;Node15 -->
<g id="edge8" class="edge"><title>Node9&#45;&gt;Node15</title>
<path fill="none" stroke="midnightblue" d="M286.385,-21.3015C296.63,-20.0167 307.239,-18.6862 317.425,-17.4088"/>
<polygon fill="midnightblue" stroke="midnightblue" points="285.778,-17.8502 276.291,-22.5675 286.649,-24.7958 285.778,-17.8502"/>
</g>
<!-- Node11 -->
<g id="node4" class="node"><title>Node11</title>
<g id="a_node4"><a xlink:href="../../dd/d3f/encode_8c_a3c04138a5bfe5d72780bb7e82a18e627.html#a3c04138a5bfe5d72780bb7e82a18e627" target="_top" xlink:title="main">
<polygon fill="none" stroke="black" points="826,-57.5 826,-76.5 864,-76.5 864,-57.5 826,-57.5"/>
<text text-anchor="middle" x="845" y="-64.5" font-family="Helvetica,sans-Serif" font-size="10.00">main</text>
</a>
</g>
</g>
<!-- Node10&#45;&gt;Node11 -->
<g id="edge3" class="edge"><title>Node10&#45;&gt;Node11</title>
<path fill="none" stroke="midnightblue" d="M429.429,-59.5383C445.228,-62.6013 462.757,-65.4781 479,-67 611.493,-79.4142 772.228,-71.4614 825.714,-68.2025"/>
<polygon fill="midnightblue" stroke="midnightblue" points="429.82,-56.0471 419.327,-57.5109 428.443,-62.9103 429.82,-56.0471"/>
</g>
<!-- Node12 -->
<g id="node5" class="node"><title>Node12</title>
<g id="a_node5"><a xlink:href="../../d6/da2/nanorq_8h_a956615eb4ea3ce34369951295e93f708.html#a956615eb4ea3ce34369951295e93f708" target="_top" xlink:title="nanorq_encode">
<polygon fill="none" stroke="black" points="493,-38.5 493,-57.5 576,-57.5 576,-38.5 493,-38.5"/>
<text text-anchor="middle" x="534.5" y="-45.5" font-family="Helvetica,sans-Serif" font-size="10.00">nanorq_encode</text>
</a>
</g>
</g>
<!-- Node10&#45;&gt;Node12 -->
<g id="edge4" class="edge"><title>Node10&#45;&gt;Node12</title>
<path fill="none" stroke="midnightblue" d="M453.621,-48C467.13,-48 480.736,-48 492.795,-48"/>
<polygon fill="midnightblue" stroke="midnightblue" points="453.336,-44.5001 443.336,-48 453.336,-51.5001 453.336,-44.5001"/>
</g>
<!-- Node13 -->
<g id="node6" class="node"><title>Node13</title>
<g id="a_node6"><a xlink:href="../../dd/d3f/encode_8c_a0993cb61d7e4c1b1a1606d159f5b1410.html#a0993cb61d7e4c1b1a1606d159f5b1410" target="_top" xlink:title="dump_esi">
<polygon fill="none" stroke="black" points="626,-38.5 626,-57.5 685,-57.5 685,-38.5 626,-38.5"/>
<text text-anchor="middle" x="655.5" y="-45.5" font-family="Helvetica,sans-Serif" font-size="10.00">dump_esi</text>
</a>
</g>
</g>
<!-- Node12&#45;&gt;Node13 -->
<g id="edge5" class="edge"><title>Node12&#45;&gt;Node13</title>
<path fill="none" stroke="midnightblue" d="M586.263,-48C599.744,-48 613.838,-48 625.692,-48"/>
<polygon fill="midnightblue" stroke="midnightblue" points="586.12,-44.5001 576.12,-48 586.12,-51.5001 586.12,-44.5001"/>
</g>
<!-- Node14 -->
<g id="node7" class="node"><title>Node14</title>
<g id="a_node7"><a xlink:href="../../dd/d3f/encode_8c_ae7f8bbf4dcea92f802d2521fa0264f93.html#ae7f8bbf4dcea92f802d2521fa0264f93" target="_top" xlink:title="dump_block">
<polygon fill="none" stroke="black" points="721,-38.5 721,-57.5 790,-57.5 790,-38.5 721,-38.5"/>
<text text-anchor="middle" x="755.5" y="-45.5" font-family="Helvetica,sans-Serif" font-size="10.00">dump_block</text>
</a>
</g>
</g>
<!-- Node13&#45;&gt;Node14 -->
<g id="edge6" class="edge"><title>Node13&#45;&gt;Node14</title>
<path fill="none" stroke="midnightblue" d="M695.17,-48C703.653,-48 712.569,-48 720.837,-48"/>
<polygon fill="midnightblue" stroke="midnightblue" points="695.109,-44.5001 685.109,-48 695.109,-51.5001 695.109,-44.5001"/>
</g>
<!-- Node14&#45;&gt;Node11 -->
<g id="edge7" class="edge"><title>Node14&#45;&gt;Node11</title>
<path fill="none" stroke="midnightblue" d="M799.916,-57.4275C809.058,-59.4126 818.22,-61.402 825.804,-63.0488"/>
<polygon fill="midnightblue" stroke="midnightblue" points="800.595,-53.9933 790.08,-55.2916 799.109,-60.8339 800.595,-53.9933"/>
</g>
<!-- Node16 -->
<g id="node9" class="node"><title>Node16</title>
<g id="a_node9"><a xlink:href="../../d6/da2/nanorq_8h_aa1dcf83669e76931be0e6e7a1f02c185.html#aa1dcf83669e76931be0e6e7a1f02c185" target="_top" xlink:title="nanorq_decode_block">
<polygon fill="none" stroke="black" points="479,-0.5 479,-19.5 590,-19.5 590,-0.5 479,-0.5"/>
<text text-anchor="middle" x="534.5" y="-7.5" font-family="Helvetica,sans-Serif" font-size="10.00">nanorq_decode_block</text>
</a>
</g>
</g>
<!-- Node15&#45;&gt;Node16 -->
<g id="edge9" class="edge"><title>Node15&#45;&gt;Node16</title>
<path fill="none" stroke="midnightblue" d="M447.866,-10C458.285,-10 468.903,-10 478.954,-10"/>
<polygon fill="midnightblue" stroke="midnightblue" points="447.541,-6.5001 437.541,-10 447.541,-13.5001 447.541,-6.5001"/>
</g>
<!-- Node17 -->
<g id="node10" class="node"><title>Node17</title>
<g id="a_node10"><a xlink:href="../../da/d0d/decode_8c_a3c04138a5bfe5d72780bb7e82a18e627.html#a3c04138a5bfe5d72780bb7e82a18e627" target="_top" xlink:title="main">
<polygon fill="none" stroke="black" points="636.5,-0.5 636.5,-19.5 674.5,-19.5 674.5,-0.5 636.5,-0.5"/>
<text text-anchor="middle" x="655.5" y="-7.5" font-family="Helvetica,sans-Serif" font-size="10.00">main</text>
</a>
</g>
</g>
<!-- Node16&#45;&gt;Node17 -->
<g id="edge10" class="edge"><title>Node16&#45;&gt;Node17</title>
<path fill="none" stroke="midnightblue" d="M600.271,-10C613.507,-10 626.393,-10 636.281,-10"/>
<polygon fill="midnightblue" stroke="midnightblue" points="600.124,-6.5001 590.124,-10 600.124,-13.5001 600.124,-6.5001"/>
</g>
</g>
</svg>
