<?xml version="1.0" encoding="UTF-8" standalone="no"?>
<!DOCTYPE svg PUBLIC "-//W3C//DTD SVG 1.1//EN"
 "http://www.w3.org/Graphics/SVG/1.1/DTD/svg11.dtd">
<!-- Generated by graphviz version 2.38.0 (20140413.2041)
 -->
<!-- Title: decode_phase5 Pages: 1 -->
<svg width="172pt" height="66pt"
 viewBox="0.00 0.00 172.00 66.00" xmlns="http://www.w3.org/2000/svg" xmlns:xlink="http://www.w3.org/1999/xlink">
<g id="graph0" class="graph" transform="scale(1 1) rotate(0) translate(4 62)">
<title>decode_phase5</title>
<!-- Node0 -->
<g id="node1" class="node"><title>Node0</title>
<polygon fill="#bfbfbf" stroke="black" points="0,-19.5 0,-38.5 85,-38.5 85,-19.5 0,-19.5"/>
<text text-anchor="middle" x="42.5" y="-26.5" font-family="Helvetica,sans-Serif" font-size="10.00">decode_phase5</text>
</g>
<!-- Node1 -->
<g id="node2" class="node"><title>Node1</title>
<g id="a_node2"><a xlink:href="../../d3/d5a/oblas_8h_a962c3db45b173ccbaf6418d5894409be.html#a962c3db45b173ccbaf6418d5894409be" target="_top" xlink:title="oaxpy">
<polygon fill="none" stroke="black" points="121,-38.5 121,-57.5 164,-57.5 164,-38.5 121,-38.5"/>
<text text-anchor="middle" x="142.5" y="-45.5" font-family="Helvetica,sans-Serif" font-size="10.00">oaxpy</text>
</a>
</g>
</g>
<!-- Node0&#45;&gt;Node1 -->
<g id="edge1" class="edge"><title>Node0&#45;&gt;Node1</title>
<path fill="none" stroke="midnightblue" d="M85.0608,-37.0577C93.7908,-38.7503 102.843,-40.5053 111.075,-42.1013"/>
<polygon fill="midnightblue" stroke="midnightblue" points="110.493,-45.5536 120.977,-44.021 111.826,-38.6815 110.493,-45.5536"/>
</g>
<!-- Node2 -->
<g id="node3" class="node"><title>Node2</title>
<g id="a_node3"><a xlink:href="../../d3/d5a/oblas_8h_abfa7ba50070fbebe1ea2e0e2fc3f913b.html#abfa7ba50070fbebe1ea2e0e2fc3f913b" target="_top" xlink:title="oscal">
<polygon fill="none" stroke="black" points="122.5,-0.5 122.5,-19.5 162.5,-19.5 162.5,-0.5 122.5,-0.5"/>
<text text-anchor="middle" x="142.5" y="-7.5" font-family="Helvetica,sans-Serif" font-size="10.00">oscal</text>
</a>
</g>
</g>
<!-- Node0&#45;&gt;Node2 -->
<g id="edge2" class="edge"><title>Node0&#45;&gt;Node2</title>
<path fill="none" stroke="midnightblue" d="M85.0608,-20.9423C94.2587,-19.159 103.815,-17.3064 112.391,-15.6436"/>
<polygon fill="midnightblue" stroke="midnightblue" points="113.126,-19.0663 122.277,-13.7269 111.794,-12.1943 113.126,-19.0663"/>
</g>
</g>
</svg>
