<?xml version="1.0" encoding="UTF-8" standalone="no"?>
<!DOCTYPE svg PUBLIC "-//W3C//DTD SVG 1.1//EN"
 "http://www.w3.org/Graphics/SVG/1.1/DTD/svg11.dtd">
<!-- Generated by graphviz version 2.38.0 (20140413.2041)
 -->
<!-- Title: precode_matrix_gen Pages: 1 -->
<svg width="635pt" height="310pt"
 viewBox="0.00 0.00 635.00 310.30" xmlns="http://www.w3.org/2000/svg" xmlns:xlink="http://www.w3.org/1999/xlink">
<g id="graph0" class="graph" transform="scale(1 1) rotate(0) translate(4 306.303)">
<title>precode_matrix_gen</title>
<!-- Node0 -->
<g id="node1" class="node"><title>Node0</title>
<polygon fill="#bfbfbf" stroke="black" points="0,-128 0,-147 104,-147 104,-128 0,-128"/>
<text text-anchor="middle" x="52" y="-135" font-family="Helvetica,sans-Serif" font-size="10.00">precode_matrix_gen</text>
</g>
<!-- Node1 -->
<g id="node2" class="node"><title>Node1</title>
<g id="a_node2"><a xlink:href="../../d2/dd1/octmat_8c_a0db07e8a815b999f9837c74c31213cdb.html#a0db07e8a815b999f9837c74c31213cdb" target="_top" xlink:title="om_resize">
<polygon fill="none" stroke="black" points="480,-263 480,-282 542,-282 542,-263 480,-263"/>
<text text-anchor="middle" x="511" y="-270" font-family="Helvetica,sans-Serif" font-size="10.00">om_resize</text>
</a>
</g>
</g>
<!-- Node0&#45;&gt;Node1 -->
<g id="edge1" class="edge"><title>Node0&#45;&gt;Node1</title>
<path fill="none" stroke="midnightblue" d="M60.3674,-147.248C74.2136,-164.985 105.819,-202.796 140,-225.5 208.61,-271.073 231.128,-278.883 312,-294.5 369.603,-305.623 386.091,-303.897 444,-294.5 455.203,-292.682 467.074,-289.234 477.614,-285.599"/>
<polygon fill="midnightblue" stroke="midnightblue" points="479.04,-288.804 487.245,-282.102 476.651,-282.225 479.04,-288.804"/>
</g>
<!-- Node3 -->
<g id="node4" class="node"><title>Node3</title>
<g id="a_node4"><a xlink:href="../../d6/d1a/precode_8c_a7fb81075ad77cf8790ba330c7fc6c221.html#a7fb81075ad77cf8790ba330c7fc6c221" target="_top" xlink:title="precode_matrix_add\l_G_ENC">
<polygon fill="none" stroke="black" points="156,-98.5 156,-128.5 260,-128.5 260,-98.5 156,-98.5"/>
<text text-anchor="start" x="164" y="-116.5" font-family="Helvetica,sans-Serif" font-size="10.00">precode_matrix_add</text>
<text text-anchor="middle" x="208" y="-105.5" font-family="Helvetica,sans-Serif" font-size="10.00">_G_ENC</text>
</a>
</g>
</g>
<!-- Node0&#45;&gt;Node3 -->
<g id="edge3" class="edge"><title>Node0&#45;&gt;Node3</title>
<path fill="none" stroke="midnightblue" d="M104.28,-129.508C117.657,-127.424 132.205,-125.156 146.031,-123.002"/>
<polygon fill="midnightblue" stroke="midnightblue" points="146.602,-126.455 155.944,-121.457 145.524,-119.538 146.602,-126.455"/>
</g>
<!-- Node8 -->
<g id="node9" class="node"><title>Node8</title>
<g id="a_node9"><a xlink:href="../../d6/d1a/precode_8c_af2734c7ddac33888abcc52e10df15665.html#af2734c7ddac33888abcc52e10df15665" target="_top" xlink:title="precode_matrix_add\l_identity">
<polygon fill="none" stroke="black" points="156,-147.5 156,-177.5 260,-177.5 260,-147.5 156,-147.5"/>
<text text-anchor="start" x="164" y="-165.5" font-family="Helvetica,sans-Serif" font-size="10.00">precode_matrix_add</text>
<text text-anchor="middle" x="208" y="-154.5" font-family="Helvetica,sans-Serif" font-size="10.00">_identity</text>
</a>
</g>
</g>
<!-- Node0&#45;&gt;Node8 -->
<g id="edge8" class="edge"><title>Node0&#45;&gt;Node8</title>
<path fill="none" stroke="midnightblue" d="M104.28,-145.825C117.657,-147.996 132.205,-150.358 146.031,-152.602"/>
<polygon fill="midnightblue" stroke="midnightblue" points="145.513,-156.064 155.944,-154.212 146.634,-149.154 145.513,-156.064"/>
</g>
<!-- Node9 -->
<g id="node10" class="node"><title>Node9</title>
<g id="a_node10"><a xlink:href="../../d6/d1a/precode_8c_a64e2c5739177d2991dea9ab54f2469b6.html#a64e2c5739177d2991dea9ab54f2469b6" target="_top" xlink:title="precode_matrix_init_HDPC">
<polygon fill="none" stroke="black" points="140,-197 140,-216 276,-216 276,-197 140,-197"/>
<text text-anchor="middle" x="208" y="-204" font-family="Helvetica,sans-Serif" font-size="10.00">precode_matrix_init_HDPC</text>
</a>
</g>
</g>
<!-- Node0&#45;&gt;Node9 -->
<g id="edge9" class="edge"><title>Node0&#45;&gt;Node9</title>
<path fill="none" stroke="midnightblue" d="M67.213,-147.132C83.9914,-158.15 113.032,-176.131 140,-187.5 145.496,-189.817 151.361,-191.946 157.25,-193.875"/>
<polygon fill="midnightblue" stroke="midnightblue" points="156.533,-197.316 167.12,-196.927 158.601,-190.629 156.533,-197.316"/>
</g>
<!-- Node14 -->
<g id="node15" class="node"><title>Node14</title>
<g id="a_node15"><a xlink:href="../../d6/d1a/precode_8c_a39d289c7bff03b667e282e44b3decb5f.html#a39d289c7bff03b667e282e44b3decb5f" target="_top" xlink:title="precode_matrix_init\l_LDPC1">
<polygon fill="none" stroke="black" points="157.5,-49.5 157.5,-79.5 258.5,-79.5 258.5,-49.5 157.5,-49.5"/>
<text text-anchor="start" x="165.5" y="-67.5" font-family="Helvetica,sans-Serif" font-size="10.00">precode_matrix_init</text>
<text text-anchor="middle" x="208" y="-56.5" font-family="Helvetica,sans-Serif" font-size="10.00">_LDPC1</text>
</a>
</g>
</g>
<!-- Node0&#45;&gt;Node14 -->
<g id="edge18" class="edge"><title>Node0&#45;&gt;Node14</title>
<path fill="none" stroke="midnightblue" d="M68.6718,-127.934C85.8177,-117.688 114.292,-101.31 140,-89.5 144.606,-87.3839 149.447,-85.3069 154.331,-83.3103"/>
<polygon fill="midnightblue" stroke="midnightblue" points="155.723,-86.5237 163.726,-79.5808 153.14,-80.0177 155.723,-86.5237"/>
</g>
<!-- Node15 -->
<g id="node16" class="node"><title>Node15</title>
<g id="a_node16"><a xlink:href="../../d6/d1a/precode_8c_a992134f8be1689ebd0d9aea6fafe217a.html#a992134f8be1689ebd0d9aea6fafe217a" target="_top" xlink:title="precode_matrix_init\l_LDPC2">
<polygon fill="none" stroke="black" points="157.5,-0.5 157.5,-30.5 258.5,-30.5 258.5,-0.5 157.5,-0.5"/>
<text text-anchor="start" x="165.5" y="-18.5" font-family="Helvetica,sans-Serif" font-size="10.00">precode_matrix_init</text>
<text text-anchor="middle" x="208" y="-7.5" font-family="Helvetica,sans-Serif" font-size="10.00">_LDPC2</text>
</a>
</g>
</g>
<!-- Node0&#45;&gt;Node15 -->
<g id="edge19" class="edge"><title>Node0&#45;&gt;Node15</title>
<path fill="none" stroke="midnightblue" d="M59.0087,-127.989C71.6846,-108.651 103.056,-64.4712 140,-39.5 142.578,-37.7572 145.298,-36.1251 148.106,-34.5987"/>
<polygon fill="midnightblue" stroke="midnightblue" points="149.878,-37.6277 157.311,-30.0774 146.792,-31.3447 149.878,-37.6277"/>
</g>
<!-- Node2 -->
<g id="node3" class="node"><title>Node2</title>
<g id="a_node3"><a xlink:href="../../d3/d5a/oblas_8h_a1185f4074fc7932ed79a6f216203f2c4.html#a1185f4074fc7932ed79a6f216203f2c4" target="_top" xlink:title="ozero">
<polygon fill="none" stroke="black" points="582,-263 582,-282 623,-282 623,-263 582,-263"/>
<text text-anchor="middle" x="602.5" y="-270" font-family="Helvetica,sans-Serif" font-size="10.00">ozero</text>
</a>
</g>
</g>
<!-- Node1&#45;&gt;Node2 -->
<g id="edge2" class="edge"><title>Node1&#45;&gt;Node2</title>
<path fill="none" stroke="midnightblue" d="M542.301,-272.5C551.807,-272.5 562.287,-272.5 571.755,-272.5"/>
<polygon fill="midnightblue" stroke="midnightblue" points="571.907,-276 581.907,-272.5 571.907,-269 571.907,-276"/>
</g>
<!-- Node4 -->
<g id="node5" class="node"><title>Node4</title>
<g id="a_node5"><a xlink:href="../../da/de3/params_8c_a5e51228448fbdf5e0d4310916b8eea93.html#a5e51228448fbdf5e0d4310916b8eea93" target="_top" xlink:title="params_get_idxs">
<polygon fill="none" stroke="black" points="332.5,-83 332.5,-102 423.5,-102 423.5,-83 332.5,-83"/>
<text text-anchor="middle" x="378" y="-90" font-family="Helvetica,sans-Serif" font-size="10.00">params_get_idxs</text>
</a>
</g>
</g>
<!-- Node3&#45;&gt;Node4 -->
<g id="edge4" class="edge"><title>Node3&#45;&gt;Node4</title>
<path fill="none" stroke="midnightblue" d="M260.318,-107.085C279.875,-104.641 302.232,-101.846 322.108,-99.3615"/>
<polygon fill="midnightblue" stroke="midnightblue" points="322.759,-102.807 332.248,-98.094 321.891,-95.8615 322.759,-102.807"/>
</g>
<!-- Node5 -->
<g id="node6" class="node"><title>Node5</title>
<g id="a_node6"><a xlink:href="../../da/de3/params_8c_a071cc3dcf4ecfd727003e3563af63add.html#a071cc3dcf4ecfd727003e3563af63add" target="_top" xlink:title="gen_tuple">
<polygon fill="none" stroke="black" points="481.5,-102 481.5,-121 540.5,-121 540.5,-102 481.5,-102"/>
<text text-anchor="middle" x="511" y="-109" font-family="Helvetica,sans-Serif" font-size="10.00">gen_tuple</text>
</a>
</g>
</g>
<!-- Node4&#45;&gt;Node5 -->
<g id="edge5" class="edge"><title>Node4&#45;&gt;Node5</title>
<path fill="none" stroke="midnightblue" d="M423.716,-98.9856C439.254,-101.239 456.532,-103.745 471.521,-105.919"/>
<polygon fill="midnightblue" stroke="midnightblue" points="471.084,-109.392 481.483,-107.364 472.089,-102.465 471.084,-109.392"/>
</g>
<!-- Node6 -->
<g id="node7" class="node"><title>Node6</title>
<g id="a_node7"><a xlink:href="../../da/de3/params_8c_aa429ac3cf74cd69c05967cd86ccec2c3.html#aa429ac3cf74cd69c05967cd86ccec2c3" target="_top" xlink:title="deg">
<polygon fill="none" stroke="black" points="586.5,-102 586.5,-121 618.5,-121 618.5,-102 586.5,-102"/>
<text text-anchor="middle" x="602.5" y="-109" font-family="Helvetica,sans-Serif" font-size="10.00">deg</text>
</a>
</g>
</g>
<!-- Node5&#45;&gt;Node6 -->
<g id="edge6" class="edge"><title>Node5&#45;&gt;Node6</title>
<path fill="none" stroke="midnightblue" d="M540.811,-111.5C552.155,-111.5 565.072,-111.5 576.064,-111.5"/>
<polygon fill="midnightblue" stroke="midnightblue" points="576.286,-115 586.286,-111.5 576.286,-108 576.286,-115"/>
</g>
<!-- Node7 -->
<g id="node8" class="node"><title>Node7</title>
<g id="a_node8"><a xlink:href="../../d6/df4/rand_8c_a080635c045f160d270060da9f4d8e5b7.html#a080635c045f160d270060da9f4d8e5b7" target="_top" xlink:title="rnd_get">
<polygon fill="none" stroke="black" points="578,-159 578,-178 627,-178 627,-159 578,-159"/>
<text text-anchor="middle" x="602.5" y="-166" font-family="Helvetica,sans-Serif" font-size="10.00">rnd_get</text>
</a>
</g>
</g>
<!-- Node5&#45;&gt;Node7 -->
<g id="edge7" class="edge"><title>Node5&#45;&gt;Node7</title>
<path fill="none" stroke="midnightblue" d="M527.182,-121.169C541.024,-129.984 561.696,-143.15 577.726,-153.359"/>
<polygon fill="midnightblue" stroke="midnightblue" points="576.227,-156.554 586.542,-158.974 579.987,-150.65 576.227,-156.554"/>
</g>
<!-- Node9&#45;&gt;Node1 -->
<g id="edge12" class="edge"><title>Node9&#45;&gt;Node1</title>
<path fill="none" stroke="midnightblue" d="M218.746,-216.028C235.884,-232.035 273.285,-263.731 312,-275.5 364.65,-291.505 428.868,-286.323 469.605,-280.191"/>
<polygon fill="midnightblue" stroke="midnightblue" points="470.363,-283.614 479.686,-278.582 469.259,-276.702 470.363,-283.614"/>
</g>
<!-- Node10 -->
<g id="node11" class="node"><title>Node10</title>
<g id="a_node11"><a xlink:href="../../d3/d5a/oblas_8h_a85e2604cc8aec26b591370ab48307bcc.html#a85e2604cc8aec26b591370ab48307bcc" target="_top" xlink:title="ogemm">
<polygon fill="none" stroke="black" points="353.5,-159 353.5,-178 402.5,-178 402.5,-159 353.5,-159"/>
<text text-anchor="middle" x="378" y="-166" font-family="Helvetica,sans-Serif" font-size="10.00">ogemm</text>
</a>
</g>
</g>
<!-- Node9&#45;&gt;Node10 -->
<g id="edge10" class="edge"><title>Node9&#45;&gt;Node10</title>
<path fill="none" stroke="midnightblue" d="M251.393,-196.911C279.883,-190.467 316.916,-182.09 343.375,-176.106"/>
<polygon fill="midnightblue" stroke="midnightblue" points="344.327,-179.479 353.308,-173.859 342.782,-172.651 344.327,-179.479"/>
</g>
<!-- Node11 -->
<g id="node12" class="node"><title>Node11</title>
<g id="a_node12"><a xlink:href="../../d2/dd1/octmat_8c_ac7854c0635a9441a5a352f95dbbd7bbd.html#ac7854c0635a9441a5a352f95dbbd7bbd" target="_top" xlink:title="om_destroy">
<polygon fill="none" stroke="black" points="344,-121 344,-140 412,-140 412,-121 344,-121"/>
<text text-anchor="middle" x="378" y="-128" font-family="Helvetica,sans-Serif" font-size="10.00">om_destroy</text>
</a>
</g>
</g>
<!-- Node9&#45;&gt;Node11 -->
<g id="edge11" class="edge"><title>Node9&#45;&gt;Node11</title>
<path fill="none" stroke="midnightblue" d="M255.066,-196.992C262.351,-194.498 269.587,-191.382 276,-187.5 295.902,-175.452 292.147,-161.628 312,-149.5 318.772,-145.363 326.492,-142.086 334.189,-139.504"/>
<polygon fill="midnightblue" stroke="midnightblue" points="335.288,-142.829 343.853,-136.593 333.269,-136.126 335.288,-142.829"/>
</g>
<!-- Node12 -->
<g id="node13" class="node"><title>Node12</title>
<g id="a_node13"><a xlink:href="../../d6/d1a/precode_8c_a88ec15cf62d897ab1df189175429c7f8.html#a88ec15cf62d897ab1df189175429c7f8" target="_top" xlink:title="precode_matrix_make\l_GAMMA">
<polygon fill="none" stroke="black" points="321.5,-235.5 321.5,-265.5 434.5,-265.5 434.5,-235.5 321.5,-235.5"/>
<text text-anchor="start" x="329.5" y="-253.5" font-family="Helvetica,sans-Serif" font-size="10.00">precode_matrix_make</text>
<text text-anchor="middle" x="378" y="-242.5" font-family="Helvetica,sans-Serif" font-size="10.00">_GAMMA</text>
</a>
</g>
</g>
<!-- Node9&#45;&gt;Node12 -->
<g id="edge13" class="edge"><title>Node9&#45;&gt;Node12</title>
<path fill="none" stroke="midnightblue" d="M245.453,-216.047C264.788,-221.111 289.134,-227.488 311.609,-233.374"/>
<polygon fill="midnightblue" stroke="midnightblue" points="310.881,-236.801 321.441,-235.949 312.654,-230.029 310.881,-236.801"/>
</g>
<!-- Node13 -->
<g id="node14" class="node"><title>Node13</title>
<g id="a_node14"><a xlink:href="../../d6/d1a/precode_8c_a291ab32ffee6435673b4693d8c74952f.html#a291ab32ffee6435673b4693d8c74952f" target="_top" xlink:title="precode_matrix_make_MT">
<polygon fill="none" stroke="black" points="312,-197 312,-216 444,-216 444,-197 312,-197"/>
<text text-anchor="middle" x="378" y="-204" font-family="Helvetica,sans-Serif" font-size="10.00">precode_matrix_make_MT</text>
</a>
</g>
</g>
<!-- Node9&#45;&gt;Node13 -->
<g id="edge15" class="edge"><title>Node9&#45;&gt;Node13</title>
<path fill="none" stroke="midnightblue" d="M276.364,-206.5C284.671,-206.5 293.204,-206.5 301.621,-206.5"/>
<polygon fill="midnightblue" stroke="midnightblue" points="301.806,-210 311.806,-206.5 301.806,-203 301.806,-210"/>
</g>
<!-- Node12&#45;&gt;Node1 -->
<g id="edge14" class="edge"><title>Node12&#45;&gt;Node1</title>
<path fill="none" stroke="midnightblue" d="M434.556,-259.83C446.288,-261.8 458.455,-263.844 469.505,-265.699"/>
<polygon fill="midnightblue" stroke="midnightblue" points="469.265,-269.208 479.707,-267.413 470.425,-262.305 469.265,-269.208"/>
</g>
<!-- Node13&#45;&gt;Node1 -->
<g id="edge16" class="edge"><title>Node13&#45;&gt;Node1</title>
<path fill="none" stroke="midnightblue" d="M417.226,-216.1C426.216,-218.943 435.616,-222.413 444,-226.5 460.729,-234.655 477.924,-246.783 490.568,-256.539"/>
<polygon fill="midnightblue" stroke="midnightblue" points="488.517,-259.38 498.532,-262.836 492.858,-253.889 488.517,-259.38"/>
</g>
<!-- Node13&#45;&gt;Node7 -->
<g id="edge17" class="edge"><title>Node13&#45;&gt;Node7</title>
<path fill="none" stroke="midnightblue" d="M434.859,-196.96C476.623,-189.827 532.37,-180.306 567.609,-174.288"/>
<polygon fill="midnightblue" stroke="midnightblue" points="568.581,-177.673 577.849,-172.539 567.403,-170.773 568.581,-177.673"/>
</g>
</g>
</svg>
