<?xml version="1.0" encoding="UTF-8" standalone="no"?>
<!DOCTYPE svg PUBLIC "-//W3C//DTD SVG 1.1//EN"
 "http://www.w3.org/Graphics/SVG/1.1/DTD/svg11.dtd">
<!-- Generated by graphviz version 2.38.0 (20140413.2041)
 -->
<!-- Title: precode_matrix_intermediate2 Pages: 1 -->
<!--zoomable 788 -->
<svg id="main" version="1.1" xmlns="http://www.w3.org/2000/svg" xmlns:xlink="http://www.w3.org/1999/xlink" xml:space="preserve" onload="init(evt)">
<style type="text/css"><![CDATA[
.edge:hover path { stroke: red; }
.edge:hover polygon { stroke: red; fill: red; }
]]></style>
<script type="text/javascript"><![CDATA[
var edges = document.getElementsByTagName('g');
if (edges && edges.length) {
  for (var i=0;i<edges.length;i++) {
    if (edges[i].id.substr(0,4)=='edge') {
      edges[i].setAttribute('class','edge');
    }
  }
}
]]></script>
        <defs>
                <circle id="rim" cx="0" cy="0" r="7"/>
                <circle id="rim2" cx="0" cy="0" r="3.5"/>
                <g id="zoomPlus">
                        <use xlink:href="#rim" fill="#404040">
                                <set attributeName="fill" to="#808080" begin="zoomplus.mouseover" end="zoomplus.mouseout"/>
                        </use>
                        <path d="M-4,0h8M0,-4v8" fill="none" stroke="white" stroke-width="1.5" pointer-events="none"/>
                </g>
                <g id="zoomMin">
                        <use xlink:href="#rim" fill="#404040">
                                <set attributeName="fill" to="#808080" begin="zoomminus.mouseover" end="zoomminus.mouseout"/>
                        </use>
                        <path d="M-4,0h8" fill="none" stroke="white" stroke-width="1.5" pointer-events="none"/>
                </g>
                <g id="dirArrow">
                        <path fill="none" stroke="white" stroke-width="1.5" d="M0,-3.0v7 M-2.5,-0.5L0,-3.0L2.5,-0.5"/>
                </g>
               <g id="resetDef">
                       <use xlink:href="#rim2" fill="#404040">
                               <set attributeName="fill" to="#808080" begin="reset.mouseover" end="reset.mouseout"/>
                       </use>
               </g>
        </defs>

<script type="text/javascript">
var viewWidth = 845;
var viewHeight = 788;
var sectionId = 'dynsection-0';
</script>
<script xlink:href="../../svgpan.js"/>
<svg id="graph" class="graph">
<g id="viewport">
<title>precode_matrix_intermediate2</title>
<!-- Node0 -->
<g id="node1" class="node"><title>Node0</title>
<polygon fill="#bfbfbf" stroke="black" points="0,-598.5 0,-617.5 147,-617.5 147,-598.5 0,-598.5"/>
<text text-anchor="middle" x="73.5" y="-605.5" font-family="Helvetica,sans-Serif" font-size="10.00">precode_matrix_intermediate2</text>
</g>
<!-- Node1 -->
<g id="node2" class="node"><title>Node1</title>
<g id="a_node2"><a xlink:href="../../d6/d74/bitmask_8c_ad67256bcd0a6b5b9e739bc889e22a45b.html#ad67256bcd0a6b5b9e739bc889e22a45b" target="_top" xlink:title="bitmask_check">
<polygon fill="none" stroke="black" points="370,-760.5 370,-779.5 453,-779.5 453,-760.5 370,-760.5"/>
<text text-anchor="middle" x="411.5" y="-767.5" font-family="Helvetica,sans-Serif" font-size="10.00">bitmask_check</text>
</a>
</g>
</g>
<!-- Node0&#45;&gt;Node1 -->
<g id="edge1" class="edge"><title>Node0&#45;&gt;Node1</title>
<path fill="none" stroke="midnightblue" d="M78.6611,-617.502C90.5664,-643.401 127.515,-715.341 183,-746 237.732,-776.243 311.194,-778.363 359.645,-775.514"/>
<polygon fill="midnightblue" stroke="midnightblue" points="360.15,-778.988 369.889,-774.816 359.674,-772.004 360.15,-778.988"/>
</g>
<!-- Node2 -->
<g id="node3" class="node"><title>Node2</title>
<g id="a_node3"><a xlink:href="../../d6/d74/bitmask_8c_a3b8b7d670ea2a2526b93623a8681341a.html#a3b8b7d670ea2a2526b93623a8681341a" target="_top" xlink:title="bitmask_gaps">
<polygon fill="none" stroke="black" points="373,-722.5 373,-741.5 450,-741.5 450,-722.5 373,-722.5"/>
<text text-anchor="middle" x="411.5" y="-729.5" font-family="Helvetica,sans-Serif" font-size="10.00">bitmask_gaps</text>
</a>
</g>
</g>
<!-- Node0&#45;&gt;Node2 -->
<g id="edge2" class="edge"><title>Node0&#45;&gt;Node2</title>
<path fill="none" stroke="midnightblue" d="M94.6578,-617.601C116.265,-627.731 151.691,-643.876 183,-656 247.215,-680.867 323.398,-705.32 369.291,-719.518"/>
<polygon fill="midnightblue" stroke="midnightblue" points="368.301,-722.875 378.888,-722.473 370.361,-716.185 368.301,-722.875"/>
</g>
<!-- Node3 -->
<g id="node4" class="node"><title>Node3</title>
<g id="a_node4"><a xlink:href="../../d6/d1a/precode_8c_aba331164c0af3eef69c0ac91d8fe2eba.html#aba331164c0af3eef69c0ac91d8fe2eba" target="_top" xlink:title="decode_phase0">
<polygon fill="none" stroke="black" points="214,-717.5 214,-736.5 299,-736.5 299,-717.5 214,-717.5"/>
<text text-anchor="middle" x="256.5" y="-724.5" font-family="Helvetica,sans-Serif" font-size="10.00">decode_phase0</text>
</a>
</g>
</g>
<!-- Node0&#45;&gt;Node3 -->
<g id="edge3" class="edge"><title>Node0&#45;&gt;Node3</title>
<path fill="none" stroke="midnightblue" d="M83.8804,-617.559C101.775,-635.366 142.612,-673.983 183,-698 193.274,-704.109 205.071,-709.451 216.123,-713.828"/>
<polygon fill="midnightblue" stroke="midnightblue" points="214.996,-717.144 225.587,-717.422 217.481,-710.6 214.996,-717.144"/>
</g>
<!-- Node8 -->
<g id="node9" class="node"><title>Node8</title>
<g id="a_node9"><a xlink:href="../../d3/d5a/oblas_8h_a1b5ea186506d2e5d84ba3cc292043e21.html#a1b5ea186506d2e5d84ba3cc292043e21" target="_top" xlink:title="ocopy">
<polygon fill="none" stroke="black" points="390,-494.5 390,-513.5 433,-513.5 433,-494.5 390,-494.5"/>
<text text-anchor="middle" x="411.5" y="-501.5" font-family="Helvetica,sans-Serif" font-size="10.00">ocopy</text>
</a>
</g>
</g>
<!-- Node0&#45;&gt;Node8 -->
<g id="edge10" class="edge"><title>Node0&#45;&gt;Node8</title>
<path fill="none" stroke="midnightblue" d="M83.8728,-598.275C101.441,-580.746 141.328,-544.174 183,-528 249.528,-502.179 334.744,-500.782 379.638,-502.243"/>
<polygon fill="midnightblue" stroke="midnightblue" points="379.757,-505.75 389.888,-502.651 380.035,-498.756 379.757,-505.75"/>
</g>
<!-- Node9 -->
<g id="node10" class="node"><title>Node9</title>
<g id="a_node10"><a xlink:href="../../d2/dd1/octmat_8c_ac7854c0635a9441a5a352f95dbbd7bbd.html#ac7854c0635a9441a5a352f95dbbd7bbd" target="_top" xlink:title="om_destroy">
<polygon fill="none" stroke="black" points="525.5,-494.5 525.5,-513.5 593.5,-513.5 593.5,-494.5 525.5,-494.5"/>
<text text-anchor="middle" x="559.5" y="-501.5" font-family="Helvetica,sans-Serif" font-size="10.00">om_destroy</text>
</a>
</g>
</g>
<!-- Node0&#45;&gt;Node9 -->
<g id="edge11" class="edge"><title>Node0&#45;&gt;Node9</title>
<path fill="none" stroke="midnightblue" d="M118.735,-598.495C211.199,-578.627 423.925,-532.917 515.398,-513.262"/>
<polygon fill="midnightblue" stroke="midnightblue" points="516.378,-516.631 525.42,-511.108 514.908,-509.787 516.378,-516.631"/>
</g>
<!-- Node10 -->
<g id="node11" class="node"><title>Node10</title>
<g id="a_node11"><a xlink:href="../../d2/dd1/octmat_8c_a0db07e8a815b999f9837c74c31213cdb.html#a0db07e8a815b999f9837c74c31213cdb" target="_top" xlink:title="om_resize">
<polygon fill="none" stroke="black" points="528.5,-570.5 528.5,-589.5 590.5,-589.5 590.5,-570.5 528.5,-570.5"/>
<text text-anchor="middle" x="559.5" y="-577.5" font-family="Helvetica,sans-Serif" font-size="10.00">om_resize</text>
</a>
</g>
</g>
<!-- Node0&#45;&gt;Node10 -->
<g id="edge12" class="edge"><title>Node0&#45;&gt;Node10</title>
<path fill="none" stroke="midnightblue" d="M147.222,-603.793C250.517,-597.817 436.251,-587.072 518.002,-582.343"/>
<polygon fill="midnightblue" stroke="midnightblue" points="518.586,-585.815 528.368,-581.743 518.182,-578.827 518.586,-585.815"/>
</g>
<!-- Node12 -->
<g id="node13" class="node"><title>Node12</title>
<g id="a_node13"><a xlink:href="../../d6/d1a/precode_8c_ac563a7861b8d34580909af77f063ea66.html#ac563a7861b8d34580909af77f063ea66" target="_top" xlink:title="precode_matrix_encode">
<polygon fill="none" stroke="black" points="196.5,-627.5 196.5,-646.5 316.5,-646.5 316.5,-627.5 196.5,-627.5"/>
<text text-anchor="middle" x="256.5" y="-634.5" font-family="Helvetica,sans-Serif" font-size="10.00">precode_matrix_encode</text>
</a>
</g>
</g>
<!-- Node0&#45;&gt;Node12 -->
<g id="edge14" class="edge"><title>Node0&#45;&gt;Node12</title>
<path fill="none" stroke="midnightblue" d="M134.017,-617.536C150.726,-620.213 169.039,-623.147 186.262,-625.907"/>
<polygon fill="midnightblue" stroke="midnightblue" points="185.829,-629.382 196.256,-627.508 186.936,-622.47 185.829,-629.382"/>
</g>
<!-- Node14 -->
<g id="node15" class="node"><title>Node14</title>
<g id="a_node15"><a xlink:href="../../d6/d1a/precode_8c_a262ba8efa6b500c1e7a3cb0451245291.html#a262ba8efa6b500c1e7a3cb0451245291" target="_top" xlink:title="precode_matrix_intermediate1">
<polygon fill="none" stroke="black" points="183,-361.5 183,-380.5 330,-380.5 330,-361.5 183,-361.5"/>
<text text-anchor="middle" x="256.5" y="-368.5" font-family="Helvetica,sans-Serif" font-size="10.00">precode_matrix_intermediate1</text>
</a>
</g>
</g>
<!-- Node0&#45;&gt;Node14 -->
<g id="edge18" class="edge"><title>Node0&#45;&gt;Node14</title>
<path fill="none" stroke="midnightblue" d="M81.8196,-598.416C109.22,-562.538 205.997,-435.819 241.934,-388.763"/>
<polygon fill="midnightblue" stroke="midnightblue" points="244.801,-390.775 248.089,-380.703 239.238,-386.527 244.801,-390.775"/>
</g>
<!-- Node3&#45;&gt;Node1 -->
<g id="edge4" class="edge"><title>Node3&#45;&gt;Node1</title>
<path fill="none" stroke="midnightblue" d="M291.456,-736.543C313.641,-742.778 342.826,-750.981 366.746,-757.703"/>
<polygon fill="midnightblue" stroke="midnightblue" points="366.065,-761.147 376.639,-760.484 367.959,-754.408 366.065,-761.147"/>
</g>
<!-- Node3&#45;&gt;Node2 -->
<g id="edge5" class="edge"><title>Node3&#45;&gt;Node2</title>
<path fill="none" stroke="midnightblue" d="M299.308,-728.366C318.987,-729.009 342.553,-729.779 362.914,-730.445"/>
<polygon fill="midnightblue" stroke="midnightblue" points="362.816,-733.943 372.925,-730.772 363.045,-726.947 362.816,-733.943"/>
</g>
<!-- Node4 -->
<g id="node5" class="node"><title>Node4</title>
<g id="a_node5"><a xlink:href="../../da/de3/params_8c_a5e51228448fbdf5e0d4310916b8eea93.html#a5e51228448fbdf5e0d4310916b8eea93" target="_top" xlink:title="params_get_idxs">
<polygon fill="none" stroke="black" points="366,-684.5 366,-703.5 457,-703.5 457,-684.5 366,-684.5"/>
<text text-anchor="middle" x="411.5" y="-691.5" font-family="Helvetica,sans-Serif" font-size="10.00">params_get_idxs</text>
</a>
</g>
</g>
<!-- Node3&#45;&gt;Node4 -->
<g id="edge6" class="edge"><title>Node3&#45;&gt;Node4</title>
<path fill="none" stroke="midnightblue" d="M299.308,-717.983C316.933,-714.181 337.674,-709.708 356.439,-705.66"/>
<polygon fill="midnightblue" stroke="midnightblue" points="357.299,-709.055 366.336,-703.526 355.823,-702.213 357.299,-709.055"/>
</g>
<!-- Node5 -->
<g id="node6" class="node"><title>Node5</title>
<g id="a_node6"><a xlink:href="../../da/de3/params_8c_a071cc3dcf4ecfd727003e3563af63add.html#a071cc3dcf4ecfd727003e3563af63add" target="_top" xlink:title="gen_tuple">
<polygon fill="none" stroke="black" points="530,-684.5 530,-703.5 589,-703.5 589,-684.5 530,-684.5"/>
<text text-anchor="middle" x="559.5" y="-691.5" font-family="Helvetica,sans-Serif" font-size="10.00">gen_tuple</text>
</a>
</g>
</g>
<!-- Node4&#45;&gt;Node5 -->
<g id="edge7" class="edge"><title>Node4&#45;&gt;Node5</title>
<path fill="none" stroke="midnightblue" d="M457.098,-694C477.051,-694 500.359,-694 519.593,-694"/>
<polygon fill="midnightblue" stroke="midnightblue" points="519.813,-697.5 529.813,-694 519.813,-690.5 519.813,-697.5"/>
</g>
<!-- Node6 -->
<g id="node7" class="node"><title>Node6</title>
<g id="a_node7"><a xlink:href="../../da/de3/params_8c_aa429ac3cf74cd69c05967cd86ccec2c3.html#aa429ac3cf74cd69c05967cd86ccec2c3" target="_top" xlink:title="deg">
<polygon fill="none" stroke="black" points="684.5,-665.5 684.5,-684.5 716.5,-684.5 716.5,-665.5 684.5,-665.5"/>
<text text-anchor="middle" x="700.5" y="-672.5" font-family="Helvetica,sans-Serif" font-size="10.00">deg</text>
</a>
</g>
</g>
<!-- Node5&#45;&gt;Node6 -->
<g id="edge8" class="edge"><title>Node5&#45;&gt;Node6</title>
<path fill="none" stroke="midnightblue" d="M589.301,-690.063C614.402,-686.632 650.438,-681.706 674.386,-678.433"/>
<polygon fill="midnightblue" stroke="midnightblue" points="675.021,-681.879 684.455,-677.056 674.073,-674.943 675.021,-681.879"/>
</g>
<!-- Node7 -->
<g id="node8" class="node"><title>Node7</title>
<g id="a_node8"><a xlink:href="../../d6/df4/rand_8c_a080635c045f160d270060da9f4d8e5b7.html#a080635c045f160d270060da9f4d8e5b7" target="_top" xlink:title="rnd_get">
<polygon fill="none" stroke="black" points="676,-703.5 676,-722.5 725,-722.5 725,-703.5 676,-703.5"/>
<text text-anchor="middle" x="700.5" y="-710.5" font-family="Helvetica,sans-Serif" font-size="10.00">rnd_get</text>
</a>
</g>
</g>
<!-- Node5&#45;&gt;Node7 -->
<g id="edge9" class="edge"><title>Node5&#45;&gt;Node7</title>
<path fill="none" stroke="midnightblue" d="M589.301,-697.937C611.505,-700.972 642.268,-705.177 665.649,-708.373"/>
<polygon fill="midnightblue" stroke="midnightblue" points="665.433,-711.876 675.815,-709.762 666.381,-704.94 665.433,-711.876"/>
</g>
<!-- Node11 -->
<g id="node12" class="node"><title>Node11</title>
<g id="a_node12"><a xlink:href="../../d3/d5a/oblas_8h_a1185f4074fc7932ed79a6f216203f2c4.html#a1185f4074fc7932ed79a6f216203f2c4" target="_top" xlink:title="ozero">
<polygon fill="none" stroke="black" points="680,-570.5 680,-589.5 721,-589.5 721,-570.5 680,-570.5"/>
<text text-anchor="middle" x="700.5" y="-577.5" font-family="Helvetica,sans-Serif" font-size="10.00">ozero</text>
</a>
</g>
</g>
<!-- Node10&#45;&gt;Node11 -->
<g id="edge13" class="edge"><title>Node10&#45;&gt;Node11</title>
<path fill="none" stroke="midnightblue" d="M590.661,-580C614.064,-580 646.342,-580 669.663,-580"/>
<polygon fill="midnightblue" stroke="midnightblue" points="669.684,-583.5 679.684,-580 669.684,-576.5 669.684,-583.5"/>
</g>
<!-- Node12&#45;&gt;Node4 -->
<g id="edge17" class="edge"><title>Node12&#45;&gt;Node4</title>
<path fill="none" stroke="midnightblue" d="M283.109,-646.541C308.373,-655.953 347.19,-670.414 375.337,-680.9"/>
<polygon fill="midnightblue" stroke="midnightblue" points="374.215,-684.217 384.808,-684.428 376.659,-677.657 374.215,-684.217"/>
</g>
<!-- Node12&#45;&gt;Node10 -->
<g id="edge16" class="edge"><title>Node12&#45;&gt;Node10</title>
<path fill="none" stroke="midnightblue" d="M307.881,-627.459C366.997,-616.265 463.833,-597.927 518.203,-587.631"/>
<polygon fill="midnightblue" stroke="midnightblue" points="518.991,-591.044 528.165,-585.744 517.688,-584.166 518.991,-591.044"/>
</g>
<!-- Node13 -->
<g id="node14" class="node"><title>Node13</title>
<g id="a_node14"><a xlink:href="../../d3/d5a/oblas_8h_a06e2686eb0ba47ab72527cc2d8924583.html#a06e2686eb0ba47ab72527cc2d8924583" target="_top" xlink:title="oaddrow">
<polygon fill="none" stroke="black" points="385,-646.5 385,-665.5 438,-665.5 438,-646.5 385,-646.5"/>
<text text-anchor="middle" x="411.5" y="-653.5" font-family="Helvetica,sans-Serif" font-size="10.00">oaddrow</text>
</a>
</g>
</g>
<!-- Node12&#45;&gt;Node13 -->
<g id="edge15" class="edge"><title>Node12&#45;&gt;Node13</title>
<path fill="none" stroke="midnightblue" d="M316.654,-644.346C336.152,-646.767 357.238,-649.386 374.474,-651.526"/>
<polygon fill="midnightblue" stroke="midnightblue" points="374.304,-655.032 384.659,-652.791 375.167,-648.085 374.304,-655.032"/>
</g>
<!-- Node14&#45;&gt;Node8 -->
<g id="edge48" class="edge"><title>Node14&#45;&gt;Node8</title>
<path fill="none" stroke="midnightblue" d="M265.416,-380.687C282.318,-400.951 323.846,-448.539 366,-480 370.572,-483.413 375.692,-486.639 380.785,-489.555"/>
<polygon fill="midnightblue" stroke="midnightblue" points="379.343,-492.754 389.803,-494.439 382.677,-486.599 379.343,-492.754"/>
</g>
<!-- Node14&#45;&gt;Node9 -->
<g id="edge50" class="edge"><title>Node14&#45;&gt;Node9</title>
<path fill="none" stroke="midnightblue" d="M284.458,-380.591C331.63,-397.596 426.984,-433.022 457,-452 475.346,-463.6 474.08,-474.364 493,-485 499.967,-488.917 507.813,-492.089 515.592,-494.637"/>
<polygon fill="midnightblue" stroke="midnightblue" points="514.753,-498.039 525.336,-497.539 516.751,-491.33 514.753,-498.039"/>
</g>
<!-- Node14&#45;&gt;Node10 -->
<g id="edge51" class="edge"><title>Node14&#45;&gt;Node10</title>
<path fill="none" stroke="midnightblue" d="M269.669,-380.625C289.205,-395.791 329.122,-425.62 366,-446 404.513,-467.283 420.9,-459.841 457,-485 476.087,-498.302 476.206,-506.901 493,-523 507.818,-537.205 525.405,-552.426 538.622,-563.562"/>
<polygon fill="midnightblue" stroke="midnightblue" points="536.688,-566.507 546.604,-570.239 541.179,-561.138 536.688,-566.507"/>
</g>
<!-- Node15 -->
<g id="node16" class="node"><title>Node15</title>
<g id="a_node16"><a xlink:href="../../d6/d1a/precode_8c_adde325d451f8ec9eb7f8f4542d81e884.html#adde325d451f8ec9eb7f8f4542d81e884" target="_top" xlink:title="decode_phase1">
<polygon fill="none" stroke="black" points="369,-228.5 369,-247.5 454,-247.5 454,-228.5 369,-228.5"/>
<text text-anchor="middle" x="411.5" y="-235.5" font-family="Helvetica,sans-Serif" font-size="10.00">decode_phase1</text>
</a>
</g>
</g>
<!-- Node14&#45;&gt;Node15 -->
<g id="edge19" class="edge"><title>Node14&#45;&gt;Node15</title>
<path fill="none" stroke="midnightblue" d="M268.503,-361.435C294.292,-339.018 358.896,-282.859 391.314,-254.678"/>
<polygon fill="midnightblue" stroke="midnightblue" points="393.933,-257.039 399.184,-247.837 389.34,-251.756 393.933,-257.039"/>
</g>
<!-- Node29 -->
<g id="node30" class="node"><title>Node29</title>
<g id="a_node30"><a xlink:href="../../d6/d1a/precode_8c_a41bb3b163c071597877ad0de9bbbd756.html#a41bb3b163c071597877ad0de9bbbd756" target="_top" xlink:title="decode_phase2">
<polygon fill="none" stroke="black" points="369,-76.5 369,-95.5 454,-95.5 454,-76.5 369,-76.5"/>
<text text-anchor="middle" x="411.5" y="-83.5" font-family="Helvetica,sans-Serif" font-size="10.00">decode_phase2</text>
</a>
</g>
</g>
<!-- Node14&#45;&gt;Node29 -->
<g id="edge34" class="edge"><title>Node14&#45;&gt;Node29</title>
<path fill="none" stroke="midnightblue" d="M262.767,-361.19C284.928,-319.909 370.821,-159.912 400.413,-104.789"/>
<polygon fill="midnightblue" stroke="midnightblue" points="403.609,-106.235 405.256,-95.7691 397.442,-102.924 403.609,-106.235"/>
</g>
<!-- Node31 -->
<g id="node32" class="node"><title>Node31</title>
<g id="a_node32"><a xlink:href="../../d6/d1a/precode_8c_a11824185dea7b498ffadaca55ae49090.html#a11824185dea7b498ffadaca55ae49090" target="_top" xlink:title="decode_phase3">
<polygon fill="none" stroke="black" points="369,-380.5 369,-399.5 454,-399.5 454,-380.5 369,-380.5"/>
<text text-anchor="middle" x="411.5" y="-387.5" font-family="Helvetica,sans-Serif" font-size="10.00">decode_phase3</text>
</a>
</g>
</g>
<!-- Node14&#45;&gt;Node31 -->
<g id="edge38" class="edge"><title>Node14&#45;&gt;Node31</title>
<path fill="none" stroke="midnightblue" d="M330.415,-380.055C340.034,-381.249 349.728,-382.453 358.888,-383.591"/>
<polygon fill="midnightblue" stroke="midnightblue" points="358.615,-387.084 368.97,-384.843 359.477,-380.137 358.615,-387.084"/>
</g>
<!-- Node33 -->
<g id="node34" class="node"><title>Node33</title>
<g id="a_node34"><a xlink:href="../../d2/dd1/octmat_8c_a4d2ed06936f8e9cba88b6b37e5a23712.html#a4d2ed06936f8e9cba88b6b37e5a23712" target="_top" xlink:title="om_copy">
<polygon fill="none" stroke="black" points="531.5,-418.5 531.5,-437.5 587.5,-437.5 587.5,-418.5 531.5,-418.5"/>
<text text-anchor="middle" x="559.5" y="-425.5" font-family="Helvetica,sans-Serif" font-size="10.00">om_copy</text>
</a>
</g>
</g>
<!-- Node14&#45;&gt;Node33 -->
<g id="edge49" class="edge"><title>Node14&#45;&gt;Node33</title>
<path fill="none" stroke="midnightblue" d="M300.723,-361.494C342.518,-354.445 406.729,-349.377 457,-371 478.371,-380.192 473.135,-396.892 493,-409 501.629,-414.26 511.785,-418.124 521.491,-420.939"/>
<polygon fill="midnightblue" stroke="midnightblue" points="520.8,-424.376 531.359,-423.507 522.563,-417.601 520.8,-424.376"/>
</g>
<!-- Node34 -->
<g id="node35" class="node"><title>Node34</title>
<g id="a_node35"><a xlink:href="../../d6/d1a/precode_8c_a84a742aaa0a90e37baf8db8cd5a035b7.html#a84a742aaa0a90e37baf8db8cd5a035b7" target="_top" xlink:title="decode_phase4">
<polygon fill="none" stroke="black" points="369,-38.5 369,-57.5 454,-57.5 454,-38.5 369,-38.5"/>
<text text-anchor="middle" x="411.5" y="-45.5" font-family="Helvetica,sans-Serif" font-size="10.00">decode_phase4</text>
</a>
</g>
</g>
<!-- Node14&#45;&gt;Node34 -->
<g id="edge43" class="edge"><title>Node14&#45;&gt;Node34</title>
<path fill="none" stroke="midnightblue" d="M258.198,-361.41C261.675,-320.408 280.551,-157.802 366,-67 367.227,-65.6962 368.558,-64.4778 369.967,-63.3396"/>
<polygon fill="midnightblue" stroke="midnightblue" points="372.233,-66.042 378.715,-57.6619 368.422,-60.1702 372.233,-66.042"/>
</g>
<!-- Node35 -->
<g id="node36" class="node"><title>Node35</title>
<g id="a_node36"><a xlink:href="../../d6/d1a/precode_8c_a16925f32060a478093240f3b35ee664a.html#a16925f32060a478093240f3b35ee664a" target="_top" xlink:title="decode_phase5">
<polygon fill="none" stroke="black" points="369,-0.5 369,-19.5 454,-19.5 454,-0.5 369,-0.5"/>
<text text-anchor="middle" x="411.5" y="-7.5" font-family="Helvetica,sans-Serif" font-size="10.00">decode_phase5</text>
</a>
</g>
</g>
<!-- Node14&#45;&gt;Node35 -->
<g id="edge45" class="edge"><title>Node14&#45;&gt;Node35</title>
<path fill="none" stroke="midnightblue" d="M257.754,-361.443C259.423,-317.492 271.991,-132.531 366,-29 367.204,-27.6746 368.515,-26.4381 369.908,-25.285"/>
<polygon fill="midnightblue" stroke="midnightblue" points="372.178,-27.9812 378.598,-19.5535 368.323,-22.1378 372.178,-27.9812"/>
</g>
<!-- Node16 -->
<g id="node17" class="node"><title>Node16</title>
<g id="a_node17"><a xlink:href="../../da/d1f/chooser_8c_a1563620df95c0a0ec6b572f5b1c89356.html#a1563620df95c0a0ec6b572f5b1c89356" target="_top" xlink:title="chooser_add_tracking_pair">
<polygon fill="none" stroke="black" points="493,-114.5 493,-133.5 626,-133.5 626,-114.5 493,-114.5"/>
<text text-anchor="middle" x="559.5" y="-121.5" font-family="Helvetica,sans-Serif" font-size="10.00">chooser_add_tracking_pair</text>
</a>
</g>
</g>
<!-- Node15&#45;&gt;Node16 -->
<g id="edge20" class="edge"><title>Node15&#45;&gt;Node16</title>
<path fill="none" stroke="midnightblue" d="M418.008,-228.294C429.434,-209.047 457.625,-165.928 493,-143 496.167,-140.947 499.561,-139.111 503.076,-137.47"/>
<polygon fill="midnightblue" stroke="midnightblue" points="504.669,-140.599 512.591,-133.563 502.011,-134.123 504.669,-140.599"/>
</g>
<!-- Node17 -->
<g id="node18" class="node"><title>Node17</title>
<g id="a_node18"><a xlink:href="../../da/d1f/chooser_8c_a58a7864908285660f79e29bc9674c359.html#a58a7864908285660f79e29bc9674c359" target="_top" xlink:title="chooser_clear">
<polygon fill="none" stroke="black" points="521,-380.5 521,-399.5 598,-399.5 598,-380.5 521,-380.5"/>
<text text-anchor="middle" x="559.5" y="-387.5" font-family="Helvetica,sans-Serif" font-size="10.00">chooser_clear</text>
</a>
</g>
</g>
<!-- Node15&#45;&gt;Node17 -->
<g id="edge21" class="edge"><title>Node15&#45;&gt;Node17</title>
<path fill="none" stroke="midnightblue" d="M415.585,-247.722C423.888,-272.294 449.101,-337.32 493,-371 498.428,-375.164 504.743,-378.417 511.267,-380.957"/>
<polygon fill="midnightblue" stroke="midnightblue" points="510.303,-384.325 520.897,-384.192 512.532,-377.69 510.303,-384.325"/>
</g>
<!-- Node18 -->
<g id="node19" class="node"><title>Node18</title>
<g id="a_node19"><a xlink:href="../../da/d1f/chooser_8c_a4dc17557beabc712765e7e223e701c8f.html#a4dc17557beabc712765e7e223e701c8f" target="_top" xlink:title="chooser_init">
<polygon fill="none" stroke="black" points="525,-342.5 525,-361.5 594,-361.5 594,-342.5 525,-342.5"/>
<text text-anchor="middle" x="559.5" y="-349.5" font-family="Helvetica,sans-Serif" font-size="10.00">chooser_init</text>
</a>
</g>
</g>
<!-- Node15&#45;&gt;Node18 -->
<g id="edge22" class="edge"><title>Node15&#45;&gt;Node18</title>
<path fill="none" stroke="midnightblue" d="M418.008,-247.706C429.434,-266.953 457.625,-310.072 493,-333 499.707,-337.347 507.43,-340.723 515.168,-343.337"/>
<polygon fill="midnightblue" stroke="midnightblue" points="514.318,-346.736 524.902,-346.257 516.33,-340.031 514.318,-346.736"/>
</g>
<!-- Node19 -->
<g id="node20" class="node"><title>Node19</title>
<g id="a_node20"><a xlink:href="../../da/d1f/chooser_8c_a64daad8f3ad3f45b51da8813fc7e515e.html#a64daad8f3ad3f45b51da8813fc7e515e" target="_top" xlink:title="chooser_non_zero">
<polygon fill="none" stroke="black" points="511.5,-304.5 511.5,-323.5 607.5,-323.5 607.5,-304.5 511.5,-304.5"/>
<text text-anchor="middle" x="559.5" y="-311.5" font-family="Helvetica,sans-Serif" font-size="10.00">chooser_non_zero</text>
</a>
</g>
</g>
<!-- Node15&#45;&gt;Node19 -->
<g id="edge23" class="edge"><title>Node15&#45;&gt;Node19</title>
<path fill="none" stroke="midnightblue" d="M423.47,-247.6C438.3,-260.128 466.005,-281.986 493,-295 497.68,-297.256 502.679,-299.297 507.751,-301.13"/>
<polygon fill="midnightblue" stroke="midnightblue" points="506.936,-304.548 517.53,-304.401 509.157,-297.909 506.936,-304.548"/>
</g>
<!-- Node22 -->
<g id="node23" class="node"><title>Node22</title>
<g id="a_node23"><a xlink:href="../../da/d1f/chooser_8c_a09a8333de36cfe874df03c793ff133e2.html#a09a8333de36cfe874df03c793ff133e2" target="_top" xlink:title="chooser_pick">
<polygon fill="none" stroke="black" points="522.5,-266.5 522.5,-285.5 596.5,-285.5 596.5,-266.5 522.5,-266.5"/>
<text text-anchor="middle" x="559.5" y="-273.5" font-family="Helvetica,sans-Serif" font-size="10.00">chooser_pick</text>
</a>
</g>
</g>
<!-- Node15&#45;&gt;Node22 -->
<g id="edge26" class="edge"><title>Node15&#45;&gt;Node22</title>
<path fill="none" stroke="midnightblue" d="M449.342,-247.589C468.58,-252.596 492.3,-258.77 512.709,-264.082"/>
<polygon fill="midnightblue" stroke="midnightblue" points="511.868,-267.48 522.428,-266.611 513.632,-260.705 511.868,-267.48"/>
</g>
<!-- Node24 -->
<g id="node25" class="node"><title>Node24</title>
<g id="a_node25"><a xlink:href="../../d1/d2a/graph_8c_ac683cc08fc4c4391a1e872db552f4c3b.html#ac683cc08fc4c4391a1e872db552f4c3b" target="_top" xlink:title="graph_free">
<polygon fill="none" stroke="black" points="528.5,-228.5 528.5,-247.5 590.5,-247.5 590.5,-228.5 528.5,-228.5"/>
<text text-anchor="middle" x="559.5" y="-235.5" font-family="Helvetica,sans-Serif" font-size="10.00">graph_free</text>
</a>
</g>
</g>
<!-- Node15&#45;&gt;Node24 -->
<g id="edge29" class="edge"><title>Node15&#45;&gt;Node24</title>
<path fill="none" stroke="midnightblue" d="M454.338,-238C474.337,-238 498.178,-238 518.001,-238"/>
<polygon fill="midnightblue" stroke="midnightblue" points="518.254,-241.5 528.254,-238 518.254,-234.5 518.254,-241.5"/>
</g>
<!-- Node25 -->
<g id="node26" class="node"><title>Node25</title>
<g id="a_node26"><a xlink:href="../../d1/d2a/graph_8c_ac96bb5f2ca9a14261f32f070172fb6d9.html#ac96bb5f2ca9a14261f32f070172fb6d9" target="_top" xlink:title="graph_new">
<polygon fill="none" stroke="black" points="527.5,-190.5 527.5,-209.5 591.5,-209.5 591.5,-190.5 527.5,-190.5"/>
<text text-anchor="middle" x="559.5" y="-197.5" font-family="Helvetica,sans-Serif" font-size="10.00">graph_new</text>
</a>
</g>
</g>
<!-- Node15&#45;&gt;Node25 -->
<g id="edge30" class="edge"><title>Node15&#45;&gt;Node25</title>
<path fill="none" stroke="midnightblue" d="M449.342,-228.411C470.053,-223.02 495.959,-216.278 517.335,-210.714"/>
<polygon fill="midnightblue" stroke="midnightblue" points="518.316,-214.076 527.112,-208.169 516.553,-207.301 518.316,-214.076"/>
</g>
<!-- Node26 -->
<g id="node27" class="node"><title>Node26</title>
<g id="a_node27"><a xlink:href="../../d3/d5a/oblas_8h_a962c3db45b173ccbaf6418d5894409be.html#a962c3db45b173ccbaf6418d5894409be" target="_top" xlink:title="oaxpy">
<polygon fill="none" stroke="black" points="538,-38.5 538,-57.5 581,-57.5 581,-38.5 538,-38.5"/>
<text text-anchor="middle" x="559.5" y="-45.5" font-family="Helvetica,sans-Serif" font-size="10.00">oaxpy</text>
</a>
</g>
</g>
<!-- Node15&#45;&gt;Node26 -->
<g id="edge31" class="edge"><title>Node15&#45;&gt;Node26</title>
<path fill="none" stroke="midnightblue" d="M414.206,-228.173C419.8,-198.969 440.341,-111.949 493,-67 502.682,-58.7358 515.783,-54.0619 527.725,-51.4203"/>
<polygon fill="midnightblue" stroke="midnightblue" points="528.595,-54.8194 537.805,-49.5828 527.34,-47.9329 528.595,-54.8194"/>
</g>
<!-- Node27 -->
<g id="node28" class="node"><title>Node27</title>
<g id="a_node28"><a xlink:href="../../d3/d5a/oblas_8h_aac1e9520179bae9bf58901a111aad57d.html#aac1e9520179bae9bf58901a111aad57d" target="_top" xlink:title="oswapcol">
<polygon fill="none" stroke="black" points="530.5,-152.5 530.5,-171.5 588.5,-171.5 588.5,-152.5 530.5,-152.5"/>
<text text-anchor="middle" x="559.5" y="-159.5" font-family="Helvetica,sans-Serif" font-size="10.00">oswapcol</text>
</a>
</g>
</g>
<!-- Node15&#45;&gt;Node27 -->
<g id="edge32" class="edge"><title>Node15&#45;&gt;Node27</title>
<path fill="none" stroke="midnightblue" d="M423.47,-228.4C438.3,-215.872 466.005,-194.014 493,-181 501.616,-176.846 511.316,-173.422 520.559,-170.681"/>
<polygon fill="midnightblue" stroke="midnightblue" points="521.633,-174.015 530.335,-167.972 519.764,-167.269 521.633,-174.015"/>
</g>
<!-- Node28 -->
<g id="node29" class="node"><title>Node28</title>
<g id="a_node29"><a xlink:href="../../d3/d5a/oblas_8h_ad0978d40d1e2a78b8ff34f3d0d376dd3.html#ad0978d40d1e2a78b8ff34f3d0d376dd3" target="_top" xlink:title="oswaprow">
<polygon fill="none" stroke="black" points="529,-76.5 529,-95.5 590,-95.5 590,-76.5 529,-76.5"/>
<text text-anchor="middle" x="559.5" y="-83.5" font-family="Helvetica,sans-Serif" font-size="10.00">oswaprow</text>
</a>
</g>
</g>
<!-- Node15&#45;&gt;Node28 -->
<g id="edge33" class="edge"><title>Node15&#45;&gt;Node28</title>
<path fill="none" stroke="midnightblue" d="M415.585,-228.278C423.888,-203.706 449.101,-138.68 493,-105 500.589,-99.1779 509.91,-95.1383 519.115,-92.3359"/>
<polygon fill="midnightblue" stroke="midnightblue" points="520.183,-95.6743 528.97,-89.7549 518.41,-88.9027 520.183,-95.6743"/>
</g>
<!-- Node20 -->
<g id="node21" class="node"><title>Node20</title>
<g id="a_node21"><a xlink:href="../../d1/d2a/graph_8c_a4df6f2af3bed651a7f3d19803ec598e4.html#a4df6f2af3bed651a7f3d19803ec598e4" target="_top" xlink:title="graph_link">
<polygon fill="none" stroke="black" points="670,-304.5 670,-323.5 731,-323.5 731,-304.5 670,-304.5"/>
<text text-anchor="middle" x="700.5" y="-311.5" font-family="Helvetica,sans-Serif" font-size="10.00">graph_link</text>
</a>
</g>
</g>
<!-- Node19&#45;&gt;Node20 -->
<g id="edge24" class="edge"><title>Node19&#45;&gt;Node20</title>
<path fill="none" stroke="midnightblue" d="M607.559,-314C624.486,-314 643.403,-314 659.656,-314"/>
<polygon fill="midnightblue" stroke="midnightblue" points="659.905,-317.5 669.905,-314 659.905,-310.5 659.905,-317.5"/>
</g>
<!-- Node21 -->
<g id="node22" class="node"><title>Node21</title>
<g id="a_node22"><a xlink:href="../../d1/d2a/graph_8c_aebad20ec3b086b7fae30e6ef61892839.html#aebad20ec3b086b7fae30e6ef61892839" target="_top" xlink:title="graph_find">
<polygon fill="none" stroke="black" points="775,-285.5 775,-304.5 837,-304.5 837,-285.5 775,-285.5"/>
<text text-anchor="middle" x="806" y="-292.5" font-family="Helvetica,sans-Serif" font-size="10.00">graph_find</text>
</a>
</g>
</g>
<!-- Node20&#45;&gt;Node21 -->
<g id="edge25" class="edge"><title>Node20&#45;&gt;Node21</title>
<path fill="none" stroke="midnightblue" d="M731.159,-308.555C741.678,-306.624 753.696,-304.418 764.937,-302.354"/>
<polygon fill="midnightblue" stroke="midnightblue" points="765.774,-305.759 774.978,-300.511 764.51,-298.875 765.774,-305.759"/>
</g>
<!-- Node23 -->
<g id="node24" class="node"><title>Node23</title>
<g id="a_node24"><a xlink:href="../../d1/d2a/graph_8c_ab380f8ec271892c52ab6836e6dba1746.html#ab380f8ec271892c52ab6836e6dba1746" target="_top" xlink:title="graph_is_max">
<polygon fill="none" stroke="black" points="662,-266.5 662,-285.5 739,-285.5 739,-266.5 662,-266.5"/>
<text text-anchor="middle" x="700.5" y="-273.5" font-family="Helvetica,sans-Serif" font-size="10.00">graph_is_max</text>
</a>
</g>
</g>
<!-- Node22&#45;&gt;Node23 -->
<g id="edge27" class="edge"><title>Node22&#45;&gt;Node23</title>
<path fill="none" stroke="midnightblue" d="M596.658,-276C613.412,-276 633.554,-276 651.555,-276"/>
<polygon fill="midnightblue" stroke="midnightblue" points="651.581,-279.5 661.581,-276 651.581,-272.5 651.581,-279.5"/>
</g>
<!-- Node23&#45;&gt;Node21 -->
<g id="edge28" class="edge"><title>Node23&#45;&gt;Node21</title>
<path fill="none" stroke="midnightblue" d="M739.159,-282.913C747.541,-284.452 756.458,-286.089 764.934,-287.645"/>
<polygon fill="midnightblue" stroke="midnightblue" points="764.52,-291.127 774.988,-289.49 765.784,-284.242 764.52,-291.127"/>
</g>
<!-- Node29&#45;&gt;Node26 -->
<g id="edge35" class="edge"><title>Node29&#45;&gt;Node26</title>
<path fill="none" stroke="midnightblue" d="M449.342,-76.411C473.663,-70.0809 505.147,-61.8863 528.049,-55.9256"/>
<polygon fill="midnightblue" stroke="midnightblue" points="529.115,-59.2649 537.911,-53.3589 527.352,-52.4906 529.115,-59.2649"/>
</g>
<!-- Node29&#45;&gt;Node28 -->
<g id="edge37" class="edge"><title>Node29&#45;&gt;Node28</title>
<path fill="none" stroke="midnightblue" d="M454.338,-86C474.573,-86 498.74,-86 518.7,-86"/>
<polygon fill="midnightblue" stroke="midnightblue" points="518.711,-89.5001 528.711,-86 518.711,-82.5001 518.711,-89.5001"/>
</g>
<!-- Node30 -->
<g id="node31" class="node"><title>Node30</title>
<g id="a_node31"><a xlink:href="../../d3/d5a/oblas_8h_abfa7ba50070fbebe1ea2e0e2fc3f913b.html#abfa7ba50070fbebe1ea2e0e2fc3f913b" target="_top" xlink:title="oscal">
<polygon fill="none" stroke="black" points="539.5,-0.5 539.5,-19.5 579.5,-19.5 579.5,-0.5 539.5,-0.5"/>
<text text-anchor="middle" x="559.5" y="-7.5" font-family="Helvetica,sans-Serif" font-size="10.00">oscal</text>
</a>
</g>
</g>
<!-- Node29&#45;&gt;Node30 -->
<g id="edge36" class="edge"><title>Node29&#45;&gt;Node30</title>
<path fill="none" stroke="midnightblue" d="M439.791,-76.4381C445.709,-73.8028 451.76,-70.6468 457,-67 476.096,-53.7112 473.135,-41.1079 493,-29 504.026,-22.2798 517.544,-17.8372 529.431,-14.9512"/>
<polygon fill="midnightblue" stroke="midnightblue" points="530.322,-18.3392 539.352,-12.7976 528.837,-11.4985 530.322,-18.3392"/>
</g>
<!-- Node31&#45;&gt;Node9 -->
<g id="edge41" class="edge"><title>Node31&#45;&gt;Node9</title>
<path fill="none" stroke="midnightblue" d="M436.487,-399.571C443.71,-403.287 451.24,-408.092 457,-414 481.698,-439.333 465.757,-462.427 493,-485 499.482,-490.371 507.415,-494.224 515.494,-496.988"/>
<polygon fill="midnightblue" stroke="midnightblue" points="514.752,-500.417 525.332,-499.848 516.707,-493.696 514.752,-500.417"/>
</g>
<!-- Node31&#45;&gt;Node10 -->
<g id="edge42" class="edge"><title>Node31&#45;&gt;Node10</title>
<path fill="none" stroke="midnightblue" d="M420.233,-399.772C429.519,-411.725 445.306,-432.75 457,-452 475.369,-482.238 471.253,-495.093 493,-523 505.313,-538.801 522.493,-553.557 536.169,-564.095"/>
<polygon fill="midnightblue" stroke="midnightblue" points="534.461,-567.189 544.563,-570.38 538.656,-561.585 534.461,-567.189"/>
</g>
<!-- Node32 -->
<g id="node33" class="node"><title>Node32</title>
<g id="a_node33"><a xlink:href="../../d3/d5a/oblas_8h_a85e2604cc8aec26b591370ab48307bcc.html#a85e2604cc8aec26b591370ab48307bcc" target="_top" xlink:title="ogemm">
<polygon fill="none" stroke="black" points="535,-456.5 535,-475.5 584,-475.5 584,-456.5 535,-456.5"/>
<text text-anchor="middle" x="559.5" y="-463.5" font-family="Helvetica,sans-Serif" font-size="10.00">ogemm</text>
</a>
</g>
</g>
<!-- Node31&#45;&gt;Node32 -->
<g id="edge39" class="edge"><title>Node31&#45;&gt;Node32</title>
<path fill="none" stroke="midnightblue" d="M432.621,-399.509C440.486,-403.565 449.418,-408.607 457,-414 474.687,-426.581 474.08,-436.364 493,-447 502.777,-452.496 514.287,-456.526 524.908,-459.423"/>
<polygon fill="midnightblue" stroke="midnightblue" points="524.185,-462.85 534.734,-461.864 525.872,-456.056 524.185,-462.85"/>
</g>
<!-- Node31&#45;&gt;Node33 -->
<g id="edge40" class="edge"><title>Node31&#45;&gt;Node33</title>
<path fill="none" stroke="midnightblue" d="M449.342,-399.589C471.465,-405.347 499.516,-412.648 521.642,-418.407"/>
<polygon fill="midnightblue" stroke="midnightblue" points="520.789,-421.801 531.349,-420.933 522.553,-415.027 520.789,-421.801"/>
</g>
<!-- Node34&#45;&gt;Node26 -->
<g id="edge44" class="edge"><title>Node34&#45;&gt;Node26</title>
<path fill="none" stroke="midnightblue" d="M454.338,-48C477.693,-48 506.287,-48 527.604,-48"/>
<polygon fill="midnightblue" stroke="midnightblue" points="527.725,-51.5001 537.725,-48 527.725,-44.5001 527.725,-51.5001"/>
</g>
<!-- Node35&#45;&gt;Node26 -->
<g id="edge46" class="edge"><title>Node35&#45;&gt;Node26</title>
<path fill="none" stroke="midnightblue" d="M449.342,-19.589C473.663,-25.9191 505.147,-34.1137 528.049,-40.0744"/>
<polygon fill="midnightblue" stroke="midnightblue" points="527.352,-43.5094 537.911,-42.6411 529.115,-36.7351 527.352,-43.5094"/>
</g>
<!-- Node35&#45;&gt;Node30 -->
<g id="edge47" class="edge"><title>Node35&#45;&gt;Node30</title>
<path fill="none" stroke="midnightblue" d="M454.338,-10C478.27,-10 507.703,-10 529.17,-10"/>
<polygon fill="midnightblue" stroke="midnightblue" points="529.303,-13.5001 539.303,-10 529.303,-6.5001 529.303,-13.5001"/>
</g>
</g>
</svg>
        <g id="navigator" transform="translate(0 0)" fill="#404254">
                <rect fill="#f2f5e9" fill-opacity="0.5" stroke="#606060" stroke-width=".5" x="0" y="0" width="60" height="60"/>
                <use id="zoomplus" xlink:href="#zoomPlus" x="17" y="9" onmousedown="handleZoom(evt,'in')"/>
                <use id="zoomminus" xlink:href="#zoomMin" x="42" y="9" onmousedown="handleZoom(evt,'out')"/>
                <use id="reset" xlink:href="#resetDef" x="30" y="36" onmousedown="handleReset()"/>
                <g id="arrowUp" xlink:href="#dirArrow" transform="translate(30 24)" onmousedown="handlePan(0,-1)">
                  <use xlink:href="#rim" fill="#404040">
                        <set attributeName="fill" to="#808080" begin="arrowUp.mouseover" end="arrowUp.mouseout"/>
                  </use>
                  <path fill="none" stroke="white" stroke-width="1.5" d="M0,-3.0v7 M-2.5,-0.5L0,-3.0L2.5,-0.5"/>
                </g>
                <g id="arrowRight" xlink:href="#dirArrow" transform="rotate(90) translate(36 -43)" onmousedown="handlePan(1,0)">
                  <use xlink:href="#rim" fill="#404040">
                        <set attributeName="fill" to="#808080" begin="arrowRight.mouseover" end="arrowRight.mouseout"/>
                  </use>
                  <path fill="none" stroke="white" stroke-width="1.5" d="M0,-3.0v7 M-2.5,-0.5L0,-3.0L2.5,-0.5"/>
                </g>
                <g id="arrowDown" xlink:href="#dirArrow" transform="rotate(180) translate(-30 -48)" onmousedown="handlePan(0,1)">
                  <use xlink:href="#rim" fill="#404040">
                        <set attributeName="fill" to="#808080" begin="arrowDown.mouseover" end="arrowDown.mouseout"/>
                  </use>
                  <path fill="none" stroke="white" stroke-width="1.5" d="M0,-3.0v7 M-2.5,-0.5L0,-3.0L2.5,-0.5"/>
                </g>
                <g id="arrowLeft" xlink:href="#dirArrow" transform="rotate(270) translate(-36 17)" onmousedown="handlePan(-1,0)">
                  <use xlink:href="#rim" fill="#404040">
                        <set attributeName="fill" to="#808080" begin="arrowLeft.mouseover" end="arrowLeft.mouseout"/>
                  </use>
                  <path fill="none" stroke="white" stroke-width="1.5" d="M0,-3.0v7 M-2.5,-0.5L0,-3.0L2.5,-0.5"/>
                </g>
        </g>
        <svg viewBox="0 0 15 15" width="100%" height="30px" preserveAspectRatio="xMaxYMin meet">
         <g id="arrow_out" transform="scale(0.3 0.3)">
          <a xlink:href="precode_8h_a2b6a5db8f90fc98b364cb5ed3b5eca24_a2b6a5db8f90fc98b364cb5ed3b5eca24_cgraph_org.svg" target="_base">
           <rect id="button" ry="5" rx="5" y="6" x="6" height="38" width="38"
                fill="#f2f5e9" fill-opacity="0.5" stroke="#606060" stroke-width="1.0"/>
           <path id="arrow"
             d="M 11.500037,31.436501 C 11.940474,20.09759 22.043105,11.32322 32.158766,21.979434 L 37.068811,17.246167 C 37.068811,17.246167 37.088388,32 37.088388,32 L 22.160133,31.978069 C 22.160133,31.978069 26.997745,27.140456 26.997745,27.140456 C 18.528582,18.264221 13.291696,25.230495 11.500037,31.436501 z"
             style="fill:#404040;"/>
          </a>
         </g>
        </svg>
</svg>
