<?xml version="1.0" encoding="UTF-8" standalone="no"?>
<!DOCTYPE svg PUBLIC "-//W3C//DTD SVG 1.1//EN"
 "http://www.w3.org/Graphics/SVG/1.1/DTD/svg11.dtd">
<!-- Generated by graphviz version 2.38.0 (20140413.2041)
 -->
<!-- Title: ogemm Pages: 1 -->
<!--zoomable 132 -->
<svg id="main" version="1.1" xmlns="http://www.w3.org/2000/svg" xmlns:xlink="http://www.w3.org/1999/xlink" xml:space="preserve" onload="init(evt)">
<style type="text/css"><![CDATA[
.edge:hover path { stroke: red; }
.edge:hover polygon { stroke: red; fill: red; }
]]></style>
<script type="text/javascript"><![CDATA[
var edges = document.getElementsByTagName('g');
if (edges && edges.length) {
  for (var i=0;i<edges.length;i++) {
    if (edges[i].id.substr(0,4)=='edge') {
      edges[i].setAttribute('class','edge');
    }
  }
}
]]></script>
        <defs>
                <circle id="rim" cx="0" cy="0" r="7"/>
                <circle id="rim2" cx="0" cy="0" r="3.5"/>
                <g id="zoomPlus">
                        <use xlink:href="#rim" fill="#404040">
                                <set attributeName="fill" to="#808080" begin="zoomplus.mouseover" end="zoomplus.mouseout"/>
                        </use>
                        <path d="M-4,0h8M0,-4v8" fill="none" stroke="white" stroke-width="1.5" pointer-events="none"/>
                </g>
                <g id="zoomMin">
                        <use xlink:href="#rim" fill="#404040">
                                <set attributeName="fill" to="#808080" begin="zoomminus.mouseover" end="zoomminus.mouseout"/>
                        </use>
                        <path d="M-4,0h8" fill="none" stroke="white" stroke-width="1.5" pointer-events="none"/>
                </g>
                <g id="dirArrow">
                        <path fill="none" stroke="white" stroke-width="1.5" d="M0,-3.0v7 M-2.5,-0.5L0,-3.0L2.5,-0.5"/>
                </g>
               <g id="resetDef">
                       <use xlink:href="#rim2" fill="#404040">
                               <set attributeName="fill" to="#808080" begin="reset.mouseover" end="reset.mouseout"/>
                       </use>
               </g>
        </defs>

<script type="text/javascript">
var viewWidth = 1077;
var viewHeight = 132;
var sectionId = 'dynsection-0';
</script>
<script xlink:href="../../svgpan.js"/>
<svg id="graph" class="graph">
<g id="viewport">
<title>ogemm</title>
<!-- Node1 -->
<g id="node1" class="node"><title>Node1</title>
<polygon fill="#bfbfbf" stroke="black" points="0,-38.5 0,-57.5 49,-57.5 49,-38.5 0,-38.5"/>
<text text-anchor="middle" x="24.5" y="-45.5" font-family="Helvetica,sans-Serif" font-size="10.00">ogemm</text>
</g>
<!-- Node2 -->
<g id="node2" class="node"><title>Node2</title>
<g id="a_node2"><a xlink:href="../../d6/d1a/precode_8c_a11824185dea7b498ffadaca55ae49090.html#a11824185dea7b498ffadaca55ae49090" target="_top" xlink:title="decode_phase3">
<polygon fill="none" stroke="black" points="110.5,-19.5 110.5,-38.5 195.5,-38.5 195.5,-19.5 110.5,-19.5"/>
<text text-anchor="middle" x="153" y="-26.5" font-family="Helvetica,sans-Serif" font-size="10.00">decode_phase3</text>
</a>
</g>
</g>
<!-- Node1&#45;&gt;Node2 -->
<g id="edge1" class="edge"><title>Node1&#45;&gt;Node2</title>
<path fill="none" stroke="midnightblue" d="M59.5726,-42.8824C75.2174,-40.5326 93.9121,-37.7247 110.382,-35.2509"/>
<polygon fill="midnightblue" stroke="midnightblue" points="58.6629,-39.4797 49.2937,-44.4262 59.7026,-46.402 58.6629,-39.4797"/>
</g>
<!-- Node13 -->
<g id="node13" class="node"><title>Node13</title>
<g id="a_node13"><a xlink:href="../../d6/d1a/precode_8c_a64e2c5739177d2991dea9ab54f2469b6.html#a64e2c5739177d2991dea9ab54f2469b6" target="_top" xlink:title="precode_matrix_init_HDPC">
<polygon fill="none" stroke="black" points="85,-57.5 85,-76.5 221,-76.5 221,-57.5 85,-57.5"/>
<text text-anchor="middle" x="153" y="-64.5" font-family="Helvetica,sans-Serif" font-size="10.00">precode_matrix_init_HDPC</text>
</a>
</g>
</g>
<!-- Node1&#45;&gt;Node13 -->
<g id="edge13" class="edge"><title>Node1&#45;&gt;Node13</title>
<path fill="none" stroke="midnightblue" d="M59.3697,-53.0871C68.4078,-54.4446 78.4749,-55.9567 88.5488,-57.4698"/>
<polygon fill="midnightblue" stroke="midnightblue" points="59.7026,-49.598 49.2937,-51.5738 58.6629,-56.5203 59.7026,-49.598"/>
</g>
<!-- Node3 -->
<g id="node3" class="node"><title>Node3</title>
<g id="a_node3"><a xlink:href="../../da/def/precode_8h_a262ba8efa6b500c1e7a3cb0451245291.html#a262ba8efa6b500c1e7a3cb0451245291" target="_top" xlink:title="precode_matrix_intermediate1">
<polygon fill="none" stroke="black" points="257,-19.5 257,-38.5 404,-38.5 404,-19.5 257,-19.5"/>
<text text-anchor="middle" x="330.5" y="-26.5" font-family="Helvetica,sans-Serif" font-size="10.00">precode_matrix_intermediate1</text>
</a>
</g>
</g>
<!-- Node2&#45;&gt;Node3 -->
<g id="edge2" class="edge"><title>Node2&#45;&gt;Node3</title>
<path fill="none" stroke="midnightblue" d="M205.817,-29C221.845,-29 239.807,-29 256.967,-29"/>
<polygon fill="midnightblue" stroke="midnightblue" points="205.591,-25.5001 195.591,-29 205.591,-32.5001 205.591,-25.5001"/>
</g>
<!-- Node4 -->
<g id="node4" class="node"><title>Node4</title>
<g id="a_node4"><a xlink:href="../../d6/da2/nanorq_8h_ad6a9288685637cdfe83303f66b087a29.html#ad6a9288685637cdfe83303f66b087a29" target="_top" xlink:title="nanorq_generate_symbols">
<polygon fill="none" stroke="black" points="448,-76.5 448,-95.5 579,-95.5 579,-76.5 448,-76.5"/>
<text text-anchor="middle" x="513.5" y="-83.5" font-family="Helvetica,sans-Serif" font-size="10.00">nanorq_generate_symbols</text>
</a>
</g>
</g>
<!-- Node3&#45;&gt;Node4 -->
<g id="edge3" class="edge"><title>Node3&#45;&gt;Node4</title>
<path fill="none" stroke="midnightblue" d="M380.333,-41.2217C388.274,-43.3743 396.388,-45.6737 404,-48 432.631,-56.7498 464.96,-68.2922 486.825,-76.3506"/>
<polygon fill="midnightblue" stroke="midnightblue" points="380.981,-37.7724 370.417,-38.5827 379.181,-44.537 380.981,-37.7724"/>
</g>
<!-- Node9 -->
<g id="node9" class="node"><title>Node9</title>
<g id="a_node9"><a xlink:href="../../da/def/precode_8h_a2b6a5db8f90fc98b364cb5ed3b5eca24.html#a2b6a5db8f90fc98b364cb5ed3b5eca24" target="_top" xlink:title="precode_matrix_intermediate2">
<polygon fill="none" stroke="black" points="440,-0.5 440,-19.5 587,-19.5 587,-0.5 440,-0.5"/>
<text text-anchor="middle" x="513.5" y="-7.5" font-family="Helvetica,sans-Serif" font-size="10.00">precode_matrix_intermediate2</text>
</a>
</g>
</g>
<!-- Node3&#45;&gt;Node9 -->
<g id="edge9" class="edge"><title>Node3&#45;&gt;Node9</title>
<path fill="none" stroke="midnightblue" d="M414.116,-20.3276C422.722,-19.4242 431.424,-18.5107 439.907,-17.6203"/>
<polygon fill="midnightblue" stroke="midnightblue" points="413.657,-16.8565 404.077,-21.3815 414.387,-23.8182 413.657,-16.8565"/>
</g>
<!-- Node5 -->
<g id="node5" class="node"><title>Node5</title>
<g id="a_node5"><a xlink:href="../../dd/d3f/encode_8c_a3c04138a5bfe5d72780bb7e82a18e627.html#a3c04138a5bfe5d72780bb7e82a18e627" target="_top" xlink:title="main">
<polygon fill="none" stroke="black" points="1031,-85.5 1031,-104.5 1069,-104.5 1069,-85.5 1031,-85.5"/>
<text text-anchor="middle" x="1050" y="-92.5" font-family="Helvetica,sans-Serif" font-size="10.00">main</text>
</a>
</g>
</g>
<!-- Node4&#45;&gt;Node5 -->
<g id="edge4" class="edge"><title>Node4&#45;&gt;Node5</title>
<path fill="none" stroke="midnightblue" d="M589.571,-87.2641C715.556,-89.3854 962.49,-93.5433 1031,-94.6969"/>
<polygon fill="midnightblue" stroke="midnightblue" points="589.297,-83.759 579.239,-87.0901 589.179,-90.758 589.297,-83.759"/>
</g>
<!-- Node6 -->
<g id="node6" class="node"><title>Node6</title>
<g id="a_node6"><a xlink:href="../../d6/da2/nanorq_8h_a956615eb4ea3ce34369951295e93f708.html#a956615eb4ea3ce34369951295e93f708" target="_top" xlink:title="nanorq_encode">
<polygon fill="none" stroke="black" points="641.5,-104.5 641.5,-123.5 724.5,-123.5 724.5,-104.5 641.5,-104.5"/>
<text text-anchor="middle" x="683" y="-111.5" font-family="Helvetica,sans-Serif" font-size="10.00">nanorq_encode</text>
</a>
</g>
</g>
<!-- Node4&#45;&gt;Node6 -->
<g id="edge5" class="edge"><title>Node4&#45;&gt;Node6</title>
<path fill="none" stroke="midnightblue" d="M581.782,-97.2471C601.994,-100.626 623.538,-104.227 641.451,-107.222"/>
<polygon fill="midnightblue" stroke="midnightblue" points="582.116,-93.7544 571.676,-95.5577 580.962,-100.659 582.116,-93.7544"/>
</g>
<!-- Node7 -->
<g id="node7" class="node"><title>Node7</title>
<g id="a_node7"><a xlink:href="../../dd/d3f/encode_8c_a0993cb61d7e4c1b1a1606d159f5b1410.html#a0993cb61d7e4c1b1a1606d159f5b1410" target="_top" xlink:title="dump_esi">
<polygon fill="none" stroke="black" points="805,-104.5 805,-123.5 864,-123.5 864,-104.5 805,-104.5"/>
<text text-anchor="middle" x="834.5" y="-111.5" font-family="Helvetica,sans-Serif" font-size="10.00">dump_esi</text>
</a>
</g>
</g>
<!-- Node6&#45;&gt;Node7 -->
<g id="edge6" class="edge"><title>Node6&#45;&gt;Node7</title>
<path fill="none" stroke="midnightblue" d="M734.907,-114C758.14,-114 784.805,-114 804.542,-114"/>
<polygon fill="midnightblue" stroke="midnightblue" points="734.852,-110.5 724.852,-114 734.851,-117.5 734.852,-110.5"/>
</g>
<!-- Node8 -->
<g id="node8" class="node"><title>Node8</title>
<g id="a_node8"><a xlink:href="../../dd/d3f/encode_8c_ae7f8bbf4dcea92f802d2521fa0264f93.html#ae7f8bbf4dcea92f802d2521fa0264f93" target="_top" xlink:title="dump_block">
<polygon fill="none" stroke="black" points="926,-104.5 926,-123.5 995,-123.5 995,-104.5 926,-104.5"/>
<text text-anchor="middle" x="960.5" y="-111.5" font-family="Helvetica,sans-Serif" font-size="10.00">dump_block</text>
</a>
</g>
</g>
<!-- Node7&#45;&gt;Node8 -->
<g id="edge7" class="edge"><title>Node7&#45;&gt;Node8</title>
<path fill="none" stroke="midnightblue" d="M874.607,-114C890.984,-114 909.841,-114 925.616,-114"/>
<polygon fill="midnightblue" stroke="midnightblue" points="874.26,-110.5 864.26,-114 874.26,-117.5 874.26,-110.5"/>
</g>
<!-- Node8&#45;&gt;Node5 -->
<g id="edge8" class="edge"><title>Node8&#45;&gt;Node5</title>
<path fill="none" stroke="midnightblue" d="M1004.92,-104.572C1014.06,-102.587 1023.22,-100.598 1030.8,-98.9512"/>
<polygon fill="midnightblue" stroke="midnightblue" points="1004.11,-101.166 995.08,-106.708 1005.59,-108.007 1004.11,-101.166"/>
</g>
<!-- Node10 -->
<g id="node10" class="node"><title>Node10</title>
<g id="a_node10"><a xlink:href="../../da/def/precode_8h_aee2113e8f8d7e54052fc8db5dd71fd1f.html#aee2113e8f8d7e54052fc8db5dd71fd1f" target="_top" xlink:title="precode_matrix_decode">
<polygon fill="none" stroke="black" points="623,-9.5 623,-28.5 743,-28.5 743,-9.5 623,-9.5"/>
<text text-anchor="middle" x="683" y="-16.5" font-family="Helvetica,sans-Serif" font-size="10.00">precode_matrix_decode</text>
</a>
</g>
</g>
<!-- Node9&#45;&gt;Node10 -->
<g id="edge10" class="edge"><title>Node9&#45;&gt;Node10</title>
<path fill="none" stroke="midnightblue" d="M597.496,-14.4595C606.05,-14.9191 614.614,-15.3793 622.832,-15.8208"/>
<polygon fill="midnightblue" stroke="midnightblue" points="597.654,-10.963 587.481,-13.9213 597.278,-17.9529 597.654,-10.963"/>
</g>
<!-- Node11 -->
<g id="node11" class="node"><title>Node11</title>
<g id="a_node11"><a xlink:href="../../d6/da2/nanorq_8h_aa1dcf83669e76931be0e6e7a1f02c185.html#aa1dcf83669e76931be0e6e7a1f02c185" target="_top" xlink:title="nanorq_decode_block">
<polygon fill="none" stroke="black" points="779,-9.5 779,-28.5 890,-28.5 890,-9.5 779,-9.5"/>
<text text-anchor="middle" x="834.5" y="-16.5" font-family="Helvetica,sans-Serif" font-size="10.00">nanorq_decode_block</text>
</a>
</g>
</g>
<!-- Node10&#45;&gt;Node11 -->
<g id="edge11" class="edge"><title>Node10&#45;&gt;Node11</title>
<path fill="none" stroke="midnightblue" d="M753.104,-19C761.7,-19 770.396,-19 778.734,-19"/>
<polygon fill="midnightblue" stroke="midnightblue" points="753.086,-15.5001 743.086,-19 753.086,-22.5001 753.086,-15.5001"/>
</g>
<!-- Node12 -->
<g id="node12" class="node"><title>Node12</title>
<g id="a_node12"><a xlink:href="../../da/d0d/decode_8c_a3c04138a5bfe5d72780bb7e82a18e627.html#a3c04138a5bfe5d72780bb7e82a18e627" target="_top" xlink:title="main">
<polygon fill="none" stroke="black" points="941.5,-9.5 941.5,-28.5 979.5,-28.5 979.5,-9.5 941.5,-9.5"/>
<text text-anchor="middle" x="960.5" y="-16.5" font-family="Helvetica,sans-Serif" font-size="10.00">main</text>
</a>
</g>
</g>
<!-- Node11&#45;&gt;Node12 -->
<g id="edge12" class="edge"><title>Node11&#45;&gt;Node12</title>
<path fill="none" stroke="midnightblue" d="M900.661,-19C915.706,-19 930.503,-19 941.494,-19"/>
<polygon fill="midnightblue" stroke="midnightblue" points="900.249,-15.5001 890.249,-19 900.249,-22.5001 900.249,-15.5001"/>
</g>
<!-- Node14 -->
<g id="node14" class="node"><title>Node14</title>
<g id="a_node14"><a xlink:href="../../da/def/precode_8h_a85c0aa4f7900eccf336228d43b7c133c.html#a85c0aa4f7900eccf336228d43b7c133c" target="_top" xlink:title="precode_matrix_gen">
<polygon fill="none" stroke="black" points="278.5,-57.5 278.5,-76.5 382.5,-76.5 382.5,-57.5 278.5,-57.5"/>
<text text-anchor="middle" x="330.5" y="-64.5" font-family="Helvetica,sans-Serif" font-size="10.00">precode_matrix_gen</text>
</a>
</g>
</g>
<!-- Node13&#45;&gt;Node14 -->
<g id="edge14" class="edge"><title>Node13&#45;&gt;Node14</title>
<path fill="none" stroke="midnightblue" d="M231.434,-67C247.293,-67 263.608,-67 278.268,-67"/>
<polygon fill="midnightblue" stroke="midnightblue" points="231.1,-63.5001 221.1,-67 231.1,-70.5001 231.1,-63.5001"/>
</g>
<!-- Node14&#45;&gt;Node4 -->
<g id="edge15" class="edge"><title>Node14&#45;&gt;Node4</title>
<path fill="none" stroke="midnightblue" d="M393.047,-73.4608C410.671,-75.3107 429.932,-77.3326 447.742,-79.2022"/>
<polygon fill="midnightblue" stroke="midnightblue" points="393.194,-69.957 382.883,-72.3938 392.463,-76.9188 393.194,-69.957"/>
</g>
<!-- Node14&#45;&gt;Node10 -->
<g id="edge16" class="edge"><title>Node14&#45;&gt;Node10</title>
<path fill="none" stroke="midnightblue" d="M392.911,-58.59C457.68,-49.72 559.019,-35.8419 622.902,-27.0934"/>
<polygon fill="midnightblue" stroke="midnightblue" points="392.274,-55.1445 382.841,-59.969 393.224,-62.0797 392.274,-55.1445"/>
</g>
</g>
</svg>
        <g id="navigator" transform="translate(0 0)" fill="#404254">
                <rect fill="#f2f5e9" fill-opacity="0.5" stroke="#606060" stroke-width=".5" x="0" y="0" width="60" height="60"/>
                <use id="zoomplus" xlink:href="#zoomPlus" x="17" y="9" onmousedown="handleZoom(evt,'in')"/>
                <use id="zoomminus" xlink:href="#zoomMin" x="42" y="9" onmousedown="handleZoom(evt,'out')"/>
                <use id="reset" xlink:href="#resetDef" x="30" y="36" onmousedown="handleReset()"/>
                <g id="arrowUp" xlink:href="#dirArrow" transform="translate(30 24)" onmousedown="handlePan(0,-1)">
                  <use xlink:href="#rim" fill="#404040">
                        <set attributeName="fill" to="#808080" begin="arrowUp.mouseover" end="arrowUp.mouseout"/>
                  </use>
                  <path fill="none" stroke="white" stroke-width="1.5" d="M0,-3.0v7 M-2.5,-0.5L0,-3.0L2.5,-0.5"/>
                </g>
                <g id="arrowRight" xlink:href="#dirArrow" transform="rotate(90) translate(36 -43)" onmousedown="handlePan(1,0)">
                  <use xlink:href="#rim" fill="#404040">
                        <set attributeName="fill" to="#808080" begin="arrowRight.mouseover" end="arrowRight.mouseout"/>
                  </use>
                  <path fill="none" stroke="white" stroke-width="1.5" d="M0,-3.0v7 M-2.5,-0.5L0,-3.0L2.5,-0.5"/>
                </g>
                <g id="arrowDown" xlink:href="#dirArrow" transform="rotate(180) translate(-30 -48)" onmousedown="handlePan(0,1)">
                  <use xlink:href="#rim" fill="#404040">
                        <set attributeName="fill" to="#808080" begin="arrowDown.mouseover" end="arrowDown.mouseout"/>
                  </use>
                  <path fill="none" stroke="white" stroke-width="1.5" d="M0,-3.0v7 M-2.5,-0.5L0,-3.0L2.5,-0.5"/>
                </g>
                <g id="arrowLeft" xlink:href="#dirArrow" transform="rotate(270) translate(-36 17)" onmousedown="handlePan(-1,0)">
                  <use xlink:href="#rim" fill="#404040">
                        <set attributeName="fill" to="#808080" begin="arrowLeft.mouseover" end="arrowLeft.mouseout"/>
                  </use>
                  <path fill="none" stroke="white" stroke-width="1.5" d="M0,-3.0v7 M-2.5,-0.5L0,-3.0L2.5,-0.5"/>
                </g>
        </g>
        <svg viewBox="0 0 15 15" width="100%" height="30px" preserveAspectRatio="xMaxYMin meet">
         <g id="arrow_out" transform="scale(0.3 0.3)">
          <a xlink:href="oblas_8h_a85e2604cc8aec26b591370ab48307bcc_a85e2604cc8aec26b591370ab48307bcc_icgraph_org.svg" target="_base">
           <rect id="button" ry="5" rx="5" y="6" x="6" height="38" width="38"
                fill="#f2f5e9" fill-opacity="0.5" stroke="#606060" stroke-width="1.0"/>
           <path id="arrow"
             d="M 11.500037,31.436501 C 11.940474,20.09759 22.043105,11.32322 32.158766,21.979434 L 37.068811,17.246167 C 37.068811,17.246167 37.088388,32 37.088388,32 L 22.160133,31.978069 C 22.160133,31.978069 26.997745,27.140456 26.997745,27.140456 C 18.528582,18.264221 13.291696,25.230495 11.500037,31.436501 z"
             style="fill:#404040;"/>
          </a>
         </g>
        </svg>
</svg>
