<?xml version="1.0" encoding="UTF-8" standalone="no"?>
<!DOCTYPE svg PUBLIC "-//W3C//DTD SVG 1.1//EN"
 "http://www.w3.org/Graphics/SVG/1.1/DTD/svg11.dtd">
<!-- Generated by graphviz version 2.38.0 (20140413.2041)
 -->
<!-- Title: ozero Pages: 1 -->
<!--zoomable 469 -->
<svg id="main" version="1.1" xmlns="http://www.w3.org/2000/svg" xmlns:xlink="http://www.w3.org/1999/xlink" xml:space="preserve" onload="init(evt)">
<style type="text/css"><![CDATA[
.edge:hover path { stroke: red; }
.edge:hover polygon { stroke: red; fill: red; }
]]></style>
<script type="text/javascript"><![CDATA[
var edges = document.getElementsByTagName('g');
if (edges && edges.length) {
  for (var i=0;i<edges.length;i++) {
    if (edges[i].id.substr(0,4)=='edge') {
      edges[i].setAttribute('class','edge');
    }
  }
}
]]></script>
        <defs>
                <circle id="rim" cx="0" cy="0" r="7"/>
                <circle id="rim2" cx="0" cy="0" r="3.5"/>
                <g id="zoomPlus">
                        <use xlink:href="#rim" fill="#404040">
                                <set attributeName="fill" to="#808080" begin="zoomplus.mouseover" end="zoomplus.mouseout"/>
                        </use>
                        <path d="M-4,0h8M0,-4v8" fill="none" stroke="white" stroke-width="1.5" pointer-events="none"/>
                </g>
                <g id="zoomMin">
                        <use xlink:href="#rim" fill="#404040">
                                <set attributeName="fill" to="#808080" begin="zoomminus.mouseover" end="zoomminus.mouseout"/>
                        </use>
                        <path d="M-4,0h8" fill="none" stroke="white" stroke-width="1.5" pointer-events="none"/>
                </g>
                <g id="dirArrow">
                        <path fill="none" stroke="white" stroke-width="1.5" d="M0,-3.0v7 M-2.5,-0.5L0,-3.0L2.5,-0.5"/>
                </g>
               <g id="resetDef">
                       <use xlink:href="#rim2" fill="#404040">
                               <set attributeName="fill" to="#808080" begin="reset.mouseover" end="reset.mouseout"/>
                       </use>
               </g>
        </defs>

<script type="text/javascript">
var viewWidth = 1269;
var viewHeight = 469;
var sectionId = 'dynsection-0';
</script>
<script xlink:href="../../svgpan.js"/>
<svg id="graph" class="graph">
<g id="viewport">
<title>ozero</title>
<!-- Node1 -->
<g id="node1" class="node"><title>Node1</title>
<polygon fill="#bfbfbf" stroke="black" points="0,-226 0,-245 41,-245 41,-226 0,-226"/>
<text text-anchor="middle" x="20.5" y="-233" font-family="Helvetica,sans-Serif" font-size="10.00">ozero</text>
</g>
<!-- Node2 -->
<g id="node2" class="node"><title>Node2</title>
<g id="a_node2"><a xlink:href="../../d9/df6/oblas__classic_8c_a2feef265eef6411a595c5e71a1cf45a7.html#a2feef265eef6411a595c5e71a1cf45a7" target="_top" xlink:title="ogemm">
<polygon fill="none" stroke="black" points="83.5,-245 83.5,-264 132.5,-264 132.5,-245 83.5,-245"/>
<text text-anchor="middle" x="108" y="-252" font-family="Helvetica,sans-Serif" font-size="10.00">ogemm</text>
</a>
</g>
</g>
<!-- Node1&#45;&gt;Node2 -->
<g id="edge1" class="edge"><title>Node1&#45;&gt;Node2</title>
<path fill="none" stroke="midnightblue" d="M51.3212,-242.127C61.7994,-244.455 73.4215,-247.038 83.3254,-249.239"/>
<polygon fill="midnightblue" stroke="midnightblue" points="51.8515,-238.659 41.3303,-239.907 50.3329,-245.493 51.8515,-238.659"/>
</g>
<!-- Node3 -->
<g id="node3" class="node"><title>Node3</title>
<g id="a_node3"><a xlink:href="../../de/d35/octmat_8h_a0db07e8a815b999f9837c74c31213cdb.html#a0db07e8a815b999f9837c74c31213cdb" target="_top" xlink:title="om_resize">
<polygon fill="none" stroke="black" points="77,-207 77,-226 139,-226 139,-207 77,-207"/>
<text text-anchor="middle" x="108" y="-214" font-family="Helvetica,sans-Serif" font-size="10.00">om_resize</text>
</a>
</g>
</g>
<!-- Node1&#45;&gt;Node3 -->
<g id="edge2" class="edge"><title>Node1&#45;&gt;Node3</title>
<path fill="none" stroke="midnightblue" d="M51.3264,-228.872C59.603,-227.033 68.593,-225.035 76.886,-223.192"/>
<polygon fill="midnightblue" stroke="midnightblue" points="50.3329,-225.507 41.3303,-231.093 51.8515,-232.341 50.3329,-225.507"/>
</g>
<!-- Node4 -->
<g id="node4" class="node"><title>Node4</title>
<g id="a_node4"><a xlink:href="../../d6/da2/nanorq_8h_ad6a9288685637cdfe83303f66b087a29.html#ad6a9288685637cdfe83303f66b087a29" target="_top" xlink:title="nanorq_generate_symbols">
<polygon fill="none" stroke="black" points="709,-233 709,-252 840,-252 840,-233 709,-233"/>
<text text-anchor="middle" x="774.5" y="-240" font-family="Helvetica,sans-Serif" font-size="10.00">nanorq_generate_symbols</text>
</a>
</g>
</g>
<!-- Node3&#45;&gt;Node4 -->
<g id="edge3" class="edge"><title>Node3&#45;&gt;Node4</title>
<path fill="none" stroke="midnightblue" d="M136.942,-232.863C137.68,-233.708 138.37,-234.587 139,-235.5 184.345,-301.216 113.145,-361.016 175,-411.5 367.387,-568.518 697.182,-306.979 762.187,-252.234"/>
<polygon fill="midnightblue" stroke="midnightblue" points="139.136,-230.133 129.309,-226.174 134.523,-235.397 139.136,-230.133"/>
</g>
<!-- Node9 -->
<g id="node9" class="node"><title>Node9</title>
<g id="a_node9"><a xlink:href="../../d1/d0b/nanorq_8c_a9e0825ce320f90492e45baad6a50ff4c.html#a9e0825ce320f90492e45baad6a50ff4c" target="_top" xlink:title="nanorq_block_decoder">
<polygon fill="none" stroke="black" points="717.5,-74 717.5,-93 831.5,-93 831.5,-74 717.5,-74"/>
<text text-anchor="middle" x="774.5" y="-81" font-family="Helvetica,sans-Serif" font-size="10.00">nanorq_block_decoder</text>
</a>
</g>
</g>
<!-- Node3&#45;&gt;Node9 -->
<g id="edge9" class="edge"><title>Node3&#45;&gt;Node9</title>
<path fill="none" stroke="midnightblue" d="M116.054,-197.385C125.581,-174.618 144.915,-137.531 175,-120.5 358.228,-16.773 625.502,-53.8488 729.659,-73.9904"/>
<polygon fill="midnightblue" stroke="midnightblue" points="112.68,-196.401 112.262,-206.988 119.19,-198.972 112.68,-196.401"/>
</g>
<!-- Node12 -->
<g id="node12" class="node"><title>Node12</title>
<g id="a_node12"><a xlink:href="../../d6/da2/nanorq_8h_a4199d347f3a4d6e329a6b76fde635121.html#a4199d347f3a4d6e329a6b76fde635121" target="_top" xlink:title="nanorq_decoder_add\l_symbol">
<polygon fill="none" stroke="black" points="878,-0.5 878,-30.5 985,-30.5 985,-0.5 878,-0.5"/>
<text text-anchor="start" x="886" y="-18.5" font-family="Helvetica,sans-Serif" font-size="10.00">nanorq_decoder_add</text>
<text text-anchor="middle" x="931.5" y="-7.5" font-family="Helvetica,sans-Serif" font-size="10.00">_symbol</text>
</a>
</g>
</g>
<!-- Node3&#45;&gt;Node12 -->
<g id="edge18" class="edge"><title>Node3&#45;&gt;Node12</title>
<path fill="none" stroke="midnightblue" d="M112.692,-197.134C119.517,-166.683 137.026,-107.763 175,-75.5 259.651,-3.57791 304.421,-7.5 415.5,-7.5 415.5,-7.5 415.5,-7.5 600.5,-7.5 698.498,-7.5 812.817,-11.0695 877.928,-13.4398"/>
<polygon fill="midnightblue" stroke="midnightblue" points="109.257,-196.458 110.642,-206.962 116.11,-197.887 109.257,-196.458"/>
</g>
<!-- Node15 -->
<g id="node15" class="node"><title>Node15</title>
<g id="a_node15"><a xlink:href="../../d6/d1a/precode_8c_a291ab32ffee6435673b4693d8c74952f.html#a291ab32ffee6435673b4693d8c74952f" target="_top" xlink:title="precode_matrix_make_MT">
<polygon fill="none" stroke="black" points="175,-264 175,-283 307,-283 307,-264 175,-264"/>
<text text-anchor="middle" x="241" y="-271" font-family="Helvetica,sans-Serif" font-size="10.00">precode_matrix_make_MT</text>
</a>
</g>
</g>
<!-- Node3&#45;&gt;Node15 -->
<g id="edge19" class="edge"><title>Node3&#45;&gt;Node15</title>
<path fill="none" stroke="midnightblue" d="M135.642,-230.658C147.543,-236.763 161.828,-243.796 175,-249.5 186.922,-254.663 200.353,-259.741 211.899,-263.887"/>
<polygon fill="midnightblue" stroke="midnightblue" points="137.164,-227.504 126.677,-226.003 133.939,-233.717 137.164,-227.504"/>
</g>
<!-- Node16 -->
<g id="node16" class="node"><title>Node16</title>
<g id="a_node16"><a xlink:href="../../d6/d1a/precode_8c_a64e2c5739177d2991dea9ab54f2469b6.html#a64e2c5739177d2991dea9ab54f2469b6" target="_top" xlink:title="precode_matrix_init_HDPC">
<polygon fill="none" stroke="black" points="348.5,-293 348.5,-312 484.5,-312 484.5,-293 348.5,-293"/>
<text text-anchor="middle" x="416.5" y="-300" font-family="Helvetica,sans-Serif" font-size="10.00">precode_matrix_init_HDPC</text>
</a>
</g>
</g>
<!-- Node3&#45;&gt;Node16 -->
<g id="edge27" class="edge"><title>Node3&#45;&gt;Node16</title>
<path fill="none" stroke="midnightblue" d="M135.537,-232.328C136.748,-233.351 137.911,-234.409 139,-235.5 160.174,-256.7 149.065,-277.495 175,-292.5 236.13,-327.868 321.361,-320.898 372.231,-312.075"/>
<polygon fill="midnightblue" stroke="midnightblue" points="137.235,-229.233 127.1,-226.145 133.097,-234.879 137.235,-229.233"/>
</g>
<!-- Node17 -->
<g id="node17" class="node"><title>Node17</title>
<g id="a_node17"><a xlink:href="../../da/def/precode_8h_a85c0aa4f7900eccf336228d43b7c133c.html#a85c0aa4f7900eccf336228d43b7c133c" target="_top" xlink:title="precode_matrix_gen">
<polygon fill="none" stroke="black" points="547.5,-274 547.5,-293 651.5,-293 651.5,-274 547.5,-274"/>
<text text-anchor="middle" x="599.5" y="-281" font-family="Helvetica,sans-Serif" font-size="10.00">precode_matrix_gen</text>
</a>
</g>
</g>
<!-- Node3&#45;&gt;Node17 -->
<g id="edge33" class="edge"><title>Node3&#45;&gt;Node17</title>
<path fill="none" stroke="midnightblue" d="M136.537,-232.509C137.423,-233.462 138.249,-234.459 139,-235.5 177.84,-289.357 122.696,-339.594 175,-380.5 307.496,-484.123 530.513,-333.611 585.808,-293.086"/>
<polygon fill="midnightblue" stroke="midnightblue" points="138.781,-229.823 128.883,-226.044 134.265,-235.171 138.781,-229.823"/>
</g>
<!-- Node18 -->
<g id="node18" class="node"><title>Node18</title>
<g id="a_node18"><a xlink:href="../../da/def/precode_8h_aee2113e8f8d7e54052fc8db5dd71fd1f.html#aee2113e8f8d7e54052fc8db5dd71fd1f" target="_top" xlink:title="precode_matrix_decode">
<polygon fill="none" stroke="black" points="714.5,-142 714.5,-161 834.5,-161 834.5,-142 714.5,-142"/>
<text text-anchor="middle" x="774.5" y="-149" font-family="Helvetica,sans-Serif" font-size="10.00">precode_matrix_decode</text>
</a>
</g>
</g>
<!-- Node3&#45;&gt;Node18 -->
<g id="edge39" class="edge"><title>Node3&#45;&gt;Node18</title>
<path fill="none" stroke="midnightblue" d="M115.79,-197.446C125.132,-174.454 144.362,-136.85 175,-120.5 373.731,-14.4464 664.383,-109.944 749.345,-141.939"/>
<polygon fill="midnightblue" stroke="midnightblue" points="112.495,-196.263 112.188,-206.853 119.032,-198.766 112.495,-196.263"/>
</g>
<!-- Node19 -->
<g id="node19" class="node"><title>Node19</title>
<g id="a_node19"><a xlink:href="../../d6/d1a/precode_8c_a88ec15cf62d897ab1df189175429c7f8.html#a88ec15cf62d897ab1df189175429c7f8" target="_top" xlink:title="precode_matrix_make\l_GAMMA">
<polygon fill="none" stroke="black" points="184.5,-340.5 184.5,-370.5 297.5,-370.5 297.5,-340.5 184.5,-340.5"/>
<text text-anchor="start" x="192.5" y="-358.5" font-family="Helvetica,sans-Serif" font-size="10.00">precode_matrix_make</text>
<text text-anchor="middle" x="241" y="-347.5" font-family="Helvetica,sans-Serif" font-size="10.00">_GAMMA</text>
</a>
</g>
</g>
<!-- Node3&#45;&gt;Node19 -->
<g id="edge25" class="edge"><title>Node3&#45;&gt;Node19</title>
<path fill="none" stroke="midnightblue" d="M136.285,-232.571C137.247,-233.51 138.158,-234.487 139,-235.5 166.535,-268.634 145.338,-294.257 175,-325.5 180.733,-331.539 187.918,-336.472 195.402,-340.464"/>
<polygon fill="midnightblue" stroke="midnightblue" points="138.198,-229.62 128.196,-226.126 133.836,-235.095 138.198,-229.62"/>
</g>
<!-- Node20 -->
<g id="node20" class="node"><title>Node20</title>
<g id="a_node20"><a xlink:href="../../d6/d1a/precode_8c_a11824185dea7b498ffadaca55ae49090.html#a11824185dea7b498ffadaca55ae49090" target="_top" xlink:title="decode_phase3">
<polygon fill="none" stroke="black" points="198.5,-188 198.5,-207 283.5,-207 283.5,-188 198.5,-188"/>
<text text-anchor="middle" x="241" y="-195" font-family="Helvetica,sans-Serif" font-size="10.00">decode_phase3</text>
</a>
</g>
</g>
<!-- Node3&#45;&gt;Node20 -->
<g id="edge28" class="edge"><title>Node3&#45;&gt;Node20</title>
<path fill="none" stroke="midnightblue" d="M149.37,-210.645C164.857,-208.399 182.553,-205.832 198.174,-203.566"/>
<polygon fill="midnightblue" stroke="midnightblue" points="148.448,-207.242 139.054,-212.141 149.453,-214.169 148.448,-207.242"/>
</g>
<!-- Node21 -->
<g id="node21" class="node"><title>Node21</title>
<g id="a_node21"><a xlink:href="../../da/def/precode_8h_a262ba8efa6b500c1e7a3cb0451245291.html#a262ba8efa6b500c1e7a3cb0451245291" target="_top" xlink:title="precode_matrix_intermediate1">
<polygon fill="none" stroke="black" points="343,-207 343,-226 490,-226 490,-207 343,-207"/>
<text text-anchor="middle" x="416.5" y="-214" font-family="Helvetica,sans-Serif" font-size="10.00">precode_matrix_intermediate1</text>
</a>
</g>
</g>
<!-- Node3&#45;&gt;Node21 -->
<g id="edge34" class="edge"><title>Node3&#45;&gt;Node21</title>
<path fill="none" stroke="midnightblue" d="M149.466,-216.5C198.627,-216.5 282.474,-216.5 342.912,-216.5"/>
<polygon fill="midnightblue" stroke="midnightblue" points="149.227,-213 139.227,-216.5 149.227,-220 149.227,-213"/>
</g>
<!-- Node22 -->
<g id="node22" class="node"><title>Node22</title>
<g id="a_node22"><a xlink:href="../../da/def/precode_8h_a2b6a5db8f90fc98b364cb5ed3b5eca24.html#a2b6a5db8f90fc98b364cb5ed3b5eca24" target="_top" xlink:title="precode_matrix_intermediate2">
<polygon fill="none" stroke="black" points="526,-150 526,-169 673,-169 673,-150 526,-150"/>
<text text-anchor="middle" x="599.5" y="-157" font-family="Helvetica,sans-Serif" font-size="10.00">precode_matrix_intermediate2</text>
</a>
</g>
</g>
<!-- Node3&#45;&gt;Node22 -->
<g id="edge35" class="edge"><title>Node3&#45;&gt;Node22</title>
<path fill="none" stroke="midnightblue" d="M121.985,-198.967C133.958,-184.287 153.147,-164.223 175,-154.5 308.519,-95.0902 489.981,-130.942 564.466,-149.948"/>
<polygon fill="midnightblue" stroke="midnightblue" points="119.208,-196.836 115.803,-206.869 124.721,-201.149 119.208,-196.836"/>
</g>
<!-- Node23 -->
<g id="node23" class="node"><title>Node23</title>
<g id="a_node23"><a xlink:href="../../da/def/precode_8h_ac563a7861b8d34580909af77f063ea66.html#ac563a7861b8d34580909af77f063ea66" target="_top" xlink:title="precode_matrix_encode">
<polygon fill="none" stroke="black" points="356.5,-150 356.5,-169 476.5,-169 476.5,-150 356.5,-150"/>
<text text-anchor="middle" x="416.5" y="-157" font-family="Helvetica,sans-Serif" font-size="10.00">precode_matrix_encode</text>
</a>
</g>
</g>
<!-- Node3&#45;&gt;Node23 -->
<g id="edge36" class="edge"><title>Node3&#45;&gt;Node23</title>
<path fill="none" stroke="midnightblue" d="M130.128,-201.092C142.557,-192.884 158.944,-183.478 175,-178.5 234.808,-159.959 306.782,-156.593 356.315,-157.002"/>
<polygon fill="midnightblue" stroke="midnightblue" points="128.106,-198.235 121.839,-206.777 132.065,-204.008 128.106,-198.235"/>
</g>
<!-- Node5 -->
<g id="node5" class="node"><title>Node5</title>
<g id="a_node5"><a xlink:href="../../dd/d3f/encode_8c_a3c04138a5bfe5d72780bb7e82a18e627.html#a3c04138a5bfe5d72780bb7e82a18e627" target="_top" xlink:title="main">
<polygon fill="none" stroke="black" points="1223,-214 1223,-233 1261,-233 1261,-214 1223,-214"/>
<text text-anchor="middle" x="1242" y="-221" font-family="Helvetica,sans-Serif" font-size="10.00">main</text>
</a>
</g>
</g>
<!-- Node4&#45;&gt;Node5 -->
<g id="edge4" class="edge"><title>Node4&#45;&gt;Node5</title>
<path fill="none" stroke="midnightblue" d="M850.304,-239.447C960.794,-234.937 1161.19,-226.758 1222.61,-224.251"/>
<polygon fill="midnightblue" stroke="midnightblue" points="850.075,-235.953 840.226,-239.858 850.36,-242.947 850.075,-235.953"/>
</g>
<!-- Node6 -->
<g id="node6" class="node"><title>Node6</title>
<g id="a_node6"><a xlink:href="../../d6/da2/nanorq_8h_a956615eb4ea3ce34369951295e93f708.html#a956615eb4ea3ce34369951295e93f708" target="_top" xlink:title="nanorq_encode">
<polygon fill="none" stroke="black" points="890,-195 890,-214 973,-214 973,-195 890,-195"/>
<text text-anchor="middle" x="931.5" y="-202" font-family="Helvetica,sans-Serif" font-size="10.00">nanorq_encode</text>
</a>
</g>
</g>
<!-- Node4&#45;&gt;Node6 -->
<g id="edge5" class="edge"><title>Node4&#45;&gt;Node6</title>
<path fill="none" stroke="midnightblue" d="M824.611,-230.46C846.265,-225.151 871.35,-219.001 891.668,-214.02"/>
<polygon fill="midnightblue" stroke="midnightblue" points="823.492,-227.13 814.613,-232.911 825.159,-233.929 823.492,-227.13"/>
</g>
<!-- Node7 -->
<g id="node7" class="node"><title>Node7</title>
<g id="a_node7"><a xlink:href="../../dd/d3f/encode_8c_a0993cb61d7e4c1b1a1606d159f5b1410.html#a0993cb61d7e4c1b1a1606d159f5b1410" target="_top" xlink:title="dump_esi">
<polygon fill="none" stroke="black" points="1023,-195 1023,-214 1082,-214 1082,-195 1023,-195"/>
<text text-anchor="middle" x="1052.5" y="-202" font-family="Helvetica,sans-Serif" font-size="10.00">dump_esi</text>
</a>
</g>
</g>
<!-- Node6&#45;&gt;Node7 -->
<g id="edge6" class="edge"><title>Node6&#45;&gt;Node7</title>
<path fill="none" stroke="midnightblue" d="M983.263,-204.5C996.744,-204.5 1010.84,-204.5 1022.69,-204.5"/>
<polygon fill="midnightblue" stroke="midnightblue" points="983.12,-201 973.12,-204.5 983.12,-208 983.12,-201"/>
</g>
<!-- Node8 -->
<g id="node8" class="node"><title>Node8</title>
<g id="a_node8"><a xlink:href="../../dd/d3f/encode_8c_ae7f8bbf4dcea92f802d2521fa0264f93.html#ae7f8bbf4dcea92f802d2521fa0264f93" target="_top" xlink:title="dump_block">
<polygon fill="none" stroke="black" points="1118,-195 1118,-214 1187,-214 1187,-195 1118,-195"/>
<text text-anchor="middle" x="1152.5" y="-202" font-family="Helvetica,sans-Serif" font-size="10.00">dump_block</text>
</a>
</g>
</g>
<!-- Node7&#45;&gt;Node8 -->
<g id="edge7" class="edge"><title>Node7&#45;&gt;Node8</title>
<path fill="none" stroke="midnightblue" d="M1092.17,-204.5C1100.65,-204.5 1109.57,-204.5 1117.84,-204.5"/>
<polygon fill="midnightblue" stroke="midnightblue" points="1092.11,-201 1082.11,-204.5 1092.11,-208 1092.11,-201"/>
</g>
<!-- Node8&#45;&gt;Node5 -->
<g id="edge8" class="edge"><title>Node8&#45;&gt;Node5</title>
<path fill="none" stroke="midnightblue" d="M1196.92,-213.928C1206.06,-215.913 1215.22,-217.902 1222.8,-219.549"/>
<polygon fill="midnightblue" stroke="midnightblue" points="1197.59,-210.493 1187.08,-211.792 1196.11,-217.334 1197.59,-210.493"/>
</g>
<!-- Node10 -->
<g id="node10" class="node"><title>Node10</title>
<g id="a_node10"><a xlink:href="../../d6/da2/nanorq_8h_aa1dcf83669e76931be0e6e7a1f02c185.html#aa1dcf83669e76931be0e6e7a1f02c185" target="_top" xlink:title="nanorq_decode_block">
<polygon fill="none" stroke="black" points="876,-126 876,-145 987,-145 987,-126 876,-126"/>
<text text-anchor="middle" x="931.5" y="-133" font-family="Helvetica,sans-Serif" font-size="10.00">nanorq_decode_block</text>
</a>
</g>
</g>
<!-- Node9&#45;&gt;Node10 -->
<g id="edge10" class="edge"><title>Node9&#45;&gt;Node10</title>
<path fill="none" stroke="midnightblue" d="M813.556,-96.2673C840.884,-105.435 877.134,-117.596 901.989,-125.935"/>
<polygon fill="midnightblue" stroke="midnightblue" points="814.523,-92.9 803.929,-93.0376 812.297,-99.5365 814.523,-92.9"/>
</g>
<!-- Node9&#45;&gt;Node12 -->
<g id="edge12" class="edge"><title>Node9&#45;&gt;Node12</title>
<path fill="none" stroke="midnightblue" d="M806.734,-69.7973C832.648,-58.4284 869.449,-42.2836 896.182,-30.5558"/>
<polygon fill="midnightblue" stroke="midnightblue" points="805.13,-66.6788 797.379,-73.9015 807.943,-73.0891 805.13,-66.6788"/>
</g>
<!-- Node13 -->
<g id="node13" class="node"><title>Node13</title>
<g id="a_node13"><a xlink:href="../../d6/da2/nanorq_8h_a327401e07be8814bccd6c39facecdbe1.html#a327401e07be8814bccd6c39facecdbe1" target="_top" xlink:title="nanorq_num_missing">
<polygon fill="none" stroke="black" points="877,-88 877,-107 986,-107 986,-88 877,-88"/>
<text text-anchor="middle" x="931.5" y="-95" font-family="Helvetica,sans-Serif" font-size="10.00">nanorq_num_missing</text>
</a>
</g>
</g>
<!-- Node9&#45;&gt;Node13 -->
<g id="edge14" class="edge"><title>Node9&#45;&gt;Node13</title>
<path fill="none" stroke="midnightblue" d="M842.041,-89.5101C853.713,-90.5644 865.725,-91.6493 876.987,-92.6665"/>
<polygon fill="midnightblue" stroke="midnightblue" points="842.171,-86.0078 831.897,-88.5939 841.542,-92.9794 842.171,-86.0078"/>
</g>
<!-- Node14 -->
<g id="node14" class="node"><title>Node14</title>
<g id="a_node14"><a xlink:href="../../d6/da2/nanorq_8h_a629b649caa8a354b60fe63cd1570a061.html#a629b649caa8a354b60fe63cd1570a061" target="_top" xlink:title="nanorq_num_repair">
<polygon fill="none" stroke="black" points="882,-50 882,-69 981,-69 981,-50 882,-50"/>
<text text-anchor="middle" x="931.5" y="-57" font-family="Helvetica,sans-Serif" font-size="10.00">nanorq_num_repair</text>
</a>
</g>
</g>
<!-- Node9&#45;&gt;Node14 -->
<g id="edge16" class="edge"><title>Node9&#45;&gt;Node14</title>
<path fill="none" stroke="midnightblue" d="M842.007,-73.2021C855.377,-71.1319 869.193,-68.9927 881.818,-67.0378"/>
<polygon fill="midnightblue" stroke="midnightblue" points="841.244,-69.7785 831.897,-74.7676 842.315,-76.6961 841.244,-69.7785"/>
</g>
<!-- Node11 -->
<g id="node11" class="node"><title>Node11</title>
<g id="a_node11"><a xlink:href="../../da/d0d/decode_8c_a3c04138a5bfe5d72780bb7e82a18e627.html#a3c04138a5bfe5d72780bb7e82a18e627" target="_top" xlink:title="main">
<polygon fill="none" stroke="black" points="1033.5,-69 1033.5,-88 1071.5,-88 1071.5,-69 1033.5,-69"/>
<text text-anchor="middle" x="1052.5" y="-76" font-family="Helvetica,sans-Serif" font-size="10.00">main</text>
</a>
</g>
</g>
<!-- Node10&#45;&gt;Node11 -->
<g id="edge11" class="edge"><title>Node10&#45;&gt;Node11</title>
<path fill="none" stroke="midnightblue" d="M972.954,-122.403C977.744,-120.557 982.52,-118.576 987,-116.5 1004.92,-108.194 1024.3,-96.3551 1037.09,-88.1066"/>
<polygon fill="midnightblue" stroke="midnightblue" points="971.371,-119.255 963.19,-125.987 973.783,-125.826 971.371,-119.255"/>
</g>
<!-- Node12&#45;&gt;Node11 -->
<g id="edge13" class="edge"><title>Node12&#45;&gt;Node11</title>
<path fill="none" stroke="midnightblue" d="M976.044,-34.9876C979.773,-36.8035 983.468,-38.6554 987,-40.5 1004.28,-49.5239 1023.46,-61.0192 1036.37,-68.9916"/>
<polygon fill="midnightblue" stroke="midnightblue" points="977.308,-31.7131 966.775,-30.573 974.298,-38.0329 977.308,-31.7131"/>
</g>
<!-- Node13&#45;&gt;Node11 -->
<g id="edge15" class="edge"><title>Node13&#45;&gt;Node11</title>
<path fill="none" stroke="midnightblue" d="M996.091,-87.3468C1009.82,-85.1542 1023.26,-83.0081 1033.47,-81.3789"/>
<polygon fill="midnightblue" stroke="midnightblue" points="995.405,-83.9119 986.082,-88.9449 996.509,-90.8244 995.405,-83.9119"/>
</g>
<!-- Node14&#45;&gt;Node11 -->
<g id="edge17" class="edge"><title>Node14&#45;&gt;Node11</title>
<path fill="none" stroke="midnightblue" d="M991.235,-68.8779C1006.52,-71.3179 1021.87,-73.7685 1033.25,-75.586"/>
<polygon fill="midnightblue" stroke="midnightblue" points="991.672,-65.4034 981.245,-67.2828 990.568,-72.3158 991.672,-65.4034"/>
</g>
<!-- Node15&#45;&gt;Node16 -->
<g id="edge20" class="edge"><title>Node15&#45;&gt;Node16</title>
<path fill="none" stroke="midnightblue" d="M309.282,-284.746C325.565,-287.468 342.811,-290.35 358.565,-292.983"/>
<polygon fill="midnightblue" stroke="midnightblue" points="309.731,-281.273 299.291,-283.076 308.577,-288.177 309.731,-281.273"/>
</g>
<!-- Node16&#45;&gt;Node17 -->
<g id="edge21" class="edge"><title>Node16&#45;&gt;Node17</title>
<path fill="none" stroke="midnightblue" d="M494.962,-294.369C512.661,-292.511 531.039,-290.582 547.312,-288.873"/>
<polygon fill="midnightblue" stroke="midnightblue" points="494.22,-290.927 484.641,-295.452 494.951,-297.889 494.22,-290.927"/>
</g>
<!-- Node17&#45;&gt;Node4 -->
<g id="edge22" class="edge"><title>Node17&#45;&gt;Node4</title>
<path fill="none" stroke="midnightblue" d="M650.413,-271.671C676.729,-265.434 708.584,-257.885 733.294,-252.029"/>
<polygon fill="midnightblue" stroke="midnightblue" points="649.548,-268.279 640.625,-273.991 651.162,-275.09 649.548,-268.279"/>
</g>
<!-- Node17&#45;&gt;Node18 -->
<g id="edge23" class="edge"><title>Node17&#45;&gt;Node18</title>
<path fill="none" stroke="midnightblue" d="M621.614,-267.39C657.952,-239.664 731.248,-183.738 760.76,-161.221"/>
<polygon fill="midnightblue" stroke="midnightblue" points="619.048,-264.945 613.221,-273.794 623.294,-270.51 619.048,-264.945"/>
</g>
<!-- Node18&#45;&gt;Node10 -->
<g id="edge24" class="edge"><title>Node18&#45;&gt;Node10</title>
<path fill="none" stroke="midnightblue" d="M844.54,-144.373C855.064,-143.287 865.798,-142.179 875.954,-141.131"/>
<polygon fill="midnightblue" stroke="midnightblue" points="844.129,-140.897 834.541,-145.405 844.848,-147.86 844.129,-140.897"/>
</g>
<!-- Node19&#45;&gt;Node16 -->
<g id="edge26" class="edge"><title>Node19&#45;&gt;Node16</title>
<path fill="none" stroke="midnightblue" d="M300.923,-337.5C328.828,-328.976 361.029,-319.139 384.175,-312.069"/>
<polygon fill="midnightblue" stroke="midnightblue" points="299.795,-334.185 291.254,-340.454 301.84,-340.88 299.795,-334.185"/>
</g>
<!-- Node20&#45;&gt;Node21 -->
<g id="edge29" class="edge"><title>Node20&#45;&gt;Node21</title>
<path fill="none" stroke="midnightblue" d="M293.878,-203.181C309.232,-204.863 326.335,-206.735 342.75,-208.533"/>
<polygon fill="midnightblue" stroke="midnightblue" points="293.879,-199.66 283.558,-202.051 293.117,-206.619 293.879,-199.66"/>
</g>
<!-- Node21&#45;&gt;Node4 -->
<g id="edge30" class="edge"><title>Node21&#45;&gt;Node4</title>
<path fill="none" stroke="midnightblue" d="M500.39,-222.554C563.904,-227.192 650.29,-233.502 708.771,-237.773"/>
<polygon fill="midnightblue" stroke="midnightblue" points="500.629,-219.062 490.401,-221.824 500.119,-226.043 500.629,-219.062"/>
</g>
<!-- Node21&#45;&gt;Node22 -->
<g id="edge31" class="edge"><title>Node21&#45;&gt;Node22</title>
<path fill="none" stroke="midnightblue" d="M457.688,-203.844C491.053,-193.337 537.791,-178.618 568.106,-169.072"/>
<polygon fill="midnightblue" stroke="midnightblue" points="456.282,-200.617 447.795,-206.959 458.385,-207.294 456.282,-200.617"/>
</g>
<!-- Node22&#45;&gt;Node18 -->
<g id="edge32" class="edge"><title>Node22&#45;&gt;Node18</title>
<path fill="none" stroke="midnightblue" d="M683.19,-155.676C693.744,-155.188 704.373,-154.697 714.448,-154.231"/>
<polygon fill="midnightblue" stroke="midnightblue" points="682.943,-152.184 673.116,-156.142 683.267,-159.176 682.943,-152.184"/>
</g>
<!-- Node23&#45;&gt;Node6 -->
<g id="edge37" class="edge"><title>Node23&#45;&gt;Node6</title>
<path fill="none" stroke="midnightblue" d="M475.118,-170.794C491.507,-173.679 509.41,-176.52 526,-178.5 658.588,-194.322 816.854,-200.974 889.89,-203.356"/>
<polygon fill="midnightblue" stroke="midnightblue" points="475.597,-167.325 465.136,-169 474.359,-174.214 475.597,-167.325"/>
</g>
<!-- Node23&#45;&gt;Node22 -->
<g id="edge38" class="edge"><title>Node23&#45;&gt;Node22</title>
<path fill="none" stroke="midnightblue" d="M486.852,-159.5C499.614,-159.5 512.97,-159.5 525.826,-159.5"/>
<polygon fill="midnightblue" stroke="midnightblue" points="486.766,-156 476.766,-159.5 486.766,-163 486.766,-156"/>
</g>
</g>
</svg>
        <g id="navigator" transform="translate(0 0)" fill="#404254">
                <rect fill="#f2f5e9" fill-opacity="0.5" stroke="#606060" stroke-width=".5" x="0" y="0" width="60" height="60"/>
                <use id="zoomplus" xlink:href="#zoomPlus" x="17" y="9" onmousedown="handleZoom(evt,'in')"/>
                <use id="zoomminus" xlink:href="#zoomMin" x="42" y="9" onmousedown="handleZoom(evt,'out')"/>
                <use id="reset" xlink:href="#resetDef" x="30" y="36" onmousedown="handleReset()"/>
                <g id="arrowUp" xlink:href="#dirArrow" transform="translate(30 24)" onmousedown="handlePan(0,-1)">
                  <use xlink:href="#rim" fill="#404040">
                        <set attributeName="fill" to="#808080" begin="arrowUp.mouseover" end="arrowUp.mouseout"/>
                  </use>
                  <path fill="none" stroke="white" stroke-width="1.5" d="M0,-3.0v7 M-2.5,-0.5L0,-3.0L2.5,-0.5"/>
                </g>
                <g id="arrowRight" xlink:href="#dirArrow" transform="rotate(90) translate(36 -43)" onmousedown="handlePan(1,0)">
                  <use xlink:href="#rim" fill="#404040">
                        <set attributeName="fill" to="#808080" begin="arrowRight.mouseover" end="arrowRight.mouseout"/>
                  </use>
                  <path fill="none" stroke="white" stroke-width="1.5" d="M0,-3.0v7 M-2.5,-0.5L0,-3.0L2.5,-0.5"/>
                </g>
                <g id="arrowDown" xlink:href="#dirArrow" transform="rotate(180) translate(-30 -48)" onmousedown="handlePan(0,1)">
                  <use xlink:href="#rim" fill="#404040">
                        <set attributeName="fill" to="#808080" begin="arrowDown.mouseover" end="arrowDown.mouseout"/>
                  </use>
                  <path fill="none" stroke="white" stroke-width="1.5" d="M0,-3.0v7 M-2.5,-0.5L0,-3.0L2.5,-0.5"/>
                </g>
                <g id="arrowLeft" xlink:href="#dirArrow" transform="rotate(270) translate(-36 17)" onmousedown="handlePan(-1,0)">
                  <use xlink:href="#rim" fill="#404040">
                        <set attributeName="fill" to="#808080" begin="arrowLeft.mouseover" end="arrowLeft.mouseout"/>
                  </use>
                  <path fill="none" stroke="white" stroke-width="1.5" d="M0,-3.0v7 M-2.5,-0.5L0,-3.0L2.5,-0.5"/>
                </g>
        </g>
        <svg viewBox="0 0 15 15" width="100%" height="30px" preserveAspectRatio="xMaxYMin meet">
         <g id="arrow_out" transform="scale(0.3 0.3)">
          <a xlink:href="oblas_8h_a1185f4074fc7932ed79a6f216203f2c4_a1185f4074fc7932ed79a6f216203f2c4_icgraph_org.svg" target="_base">
           <rect id="button" ry="5" rx="5" y="6" x="6" height="38" width="38"
                fill="#f2f5e9" fill-opacity="0.5" stroke="#606060" stroke-width="1.0"/>
           <path id="arrow"
             d="M 11.500037,31.436501 C 11.940474,20.09759 22.043105,11.32322 32.158766,21.979434 L 37.068811,17.246167 C 37.068811,17.246167 37.088388,32 37.088388,32 L 22.160133,31.978069 C 22.160133,31.978069 26.997745,27.140456 26.997745,27.140456 C 18.528582,18.264221 13.291696,25.230495 11.500037,31.436501 z"
             style="fill:#404040;"/>
          </a>
         </g>
        </svg>
</svg>
