<?xml version="1.0" encoding="UTF-8" standalone="no"?>
<!DOCTYPE svg PUBLIC "-//W3C//DTD SVG 1.1//EN"
 "http://www.w3.org/Graphics/SVG/1.1/DTD/svg11.dtd">
<!-- Generated by graphviz version 2.38.0 (20140413.2041)
 -->
<!-- Title: bitmask_new Pages: 1 -->
<svg width="453pt" height="154pt"
 viewBox="0.00 0.00 453.00 153.50" xmlns="http://www.w3.org/2000/svg" xmlns:xlink="http://www.w3.org/1999/xlink">
<g id="graph0" class="graph" transform="scale(1 1) rotate(0) translate(4 149.5)">
<title>bitmask_new</title>
<!-- Node1 -->
<g id="node1" class="node"><title>Node1</title>
<polygon fill="#bfbfbf" stroke="black" points="0,-57.5 0,-76.5 74,-76.5 74,-57.5 0,-57.5"/>
<text text-anchor="middle" x="37" y="-64.5" font-family="Helvetica,sans-Serif" font-size="10.00">bitmask_new</text>
</g>
<!-- Node2 -->
<g id="node2" class="node"><title>Node2</title>
<g id="a_node2"><a xlink:href="../../d1/d0b/nanorq_8c_a9e0825ce320f90492e45baad6a50ff4c.html#a9e0825ce320f90492e45baad6a50ff4c" target="_top" xlink:title="nanorq_block_decoder">
<polygon fill="none" stroke="black" points="110,-57.5 110,-76.5 224,-76.5 224,-57.5 110,-57.5"/>
<text text-anchor="middle" x="167" y="-64.5" font-family="Helvetica,sans-Serif" font-size="10.00">nanorq_block_decoder</text>
</a>
</g>
</g>
<!-- Node1&#45;&gt;Node2 -->
<g id="edge1" class="edge"><title>Node1&#45;&gt;Node2</title>
<path fill="none" stroke="midnightblue" d="M84.528,-67C92.7871,-67 101.467,-67 109.956,-67"/>
<polygon fill="midnightblue" stroke="midnightblue" points="84.3373,-63.5001 74.3373,-67 84.3372,-70.5001 84.3373,-63.5001"/>
</g>
<!-- Node3 -->
<g id="node3" class="node"><title>Node3</title>
<g id="a_node3"><a xlink:href="../../d6/da2/nanorq_8h_a4199d347f3a4d6e329a6b76fde635121.html#a4199d347f3a4d6e329a6b76fde635121" target="_top" xlink:title="nanorq_decoder_add\l_symbol">
<polygon fill="none" stroke="black" points="262,-115 262,-145 369,-145 369,-115 262,-115"/>
<text text-anchor="start" x="270" y="-133" font-family="Helvetica,sans-Serif" font-size="10.00">nanorq_decoder_add</text>
<text text-anchor="middle" x="315.5" y="-122" font-family="Helvetica,sans-Serif" font-size="10.00">_symbol</text>
</a>
</g>
</g>
<!-- Node2&#45;&gt;Node3 -->
<g id="edge2" class="edge"><title>Node2&#45;&gt;Node3</title>
<path fill="none" stroke="midnightblue" d="M199.75,-80.6537C223.242,-90.7558 255.232,-104.513 279.468,-114.935"/>
<polygon fill="midnightblue" stroke="midnightblue" points="200.819,-77.3036 190.25,-76.5683 198.054,-83.7342 200.819,-77.3036"/>
</g>
<!-- Node5 -->
<g id="node5" class="node"><title>Node5</title>
<g id="a_node5"><a xlink:href="../../d6/da2/nanorq_8h_a327401e07be8814bccd6c39facecdbe1.html#a327401e07be8814bccd6c39facecdbe1" target="_top" xlink:title="nanorq_num_missing">
<polygon fill="none" stroke="black" points="261,-76.5 261,-95.5 370,-95.5 370,-76.5 261,-76.5"/>
<text text-anchor="middle" x="315.5" y="-83.5" font-family="Helvetica,sans-Serif" font-size="10.00">nanorq_num_missing</text>
</a>
</g>
</g>
<!-- Node2&#45;&gt;Node5 -->
<g id="edge4" class="edge"><title>Node2&#45;&gt;Node5</title>
<path fill="none" stroke="midnightblue" d="M234.419,-75.6141C243.184,-76.7508 252.079,-77.9045 260.599,-79.0094"/>
<polygon fill="midnightblue" stroke="midnightblue" points="234.589,-72.1069 224.222,-74.2916 233.689,-79.0487 234.589,-72.1069"/>
</g>
<!-- Node6 -->
<g id="node6" class="node"><title>Node6</title>
<g id="a_node6"><a xlink:href="../../d6/da2/nanorq_8h_a629b649caa8a354b60fe63cd1570a061.html#a629b649caa8a354b60fe63cd1570a061" target="_top" xlink:title="nanorq_num_repair">
<polygon fill="none" stroke="black" points="266,-38.5 266,-57.5 365,-57.5 365,-38.5 266,-38.5"/>
<text text-anchor="middle" x="315.5" y="-45.5" font-family="Helvetica,sans-Serif" font-size="10.00">nanorq_num_repair</text>
</a>
</g>
</g>
<!-- Node2&#45;&gt;Node6 -->
<g id="edge6" class="edge"><title>Node2&#45;&gt;Node6</title>
<path fill="none" stroke="midnightblue" d="M234.307,-58.4004C244.92,-57.024 255.729,-55.6222 265.832,-54.3119"/>
<polygon fill="midnightblue" stroke="midnightblue" points="233.689,-54.9513 224.222,-59.7084 234.589,-61.8931 233.689,-54.9513"/>
</g>
<!-- Node7 -->
<g id="node7" class="node"><title>Node7</title>
<g id="a_node7"><a xlink:href="../../d6/da2/nanorq_8h_aa1dcf83669e76931be0e6e7a1f02c185.html#aa1dcf83669e76931be0e6e7a1f02c185" target="_top" xlink:title="nanorq_decode_block">
<polygon fill="none" stroke="black" points="260,-0.5 260,-19.5 371,-19.5 371,-0.5 260,-0.5"/>
<text text-anchor="middle" x="315.5" y="-7.5" font-family="Helvetica,sans-Serif" font-size="10.00">nanorq_decode_block</text>
</a>
</g>
</g>
<!-- Node2&#45;&gt;Node7 -->
<g id="edge8" class="edge"><title>Node2&#45;&gt;Node7</title>
<path fill="none" stroke="midnightblue" d="M199.453,-53.495C217.145,-46.0281 239.695,-36.726 260,-29 268.429,-25.7929 277.667,-22.4925 286.104,-19.5608"/>
<polygon fill="midnightblue" stroke="midnightblue" points="198.008,-50.3059 190.169,-57.4328 200.741,-56.7502 198.008,-50.3059"/>
</g>
<!-- Node4 -->
<g id="node4" class="node"><title>Node4</title>
<g id="a_node4"><a xlink:href="../../da/d0d/decode_8c_a3c04138a5bfe5d72780bb7e82a18e627.html#a3c04138a5bfe5d72780bb7e82a18e627" target="_top" xlink:title="main">
<polygon fill="none" stroke="black" points="407,-57.5 407,-76.5 445,-76.5 445,-57.5 407,-57.5"/>
<text text-anchor="middle" x="426" y="-64.5" font-family="Helvetica,sans-Serif" font-size="10.00">main</text>
</a>
</g>
</g>
<!-- Node3&#45;&gt;Node4 -->
<g id="edge3" class="edge"><title>Node3&#45;&gt;Node4</title>
<path fill="none" stroke="midnightblue" d="M360.989,-110.421C364.415,-108.663 367.788,-106.846 371,-105 385.908,-96.4315 401.885,-84.8579 412.56,-76.7426"/>
<polygon fill="midnightblue" stroke="midnightblue" points="359.285,-107.359 351.867,-114.924 362.383,-113.636 359.285,-107.359"/>
</g>
<!-- Node5&#45;&gt;Node4 -->
<g id="edge5" class="edge"><title>Node5&#45;&gt;Node4</title>
<path fill="none" stroke="midnightblue" d="M380.005,-74.8793C389.806,-73.163 399.192,-71.5193 406.832,-70.1815"/>
<polygon fill="midnightblue" stroke="midnightblue" points="379.361,-71.4388 370.114,-76.6113 380.568,-78.3339 379.361,-71.4388"/>
</g>
<!-- Node6&#45;&gt;Node4 -->
<g id="edge7" class="edge"><title>Node6&#45;&gt;Node4</title>
<path fill="none" stroke="midnightblue" d="M375.199,-58.279C386.742,-60.3005 398.015,-62.2745 406.908,-63.8319"/>
<polygon fill="midnightblue" stroke="midnightblue" points="375.492,-54.7771 365.038,-56.4997 374.284,-61.6722 375.492,-54.7771"/>
</g>
<!-- Node7&#45;&gt;Node4 -->
<g id="edge9" class="edge"><title>Node7&#45;&gt;Node4</title>
<path fill="none" stroke="midnightblue" d="M358.171,-23.1687C362.576,-24.9606 366.929,-26.9097 371,-29 386.501,-36.9586 402.632,-48.8628 413.18,-57.2215"/>
<polygon fill="midnightblue" stroke="midnightblue" points="359.125,-19.7871 348.534,-19.5034 356.636,-26.3298 359.125,-19.7871"/>
</g>
</g>
</svg>
