<?xml version="1.0" encoding="UTF-8" standalone="no"?>
<!DOCTYPE svg PUBLIC "-//W3C//DTD SVG 1.1//EN"
 "http://www.w3.org/Graphics/SVG/1.1/DTD/svg11.dtd">
<!-- Generated by graphviz version 2.38.0 (20140413.2041)
 -->
<!-- Title: oblas/oblas_classic.c Pages: 1 -->
<svg width="436pt" height="84pt"
 viewBox="0.00 0.00 436.00 84.00" xmlns="http://www.w3.org/2000/svg" xmlns:xlink="http://www.w3.org/1999/xlink">
<g id="graph0" class="graph" transform="scale(1 1) rotate(0) translate(4 80)">
<title>oblas/oblas_classic.c</title>
<!-- Node0 -->
<g id="node1" class="node"><title>Node0</title>
<polygon fill="#bfbfbf" stroke="black" points="143,-56.5 143,-75.5 253,-75.5 253,-56.5 143,-56.5"/>
<text text-anchor="middle" x="198" y="-63.5" font-family="Helvetica,sans-Serif" font-size="10.00">oblas/oblas_classic.c</text>
</g>
<!-- Node1 -->
<g id="node2" class="node"><title>Node1</title>
<polygon fill="none" stroke="#bfbfbf" points="0,-0.5 0,-19.5 46,-19.5 46,-0.5 0,-0.5"/>
<text text-anchor="middle" x="23" y="-7.5" font-family="Helvetica,sans-Serif" font-size="10.00">stdio.h</text>
</g>
<!-- Node0&#45;&gt;Node1 -->
<g id="edge1" class="edge"><title>Node0&#45;&gt;Node1</title>
<path fill="none" stroke="midnightblue" d="M170.271,-56.4435C139.177,-46.8489 88.7939,-31.3021 55.7771,-21.1141"/>
<polygon fill="midnightblue" stroke="midnightblue" points="56.716,-17.741 46.1286,-18.1368 54.652,-24.4298 56.716,-17.741"/>
</g>
<!-- Node2 -->
<g id="node3" class="node"><title>Node2</title>
<polygon fill="none" stroke="#bfbfbf" points="64.5,-0.5 64.5,-19.5 113.5,-19.5 113.5,-0.5 64.5,-0.5"/>
<text text-anchor="middle" x="89" y="-7.5" font-family="Helvetica,sans-Serif" font-size="10.00">stdint.h</text>
</g>
<!-- Node0&#45;&gt;Node2 -->
<g id="edge2" class="edge"><title>Node0&#45;&gt;Node2</title>
<path fill="none" stroke="midnightblue" d="M180.487,-56.324C162.928,-47.6247 135.669,-34.1202 115.469,-24.113"/>
<polygon fill="midnightblue" stroke="midnightblue" points="116.984,-20.9575 106.469,-19.6545 113.876,-27.23 116.984,-20.9575"/>
</g>
<!-- Node3 -->
<g id="node4" class="node"><title>Node3</title>
<g id="a_node4"><a xlink:href="../../de/d35/octmat_8h.html" target="_top" xlink:title="octmat.h">
<polygon fill="none" stroke="black" points="131.5,-0.5 131.5,-19.5 186.5,-19.5 186.5,-0.5 131.5,-0.5"/>
<text text-anchor="middle" x="159" y="-7.5" font-family="Helvetica,sans-Serif" font-size="10.00">octmat.h</text>
</a>
</g>
</g>
<!-- Node0&#45;&gt;Node3 -->
<g id="edge3" class="edge"><title>Node0&#45;&gt;Node3</title>
<path fill="none" stroke="midnightblue" d="M191.56,-56.083C186.051,-48.4554 177.969,-37.2645 171.235,-27.9408"/>
<polygon fill="midnightblue" stroke="midnightblue" points="174.013,-25.8087 165.32,-19.7511 168.338,-29.9071 174.013,-25.8087"/>
</g>
<!-- Node4 -->
<g id="node5" class="node"><title>Node4</title>
<g id="a_node5"><a xlink:href="../../da/ddb/octtables_8h.html" target="_top" xlink:title="octtables.h">
<polygon fill="none" stroke="black" points="204.5,-0.5 204.5,-19.5 269.5,-19.5 269.5,-0.5 204.5,-0.5"/>
<text text-anchor="middle" x="237" y="-7.5" font-family="Helvetica,sans-Serif" font-size="10.00">octtables.h</text>
</a>
</g>
</g>
<!-- Node0&#45;&gt;Node4 -->
<g id="edge4" class="edge"><title>Node0&#45;&gt;Node4</title>
<path fill="none" stroke="midnightblue" d="M204.44,-56.083C209.949,-48.4554 218.031,-37.2645 224.765,-27.9408"/>
<polygon fill="midnightblue" stroke="midnightblue" points="227.662,-29.9071 230.68,-19.7511 221.987,-25.8087 227.662,-29.9071"/>
</g>
<!-- Node5 -->
<g id="node6" class="node"><title>Node5</title>
<g id="a_node6"><a xlink:href="../../d3/d5a/oblas_8h.html" target="_top" xlink:title="oblas.h">
<polygon fill="none" stroke="black" points="288,-0.5 288,-19.5 336,-19.5 336,-0.5 288,-0.5"/>
<text text-anchor="middle" x="312" y="-7.5" font-family="Helvetica,sans-Serif" font-size="10.00">oblas.h</text>
</a>
</g>
</g>
<!-- Node0&#45;&gt;Node5 -->
<g id="edge5" class="edge"><title>Node0&#45;&gt;Node5</title>
<path fill="none" stroke="midnightblue" d="M216.064,-56.4435C234.575,-47.6751 263.581,-33.9355 284.855,-23.8579"/>
<polygon fill="midnightblue" stroke="midnightblue" points="286.482,-26.9604 294.021,-19.5164 283.485,-20.6343 286.482,-26.9604"/>
</g>
<!-- Node6 -->
<g id="node7" class="node"><title>Node6</title>
<g id="a_node7"><a xlink:href="../../d3/dc2/octmul__hilo_8h.html" target="_top" xlink:title="octmul_hilo.h">
<polygon fill="none" stroke="black" points="354,-0.5 354,-19.5 428,-19.5 428,-0.5 354,-0.5"/>
<text text-anchor="middle" x="391" y="-7.5" font-family="Helvetica,sans-Serif" font-size="10.00">octmul_hilo.h</text>
</a>
</g>
</g>
<!-- Node0&#45;&gt;Node6 -->
<g id="edge6" class="edge"><title>Node0&#45;&gt;Node6</title>
<path fill="none" stroke="midnightblue" d="M228.581,-56.4435C261.615,-47.2011 314.388,-32.4356 350.766,-22.2572"/>
<polygon fill="midnightblue" stroke="midnightblue" points="351.875,-25.5815 360.562,-19.5164 349.988,-18.8404 351.875,-25.5815"/>
</g>
</g>
</svg>
