<?xml version="1.0" encoding="UTF-8" standalone="no"?>
<!DOCTYPE svg PUBLIC "-//W3C//DTD SVG 1.1//EN"
 "http://www.w3.org/Graphics/SVG/1.1/DTD/svg11.dtd">
<!-- Generated by graphviz version 2.38.0 (20140413.2041)
 -->
<!-- Title: bitmask.h Pages: 1 -->
<svg width="294pt" height="84pt"
 viewBox="0.00 0.00 294.00 84.00" xmlns="http://www.w3.org/2000/svg" xmlns:xlink="http://www.w3.org/1999/xlink">
<g id="graph0" class="graph" transform="scale(1 1) rotate(0) translate(4 80)">
<title>bitmask.h</title>
<!-- Node1 -->
<g id="node1" class="node"><title>Node1</title>
<polygon fill="#bfbfbf" stroke="black" points="114,-56.5 114,-75.5 173,-75.5 173,-56.5 114,-56.5"/>
<text text-anchor="middle" x="143.5" y="-63.5" font-family="Helvetica,sans-Serif" font-size="10.00">bitmask.h</text>
</g>
<!-- Node2 -->
<g id="node2" class="node"><title>Node2</title>
<g id="a_node2"><a xlink:href="../../d6/d74/bitmask_8c.html" target="_top" xlink:title="bitmask.c">
<polygon fill="none" stroke="black" points="0,-0.5 0,-19.5 59,-19.5 59,-0.5 0,-0.5"/>
<text text-anchor="middle" x="29.5" y="-7.5" font-family="Helvetica,sans-Serif" font-size="10.00">bitmask.c</text>
</a>
</g>
</g>
<!-- Node1&#45;&gt;Node2 -->
<g id="edge1" class="edge"><title>Node1&#45;&gt;Node2</title>
<path fill="none" stroke="midnightblue" d="M116.258,-52.096C94.9599,-42.0073 65.9583,-28.2697 47.4791,-19.5164"/>
<polygon fill="midnightblue" stroke="midnightblue" points="114.901,-55.3257 125.436,-56.4435 117.897,-48.9995 114.901,-55.3257"/>
</g>
<!-- Node3 -->
<g id="node3" class="node"><title>Node3</title>
<g id="a_node3"><a xlink:href="../../da/d1f/chooser_8c.html" target="_top" xlink:title="chooser.c">
<polygon fill="none" stroke="black" points="77,-0.5 77,-19.5 136,-19.5 136,-0.5 77,-0.5"/>
<text text-anchor="middle" x="106.5" y="-7.5" font-family="Helvetica,sans-Serif" font-size="10.00">chooser.c</text>
</a>
</g>
</g>
<!-- Node1&#45;&gt;Node3 -->
<g id="edge2" class="edge"><title>Node1&#45;&gt;Node3</title>
<path fill="none" stroke="midnightblue" d="M131.554,-47.5656C125.188,-38.2747 117.633,-27.2484 112.496,-19.7511"/>
<polygon fill="midnightblue" stroke="midnightblue" points="128.851,-49.812 137.39,-56.083 134.625,-45.8553 128.851,-49.812"/>
</g>
<!-- Node4 -->
<g id="node4" class="node"><title>Node4</title>
<g id="a_node4"><a xlink:href="../../d1/d0b/nanorq_8c.html" target="_top" xlink:title="nanorq.c">
<polygon fill="none" stroke="black" points="154.5,-0.5 154.5,-19.5 208.5,-19.5 208.5,-0.5 154.5,-0.5"/>
<text text-anchor="middle" x="181.5" y="-7.5" font-family="Helvetica,sans-Serif" font-size="10.00">nanorq.c</text>
</a>
</g>
</g>
<!-- Node1&#45;&gt;Node4 -->
<g id="edge3" class="edge"><title>Node1&#45;&gt;Node4</title>
<path fill="none" stroke="midnightblue" d="M155.565,-47.8554C162.145,-38.5048 170.011,-27.3265 175.342,-19.7511"/>
<polygon fill="midnightblue" stroke="midnightblue" points="152.668,-45.8907 149.775,-56.083 158.392,-49.9192 152.668,-45.8907"/>
</g>
<!-- Node5 -->
<g id="node5" class="node"><title>Node5</title>
<g id="a_node5"><a xlink:href="../../d6/d1a/precode_8c.html" target="_top" xlink:title="precode.c">
<polygon fill="none" stroke="black" points="227,-0.5 227,-19.5 286,-19.5 286,-0.5 227,-0.5"/>
<text text-anchor="middle" x="256.5" y="-7.5" font-family="Helvetica,sans-Serif" font-size="10.00">precode.c</text>
</a>
</g>
</g>
<!-- Node1&#45;&gt;Node5 -->
<g id="edge4" class="edge"><title>Node1&#45;&gt;Node5</title>
<path fill="none" stroke="midnightblue" d="M170.503,-52.096C191.614,-42.0073 220.362,-28.2697 238.679,-19.5164"/>
<polygon fill="midnightblue" stroke="midnightblue" points="168.919,-48.9738 161.405,-56.4435 171.937,-55.2897 168.919,-48.9738"/>
</g>
</g>
</svg>
