<?xml version="1.0" encoding="UTF-8" standalone="no"?>
<!DOCTYPE svg PUBLIC "-//W3C//DTD SVG 1.1//EN"
 "http://www.w3.org/Graphics/SVG/1.1/DTD/svg11.dtd">
<!-- Generated by graphviz version 2.38.0 (20140413.2041)
 -->
<!-- Title: fileioctx Pages: 1 -->
<svg width="66pt" height="215pt"
 viewBox="0.00 0.00 66.00 215.00" xmlns="http://www.w3.org/2000/svg" xmlns:xlink="http://www.w3.org/1999/xlink">
<g id="graph0" class="graph" transform="scale(1 1) rotate(0) translate(4 211)">
<title>fileioctx</title>
<!-- Node1 -->
<g id="node1" class="node"><title>Node1</title>
<polygon fill="#bfbfbf" stroke="black" points="4,-0.5 4,-57.5 54,-57.5 54,-0.5 4,-0.5"/>
<text text-anchor="middle" x="29" y="-45.5" font-family="Helvetica,sans-Serif" font-size="10.00">fileioctx</text>
<polyline fill="none" stroke="black" points="4,-38.5 54,-38.5 "/>
<text text-anchor="start" x="12" y="-26.5" font-family="Helvetica,sans-Serif" font-size="10.00">+ fp</text>
<polyline fill="none" stroke="black" points="4,-19.5 54,-19.5 "/>
<text text-anchor="middle" x="29" y="-7.5" font-family="Helvetica,sans-Serif" font-size="10.00"> </text>
</g>
<!-- Node2 -->
<g id="node2" class="node"><title>Node2</title>
<g id="a_node2"><a xlink:href="../../d6/d7a/structioctx.html" target="_top" xlink:title="{ioctx\n|+ read\l+ write\l+ seek\l+ size\l+ destroy\l|}">
<polygon fill="none" stroke="black" points="-3.55271e-15,-105.5 -3.55271e-15,-206.5 58,-206.5 58,-105.5 -3.55271e-15,-105.5"/>
<text text-anchor="middle" x="29" y="-194.5" font-family="Helvetica,sans-Serif" font-size="10.00">ioctx</text>
<polyline fill="none" stroke="black" points="-3.55271e-15,-187.5 58,-187.5 "/>
<text text-anchor="start" x="8" y="-175.5" font-family="Helvetica,sans-Serif" font-size="10.00">+ read</text>
<text text-anchor="start" x="8" y="-164.5" font-family="Helvetica,sans-Serif" font-size="10.00">+ write</text>
<text text-anchor="start" x="8" y="-153.5" font-family="Helvetica,sans-Serif" font-size="10.00">+ seek</text>
<text text-anchor="start" x="8" y="-142.5" font-family="Helvetica,sans-Serif" font-size="10.00">+ size</text>
<text text-anchor="start" x="8" y="-131.5" font-family="Helvetica,sans-Serif" font-size="10.00">+ destroy</text>
<polyline fill="none" stroke="black" points="-3.55271e-15,-124.5 58,-124.5 "/>
<text text-anchor="middle" x="29" y="-112.5" font-family="Helvetica,sans-Serif" font-size="10.00"> </text>
</a>
</g>
</g>
<!-- Node2&#45;&gt;Node1 -->
<g id="edge1" class="edge"><title>Node2&#45;&gt;Node1</title>
<path fill="none" stroke="#404040" d="M29,-105.238C29,-93.4645 29,-81.0617 29,-69.7976"/>
<polygon fill="none" stroke="#404040" points="29.0001,-69.6579 25,-63.658 29,-57.6579 33,-63.6579 29.0001,-69.6579"/>
<text text-anchor="middle" x="37.5" y="-79" font-family="Helvetica,sans-Serif" font-size="10.00"> +io</text>
</g>
</g>
</svg>
