<?xml version="1.0" encoding="UTF-8" standalone="no"?>
<!DOCTYPE svg PUBLIC "-//W3C//DTD SVG 1.1//EN"
 "http://www.w3.org/Graphics/SVG/1.1/DTD/svg11.dtd">
<!-- Generated by graphviz version 2.38.0 (20140413.2041)
 -->
<!-- Title: om_destroy Pages: 1 -->
<!--zoomable 384 -->
<svg id="main" version="1.1" xmlns="http://www.w3.org/2000/svg" xmlns:xlink="http://www.w3.org/1999/xlink" xml:space="preserve" onload="init(evt)">
<style type="text/css"><![CDATA[
.edge:hover path { stroke: red; }
.edge:hover polygon { stroke: red; fill: red; }
]]></style>
<script type="text/javascript"><![CDATA[
var edges = document.getElementsByTagName('g');
if (edges && edges.length) {
  for (var i=0;i<edges.length;i++) {
    if (edges[i].id.substr(0,4)=='edge') {
      edges[i].setAttribute('class','edge');
    }
  }
}
]]></script>
        <defs>
                <circle id="rim" cx="0" cy="0" r="7"/>
                <circle id="rim2" cx="0" cy="0" r="3.5"/>
                <g id="zoomPlus">
                        <use xlink:href="#rim" fill="#404040">
                                <set attributeName="fill" to="#808080" begin="zoomplus.mouseover" end="zoomplus.mouseout"/>
                        </use>
                        <path d="M-4,0h8M0,-4v8" fill="none" stroke="white" stroke-width="1.5" pointer-events="none"/>
                </g>
                <g id="zoomMin">
                        <use xlink:href="#rim" fill="#404040">
                                <set attributeName="fill" to="#808080" begin="zoomminus.mouseover" end="zoomminus.mouseout"/>
                        </use>
                        <path d="M-4,0h8" fill="none" stroke="white" stroke-width="1.5" pointer-events="none"/>
                </g>
                <g id="dirArrow">
                        <path fill="none" stroke="white" stroke-width="1.5" d="M0,-3.0v7 M-2.5,-0.5L0,-3.0L2.5,-0.5"/>
                </g>
               <g id="resetDef">
                       <use xlink:href="#rim2" fill="#404040">
                               <set attributeName="fill" to="#808080" begin="reset.mouseover" end="reset.mouseout"/>
                       </use>
               </g>
        </defs>

<script type="text/javascript">
var viewWidth = 1098;
var viewHeight = 384;
var sectionId = 'dynsection-0';
</script>
<script xlink:href="../../svgpan.js"/>
<svg id="graph" class="graph">
<g id="viewport">
<title>om_destroy</title>
<!-- Node1 -->
<g id="node1" class="node"><title>Node1</title>
<polygon fill="#bfbfbf" stroke="black" points="0,-169.6 0,-188.6 68,-188.6 68,-169.6 0,-169.6"/>
<text text-anchor="middle" x="34" y="-176.6" font-family="Helvetica,sans-Serif" font-size="10.00">om_destroy</text>
</g>
<!-- Node2 -->
<g id="node2" class="node"><title>Node2</title>
<g id="a_node2"><a xlink:href="../../d6/d1a/precode_8c_a11824185dea7b498ffadaca55ae49090.html#a11824185dea7b498ffadaca55ae49090" target="_top" xlink:title="decode_phase3">
<polygon fill="none" stroke="black" points="129.5,-207.6 129.5,-226.6 214.5,-226.6 214.5,-207.6 129.5,-207.6"/>
<text text-anchor="middle" x="172" y="-214.6" font-family="Helvetica,sans-Serif" font-size="10.00">decode_phase3</text>
</a>
</g>
</g>
<!-- Node1&#45;&gt;Node2 -->
<g id="edge1" class="edge"><title>Node1&#45;&gt;Node2</title>
<path fill="none" stroke="midnightblue" d="M78.1275,-191.15C97.0216,-196.429 118.887,-202.539 136.654,-207.503"/>
<polygon fill="midnightblue" stroke="midnightblue" points="78.8423,-187.716 68.2693,-188.396 76.9586,-194.458 78.8423,-187.716"/>
</g>
<!-- Node3 -->
<g id="node3" class="node"><title>Node3</title>
<g id="a_node3"><a xlink:href="../../da/def/precode_8h_a262ba8efa6b500c1e7a3cb0451245291.html#a262ba8efa6b500c1e7a3cb0451245291" target="_top" xlink:title="precode_matrix_intermediate1">
<polygon fill="none" stroke="black" points="276,-188.6 276,-207.6 423,-207.6 423,-188.6 276,-188.6"/>
<text text-anchor="middle" x="349.5" y="-195.6" font-family="Helvetica,sans-Serif" font-size="10.00">precode_matrix_intermediate1</text>
</a>
</g>
</g>
<!-- Node1&#45;&gt;Node3 -->
<g id="edge27" class="edge"><title>Node1&#45;&gt;Node3</title>
<path fill="none" stroke="midnightblue" d="M78.2739,-181.723C129.226,-184.811 214.646,-189.988 275.813,-193.695"/>
<polygon fill="midnightblue" stroke="midnightblue" points="78.4466,-178.227 68.2532,-181.115 78.0231,-185.214 78.4466,-178.227"/>
</g>
<!-- Node4 -->
<g id="node4" class="node"><title>Node4</title>
<g id="a_node4"><a xlink:href="../../d6/da2/nanorq_8h_ad6a9288685637cdfe83303f66b087a29.html#ad6a9288685637cdfe83303f66b087a29" target="_top" xlink:title="nanorq_generate_symbols">
<polygon fill="none" stroke="black" points="467,-283.6 467,-302.6 598,-302.6 598,-283.6 467,-283.6"/>
<text text-anchor="middle" x="532.5" y="-290.6" font-family="Helvetica,sans-Serif" font-size="10.00">nanorq_generate_symbols</text>
</a>
</g>
</g>
<!-- Node1&#45;&gt;Node4 -->
<g id="edge21" class="edge"><title>Node1&#45;&gt;Node4</title>
<path fill="none" stroke="midnightblue" d="M43.2608,-197.752C53.8869,-219.223 74.5499,-253.528 104,-269.1 227.872,-334.599 401.104,-316.653 483.846,-302.635"/>
<polygon fill="midnightblue" stroke="midnightblue" points="46.398,-196.198 38.9723,-188.641 40.0646,-199.18 46.398,-196.198"/>
</g>
<!-- Node6 -->
<g id="node6" class="node"><title>Node6</title>
<g id="a_node6"><a xlink:href="../../d6/da2/nanorq_8h_a956615eb4ea3ce34369951295e93f708.html#a956615eb4ea3ce34369951295e93f708" target="_top" xlink:title="nanorq_encode">
<polygon fill="none" stroke="black" points="661.5,-321.6 661.5,-340.6 744.5,-340.6 744.5,-321.6 661.5,-321.6"/>
<text text-anchor="middle" x="703" y="-328.6" font-family="Helvetica,sans-Serif" font-size="10.00">nanorq_encode</text>
</a>
</g>
</g>
<!-- Node1&#45;&gt;Node6 -->
<g id="edge17" class="edge"><title>Node1&#45;&gt;Node6</title>
<path fill="none" stroke="midnightblue" d="M39.6463,-198.587C47.545,-226.981 66.5141,-278.961 104,-303.1 286.193,-420.424 568.284,-365.212 666.694,-340.683"/>
<polygon fill="midnightblue" stroke="midnightblue" points="42.9669,-197.449 37.0686,-188.647 36.191,-199.206 42.9669,-197.449"/>
</g>
<!-- Node9 -->
<g id="node9" class="node"><title>Node9</title>
<g id="a_node9"><a xlink:href="../../da/def/precode_8h_a2b6a5db8f90fc98b364cb5ed3b5eca24.html#a2b6a5db8f90fc98b364cb5ed3b5eca24" target="_top" xlink:title="precode_matrix_intermediate2">
<polygon fill="none" stroke="black" points="459,-93.5999 459,-112.6 606,-112.6 606,-93.5999 459,-93.5999"/>
<text text-anchor="middle" x="532.5" y="-100.6" font-family="Helvetica,sans-Serif" font-size="10.00">precode_matrix_intermediate2</text>
</a>
</g>
</g>
<!-- Node1&#45;&gt;Node9 -->
<g id="edge28" class="edge"><title>Node1&#45;&gt;Node9</title>
<path fill="none" stroke="midnightblue" d="M50.1754,-161.473C62.9885,-147.979 82.6248,-130.327 104,-122.1 225.333,-75.3975 380.552,-83.6673 466.63,-93.5761"/>
<polygon fill="midnightblue" stroke="midnightblue" points="47.2693,-159.466 43.1247,-169.217 52.4452,-164.179 47.2693,-159.466"/>
</g>
<!-- Node10 -->
<g id="node10" class="node"><title>Node10</title>
<g id="a_node10"><a xlink:href="../../da/def/precode_8h_aee2113e8f8d7e54052fc8db5dd71fd1f.html#aee2113e8f8d7e54052fc8db5dd71fd1f" target="_top" xlink:title="precode_matrix_decode">
<polygon fill="none" stroke="black" points="643,-93.5999 643,-112.6 763,-112.6 763,-93.5999 643,-93.5999"/>
<text text-anchor="middle" x="703" y="-100.6" font-family="Helvetica,sans-Serif" font-size="10.00">precode_matrix_decode</text>
</a>
</g>
</g>
<!-- Node1&#45;&gt;Node10 -->
<g id="edge22" class="edge"><title>Node1&#45;&gt;Node10</title>
<path fill="none" stroke="midnightblue" d="M42.9299,-160.271C53.3407,-138.25 73.8998,-102.812 104,-87.0999 202.895,-35.4779 495.067,-72.3089 606,-84.0999 624.584,-86.0752 644.922,-89.861 662.076,-93.5367"/>
<polygon fill="midnightblue" stroke="midnightblue" points="39.6481,-159.036 38.7496,-169.593 46.0352,-161.9 39.6481,-159.036"/>
</g>
<!-- Node13 -->
<g id="node13" class="node"><title>Node13</title>
<g id="a_node13"><a xlink:href="../../d6/da2/nanorq_8h_a45eddf22280758102e953573c28f2a9d.html#a45eddf22280758102e953573c28f2a9d" target="_top" xlink:title="nanorq_decode_cleanup">
<polygon fill="none" stroke="black" points="642,-55.5999 642,-74.5999 764,-74.5999 764,-55.5999 642,-55.5999"/>
<text text-anchor="middle" x="703" y="-62.5999" font-family="Helvetica,sans-Serif" font-size="10.00">nanorq_decode_cleanup</text>
</a>
</g>
</g>
<!-- Node1&#45;&gt;Node13 -->
<g id="edge13" class="edge"><title>Node1&#45;&gt;Node13</title>
<path fill="none" stroke="midnightblue" d="M39.5709,-159.707C47.3735,-131.521 66.2214,-80.1933 104,-58.0999 295.798,54.0662 584.811,-26.1869 674.481,-55.5391"/>
<polygon fill="midnightblue" stroke="midnightblue" points="36.1314,-159.03 37.0292,-169.586 42.9106,-160.774 36.1314,-159.03"/>
</g>
<!-- Node15 -->
<g id="node15" class="node"><title>Node15</title>
<g id="a_node15"><a xlink:href="../../d6/da2/nanorq_8h_abe7c4610af63c2f3a3eb0f2b991d4ca8.html#abe7c4610af63c2f3a3eb0f2b991d4ca8" target="_top" xlink:title="nanorq_encode_cleanup">
<polygon fill="none" stroke="black" points="642,-245.6 642,-264.6 764,-264.6 764,-245.6 642,-245.6"/>
<text text-anchor="middle" x="703" y="-252.6" font-family="Helvetica,sans-Serif" font-size="10.00">nanorq_encode_cleanup</text>
</a>
</g>
</g>
<!-- Node1&#45;&gt;Node15 -->
<g id="edge18" class="edge"><title>Node1&#45;&gt;Node15</title>
<path fill="none" stroke="midnightblue" d="M50.1476,-196.8C62.9447,-210.336 82.5732,-228.008 104,-236.1 200.93,-272.707 509.953,-263.797 641.636,-258.081"/>
<polygon fill="midnightblue" stroke="midnightblue" points="52.4152,-194.09 43.1074,-189.029 47.2274,-198.79 52.4152,-194.09"/>
</g>
<!-- Node16 -->
<g id="node16" class="node"><title>Node16</title>
<g id="a_node16"><a xlink:href="../../d6/d1a/precode_8c_a64e2c5739177d2991dea9ab54f2469b6.html#a64e2c5739177d2991dea9ab54f2469b6" target="_top" xlink:title="precode_matrix_init_HDPC">
<polygon fill="none" stroke="black" points="104,-131.6 104,-150.6 240,-150.6 240,-131.6 104,-131.6"/>
<text text-anchor="middle" x="172" y="-138.6" font-family="Helvetica,sans-Serif" font-size="10.00">precode_matrix_init_HDPC</text>
</a>
</g>
</g>
<!-- Node1&#45;&gt;Node16 -->
<g id="edge23" class="edge"><title>Node1&#45;&gt;Node16</title>
<path fill="none" stroke="midnightblue" d="M78.1275,-167.05C97.0216,-161.77 118.887,-155.661 136.654,-150.697"/>
<polygon fill="midnightblue" stroke="midnightblue" points="76.9586,-163.742 68.2693,-169.804 78.8423,-170.484 76.9586,-163.742"/>
</g>
<!-- Node2&#45;&gt;Node3 -->
<g id="edge2" class="edge"><title>Node2&#45;&gt;Node3</title>
<path fill="none" stroke="midnightblue" d="M224.817,-211.49C240.845,-209.755 258.807,-207.81 275.967,-205.952"/>
<polygon fill="midnightblue" stroke="midnightblue" points="224.156,-208.041 214.591,-212.597 224.91,-215 224.156,-208.041"/>
</g>
<!-- Node3&#45;&gt;Node4 -->
<g id="edge3" class="edge"><title>Node3&#45;&gt;Node4</title>
<path fill="none" stroke="midnightblue" d="M378.181,-212.628C415.685,-232.313 481.598,-266.908 513.369,-283.584"/>
<polygon fill="midnightblue" stroke="midnightblue" points="379.332,-209.28 368.851,-207.732 376.079,-215.478 379.332,-209.28"/>
</g>
<!-- Node3&#45;&gt;Node9 -->
<g id="edge9" class="edge"><title>Node3&#45;&gt;Node9</title>
<path fill="none" stroke="midnightblue" d="M377.551,-183.929C391.184,-176.786 407.97,-167.987 423,-160.1 454.654,-143.49 491.489,-124.133 513.073,-112.787"/>
<polygon fill="midnightblue" stroke="midnightblue" points="375.911,-180.837 368.677,-188.578 379.16,-187.038 375.911,-180.837"/>
</g>
<!-- Node5 -->
<g id="node5" class="node"><title>Node5</title>
<g id="a_node5"><a xlink:href="../../dd/d3f/encode_8c_a3c04138a5bfe5d72780bb7e82a18e627.html#a3c04138a5bfe5d72780bb7e82a18e627" target="_top" xlink:title="main">
<polygon fill="none" stroke="black" points="1052,-264.6 1052,-283.6 1090,-283.6 1090,-264.6 1052,-264.6"/>
<text text-anchor="middle" x="1071" y="-271.6" font-family="Helvetica,sans-Serif" font-size="10.00">main</text>
</a>
</g>
</g>
<!-- Node4&#45;&gt;Node5 -->
<g id="edge4" class="edge"><title>Node4&#45;&gt;Node5</title>
<path fill="none" stroke="midnightblue" d="M608.576,-290.441C734.934,-285.966 983.064,-277.179 1051.91,-274.741"/>
<polygon fill="midnightblue" stroke="midnightblue" points="608.084,-286.956 598.214,-290.808 608.332,-293.952 608.084,-286.956"/>
</g>
<!-- Node4&#45;&gt;Node6 -->
<g id="edge5" class="edge"><title>Node4&#45;&gt;Node6</title>
<path fill="none" stroke="midnightblue" d="M585.801,-304.895C610.101,-310.375 638.564,-316.794 661.238,-321.907"/>
<polygon fill="midnightblue" stroke="midnightblue" points="586.545,-301.475 576.02,-302.689 585.005,-308.303 586.545,-301.475"/>
</g>
<!-- Node7 -->
<g id="node7" class="node"><title>Node7</title>
<g id="a_node7"><a xlink:href="../../dd/d3f/encode_8c_a0993cb61d7e4c1b1a1606d159f5b1410.html#a0993cb61d7e4c1b1a1606d159f5b1410" target="_top" xlink:title="dump_esi">
<polygon fill="none" stroke="black" points="826,-321.6 826,-340.6 885,-340.6 885,-321.6 826,-321.6"/>
<text text-anchor="middle" x="855.5" y="-328.6" font-family="Helvetica,sans-Serif" font-size="10.00">dump_esi</text>
</a>
</g>
</g>
<!-- Node6&#45;&gt;Node7 -->
<g id="edge6" class="edge"><title>Node6&#45;&gt;Node7</title>
<path fill="none" stroke="midnightblue" d="M754.929,-331.1C778.516,-331.1 805.675,-331.1 825.664,-331.1"/>
<polygon fill="midnightblue" stroke="midnightblue" points="754.728,-327.6 744.727,-331.1 754.727,-334.6 754.728,-327.6"/>
</g>
<!-- Node8 -->
<g id="node8" class="node"><title>Node8</title>
<g id="a_node8"><a xlink:href="../../dd/d3f/encode_8c_ae7f8bbf4dcea92f802d2521fa0264f93.html#ae7f8bbf4dcea92f802d2521fa0264f93" target="_top" xlink:title="dump_block">
<polygon fill="none" stroke="black" points="947,-245.6 947,-264.6 1016,-264.6 1016,-245.6 947,-245.6"/>
<text text-anchor="middle" x="981.5" y="-252.6" font-family="Helvetica,sans-Serif" font-size="10.00">dump_block</text>
</a>
</g>
</g>
<!-- Node7&#45;&gt;Node8 -->
<g id="edge7" class="edge"><title>Node7&#45;&gt;Node8</title>
<path fill="none" stroke="midnightblue" d="M880.738,-316.245C905.665,-300.966 943.747,-277.626 964.923,-264.647"/>
<polygon fill="midnightblue" stroke="midnightblue" points="878.902,-313.265 872.205,-321.474 882.56,-319.233 878.902,-313.265"/>
</g>
<!-- Node8&#45;&gt;Node5 -->
<g id="edge8" class="edge"><title>Node8&#45;&gt;Node5</title>
<path fill="none" stroke="midnightblue" d="M1025.92,-264.527C1035.06,-266.513 1044.22,-268.502 1051.8,-270.149"/>
<polygon fill="midnightblue" stroke="midnightblue" points="1026.59,-261.093 1016.08,-262.391 1025.11,-267.934 1026.59,-261.093"/>
</g>
<!-- Node9&#45;&gt;Node10 -->
<g id="edge10" class="edge"><title>Node9&#45;&gt;Node10</title>
<path fill="none" stroke="midnightblue" d="M616.473,-103.1C625.398,-103.1 634.341,-103.1 642.903,-103.1"/>
<polygon fill="midnightblue" stroke="midnightblue" points="616.427,-99.6 606.427,-103.1 616.427,-106.6 616.427,-99.6"/>
</g>
<!-- Node11 -->
<g id="node11" class="node"><title>Node11</title>
<g id="a_node11"><a xlink:href="../../d6/da2/nanorq_8h_aa1dcf83669e76931be0e6e7a1f02c185.html#aa1dcf83669e76931be0e6e7a1f02c185" target="_top" xlink:title="nanorq_decode_block">
<polygon fill="none" stroke="black" points="800,-93.5999 800,-112.6 911,-112.6 911,-93.5999 800,-93.5999"/>
<text text-anchor="middle" x="855.5" y="-100.6" font-family="Helvetica,sans-Serif" font-size="10.00">nanorq_decode_block</text>
</a>
</g>
</g>
<!-- Node10&#45;&gt;Node11 -->
<g id="edge11" class="edge"><title>Node10&#45;&gt;Node11</title>
<path fill="none" stroke="midnightblue" d="M773.303,-103.1C782.104,-103.1 791.015,-103.1 799.549,-103.1"/>
<polygon fill="midnightblue" stroke="midnightblue" points="773.05,-99.6 763.05,-103.1 773.05,-106.6 773.05,-99.6"/>
</g>
<!-- Node12 -->
<g id="node12" class="node"><title>Node12</title>
<g id="a_node12"><a xlink:href="../../da/d0d/decode_8c_a3c04138a5bfe5d72780bb7e82a18e627.html#a3c04138a5bfe5d72780bb7e82a18e627" target="_top" xlink:title="main">
<polygon fill="none" stroke="black" points="962.5,-93.5999 962.5,-112.6 1000.5,-112.6 1000.5,-93.5999 962.5,-93.5999"/>
<text text-anchor="middle" x="981.5" y="-100.6" font-family="Helvetica,sans-Serif" font-size="10.00">main</text>
</a>
</g>
</g>
<!-- Node11&#45;&gt;Node12 -->
<g id="edge12" class="edge"><title>Node11&#45;&gt;Node12</title>
<path fill="none" stroke="midnightblue" d="M921.661,-103.1C936.706,-103.1 951.503,-103.1 962.494,-103.1"/>
<polygon fill="midnightblue" stroke="midnightblue" points="921.249,-99.6 911.249,-103.1 921.249,-106.6 921.249,-99.6"/>
</g>
<!-- Node13&#45;&gt;Node12 -->
<g id="edge14" class="edge"><title>Node13&#45;&gt;Node12</title>
<path fill="none" stroke="midnightblue" d="M774.15,-68.4744C814.428,-71.1746 865.824,-75.9167 911,-84.0999 928.724,-87.3104 948.499,-92.9208 962.409,-97.2154"/>
<polygon fill="midnightblue" stroke="midnightblue" points="774.365,-64.981 764.161,-67.831 773.915,-71.9665 774.365,-64.981"/>
</g>
<!-- Node14 -->
<g id="node14" class="node"><title>Node14</title>
<g id="a_node14"><a xlink:href="../../d6/da2/nanorq_8h_aa9e53dbae07d172696c2ab8a56ffa150.html#aa9e53dbae07d172696c2ab8a56ffa150" target="_top" xlink:title="nanorq_free">
<polygon fill="none" stroke="black" points="821.5,-131.6 821.5,-150.6 889.5,-150.6 889.5,-131.6 821.5,-131.6"/>
<text text-anchor="middle" x="855.5" y="-138.6" font-family="Helvetica,sans-Serif" font-size="10.00">nanorq_free</text>
</a>
</g>
</g>
<!-- Node13&#45;&gt;Node14 -->
<g id="edge15" class="edge"><title>Node13&#45;&gt;Node14</title>
<path fill="none" stroke="midnightblue" d="M753.359,-78.4393C757.065,-80.1258 760.658,-82.0065 764,-84.0999 783.717,-96.4487 780.463,-109.469 800,-122.1 806.479,-126.289 813.992,-129.677 821.329,-132.367"/>
<polygon fill="midnightblue" stroke="midnightblue" points="754.575,-75.1553 743.992,-74.6368 751.942,-81.6412 754.575,-75.1553"/>
</g>
<!-- Node14&#45;&gt;Node12 -->
<g id="edge16" class="edge"><title>Node14&#45;&gt;Node12</title>
<path fill="none" stroke="midnightblue" d="M897.538,-128.524C919.462,-121.805 945.349,-113.872 962.303,-108.676"/>
<polygon fill="midnightblue" stroke="midnightblue" points="896.326,-125.234 887.79,-131.511 898.377,-131.927 896.326,-125.234"/>
</g>
<!-- Node15&#45;&gt;Node8 -->
<g id="edge19" class="edge"><title>Node15&#45;&gt;Node8</title>
<path fill="none" stroke="midnightblue" d="M774.417,-255.1C829.662,-255.1 904.12,-255.1 946.751,-255.1"/>
<polygon fill="midnightblue" stroke="midnightblue" points="774.337,-251.6 764.337,-255.1 774.337,-258.6 774.337,-251.6"/>
</g>
<!-- Node15&#45;&gt;Node14 -->
<g id="edge20" class="edge"><title>Node15&#45;&gt;Node14</title>
<path fill="none" stroke="midnightblue" d="M724.694,-239.424C756.275,-215.503 815.571,-170.587 841.644,-150.838"/>
<polygon fill="midnightblue" stroke="midnightblue" points="722.431,-236.748 716.573,-245.576 726.657,-242.328 722.431,-236.748"/>
</g>
<!-- Node17 -->
<g id="node17" class="node"><title>Node17</title>
<g id="a_node17"><a xlink:href="../../da/def/precode_8h_a85c0aa4f7900eccf336228d43b7c133c.html#a85c0aa4f7900eccf336228d43b7c133c" target="_top" xlink:title="precode_matrix_gen">
<polygon fill="none" stroke="black" points="297.5,-131.6 297.5,-150.6 401.5,-150.6 401.5,-131.6 297.5,-131.6"/>
<text text-anchor="middle" x="349.5" y="-138.6" font-family="Helvetica,sans-Serif" font-size="10.00">precode_matrix_gen</text>
</a>
</g>
</g>
<!-- Node16&#45;&gt;Node17 -->
<g id="edge24" class="edge"><title>Node16&#45;&gt;Node17</title>
<path fill="none" stroke="midnightblue" d="M250.434,-141.1C266.293,-141.1 282.608,-141.1 297.268,-141.1"/>
<polygon fill="midnightblue" stroke="midnightblue" points="250.1,-137.6 240.1,-141.1 250.1,-144.6 250.1,-137.6"/>
</g>
<!-- Node17&#45;&gt;Node4 -->
<g id="edge25" class="edge"><title>Node17&#45;&gt;Node4</title>
<path fill="none" stroke="midnightblue" d="M382.373,-154.993C395.536,-161.429 410.586,-169.732 423,-179.1 466.402,-211.851 507.89,-262.57 524.213,-283.533"/>
<polygon fill="midnightblue" stroke="midnightblue" points="383.723,-151.759 373.187,-150.647 380.73,-158.087 383.723,-151.759"/>
</g>
<!-- Node17&#45;&gt;Node10 -->
<g id="edge26" class="edge"><title>Node17&#45;&gt;Node10</title>
<path fill="none" stroke="midnightblue" d="M411.633,-138.637C463.53,-136.049 539.885,-131.067 606,-122.1 623.678,-119.702 643.004,-116.075 659.653,-112.63"/>
<polygon fill="midnightblue" stroke="midnightblue" points="411.409,-135.144 401.59,-139.123 411.748,-142.136 411.409,-135.144"/>
</g>
</g>
</svg>
        <g id="navigator" transform="translate(0 0)" fill="#404254">
                <rect fill="#f2f5e9" fill-opacity="0.5" stroke="#606060" stroke-width=".5" x="0" y="0" width="60" height="60"/>
                <use id="zoomplus" xlink:href="#zoomPlus" x="17" y="9" onmousedown="handleZoom(evt,'in')"/>
                <use id="zoomminus" xlink:href="#zoomMin" x="42" y="9" onmousedown="handleZoom(evt,'out')"/>
                <use id="reset" xlink:href="#resetDef" x="30" y="36" onmousedown="handleReset()"/>
                <g id="arrowUp" xlink:href="#dirArrow" transform="translate(30 24)" onmousedown="handlePan(0,-1)">
                  <use xlink:href="#rim" fill="#404040">
                        <set attributeName="fill" to="#808080" begin="arrowUp.mouseover" end="arrowUp.mouseout"/>
                  </use>
                  <path fill="none" stroke="white" stroke-width="1.5" d="M0,-3.0v7 M-2.5,-0.5L0,-3.0L2.5,-0.5"/>
                </g>
                <g id="arrowRight" xlink:href="#dirArrow" transform="rotate(90) translate(36 -43)" onmousedown="handlePan(1,0)">
                  <use xlink:href="#rim" fill="#404040">
                        <set attributeName="fill" to="#808080" begin="arrowRight.mouseover" end="arrowRight.mouseout"/>
                  </use>
                  <path fill="none" stroke="white" stroke-width="1.5" d="M0,-3.0v7 M-2.5,-0.5L0,-3.0L2.5,-0.5"/>
                </g>
                <g id="arrowDown" xlink:href="#dirArrow" transform="rotate(180) translate(-30 -48)" onmousedown="handlePan(0,1)">
                  <use xlink:href="#rim" fill="#404040">
                        <set attributeName="fill" to="#808080" begin="arrowDown.mouseover" end="arrowDown.mouseout"/>
                  </use>
                  <path fill="none" stroke="white" stroke-width="1.5" d="M0,-3.0v7 M-2.5,-0.5L0,-3.0L2.5,-0.5"/>
                </g>
                <g id="arrowLeft" xlink:href="#dirArrow" transform="rotate(270) translate(-36 17)" onmousedown="handlePan(-1,0)">
                  <use xlink:href="#rim" fill="#404040">
                        <set attributeName="fill" to="#808080" begin="arrowLeft.mouseover" end="arrowLeft.mouseout"/>
                  </use>
                  <path fill="none" stroke="white" stroke-width="1.5" d="M0,-3.0v7 M-2.5,-0.5L0,-3.0L2.5,-0.5"/>
                </g>
        </g>
        <svg viewBox="0 0 15 15" width="100%" height="30px" preserveAspectRatio="xMaxYMin meet">
         <g id="arrow_out" transform="scale(0.3 0.3)">
          <a xlink:href="octmat_8c_ac7854c0635a9441a5a352f95dbbd7bbd_ac7854c0635a9441a5a352f95dbbd7bbd_icgraph_org.svg" target="_base">
           <rect id="button" ry="5" rx="5" y="6" x="6" height="38" width="38"
                fill="#f2f5e9" fill-opacity="0.5" stroke="#606060" stroke-width="1.0"/>
           <path id="arrow"
             d="M 11.500037,31.436501 C 11.940474,20.09759 22.043105,11.32322 32.158766,21.979434 L 37.068811,17.246167 C 37.068811,17.246167 37.088388,32 37.088388,32 L 22.160133,31.978069 C 22.160133,31.978069 26.997745,27.140456 26.997745,27.140456 C 18.528582,18.264221 13.291696,25.230495 11.500037,31.436501 z"
             style="fill:#404040;"/>
          </a>
         </g>
        </svg>
</svg>
