<?xml version="1.0" encoding="UTF-8" standalone="no"?>
<!DOCTYPE svg PUBLIC "-//W3C//DTD SVG 1.1//EN"
 "http://www.w3.org/Graphics/SVG/1.1/DTD/svg11.dtd">
<!-- Generated by graphviz version 2.38.0 (20140413.2041)
 -->
<!-- Title: rnd_get Pages: 1 -->
<!--zoomable 153 -->
<svg id="main" version="1.1" xmlns="http://www.w3.org/2000/svg" xmlns:xlink="http://www.w3.org/1999/xlink" xml:space="preserve" onload="init(evt)">
<style type="text/css"><![CDATA[
.edge:hover path { stroke: red; }
.edge:hover polygon { stroke: red; fill: red; }
]]></style>
<script type="text/javascript"><![CDATA[
var edges = document.getElementsByTagName('g');
if (edges && edges.length) {
  for (var i=0;i<edges.length;i++) {
    if (edges[i].id.substr(0,4)=='edge') {
      edges[i].setAttribute('class','edge');
    }
  }
}
]]></script>
        <defs>
                <circle id="rim" cx="0" cy="0" r="7"/>
                <circle id="rim2" cx="0" cy="0" r="3.5"/>
                <g id="zoomPlus">
                        <use xlink:href="#rim" fill="#404040">
                                <set attributeName="fill" to="#808080" begin="zoomplus.mouseover" end="zoomplus.mouseout"/>
                        </use>
                        <path d="M-4,0h8M0,-4v8" fill="none" stroke="white" stroke-width="1.5" pointer-events="none"/>
                </g>
                <g id="zoomMin">
                        <use xlink:href="#rim" fill="#404040">
                                <set attributeName="fill" to="#808080" begin="zoomminus.mouseover" end="zoomminus.mouseout"/>
                        </use>
                        <path d="M-4,0h8" fill="none" stroke="white" stroke-width="1.5" pointer-events="none"/>
                </g>
                <g id="dirArrow">
                        <path fill="none" stroke="white" stroke-width="1.5" d="M0,-3.0v7 M-2.5,-0.5L0,-3.0L2.5,-0.5"/>
                </g>
               <g id="resetDef">
                       <use xlink:href="#rim2" fill="#404040">
                               <set attributeName="fill" to="#808080" begin="reset.mouseover" end="reset.mouseout"/>
                       </use>
               </g>
        </defs>

<script type="text/javascript">
var viewWidth = 1324;
var viewHeight = 153;
var sectionId = 'dynsection-0';
</script>
<script xlink:href="../../svgpan.js"/>
<svg id="graph" class="graph">
<g id="viewport">
<title>rnd_get</title>
<!-- Node1 -->
<g id="node1" class="node"><title>Node1</title>
<polygon fill="#bfbfbf" stroke="black" points="0,-43.5 0,-62.5 49,-62.5 49,-43.5 0,-43.5"/>
<text text-anchor="middle" x="24.5" y="-50.5" font-family="Helvetica,sans-Serif" font-size="10.00">rnd_get</text>
</g>
<!-- Node2 -->
<g id="node2" class="node"><title>Node2</title>
<g id="a_node2"><a xlink:href="../../da/de3/params_8c_a071cc3dcf4ecfd727003e3563af63add.html#a071cc3dcf4ecfd727003e3563af63add" target="_top" xlink:title="gen_tuple">
<polygon fill="none" stroke="black" points="121.5,-64.5 121.5,-83.5 180.5,-83.5 180.5,-64.5 121.5,-64.5"/>
<text text-anchor="middle" x="151" y="-71.5" font-family="Helvetica,sans-Serif" font-size="10.00">gen_tuple</text>
</a>
</g>
</g>
<!-- Node1&#45;&gt;Node2 -->
<g id="edge1" class="edge"><title>Node1&#45;&gt;Node2</title>
<path fill="none" stroke="midnightblue" d="M59.1391,-58.6741C78.5141,-61.9421 102.615,-66.0073 121.125,-69.1296"/>
<polygon fill="midnightblue" stroke="midnightblue" points="59.6534,-55.2115 49.2105,-56.9994 58.4891,-62.114 59.6534,-55.2115"/>
</g>
<!-- Node17 -->
<g id="node17" class="node"><title>Node17</title>
<g id="a_node17"><a xlink:href="../../d6/d1a/precode_8c_a291ab32ffee6435673b4693d8c74952f.html#a291ab32ffee6435673b4693d8c74952f" target="_top" xlink:title="precode_matrix_make_MT">
<polygon fill="none" stroke="black" points="85,-23.5 85,-42.5 217,-42.5 217,-23.5 85,-23.5"/>
<text text-anchor="middle" x="151" y="-30.5" font-family="Helvetica,sans-Serif" font-size="10.00">precode_matrix_make_MT</text>
</a>
</g>
</g>
<!-- Node1&#45;&gt;Node17 -->
<g id="edge20" class="edge"><title>Node1&#45;&gt;Node17</title>
<path fill="none" stroke="midnightblue" d="M59.2445,-47.5792C68.9772,-46.0157 79.8956,-44.2618 90.6955,-42.5268"/>
<polygon fill="midnightblue" stroke="midnightblue" points="58.5288,-44.1492 49.2105,-49.1911 59.6391,-51.0606 58.5288,-44.1492"/>
</g>
<!-- Node3 -->
<g id="node3" class="node"><title>Node3</title>
<g id="a_node3"><a xlink:href="../../da/d33/params_8h_a5e51228448fbdf5e0d4310916b8eea93.html#a5e51228448fbdf5e0d4310916b8eea93" target="_top" xlink:title="params_get_idxs">
<polygon fill="none" stroke="black" points="275.5,-65.5 275.5,-84.5 366.5,-84.5 366.5,-65.5 275.5,-65.5"/>
<text text-anchor="middle" x="321" y="-72.5" font-family="Helvetica,sans-Serif" font-size="10.00">params_get_idxs</text>
</a>
</g>
</g>
<!-- Node2&#45;&gt;Node3 -->
<g id="edge2" class="edge"><title>Node2&#45;&gt;Node3</title>
<path fill="none" stroke="midnightblue" d="M191.175,-74.2332C216.379,-74.3832 249.199,-74.5786 275.404,-74.7345"/>
<polygon fill="midnightblue" stroke="midnightblue" points="190.901,-70.7316 180.88,-74.1719 190.859,-77.7315 190.901,-70.7316"/>
</g>
<!-- Node4 -->
<g id="node4" class="node"><title>Node4</title>
<g id="a_node4"><a xlink:href="../../d6/d1a/precode_8c_aba331164c0af3eef69c0ac91d8fe2eba.html#aba331164c0af3eef69c0ac91d8fe2eba" target="_top" xlink:title="decode_phase0">
<polygon fill="none" stroke="black" points="442.5,-125.5 442.5,-144.5 527.5,-144.5 527.5,-125.5 442.5,-125.5"/>
<text text-anchor="middle" x="485" y="-132.5" font-family="Helvetica,sans-Serif" font-size="10.00">decode_phase0</text>
</a>
</g>
</g>
<!-- Node3&#45;&gt;Node4 -->
<g id="edge3" class="edge"><title>Node3&#45;&gt;Node4</title>
<path fill="none" stroke="midnightblue" d="M354.102,-88.424C374.317,-96.7161 401.031,-107.381 425,-116 434.012,-119.241 443.889,-122.525 452.941,-125.43"/>
<polygon fill="midnightblue" stroke="midnightblue" points="355.32,-85.1404 344.741,-84.5633 352.651,-91.6116 355.32,-85.1404"/>
</g>
<!-- Node9 -->
<g id="node9" class="node"><title>Node9</title>
<g id="a_node9"><a xlink:href="../../d6/d1a/precode_8c_a7fb81075ad77cf8790ba330c7fc6c221.html#a7fb81075ad77cf8790ba330c7fc6c221" target="_top" xlink:title="precode_matrix_add\l_G_ENC">
<polygon fill="none" stroke="black" points="433,-38 433,-68 537,-68 537,-38 433,-38"/>
<text text-anchor="start" x="441" y="-56" font-family="Helvetica,sans-Serif" font-size="10.00">precode_matrix_add</text>
<text text-anchor="middle" x="485" y="-45" font-family="Helvetica,sans-Serif" font-size="10.00">_G_ENC</text>
</a>
</g>
</g>
<!-- Node3&#45;&gt;Node9 -->
<g id="edge8" class="edge"><title>Node3&#45;&gt;Node9</title>
<path fill="none" stroke="midnightblue" d="M376.823,-67.5549C394.949,-65.0934 415.034,-62.3658 432.872,-59.9434"/>
<polygon fill="midnightblue" stroke="midnightblue" points="376.134,-64.1162 366.696,-68.9302 377.076,-71.0526 376.134,-64.1162"/>
</g>
<!-- Node16 -->
<g id="node16" class="node"><title>Node16</title>
<g id="a_node16"><a xlink:href="../../da/def/precode_8h_ac563a7861b8d34580909af77f063ea66.html#ac563a7861b8d34580909af77f063ea66" target="_top" xlink:title="precode_matrix_encode">
<polygon fill="none" stroke="black" points="425,-87.5 425,-106.5 545,-106.5 545,-87.5 425,-87.5"/>
<text text-anchor="middle" x="485" y="-94.5" font-family="Helvetica,sans-Serif" font-size="10.00">precode_matrix_encode</text>
</a>
</g>
</g>
<!-- Node3&#45;&gt;Node16 -->
<g id="edge17" class="edge"><title>Node3&#45;&gt;Node16</title>
<path fill="none" stroke="midnightblue" d="M376.653,-82.422C392.164,-84.5285 409.122,-86.8313 424.884,-88.9719"/>
<polygon fill="midnightblue" stroke="midnightblue" points="377.076,-78.9474 366.696,-81.0698 376.134,-85.8838 377.076,-78.9474"/>
</g>
<!-- Node5 -->
<g id="node5" class="node"><title>Node5</title>
<g id="a_node5"><a xlink:href="../../da/def/precode_8h_a2b6a5db8f90fc98b364cb5ed3b5eca24.html#a2b6a5db8f90fc98b364cb5ed3b5eca24" target="_top" xlink:title="precode_matrix_intermediate2">
<polygon fill="none" stroke="black" points="581,-119.5 581,-138.5 728,-138.5 728,-119.5 581,-119.5"/>
<text text-anchor="middle" x="654.5" y="-126.5" font-family="Helvetica,sans-Serif" font-size="10.00">precode_matrix_intermediate2</text>
</a>
</g>
</g>
<!-- Node4&#45;&gt;Node5 -->
<g id="edge4" class="edge"><title>Node4&#45;&gt;Node5</title>
<path fill="none" stroke="midnightblue" d="M537.952,-133.139C551.555,-132.652 566.472,-132.117 580.936,-131.599"/>
<polygon fill="midnightblue" stroke="midnightblue" points="537.704,-129.646 527.835,-133.501 537.954,-136.641 537.704,-129.646"/>
</g>
<!-- Node6 -->
<g id="node6" class="node"><title>Node6</title>
<g id="a_node6"><a xlink:href="../../da/def/precode_8h_aee2113e8f8d7e54052fc8db5dd71fd1f.html#aee2113e8f8d7e54052fc8db5dd71fd1f" target="_top" xlink:title="precode_matrix_decode">
<polygon fill="none" stroke="black" points="769.5,-119.5 769.5,-138.5 889.5,-138.5 889.5,-119.5 769.5,-119.5"/>
<text text-anchor="middle" x="829.5" y="-126.5" font-family="Helvetica,sans-Serif" font-size="10.00">precode_matrix_decode</text>
</a>
</g>
</g>
<!-- Node5&#45;&gt;Node6 -->
<g id="edge5" class="edge"><title>Node5&#45;&gt;Node6</title>
<path fill="none" stroke="midnightblue" d="M738.19,-129C748.744,-129 759.373,-129 769.448,-129"/>
<polygon fill="midnightblue" stroke="midnightblue" points="738.116,-125.5 728.116,-129 738.116,-132.5 738.116,-125.5"/>
</g>
<!-- Node7 -->
<g id="node7" class="node"><title>Node7</title>
<g id="a_node7"><a xlink:href="../../d6/da2/nanorq_8h_aa1dcf83669e76931be0e6e7a1f02c185.html#aa1dcf83669e76931be0e6e7a1f02c185" target="_top" xlink:title="nanorq_decode_block">
<polygon fill="none" stroke="black" points="931,-119.5 931,-138.5 1042,-138.5 1042,-119.5 931,-119.5"/>
<text text-anchor="middle" x="986.5" y="-126.5" font-family="Helvetica,sans-Serif" font-size="10.00">nanorq_decode_block</text>
</a>
</g>
</g>
<!-- Node6&#45;&gt;Node7 -->
<g id="edge6" class="edge"><title>Node6&#45;&gt;Node7</title>
<path fill="none" stroke="midnightblue" d="M899.866,-129C910.285,-129 920.903,-129 930.954,-129"/>
<polygon fill="midnightblue" stroke="midnightblue" points="899.541,-125.5 889.541,-129 899.541,-132.5 899.541,-125.5"/>
</g>
<!-- Node8 -->
<g id="node8" class="node"><title>Node8</title>
<g id="a_node8"><a xlink:href="../../da/d0d/decode_8c_a3c04138a5bfe5d72780bb7e82a18e627.html#a3c04138a5bfe5d72780bb7e82a18e627" target="_top" xlink:title="main">
<polygon fill="none" stroke="black" points="1088.5,-119.5 1088.5,-138.5 1126.5,-138.5 1126.5,-119.5 1088.5,-119.5"/>
<text text-anchor="middle" x="1107.5" y="-126.5" font-family="Helvetica,sans-Serif" font-size="10.00">main</text>
</a>
</g>
</g>
<!-- Node7&#45;&gt;Node8 -->
<g id="edge7" class="edge"><title>Node7&#45;&gt;Node8</title>
<path fill="none" stroke="midnightblue" d="M1052.27,-129C1065.51,-129 1078.39,-129 1088.28,-129"/>
<polygon fill="midnightblue" stroke="midnightblue" points="1052.12,-125.5 1042.12,-129 1052.12,-132.5 1052.12,-125.5"/>
</g>
<!-- Node10 -->
<g id="node10" class="node"><title>Node10</title>
<g id="a_node10"><a xlink:href="../../da/def/precode_8h_a85c0aa4f7900eccf336228d43b7c133c.html#a85c0aa4f7900eccf336228d43b7c133c" target="_top" xlink:title="precode_matrix_gen">
<polygon fill="none" stroke="black" points="602.5,-43.5 602.5,-62.5 706.5,-62.5 706.5,-43.5 602.5,-43.5"/>
<text text-anchor="middle" x="654.5" y="-50.5" font-family="Helvetica,sans-Serif" font-size="10.00">precode_matrix_gen</text>
</a>
</g>
</g>
<!-- Node9&#45;&gt;Node10 -->
<g id="edge9" class="edge"><title>Node9&#45;&gt;Node10</title>
<path fill="none" stroke="midnightblue" d="M547.32,-53C565.402,-53 584.989,-53 602.359,-53"/>
<polygon fill="midnightblue" stroke="midnightblue" points="547.166,-49.5001 537.166,-53 547.166,-56.5001 547.166,-49.5001"/>
</g>
<!-- Node10&#45;&gt;Node6 -->
<g id="edge16" class="edge"><title>Node10&#45;&gt;Node6</title>
<path fill="none" stroke="midnightblue" d="M686.609,-66.6662C721.281,-81.8978 776.447,-106.133 806.767,-119.453"/>
<polygon fill="midnightblue" stroke="midnightblue" points="687.974,-63.4432 677.411,-62.6255 685.158,-69.852 687.974,-63.4432"/>
</g>
<!-- Node11 -->
<g id="node11" class="node"><title>Node11</title>
<g id="a_node11"><a xlink:href="../../d6/da2/nanorq_8h_ad6a9288685637cdfe83303f66b087a29.html#ad6a9288685637cdfe83303f66b087a29" target="_top" xlink:title="nanorq_generate_symbols">
<polygon fill="none" stroke="black" points="764,-43.5 764,-62.5 895,-62.5 895,-43.5 764,-43.5"/>
<text text-anchor="middle" x="829.5" y="-50.5" font-family="Helvetica,sans-Serif" font-size="10.00">nanorq_generate_symbols</text>
</a>
</g>
</g>
<!-- Node10&#45;&gt;Node11 -->
<g id="edge10" class="edge"><title>Node10&#45;&gt;Node11</title>
<path fill="none" stroke="midnightblue" d="M717.193,-53C732.297,-53 748.504,-53 763.748,-53"/>
<polygon fill="midnightblue" stroke="midnightblue" points="716.937,-49.5001 706.937,-53 716.937,-56.5001 716.937,-49.5001"/>
</g>
<!-- Node12 -->
<g id="node12" class="node"><title>Node12</title>
<g id="a_node12"><a xlink:href="../../dd/d3f/encode_8c_a3c04138a5bfe5d72780bb7e82a18e627.html#a3c04138a5bfe5d72780bb7e82a18e627" target="_top" xlink:title="main">
<polygon fill="none" stroke="black" points="1278,-62.5 1278,-81.5 1316,-81.5 1316,-62.5 1278,-62.5"/>
<text text-anchor="middle" x="1297" y="-69.5" font-family="Helvetica,sans-Serif" font-size="10.00">main</text>
</a>
</g>
</g>
<!-- Node11&#45;&gt;Node12 -->
<g id="edge11" class="edge"><title>Node11&#45;&gt;Node12</title>
<path fill="none" stroke="midnightblue" d="M905.304,-56.0532C1015.79,-60.563 1216.19,-68.7423 1277.61,-71.2493"/>
<polygon fill="midnightblue" stroke="midnightblue" points="905.36,-52.5527 895.226,-55.6419 905.075,-59.5469 905.36,-52.5527"/>
</g>
<!-- Node13 -->
<g id="node13" class="node"><title>Node13</title>
<g id="a_node13"><a xlink:href="../../d6/da2/nanorq_8h_a956615eb4ea3ce34369951295e93f708.html#a956615eb4ea3ce34369951295e93f708" target="_top" xlink:title="nanorq_encode">
<polygon fill="none" stroke="black" points="945,-81.5 945,-100.5 1028,-100.5 1028,-81.5 945,-81.5"/>
<text text-anchor="middle" x="986.5" y="-88.5" font-family="Helvetica,sans-Serif" font-size="10.00">nanorq_encode</text>
</a>
</g>
</g>
<!-- Node11&#45;&gt;Node13 -->
<g id="edge12" class="edge"><title>Node11&#45;&gt;Node13</title>
<path fill="none" stroke="midnightblue" d="M879.611,-65.04C901.265,-70.3488 926.35,-76.4988 946.668,-81.4799"/>
<polygon fill="midnightblue" stroke="midnightblue" points="880.159,-61.5708 869.613,-62.589 878.492,-68.3695 880.159,-61.5708"/>
</g>
<!-- Node14 -->
<g id="node14" class="node"><title>Node14</title>
<g id="a_node14"><a xlink:href="../../dd/d3f/encode_8c_a0993cb61d7e4c1b1a1606d159f5b1410.html#a0993cb61d7e4c1b1a1606d159f5b1410" target="_top" xlink:title="dump_esi">
<polygon fill="none" stroke="black" points="1078,-81.5 1078,-100.5 1137,-100.5 1137,-81.5 1078,-81.5"/>
<text text-anchor="middle" x="1107.5" y="-88.5" font-family="Helvetica,sans-Serif" font-size="10.00">dump_esi</text>
</a>
</g>
</g>
<!-- Node13&#45;&gt;Node14 -->
<g id="edge13" class="edge"><title>Node13&#45;&gt;Node14</title>
<path fill="none" stroke="midnightblue" d="M1038.26,-91C1051.74,-91 1065.84,-91 1077.69,-91"/>
<polygon fill="midnightblue" stroke="midnightblue" points="1038.12,-87.5001 1028.12,-91 1038.12,-94.5001 1038.12,-87.5001"/>
</g>
<!-- Node15 -->
<g id="node15" class="node"><title>Node15</title>
<g id="a_node15"><a xlink:href="../../dd/d3f/encode_8c_ae7f8bbf4dcea92f802d2521fa0264f93.html#ae7f8bbf4dcea92f802d2521fa0264f93" target="_top" xlink:title="dump_block">
<polygon fill="none" stroke="black" points="1173,-81.5 1173,-100.5 1242,-100.5 1242,-81.5 1173,-81.5"/>
<text text-anchor="middle" x="1207.5" y="-88.5" font-family="Helvetica,sans-Serif" font-size="10.00">dump_block</text>
</a>
</g>
</g>
<!-- Node14&#45;&gt;Node15 -->
<g id="edge14" class="edge"><title>Node14&#45;&gt;Node15</title>
<path fill="none" stroke="midnightblue" d="M1147.17,-91C1155.65,-91 1164.57,-91 1172.84,-91"/>
<polygon fill="midnightblue" stroke="midnightblue" points="1147.11,-87.5001 1137.11,-91 1147.11,-94.5001 1147.11,-87.5001"/>
</g>
<!-- Node15&#45;&gt;Node12 -->
<g id="edge15" class="edge"><title>Node15&#45;&gt;Node12</title>
<path fill="none" stroke="midnightblue" d="M1251.92,-81.5725C1261.06,-79.5874 1270.22,-77.598 1277.8,-75.9512"/>
<polygon fill="midnightblue" stroke="midnightblue" points="1251.11,-78.1661 1242.08,-83.7084 1252.59,-85.0067 1251.11,-78.1661"/>
</g>
<!-- Node16&#45;&gt;Node5 -->
<g id="edge19" class="edge"><title>Node16&#45;&gt;Node5</title>
<path fill="none" stroke="midnightblue" d="M545.809,-108.426C564.736,-112.042 585.444,-115.998 603.601,-119.467"/>
<polygon fill="midnightblue" stroke="midnightblue" points="546.281,-104.953 535.802,-106.514 544.968,-111.829 546.281,-104.953"/>
</g>
<!-- Node16&#45;&gt;Node13 -->
<g id="edge18" class="edge"><title>Node16&#45;&gt;Node13</title>
<path fill="none" stroke="midnightblue" d="M555.514,-96.165C661.302,-94.8943 859.398,-92.5147 944.708,-91.49"/>
<polygon fill="midnightblue" stroke="midnightblue" points="555.218,-92.6682 545.261,-96.2882 555.302,-99.6677 555.218,-92.6682"/>
</g>
<!-- Node18 -->
<g id="node18" class="node"><title>Node18</title>
<g id="a_node18"><a xlink:href="../../d6/d1a/precode_8c_a64e2c5739177d2991dea9ab54f2469b6.html#a64e2c5739177d2991dea9ab54f2469b6" target="_top" xlink:title="precode_matrix_init_HDPC">
<polygon fill="none" stroke="black" points="253,-0.5 253,-19.5 389,-19.5 389,-0.5 253,-0.5"/>
<text text-anchor="middle" x="321" y="-7.5" font-family="Helvetica,sans-Serif" font-size="10.00">precode_matrix_init_HDPC</text>
</a>
</g>
</g>
<!-- Node17&#45;&gt;Node18 -->
<g id="edge21" class="edge"><title>Node17&#45;&gt;Node18</title>
<path fill="none" stroke="midnightblue" d="M227.603,-22.6496C236.004,-21.4994 244.519,-20.3337 252.806,-19.1992"/>
<polygon fill="midnightblue" stroke="midnightblue" points="226.867,-19.2176 217.434,-24.0417 227.817,-26.1529 226.867,-19.2176"/>
</g>
<!-- Node18&#45;&gt;Node10 -->
<g id="edge22" class="edge"><title>Node18&#45;&gt;Node10</title>
<path fill="none" stroke="midnightblue" d="M399.27,-13.4568C442.342,-16.0793 496.849,-20.5501 545,-28 569.643,-31.8128 597.001,-38.131 618.08,-43.4615"/>
<polygon fill="midnightblue" stroke="midnightblue" points="399.329,-9.95427 389.141,-12.8611 398.918,-16.9422 399.329,-9.95427"/>
</g>
</g>
</svg>
        <g id="navigator" transform="translate(0 0)" fill="#404254">
                <rect fill="#f2f5e9" fill-opacity="0.5" stroke="#606060" stroke-width=".5" x="0" y="0" width="60" height="60"/>
                <use id="zoomplus" xlink:href="#zoomPlus" x="17" y="9" onmousedown="handleZoom(evt,'in')"/>
                <use id="zoomminus" xlink:href="#zoomMin" x="42" y="9" onmousedown="handleZoom(evt,'out')"/>
                <use id="reset" xlink:href="#resetDef" x="30" y="36" onmousedown="handleReset()"/>
                <g id="arrowUp" xlink:href="#dirArrow" transform="translate(30 24)" onmousedown="handlePan(0,-1)">
                  <use xlink:href="#rim" fill="#404040">
                        <set attributeName="fill" to="#808080" begin="arrowUp.mouseover" end="arrowUp.mouseout"/>
                  </use>
                  <path fill="none" stroke="white" stroke-width="1.5" d="M0,-3.0v7 M-2.5,-0.5L0,-3.0L2.5,-0.5"/>
                </g>
                <g id="arrowRight" xlink:href="#dirArrow" transform="rotate(90) translate(36 -43)" onmousedown="handlePan(1,0)">
                  <use xlink:href="#rim" fill="#404040">
                        <set attributeName="fill" to="#808080" begin="arrowRight.mouseover" end="arrowRight.mouseout"/>
                  </use>
                  <path fill="none" stroke="white" stroke-width="1.5" d="M0,-3.0v7 M-2.5,-0.5L0,-3.0L2.5,-0.5"/>
                </g>
                <g id="arrowDown" xlink:href="#dirArrow" transform="rotate(180) translate(-30 -48)" onmousedown="handlePan(0,1)">
                  <use xlink:href="#rim" fill="#404040">
                        <set attributeName="fill" to="#808080" begin="arrowDown.mouseover" end="arrowDown.mouseout"/>
                  </use>
                  <path fill="none" stroke="white" stroke-width="1.5" d="M0,-3.0v7 M-2.5,-0.5L0,-3.0L2.5,-0.5"/>
                </g>
                <g id="arrowLeft" xlink:href="#dirArrow" transform="rotate(270) translate(-36 17)" onmousedown="handlePan(-1,0)">
                  <use xlink:href="#rim" fill="#404040">
                        <set attributeName="fill" to="#808080" begin="arrowLeft.mouseover" end="arrowLeft.mouseout"/>
                  </use>
                  <path fill="none" stroke="white" stroke-width="1.5" d="M0,-3.0v7 M-2.5,-0.5L0,-3.0L2.5,-0.5"/>
                </g>
        </g>
        <svg viewBox="0 0 15 15" width="100%" height="30px" preserveAspectRatio="xMaxYMin meet">
         <g id="arrow_out" transform="scale(0.3 0.3)">
          <a xlink:href="rand_8c_a080635c045f160d270060da9f4d8e5b7_a080635c045f160d270060da9f4d8e5b7_icgraph_org.svg" target="_base">
           <rect id="button" ry="5" rx="5" y="6" x="6" height="38" width="38"
                fill="#f2f5e9" fill-opacity="0.5" stroke="#606060" stroke-width="1.0"/>
           <path id="arrow"
             d="M 11.500037,31.436501 C 11.940474,20.09759 22.043105,11.32322 32.158766,21.979434 L 37.068811,17.246167 C 37.068811,17.246167 37.088388,32 37.088388,32 L 22.160133,31.978069 C 22.160133,31.978069 26.997745,27.140456 26.997745,27.140456 C 18.528582,18.264221 13.291696,25.230495 11.500037,31.436501 z"
             style="fill:#404040;"/>
          </a>
         </g>
        </svg>
</svg>
