<?xml version="1.0" encoding="UTF-8" standalone="no"?>
<!DOCTYPE svg PUBLIC "-//W3C//DTD SVG 1.1//EN"
 "http://www.w3.org/Graphics/SVG/1.1/DTD/svg11.dtd">
<!-- Generated by graphviz version 2.38.0 (20140413.2041)
 -->
<!-- Title: deg Pages: 1 -->
<svg width="1189pt" height="116pt"
 viewBox="0.00 0.00 1189.00 116.00" xmlns="http://www.w3.org/2000/svg" xmlns:xlink="http://www.w3.org/1999/xlink">
<g id="graph0" class="graph" transform="scale(1 1) rotate(0) translate(4 112)">
<title>deg</title>
<!-- Node1 -->
<g id="node1" class="node"><title>Node1</title>
<polygon fill="#bfbfbf" stroke="black" points="0,-44.5 0,-63.5 32,-63.5 32,-44.5 0,-44.5"/>
<text text-anchor="middle" x="16" y="-51.5" font-family="Helvetica,sans-Serif" font-size="10.00">deg</text>
</g>
<!-- Node2 -->
<g id="node2" class="node"><title>Node2</title>
<g id="a_node2"><a xlink:href="../../da/de3/params_8c_a071cc3dcf4ecfd727003e3563af63add.html#a071cc3dcf4ecfd727003e3563af63add" target="_top" xlink:title="gen_tuple">
<polygon fill="none" stroke="black" points="68,-44.5 68,-63.5 127,-63.5 127,-44.5 68,-44.5"/>
<text text-anchor="middle" x="97.5" y="-51.5" font-family="Helvetica,sans-Serif" font-size="10.00">gen_tuple</text>
</a>
</g>
</g>
<!-- Node1&#45;&gt;Node2 -->
<g id="edge1" class="edge"><title>Node1&#45;&gt;Node2</title>
<path fill="none" stroke="midnightblue" d="M42.5619,-54C50.5769,-54 59.4776,-54 67.7003,-54"/>
<polygon fill="midnightblue" stroke="midnightblue" points="42.3284,-50.5001 32.3284,-54 42.3284,-57.5001 42.3284,-50.5001"/>
</g>
<!-- Node3 -->
<g id="node3" class="node"><title>Node3</title>
<g id="a_node3"><a xlink:href="../../da/d33/params_8h_a5e51228448fbdf5e0d4310916b8eea93.html#a5e51228448fbdf5e0d4310916b8eea93" target="_top" xlink:title="params_get_idxs">
<polygon fill="none" stroke="black" points="163,-44.5 163,-63.5 254,-63.5 254,-44.5 163,-44.5"/>
<text text-anchor="middle" x="208.5" y="-51.5" font-family="Helvetica,sans-Serif" font-size="10.00">params_get_idxs</text>
</a>
</g>
</g>
<!-- Node2&#45;&gt;Node3 -->
<g id="edge2" class="edge"><title>Node2&#45;&gt;Node3</title>
<path fill="none" stroke="midnightblue" d="M137.208,-54C145.43,-54 154.176,-54 162.605,-54"/>
<polygon fill="midnightblue" stroke="midnightblue" points="137.139,-50.5001 127.138,-54 137.138,-57.5001 137.139,-50.5001"/>
</g>
<!-- Node4 -->
<g id="node4" class="node"><title>Node4</title>
<g id="a_node4"><a xlink:href="../../d6/d1a/precode_8c_a7fb81075ad77cf8790ba330c7fc6c221.html#a7fb81075ad77cf8790ba330c7fc6c221" target="_top" xlink:title="precode_matrix_add\l_G_ENC">
<polygon fill="none" stroke="black" points="298,-39 298,-69 402,-69 402,-39 298,-39"/>
<text text-anchor="start" x="306" y="-57" font-family="Helvetica,sans-Serif" font-size="10.00">precode_matrix_add</text>
<text text-anchor="middle" x="350" y="-46" font-family="Helvetica,sans-Serif" font-size="10.00">_G_ENC</text>
</a>
</g>
</g>
<!-- Node3&#45;&gt;Node4 -->
<g id="edge3" class="edge"><title>Node3&#45;&gt;Node4</title>
<path fill="none" stroke="midnightblue" d="M264.336,-54C275.297,-54 286.774,-54 297.614,-54"/>
<polygon fill="midnightblue" stroke="midnightblue" points="264.022,-50.5001 254.022,-54 264.022,-57.5001 264.022,-50.5001"/>
</g>
<!-- Node14 -->
<g id="node14" class="node"><title>Node14</title>
<g id="a_node14"><a xlink:href="../../d6/d1a/precode_8c_aba331164c0af3eef69c0ac91d8fe2eba.html#aba331164c0af3eef69c0ac91d8fe2eba" target="_top" xlink:title="decode_phase0">
<polygon fill="none" stroke="black" points="307.5,-88.5 307.5,-107.5 392.5,-107.5 392.5,-88.5 307.5,-88.5"/>
<text text-anchor="middle" x="350" y="-95.5" font-family="Helvetica,sans-Serif" font-size="10.00">decode_phase0</text>
</a>
</g>
</g>
<!-- Node3&#45;&gt;Node14 -->
<g id="edge14" class="edge"><title>Node3&#45;&gt;Node14</title>
<path fill="none" stroke="midnightblue" d="M249.519,-66.6224C271.575,-73.5793 298.511,-82.0753 318.79,-88.4713"/>
<polygon fill="midnightblue" stroke="midnightblue" points="250.359,-63.2176 239.769,-63.5473 248.253,-69.8934 250.359,-63.2176"/>
</g>
<!-- Node16 -->
<g id="node16" class="node"><title>Node16</title>
<g id="a_node16"><a xlink:href="../../da/def/precode_8h_ac563a7861b8d34580909af77f063ea66.html#ac563a7861b8d34580909af77f063ea66" target="_top" xlink:title="precode_matrix_encode">
<polygon fill="none" stroke="black" points="290,-0.5 290,-19.5 410,-19.5 410,-0.5 290,-0.5"/>
<text text-anchor="middle" x="350" y="-7.5" font-family="Helvetica,sans-Serif" font-size="10.00">precode_matrix_encode</text>
</a>
</g>
</g>
<!-- Node3&#45;&gt;Node16 -->
<g id="edge17" class="edge"><title>Node3&#45;&gt;Node16</title>
<path fill="none" stroke="midnightblue" d="M249.519,-41.3776C271.575,-34.4207 298.511,-25.9247 318.79,-19.5287"/>
<polygon fill="midnightblue" stroke="midnightblue" points="248.253,-38.1066 239.769,-44.4527 250.359,-44.7824 248.253,-38.1066"/>
</g>
<!-- Node5 -->
<g id="node5" class="node"><title>Node5</title>
<g id="a_node5"><a xlink:href="../../da/def/precode_8h_a85c0aa4f7900eccf336228d43b7c133c.html#a85c0aa4f7900eccf336228d43b7c133c" target="_top" xlink:title="precode_matrix_gen">
<polygon fill="none" stroke="black" points="467.5,-43.5 467.5,-62.5 571.5,-62.5 571.5,-43.5 467.5,-43.5"/>
<text text-anchor="middle" x="519.5" y="-50.5" font-family="Helvetica,sans-Serif" font-size="10.00">precode_matrix_gen</text>
</a>
</g>
</g>
<!-- Node4&#45;&gt;Node5 -->
<g id="edge4" class="edge"><title>Node4&#45;&gt;Node5</title>
<path fill="none" stroke="midnightblue" d="M412.32,-53.6339C430.402,-53.526 449.989,-53.409 467.359,-53.3053"/>
<polygon fill="midnightblue" stroke="midnightblue" points="412.145,-50.1348 402.166,-53.6945 412.186,-57.1347 412.145,-50.1348"/>
</g>
<!-- Node6 -->
<g id="node6" class="node"><title>Node6</title>
<g id="a_node6"><a xlink:href="../../d6/da2/nanorq_8h_ad6a9288685637cdfe83303f66b087a29.html#ad6a9288685637cdfe83303f66b087a29" target="_top" xlink:title="nanorq_generate_symbols">
<polygon fill="none" stroke="black" points="629,-41.5 629,-60.5 760,-60.5 760,-41.5 629,-41.5"/>
<text text-anchor="middle" x="694.5" y="-48.5" font-family="Helvetica,sans-Serif" font-size="10.00">nanorq_generate_symbols</text>
</a>
</g>
</g>
<!-- Node5&#45;&gt;Node6 -->
<g id="edge5" class="edge"><title>Node5&#45;&gt;Node6</title>
<path fill="none" stroke="midnightblue" d="M582.193,-52.2868C597.297,-52.1122 613.504,-51.9248 628.748,-51.7486"/>
<polygon fill="midnightblue" stroke="midnightblue" points="581.896,-48.7899 571.937,-52.4053 581.977,-55.7894 581.896,-48.7899"/>
</g>
<!-- Node11 -->
<g id="node11" class="node"><title>Node11</title>
<g id="a_node11"><a xlink:href="../../da/def/precode_8h_aee2113e8f8d7e54052fc8db5dd71fd1f.html#aee2113e8f8d7e54052fc8db5dd71fd1f" target="_top" xlink:title="precode_matrix_decode">
<polygon fill="none" stroke="black" points="634.5,-80.5 634.5,-99.5 754.5,-99.5 754.5,-80.5 634.5,-80.5"/>
<text text-anchor="middle" x="694.5" y="-87.5" font-family="Helvetica,sans-Serif" font-size="10.00">precode_matrix_decode</text>
</a>
</g>
</g>
<!-- Node5&#45;&gt;Node11 -->
<g id="edge11" class="edge"><title>Node5&#45;&gt;Node11</title>
<path fill="none" stroke="midnightblue" d="M574.981,-64.652C598.745,-69.7345 626.263,-75.6199 648.799,-80.4396"/>
<polygon fill="midnightblue" stroke="midnightblue" points="575.563,-61.1973 565.052,-62.5284 574.099,-68.0425 575.563,-61.1973"/>
</g>
<!-- Node7 -->
<g id="node7" class="node"><title>Node7</title>
<g id="a_node7"><a xlink:href="../../dd/d3f/encode_8c_a3c04138a5bfe5d72780bb7e82a18e627.html#a3c04138a5bfe5d72780bb7e82a18e627" target="_top" xlink:title="main">
<polygon fill="none" stroke="black" points="1143,-22.5 1143,-41.5 1181,-41.5 1181,-22.5 1143,-22.5"/>
<text text-anchor="middle" x="1162" y="-29.5" font-family="Helvetica,sans-Serif" font-size="10.00">main</text>
</a>
</g>
</g>
<!-- Node6&#45;&gt;Node7 -->
<g id="edge6" class="edge"><title>Node6&#45;&gt;Node7</title>
<path fill="none" stroke="midnightblue" d="M770.304,-47.9468C880.794,-43.437 1081.19,-35.2577 1142.61,-32.7507"/>
<polygon fill="midnightblue" stroke="midnightblue" points="770.075,-44.4531 760.226,-48.3581 770.36,-51.4473 770.075,-44.4531"/>
</g>
<!-- Node8 -->
<g id="node8" class="node"><title>Node8</title>
<g id="a_node8"><a xlink:href="../../d6/da2/nanorq_8h_a956615eb4ea3ce34369951295e93f708.html#a956615eb4ea3ce34369951295e93f708" target="_top" xlink:title="nanorq_encode">
<polygon fill="none" stroke="black" points="810,-3.5 810,-22.5 893,-22.5 893,-3.5 810,-3.5"/>
<text text-anchor="middle" x="851.5" y="-10.5" font-family="Helvetica,sans-Serif" font-size="10.00">nanorq_encode</text>
</a>
</g>
</g>
<!-- Node6&#45;&gt;Node8 -->
<g id="edge7" class="edge"><title>Node6&#45;&gt;Node8</title>
<path fill="none" stroke="midnightblue" d="M744.611,-38.96C766.265,-33.6512 791.35,-27.5012 811.668,-22.5201"/>
<polygon fill="midnightblue" stroke="midnightblue" points="743.492,-35.6305 734.613,-41.411 745.159,-42.4292 743.492,-35.6305"/>
</g>
<!-- Node9 -->
<g id="node9" class="node"><title>Node9</title>
<g id="a_node9"><a xlink:href="../../dd/d3f/encode_8c_a0993cb61d7e4c1b1a1606d159f5b1410.html#a0993cb61d7e4c1b1a1606d159f5b1410" target="_top" xlink:title="dump_esi">
<polygon fill="none" stroke="black" points="943,-3.5 943,-22.5 1002,-22.5 1002,-3.5 943,-3.5"/>
<text text-anchor="middle" x="972.5" y="-10.5" font-family="Helvetica,sans-Serif" font-size="10.00">dump_esi</text>
</a>
</g>
</g>
<!-- Node8&#45;&gt;Node9 -->
<g id="edge8" class="edge"><title>Node8&#45;&gt;Node9</title>
<path fill="none" stroke="midnightblue" d="M903.263,-13C916.744,-13 930.838,-13 942.692,-13"/>
<polygon fill="midnightblue" stroke="midnightblue" points="903.12,-9.5001 893.12,-13 903.12,-16.5001 903.12,-9.5001"/>
</g>
<!-- Node10 -->
<g id="node10" class="node"><title>Node10</title>
<g id="a_node10"><a xlink:href="../../dd/d3f/encode_8c_ae7f8bbf4dcea92f802d2521fa0264f93.html#ae7f8bbf4dcea92f802d2521fa0264f93" target="_top" xlink:title="dump_block">
<polygon fill="none" stroke="black" points="1038,-3.5 1038,-22.5 1107,-22.5 1107,-3.5 1038,-3.5"/>
<text text-anchor="middle" x="1072.5" y="-10.5" font-family="Helvetica,sans-Serif" font-size="10.00">dump_block</text>
</a>
</g>
</g>
<!-- Node9&#45;&gt;Node10 -->
<g id="edge9" class="edge"><title>Node9&#45;&gt;Node10</title>
<path fill="none" stroke="midnightblue" d="M1012.17,-13C1020.65,-13 1029.57,-13 1037.84,-13"/>
<polygon fill="midnightblue" stroke="midnightblue" points="1012.11,-9.5001 1002.11,-13 1012.11,-16.5001 1012.11,-9.5001"/>
</g>
<!-- Node10&#45;&gt;Node7 -->
<g id="edge10" class="edge"><title>Node10&#45;&gt;Node7</title>
<path fill="none" stroke="midnightblue" d="M1116.92,-22.4275C1126.06,-24.4126 1135.22,-26.402 1142.8,-28.0488"/>
<polygon fill="midnightblue" stroke="midnightblue" points="1117.59,-18.9933 1107.08,-20.2916 1116.11,-25.8339 1117.59,-18.9933"/>
</g>
<!-- Node12 -->
<g id="node12" class="node"><title>Node12</title>
<g id="a_node12"><a xlink:href="../../d6/da2/nanorq_8h_aa1dcf83669e76931be0e6e7a1f02c185.html#aa1dcf83669e76931be0e6e7a1f02c185" target="_top" xlink:title="nanorq_decode_block">
<polygon fill="none" stroke="black" points="796,-80.5 796,-99.5 907,-99.5 907,-80.5 796,-80.5"/>
<text text-anchor="middle" x="851.5" y="-87.5" font-family="Helvetica,sans-Serif" font-size="10.00">nanorq_decode_block</text>
</a>
</g>
</g>
<!-- Node11&#45;&gt;Node12 -->
<g id="edge12" class="edge"><title>Node11&#45;&gt;Node12</title>
<path fill="none" stroke="midnightblue" d="M764.866,-90C775.285,-90 785.903,-90 795.954,-90"/>
<polygon fill="midnightblue" stroke="midnightblue" points="764.541,-86.5001 754.541,-90 764.541,-93.5001 764.541,-86.5001"/>
</g>
<!-- Node13 -->
<g id="node13" class="node"><title>Node13</title>
<g id="a_node13"><a xlink:href="../../da/d0d/decode_8c_a3c04138a5bfe5d72780bb7e82a18e627.html#a3c04138a5bfe5d72780bb7e82a18e627" target="_top" xlink:title="main">
<polygon fill="none" stroke="black" points="953.5,-80.5 953.5,-99.5 991.5,-99.5 991.5,-80.5 953.5,-80.5"/>
<text text-anchor="middle" x="972.5" y="-87.5" font-family="Helvetica,sans-Serif" font-size="10.00">main</text>
</a>
</g>
</g>
<!-- Node12&#45;&gt;Node13 -->
<g id="edge13" class="edge"><title>Node12&#45;&gt;Node13</title>
<path fill="none" stroke="midnightblue" d="M917.271,-90C930.507,-90 943.393,-90 953.281,-90"/>
<polygon fill="midnightblue" stroke="midnightblue" points="917.124,-86.5001 907.124,-90 917.124,-93.5001 917.124,-86.5001"/>
</g>
<!-- Node15 -->
<g id="node15" class="node"><title>Node15</title>
<g id="a_node15"><a xlink:href="../../da/def/precode_8h_a2b6a5db8f90fc98b364cb5ed3b5eca24.html#a2b6a5db8f90fc98b364cb5ed3b5eca24" target="_top" xlink:title="precode_matrix_intermediate2">
<polygon fill="none" stroke="black" points="446,-81.5 446,-100.5 593,-100.5 593,-81.5 446,-81.5"/>
<text text-anchor="middle" x="519.5" y="-88.5" font-family="Helvetica,sans-Serif" font-size="10.00">precode_matrix_intermediate2</text>
</a>
</g>
</g>
<!-- Node14&#45;&gt;Node15 -->
<g id="edge15" class="edge"><title>Node14&#45;&gt;Node15</title>
<path fill="none" stroke="midnightblue" d="M402.952,-95.8289C416.555,-95.2604 431.472,-94.637 445.936,-94.0325"/>
<polygon fill="midnightblue" stroke="midnightblue" points="402.68,-92.3371 392.835,-96.2517 402.973,-99.331 402.68,-92.3371"/>
</g>
<!-- Node15&#45;&gt;Node11 -->
<g id="edge16" class="edge"><title>Node15&#45;&gt;Node11</title>
<path fill="none" stroke="midnightblue" d="M603.19,-90.522C613.744,-90.461 624.373,-90.3996 634.448,-90.3413"/>
<polygon fill="midnightblue" stroke="midnightblue" points="603.095,-87.0224 593.116,-90.5803 603.136,-94.0223 603.095,-87.0224"/>
</g>
<!-- Node16&#45;&gt;Node8 -->
<g id="edge18" class="edge"><title>Node16&#45;&gt;Node8</title>
<path fill="none" stroke="midnightblue" d="M420.514,-10.4175C526.302,-11.0529 724.398,-12.2426 809.708,-12.755"/>
<polygon fill="midnightblue" stroke="midnightblue" points="420.282,-6.91614 410.261,-10.3559 420.239,-13.916 420.282,-6.91614"/>
</g>
<!-- Node16&#45;&gt;Node15 -->
<g id="edge19" class="edge"><title>Node16&#45;&gt;Node15</title>
<path fill="none" stroke="midnightblue" d="M400.606,-23.6188C403.888,-25.2285 407.054,-27.0164 410,-29 430.674,-42.9221 424.95,-58.6541 446,-72 452.154,-75.9016 459.085,-79.0055 466.158,-81.4739"/>
<polygon fill="midnightblue" stroke="midnightblue" points="401.71,-20.2833 391.141,-19.5396 398.939,-26.7117 401.71,-20.2833"/>
</g>
</g>
</svg>
