<?xml version="1.0" encoding="UTF-8" standalone="no"?>
<!DOCTYPE svg PUBLIC "-//W3C//DTD SVG 1.1//EN"
 "http://www.w3.org/Graphics/SVG/1.1/DTD/svg11.dtd">
<!-- Generated by graphviz version 2.38.0 (20140413.2041)
 -->
<!-- Title: bitmask_free Pages: 1 -->
<svg width="417pt" height="47pt"
 viewBox="0.00 0.00 417.00 47.00" xmlns="http://www.w3.org/2000/svg" xmlns:xlink="http://www.w3.org/1999/xlink">
<g id="graph0" class="graph" transform="scale(1 1) rotate(0) translate(4 43)">
<title>bitmask_free</title>
<!-- Node1 -->
<g id="node1" class="node"><title>Node1</title>
<polygon fill="#bfbfbf" stroke="black" points="0,-19.5 0,-38.5 73,-38.5 73,-19.5 0,-19.5"/>
<text text-anchor="middle" x="36.5" y="-26.5" font-family="Helvetica,sans-Serif" font-size="10.00">bitmask_free</text>
</g>
<!-- Node2 -->
<g id="node2" class="node"><title>Node2</title>
<g id="a_node2"><a xlink:href="../../d6/da2/nanorq_8h_a45eddf22280758102e953573c28f2a9d.html#a45eddf22280758102e953573c28f2a9d" target="_top" xlink:title="nanorq_decode_cleanup">
<polygon fill="none" stroke="black" points="109,-19.5 109,-38.5 231,-38.5 231,-19.5 109,-19.5"/>
<text text-anchor="middle" x="170" y="-26.5" font-family="Helvetica,sans-Serif" font-size="10.00">nanorq_decode_cleanup</text>
</a>
</g>
</g>
<!-- Node1&#45;&gt;Node2 -->
<g id="edge1" class="edge"><title>Node1&#45;&gt;Node2</title>
<path fill="none" stroke="midnightblue" d="M83.2463,-29C91.4992,-29 100.217,-29 108.807,-29"/>
<polygon fill="midnightblue" stroke="midnightblue" points="83.0858,-25.5001 73.0858,-29 83.0858,-32.5001 83.0858,-25.5001"/>
</g>
<!-- Node3 -->
<g id="node3" class="node"><title>Node3</title>
<g id="a_node3"><a xlink:href="../../da/d0d/decode_8c_a3c04138a5bfe5d72780bb7e82a18e627.html#a3c04138a5bfe5d72780bb7e82a18e627" target="_top" xlink:title="main">
<polygon fill="none" stroke="black" points="371,-19.5 371,-38.5 409,-38.5 409,-19.5 371,-19.5"/>
<text text-anchor="middle" x="390" y="-26.5" font-family="Helvetica,sans-Serif" font-size="10.00">main</text>
</a>
</g>
</g>
<!-- Node2&#45;&gt;Node3 -->
<g id="edge2" class="edge"><title>Node2&#45;&gt;Node3</title>
<path fill="none" stroke="midnightblue" d="M241.245,-29C286.604,-29 342.256,-29 370.563,-29"/>
<polygon fill="midnightblue" stroke="midnightblue" points="241.147,-25.5001 231.147,-29 241.147,-32.5001 241.147,-25.5001"/>
</g>
<!-- Node4 -->
<g id="node4" class="node"><title>Node4</title>
<g id="a_node4"><a xlink:href="../../d6/da2/nanorq_8h_aa9e53dbae07d172696c2ab8a56ffa150.html#aa9e53dbae07d172696c2ab8a56ffa150" target="_top" xlink:title="nanorq_free">
<polygon fill="none" stroke="black" points="267,-0.5 267,-19.5 335,-19.5 335,-0.5 267,-0.5"/>
<text text-anchor="middle" x="301" y="-7.5" font-family="Helvetica,sans-Serif" font-size="10.00">nanorq_free</text>
</a>
</g>
</g>
<!-- Node2&#45;&gt;Node4 -->
<g id="edge3" class="edge"><title>Node2&#45;&gt;Node4</title>
<path fill="none" stroke="midnightblue" d="M241.359,-18.637C250.205,-17.3342 258.902,-16.0532 266.778,-14.8932"/>
<polygon fill="midnightblue" stroke="midnightblue" points="240.729,-15.1921 231.345,-20.1119 241.749,-22.1173 240.729,-15.1921"/>
</g>
<!-- Node4&#45;&gt;Node3 -->
<g id="edge4" class="edge"><title>Node4&#45;&gt;Node3</title>
<path fill="none" stroke="midnightblue" d="M345.168,-19.4275C354.258,-21.4126 363.367,-23.402 370.908,-25.0488"/>
<polygon fill="midnightblue" stroke="midnightblue" points="345.904,-16.0058 335.388,-17.2916 344.411,-22.8447 345.904,-16.0058"/>
</g>
</g>
</svg>
