<?xml version="1.0" encoding="UTF-8" standalone="no"?>
<!DOCTYPE svg PUBLIC "-//W3C//DTD SVG 1.1//EN"
 "http://www.w3.org/Graphics/SVG/1.1/DTD/svg11.dtd">
<!-- Generated by graphviz version 2.38.0 (20140413.2041)
 -->
<!-- Title: oaddrow Pages: 1 -->
<svg width="225pt" height="28pt"
 viewBox="0.00 0.00 225.00 28.00" xmlns="http://www.w3.org/2000/svg" xmlns:xlink="http://www.w3.org/1999/xlink">
<g id="graph0" class="graph" transform="scale(1 1) rotate(0) translate(4 24)">
<title>oaddrow</title>
<!-- Node1 -->
<g id="node1" class="node"><title>Node1</title>
<polygon fill="#bfbfbf" stroke="black" points="0,-0.5 0,-19.5 53,-19.5 53,-0.5 0,-0.5"/>
<text text-anchor="middle" x="26.5" y="-7.5" font-family="Helvetica,sans-Serif" font-size="10.00">oaddrow</text>
</g>
<!-- Node2 -->
<g id="node2" class="node"><title>Node2</title>
<g id="a_node2"><a xlink:href="../../d9/df6/oblas__classic_8c_a95d88cdc6582b4ba84db297cbb28dc94.html#a95d88cdc6582b4ba84db297cbb28dc94" target="_top" xlink:title="oaxpy">
<polygon fill="none" stroke="black" points="89,-0.5 89,-19.5 132,-19.5 132,-0.5 89,-0.5"/>
<text text-anchor="middle" x="110.5" y="-7.5" font-family="Helvetica,sans-Serif" font-size="10.00">oaxpy</text>
</a>
</g>
</g>
<!-- Node1&#45;&gt;Node2 -->
<g id="edge1" class="edge"><title>Node1&#45;&gt;Node2</title>
<path fill="none" stroke="midnightblue" d="M63.7247,-10C72.354,-10 81.2695,-10 88.9138,-10"/>
<polygon fill="midnightblue" stroke="midnightblue" points="63.4453,-6.5001 53.4453,-10 63.4453,-13.5001 63.4453,-6.5001"/>
</g>
<!-- Node3 -->
<g id="node3" class="node"><title>Node3</title>
<g id="a_node3"><a xlink:href="../../d9/df6/oblas__classic_8c_a2feef265eef6411a595c5e71a1cf45a7.html#a2feef265eef6411a595c5e71a1cf45a7" target="_top" xlink:title="ogemm">
<polygon fill="none" stroke="black" points="168,-0.5 168,-19.5 217,-19.5 217,-0.5 168,-0.5"/>
<text text-anchor="middle" x="192.5" y="-7.5" font-family="Helvetica,sans-Serif" font-size="10.00">ogemm</text>
</a>
</g>
</g>
<!-- Node2&#45;&gt;Node3 -->
<g id="edge2" class="edge"><title>Node2&#45;&gt;Node3</title>
<path fill="none" stroke="midnightblue" d="M142.103,-10C150.64,-10 159.782,-10 167.852,-10"/>
<polygon fill="midnightblue" stroke="midnightblue" points="142.102,-6.5001 132.102,-10 142.102,-13.5001 142.102,-6.5001"/>
</g>
</g>
</svg>
