<?xml version="1.0" encoding="UTF-8" standalone="no"?>
<!DOCTYPE svg PUBLIC "-//W3C//DTD SVG 1.1//EN"
 "http://www.w3.org/Graphics/SVG/1.1/DTD/svg11.dtd">
<!-- Generated by graphviz version 2.38.0 (20140413.2041)
 -->
<!-- Title: bitmask_check Pages: 1 -->
<svg width="772pt" height="154pt"
 viewBox="0.00 0.00 772.00 153.50" xmlns="http://www.w3.org/2000/svg" xmlns:xlink="http://www.w3.org/1999/xlink">
<g id="graph0" class="graph" transform="scale(1 1) rotate(0) translate(4 149.5)">
<title>bitmask_check</title>
<!-- Node1 -->
<g id="node1" class="node"><title>Node1</title>
<polygon fill="#bfbfbf" stroke="black" points="0,-69 0,-88 83,-88 83,-69 0,-69"/>
<text text-anchor="middle" x="41.5" y="-76" font-family="Helvetica,sans-Serif" font-size="10.00">bitmask_check</text>
</g>
<!-- Node2 -->
<g id="node2" class="node"><title>Node2</title>
<g id="a_node2"><a xlink:href="precode_8c_aba331164c0af3eef69c0ac91d8fe2eba.html#aba331164c0af3eef69c0ac91d8fe2eba" target="_top" xlink:title="decode_phase0">
<polygon fill="none" stroke="black" points="119,-126 119,-145 204,-145 204,-126 119,-126"/>
<text text-anchor="middle" x="161.5" y="-133" font-family="Helvetica,sans-Serif" font-size="10.00">decode_phase0</text>
</a>
</g>
</g>
<!-- Node1&#45;&gt;Node2 -->
<g id="edge1" class="edge"><title>Node1&#45;&gt;Node2</title>
<path fill="none" stroke="midnightblue" d="M71.2694,-92.3971C92.7994,-102.797 121.688,-116.752 140.685,-125.928"/>
<polygon fill="midnightblue" stroke="midnightblue" points="72.7774,-89.2386 62.2505,-88.0405 69.7327,-95.5418 72.7774,-89.2386"/>
</g>
<!-- Node3 -->
<g id="node3" class="node"><title>Node3</title>
<g id="a_node3"><a xlink:href="precode_8c_a2b6a5db8f90fc98b364cb5ed3b5eca24.html#a2b6a5db8f90fc98b364cb5ed3b5eca24" target="_top" xlink:title="precode_matrix_intermediate2">
<polygon fill="none" stroke="black" points="240,-88 240,-107 387,-107 387,-88 240,-88"/>
<text text-anchor="middle" x="313.5" y="-95" font-family="Helvetica,sans-Serif" font-size="10.00">precode_matrix_intermediate2</text>
</a>
</g>
</g>
<!-- Node1&#45;&gt;Node3 -->
<g id="edge9" class="edge"><title>Node1&#45;&gt;Node3</title>
<path fill="none" stroke="midnightblue" d="M93.3306,-82.077C134.68,-84.9867 193.557,-89.1299 239.877,-92.3895"/>
<polygon fill="midnightblue" stroke="midnightblue" points="93.4351,-78.5758 83.2141,-81.3651 92.9437,-85.5585 93.4351,-78.5758"/>
</g>
<!-- Node4 -->
<g id="node4" class="node"><title>Node4</title>
<g id="a_node4"><a xlink:href="precode_8c_aee2113e8f8d7e54052fc8db5dd71fd1f.html#aee2113e8f8d7e54052fc8db5dd71fd1f" target="_top" xlink:title="precode_matrix_decode">
<polygon fill="none" stroke="black" points="423,-50 423,-69 543,-69 543,-50 423,-50"/>
<text text-anchor="middle" x="483" y="-57" font-family="Helvetica,sans-Serif" font-size="10.00">precode_matrix_decode</text>
</a>
</g>
</g>
<!-- Node1&#45;&gt;Node4 -->
<g id="edge8" class="edge"><title>Node1&#45;&gt;Node4</title>
<path fill="none" stroke="midnightblue" d="M93.1139,-76.3119C174.953,-72.7739 335.927,-65.8149 422.898,-62.055"/>
<polygon fill="midnightblue" stroke="midnightblue" points="92.8988,-72.8178 83.0593,-76.7466 93.2012,-79.8113 92.8988,-72.8178"/>
</g>
<!-- Node7 -->
<g id="node7" class="node"><title>Node7</title>
<g id="a_node7"><a xlink:href="nanorq_8c_a4199d347f3a4d6e329a6b76fde635121.html#a4199d347f3a4d6e329a6b76fde635121" target="_top" xlink:title="nanorq_decoder_add\l_symbol">
<polygon fill="none" stroke="black" points="260,-0.5 260,-30.5 367,-30.5 367,-0.5 260,-0.5"/>
<text text-anchor="start" x="268" y="-18.5" font-family="Helvetica,sans-Serif" font-size="10.00">nanorq_decoder_add</text>
<text text-anchor="middle" x="313.5" y="-7.5" font-family="Helvetica,sans-Serif" font-size="10.00">_symbol</text>
</a>
</g>
</g>
<!-- Node1&#45;&gt;Node7 -->
<g id="edge6" class="edge"><title>Node1&#45;&gt;Node7</title>
<path fill="none" stroke="midnightblue" d="M70.4106,-64.4302C84.6373,-57.7863 102.4,-50.2831 119,-45.5 165.713,-32.0405 220.616,-24.257 259.983,-20.008"/>
<polygon fill="midnightblue" stroke="midnightblue" points="68.6915,-61.3727 61.184,-68.8486 71.7149,-67.6862 68.6915,-61.3727"/>
</g>
<!-- Node2&#45;&gt;Node3 -->
<g id="edge2" class="edge"><title>Node2&#45;&gt;Node3</title>
<path fill="none" stroke="midnightblue" d="M210.311,-123.388C231.202,-118.096 255.347,-111.979 274.921,-107.02"/>
<polygon fill="midnightblue" stroke="midnightblue" points="209.186,-120.062 200.351,-125.911 210.905,-126.848 209.186,-120.062"/>
</g>
<!-- Node3&#45;&gt;Node4 -->
<g id="edge3" class="edge"><title>Node3&#45;&gt;Node4</title>
<path fill="none" stroke="midnightblue" d="M366.62,-85.6757C390.235,-80.3184 417.782,-74.0689 440.037,-69.0201"/>
<polygon fill="midnightblue" stroke="midnightblue" points="365.745,-82.2852 356.767,-87.911 367.294,-89.1117 365.745,-82.2852"/>
</g>
<!-- Node5 -->
<g id="node5" class="node"><title>Node5</title>
<g id="a_node5"><a xlink:href="nanorq_8c_aa1dcf83669e76931be0e6e7a1f02c185.html#aa1dcf83669e76931be0e6e7a1f02c185" target="_top" xlink:title="nanorq_decode_block">
<polygon fill="none" stroke="black" points="579,-47 579,-66 690,-66 690,-47 579,-47"/>
<text text-anchor="middle" x="634.5" y="-54" font-family="Helvetica,sans-Serif" font-size="10.00">nanorq_decode_block</text>
</a>
</g>
</g>
<!-- Node4&#45;&gt;Node5 -->
<g id="edge4" class="edge"><title>Node4&#45;&gt;Node5</title>
<path fill="none" stroke="midnightblue" d="M553.104,-58.1133C561.7,-57.9408 570.396,-57.7663 578.734,-57.599"/>
<polygon fill="midnightblue" stroke="midnightblue" points="553.014,-54.6143 543.086,-58.3143 553.155,-61.6129 553.014,-54.6143"/>
</g>
<!-- Node6 -->
<g id="node6" class="node"><title>Node6</title>
<g id="a_node6"><a xlink:href="decode_8c_a3c04138a5bfe5d72780bb7e82a18e627.html#a3c04138a5bfe5d72780bb7e82a18e627" target="_top" xlink:title="main">
<polygon fill="none" stroke="black" points="726,-27 726,-46 764,-46 764,-27 726,-27"/>
<text text-anchor="middle" x="745" y="-34" font-family="Helvetica,sans-Serif" font-size="10.00">main</text>
</a>
</g>
</g>
<!-- Node5&#45;&gt;Node6 -->
<g id="edge5" class="edge"><title>Node5&#45;&gt;Node6</title>
<path fill="none" stroke="midnightblue" d="M697.268,-45.1142C707.694,-43.1924 717.742,-41.3402 725.832,-39.849"/>
<polygon fill="midnightblue" stroke="midnightblue" points="696.408,-41.7137 687.208,-46.9686 697.677,-48.5978 696.408,-41.7137"/>
</g>
<!-- Node7&#45;&gt;Node6 -->
<g id="edge7" class="edge"><title>Node7&#45;&gt;Node6</title>
<path fill="none" stroke="midnightblue" d="M377.421,-18.5765C477.289,-23.4594 666.838,-32.7272 725.939,-35.6169"/>
<polygon fill="midnightblue" stroke="midnightblue" points="377.324,-15.0676 367.165,-18.075 376.982,-22.0593 377.324,-15.0676"/>
</g>
</g>
</svg>
