<?xml version="1.0" encoding="UTF-8" standalone="no"?>
<!DOCTYPE svg PUBLIC "-//W3C//DTD SVG 1.1//EN"
 "http://www.w3.org/Graphics/SVG/1.1/DTD/svg11.dtd">
<!-- Generated by graphviz version 2.38.0 (20140413.2041)
 -->
<!-- Title: bitmask.c Pages: 1 -->
<svg width="404pt" height="84pt"
 viewBox="0.00 0.00 403.50 84.00" xmlns="http://www.w3.org/2000/svg" xmlns:xlink="http://www.w3.org/1999/xlink">
<g id="graph0" class="graph" transform="scale(1 1) rotate(0) translate(4 80)">
<title>bitmask.c</title>
<!-- Node0 -->
<g id="node1" class="node"><title>Node0</title>
<polygon fill="#bfbfbf" stroke="black" points="161.5,-56.5 161.5,-75.5 220.5,-75.5 220.5,-56.5 161.5,-56.5"/>
<text text-anchor="middle" x="191" y="-63.5" font-family="Helvetica,sans-Serif" font-size="10.00">bitmask.c</text>
</g>
<!-- Node1 -->
<g id="node2" class="node"><title>Node1</title>
<polygon fill="none" stroke="#bfbfbf" points="0,-0.5 0,-19.5 46,-19.5 46,-0.5 0,-0.5"/>
<text text-anchor="middle" x="23" y="-7.5" font-family="Helvetica,sans-Serif" font-size="10.00">stdio.h</text>
</g>
<!-- Node0&#45;&gt;Node1 -->
<g id="edge1" class="edge"><title>Node0&#45;&gt;Node1</title>
<path fill="none" stroke="midnightblue" d="M164.38,-56.4435C134.992,-46.9976 87.6569,-31.7826 55.9515,-21.5916"/>
<polygon fill="midnightblue" stroke="midnightblue" points="56.8407,-18.2011 46.2494,-18.473 54.6986,-24.8653 56.8407,-18.2011"/>
</g>
<!-- Node2 -->
<g id="node3" class="node"><title>Node2</title>
<polygon fill="none" stroke="#bfbfbf" points="64.5,-0.5 64.5,-19.5 113.5,-19.5 113.5,-0.5 64.5,-0.5"/>
<text text-anchor="middle" x="89" y="-7.5" font-family="Helvetica,sans-Serif" font-size="10.00">stdint.h</text>
</g>
<!-- Node0&#45;&gt;Node2 -->
<g id="edge2" class="edge"><title>Node0&#45;&gt;Node2</title>
<path fill="none" stroke="midnightblue" d="M174.612,-56.324C158.329,-47.7034 133.133,-34.3643 114.284,-24.3855"/>
<polygon fill="midnightblue" stroke="midnightblue" points="115.823,-21.2402 105.347,-19.6545 112.548,-27.4267 115.823,-21.2402"/>
</g>
<!-- Node3 -->
<g id="node4" class="node"><title>Node3</title>
<polygon fill="none" stroke="#bfbfbf" points="132,-0.5 132,-19.5 180,-19.5 180,-0.5 132,-0.5"/>
<text text-anchor="middle" x="156" y="-7.5" font-family="Helvetica,sans-Serif" font-size="10.00">stdlib.h</text>
</g>
<!-- Node0&#45;&gt;Node3 -->
<g id="edge3" class="edge"><title>Node0&#45;&gt;Node3</title>
<path fill="none" stroke="midnightblue" d="M185.22,-56.083C180.328,-48.5341 173.173,-37.4948 167.167,-28.2298"/>
<polygon fill="midnightblue" stroke="midnightblue" points="170.048,-26.239 161.672,-19.7511 164.174,-30.0463 170.048,-26.239"/>
</g>
<!-- Node4 -->
<g id="node5" class="node"><title>Node4</title>
<polygon fill="none" stroke="#bfbfbf" points="198,-0.5 198,-19.5 254,-19.5 254,-0.5 198,-0.5"/>
<text text-anchor="middle" x="226" y="-7.5" font-family="Helvetica,sans-Serif" font-size="10.00">stdbool.h</text>
</g>
<!-- Node0&#45;&gt;Node4 -->
<g id="edge4" class="edge"><title>Node0&#45;&gt;Node4</title>
<path fill="none" stroke="midnightblue" d="M196.78,-56.083C201.672,-48.5341 208.827,-37.4948 214.833,-28.2298"/>
<polygon fill="midnightblue" stroke="midnightblue" points="217.826,-30.0463 220.328,-19.7511 211.952,-26.239 217.826,-30.0463"/>
</g>
<!-- Node5 -->
<g id="node6" class="node"><title>Node5</title>
<g id="a_node6"><a xlink:href="kvec_8h.html" target="_top" xlink:title="kvec.h">
<polygon fill="none" stroke="black" points="272,-0.5 272,-19.5 318,-19.5 318,-0.5 272,-0.5"/>
<text text-anchor="middle" x="295" y="-7.5" font-family="Helvetica,sans-Serif" font-size="10.00">kvec.h</text>
</a>
</g>
</g>
<!-- Node0&#45;&gt;Node5 -->
<g id="edge5" class="edge"><title>Node0&#45;&gt;Node5</title>
<path fill="none" stroke="midnightblue" d="M207.709,-56.324C224.312,-47.7034 250.002,-34.3643 269.22,-24.3855"/>
<polygon fill="midnightblue" stroke="midnightblue" points="271.07,-27.3689 278.332,-19.6545 267.844,-21.1565 271.07,-27.3689"/>
</g>
<!-- Node6 -->
<g id="node7" class="node"><title>Node6</title>
<g id="a_node7"><a xlink:href="bitmask_8h.html" target="_top" xlink:title="bitmask.h">
<polygon fill="none" stroke="black" points="336.5,-0.5 336.5,-19.5 395.5,-19.5 395.5,-0.5 336.5,-0.5"/>
<text text-anchor="middle" x="366" y="-7.5" font-family="Helvetica,sans-Serif" font-size="10.00">bitmask.h</text>
</a>
</g>
</g>
<!-- Node0&#45;&gt;Node6 -->
<g id="edge6" class="edge"><title>Node0&#45;&gt;Node6</title>
<path fill="none" stroke="midnightblue" d="M218.729,-56.4435C248.426,-47.2801 295.716,-32.6876 328.669,-22.5192"/>
<polygon fill="midnightblue" stroke="midnightblue" points="329.877,-25.8094 338.4,-19.5164 327.813,-19.1206 329.877,-25.8094"/>
</g>
</g>
</svg>
