<?xml version="1.0" encoding="UTF-8" standalone="no"?>
<!DOCTYPE svg PUBLIC "-//W3C//DTD SVG 1.1//EN"
 "http://www.w3.org/Graphics/SVG/1.1/DTD/svg11.dtd">
<!-- Generated by graphviz version 2.38.0 (20140413.2041)
 -->
<!-- Title: bitmask_set Pages: 1 -->
<svg width="455pt" height="78pt"
 viewBox="0.00 0.00 455.00 77.50" xmlns="http://www.w3.org/2000/svg" xmlns:xlink="http://www.w3.org/1999/xlink">
<g id="graph0" class="graph" transform="scale(1 1) rotate(0) translate(4 73.5)">
<title>bitmask_set</title>
<!-- Node1 -->
<g id="node1" class="node"><title>Node1</title>
<polygon fill="#bfbfbf" stroke="black" points="0,-22.5 0,-41.5 70,-41.5 70,-22.5 0,-22.5"/>
<text text-anchor="middle" x="35" y="-29.5" font-family="Helvetica,sans-Serif" font-size="10.00">bitmask_set</text>
</g>
<!-- Node2 -->
<g id="node2" class="node"><title>Node2</title>
<g id="a_node2"><a xlink:href="nanorq_8c_a4199d347f3a4d6e329a6b76fde635121.html#a4199d347f3a4d6e329a6b76fde635121" target="_top" xlink:title="nanorq_decoder_add\l_symbol">
<polygon fill="none" stroke="black" points="264,-39 264,-69 371,-69 371,-39 264,-39"/>
<text text-anchor="start" x="272" y="-57" font-family="Helvetica,sans-Serif" font-size="10.00">nanorq_decoder_add</text>
<text text-anchor="middle" x="317.5" y="-46" font-family="Helvetica,sans-Serif" font-size="10.00">_symbol</text>
</a>
</g>
</g>
<!-- Node1&#45;&gt;Node2 -->
<g id="edge1" class="edge"><title>Node1&#45;&gt;Node2</title>
<path fill="none" stroke="midnightblue" d="M80.2404,-35.4698C129.998,-39.3724 210.76,-45.7066 263.757,-49.8633"/>
<polygon fill="midnightblue" stroke="midnightblue" points="80.3575,-31.9684 70.1144,-34.6756 79.8101,-38.9469 80.3575,-31.9684"/>
</g>
<!-- Node4 -->
<g id="node4" class="node"><title>Node4</title>
<g id="a_node4"><a xlink:href="precode_8c_aee2113e8f8d7e54052fc8db5dd71fd1f.html#aee2113e8f8d7e54052fc8db5dd71fd1f" target="_top" xlink:title="precode_matrix_decode">
<polygon fill="none" stroke="black" points="106,-3.5 106,-22.5 226,-22.5 226,-3.5 106,-3.5"/>
<text text-anchor="middle" x="166" y="-10.5" font-family="Helvetica,sans-Serif" font-size="10.00">precode_matrix_decode</text>
</a>
</g>
</g>
<!-- Node1&#45;&gt;Node4 -->
<g id="edge3" class="edge"><title>Node1&#45;&gt;Node4</title>
<path fill="none" stroke="midnightblue" d="M80.2856,-25.4773C88.4629,-24.2729 97.1224,-22.9975 105.661,-21.7399"/>
<polygon fill="midnightblue" stroke="midnightblue" points="79.6142,-22.0384 70.231,-26.9582 80.6343,-28.9636 79.6142,-22.0384"/>
</g>
<!-- Node3 -->
<g id="node3" class="node"><title>Node3</title>
<g id="a_node3"><a xlink:href="decode_8c_a3c04138a5bfe5d72780bb7e82a18e627.html#a3c04138a5bfe5d72780bb7e82a18e627" target="_top" xlink:title="main">
<polygon fill="none" stroke="black" points="409,-22.5 409,-41.5 447,-41.5 447,-22.5 409,-22.5"/>
<text text-anchor="middle" x="428" y="-29.5" font-family="Helvetica,sans-Serif" font-size="10.00">main</text>
</a>
</g>
</g>
<!-- Node2&#45;&gt;Node3 -->
<g id="edge2" class="edge"><title>Node2&#45;&gt;Node3</title>
<path fill="none" stroke="midnightblue" d="M381.021,-41.3229C391.229,-39.2531 401.036,-37.2645 408.952,-35.6595"/>
<polygon fill="midnightblue" stroke="midnightblue" points="380.266,-37.9047 371.161,-43.3222 381.657,-44.7651 380.266,-37.9047"/>
</g>
<!-- Node5 -->
<g id="node5" class="node"><title>Node5</title>
<g id="a_node5"><a xlink:href="nanorq_8c_aa1dcf83669e76931be0e6e7a1f02c185.html#aa1dcf83669e76931be0e6e7a1f02c185" target="_top" xlink:title="nanorq_decode_block">
<polygon fill="none" stroke="black" points="262,-0.5 262,-19.5 373,-19.5 373,-0.5 262,-0.5"/>
<text text-anchor="middle" x="317.5" y="-7.5" font-family="Helvetica,sans-Serif" font-size="10.00">nanorq_decode_block</text>
</a>
</g>
</g>
<!-- Node4&#45;&gt;Node5 -->
<g id="edge4" class="edge"><title>Node4&#45;&gt;Node5</title>
<path fill="none" stroke="midnightblue" d="M236.104,-11.6133C244.7,-11.4408 253.396,-11.2663 261.734,-11.099"/>
<polygon fill="midnightblue" stroke="midnightblue" points="236.014,-8.1143 226.086,-11.8143 236.155,-15.1129 236.014,-8.1143"/>
</g>
<!-- Node5&#45;&gt;Node3 -->
<g id="edge5" class="edge"><title>Node5&#45;&gt;Node3</title>
<path fill="none" stroke="midnightblue" d="M375.593,-21.5764C387.667,-24.0246 399.553,-26.4346 408.849,-28.3196"/>
<polygon fill="midnightblue" stroke="midnightblue" points="375.955,-18.0787 365.459,-19.5216 374.564,-24.9391 375.955,-18.0787"/>
</g>
</g>
</svg>
