<?xml version="1.0" encoding="UTF-8" standalone="no"?>
<!DOCTYPE svg PUBLIC "-//W3C//DTD SVG 1.1//EN"
 "http://www.w3.org/Graphics/SVG/1.1/DTD/svg11.dtd">
<!-- Generated by graphviz version 2.38.0 (20140413.2041)
 -->
<!-- Title: chooser_pick Pages: 1 -->
<svg width="1051pt" height="85pt"
 viewBox="0.00 0.00 1051.00 85.00" xmlns="http://www.w3.org/2000/svg" xmlns:xlink="http://www.w3.org/1999/xlink">
<g id="graph0" class="graph" transform="scale(1 1) rotate(0) translate(4 81)">
<title>chooser_pick</title>
<!-- Node3 -->
<g id="node1" class="node"><title>Node3</title>
<polygon fill="#bfbfbf" stroke="black" points="0,-19.5 0,-38.5 74,-38.5 74,-19.5 0,-19.5"/>
<text text-anchor="middle" x="37" y="-26.5" font-family="Helvetica,sans-Serif" font-size="10.00">chooser_pick</text>
</g>
<!-- Node4 -->
<g id="node2" class="node"><title>Node4</title>
<g id="a_node2"><a xlink:href="precode_8c_adde325d451f8ec9eb7f8f4542d81e884.html#adde325d451f8ec9eb7f8f4542d81e884" target="_top" xlink:title="decode_phase1">
<polygon fill="none" stroke="black" points="110,-19.5 110,-38.5 195,-38.5 195,-19.5 110,-19.5"/>
<text text-anchor="middle" x="152.5" y="-26.5" font-family="Helvetica,sans-Serif" font-size="10.00">decode_phase1</text>
</a>
</g>
</g>
<!-- Node3&#45;&gt;Node4 -->
<g id="edge1" class="edge"><title>Node3&#45;&gt;Node4</title>
<path fill="none" stroke="midnightblue" d="M84.2752,-29C92.6873,-29 101.417,-29 109.691,-29"/>
<polygon fill="midnightblue" stroke="midnightblue" points="84.2242,-25.5001 74.2242,-29 84.2241,-32.5001 84.2242,-25.5001"/>
</g>
<!-- Node5 -->
<g id="node3" class="node"><title>Node5</title>
<g id="a_node3"><a xlink:href="precode_8c_a262ba8efa6b500c1e7a3cb0451245291.html#a262ba8efa6b500c1e7a3cb0451245291" target="_top" xlink:title="precode_matrix_intermediate1">
<polygon fill="none" stroke="black" points="231,-19.5 231,-38.5 378,-38.5 378,-19.5 231,-19.5"/>
<text text-anchor="middle" x="304.5" y="-26.5" font-family="Helvetica,sans-Serif" font-size="10.00">precode_matrix_intermediate1</text>
</a>
</g>
</g>
<!-- Node4&#45;&gt;Node5 -->
<g id="edge2" class="edge"><title>Node4&#45;&gt;Node5</title>
<path fill="none" stroke="midnightblue" d="M205.453,-29C213.682,-29 222.32,-29 230.917,-29"/>
<polygon fill="midnightblue" stroke="midnightblue" points="205.283,-25.5001 195.283,-29 205.283,-32.5001 205.283,-25.5001"/>
</g>
<!-- Node6 -->
<g id="node4" class="node"><title>Node6</title>
<g id="a_node4"><a xlink:href="nanorq_8c_ad6a9288685637cdfe83303f66b087a29.html#ad6a9288685637cdfe83303f66b087a29" target="_top" xlink:title="nanorq_generate_symbols">
<polygon fill="none" stroke="black" points="422,-38.5 422,-57.5 553,-57.5 553,-38.5 422,-38.5"/>
<text text-anchor="middle" x="487.5" y="-45.5" font-family="Helvetica,sans-Serif" font-size="10.00">nanorq_generate_symbols</text>
</a>
</g>
</g>
<!-- Node5&#45;&gt;Node6 -->
<g id="edge3" class="edge"><title>Node5&#45;&gt;Node6</title>
<path fill="none" stroke="midnightblue" d="M388.327,-37.6945C399.559,-38.8736 410.949,-40.0692 421.8,-41.2083"/>
<polygon fill="midnightblue" stroke="midnightblue" points="388.387,-34.1817 378.077,-36.6185 387.657,-41.1435 388.387,-34.1817"/>
</g>
<!-- Node11 -->
<g id="node9" class="node"><title>Node11</title>
<g id="a_node9"><a xlink:href="precode_8c_a2b6a5db8f90fc98b364cb5ed3b5eca24.html#a2b6a5db8f90fc98b364cb5ed3b5eca24" target="_top" xlink:title="precode_matrix_intermediate2">
<polygon fill="none" stroke="black" points="414,-0.5 414,-19.5 561,-19.5 561,-0.5 414,-0.5"/>
<text text-anchor="middle" x="487.5" y="-7.5" font-family="Helvetica,sans-Serif" font-size="10.00">precode_matrix_intermediate2</text>
</a>
</g>
</g>
<!-- Node5&#45;&gt;Node11 -->
<g id="edge9" class="edge"><title>Node5&#45;&gt;Node11</title>
<path fill="none" stroke="midnightblue" d="M388.116,-20.3276C396.722,-19.4242 405.424,-18.5107 413.907,-17.6203"/>
<polygon fill="midnightblue" stroke="midnightblue" points="387.657,-16.8565 378.077,-21.3815 388.387,-23.8182 387.657,-16.8565"/>
</g>
<!-- Node7 -->
<g id="node5" class="node"><title>Node7</title>
<g id="a_node5"><a xlink:href="encode_8c_a3c04138a5bfe5d72780bb7e82a18e627.html#a3c04138a5bfe5d72780bb7e82a18e627" target="_top" xlink:title="main">
<polygon fill="none" stroke="black" points="1005,-57.5 1005,-76.5 1043,-76.5 1043,-57.5 1005,-57.5"/>
<text text-anchor="middle" x="1024" y="-64.5" font-family="Helvetica,sans-Serif" font-size="10.00">main</text>
</a>
</g>
</g>
<!-- Node6&#45;&gt;Node7 -->
<g id="edge4" class="edge"><title>Node6&#45;&gt;Node7</title>
<path fill="none" stroke="midnightblue" d="M542.55,-59.3642C559.86,-62.4925 579.163,-65.45 597,-67 754.308,-80.6695 945.527,-71.5387 1004.68,-68.1302"/>
<polygon fill="midnightblue" stroke="midnightblue" points="543.087,-55.904 532.615,-57.5119 541.804,-62.7854 543.087,-55.904"/>
</g>
<!-- Node8 -->
<g id="node6" class="node"><title>Node8</title>
<g id="a_node6"><a xlink:href="nanorq_8c_a956615eb4ea3ce34369951295e93f708.html#a956615eb4ea3ce34369951295e93f708" target="_top" xlink:title="nanorq_encode">
<polygon fill="none" stroke="black" points="615.5,-38.5 615.5,-57.5 698.5,-57.5 698.5,-38.5 615.5,-38.5"/>
<text text-anchor="middle" x="657" y="-45.5" font-family="Helvetica,sans-Serif" font-size="10.00">nanorq_encode</text>
</a>
</g>
</g>
<!-- Node6&#45;&gt;Node8 -->
<g id="edge5" class="edge"><title>Node6&#45;&gt;Node8</title>
<path fill="none" stroke="midnightblue" d="M563.609,-48C581.33,-48 599.572,-48 615.117,-48"/>
<polygon fill="midnightblue" stroke="midnightblue" points="563.26,-44.5001 553.26,-48 563.26,-51.5001 563.26,-44.5001"/>
</g>
<!-- Node9 -->
<g id="node7" class="node"><title>Node9</title>
<g id="a_node7"><a xlink:href="encode_8c_a0993cb61d7e4c1b1a1606d159f5b1410.html#a0993cb61d7e4c1b1a1606d159f5b1410" target="_top" xlink:title="dump_esi">
<polygon fill="none" stroke="black" points="779,-38.5 779,-57.5 838,-57.5 838,-38.5 779,-38.5"/>
<text text-anchor="middle" x="808.5" y="-45.5" font-family="Helvetica,sans-Serif" font-size="10.00">dump_esi</text>
</a>
</g>
</g>
<!-- Node8&#45;&gt;Node9 -->
<g id="edge6" class="edge"><title>Node8&#45;&gt;Node9</title>
<path fill="none" stroke="midnightblue" d="M708.907,-48C732.14,-48 758.805,-48 778.542,-48"/>
<polygon fill="midnightblue" stroke="midnightblue" points="708.852,-44.5001 698.852,-48 708.851,-51.5001 708.852,-44.5001"/>
</g>
<!-- Node10 -->
<g id="node8" class="node"><title>Node10</title>
<g id="a_node8"><a xlink:href="encode_8c_ae7f8bbf4dcea92f802d2521fa0264f93.html#ae7f8bbf4dcea92f802d2521fa0264f93" target="_top" xlink:title="dump_block">
<polygon fill="none" stroke="black" points="900,-38.5 900,-57.5 969,-57.5 969,-38.5 900,-38.5"/>
<text text-anchor="middle" x="934.5" y="-45.5" font-family="Helvetica,sans-Serif" font-size="10.00">dump_block</text>
</a>
</g>
</g>
<!-- Node9&#45;&gt;Node10 -->
<g id="edge7" class="edge"><title>Node9&#45;&gt;Node10</title>
<path fill="none" stroke="midnightblue" d="M848.607,-48C864.984,-48 883.841,-48 899.616,-48"/>
<polygon fill="midnightblue" stroke="midnightblue" points="848.26,-44.5001 838.26,-48 848.26,-51.5001 848.26,-44.5001"/>
</g>
<!-- Node10&#45;&gt;Node7 -->
<g id="edge8" class="edge"><title>Node10&#45;&gt;Node7</title>
<path fill="none" stroke="midnightblue" d="M978.916,-57.4275C988.058,-59.4126 997.22,-61.402 1004.8,-63.0488"/>
<polygon fill="midnightblue" stroke="midnightblue" points="979.595,-53.9933 969.08,-55.2916 978.109,-60.8339 979.595,-53.9933"/>
</g>
<!-- Node12 -->
<g id="node10" class="node"><title>Node12</title>
<g id="a_node10"><a xlink:href="precode_8c_aee2113e8f8d7e54052fc8db5dd71fd1f.html#aee2113e8f8d7e54052fc8db5dd71fd1f" target="_top" xlink:title="precode_matrix_decode">
<polygon fill="none" stroke="black" points="597,-0.5 597,-19.5 717,-19.5 717,-0.5 597,-0.5"/>
<text text-anchor="middle" x="657" y="-7.5" font-family="Helvetica,sans-Serif" font-size="10.00">precode_matrix_decode</text>
</a>
</g>
</g>
<!-- Node11&#45;&gt;Node12 -->
<g id="edge10" class="edge"><title>Node11&#45;&gt;Node12</title>
<path fill="none" stroke="midnightblue" d="M571.496,-10C580.05,-10 588.614,-10 596.832,-10"/>
<polygon fill="midnightblue" stroke="midnightblue" points="571.481,-6.5001 561.481,-10 571.481,-13.5001 571.481,-6.5001"/>
</g>
<!-- Node13 -->
<g id="node11" class="node"><title>Node13</title>
<g id="a_node11"><a xlink:href="nanorq_8c_aa1dcf83669e76931be0e6e7a1f02c185.html#aa1dcf83669e76931be0e6e7a1f02c185" target="_top" xlink:title="nanorq_decode_block">
<polygon fill="none" stroke="black" points="753,-0.5 753,-19.5 864,-19.5 864,-0.5 753,-0.5"/>
<text text-anchor="middle" x="808.5" y="-7.5" font-family="Helvetica,sans-Serif" font-size="10.00">nanorq_decode_block</text>
</a>
</g>
</g>
<!-- Node12&#45;&gt;Node13 -->
<g id="edge11" class="edge"><title>Node12&#45;&gt;Node13</title>
<path fill="none" stroke="midnightblue" d="M727.104,-10C735.7,-10 744.396,-10 752.734,-10"/>
<polygon fill="midnightblue" stroke="midnightblue" points="727.086,-6.5001 717.086,-10 727.086,-13.5001 727.086,-6.5001"/>
</g>
<!-- Node14 -->
<g id="node12" class="node"><title>Node14</title>
<g id="a_node12"><a xlink:href="decode_8c_a3c04138a5bfe5d72780bb7e82a18e627.html#a3c04138a5bfe5d72780bb7e82a18e627" target="_top" xlink:title="main">
<polygon fill="none" stroke="black" points="915.5,-0.5 915.5,-19.5 953.5,-19.5 953.5,-0.5 915.5,-0.5"/>
<text text-anchor="middle" x="934.5" y="-7.5" font-family="Helvetica,sans-Serif" font-size="10.00">main</text>
</a>
</g>
</g>
<!-- Node13&#45;&gt;Node14 -->
<g id="edge12" class="edge"><title>Node13&#45;&gt;Node14</title>
<path fill="none" stroke="midnightblue" d="M874.661,-10C889.706,-10 904.503,-10 915.494,-10"/>
<polygon fill="midnightblue" stroke="midnightblue" points="874.249,-6.5001 864.249,-10 874.249,-13.5001 874.249,-6.5001"/>
</g>
</g>
</svg>
