<?xml version="1.0" encoding="UTF-8" standalone="no"?>
<!DOCTYPE svg PUBLIC "-//W3C//DTD SVG 1.1//EN"
 "http://www.w3.org/Graphics/SVG/1.1/DTD/svg11.dtd">
<!-- Generated by graphviz version 2.38.0 (20140413.2041)
 -->
<!-- Title: chooser_non_zero Pages: 1 -->
<svg width="1073pt" height="85pt"
 viewBox="0.00 0.00 1073.00 85.00" xmlns="http://www.w3.org/2000/svg" xmlns:xlink="http://www.w3.org/1999/xlink">
<g id="graph0" class="graph" transform="scale(1 1) rotate(0) translate(4 81)">
<title>chooser_non_zero</title>
<!-- Node3 -->
<g id="node1" class="node"><title>Node3</title>
<polygon fill="#bfbfbf" stroke="black" points="0,-19.5 0,-38.5 96,-38.5 96,-19.5 0,-19.5"/>
<text text-anchor="middle" x="48" y="-26.5" font-family="Helvetica,sans-Serif" font-size="10.00">chooser_non_zero</text>
</g>
<!-- Node4 -->
<g id="node2" class="node"><title>Node4</title>
<g id="a_node2"><a xlink:href="precode_8c_adde325d451f8ec9eb7f8f4542d81e884.html#adde325d451f8ec9eb7f8f4542d81e884" target="_top" xlink:title="decode_phase1">
<polygon fill="none" stroke="black" points="132,-19.5 132,-38.5 217,-38.5 217,-19.5 132,-19.5"/>
<text text-anchor="middle" x="174.5" y="-26.5" font-family="Helvetica,sans-Serif" font-size="10.00">decode_phase1</text>
</a>
</g>
</g>
<!-- Node3&#45;&gt;Node4 -->
<g id="edge1" class="edge"><title>Node3&#45;&gt;Node4</title>
<path fill="none" stroke="midnightblue" d="M106.086,-29C114.706,-29 123.459,-29 131.678,-29"/>
<polygon fill="midnightblue" stroke="midnightblue" points="106.068,-25.5001 96.0681,-29 106.068,-32.5001 106.068,-25.5001"/>
</g>
<!-- Node5 -->
<g id="node3" class="node"><title>Node5</title>
<g id="a_node3"><a xlink:href="precode_8c_a262ba8efa6b500c1e7a3cb0451245291.html#a262ba8efa6b500c1e7a3cb0451245291" target="_top" xlink:title="precode_matrix_intermediate1">
<polygon fill="none" stroke="black" points="253,-19.5 253,-38.5 400,-38.5 400,-19.5 253,-19.5"/>
<text text-anchor="middle" x="326.5" y="-26.5" font-family="Helvetica,sans-Serif" font-size="10.00">precode_matrix_intermediate1</text>
</a>
</g>
</g>
<!-- Node4&#45;&gt;Node5 -->
<g id="edge2" class="edge"><title>Node4&#45;&gt;Node5</title>
<path fill="none" stroke="midnightblue" d="M227.453,-29C235.682,-29 244.32,-29 252.917,-29"/>
<polygon fill="midnightblue" stroke="midnightblue" points="227.283,-25.5001 217.283,-29 227.283,-32.5001 227.283,-25.5001"/>
</g>
<!-- Node6 -->
<g id="node4" class="node"><title>Node6</title>
<g id="a_node4"><a xlink:href="nanorq_8c_ad6a9288685637cdfe83303f66b087a29.html#ad6a9288685637cdfe83303f66b087a29" target="_top" xlink:title="nanorq_generate_symbols">
<polygon fill="none" stroke="black" points="444,-38.5 444,-57.5 575,-57.5 575,-38.5 444,-38.5"/>
<text text-anchor="middle" x="509.5" y="-45.5" font-family="Helvetica,sans-Serif" font-size="10.00">nanorq_generate_symbols</text>
</a>
</g>
</g>
<!-- Node5&#45;&gt;Node6 -->
<g id="edge3" class="edge"><title>Node5&#45;&gt;Node6</title>
<path fill="none" stroke="midnightblue" d="M410.327,-37.6945C421.559,-38.8736 432.949,-40.0692 443.8,-41.2083"/>
<polygon fill="midnightblue" stroke="midnightblue" points="410.387,-34.1817 400.077,-36.6185 409.657,-41.1435 410.387,-34.1817"/>
</g>
<!-- Node11 -->
<g id="node9" class="node"><title>Node11</title>
<g id="a_node9"><a xlink:href="precode_8c_a2b6a5db8f90fc98b364cb5ed3b5eca24.html#a2b6a5db8f90fc98b364cb5ed3b5eca24" target="_top" xlink:title="precode_matrix_intermediate2">
<polygon fill="none" stroke="black" points="436,-0.5 436,-19.5 583,-19.5 583,-0.5 436,-0.5"/>
<text text-anchor="middle" x="509.5" y="-7.5" font-family="Helvetica,sans-Serif" font-size="10.00">precode_matrix_intermediate2</text>
</a>
</g>
</g>
<!-- Node5&#45;&gt;Node11 -->
<g id="edge9" class="edge"><title>Node5&#45;&gt;Node11</title>
<path fill="none" stroke="midnightblue" d="M410.116,-20.3276C418.722,-19.4242 427.424,-18.5107 435.907,-17.6203"/>
<polygon fill="midnightblue" stroke="midnightblue" points="409.657,-16.8565 400.077,-21.3815 410.387,-23.8182 409.657,-16.8565"/>
</g>
<!-- Node7 -->
<g id="node5" class="node"><title>Node7</title>
<g id="a_node5"><a xlink:href="encode_8c_a3c04138a5bfe5d72780bb7e82a18e627.html#a3c04138a5bfe5d72780bb7e82a18e627" target="_top" xlink:title="main">
<polygon fill="none" stroke="black" points="1027,-57.5 1027,-76.5 1065,-76.5 1065,-57.5 1027,-57.5"/>
<text text-anchor="middle" x="1046" y="-64.5" font-family="Helvetica,sans-Serif" font-size="10.00">main</text>
</a>
</g>
</g>
<!-- Node6&#45;&gt;Node7 -->
<g id="edge4" class="edge"><title>Node6&#45;&gt;Node7</title>
<path fill="none" stroke="midnightblue" d="M564.55,-59.3642C581.86,-62.4925 601.163,-65.45 619,-67 776.308,-80.6695 967.527,-71.5387 1026.68,-68.1302"/>
<polygon fill="midnightblue" stroke="midnightblue" points="565.087,-55.904 554.615,-57.5119 563.804,-62.7854 565.087,-55.904"/>
</g>
<!-- Node8 -->
<g id="node6" class="node"><title>Node8</title>
<g id="a_node6"><a xlink:href="nanorq_8c_a956615eb4ea3ce34369951295e93f708.html#a956615eb4ea3ce34369951295e93f708" target="_top" xlink:title="nanorq_encode">
<polygon fill="none" stroke="black" points="637.5,-38.5 637.5,-57.5 720.5,-57.5 720.5,-38.5 637.5,-38.5"/>
<text text-anchor="middle" x="679" y="-45.5" font-family="Helvetica,sans-Serif" font-size="10.00">nanorq_encode</text>
</a>
</g>
</g>
<!-- Node6&#45;&gt;Node8 -->
<g id="edge5" class="edge"><title>Node6&#45;&gt;Node8</title>
<path fill="none" stroke="midnightblue" d="M585.609,-48C603.33,-48 621.572,-48 637.117,-48"/>
<polygon fill="midnightblue" stroke="midnightblue" points="585.26,-44.5001 575.26,-48 585.26,-51.5001 585.26,-44.5001"/>
</g>
<!-- Node9 -->
<g id="node7" class="node"><title>Node9</title>
<g id="a_node7"><a xlink:href="encode_8c_a0993cb61d7e4c1b1a1606d159f5b1410.html#a0993cb61d7e4c1b1a1606d159f5b1410" target="_top" xlink:title="dump_esi">
<polygon fill="none" stroke="black" points="801,-38.5 801,-57.5 860,-57.5 860,-38.5 801,-38.5"/>
<text text-anchor="middle" x="830.5" y="-45.5" font-family="Helvetica,sans-Serif" font-size="10.00">dump_esi</text>
</a>
</g>
</g>
<!-- Node8&#45;&gt;Node9 -->
<g id="edge6" class="edge"><title>Node8&#45;&gt;Node9</title>
<path fill="none" stroke="midnightblue" d="M730.907,-48C754.14,-48 780.805,-48 800.542,-48"/>
<polygon fill="midnightblue" stroke="midnightblue" points="730.852,-44.5001 720.852,-48 730.851,-51.5001 730.852,-44.5001"/>
</g>
<!-- Node10 -->
<g id="node8" class="node"><title>Node10</title>
<g id="a_node8"><a xlink:href="encode_8c_ae7f8bbf4dcea92f802d2521fa0264f93.html#ae7f8bbf4dcea92f802d2521fa0264f93" target="_top" xlink:title="dump_block">
<polygon fill="none" stroke="black" points="922,-38.5 922,-57.5 991,-57.5 991,-38.5 922,-38.5"/>
<text text-anchor="middle" x="956.5" y="-45.5" font-family="Helvetica,sans-Serif" font-size="10.00">dump_block</text>
</a>
</g>
</g>
<!-- Node9&#45;&gt;Node10 -->
<g id="edge7" class="edge"><title>Node9&#45;&gt;Node10</title>
<path fill="none" stroke="midnightblue" d="M870.607,-48C886.984,-48 905.841,-48 921.616,-48"/>
<polygon fill="midnightblue" stroke="midnightblue" points="870.26,-44.5001 860.26,-48 870.26,-51.5001 870.26,-44.5001"/>
</g>
<!-- Node10&#45;&gt;Node7 -->
<g id="edge8" class="edge"><title>Node10&#45;&gt;Node7</title>
<path fill="none" stroke="midnightblue" d="M1000.92,-57.4275C1010.06,-59.4126 1019.22,-61.402 1026.8,-63.0488"/>
<polygon fill="midnightblue" stroke="midnightblue" points="1001.59,-53.9933 991.08,-55.2916 1000.11,-60.8339 1001.59,-53.9933"/>
</g>
<!-- Node12 -->
<g id="node10" class="node"><title>Node12</title>
<g id="a_node10"><a xlink:href="precode_8c_aee2113e8f8d7e54052fc8db5dd71fd1f.html#aee2113e8f8d7e54052fc8db5dd71fd1f" target="_top" xlink:title="precode_matrix_decode">
<polygon fill="none" stroke="black" points="619,-0.5 619,-19.5 739,-19.5 739,-0.5 619,-0.5"/>
<text text-anchor="middle" x="679" y="-7.5" font-family="Helvetica,sans-Serif" font-size="10.00">precode_matrix_decode</text>
</a>
</g>
</g>
<!-- Node11&#45;&gt;Node12 -->
<g id="edge10" class="edge"><title>Node11&#45;&gt;Node12</title>
<path fill="none" stroke="midnightblue" d="M593.496,-10C602.05,-10 610.614,-10 618.832,-10"/>
<polygon fill="midnightblue" stroke="midnightblue" points="593.481,-6.5001 583.481,-10 593.481,-13.5001 593.481,-6.5001"/>
</g>
<!-- Node13 -->
<g id="node11" class="node"><title>Node13</title>
<g id="a_node11"><a xlink:href="nanorq_8c_aa1dcf83669e76931be0e6e7a1f02c185.html#aa1dcf83669e76931be0e6e7a1f02c185" target="_top" xlink:title="nanorq_decode_block">
<polygon fill="none" stroke="black" points="775,-0.5 775,-19.5 886,-19.5 886,-0.5 775,-0.5"/>
<text text-anchor="middle" x="830.5" y="-7.5" font-family="Helvetica,sans-Serif" font-size="10.00">nanorq_decode_block</text>
</a>
</g>
</g>
<!-- Node12&#45;&gt;Node13 -->
<g id="edge11" class="edge"><title>Node12&#45;&gt;Node13</title>
<path fill="none" stroke="midnightblue" d="M749.104,-10C757.7,-10 766.396,-10 774.734,-10"/>
<polygon fill="midnightblue" stroke="midnightblue" points="749.086,-6.5001 739.086,-10 749.086,-13.5001 749.086,-6.5001"/>
</g>
<!-- Node14 -->
<g id="node12" class="node"><title>Node14</title>
<g id="a_node12"><a xlink:href="decode_8c_a3c04138a5bfe5d72780bb7e82a18e627.html#a3c04138a5bfe5d72780bb7e82a18e627" target="_top" xlink:title="main">
<polygon fill="none" stroke="black" points="937.5,-0.5 937.5,-19.5 975.5,-19.5 975.5,-0.5 937.5,-0.5"/>
<text text-anchor="middle" x="956.5" y="-7.5" font-family="Helvetica,sans-Serif" font-size="10.00">main</text>
</a>
</g>
</g>
<!-- Node13&#45;&gt;Node14 -->
<g id="edge12" class="edge"><title>Node13&#45;&gt;Node14</title>
<path fill="none" stroke="midnightblue" d="M896.661,-10C911.706,-10 926.503,-10 937.494,-10"/>
<polygon fill="midnightblue" stroke="midnightblue" points="896.249,-6.5001 886.249,-10 896.249,-13.5001 896.249,-6.5001"/>
</g>
</g>
</svg>
