<?xml version="1.0" encoding="UTF-8" standalone="no"?>
<!DOCTYPE svg PUBLIC "-//W3C//DTD SVG 1.1//EN"
 "http://www.w3.org/Graphics/SVG/1.1/DTD/svg11.dtd">
<!-- Generated by graphviz version 2.38.0 (20140413.2041)
 -->
<!-- Title: decode.c Pages: 1 -->
<svg width="456pt" height="84pt"
 viewBox="0.00 0.00 456.00 84.00" xmlns="http://www.w3.org/2000/svg" xmlns:xlink="http://www.w3.org/1999/xlink">
<g id="graph0" class="graph" transform="scale(1 1) rotate(0) translate(4 80)">
<title>decode.c</title>
<!-- Node0 -->
<g id="node1" class="node"><title>Node0</title>
<polygon fill="#bfbfbf" stroke="black" points="206,-56.5 206,-75.5 262,-75.5 262,-56.5 206,-56.5"/>
<text text-anchor="middle" x="234" y="-63.5" font-family="Helvetica,sans-Serif" font-size="10.00">decode.c</text>
</g>
<!-- Node1 -->
<g id="node2" class="node"><title>Node1</title>
<polygon fill="none" stroke="#bfbfbf" points="0,-0.5 0,-19.5 56,-19.5 56,-0.5 0,-0.5"/>
<text text-anchor="middle" x="28" y="-7.5" font-family="Helvetica,sans-Serif" font-size="10.00">stdbool.h</text>
</g>
<!-- Node0&#45;&gt;Node1 -->
<g id="edge1" class="edge"><title>Node0&#45;&gt;Node1</title>
<path fill="none" stroke="midnightblue" d="M205.789,-57.6048C169.523,-48.0984 106.421,-31.557 65.9673,-20.9526"/>
<polygon fill="midnightblue" stroke="midnightblue" points="66.7612,-17.5425 56.2006,-18.3924 64.9862,-24.3137 66.7612,-17.5425"/>
</g>
<!-- Node2 -->
<g id="node3" class="node"><title>Node2</title>
<polygon fill="none" stroke="#bfbfbf" points="74.5,-0.5 74.5,-19.5 127.5,-19.5 127.5,-0.5 74.5,-0.5"/>
<text text-anchor="middle" x="101" y="-7.5" font-family="Helvetica,sans-Serif" font-size="10.00">endian.h</text>
</g>
<!-- Node0&#45;&gt;Node2 -->
<g id="edge2" class="edge"><title>Node0&#45;&gt;Node2</title>
<path fill="none" stroke="midnightblue" d="M212.926,-56.4435C190.94,-47.5171 156.266,-33.4387 131.336,-23.3168"/>
<polygon fill="midnightblue" stroke="midnightblue" points="132.558,-20.0355 121.976,-19.5164 129.924,-26.5213 132.558,-20.0355"/>
</g>
<!-- Node3 -->
<g id="node4" class="node"><title>Node3</title>
<polygon fill="none" stroke="#bfbfbf" points="146,-0.5 146,-19.5 192,-19.5 192,-0.5 146,-0.5"/>
<text text-anchor="middle" x="169" y="-7.5" font-family="Helvetica,sans-Serif" font-size="10.00">stdio.h</text>
</g>
<!-- Node0&#45;&gt;Node3 -->
<g id="edge3" class="edge"><title>Node0&#45;&gt;Node3</title>
<path fill="none" stroke="midnightblue" d="M223.557,-56.324C213.854,-48.2631 199.185,-36.0765 187.5,-26.3695"/>
<polygon fill="midnightblue" stroke="midnightblue" points="189.562,-23.532 179.633,-19.8339 185.089,-28.9163 189.562,-23.532"/>
</g>
<!-- Node4 -->
<g id="node5" class="node"><title>Node4</title>
<polygon fill="none" stroke="#bfbfbf" points="210,-0.5 210,-19.5 258,-19.5 258,-0.5 210,-0.5"/>
<text text-anchor="middle" x="234" y="-7.5" font-family="Helvetica,sans-Serif" font-size="10.00">stdlib.h</text>
</g>
<!-- Node0&#45;&gt;Node4 -->
<g id="edge4" class="edge"><title>Node0&#45;&gt;Node4</title>
<path fill="none" stroke="midnightblue" d="M234,-56.083C234,-49.0059 234,-38.8611 234,-29.9865"/>
<polygon fill="midnightblue" stroke="midnightblue" points="237.5,-29.751 234,-19.7511 230.5,-29.7511 237.5,-29.751"/>
</g>
<!-- Node5 -->
<g id="node6" class="node"><title>Node5</title>
<polygon fill="none" stroke="#bfbfbf" points="276.5,-0.5 276.5,-19.5 325.5,-19.5 325.5,-0.5 276.5,-0.5"/>
<text text-anchor="middle" x="301" y="-7.5" font-family="Helvetica,sans-Serif" font-size="10.00">stdint.h</text>
</g>
<!-- Node0&#45;&gt;Node5 -->
<g id="edge5" class="edge"><title>Node0&#45;&gt;Node5</title>
<path fill="none" stroke="midnightblue" d="M244.765,-56.324C254.766,-48.2631 269.887,-36.0765 281.93,-26.3695"/>
<polygon fill="midnightblue" stroke="midnightblue" points="284.45,-28.8343 290.039,-19.8339 280.057,-23.3841 284.45,-28.8343"/>
</g>
<!-- Node6 -->
<g id="node7" class="node"><title>Node6</title>
<g id="a_node7"><a xlink:href="nanorq_8h.html" target="_top" xlink:title="nanorq.h">
<polygon fill="none" stroke="black" points="344,-0.5 344,-19.5 398,-19.5 398,-0.5 344,-0.5"/>
<text text-anchor="middle" x="371" y="-7.5" font-family="Helvetica,sans-Serif" font-size="10.00">nanorq.h</text>
</a>
</g>
</g>
<!-- Node0&#45;&gt;Node6 -->
<g id="edge6" class="edge"><title>Node0&#45;&gt;Node6</title>
<path fill="none" stroke="midnightblue" d="M255.708,-56.4435C278.355,-47.5171 314.072,-33.4387 339.752,-23.3168"/>
<polygon fill="midnightblue" stroke="midnightblue" points="341.374,-26.4397 349.394,-19.5164 338.807,-19.9273 341.374,-26.4397"/>
</g>
<!-- Node7 -->
<g id="node8" class="node"><title>Node7</title>
<g id="a_node8"><a xlink:href="io_8h.html" target="_top" xlink:title="io.h">
<polygon fill="none" stroke="black" points="416,-0.5 416,-19.5 448,-19.5 448,-0.5 416,-0.5"/>
<text text-anchor="middle" x="432" y="-7.5" font-family="Helvetica,sans-Serif" font-size="10.00">io.h</text>
</a>
</g>
</g>
<!-- Node0&#45;&gt;Node7 -->
<g id="edge7" class="edge"><title>Node0&#45;&gt;Node7</title>
<path fill="none" stroke="midnightblue" d="M262.086,-58.5272C294.614,-50.8506 349.969,-37.2332 406.176,-20.0453"/>
<polygon fill="midnightblue" stroke="midnightblue" points="407.415,-23.3255 415.935,-17.0269 405.347,-16.6381 407.415,-23.3255"/>
</g>
</g>
</svg>
