<?xml version="1.0" encoding="UTF-8" standalone="no"?>
<!DOCTYPE svg PUBLIC "-//W3C//DTD SVG 1.1//EN"
 "http://www.w3.org/Graphics/SVG/1.1/DTD/svg11.dtd">
<!-- Generated by graphviz version 2.38.0 (20140413.2041)
 -->
<!-- Title: encode.c Pages: 1 -->
<svg width="524pt" height="84pt"
 viewBox="0.00 0.00 524.00 84.00" xmlns="http://www.w3.org/2000/svg" xmlns:xlink="http://www.w3.org/1999/xlink">
<g id="graph0" class="graph" transform="scale(1 1) rotate(0) translate(4 80)">
<title>encode.c</title>
<!-- Node0 -->
<g id="node1" class="node"><title>Node0</title>
<polygon fill="#bfbfbf" stroke="black" points="233,-56.5 233,-75.5 289,-75.5 289,-56.5 233,-56.5"/>
<text text-anchor="middle" x="261" y="-63.5" font-family="Helvetica,sans-Serif" font-size="10.00">encode.c</text>
</g>
<!-- Node1 -->
<g id="node2" class="node"><title>Node1</title>
<polygon fill="none" stroke="#bfbfbf" points="0,-0.5 0,-19.5 56,-19.5 56,-0.5 0,-0.5"/>
<text text-anchor="middle" x="28" y="-7.5" font-family="Helvetica,sans-Serif" font-size="10.00">stdbool.h</text>
</g>
<!-- Node0&#45;&gt;Node1 -->
<g id="edge1" class="edge"><title>Node0&#45;&gt;Node1</title>
<path fill="none" stroke="midnightblue" d="M232.735,-58.6312C196.477,-50.4351 131.388,-35.6337 66.2936,-20.2843"/>
<polygon fill="midnightblue" stroke="midnightblue" points="66.8096,-16.81 56.2727,-17.917 65.2001,-23.6224 66.8096,-16.81"/>
</g>
<!-- Node2 -->
<g id="node3" class="node"><title>Node2</title>
<polygon fill="none" stroke="#bfbfbf" points="74,-0.5 74,-19.5 122,-19.5 122,-0.5 74,-0.5"/>
<text text-anchor="middle" x="98" y="-7.5" font-family="Helvetica,sans-Serif" font-size="10.00">stdlib.h</text>
</g>
<!-- Node0&#45;&gt;Node2 -->
<g id="edge2" class="edge"><title>Node0&#45;&gt;Node2</title>
<path fill="none" stroke="midnightblue" d="M235.172,-56.4435C207.267,-47.1988 162.681,-32.4281 131.957,-22.2495"/>
<polygon fill="midnightblue" stroke="midnightblue" points="132.706,-18.8108 122.113,-18.9883 130.505,-25.4556 132.706,-18.8108"/>
</g>
<!-- Node3 -->
<g id="node4" class="node"><title>Node3</title>
<polygon fill="none" stroke="#bfbfbf" points="140,-0.5 140,-19.5 186,-19.5 186,-0.5 140,-0.5"/>
<text text-anchor="middle" x="163" y="-7.5" font-family="Helvetica,sans-Serif" font-size="10.00">stdio.h</text>
</g>
<!-- Node0&#45;&gt;Node3 -->
<g id="edge3" class="edge"><title>Node0&#45;&gt;Node3</title>
<path fill="none" stroke="midnightblue" d="M245.255,-56.324C229.681,-47.7428 205.623,-34.486 187.541,-24.5224"/>
<polygon fill="midnightblue" stroke="midnightblue" points="189.154,-21.4152 178.706,-19.6545 185.776,-27.546 189.154,-21.4152"/>
</g>
<!-- Node4 -->
<g id="node5" class="node"><title>Node4</title>
<polygon fill="none" stroke="#bfbfbf" points="204.5,-0.5 204.5,-19.5 253.5,-19.5 253.5,-0.5 204.5,-0.5"/>
<text text-anchor="middle" x="229" y="-7.5" font-family="Helvetica,sans-Serif" font-size="10.00">stdint.h</text>
</g>
<!-- Node0&#45;&gt;Node4 -->
<g id="edge4" class="edge"><title>Node0&#45;&gt;Node4</title>
<path fill="none" stroke="midnightblue" d="M255.716,-56.083C251.289,-48.6127 244.837,-37.7244 239.382,-28.5199"/>
<polygon fill="midnightblue" stroke="midnightblue" points="242.295,-26.5697 234.186,-19.7511 236.273,-30.1383 242.295,-26.5697"/>
</g>
<!-- Node5 -->
<g id="node6" class="node"><title>Node5</title>
<polygon fill="none" stroke="#bfbfbf" points="272,-0.5 272,-19.5 316,-19.5 316,-0.5 272,-0.5"/>
<text text-anchor="middle" x="294" y="-7.5" font-family="Helvetica,sans-Serif" font-size="10.00">time.h</text>
</g>
<!-- Node0&#45;&gt;Node5 -->
<g id="edge5" class="edge"><title>Node0&#45;&gt;Node5</title>
<path fill="none" stroke="midnightblue" d="M266.449,-56.083C271.014,-48.6127 277.668,-37.7244 283.293,-28.5199"/>
<polygon fill="midnightblue" stroke="midnightblue" points="286.424,-30.109 288.652,-19.7511 280.451,-26.4588 286.424,-30.109"/>
</g>
<!-- Node6 -->
<g id="node7" class="node"><title>Node6</title>
<polygon fill="none" stroke="#bfbfbf" points="334,-0.5 334,-19.5 394,-19.5 394,-0.5 334,-0.5"/>
<text text-anchor="middle" x="364" y="-7.5" font-family="Helvetica,sans-Serif" font-size="10.00">memory.h</text>
</g>
<!-- Node0&#45;&gt;Node6 -->
<g id="edge6" class="edge"><title>Node0&#45;&gt;Node6</title>
<path fill="none" stroke="midnightblue" d="M277.549,-56.324C293.992,-47.7034 319.435,-34.3643 338.468,-24.3855"/>
<polygon fill="midnightblue" stroke="midnightblue" points="340.261,-27.3977 347.492,-19.6545 337.011,-21.198 340.261,-27.3977"/>
</g>
<!-- Node7 -->
<g id="node8" class="node"><title>Node7</title>
<g id="a_node8"><a xlink:href="nanorq_8h.html" target="_top" xlink:title="nanorq.h">
<polygon fill="none" stroke="black" points="412,-0.5 412,-19.5 466,-19.5 466,-0.5 412,-0.5"/>
<text text-anchor="middle" x="439" y="-7.5" font-family="Helvetica,sans-Serif" font-size="10.00">nanorq.h</text>
</a>
</g>
</g>
<!-- Node0&#45;&gt;Node7 -->
<g id="edge7" class="edge"><title>Node0&#45;&gt;Node7</title>
<path fill="none" stroke="midnightblue" d="M289.205,-56.4435C319.677,-47.1993 368.362,-32.4296 401.913,-22.2511"/>
<polygon fill="midnightblue" stroke="midnightblue" points="403.25,-25.5032 411.803,-19.2508 401.217,-18.8047 403.25,-25.5032"/>
</g>
<!-- Node8 -->
<g id="node9" class="node"><title>Node8</title>
<g id="a_node9"><a xlink:href="io_8h.html" target="_top" xlink:title="io.h">
<polygon fill="none" stroke="black" points="484,-0.5 484,-19.5 516,-19.5 516,-0.5 484,-0.5"/>
<text text-anchor="middle" x="500" y="-7.5" font-family="Helvetica,sans-Serif" font-size="10.00">io.h</text>
</a>
</g>
</g>
<!-- Node0&#45;&gt;Node8 -->
<g id="edge8" class="edge"><title>Node0&#45;&gt;Node8</title>
<path fill="none" stroke="midnightblue" d="M289.001,-60.3877C328.398,-53.6241 402.53,-39.8962 474.317,-19.8755"/>
<polygon fill="midnightblue" stroke="midnightblue" points="475.301,-23.2344 483.968,-17.1408 473.393,-16.4995 475.301,-23.2344"/>
</g>
</g>
</svg>
