<?xml version="1.0" encoding="UTF-8" standalone="no"?>
<!DOCTYPE svg PUBLIC "-//W3C//DTD SVG 1.1//EN"
 "http://www.w3.org/Graphics/SVG/1.1/DTD/svg11.dtd">
<!-- Generated by graphviz version 2.38.0 (20140413.2041)
 -->
<!-- Title: dump_block Pages: 1 -->
<svg width="1216pt" height="1024pt"
 viewBox="0.00 0.00 1216.00 1024.00" xmlns="http://www.w3.org/2000/svg" xmlns:xlink="http://www.w3.org/1999/xlink">
<g id="graph0" class="graph" transform="scale(1 1) rotate(0) translate(4 1020)">
<title>dump_block</title>
<!-- Node0 -->
<g id="node1" class="node"><title>Node0</title>
<polygon fill="#bfbfbf" stroke="black" points="0,-576.5 0,-595.5 69,-595.5 69,-576.5 0,-576.5"/>
<text text-anchor="middle" x="34.5" y="-583.5" font-family="Helvetica,sans-Serif" font-size="10.00">dump_block</text>
</g>
<!-- Node1 -->
<g id="node2" class="node"><title>Node1</title>
<g id="a_node2"><a xlink:href="encode_8c_a0993cb61d7e4c1b1a1606d159f5b1410.html#a0993cb61d7e4c1b1a1606d159f5b1410" target="_top" xlink:title="dump_esi">
<polygon fill="none" stroke="black" points="105,-633.5 105,-652.5 164,-652.5 164,-633.5 105,-633.5"/>
<text text-anchor="middle" x="134.5" y="-640.5" font-family="Helvetica,sans-Serif" font-size="10.00">dump_esi</text>
</a>
</g>
</g>
<!-- Node0&#45;&gt;Node1 -->
<g id="edge1" class="edge"><title>Node0&#45;&gt;Node1</title>
<path fill="none" stroke="midnightblue" d="M52.1244,-595.669C67.5634,-604.649 90.7641,-618.143 108.447,-628.429"/>
<polygon fill="midnightblue" stroke="midnightblue" points="106.717,-631.471 117.121,-633.474 110.237,-625.42 106.717,-631.471"/>
</g>
<!-- Node4 -->
<g id="node5" class="node"><title>Node4</title>
<g id="a_node5"><a xlink:href="nanorq_8c_a4c02c9d148e282c464ab013a678387d0.html#a4c02c9d148e282c464ab013a678387d0" target="_top" xlink:title="nanorq_block_symbols">
<polygon fill="none" stroke="black" points="702,-576.5 702,-595.5 818,-595.5 818,-576.5 702,-576.5"/>
<text text-anchor="middle" x="760" y="-583.5" font-family="Helvetica,sans-Serif" font-size="10.00">nanorq_block_symbols</text>
</a>
</g>
</g>
<!-- Node0&#45;&gt;Node4 -->
<g id="edge67" class="edge"><title>Node0&#45;&gt;Node4</title>
<path fill="none" stroke="midnightblue" d="M69.2505,-586C111.842,-586 187.351,-586 252,-586 252,-586 252,-586 408.5,-586 507.097,-586 621.296,-586 691.848,-586"/>
<polygon fill="midnightblue" stroke="midnightblue" points="691.933,-589.5 701.933,-586 691.933,-582.5 691.933,-589.5"/>
</g>
<!-- Node45 -->
<g id="node46" class="node"><title>Node45</title>
<g id="a_node46"><a xlink:href="nanorq_8c_abe7c4610af63c2f3a3eb0f2b991d4ca8.html#abe7c4610af63c2f3a3eb0f2b991d4ca8" target="_top" xlink:title="nanorq_encode_cleanup">
<polygon fill="none" stroke="black" points="346.5,-500.5 346.5,-519.5 468.5,-519.5 468.5,-500.5 346.5,-500.5"/>
<text text-anchor="middle" x="407.5" y="-507.5" font-family="Helvetica,sans-Serif" font-size="10.00">nanorq_encode_cleanup</text>
</a>
</g>
</g>
<!-- Node0&#45;&gt;Node45 -->
<g id="edge68" class="edge"><title>Node0&#45;&gt;Node45</title>
<path fill="none" stroke="midnightblue" d="M69.0781,-579.121C132.751,-566.078 271.659,-537.622 349.941,-521.586"/>
<polygon fill="midnightblue" stroke="midnightblue" points="351.012,-524.94 360.106,-519.504 349.607,-518.082 351.012,-524.94"/>
</g>
<!-- Node2 -->
<g id="node3" class="node"><title>Node2</title>
<g id="a_node3"><a xlink:href="nanorq_8c_a956615eb4ea3ce34369951295e93f708.html#a956615eb4ea3ce34369951295e93f708" target="_top" xlink:title="nanorq_encode">
<polygon fill="none" stroke="black" points="211.5,-623.5 211.5,-642.5 294.5,-642.5 294.5,-623.5 211.5,-623.5"/>
<text text-anchor="middle" x="253" y="-630.5" font-family="Helvetica,sans-Serif" font-size="10.00">nanorq_encode</text>
</a>
</g>
</g>
<!-- Node1&#45;&gt;Node2 -->
<g id="edge2" class="edge"><title>Node1&#45;&gt;Node2</title>
<path fill="none" stroke="midnightblue" d="M164.298,-640.528C175.463,-639.57 188.587,-638.443 201.233,-637.358"/>
<polygon fill="midnightblue" stroke="midnightblue" points="201.562,-640.842 211.226,-636.5 200.963,-633.868 201.562,-640.842"/>
</g>
<!-- Node43 -->
<g id="node44" class="node"><title>Node43</title>
<g id="a_node44"><a xlink:href="nanorq_8c_a4b11c92fd1701c9cf56c6f8126ba85bb.html#a4b11c92fd1701c9cf56c6f8126ba85bb" target="_top" xlink:title="nanorq_fid">
<polygon fill="none" stroke="black" points="222,-699.5 222,-718.5 284,-718.5 284,-699.5 222,-699.5"/>
<text text-anchor="middle" x="253" y="-706.5" font-family="Helvetica,sans-Serif" font-size="10.00">nanorq_fid</text>
</a>
</g>
</g>
<!-- Node1&#45;&gt;Node43 -->
<g id="edge65" class="edge"><title>Node1&#45;&gt;Node43</title>
<path fill="none" stroke="midnightblue" d="M146.735,-652.704C159.119,-663.025 179.951,-679.306 200,-690 203.971,-692.118 208.23,-694.097 212.537,-695.917"/>
<polygon fill="midnightblue" stroke="midnightblue" points="211.367,-699.218 221.953,-699.639 213.94,-692.708 211.367,-699.218"/>
</g>
<!-- Node44 -->
<g id="node45" class="node"><title>Node44</title>
<g id="a_node45"><a xlink:href="nanorq_8c_aa0e61c2d7ec67eaeaa71b7566b3542d4.html#aa0e61c2d7ec67eaeaa71b7566b3542d4" target="_top" xlink:title="nanorq_symbol_size">
<polygon fill="none" stroke="black" points="200,-661.5 200,-680.5 306,-680.5 306,-661.5 200,-661.5"/>
<text text-anchor="middle" x="253" y="-668.5" font-family="Helvetica,sans-Serif" font-size="10.00">nanorq_symbol_size</text>
</a>
</g>
</g>
<!-- Node1&#45;&gt;Node44 -->
<g id="edge66" class="edge"><title>Node1&#45;&gt;Node44</title>
<path fill="none" stroke="midnightblue" d="M164.298,-649.921C175.788,-652.683 189.354,-655.943 202.337,-659.064"/>
<polygon fill="midnightblue" stroke="midnightblue" points="201.567,-662.478 212.108,-661.412 203.203,-655.672 201.567,-662.478"/>
</g>
<!-- Node3 -->
<g id="node4" class="node"><title>Node3</title>
<g id="a_node4"><a xlink:href="nanorq_8c_ae51b5ce95f964fb7c4141edd8128dc0e.html#ae51b5ce95f964fb7c4141edd8128dc0e" target="_top" xlink:title="nanorq_block_encoder">
<polygon fill="none" stroke="black" points="525.5,-614.5 525.5,-633.5 639.5,-633.5 639.5,-614.5 525.5,-614.5"/>
<text text-anchor="middle" x="582.5" y="-621.5" font-family="Helvetica,sans-Serif" font-size="10.00">nanorq_block_encoder</text>
</a>
</g>
</g>
<!-- Node2&#45;&gt;Node3 -->
<g id="edge3" class="edge"><title>Node2&#45;&gt;Node3</title>
<path fill="none" stroke="midnightblue" d="M294.816,-631.878C349.992,-630.362 449.052,-627.64 515.041,-625.826"/>
<polygon fill="midnightblue" stroke="midnightblue" points="515.436,-629.317 525.336,-625.543 515.244,-622.32 515.436,-629.317"/>
</g>
<!-- Node5 -->
<g id="node6" class="node"><title>Node5</title>
<g id="a_node6"><a xlink:href="nanorq_8c_ac5177dacb887e2fa089abdb0de703b4d.html#ac5177dacb887e2fa089abdb0de703b4d" target="_top" xlink:title="get_symbol_offset">
<polygon fill="none" stroke="black" points="534,-772.5 534,-791.5 631,-791.5 631,-772.5 534,-772.5"/>
<text text-anchor="middle" x="582.5" y="-779.5" font-family="Helvetica,sans-Serif" font-size="10.00">get_symbol_offset</text>
</a>
</g>
</g>
<!-- Node2&#45;&gt;Node5 -->
<g id="edge5" class="edge"><title>Node2&#45;&gt;Node5</title>
<path fill="none" stroke="midnightblue" d="M285.266,-642.538C292.284,-645.191 299.556,-648.36 306,-652 323.889,-662.105 324.672,-669.96 342,-681 411.735,-725.431 431.508,-734.153 509,-763 515.473,-765.409 522.378,-767.637 529.258,-769.653"/>
<polygon fill="midnightblue" stroke="midnightblue" points="528.694,-773.13 539.267,-772.454 530.58,-766.389 528.694,-773.13"/>
</g>
<!-- Node6 -->
<g id="node7" class="node"><title>Node6</title>
<g id="a_node7"><a xlink:href="nanorq_8c_ad6a9288685637cdfe83303f66b087a29.html#ad6a9288685637cdfe83303f66b087a29" target="_top" xlink:title="nanorq_generate_symbols">
<polygon fill="none" stroke="black" points="342,-652.5 342,-671.5 473,-671.5 473,-652.5 342,-652.5"/>
<text text-anchor="middle" x="407.5" y="-659.5" font-family="Helvetica,sans-Serif" font-size="10.00">nanorq_generate_symbols</text>
</a>
</g>
</g>
<!-- Node2&#45;&gt;Node6 -->
<g id="edge6" class="edge"><title>Node2&#45;&gt;Node6</title>
<path fill="none" stroke="midnightblue" d="M294.867,-640.771C310.724,-643.787 329.204,-647.301 346.511,-650.592"/>
<polygon fill="midnightblue" stroke="midnightblue" points="346.06,-654.069 356.538,-652.499 347.368,-647.192 346.06,-654.069"/>
</g>
<!-- Node17 -->
<g id="node18" class="node"><title>Node17</title>
<g id="a_node18"><a xlink:href="octmat_8c_ac7854c0635a9441a5a352f95dbbd7bbd.html#ac7854c0635a9441a5a352f95dbbd7bbd" target="_top" xlink:title="om_destroy">
<polygon fill="none" stroke="black" points="896.5,-494.5 896.5,-513.5 964.5,-513.5 964.5,-494.5 896.5,-494.5"/>
<text text-anchor="middle" x="930.5" y="-501.5" font-family="Helvetica,sans-Serif" font-size="10.00">om_destroy</text>
</a>
</g>
</g>
<!-- Node2&#45;&gt;Node17 -->
<g id="edge64" class="edge"><title>Node2&#45;&gt;Node17</title>
<path fill="none" stroke="midnightblue" d="M294.734,-625.221C414.33,-602.382 763.729,-535.657 886.355,-512.239"/>
<polygon fill="midnightblue" stroke="midnightblue" points="887.322,-515.618 896.487,-510.304 886.008,-508.742 887.322,-515.618"/>
</g>
<!-- Node41 -->
<g id="node42" class="node"><title>Node41</title>
<g id="a_node42"><a xlink:href="precode_8c_ac563a7861b8d34580909af77f063ea66.html#ac563a7861b8d34580909af77f063ea66" target="_top" xlink:title="precode_matrix_encode">
<polygon fill="none" stroke="black" points="700,-964.5 700,-983.5 820,-983.5 820,-964.5 700,-964.5"/>
<text text-anchor="middle" x="760" y="-971.5" font-family="Helvetica,sans-Serif" font-size="10.00">precode_matrix_encode</text>
</a>
</g>
</g>
<!-- Node2&#45;&gt;Node41 -->
<g id="edge60" class="edge"><title>Node2&#45;&gt;Node41</title>
<path fill="none" stroke="midnightblue" d="M291.577,-642.612C296.818,-645.078 301.829,-648.158 306,-652 334.083,-677.867 316.912,-701.219 342,-730 463.354,-869.219 524.104,-877.06 692,-954 697.866,-956.688 704.185,-959.122 710.515,-961.292"/>
<polygon fill="midnightblue" stroke="midnightblue" points="709.818,-964.744 720.409,-964.482 711.966,-958.082 709.818,-964.744"/>
</g>
<!-- Node3&#45;&gt;Node4 -->
<g id="edge4" class="edge"><title>Node3&#45;&gt;Node4</title>
<path fill="none" stroke="midnightblue" d="M627.786,-614.411C651.258,-609.329 680.281,-603.045 705.058,-597.68"/>
<polygon fill="midnightblue" stroke="midnightblue" points="706,-601.057 715.032,-595.52 704.518,-594.216 706,-601.057"/>
</g>
<!-- Node6&#45;&gt;Node3 -->
<g id="edge7" class="edge"><title>Node6&#45;&gt;Node3</title>
<path fill="none" stroke="midnightblue" d="M452.155,-652.411C475.293,-647.329 503.902,-641.045 528.327,-635.68"/>
<polygon fill="midnightblue" stroke="midnightblue" points="529.142,-639.084 538.159,-633.52 527.641,-632.247 529.142,-639.084"/>
</g>
<!-- Node6&#45;&gt;Node5 -->
<g id="edge25" class="edge"><title>Node6&#45;&gt;Node5</title>
<path fill="none" stroke="midnightblue" d="M418.06,-671.64C443.025,-696.811 508.307,-762.601 509,-763 513.723,-765.717 518.84,-768.054 524.097,-770.062"/>
<polygon fill="midnightblue" stroke="midnightblue" points="523.06,-773.406 533.655,-773.332 525.327,-766.783 523.06,-773.406"/>
</g>
<!-- Node7 -->
<g id="node8" class="node"><title>Node7</title>
<g id="a_node8"><a xlink:href="precode_8c_a85c0aa4f7900eccf336228d43b7c133c.html#a85c0aa4f7900eccf336228d43b7c133c" target="_top" xlink:title="precode_matrix_gen">
<polygon fill="none" stroke="black" points="530.5,-734.5 530.5,-753.5 634.5,-753.5 634.5,-734.5 530.5,-734.5"/>
<text text-anchor="middle" x="582.5" y="-741.5" font-family="Helvetica,sans-Serif" font-size="10.00">precode_matrix_gen</text>
</a>
</g>
</g>
<!-- Node6&#45;&gt;Node7 -->
<g id="edge8" class="edge"><title>Node6&#45;&gt;Node7</title>
<path fill="none" stroke="midnightblue" d="M426.064,-671.667C445.948,-682.475 479.425,-700.26 509,-714 521.38,-719.751 535.177,-725.597 547.385,-730.582"/>
<polygon fill="midnightblue" stroke="midnightblue" points="546.194,-733.875 556.777,-734.377 548.816,-727.385 546.194,-733.875"/>
</g>
<!-- Node8 -->
<g id="node9" class="node"><title>Node8</title>
<g id="a_node9"><a xlink:href="octmat_8c_a0db07e8a815b999f9837c74c31213cdb.html#a0db07e8a815b999f9837c74c31213cdb" target="_top" xlink:title="om_resize">
<polygon fill="none" stroke="black" points="1040.5,-636.5 1040.5,-655.5 1102.5,-655.5 1102.5,-636.5 1040.5,-636.5"/>
<text text-anchor="middle" x="1071.5" y="-643.5" font-family="Helvetica,sans-Serif" font-size="10.00">om_resize</text>
</a>
</g>
</g>
<!-- Node6&#45;&gt;Node8 -->
<g id="edge24" class="edge"><title>Node6&#45;&gt;Node8</title>
<path fill="none" stroke="midnightblue" d="M473.209,-670.735C582.331,-683.675 809.401,-702.875 997,-668 1009.15,-665.741 1022.16,-662.228 1033.79,-658.667"/>
<polygon fill="midnightblue" stroke="midnightblue" points="1035.14,-661.913 1043.61,-655.556 1033.02,-655.24 1035.14,-661.913"/>
</g>
<!-- Node6&#45;&gt;Node17 -->
<g id="edge59" class="edge"><title>Node6&#45;&gt;Node17</title>
<path fill="none" stroke="midnightblue" d="M473.137,-659.532C523.239,-657.017 594.293,-652.139 656,-643 733.443,-631.531 767.485,-654.668 828,-605 858.766,-579.748 834.069,-549.236 864,-523 870.464,-517.334 878.528,-513.354 886.767,-510.559"/>
<polygon fill="midnightblue" stroke="midnightblue" points="887.781,-513.909 896.432,-507.792 885.854,-507.179 887.781,-513.909"/>
</g>
<!-- Node20 -->
<g id="node21" class="node"><title>Node20</title>
<g id="a_node21"><a xlink:href="precode_8c_a262ba8efa6b500c1e7a3cb0451245291.html#a262ba8efa6b500c1e7a3cb0451245291" target="_top" xlink:title="precode_matrix_intermediate1">
<polygon fill="none" stroke="black" points="509,-329.5 509,-348.5 656,-348.5 656,-329.5 509,-329.5"/>
<text text-anchor="middle" x="582.5" y="-336.5" font-family="Helvetica,sans-Serif" font-size="10.00">precode_matrix_intermediate1</text>
</a>
</g>
</g>
<!-- Node6&#45;&gt;Node20 -->
<g id="edge26" class="edge"><title>Node6&#45;&gt;Node20</title>
<path fill="none" stroke="midnightblue" d="M413.678,-652.333C437.753,-607.383 538.953,-418.437 571.425,-357.81"/>
<polygon fill="midnightblue" stroke="midnightblue" points="574.706,-359.097 576.343,-348.629 568.536,-355.792 574.706,-359.097"/>
</g>
<!-- Node7&#45;&gt;Node8 -->
<g id="edge9" class="edge"><title>Node7&#45;&gt;Node8</title>
<path fill="none" stroke="midnightblue" d="M634.718,-750.633C642.527,-753.466 649.977,-757.44 656,-763 691.633,-795.892 652.456,-837.931 692,-866 741.29,-900.986 771.351,-887.081 828,-866 936.925,-825.465 1026.54,-709.349 1058.21,-664.234"/>
<polygon fill="midnightblue" stroke="midnightblue" points="1061.28,-665.956 1064.08,-655.738 1055.52,-661.979 1061.28,-665.956"/>
</g>
<!-- Node9 -->
<g id="node10" class="node"><title>Node9</title>
<g id="a_node10"><a xlink:href="precode_8c_a39d289c7bff03b667e282e44b3decb5f.html#a39d289c7bff03b667e282e44b3decb5f" target="_top" xlink:title="precode_matrix_init\l_LDPC1">
<polygon fill="none" stroke="black" points="709.5,-827 709.5,-857 810.5,-857 810.5,-827 709.5,-827"/>
<text text-anchor="start" x="717.5" y="-845" font-family="Helvetica,sans-Serif" font-size="10.00">precode_matrix_init</text>
<text text-anchor="middle" x="760" y="-834" font-family="Helvetica,sans-Serif" font-size="10.00">_LDPC1</text>
</a>
</g>
</g>
<!-- Node7&#45;&gt;Node9 -->
<g id="edge10" class="edge"><title>Node7&#45;&gt;Node9</title>
<path fill="none" stroke="midnightblue" d="M634.742,-752.386C642.285,-755.015 649.644,-758.467 656,-763 679.483,-779.749 669.39,-799.089 692,-817 694.579,-819.043 697.342,-820.931 700.223,-822.674"/>
<polygon fill="midnightblue" stroke="midnightblue" points="698.691,-825.824 709.156,-827.479 702.007,-819.659 698.691,-825.824"/>
</g>
<!-- Node10 -->
<g id="node11" class="node"><title>Node10</title>
<g id="a_node11"><a xlink:href="precode_8c_af2734c7ddac33888abcc52e10df15665.html#af2734c7ddac33888abcc52e10df15665" target="_top" xlink:title="precode_matrix_add\l_identity">
<polygon fill="none" stroke="black" points="708,-778 708,-808 812,-808 812,-778 708,-778"/>
<text text-anchor="start" x="716" y="-796" font-family="Helvetica,sans-Serif" font-size="10.00">precode_matrix_add</text>
<text text-anchor="middle" x="760" y="-785" font-family="Helvetica,sans-Serif" font-size="10.00">_identity</text>
</a>
</g>
</g>
<!-- Node7&#45;&gt;Node10 -->
<g id="edge11" class="edge"><title>Node7&#45;&gt;Node10</title>
<path fill="none" stroke="midnightblue" d="M620.807,-753.57C632.128,-756.53 644.588,-759.843 656,-763 669.723,-766.796 684.434,-771 698.321,-775.03"/>
<polygon fill="midnightblue" stroke="midnightblue" points="697.68,-778.489 708.26,-777.925 699.638,-771.768 697.68,-778.489"/>
</g>
<!-- Node11 -->
<g id="node12" class="node"><title>Node11</title>
<g id="a_node12"><a xlink:href="precode_8c_a992134f8be1689ebd0d9aea6fafe217a.html#a992134f8be1689ebd0d9aea6fafe217a" target="_top" xlink:title="precode_matrix_init\l_LDPC2">
<polygon fill="none" stroke="black" points="709.5,-729 709.5,-759 810.5,-759 810.5,-729 709.5,-729"/>
<text text-anchor="start" x="717.5" y="-747" font-family="Helvetica,sans-Serif" font-size="10.00">precode_matrix_init</text>
<text text-anchor="middle" x="760" y="-736" font-family="Helvetica,sans-Serif" font-size="10.00">_LDPC2</text>
</a>
</g>
</g>
<!-- Node7&#45;&gt;Node11 -->
<g id="edge12" class="edge"><title>Node7&#45;&gt;Node11</title>
<path fill="none" stroke="midnightblue" d="M634.734,-744C654.905,-744 678.21,-744 699.15,-744"/>
<polygon fill="midnightblue" stroke="midnightblue" points="699.215,-747.5 709.215,-744 699.215,-740.5 699.215,-747.5"/>
</g>
<!-- Node12 -->
<g id="node13" class="node"><title>Node12</title>
<g id="a_node13"><a xlink:href="precode_8c_a64e2c5739177d2991dea9ab54f2469b6.html#a64e2c5739177d2991dea9ab54f2469b6" target="_top" xlink:title="precode_matrix_init_HDPC">
<polygon fill="none" stroke="black" points="692,-652.5 692,-671.5 828,-671.5 828,-652.5 692,-652.5"/>
<text text-anchor="middle" x="760" y="-659.5" font-family="Helvetica,sans-Serif" font-size="10.00">precode_matrix_init_HDPC</text>
</a>
</g>
</g>
<!-- Node7&#45;&gt;Node12 -->
<g id="edge13" class="edge"><title>Node7&#45;&gt;Node12</title>
<path fill="none" stroke="midnightblue" d="M603.976,-734.433C634.886,-719.99 693.632,-692.543 729.261,-675.895"/>
<polygon fill="midnightblue" stroke="midnightblue" points="731.077,-678.91 738.655,-671.506 728.113,-672.568 731.077,-678.91"/>
</g>
<!-- Node18 -->
<g id="node19" class="node"><title>Node18</title>
<g id="a_node19"><a xlink:href="precode_8c_a7fb81075ad77cf8790ba330c7fc6c221.html#a7fb81075ad77cf8790ba330c7fc6c221" target="_top" xlink:title="precode_matrix_add\l_G_ENC">
<polygon fill="none" stroke="black" points="708,-915 708,-945 812,-945 812,-915 708,-915"/>
<text text-anchor="start" x="716" y="-933" font-family="Helvetica,sans-Serif" font-size="10.00">precode_matrix_add</text>
<text text-anchor="middle" x="760" y="-922" font-family="Helvetica,sans-Serif" font-size="10.00">_G_ENC</text>
</a>
</g>
</g>
<!-- Node7&#45;&gt;Node18 -->
<g id="edge22" class="edge"><title>Node7&#45;&gt;Node18</title>
<path fill="none" stroke="midnightblue" d="M634.732,-750.098C642.633,-752.983 650.11,-757.113 656,-763 700.531,-807.502 651.28,-851.986 692,-900 695.002,-903.54 698.507,-906.68 702.309,-909.462"/>
<polygon fill="midnightblue" stroke="midnightblue" points="700.712,-912.594 711.031,-914.998 704.463,-906.684 700.712,-912.594"/>
</g>
<!-- Node12&#45;&gt;Node8 -->
<g id="edge19" class="edge"><title>Node12&#45;&gt;Node8</title>
<path fill="none" stroke="midnightblue" d="M828.157,-658.528C889.864,-655.338 979.278,-650.716 1030.48,-648.069"/>
<polygon fill="midnightblue" stroke="midnightblue" points="1030.69,-651.563 1040.49,-647.551 1030.32,-644.572 1030.69,-651.563"/>
</g>
<!-- Node13 -->
<g id="node14" class="node"><title>Node13</title>
<g id="a_node14"><a xlink:href="precode_8c_a291ab32ffee6435673b4693d8c74952f.html#a291ab32ffee6435673b4693d8c74952f" target="_top" xlink:title="precode_matrix_make_MT">
<polygon fill="none" stroke="black" points="864.5,-570.5 864.5,-589.5 996.5,-589.5 996.5,-570.5 864.5,-570.5"/>
<text text-anchor="middle" x="930.5" y="-577.5" font-family="Helvetica,sans-Serif" font-size="10.00">precode_matrix_make_MT</text>
</a>
</g>
</g>
<!-- Node12&#45;&gt;Node13 -->
<g id="edge14" class="edge"><title>Node12&#45;&gt;Node13</title>
<path fill="none" stroke="midnightblue" d="M797.63,-652.434C807.938,-648.819 818.83,-644.069 828,-638 847.671,-624.981 843.937,-611.407 864,-599 867.414,-596.888 871.073,-595.003 874.852,-593.321"/>
<polygon fill="midnightblue" stroke="midnightblue" points="876.404,-596.471 884.421,-589.544 873.835,-589.96 876.404,-596.471"/>
</g>
<!-- Node15 -->
<g id="node16" class="node"><title>Node15</title>
<g id="a_node16"><a xlink:href="precode_8c_a88ec15cf62d897ab1df189175429c7f8.html#a88ec15cf62d897ab1df189175429c7f8" target="_top" xlink:title="precode_matrix_make\l_GAMMA">
<polygon fill="none" stroke="black" points="874,-609 874,-639 987,-639 987,-609 874,-609"/>
<text text-anchor="start" x="882" y="-627" font-family="Helvetica,sans-Serif" font-size="10.00">precode_matrix_make</text>
<text text-anchor="middle" x="930.5" y="-616" font-family="Helvetica,sans-Serif" font-size="10.00">_GAMMA</text>
</a>
</g>
</g>
<!-- Node12&#45;&gt;Node15 -->
<g id="edge17" class="edge"><title>Node12&#45;&gt;Node15</title>
<path fill="none" stroke="midnightblue" d="M803.52,-652.411C821.868,-648.273 843.75,-643.338 864.088,-638.752"/>
<polygon fill="midnightblue" stroke="midnightblue" points="864.941,-642.147 873.926,-636.533 863.401,-635.319 864.941,-642.147"/>
</g>
<!-- Node16 -->
<g id="node17" class="node"><title>Node16</title>
<g id="a_node17"><a xlink:href="oblas_8h_a85e2604cc8aec26b591370ab48307bcc.html#a85e2604cc8aec26b591370ab48307bcc" target="_top" xlink:title="ogemm">
<polygon fill="none" stroke="black" points="906,-532.5 906,-551.5 955,-551.5 955,-532.5 906,-532.5"/>
<text text-anchor="middle" x="930.5" y="-539.5" font-family="Helvetica,sans-Serif" font-size="10.00">ogemm</text>
</a>
</g>
</g>
<!-- Node12&#45;&gt;Node16 -->
<g id="edge20" class="edge"><title>Node12&#45;&gt;Node16</title>
<path fill="none" stroke="midnightblue" d="M803.494,-652.468C812.332,-649.007 821.057,-644.323 828,-638 855.93,-612.563 835.299,-585.564 864,-561 872.884,-553.396 884.663,-548.831 895.78,-546.093"/>
<polygon fill="midnightblue" stroke="midnightblue" points="896.61,-549.495 905.701,-544.056 895.202,-542.638 896.61,-549.495"/>
</g>
<!-- Node12&#45;&gt;Node17 -->
<g id="edge21" class="edge"><title>Node12&#45;&gt;Node17</title>
<path fill="none" stroke="midnightblue" d="M805.879,-652.428C814.065,-648.992 821.924,-644.328 828,-638 865.094,-599.369 825.733,-560.47 864,-523 870.202,-516.927 878.224,-512.774 886.514,-509.94"/>
<polygon fill="midnightblue" stroke="midnightblue" points="887.605,-513.269 896.277,-507.182 885.702,-506.532 887.605,-513.269"/>
</g>
<!-- Node13&#45;&gt;Node8 -->
<g id="edge15" class="edge"><title>Node13&#45;&gt;Node8</title>
<path fill="none" stroke="midnightblue" d="M971.299,-589.565C979.941,-592.184 988.912,-595.333 997,-599 1015.85,-607.545 1035.52,-620.358 1049.76,-630.449"/>
<polygon fill="midnightblue" stroke="midnightblue" points="1047.72,-633.291 1057.87,-636.317 1051.82,-627.62 1047.72,-633.291"/>
</g>
<!-- Node14 -->
<g id="node15" class="node"><title>Node14</title>
<g id="a_node15"><a xlink:href="rand_8h_acd60cf6a4df3a81ef6cad8f6e6ae715d.html#acd60cf6a4df3a81ef6cad8f6e6ae715d" target="_top" xlink:title="rnd_get">
<polygon fill="none" stroke="black" points="1047,-570.5 1047,-589.5 1096,-589.5 1096,-570.5 1047,-570.5"/>
<text text-anchor="middle" x="1071.5" y="-577.5" font-family="Helvetica,sans-Serif" font-size="10.00">rnd_get</text>
</a>
</g>
</g>
<!-- Node13&#45;&gt;Node14 -->
<g id="edge16" class="edge"><title>Node13&#45;&gt;Node14</title>
<path fill="none" stroke="midnightblue" d="M996.523,-580C1010.4,-580 1024.52,-580 1036.66,-580"/>
<polygon fill="midnightblue" stroke="midnightblue" points="1036.75,-583.5 1046.75,-580 1036.75,-576.5 1036.75,-583.5"/>
</g>
<!-- Node15&#45;&gt;Node8 -->
<g id="edge18" class="edge"><title>Node15&#45;&gt;Node8</title>
<path fill="none" stroke="midnightblue" d="M987.236,-632.821C1001.68,-635.108 1016.95,-637.525 1030.42,-639.656"/>
<polygon fill="midnightblue" stroke="midnightblue" points="1029.89,-643.117 1040.32,-641.223 1030.99,-636.203 1029.89,-643.117"/>
</g>
<!-- Node19 -->
<g id="node20" class="node"><title>Node19</title>
<g id="a_node20"><a xlink:href="params_8c_a5e51228448fbdf5e0d4310916b8eea93.html#a5e51228448fbdf5e0d4310916b8eea93" target="_top" xlink:title="params_get_idxs">
<polygon fill="none" stroke="black" points="885,-920.5 885,-939.5 976,-939.5 976,-920.5 885,-920.5"/>
<text text-anchor="middle" x="930.5" y="-927.5" font-family="Helvetica,sans-Serif" font-size="10.00">params_get_idxs</text>
</a>
</g>
</g>
<!-- Node18&#45;&gt;Node19 -->
<g id="edge23" class="edge"><title>Node18&#45;&gt;Node19</title>
<path fill="none" stroke="midnightblue" d="M812.013,-930C831.809,-930 854.521,-930 874.667,-930"/>
<polygon fill="midnightblue" stroke="midnightblue" points="874.939,-933.5 884.939,-930 874.939,-926.5 874.939,-933.5"/>
</g>
<!-- Node20&#45;&gt;Node8 -->
<g id="edge57" class="edge"><title>Node20&#45;&gt;Node8</title>
<path fill="none" stroke="midnightblue" d="M640.211,-329.453C690.992,-323.264 766.681,-319.95 828,-342 847.334,-348.952 845.759,-361.545 864,-371 918.58,-399.291 955.553,-363.596 997,-409 1054.95,-472.476 997.144,-520.89 1033,-599 1037.96,-609.815 1045.94,-620.318 1053.27,-628.643"/>
<polygon fill="midnightblue" stroke="midnightblue" points="1050.88,-631.211 1060.24,-636.172 1056.01,-626.456 1050.88,-631.211"/>
</g>
<!-- Node20&#45;&gt;Node17 -->
<g id="edge42" class="edge"><title>Node20&#45;&gt;Node17</title>
<path fill="none" stroke="midnightblue" d="M589.738,-348.807C604.527,-371.186 644.092,-426.151 692,-453 753.651,-487.551 836.359,-498.722 886.138,-502.316"/>
<polygon fill="midnightblue" stroke="midnightblue" points="886.035,-505.817 896.241,-502.974 886.49,-498.831 886.035,-505.817"/>
</g>
<!-- Node21 -->
<g id="node22" class="node"><title>Node21</title>
<g id="a_node22"><a xlink:href="octmat_8c_a4d2ed06936f8e9cba88b6b37e5a23712.html#a4d2ed06936f8e9cba88b6b37e5a23712" target="_top" xlink:title="om_copy">
<polygon fill="none" stroke="black" points="902.5,-418.5 902.5,-437.5 958.5,-437.5 958.5,-418.5 902.5,-418.5"/>
<text text-anchor="middle" x="930.5" y="-425.5" font-family="Helvetica,sans-Serif" font-size="10.00">om_copy</text>
</a>
</g>
</g>
<!-- Node20&#45;&gt;Node21 -->
<g id="edge27" class="edge"><title>Node20&#45;&gt;Node21</title>
<path fill="none" stroke="midnightblue" d="M656.091,-341.065C706.106,-344.667 773.174,-353.894 828,-377 846.43,-384.767 846.423,-394.458 864,-404 872.926,-408.846 883.034,-413.093 892.591,-416.613"/>
<polygon fill="midnightblue" stroke="midnightblue" points="891.683,-420.003 902.278,-420.012 894.001,-413.398 891.683,-420.003"/>
</g>
<!-- Node22 -->
<g id="node23" class="node"><title>Node22</title>
<g id="a_node23"><a xlink:href="precode_8c_adde325d451f8ec9eb7f8f4542d81e884.html#adde325d451f8ec9eb7f8f4542d81e884" target="_top" xlink:title="decode_phase1">
<polygon fill="none" stroke="black" points="717.5,-209.5 717.5,-228.5 802.5,-228.5 802.5,-209.5 717.5,-209.5"/>
<text text-anchor="middle" x="760" y="-216.5" font-family="Helvetica,sans-Serif" font-size="10.00">decode_phase1</text>
</a>
</g>
</g>
<!-- Node20&#45;&gt;Node22 -->
<g id="edge28" class="edge"><title>Node20&#45;&gt;Node22</title>
<path fill="none" stroke="midnightblue" d="M597.565,-329.383C627.859,-308.669 699.501,-259.683 736.307,-234.516"/>
<polygon fill="midnightblue" stroke="midnightblue" points="738.588,-237.197 744.868,-228.663 734.637,-231.418 738.588,-237.197"/>
</g>
<!-- Node35 -->
<g id="node36" class="node"><title>Node35</title>
<g id="a_node36"><a xlink:href="precode_8c_a41bb3b163c071597877ad0de9bbbd756.html#a41bb3b163c071597877ad0de9bbbd756" target="_top" xlink:title="decode_phase2">
<polygon fill="none" stroke="black" points="717.5,-76.5 717.5,-95.5 802.5,-95.5 802.5,-76.5 717.5,-76.5"/>
<text text-anchor="middle" x="760" y="-83.5" font-family="Helvetica,sans-Serif" font-size="10.00">decode_phase2</text>
</a>
</g>
</g>
<!-- Node20&#45;&gt;Node35 -->
<g id="edge43" class="edge"><title>Node20&#45;&gt;Node35</title>
<path fill="none" stroke="midnightblue" d="M587.387,-329.276C599.643,-299.352 639.787,-206.816 692,-143 704.974,-127.143 722.75,-112.252 736.732,-101.669"/>
<polygon fill="midnightblue" stroke="midnightblue" points="738.9,-104.419 744.871,-95.6666 734.745,-98.7855 738.9,-104.419"/>
</g>
<!-- Node37 -->
<g id="node38" class="node"><title>Node37</title>
<g id="a_node38"><a xlink:href="precode_8c_a11824185dea7b498ffadaca55ae49090.html#a11824185dea7b498ffadaca55ae49090" target="_top" xlink:title="decode_phase3">
<polygon fill="none" stroke="black" points="717.5,-424.5 717.5,-443.5 802.5,-443.5 802.5,-424.5 717.5,-424.5"/>
<text text-anchor="middle" x="760" y="-431.5" font-family="Helvetica,sans-Serif" font-size="10.00">decode_phase3</text>
</a>
</g>
</g>
<!-- Node20&#45;&gt;Node37 -->
<g id="edge47" class="edge"><title>Node20&#45;&gt;Node37</title>
<path fill="none" stroke="midnightblue" d="M594.432,-348.564C613.167,-364.496 653.157,-396.539 692,-415 696.982,-417.368 702.317,-419.495 707.72,-421.393"/>
<polygon fill="midnightblue" stroke="midnightblue" points="706.865,-424.795 717.458,-424.562 709.032,-418.139 706.865,-424.795"/>
</g>
<!-- Node38 -->
<g id="node39" class="node"><title>Node38</title>
<g id="a_node39"><a xlink:href="precode_8c_a84a742aaa0a90e37baf8db8cd5a035b7.html#a84a742aaa0a90e37baf8db8cd5a035b7" target="_top" xlink:title="decode_phase4">
<polygon fill="none" stroke="black" points="717.5,-152.5 717.5,-171.5 802.5,-171.5 802.5,-152.5 717.5,-152.5"/>
<text text-anchor="middle" x="760" y="-159.5" font-family="Helvetica,sans-Serif" font-size="10.00">decode_phase4</text>
</a>
</g>
</g>
<!-- Node20&#45;&gt;Node38 -->
<g id="edge52" class="edge"><title>Node20&#45;&gt;Node38</title>
<path fill="none" stroke="midnightblue" d="M589.259,-329.175C603.894,-304.842 644.72,-240.801 692,-200 702.784,-190.693 716.195,-182.552 728.178,-176.218"/>
<polygon fill="midnightblue" stroke="midnightblue" points="730.07,-179.183 737.405,-171.538 726.904,-172.94 730.07,-179.183"/>
</g>
<!-- Node39 -->
<g id="node40" class="node"><title>Node39</title>
<g id="a_node40"><a xlink:href="precode_8c_a16925f32060a478093240f3b35ee664a.html#a16925f32060a478093240f3b35ee664a" target="_top" xlink:title="decode_phase5">
<polygon fill="none" stroke="black" points="717.5,-38.5 717.5,-57.5 802.5,-57.5 802.5,-38.5 717.5,-38.5"/>
<text text-anchor="middle" x="760" y="-45.5" font-family="Helvetica,sans-Serif" font-size="10.00">decode_phase5</text>
</a>
</g>
</g>
<!-- Node20&#45;&gt;Node39 -->
<g id="edge54" class="edge"><title>Node20&#45;&gt;Node39</title>
<path fill="none" stroke="midnightblue" d="M584.351,-329.357C588.324,-290.284 608.558,-142.244 692,-67 696.544,-62.9022 701.91,-59.6821 707.596,-57.1527"/>
<polygon fill="midnightblue" stroke="midnightblue" points="709.224,-60.2815 717.376,-53.5151 706.783,-53.7206 709.224,-60.2815"/>
</g>
<!-- Node40 -->
<g id="node41" class="node"><title>Node40</title>
<g id="a_node41"><a xlink:href="oblas_8h_a1b5ea186506d2e5d84ba3cc292043e21.html#a1b5ea186506d2e5d84ba3cc292043e21" target="_top" xlink:title="ocopy">
<polygon fill="none" stroke="black" points="738.5,-386.5 738.5,-405.5 781.5,-405.5 781.5,-386.5 738.5,-386.5"/>
<text text-anchor="middle" x="760" y="-393.5" font-family="Helvetica,sans-Serif" font-size="10.00">ocopy</text>
</a>
</g>
</g>
<!-- Node20&#45;&gt;Node40 -->
<g id="edge58" class="edge"><title>Node20&#45;&gt;Node40</title>
<path fill="none" stroke="midnightblue" d="M612.875,-348.541C644.925,-358.95 695.99,-375.535 728.483,-386.089"/>
<polygon fill="midnightblue" stroke="midnightblue" points="727.741,-389.527 738.333,-389.288 729.903,-382.87 727.741,-389.527"/>
</g>
<!-- Node23 -->
<g id="node24" class="node"><title>Node23</title>
<g id="a_node24"><a xlink:href="chooser_8h_a5c354680a80680d3c040504152d3c616.html#a5c354680a80680d3c040504152d3c616" target="_top" xlink:title="chooser_add_tracking_pair">
<polygon fill="none" stroke="black" points="864,-342.5 864,-361.5 997,-361.5 997,-342.5 864,-342.5"/>
<text text-anchor="middle" x="930.5" y="-349.5" font-family="Helvetica,sans-Serif" font-size="10.00">chooser_add_tracking_pair</text>
</a>
</g>
</g>
<!-- Node22&#45;&gt;Node23 -->
<g id="edge29" class="edge"><title>Node22&#45;&gt;Node23</title>
<path fill="none" stroke="midnightblue" d="M766.927,-228.587C780.975,-250.501 818.552,-304.558 864,-333 867.348,-335.095 870.936,-336.967 874.644,-338.638"/>
<polygon fill="midnightblue" stroke="midnightblue" points="873.457,-341.933 884.042,-342.392 876.053,-335.432 873.457,-341.933"/>
</g>
<!-- Node24 -->
<g id="node25" class="node"><title>Node24</title>
<g id="a_node25"><a xlink:href="graph_8c_ac96bb5f2ca9a14261f32f070172fb6d9.html#ac96bb5f2ca9a14261f32f070172fb6d9" target="_top" xlink:title="graph_new">
<polygon fill="none" stroke="black" points="898.5,-304.5 898.5,-323.5 962.5,-323.5 962.5,-304.5 898.5,-304.5"/>
<text text-anchor="middle" x="930.5" y="-311.5" font-family="Helvetica,sans-Serif" font-size="10.00">graph_new</text>
</a>
</g>
</g>
<!-- Node22&#45;&gt;Node24 -->
<g id="edge30" class="edge"><title>Node22&#45;&gt;Node24</title>
<path fill="none" stroke="midnightblue" d="M771.295,-228.575C788.958,-244.522 826.745,-276.588 864,-295 871.706,-298.808 880.308,-301.984 888.679,-304.581"/>
<polygon fill="midnightblue" stroke="midnightblue" points="887.754,-307.957 898.332,-307.366 889.694,-301.231 887.754,-307.957"/>
</g>
<!-- Node25 -->
<g id="node26" class="node"><title>Node25</title>
<g id="a_node26"><a xlink:href="chooser_8h_aa055b1a2f2a47c17f612c052a2607ae1.html#aa055b1a2f2a47c17f612c052a2607ae1" target="_top" xlink:title="chooser_non_zero">
<polygon fill="none" stroke="black" points="882.5,-266.5 882.5,-285.5 978.5,-285.5 978.5,-266.5 882.5,-266.5"/>
<text text-anchor="middle" x="930.5" y="-273.5" font-family="Helvetica,sans-Serif" font-size="10.00">chooser_non_zero</text>
</a>
</g>
</g>
<!-- Node22&#45;&gt;Node25 -->
<g id="edge31" class="edge"><title>Node22&#45;&gt;Node25</title>
<path fill="none" stroke="midnightblue" d="M785.385,-228.554C806.148,-236.554 836.842,-248.064 864,-257 870.882,-259.264 878.216,-261.532 885.393,-263.671"/>
<polygon fill="midnightblue" stroke="midnightblue" points="884.444,-267.04 895.025,-266.497 886.415,-260.324 884.444,-267.04"/>
</g>
<!-- Node28 -->
<g id="node29" class="node"><title>Node28</title>
<g id="a_node29"><a xlink:href="chooser_8h_a54391f17335789a40d1a168009c9b5a1.html#a54391f17335789a40d1a168009c9b5a1" target="_top" xlink:title="chooser_clear">
<polygon fill="none" stroke="black" points="892,-228.5 892,-247.5 969,-247.5 969,-228.5 892,-228.5"/>
<text text-anchor="middle" x="930.5" y="-235.5" font-family="Helvetica,sans-Serif" font-size="10.00">chooser_clear</text>
</a>
</g>
</g>
<!-- Node22&#45;&gt;Node28 -->
<g id="edge34" class="edge"><title>Node22&#45;&gt;Node28</title>
<path fill="none" stroke="midnightblue" d="M802.652,-223.697C826.635,-226.401 856.868,-229.81 881.803,-232.622"/>
<polygon fill="midnightblue" stroke="midnightblue" points="881.448,-236.104 891.777,-233.746 882.232,-229.148 881.448,-236.104"/>
</g>
<!-- Node29 -->
<g id="node30" class="node"><title>Node29</title>
<g id="a_node30"><a xlink:href="graph_8c_ac683cc08fc4c4391a1e872db552f4c3b.html#ac683cc08fc4c4391a1e872db552f4c3b" target="_top" xlink:title="graph_free">
<polygon fill="none" stroke="black" points="899.5,-190.5 899.5,-209.5 961.5,-209.5 961.5,-190.5 899.5,-190.5"/>
<text text-anchor="middle" x="930.5" y="-197.5" font-family="Helvetica,sans-Serif" font-size="10.00">graph_free</text>
</a>
</g>
</g>
<!-- Node22&#45;&gt;Node29 -->
<g id="edge35" class="edge"><title>Node22&#45;&gt;Node29</title>
<path fill="none" stroke="midnightblue" d="M802.652,-214.303C829.151,-211.315 863.28,-207.467 889.461,-204.515"/>
<polygon fill="midnightblue" stroke="midnightblue" points="889.885,-207.989 899.43,-203.391 889.101,-201.033 889.885,-207.989"/>
</g>
<!-- Node30 -->
<g id="node31" class="node"><title>Node30</title>
<g id="a_node31"><a xlink:href="chooser_8h_a6e78ae331b8eb1f6033fdb88aba27d69.html#a6e78ae331b8eb1f6033fdb88aba27d69" target="_top" xlink:title="chooser_pick">
<polygon fill="none" stroke="black" points="893.5,-152.5 893.5,-171.5 967.5,-171.5 967.5,-152.5 893.5,-152.5"/>
<text text-anchor="middle" x="930.5" y="-159.5" font-family="Helvetica,sans-Serif" font-size="10.00">chooser_pick</text>
</a>
</g>
</g>
<!-- Node22&#45;&gt;Node30 -->
<g id="edge36" class="edge"><title>Node22&#45;&gt;Node30</title>
<path fill="none" stroke="midnightblue" d="M785.385,-209.446C806.148,-201.446 836.842,-189.936 864,-181 870.882,-178.736 878.216,-176.468 885.393,-174.329"/>
<polygon fill="midnightblue" stroke="midnightblue" points="886.415,-177.676 895.025,-171.503 884.444,-170.96 886.415,-177.676"/>
</g>
<!-- Node32 -->
<g id="node33" class="node"><title>Node32</title>
<g id="a_node33"><a xlink:href="oblas_8h_ad0978d40d1e2a78b8ff34f3d0d376dd3.html#ad0978d40d1e2a78b8ff34f3d0d376dd3" target="_top" xlink:title="oswaprow">
<polygon fill="none" stroke="black" points="900,-76.5 900,-95.5 961,-95.5 961,-76.5 900,-76.5"/>
<text text-anchor="middle" x="930.5" y="-83.5" font-family="Helvetica,sans-Serif" font-size="10.00">oswaprow</text>
</a>
</g>
</g>
<!-- Node22&#45;&gt;Node32 -->
<g id="edge39" class="edge"><title>Node22&#45;&gt;Node32</title>
<path fill="none" stroke="midnightblue" d="M785.762,-209.405C799.6,-203.04 816.35,-193.54 828,-181 853.439,-153.618 835.543,-129.231 864,-105 871.348,-98.7426 880.658,-94.5438 889.935,-91.7269"/>
<polygon fill="midnightblue" stroke="midnightblue" points="891.073,-95.0487 899.895,-89.1807 889.339,-88.2668 891.073,-95.0487"/>
</g>
<!-- Node33 -->
<g id="node34" class="node"><title>Node33</title>
<g id="a_node34"><a xlink:href="oblas_8h_aac1e9520179bae9bf58901a111aad57d.html#aac1e9520179bae9bf58901a111aad57d" target="_top" xlink:title="oswapcol">
<polygon fill="none" stroke="black" points="901.5,-114.5 901.5,-133.5 959.5,-133.5 959.5,-114.5 901.5,-114.5"/>
<text text-anchor="middle" x="930.5" y="-121.5" font-family="Helvetica,sans-Serif" font-size="10.00">oswapcol</text>
</a>
</g>
</g>
<!-- Node22&#45;&gt;Node33 -->
<g id="edge40" class="edge"><title>Node22&#45;&gt;Node33</title>
<path fill="none" stroke="midnightblue" d="M781.32,-209.473C795.135,-202.529 813.469,-192.375 828,-181 846.319,-166.66 844.135,-155.108 864,-143 872.316,-137.932 882.049,-134.159 891.431,-131.372"/>
<polygon fill="midnightblue" stroke="midnightblue" points="892.627,-134.676 901.39,-128.721 890.826,-127.911 892.627,-134.676"/>
</g>
<!-- Node34 -->
<g id="node35" class="node"><title>Node34</title>
<g id="a_node35"><a xlink:href="oblas_8h_a962c3db45b173ccbaf6418d5894409be.html#a962c3db45b173ccbaf6418d5894409be" target="_top" xlink:title="oaxpy">
<polygon fill="none" stroke="black" points="909,-38.5 909,-57.5 952,-57.5 952,-38.5 909,-38.5"/>
<text text-anchor="middle" x="930.5" y="-45.5" font-family="Helvetica,sans-Serif" font-size="10.00">oaxpy</text>
</a>
</g>
</g>
<!-- Node22&#45;&gt;Node34 -->
<g id="edge41" class="edge"><title>Node22&#45;&gt;Node34</title>
<path fill="none" stroke="midnightblue" d="M787.75,-209.391C801.523,-203.208 817.569,-193.89 828,-181 861.425,-139.698 825.99,-104.126 864,-67 873.331,-57.8866 886.759,-53.0982 899.031,-50.6001"/>
<polygon fill="midnightblue" stroke="midnightblue" points="899.639,-54.0473 908.952,-48.9957 898.522,-47.137 899.639,-54.0473"/>
</g>
<!-- Node26 -->
<g id="node27" class="node"><title>Node26</title>
<g id="a_node27"><a xlink:href="graph_8c_a4df6f2af3bed651a7f3d19803ec598e4.html#a4df6f2af3bed651a7f3d19803ec598e4" target="_top" xlink:title="graph_link">
<polygon fill="none" stroke="black" points="1041,-228.5 1041,-247.5 1102,-247.5 1102,-228.5 1041,-228.5"/>
<text text-anchor="middle" x="1071.5" y="-235.5" font-family="Helvetica,sans-Serif" font-size="10.00">graph_link</text>
</a>
</g>
</g>
<!-- Node25&#45;&gt;Node26 -->
<g id="edge32" class="edge"><title>Node25&#45;&gt;Node26</title>
<path fill="none" stroke="midnightblue" d="M966.576,-266.411C986.115,-261.069 1010.51,-254.4 1030.76,-248.865"/>
<polygon fill="midnightblue" stroke="midnightblue" points="1031.89,-252.183 1040.62,-246.169 1030.05,-245.43 1031.89,-252.183"/>
</g>
<!-- Node27 -->
<g id="node28" class="node"><title>Node27</title>
<g id="a_node28"><a xlink:href="graph_8c_aebad20ec3b086b7fae30e6ef61892839.html#aebad20ec3b086b7fae30e6ef61892839" target="_top" xlink:title="graph_find">
<polygon fill="none" stroke="black" points="1146,-199.5 1146,-218.5 1208,-218.5 1208,-199.5 1146,-199.5"/>
<text text-anchor="middle" x="1177" y="-206.5" font-family="Helvetica,sans-Serif" font-size="10.00">graph_find</text>
</a>
</g>
</g>
<!-- Node26&#45;&gt;Node27 -->
<g id="edge33" class="edge"><title>Node26&#45;&gt;Node27</title>
<path fill="none" stroke="midnightblue" d="M1102.16,-229.69C1112.79,-226.712 1124.94,-223.306 1136.28,-220.129"/>
<polygon fill="midnightblue" stroke="midnightblue" points="1137.29,-223.48 1145.98,-217.412 1135.4,-216.74 1137.29,-223.48"/>
</g>
<!-- Node31 -->
<g id="node32" class="node"><title>Node31</title>
<g id="a_node32"><a xlink:href="graph_8c_ab380f8ec271892c52ab6836e6dba1746.html#ab380f8ec271892c52ab6836e6dba1746" target="_top" xlink:title="graph_is_max">
<polygon fill="none" stroke="black" points="1033,-171.5 1033,-190.5 1110,-190.5 1110,-171.5 1033,-171.5"/>
<text text-anchor="middle" x="1071.5" y="-178.5" font-family="Helvetica,sans-Serif" font-size="10.00">graph_is_max</text>
</a>
</g>
</g>
<!-- Node30&#45;&gt;Node31 -->
<g id="edge37" class="edge"><title>Node30&#45;&gt;Node31</title>
<path fill="none" stroke="midnightblue" d="M967.658,-166.942C984.412,-169.233 1004.55,-171.986 1022.55,-174.446"/>
<polygon fill="midnightblue" stroke="midnightblue" points="1022.2,-177.93 1032.58,-175.817 1023.15,-170.995 1022.2,-177.93"/>
</g>
<!-- Node31&#45;&gt;Node27 -->
<g id="edge38" class="edge"><title>Node31&#45;&gt;Node27</title>
<path fill="none" stroke="midnightblue" d="M1107.83,-190.558C1116.86,-193.001 1126.64,-195.646 1135.89,-198.148"/>
<polygon fill="midnightblue" stroke="midnightblue" points="1135.1,-201.56 1145.66,-200.793 1136.92,-194.803 1135.1,-201.56"/>
</g>
<!-- Node35&#45;&gt;Node32 -->
<g id="edge44" class="edge"><title>Node35&#45;&gt;Node32</title>
<path fill="none" stroke="midnightblue" d="M802.652,-86C829.205,-86 863.419,-86 889.621,-86"/>
<polygon fill="midnightblue" stroke="midnightblue" points="889.954,-89.5001 899.954,-86 889.954,-82.5001 889.954,-89.5001"/>
</g>
<!-- Node35&#45;&gt;Node34 -->
<g id="edge46" class="edge"><title>Node35&#45;&gt;Node34</title>
<path fill="none" stroke="midnightblue" d="M802.652,-76.6067C832.42,-69.8934 871.817,-61.0086 898.759,-54.9327"/>
<polygon fill="midnightblue" stroke="midnightblue" points="899.793,-58.2875 908.778,-52.6732 898.253,-51.459 899.793,-58.2875"/>
</g>
<!-- Node36 -->
<g id="node37" class="node"><title>Node36</title>
<g id="a_node37"><a xlink:href="oblas_8h_abfa7ba50070fbebe1ea2e0e2fc3f913b.html#abfa7ba50070fbebe1ea2e0e2fc3f913b" target="_top" xlink:title="oscal">
<polygon fill="none" stroke="black" points="910.5,-0.5 910.5,-19.5 950.5,-19.5 950.5,-0.5 910.5,-0.5"/>
<text text-anchor="middle" x="930.5" y="-7.5" font-family="Helvetica,sans-Serif" font-size="10.00">oscal</text>
</a>
</g>
</g>
<!-- Node35&#45;&gt;Node36 -->
<g id="edge45" class="edge"><title>Node35&#45;&gt;Node36</title>
<path fill="none" stroke="midnightblue" d="M802.836,-77.8707C811.519,-75.1759 820.346,-71.6335 828,-67 847.902,-54.9518 844.135,-41.1079 864,-29 875.026,-22.2798 888.544,-17.8372 900.431,-14.9512"/>
<polygon fill="midnightblue" stroke="midnightblue" points="901.322,-18.3392 910.352,-12.7976 899.837,-11.4985 901.322,-18.3392"/>
</g>
<!-- Node37&#45;&gt;Node8 -->
<g id="edge48" class="edge"><title>Node37&#45;&gt;Node8</title>
<path fill="none" stroke="midnightblue" d="M802.601,-440.666C866.435,-451.236 982.707,-471.979 997,-485 1036.28,-520.783 1008.01,-552.111 1033,-599 1038.67,-609.64 1046.86,-620.246 1054.14,-628.683"/>
<polygon fill="midnightblue" stroke="midnightblue" points="1051.7,-631.211 1060.99,-636.318 1056.91,-626.537 1051.7,-631.211"/>
</g>
<!-- Node37&#45;&gt;Node16 -->
<g id="edge50" class="edge"><title>Node37&#45;&gt;Node16</title>
<path fill="none" stroke="midnightblue" d="M769.361,-443.563C785.729,-461.702 823.917,-501.234 864,-523 873.856,-528.352 885.387,-532.345 896.003,-535.252"/>
<polygon fill="midnightblue" stroke="midnightblue" points="895.265,-538.675 905.816,-537.714 896.969,-531.885 895.265,-538.675"/>
</g>
<!-- Node37&#45;&gt;Node17 -->
<g id="edge51" class="edge"><title>Node37&#45;&gt;Node17</title>
<path fill="none" stroke="midnightblue" d="M791.888,-443.585C803.432,-447.549 816.52,-452.507 828,-458 844.915,-466.093 847.115,-471.846 864,-480 872.241,-483.98 881.323,-487.701 890.033,-490.969"/>
<polygon fill="midnightblue" stroke="midnightblue" points="889.048,-494.336 899.643,-494.457 891.437,-487.756 889.048,-494.336"/>
</g>
<!-- Node37&#45;&gt;Node21 -->
<g id="edge49" class="edge"><title>Node37&#45;&gt;Node21</title>
<path fill="none" stroke="midnightblue" d="M802.652,-432.517C830.097,-431.54 865.727,-430.271 892.235,-429.327"/>
<polygon fill="midnightblue" stroke="midnightblue" points="892.399,-432.823 902.268,-428.97 892.15,-425.828 892.399,-432.823"/>
</g>
<!-- Node38&#45;&gt;Node34 -->
<g id="edge53" class="edge"><title>Node38&#45;&gt;Node34</title>
<path fill="none" stroke="midnightblue" d="M773.198,-152.285C786.892,-141.23 809.601,-122.441 828,-105 844.884,-88.995 844.135,-79.1079 864,-67 874.527,-60.5836 887.327,-56.2435 898.809,-53.3522"/>
<polygon fill="midnightblue" stroke="midnightblue" points="899.892,-56.696 908.88,-51.0862 898.356,-49.8667 899.892,-56.696"/>
</g>
<!-- Node39&#45;&gt;Node34 -->
<g id="edge56" class="edge"><title>Node39&#45;&gt;Node34</title>
<path fill="none" stroke="midnightblue" d="M802.652,-48C832.42,-48 871.817,-48 898.759,-48"/>
<polygon fill="midnightblue" stroke="midnightblue" points="898.778,-51.5001 908.778,-48 898.778,-44.5001 898.778,-51.5001"/>
</g>
<!-- Node39&#45;&gt;Node36 -->
<g id="edge55" class="edge"><title>Node39&#45;&gt;Node36</title>
<path fill="none" stroke="midnightblue" d="M802.652,-38.6067C832.936,-31.777 873.186,-22.6998 900.149,-16.6192"/>
<polygon fill="midnightblue" stroke="midnightblue" points="901.145,-19.9826 910.13,-14.3684 899.605,-13.1541 901.145,-19.9826"/>
</g>
<!-- Node41&#45;&gt;Node8 -->
<g id="edge61" class="edge"><title>Node41&#45;&gt;Node8</title>
<path fill="none" stroke="midnightblue" d="M820.124,-975.258C881.329,-975.281 971.504,-971.324 997,-949 1040.33,-911.061 1062.41,-726.853 1068.63,-665.744"/>
<polygon fill="midnightblue" stroke="midnightblue" points="1072.14,-665.83 1069.63,-655.535 1065.17,-665.143 1072.14,-665.83"/>
</g>
<!-- Node41&#45;&gt;Node19 -->
<g id="edge62" class="edge"><title>Node41&#45;&gt;Node19</title>
<path fill="none" stroke="midnightblue" d="M797.562,-964.453C822.623,-957.908 856.079,-949.172 883.03,-942.135"/>
<polygon fill="midnightblue" stroke="midnightblue" points="884.218,-945.442 893.009,-939.529 882.449,-938.669 884.218,-945.442"/>
</g>
<!-- Node42 -->
<g id="node43" class="node"><title>Node42</title>
<g id="a_node43"><a xlink:href="oblas_8h_a06e2686eb0ba47ab72527cc2d8924583.html#a06e2686eb0ba47ab72527cc2d8924583" target="_top" xlink:title="oaddrow">
<polygon fill="none" stroke="black" points="904,-996.5 904,-1015.5 957,-1015.5 957,-996.5 904,-996.5"/>
<text text-anchor="middle" x="930.5" y="-1003.5" font-family="Helvetica,sans-Serif" font-size="10.00">oaddrow</text>
</a>
</g>
</g>
<!-- Node41&#45;&gt;Node42 -->
<g id="edge63" class="edge"><title>Node41&#45;&gt;Node42</title>
<path fill="none" stroke="midnightblue" d="M811.099,-983.514C837.634,-988.554 869.609,-994.626 893.638,-999.189"/>
<polygon fill="midnightblue" stroke="midnightblue" points="893.263,-1002.68 903.741,-1001.11 894.569,-995.804 893.263,-1002.68"/>
</g>
<!-- Node45&#45;&gt;Node17 -->
<g id="edge69" class="edge"><title>Node45&#45;&gt;Node17</title>
<path fill="none" stroke="midnightblue" d="M468.52,-509.309C574.668,-508.086 793.076,-505.571 886.053,-504.5"/>
<polygon fill="midnightblue" stroke="midnightblue" points="886.271,-507.998 896.23,-504.383 886.19,-500.999 886.271,-507.998"/>
</g>
</g>
</svg>
