<?xml version="1.0" encoding="UTF-8" standalone="no"?>
<!DOCTYPE svg PUBLIC "-//W3C//DTD SVG 1.1//EN"
 "http://www.w3.org/Graphics/SVG/1.1/DTD/svg11.dtd">
<!-- Generated by graphviz version 2.38.0 (20140413.2041)
 -->
<!-- Title: graph_is_max Pages: 1 -->
<svg width="1164pt" height="85pt"
 viewBox="0.00 0.00 1164.00 85.00" xmlns="http://www.w3.org/2000/svg" xmlns:xlink="http://www.w3.org/1999/xlink">
<g id="graph0" class="graph" transform="scale(1 1) rotate(0) translate(4 81)">
<title>graph_is_max</title>
<!-- Node2 -->
<g id="node1" class="node"><title>Node2</title>
<polygon fill="#bfbfbf" stroke="black" points="0,-19.5 0,-38.5 77,-38.5 77,-19.5 0,-19.5"/>
<text text-anchor="middle" x="38.5" y="-26.5" font-family="Helvetica,sans-Serif" font-size="10.00">graph_is_max</text>
</g>
<!-- Node3 -->
<g id="node2" class="node"><title>Node3</title>
<g id="a_node2"><a xlink:href="chooser_8h_a6e78ae331b8eb1f6033fdb88aba27d69.html#a6e78ae331b8eb1f6033fdb88aba27d69" target="_top" xlink:title="chooser_pick">
<polygon fill="none" stroke="black" points="113,-19.5 113,-38.5 187,-38.5 187,-19.5 113,-19.5"/>
<text text-anchor="middle" x="150" y="-26.5" font-family="Helvetica,sans-Serif" font-size="10.00">chooser_pick</text>
</a>
</g>
</g>
<!-- Node2&#45;&gt;Node3 -->
<g id="edge1" class="edge"><title>Node2&#45;&gt;Node3</title>
<path fill="none" stroke="midnightblue" d="M87.386,-29C95.8874,-29 104.613,-29 112.726,-29"/>
<polygon fill="midnightblue" stroke="midnightblue" points="87.1837,-25.5001 77.1837,-29 87.1837,-32.5001 87.1837,-25.5001"/>
</g>
<!-- Node4 -->
<g id="node3" class="node"><title>Node4</title>
<g id="a_node3"><a xlink:href="precode_8c_adde325d451f8ec9eb7f8f4542d81e884.html#adde325d451f8ec9eb7f8f4542d81e884" target="_top" xlink:title="decode_phase1">
<polygon fill="none" stroke="black" points="223,-19.5 223,-38.5 308,-38.5 308,-19.5 223,-19.5"/>
<text text-anchor="middle" x="265.5" y="-26.5" font-family="Helvetica,sans-Serif" font-size="10.00">decode_phase1</text>
</a>
</g>
</g>
<!-- Node3&#45;&gt;Node4 -->
<g id="edge2" class="edge"><title>Node3&#45;&gt;Node4</title>
<path fill="none" stroke="midnightblue" d="M197.275,-29C205.687,-29 214.417,-29 222.691,-29"/>
<polygon fill="midnightblue" stroke="midnightblue" points="197.224,-25.5001 187.224,-29 197.224,-32.5001 197.224,-25.5001"/>
</g>
<!-- Node5 -->
<g id="node4" class="node"><title>Node5</title>
<g id="a_node4"><a xlink:href="precode_8c_a262ba8efa6b500c1e7a3cb0451245291.html#a262ba8efa6b500c1e7a3cb0451245291" target="_top" xlink:title="precode_matrix_intermediate1">
<polygon fill="none" stroke="black" points="344,-19.5 344,-38.5 491,-38.5 491,-19.5 344,-19.5"/>
<text text-anchor="middle" x="417.5" y="-26.5" font-family="Helvetica,sans-Serif" font-size="10.00">precode_matrix_intermediate1</text>
</a>
</g>
</g>
<!-- Node4&#45;&gt;Node5 -->
<g id="edge3" class="edge"><title>Node4&#45;&gt;Node5</title>
<path fill="none" stroke="midnightblue" d="M318.453,-29C326.682,-29 335.32,-29 343.917,-29"/>
<polygon fill="midnightblue" stroke="midnightblue" points="318.283,-25.5001 308.283,-29 318.283,-32.5001 318.283,-25.5001"/>
</g>
<!-- Node6 -->
<g id="node5" class="node"><title>Node6</title>
<g id="a_node5"><a xlink:href="nanorq_8c_ad6a9288685637cdfe83303f66b087a29.html#ad6a9288685637cdfe83303f66b087a29" target="_top" xlink:title="nanorq_generate_symbols">
<polygon fill="none" stroke="black" points="535,-38.5 535,-57.5 666,-57.5 666,-38.5 535,-38.5"/>
<text text-anchor="middle" x="600.5" y="-45.5" font-family="Helvetica,sans-Serif" font-size="10.00">nanorq_generate_symbols</text>
</a>
</g>
</g>
<!-- Node5&#45;&gt;Node6 -->
<g id="edge4" class="edge"><title>Node5&#45;&gt;Node6</title>
<path fill="none" stroke="midnightblue" d="M501.327,-37.6945C512.559,-38.8736 523.949,-40.0692 534.8,-41.2083"/>
<polygon fill="midnightblue" stroke="midnightblue" points="501.387,-34.1817 491.077,-36.6185 500.657,-41.1435 501.387,-34.1817"/>
</g>
<!-- Node11 -->
<g id="node10" class="node"><title>Node11</title>
<g id="a_node10"><a xlink:href="precode_8c_a2b6a5db8f90fc98b364cb5ed3b5eca24.html#a2b6a5db8f90fc98b364cb5ed3b5eca24" target="_top" xlink:title="precode_matrix_intermediate2">
<polygon fill="none" stroke="black" points="527,-0.5 527,-19.5 674,-19.5 674,-0.5 527,-0.5"/>
<text text-anchor="middle" x="600.5" y="-7.5" font-family="Helvetica,sans-Serif" font-size="10.00">precode_matrix_intermediate2</text>
</a>
</g>
</g>
<!-- Node5&#45;&gt;Node11 -->
<g id="edge10" class="edge"><title>Node5&#45;&gt;Node11</title>
<path fill="none" stroke="midnightblue" d="M501.116,-20.3276C509.722,-19.4242 518.424,-18.5107 526.907,-17.6203"/>
<polygon fill="midnightblue" stroke="midnightblue" points="500.657,-16.8565 491.077,-21.3815 501.387,-23.8182 500.657,-16.8565"/>
</g>
<!-- Node7 -->
<g id="node6" class="node"><title>Node7</title>
<g id="a_node6"><a xlink:href="encode_8c_a3c04138a5bfe5d72780bb7e82a18e627.html#a3c04138a5bfe5d72780bb7e82a18e627" target="_top" xlink:title="main">
<polygon fill="none" stroke="black" points="1118,-57.5 1118,-76.5 1156,-76.5 1156,-57.5 1118,-57.5"/>
<text text-anchor="middle" x="1137" y="-64.5" font-family="Helvetica,sans-Serif" font-size="10.00">main</text>
</a>
</g>
</g>
<!-- Node6&#45;&gt;Node7 -->
<g id="edge5" class="edge"><title>Node6&#45;&gt;Node7</title>
<path fill="none" stroke="midnightblue" d="M655.55,-59.3642C672.86,-62.4925 692.163,-65.45 710,-67 867.308,-80.6695 1058.53,-71.5387 1117.68,-68.1302"/>
<polygon fill="midnightblue" stroke="midnightblue" points="656.087,-55.904 645.615,-57.5119 654.804,-62.7854 656.087,-55.904"/>
</g>
<!-- Node8 -->
<g id="node7" class="node"><title>Node8</title>
<g id="a_node7"><a xlink:href="nanorq_8c_a956615eb4ea3ce34369951295e93f708.html#a956615eb4ea3ce34369951295e93f708" target="_top" xlink:title="nanorq_encode">
<polygon fill="none" stroke="black" points="728.5,-38.5 728.5,-57.5 811.5,-57.5 811.5,-38.5 728.5,-38.5"/>
<text text-anchor="middle" x="770" y="-45.5" font-family="Helvetica,sans-Serif" font-size="10.00">nanorq_encode</text>
</a>
</g>
</g>
<!-- Node6&#45;&gt;Node8 -->
<g id="edge6" class="edge"><title>Node6&#45;&gt;Node8</title>
<path fill="none" stroke="midnightblue" d="M676.609,-48C694.33,-48 712.572,-48 728.117,-48"/>
<polygon fill="midnightblue" stroke="midnightblue" points="676.26,-44.5001 666.26,-48 676.26,-51.5001 676.26,-44.5001"/>
</g>
<!-- Node9 -->
<g id="node8" class="node"><title>Node9</title>
<g id="a_node8"><a xlink:href="encode_8c_a0993cb61d7e4c1b1a1606d159f5b1410.html#a0993cb61d7e4c1b1a1606d159f5b1410" target="_top" xlink:title="dump_esi">
<polygon fill="none" stroke="black" points="892,-38.5 892,-57.5 951,-57.5 951,-38.5 892,-38.5"/>
<text text-anchor="middle" x="921.5" y="-45.5" font-family="Helvetica,sans-Serif" font-size="10.00">dump_esi</text>
</a>
</g>
</g>
<!-- Node8&#45;&gt;Node9 -->
<g id="edge7" class="edge"><title>Node8&#45;&gt;Node9</title>
<path fill="none" stroke="midnightblue" d="M821.907,-48C845.14,-48 871.805,-48 891.542,-48"/>
<polygon fill="midnightblue" stroke="midnightblue" points="821.852,-44.5001 811.852,-48 821.851,-51.5001 821.852,-44.5001"/>
</g>
<!-- Node10 -->
<g id="node9" class="node"><title>Node10</title>
<g id="a_node9"><a xlink:href="encode_8c_ae7f8bbf4dcea92f802d2521fa0264f93.html#ae7f8bbf4dcea92f802d2521fa0264f93" target="_top" xlink:title="dump_block">
<polygon fill="none" stroke="black" points="1013,-38.5 1013,-57.5 1082,-57.5 1082,-38.5 1013,-38.5"/>
<text text-anchor="middle" x="1047.5" y="-45.5" font-family="Helvetica,sans-Serif" font-size="10.00">dump_block</text>
</a>
</g>
</g>
<!-- Node9&#45;&gt;Node10 -->
<g id="edge8" class="edge"><title>Node9&#45;&gt;Node10</title>
<path fill="none" stroke="midnightblue" d="M961.607,-48C977.984,-48 996.841,-48 1012.62,-48"/>
<polygon fill="midnightblue" stroke="midnightblue" points="961.26,-44.5001 951.26,-48 961.26,-51.5001 961.26,-44.5001"/>
</g>
<!-- Node10&#45;&gt;Node7 -->
<g id="edge9" class="edge"><title>Node10&#45;&gt;Node7</title>
<path fill="none" stroke="midnightblue" d="M1091.92,-57.4275C1101.06,-59.4126 1110.22,-61.402 1117.8,-63.0488"/>
<polygon fill="midnightblue" stroke="midnightblue" points="1092.59,-53.9933 1082.08,-55.2916 1091.11,-60.8339 1092.59,-53.9933"/>
</g>
<!-- Node12 -->
<g id="node11" class="node"><title>Node12</title>
<g id="a_node11"><a xlink:href="precode_8c_aee2113e8f8d7e54052fc8db5dd71fd1f.html#aee2113e8f8d7e54052fc8db5dd71fd1f" target="_top" xlink:title="precode_matrix_decode">
<polygon fill="none" stroke="black" points="710,-0.5 710,-19.5 830,-19.5 830,-0.5 710,-0.5"/>
<text text-anchor="middle" x="770" y="-7.5" font-family="Helvetica,sans-Serif" font-size="10.00">precode_matrix_decode</text>
</a>
</g>
</g>
<!-- Node11&#45;&gt;Node12 -->
<g id="edge11" class="edge"><title>Node11&#45;&gt;Node12</title>
<path fill="none" stroke="midnightblue" d="M684.496,-10C693.05,-10 701.614,-10 709.832,-10"/>
<polygon fill="midnightblue" stroke="midnightblue" points="684.481,-6.5001 674.481,-10 684.481,-13.5001 684.481,-6.5001"/>
</g>
<!-- Node13 -->
<g id="node12" class="node"><title>Node13</title>
<g id="a_node12"><a xlink:href="nanorq_8c_aa1dcf83669e76931be0e6e7a1f02c185.html#aa1dcf83669e76931be0e6e7a1f02c185" target="_top" xlink:title="nanorq_decode_block">
<polygon fill="none" stroke="black" points="866,-0.5 866,-19.5 977,-19.5 977,-0.5 866,-0.5"/>
<text text-anchor="middle" x="921.5" y="-7.5" font-family="Helvetica,sans-Serif" font-size="10.00">nanorq_decode_block</text>
</a>
</g>
</g>
<!-- Node12&#45;&gt;Node13 -->
<g id="edge12" class="edge"><title>Node12&#45;&gt;Node13</title>
<path fill="none" stroke="midnightblue" d="M840.104,-10C848.7,-10 857.396,-10 865.734,-10"/>
<polygon fill="midnightblue" stroke="midnightblue" points="840.086,-6.5001 830.086,-10 840.086,-13.5001 840.086,-6.5001"/>
</g>
<!-- Node14 -->
<g id="node13" class="node"><title>Node14</title>
<g id="a_node13"><a xlink:href="decode_8c_a3c04138a5bfe5d72780bb7e82a18e627.html#a3c04138a5bfe5d72780bb7e82a18e627" target="_top" xlink:title="main">
<polygon fill="none" stroke="black" points="1028.5,-0.5 1028.5,-19.5 1066.5,-19.5 1066.5,-0.5 1028.5,-0.5"/>
<text text-anchor="middle" x="1047.5" y="-7.5" font-family="Helvetica,sans-Serif" font-size="10.00">main</text>
</a>
</g>
</g>
<!-- Node13&#45;&gt;Node14 -->
<g id="edge13" class="edge"><title>Node13&#45;&gt;Node14</title>
<path fill="none" stroke="midnightblue" d="M987.661,-10C1002.71,-10 1017.5,-10 1028.49,-10"/>
<polygon fill="midnightblue" stroke="midnightblue" points="987.249,-6.5001 977.249,-10 987.249,-13.5001 987.249,-6.5001"/>
</g>
</g>
</svg>
