<?xml version="1.0" encoding="UTF-8" standalone="no"?>
<!DOCTYPE svg PUBLIC "-//W3C//DTD SVG 1.1//EN"
 "http://www.w3.org/Graphics/SVG/1.1/DTD/svg11.dtd">
<!-- Generated by graphviz version 2.38.0 (20140413.2041)
 -->
<!-- Title: graph_link Pages: 1 -->
<svg width="1170pt" height="85pt"
 viewBox="0.00 0.00 1170.00 85.00" xmlns="http://www.w3.org/2000/svg" xmlns:xlink="http://www.w3.org/1999/xlink">
<g id="graph0" class="graph" transform="scale(1 1) rotate(0) translate(4 81)">
<title>graph_link</title>
<!-- Node2 -->
<g id="node1" class="node"><title>Node2</title>
<polygon fill="#bfbfbf" stroke="black" points="0,-19.5 0,-38.5 61,-38.5 61,-19.5 0,-19.5"/>
<text text-anchor="middle" x="30.5" y="-26.5" font-family="Helvetica,sans-Serif" font-size="10.00">graph_link</text>
</g>
<!-- Node3 -->
<g id="node2" class="node"><title>Node3</title>
<g id="a_node2"><a xlink:href="chooser_8h_aa055b1a2f2a47c17f612c052a2607ae1.html#aa055b1a2f2a47c17f612c052a2607ae1" target="_top" xlink:title="chooser_non_zero">
<polygon fill="none" stroke="black" points="97,-19.5 97,-38.5 193,-38.5 193,-19.5 97,-19.5"/>
<text text-anchor="middle" x="145" y="-26.5" font-family="Helvetica,sans-Serif" font-size="10.00">chooser_non_zero</text>
</a>
</g>
</g>
<!-- Node2&#45;&gt;Node3 -->
<g id="edge1" class="edge"><title>Node2&#45;&gt;Node3</title>
<path fill="none" stroke="midnightblue" d="M71.2013,-29C79.4788,-29 88.2812,-29 96.7992,-29"/>
<polygon fill="midnightblue" stroke="midnightblue" points="71.0581,-25.5001 61.0581,-29 71.058,-32.5001 71.0581,-25.5001"/>
</g>
<!-- Node4 -->
<g id="node3" class="node"><title>Node4</title>
<g id="a_node3"><a xlink:href="precode_8c_adde325d451f8ec9eb7f8f4542d81e884.html#adde325d451f8ec9eb7f8f4542d81e884" target="_top" xlink:title="decode_phase1">
<polygon fill="none" stroke="black" points="229,-19.5 229,-38.5 314,-38.5 314,-19.5 229,-19.5"/>
<text text-anchor="middle" x="271.5" y="-26.5" font-family="Helvetica,sans-Serif" font-size="10.00">decode_phase1</text>
</a>
</g>
</g>
<!-- Node3&#45;&gt;Node4 -->
<g id="edge2" class="edge"><title>Node3&#45;&gt;Node4</title>
<path fill="none" stroke="midnightblue" d="M203.086,-29C211.706,-29 220.459,-29 228.678,-29"/>
<polygon fill="midnightblue" stroke="midnightblue" points="203.068,-25.5001 193.068,-29 203.068,-32.5001 203.068,-25.5001"/>
</g>
<!-- Node5 -->
<g id="node4" class="node"><title>Node5</title>
<g id="a_node4"><a xlink:href="precode_8c_a262ba8efa6b500c1e7a3cb0451245291.html#a262ba8efa6b500c1e7a3cb0451245291" target="_top" xlink:title="precode_matrix_intermediate1">
<polygon fill="none" stroke="black" points="350,-19.5 350,-38.5 497,-38.5 497,-19.5 350,-19.5"/>
<text text-anchor="middle" x="423.5" y="-26.5" font-family="Helvetica,sans-Serif" font-size="10.00">precode_matrix_intermediate1</text>
</a>
</g>
</g>
<!-- Node4&#45;&gt;Node5 -->
<g id="edge3" class="edge"><title>Node4&#45;&gt;Node5</title>
<path fill="none" stroke="midnightblue" d="M324.453,-29C332.682,-29 341.32,-29 349.917,-29"/>
<polygon fill="midnightblue" stroke="midnightblue" points="324.283,-25.5001 314.283,-29 324.283,-32.5001 324.283,-25.5001"/>
</g>
<!-- Node6 -->
<g id="node5" class="node"><title>Node6</title>
<g id="a_node5"><a xlink:href="nanorq_8c_ad6a9288685637cdfe83303f66b087a29.html#ad6a9288685637cdfe83303f66b087a29" target="_top" xlink:title="nanorq_generate_symbols">
<polygon fill="none" stroke="black" points="541,-38.5 541,-57.5 672,-57.5 672,-38.5 541,-38.5"/>
<text text-anchor="middle" x="606.5" y="-45.5" font-family="Helvetica,sans-Serif" font-size="10.00">nanorq_generate_symbols</text>
</a>
</g>
</g>
<!-- Node5&#45;&gt;Node6 -->
<g id="edge4" class="edge"><title>Node5&#45;&gt;Node6</title>
<path fill="none" stroke="midnightblue" d="M507.327,-37.6945C518.559,-38.8736 529.949,-40.0692 540.8,-41.2083"/>
<polygon fill="midnightblue" stroke="midnightblue" points="507.387,-34.1817 497.077,-36.6185 506.657,-41.1435 507.387,-34.1817"/>
</g>
<!-- Node11 -->
<g id="node10" class="node"><title>Node11</title>
<g id="a_node10"><a xlink:href="precode_8c_a2b6a5db8f90fc98b364cb5ed3b5eca24.html#a2b6a5db8f90fc98b364cb5ed3b5eca24" target="_top" xlink:title="precode_matrix_intermediate2">
<polygon fill="none" stroke="black" points="533,-0.5 533,-19.5 680,-19.5 680,-0.5 533,-0.5"/>
<text text-anchor="middle" x="606.5" y="-7.5" font-family="Helvetica,sans-Serif" font-size="10.00">precode_matrix_intermediate2</text>
</a>
</g>
</g>
<!-- Node5&#45;&gt;Node11 -->
<g id="edge10" class="edge"><title>Node5&#45;&gt;Node11</title>
<path fill="none" stroke="midnightblue" d="M507.116,-20.3276C515.722,-19.4242 524.424,-18.5107 532.907,-17.6203"/>
<polygon fill="midnightblue" stroke="midnightblue" points="506.657,-16.8565 497.077,-21.3815 507.387,-23.8182 506.657,-16.8565"/>
</g>
<!-- Node7 -->
<g id="node6" class="node"><title>Node7</title>
<g id="a_node6"><a xlink:href="encode_8c_a3c04138a5bfe5d72780bb7e82a18e627.html#a3c04138a5bfe5d72780bb7e82a18e627" target="_top" xlink:title="main">
<polygon fill="none" stroke="black" points="1124,-57.5 1124,-76.5 1162,-76.5 1162,-57.5 1124,-57.5"/>
<text text-anchor="middle" x="1143" y="-64.5" font-family="Helvetica,sans-Serif" font-size="10.00">main</text>
</a>
</g>
</g>
<!-- Node6&#45;&gt;Node7 -->
<g id="edge5" class="edge"><title>Node6&#45;&gt;Node7</title>
<path fill="none" stroke="midnightblue" d="M661.55,-59.3642C678.86,-62.4925 698.163,-65.45 716,-67 873.308,-80.6695 1064.53,-71.5387 1123.68,-68.1302"/>
<polygon fill="midnightblue" stroke="midnightblue" points="662.087,-55.904 651.615,-57.5119 660.804,-62.7854 662.087,-55.904"/>
</g>
<!-- Node8 -->
<g id="node7" class="node"><title>Node8</title>
<g id="a_node7"><a xlink:href="nanorq_8c_a956615eb4ea3ce34369951295e93f708.html#a956615eb4ea3ce34369951295e93f708" target="_top" xlink:title="nanorq_encode">
<polygon fill="none" stroke="black" points="734.5,-38.5 734.5,-57.5 817.5,-57.5 817.5,-38.5 734.5,-38.5"/>
<text text-anchor="middle" x="776" y="-45.5" font-family="Helvetica,sans-Serif" font-size="10.00">nanorq_encode</text>
</a>
</g>
</g>
<!-- Node6&#45;&gt;Node8 -->
<g id="edge6" class="edge"><title>Node6&#45;&gt;Node8</title>
<path fill="none" stroke="midnightblue" d="M682.609,-48C700.33,-48 718.572,-48 734.117,-48"/>
<polygon fill="midnightblue" stroke="midnightblue" points="682.26,-44.5001 672.26,-48 682.26,-51.5001 682.26,-44.5001"/>
</g>
<!-- Node9 -->
<g id="node8" class="node"><title>Node9</title>
<g id="a_node8"><a xlink:href="encode_8c_a0993cb61d7e4c1b1a1606d159f5b1410.html#a0993cb61d7e4c1b1a1606d159f5b1410" target="_top" xlink:title="dump_esi">
<polygon fill="none" stroke="black" points="898,-38.5 898,-57.5 957,-57.5 957,-38.5 898,-38.5"/>
<text text-anchor="middle" x="927.5" y="-45.5" font-family="Helvetica,sans-Serif" font-size="10.00">dump_esi</text>
</a>
</g>
</g>
<!-- Node8&#45;&gt;Node9 -->
<g id="edge7" class="edge"><title>Node8&#45;&gt;Node9</title>
<path fill="none" stroke="midnightblue" d="M827.907,-48C851.14,-48 877.805,-48 897.542,-48"/>
<polygon fill="midnightblue" stroke="midnightblue" points="827.852,-44.5001 817.852,-48 827.851,-51.5001 827.852,-44.5001"/>
</g>
<!-- Node10 -->
<g id="node9" class="node"><title>Node10</title>
<g id="a_node9"><a xlink:href="encode_8c_ae7f8bbf4dcea92f802d2521fa0264f93.html#ae7f8bbf4dcea92f802d2521fa0264f93" target="_top" xlink:title="dump_block">
<polygon fill="none" stroke="black" points="1019,-38.5 1019,-57.5 1088,-57.5 1088,-38.5 1019,-38.5"/>
<text text-anchor="middle" x="1053.5" y="-45.5" font-family="Helvetica,sans-Serif" font-size="10.00">dump_block</text>
</a>
</g>
</g>
<!-- Node9&#45;&gt;Node10 -->
<g id="edge8" class="edge"><title>Node9&#45;&gt;Node10</title>
<path fill="none" stroke="midnightblue" d="M967.607,-48C983.984,-48 1002.84,-48 1018.62,-48"/>
<polygon fill="midnightblue" stroke="midnightblue" points="967.26,-44.5001 957.26,-48 967.26,-51.5001 967.26,-44.5001"/>
</g>
<!-- Node10&#45;&gt;Node7 -->
<g id="edge9" class="edge"><title>Node10&#45;&gt;Node7</title>
<path fill="none" stroke="midnightblue" d="M1097.92,-57.4275C1107.06,-59.4126 1116.22,-61.402 1123.8,-63.0488"/>
<polygon fill="midnightblue" stroke="midnightblue" points="1098.59,-53.9933 1088.08,-55.2916 1097.11,-60.8339 1098.59,-53.9933"/>
</g>
<!-- Node12 -->
<g id="node11" class="node"><title>Node12</title>
<g id="a_node11"><a xlink:href="precode_8c_aee2113e8f8d7e54052fc8db5dd71fd1f.html#aee2113e8f8d7e54052fc8db5dd71fd1f" target="_top" xlink:title="precode_matrix_decode">
<polygon fill="none" stroke="black" points="716,-0.5 716,-19.5 836,-19.5 836,-0.5 716,-0.5"/>
<text text-anchor="middle" x="776" y="-7.5" font-family="Helvetica,sans-Serif" font-size="10.00">precode_matrix_decode</text>
</a>
</g>
</g>
<!-- Node11&#45;&gt;Node12 -->
<g id="edge11" class="edge"><title>Node11&#45;&gt;Node12</title>
<path fill="none" stroke="midnightblue" d="M690.496,-10C699.05,-10 707.614,-10 715.832,-10"/>
<polygon fill="midnightblue" stroke="midnightblue" points="690.481,-6.5001 680.481,-10 690.481,-13.5001 690.481,-6.5001"/>
</g>
<!-- Node13 -->
<g id="node12" class="node"><title>Node13</title>
<g id="a_node12"><a xlink:href="nanorq_8c_aa1dcf83669e76931be0e6e7a1f02c185.html#aa1dcf83669e76931be0e6e7a1f02c185" target="_top" xlink:title="nanorq_decode_block">
<polygon fill="none" stroke="black" points="872,-0.5 872,-19.5 983,-19.5 983,-0.5 872,-0.5"/>
<text text-anchor="middle" x="927.5" y="-7.5" font-family="Helvetica,sans-Serif" font-size="10.00">nanorq_decode_block</text>
</a>
</g>
</g>
<!-- Node12&#45;&gt;Node13 -->
<g id="edge12" class="edge"><title>Node12&#45;&gt;Node13</title>
<path fill="none" stroke="midnightblue" d="M846.104,-10C854.7,-10 863.396,-10 871.734,-10"/>
<polygon fill="midnightblue" stroke="midnightblue" points="846.086,-6.5001 836.086,-10 846.086,-13.5001 846.086,-6.5001"/>
</g>
<!-- Node14 -->
<g id="node13" class="node"><title>Node14</title>
<g id="a_node13"><a xlink:href="decode_8c_a3c04138a5bfe5d72780bb7e82a18e627.html#a3c04138a5bfe5d72780bb7e82a18e627" target="_top" xlink:title="main">
<polygon fill="none" stroke="black" points="1034.5,-0.5 1034.5,-19.5 1072.5,-19.5 1072.5,-0.5 1034.5,-0.5"/>
<text text-anchor="middle" x="1053.5" y="-7.5" font-family="Helvetica,sans-Serif" font-size="10.00">main</text>
</a>
</g>
</g>
<!-- Node13&#45;&gt;Node14 -->
<g id="edge13" class="edge"><title>Node13&#45;&gt;Node14</title>
<path fill="none" stroke="midnightblue" d="M993.661,-10C1008.71,-10 1023.5,-10 1034.49,-10"/>
<polygon fill="midnightblue" stroke="midnightblue" points="993.249,-6.5001 983.249,-10 993.249,-13.5001 993.249,-6.5001"/>
</g>
</g>
</svg>
