<?xml version="1.0" encoding="UTF-8" standalone="no"?>
<!DOCTYPE svg PUBLIC "-//W3C//DTD SVG 1.1//EN"
 "http://www.w3.org/Graphics/SVG/1.1/DTD/svg11.dtd">
<!-- Generated by graphviz version 2.38.0 (20140413.2041)
 -->
<!-- Title: ioctx_from_file Pages: 1 -->
<svg width="198pt" height="180pt"
 viewBox="0.00 0.00 198.00 180.00" xmlns="http://www.w3.org/2000/svg" xmlns:xlink="http://www.w3.org/1999/xlink">
<g id="graph0" class="graph" transform="scale(1 1) rotate(0) translate(4 176)">
<title>ioctx_from_file</title>
<!-- Node0 -->
<g id="node1" class="node"><title>Node0</title>
<polygon fill="#bfbfbf" stroke="black" points="0,-76.5 0,-95.5 80,-95.5 80,-76.5 0,-76.5"/>
<text text-anchor="middle" x="40" y="-83.5" font-family="Helvetica,sans-Serif" font-size="10.00">ioctx_from_file</text>
</g>
<!-- Node1 -->
<g id="node2" class="node"><title>Node1</title>
<g id="a_node2"><a xlink:href="io_8c_ac4987f98b53f67117c030844650d0446.html#ac4987f98b53f67117c030844650d0446" target="_top" xlink:title="fileio_destroy">
<polygon fill="none" stroke="black" points="116,-152.5 116,-171.5 190,-171.5 190,-152.5 116,-152.5"/>
<text text-anchor="middle" x="153" y="-159.5" font-family="Helvetica,sans-Serif" font-size="10.00">fileio_destroy</text>
</a>
</g>
</g>
<!-- Node0&#45;&gt;Node1 -->
<g id="edge1" class="edge"><title>Node0&#45;&gt;Node1</title>
<path fill="none" stroke="midnightblue" d="M52.5161,-95.7052C66.8786,-107.581 92.4213,-127.962 116,-143 118.322,-144.481 120.771,-145.951 123.255,-147.38"/>
<polygon fill="midnightblue" stroke="midnightblue" points="121.788,-150.567 132.238,-152.316 125.159,-144.432 121.788,-150.567"/>
</g>
<!-- Node2 -->
<g id="node3" class="node"><title>Node2</title>
<g id="a_node3"><a xlink:href="io_8c_a23b14756123f74eedd6a413f0fd2dcee.html#a23b14756123f74eedd6a413f0fd2dcee" target="_top" xlink:title="fileio_read">
<polygon fill="none" stroke="black" points="122.5,-114.5 122.5,-133.5 183.5,-133.5 183.5,-114.5 122.5,-114.5"/>
<text text-anchor="middle" x="153" y="-121.5" font-family="Helvetica,sans-Serif" font-size="10.00">fileio_read</text>
</a>
</g>
</g>
<!-- Node0&#45;&gt;Node2 -->
<g id="edge2" class="edge"><title>Node0&#45;&gt;Node2</title>
<path fill="none" stroke="midnightblue" d="M69.01,-95.589C82.6817,-100.269 99.331,-105.969 114.118,-111.032"/>
<polygon fill="midnightblue" stroke="midnightblue" points="113.404,-114.486 123.999,-114.414 115.672,-107.864 113.404,-114.486"/>
</g>
<!-- Node3 -->
<g id="node4" class="node"><title>Node3</title>
<g id="a_node4"><a xlink:href="io_8c_a437c80e8d6caac9daec5b8289503cb1d.html#a437c80e8d6caac9daec5b8289503cb1d" target="_top" xlink:title="fileio_seek">
<polygon fill="none" stroke="black" points="121.5,-76.5 121.5,-95.5 184.5,-95.5 184.5,-76.5 121.5,-76.5"/>
<text text-anchor="middle" x="153" y="-83.5" font-family="Helvetica,sans-Serif" font-size="10.00">fileio_seek</text>
</a>
</g>
</g>
<!-- Node0&#45;&gt;Node3 -->
<g id="edge3" class="edge"><title>Node0&#45;&gt;Node3</title>
<path fill="none" stroke="midnightblue" d="M80.1344,-86C90.1407,-86 100.926,-86 111.022,-86"/>
<polygon fill="midnightblue" stroke="midnightblue" points="111.232,-89.5001 121.232,-86 111.232,-82.5001 111.232,-89.5001"/>
</g>
<!-- Node4 -->
<g id="node5" class="node"><title>Node4</title>
<g id="a_node5"><a xlink:href="io_8c_a7f598ade579934c66b41f35bf492a376.html#a7f598ade579934c66b41f35bf492a376" target="_top" xlink:title="fileio_size">
<polygon fill="none" stroke="black" points="123,-38.5 123,-57.5 183,-57.5 183,-38.5 123,-38.5"/>
<text text-anchor="middle" x="153" y="-45.5" font-family="Helvetica,sans-Serif" font-size="10.00">fileio_size</text>
</a>
</g>
</g>
<!-- Node0&#45;&gt;Node4 -->
<g id="edge4" class="edge"><title>Node0&#45;&gt;Node4</title>
<path fill="none" stroke="midnightblue" d="M69.01,-76.411C82.6817,-71.7306 99.331,-66.0308 114.118,-60.9685"/>
<polygon fill="midnightblue" stroke="midnightblue" points="115.672,-64.1362 123.999,-57.5859 113.404,-57.5136 115.672,-64.1362"/>
</g>
<!-- Node5 -->
<g id="node6" class="node"><title>Node5</title>
<g id="a_node6"><a xlink:href="io_8c_a6ec63dcb76a7a2a1ab253b88130a05d6.html#a6ec63dcb76a7a2a1ab253b88130a05d6" target="_top" xlink:title="fileio_write">
<polygon fill="none" stroke="black" points="121.5,-0.5 121.5,-19.5 184.5,-19.5 184.5,-0.5 121.5,-0.5"/>
<text text-anchor="middle" x="153" y="-7.5" font-family="Helvetica,sans-Serif" font-size="10.00">fileio_write</text>
</a>
</g>
</g>
<!-- Node0&#45;&gt;Node5 -->
<g id="edge5" class="edge"><title>Node0&#45;&gt;Node5</title>
<path fill="none" stroke="midnightblue" d="M52.5161,-76.2948C66.8786,-64.4188 92.4213,-44.0384 116,-29 118.322,-27.5191 120.771,-26.0488 123.255,-24.6202"/>
<polygon fill="midnightblue" stroke="midnightblue" points="125.159,-27.5676 132.238,-19.6844 121.788,-21.4328 125.159,-27.5676"/>
</g>
</g>
</svg>
