<?xml version="1.0" encoding="UTF-8" standalone="no"?>
<!DOCTYPE svg PUBLIC "-//W3C//DTD SVG 1.1//EN"
 "http://www.w3.org/Graphics/SVG/1.1/DTD/svg11.dtd">
<!-- Generated by graphviz version 2.38.0 (20140413.2041)
 -->
<!-- Title: fileio_seek Pages: 1 -->
<svg width="261pt" height="28pt"
 viewBox="0.00 0.00 261.00 28.00" xmlns="http://www.w3.org/2000/svg" xmlns:xlink="http://www.w3.org/1999/xlink">
<g id="graph0" class="graph" transform="scale(1 1) rotate(0) translate(4 24)">
<title>fileio_seek</title>
<!-- Node1 -->
<g id="node1" class="node"><title>Node1</title>
<polygon fill="#bfbfbf" stroke="black" points="0,-0.5 0,-19.5 63,-19.5 63,-0.5 0,-0.5"/>
<text text-anchor="middle" x="31.5" y="-7.5" font-family="Helvetica,sans-Serif" font-size="10.00">fileio_seek</text>
</g>
<!-- Node2 -->
<g id="node2" class="node"><title>Node2</title>
<g id="a_node2"><a xlink:href="io_8c_a32215e78dd8a449ad2242009fb4dfa93.html#a32215e78dd8a449ad2242009fb4dfa93" target="_top" xlink:title="ioctx_from_file">
<polygon fill="none" stroke="black" points="99,-0.5 99,-19.5 179,-19.5 179,-0.5 99,-0.5"/>
<text text-anchor="middle" x="139" y="-7.5" font-family="Helvetica,sans-Serif" font-size="10.00">ioctx_from_file</text>
</a>
</g>
</g>
<!-- Node1&#45;&gt;Node2 -->
<g id="edge1" class="edge"><title>Node1&#45;&gt;Node2</title>
<path fill="none" stroke="midnightblue" d="M73.0721,-10C81.5495,-10 90.4708,-10 98.8937,-10"/>
<polygon fill="midnightblue" stroke="midnightblue" points="73.015,-6.5001 63.015,-10 73.0149,-13.5001 73.015,-6.5001"/>
</g>
<!-- Node3 -->
<g id="node3" class="node"><title>Node3</title>
<g id="a_node3"><a xlink:href="decode_8c_a3c04138a5bfe5d72780bb7e82a18e627.html#a3c04138a5bfe5d72780bb7e82a18e627" target="_top" xlink:title="main">
<polygon fill="none" stroke="black" points="215,-0.5 215,-19.5 253,-19.5 253,-0.5 215,-0.5"/>
<text text-anchor="middle" x="234" y="-7.5" font-family="Helvetica,sans-Serif" font-size="10.00">main</text>
</a>
</g>
</g>
<!-- Node2&#45;&gt;Node3 -->
<g id="edge2" class="edge"><title>Node2&#45;&gt;Node3</title>
<path fill="none" stroke="midnightblue" d="M189.354,-10C198.385,-10 207.271,-10 214.644,-10"/>
<polygon fill="midnightblue" stroke="midnightblue" points="189.171,-6.5001 179.171,-10 189.171,-13.5001 189.171,-6.5001"/>
</g>
</g>
</svg>
