<?xml version="1.0" encoding="UTF-8" standalone="no"?>
<!DOCTYPE svg PUBLIC "-//W3C//DTD SVG 1.1//EN"
 "http://www.w3.org/Graphics/SVG/1.1/DTD/svg11.dtd">
<!-- Generated by graphviz version 2.38.0 (20140413.2041)
 -->
<!-- Title: kvec.h Pages: 1 -->
<svg width="436pt" height="84pt"
 viewBox="0.00 0.00 436.00 84.00" xmlns="http://www.w3.org/2000/svg" xmlns:xlink="http://www.w3.org/1999/xlink">
<g id="graph0" class="graph" transform="scale(1 1) rotate(0) translate(4 80)">
<title>kvec.h</title>
<!-- Node1 -->
<g id="node1" class="node"><title>Node1</title>
<polygon fill="#bfbfbf" stroke="black" points="190.5,-56.5 190.5,-75.5 236.5,-75.5 236.5,-56.5 190.5,-56.5"/>
<text text-anchor="middle" x="213.5" y="-63.5" font-family="Helvetica,sans-Serif" font-size="10.00">kvec.h</text>
</g>
<!-- Node2 -->
<g id="node2" class="node"><title>Node2</title>
<g id="a_node2"><a xlink:href="bitmask_8c.html" target="_top" xlink:title="bitmask.c">
<polygon fill="none" stroke="black" points="0,-0.5 0,-19.5 59,-19.5 59,-0.5 0,-0.5"/>
<text text-anchor="middle" x="29.5" y="-7.5" font-family="Helvetica,sans-Serif" font-size="10.00">bitmask.c</text>
</a>
</g>
</g>
<!-- Node1&#45;&gt;Node2 -->
<g id="edge1" class="edge"><title>Node1&#45;&gt;Node2</title>
<path fill="none" stroke="midnightblue" d="M180.535,-55.3254C145.867,-45.1513 91.8392,-29.2952 58.6712,-19.5611"/>
<polygon fill="midnightblue" stroke="midnightblue" points="179.615,-58.7031 190.196,-58.1609 181.587,-51.9864 179.615,-58.7031"/>
</g>
<!-- Node3 -->
<g id="node3" class="node"><title>Node3</title>
<g id="a_node3"><a xlink:href="chooser_8c.html" target="_top" xlink:title="chooser.c">
<polygon fill="none" stroke="black" points="77,-0.5 77,-19.5 136,-19.5 136,-0.5 77,-0.5"/>
<text text-anchor="middle" x="106.5" y="-7.5" font-family="Helvetica,sans-Serif" font-size="10.00">chooser.c</text>
</a>
</g>
</g>
<!-- Node1&#45;&gt;Node3 -->
<g id="edge2" class="edge"><title>Node1&#45;&gt;Node3</title>
<path fill="none" stroke="midnightblue" d="M187.198,-51.7261C167.385,-41.7271 140.793,-28.3065 123.649,-19.6545"/>
<polygon fill="midnightblue" stroke="midnightblue" points="185.804,-54.9431 196.309,-56.324 188.958,-48.6938 185.804,-54.9431"/>
</g>
<!-- Node4 -->
<g id="node4" class="node"><title>Node4</title>
<g id="a_node4"><a xlink:href="graph_8c.html" target="_top" xlink:title="graph.c">
<polygon fill="none" stroke="black" points="154,-0.5 154,-19.5 203,-19.5 203,-0.5 154,-0.5"/>
<text text-anchor="middle" x="178.5" y="-7.5" font-family="Helvetica,sans-Serif" font-size="10.00">graph.c</text>
</a>
</g>
</g>
<!-- Node1&#45;&gt;Node4 -->
<g id="edge3" class="edge"><title>Node1&#45;&gt;Node4</title>
<path fill="none" stroke="midnightblue" d="M202.2,-47.5656C196.178,-38.2747 189.031,-27.2484 184.172,-19.7511"/>
<polygon fill="midnightblue" stroke="midnightblue" points="199.344,-49.5951 207.72,-56.083 205.219,-45.7878 199.344,-49.5951"/>
</g>
<!-- Node5 -->
<g id="node5" class="node"><title>Node5</title>
<g id="a_node5"><a xlink:href="nanorq_8c.html" target="_top" xlink:title="nanorq.c">
<polygon fill="none" stroke="black" points="221.5,-0.5 221.5,-19.5 275.5,-19.5 275.5,-0.5 221.5,-0.5"/>
<text text-anchor="middle" x="248.5" y="-7.5" font-family="Helvetica,sans-Serif" font-size="10.00">nanorq.c</text>
</a>
</g>
</g>
<!-- Node1&#45;&gt;Node5 -->
<g id="edge4" class="edge"><title>Node1&#45;&gt;Node5</title>
<path fill="none" stroke="midnightblue" d="M224.8,-47.5656C230.822,-38.2747 237.969,-27.2484 242.828,-19.7511"/>
<polygon fill="midnightblue" stroke="midnightblue" points="221.781,-45.7878 219.28,-56.083 227.656,-49.5951 221.781,-45.7878"/>
</g>
<!-- Node6 -->
<g id="node6" class="node"><title>Node6</title>
<g id="a_node6"><a xlink:href="params_8c.html" target="_top" xlink:title="params.c">
<polygon fill="none" stroke="black" points="294,-0.5 294,-19.5 351,-19.5 351,-0.5 294,-0.5"/>
<text text-anchor="middle" x="322.5" y="-7.5" font-family="Helvetica,sans-Serif" font-size="10.00">params.c</text>
</a>
</g>
</g>
<!-- Node1&#45;&gt;Node6 -->
<g id="edge5" class="edge"><title>Node1&#45;&gt;Node6</title>
<path fill="none" stroke="midnightblue" d="M240.019,-51.8622C260.23,-41.8492 287.487,-28.3458 305.031,-19.6545"/>
<polygon fill="midnightblue" stroke="midnightblue" points="238.42,-48.7485 231.013,-56.324 241.527,-55.0209 238.42,-48.7485"/>
</g>
<!-- Node7 -->
<g id="node7" class="node"><title>Node7</title>
<g id="a_node7"><a xlink:href="precode_8c.html" target="_top" xlink:title="precode.c">
<polygon fill="none" stroke="black" points="369,-0.5 369,-19.5 428,-19.5 428,-0.5 369,-0.5"/>
<text text-anchor="middle" x="398.5" y="-7.5" font-family="Helvetica,sans-Serif" font-size="10.00">precode.c</text>
</a>
</g>
</g>
<!-- Node1&#45;&gt;Node7 -->
<g id="edge6" class="edge"><title>Node1&#45;&gt;Node7</title>
<path fill="none" stroke="midnightblue" d="M246.274,-55.4336C281.179,-45.2451 335.906,-29.2707 369.356,-19.5069"/>
<polygon fill="midnightblue" stroke="midnightblue" points="245.175,-52.1082 236.556,-58.27 247.136,-58.8278 245.175,-52.1082"/>
</g>
</g>
</svg>
