<?xml version="1.0" encoding="UTF-8" standalone="no"?>
<!DOCTYPE svg PUBLIC "-//W3C//DTD SVG 1.1//EN"
 "http://www.w3.org/Graphics/SVG/1.1/DTD/svg11.dtd">
<!-- Generated by graphviz version 2.38.0 (20140413.2041)
 -->
<!-- Title: nanorq_block_symbols Pages: 1 -->
<!--zoomable 308 -->
<svg id="main" version="1.1" xmlns="http://www.w3.org/2000/svg" xmlns:xlink="http://www.w3.org/1999/xlink" xml:space="preserve" onload="init(evt)">
<style type="text/css"><![CDATA[
.edge:hover path { stroke: red; }
.edge:hover polygon { stroke: red; fill: red; }
]]></style>
<script type="text/javascript"><![CDATA[
var edges = document.getElementsByTagName('g');
if (edges && edges.length) {
  for (var i=0;i<edges.length;i++) {
    if (edges[i].id.substr(0,4)=='edge') {
      edges[i].setAttribute('class','edge');
    }
  }
}
]]></script>
        <defs>
                <circle id="rim" cx="0" cy="0" r="7"/>
                <circle id="rim2" cx="0" cy="0" r="3.5"/>
                <g id="zoomPlus">
                        <use xlink:href="#rim" fill="#404040">
                                <set attributeName="fill" to="#808080" begin="zoomplus.mouseover" end="zoomplus.mouseout"/>
                        </use>
                        <path d="M-4,0h8M0,-4v8" fill="none" stroke="white" stroke-width="1.5" pointer-events="none"/>
                </g>
                <g id="zoomMin">
                        <use xlink:href="#rim" fill="#404040">
                                <set attributeName="fill" to="#808080" begin="zoomminus.mouseover" end="zoomminus.mouseout"/>
                        </use>
                        <path d="M-4,0h8" fill="none" stroke="white" stroke-width="1.5" pointer-events="none"/>
                </g>
                <g id="dirArrow">
                        <path fill="none" stroke="white" stroke-width="1.5" d="M0,-3.0v7 M-2.5,-0.5L0,-3.0L2.5,-0.5"/>
                </g>
               <g id="resetDef">
                       <use xlink:href="#rim2" fill="#404040">
                               <set attributeName="fill" to="#808080" begin="reset.mouseover" end="reset.mouseout"/>
                       </use>
               </g>
        </defs>

<script type="text/javascript">
var viewWidth = 834;
var viewHeight = 308;
var sectionId = 'dynsection-0';
</script>
<script xlink:href="svgpan.js"/>
<svg id="graph" class="graph">
<g id="viewport">
<title>nanorq_block_symbols</title>
<!-- Node1 -->
<g id="node1" class="node"><title>Node1</title>
<polygon fill="#bfbfbf" stroke="black" points="0,-107 0,-126 116,-126 116,-107 0,-107"/>
<text text-anchor="middle" x="58" y="-114" font-family="Helvetica,sans-Serif" font-size="10.00">nanorq_block_symbols</text>
</g>
<!-- Node2 -->
<g id="node2" class="node"><title>Node2</title>
<g id="a_node2"><a xlink:href="encode_8c_ae7f8bbf4dcea92f802d2521fa0264f93.html#ae7f8bbf4dcea92f802d2521fa0264f93" target="_top" xlink:title="dump_block">
<polygon fill="none" stroke="black" points="683,-50 683,-69 752,-69 752,-50 683,-50"/>
<text text-anchor="middle" x="717.5" y="-57" font-family="Helvetica,sans-Serif" font-size="10.00">dump_block</text>
</a>
</g>
</g>
<!-- Node1&#45;&gt;Node2 -->
<g id="edge1" class="edge"><title>Node1&#45;&gt;Node2</title>
<path fill="none" stroke="midnightblue" d="M71.4326,-134.452C87.6567,-156.691 118.015,-194.455 152,-217.5 236.472,-274.781 264.438,-299.5 366.5,-299.5 366.5,-299.5 366.5,-299.5 511.5,-299.5 634.795,-299.5 699.718,-114.106 713.634,-69.2055"/>
<polygon fill="midnightblue" stroke="midnightblue" points="74.2175,-132.329 65.5591,-126.223 68.52,-136.395 74.2175,-132.329"/>
</g>
<!-- Node4 -->
<g id="node4" class="node"><title>Node4</title>
<g id="a_node4"><a xlink:href="decode_8c_a3c04138a5bfe5d72780bb7e82a18e627.html#a3c04138a5bfe5d72780bb7e82a18e627" target="_top" xlink:title="main">
<polygon fill="none" stroke="black" points="491.5,-170 491.5,-189 529.5,-189 529.5,-170 491.5,-170"/>
<text text-anchor="middle" x="510.5" y="-177" font-family="Helvetica,sans-Serif" font-size="10.00">main</text>
</a>
</g>
</g>
<!-- Node1&#45;&gt;Node4 -->
<g id="edge3" class="edge"><title>Node1&#45;&gt;Node4</title>
<path fill="none" stroke="midnightblue" d="M80.066,-131.936C120.562,-160.539 213.15,-220.835 302,-242.5 358.565,-256.293 378.198,-262.161 433,-242.5 462.798,-231.81 489.281,-203.941 501.821,-189.11"/>
<polygon fill="midnightblue" stroke="midnightblue" points="81.9657,-128.991 71.7959,-126.02 77.8932,-134.685 81.9657,-128.991"/>
</g>
<!-- Node5 -->
<g id="node5" class="node"><title>Node5</title>
<g id="a_node5"><a xlink:href="nanorq_8c_a9e0825ce320f90492e45baad6a50ff4c.html#a9e0825ce320f90492e45baad6a50ff4c" target="_top" xlink:title="nanorq_block_decoder">
<polygon fill="none" stroke="black" points="152,-126 152,-145 266,-145 266,-126 152,-126"/>
<text text-anchor="middle" x="209" y="-133" font-family="Helvetica,sans-Serif" font-size="10.00">nanorq_block_decoder</text>
</a>
</g>
</g>
<!-- Node1&#45;&gt;Node5 -->
<g id="edge4" class="edge"><title>Node1&#45;&gt;Node5</title>
<path fill="none" stroke="midnightblue" d="M126.129,-125.06C134.677,-126.15 143.356,-127.257 151.709,-128.322"/>
<polygon fill="midnightblue" stroke="midnightblue" points="126.544,-121.585 116.181,-123.792 125.658,-128.528 126.544,-121.585"/>
</g>
<!-- Node8 -->
<g id="node8" class="node"><title>Node8</title>
<g id="a_node8"><a xlink:href="nanorq_8c_a327401e07be8814bccd6c39facecdbe1.html#a327401e07be8814bccd6c39facecdbe1" target="_top" xlink:title="nanorq_num_missing">
<polygon fill="none" stroke="black" points="313,-88 313,-107 422,-107 422,-88 313,-88"/>
<text text-anchor="middle" x="367.5" y="-95" font-family="Helvetica,sans-Serif" font-size="10.00">nanorq_num_missing</text>
</a>
</g>
</g>
<!-- Node1&#45;&gt;Node8 -->
<g id="edge21" class="edge"><title>Node1&#45;&gt;Node8</title>
<path fill="none" stroke="midnightblue" d="M126.297,-112.342C182.286,-108.882 260.937,-104.023 312.778,-100.819"/>
<polygon fill="midnightblue" stroke="midnightblue" points="125.883,-108.861 116.118,-112.971 126.315,-115.847 125.883,-108.861"/>
</g>
<!-- Node10 -->
<g id="node10" class="node"><title>Node10</title>
<g id="a_node10"><a xlink:href="nanorq_8c_ae51b5ce95f964fb7c4141edd8128dc0e.html#ae51b5ce95f964fb7c4141edd8128dc0e" target="_top" xlink:title="nanorq_block_encoder">
<polygon fill="none" stroke="black" points="152,-50 152,-69 266,-69 266,-50 152,-50"/>
<text text-anchor="middle" x="209" y="-57" font-family="Helvetica,sans-Serif" font-size="10.00">nanorq_block_encoder</text>
</a>
</g>
</g>
<!-- Node1&#45;&gt;Node10 -->
<g id="edge13" class="edge"><title>Node1&#45;&gt;Node10</title>
<path fill="none" stroke="midnightblue" d="M93.513,-103.297C120.872,-92.831 158.454,-78.4538 182.979,-69.0716"/>
<polygon fill="midnightblue" stroke="midnightblue" points="92.0286,-100.117 83.9392,-106.959 94.5297,-106.655 92.0286,-100.117"/>
</g>
<!-- Node14 -->
<g id="node14" class="node"><title>Node14</title>
<g id="a_node14"><a xlink:href="nanorq_8c_a6420b464baadc3000ee0a833d6b4aeff.html#a6420b464baadc3000ee0a833d6b4aeff" target="_top" xlink:title="nanorq_encoder_max\l_repair">
<polygon fill="none" stroke="black" points="154,-0.5 154,-30.5 264,-30.5 264,-0.5 154,-0.5"/>
<text text-anchor="start" x="162" y="-18.5" font-family="Helvetica,sans-Serif" font-size="10.00">nanorq_encoder_max</text>
<text text-anchor="middle" x="209" y="-7.5" font-family="Helvetica,sans-Serif" font-size="10.00">_repair</text>
</a>
</g>
</g>
<!-- Node1&#45;&gt;Node14 -->
<g id="edge20" class="edge"><title>Node1&#45;&gt;Node14</title>
<path fill="none" stroke="midnightblue" d="M76.3011,-99.9728C94.2162,-83.4556 123.525,-58.0564 152,-40.5 157.8,-36.9238 164.2,-33.5732 170.538,-30.5589"/>
<polygon fill="midnightblue" stroke="midnightblue" points="73.8307,-97.491 68.9155,-106.877 78.6109,-102.605 73.8307,-97.491"/>
</g>
<!-- Node3 -->
<g id="node3" class="node"><title>Node3</title>
<g id="a_node3"><a xlink:href="encode_8c_a3c04138a5bfe5d72780bb7e82a18e627.html#a3c04138a5bfe5d72780bb7e82a18e627" target="_top" xlink:title="main">
<polygon fill="none" stroke="black" points="788,-31 788,-50 826,-50 826,-31 788,-31"/>
<text text-anchor="middle" x="807" y="-38" font-family="Helvetica,sans-Serif" font-size="10.00">main</text>
</a>
</g>
</g>
<!-- Node2&#45;&gt;Node3 -->
<g id="edge2" class="edge"><title>Node2&#45;&gt;Node3</title>
<path fill="none" stroke="midnightblue" d="M761.916,-50.0725C771.058,-48.0874 780.22,-46.098 787.804,-44.4512"/>
<polygon fill="midnightblue" stroke="midnightblue" points="761.109,-46.6661 752.08,-52.2084 762.595,-53.5067 761.109,-46.6661"/>
</g>
<!-- Node6 -->
<g id="node6" class="node"><title>Node6</title>
<g id="a_node6"><a xlink:href="nanorq_8c_aa1dcf83669e76931be0e6e7a1f02c185.html#aa1dcf83669e76931be0e6e7a1f02c185" target="_top" xlink:title="nanorq_decode_block">
<polygon fill="none" stroke="black" points="312,-214 312,-233 423,-233 423,-214 312,-214"/>
<text text-anchor="middle" x="367.5" y="-221" font-family="Helvetica,sans-Serif" font-size="10.00">nanorq_decode_block</text>
</a>
</g>
</g>
<!-- Node5&#45;&gt;Node6 -->
<g id="edge5" class="edge"><title>Node5&#45;&gt;Node6</title>
<path fill="none" stroke="midnightblue" d="M227.975,-152.091C245.632,-167.6 273.935,-190.421 302,-204.5 309.408,-208.217 317.669,-211.333 325.739,-213.896"/>
<polygon fill="midnightblue" stroke="midnightblue" points="229.994,-149.201 220.21,-145.136 225.323,-154.415 229.994,-149.201"/>
</g>
<!-- Node7 -->
<g id="node7" class="node"><title>Node7</title>
<g id="a_node7"><a xlink:href="nanorq_8c_a4199d347f3a4d6e329a6b76fde635121.html#a4199d347f3a4d6e329a6b76fde635121" target="_top" xlink:title="nanorq_decoder_add\l_symbol">
<polygon fill="none" stroke="black" points="314,-164.5 314,-194.5 421,-194.5 421,-164.5 314,-164.5"/>
<text text-anchor="start" x="322" y="-182.5" font-family="Helvetica,sans-Serif" font-size="10.00">nanorq_decoder_add</text>
<text text-anchor="middle" x="367.5" y="-171.5" font-family="Helvetica,sans-Serif" font-size="10.00">_symbol</text>
</a>
</g>
</g>
<!-- Node5&#45;&gt;Node7 -->
<g id="edge7" class="edge"><title>Node5&#45;&gt;Node7</title>
<path fill="none" stroke="midnightblue" d="M253.669,-147.778C272.331,-153.024 294.279,-159.195 313.832,-164.692"/>
<polygon fill="midnightblue" stroke="midnightblue" points="254.532,-144.385 243.958,-145.047 252.638,-151.123 254.532,-144.385"/>
</g>
<!-- Node5&#45;&gt;Node8 -->
<g id="edge9" class="edge"><title>Node5&#45;&gt;Node8</title>
<path fill="none" stroke="midnightblue" d="M259.289,-123.532C281.22,-118.207 306.685,-112.024 327.292,-107.02"/>
<polygon fill="midnightblue" stroke="midnightblue" points="258.383,-120.15 249.492,-125.911 260.035,-126.953 258.383,-120.15"/>
</g>
<!-- Node9 -->
<g id="node9" class="node"><title>Node9</title>
<g id="a_node9"><a xlink:href="nanorq_8c_a629b649caa8a354b60fe63cd1570a061.html#a629b649caa8a354b60fe63cd1570a061" target="_top" xlink:title="nanorq_num_repair">
<polygon fill="none" stroke="black" points="318,-126 318,-145 417,-145 417,-126 318,-126"/>
<text text-anchor="middle" x="367.5" y="-133" font-family="Helvetica,sans-Serif" font-size="10.00">nanorq_num_repair</text>
</a>
</g>
</g>
<!-- Node5&#45;&gt;Node9 -->
<g id="edge11" class="edge"><title>Node5&#45;&gt;Node9</title>
<path fill="none" stroke="midnightblue" d="M276.123,-135.5C290.11,-135.5 304.627,-135.5 317.828,-135.5"/>
<polygon fill="midnightblue" stroke="midnightblue" points="276.058,-132 266.058,-135.5 276.058,-139 276.058,-132"/>
</g>
<!-- Node6&#45;&gt;Node4 -->
<g id="edge6" class="edge"><title>Node6&#45;&gt;Node4</title>
<path fill="none" stroke="midnightblue" d="M411.38,-211.06C418.608,-208.909 426.025,-206.666 433,-204.5 453.015,-198.283 475.839,-190.768 491.309,-185.611"/>
<polygon fill="midnightblue" stroke="midnightblue" points="410.298,-207.73 401.701,-213.923 412.283,-214.443 410.298,-207.73"/>
</g>
<!-- Node7&#45;&gt;Node4 -->
<g id="edge8" class="edge"><title>Node7&#45;&gt;Node4</title>
<path fill="none" stroke="midnightblue" d="M431.295,-179.5C453.187,-179.5 476.082,-179.5 491.4,-179.5"/>
<polygon fill="midnightblue" stroke="midnightblue" points="431.003,-176 421.003,-179.5 431.003,-183 431.003,-176"/>
</g>
<!-- Node8&#45;&gt;Node4 -->
<g id="edge10" class="edge"><title>Node8&#45;&gt;Node4</title>
<path fill="none" stroke="midnightblue" d="M419.63,-110.452C424.25,-112.249 428.775,-114.259 433,-116.5 460.359,-131.012 487.065,-156.263 500.51,-169.976"/>
<polygon fill="midnightblue" stroke="midnightblue" points="420.673,-107.109 410.078,-107.061 418.331,-113.705 420.673,-107.109"/>
</g>
<!-- Node9&#45;&gt;Node4 -->
<g id="edge12" class="edge"><title>Node9&#45;&gt;Node4</title>
<path fill="none" stroke="midnightblue" d="M409.139,-148.079C417.054,-150.535 425.288,-153.095 433,-155.5 452.932,-161.717 475.771,-168.888 491.266,-173.761"/>
<polygon fill="midnightblue" stroke="midnightblue" points="409.934,-144.661 399.346,-145.042 407.861,-151.347 409.934,-144.661"/>
</g>
<!-- Node11 -->
<g id="node11" class="node"><title>Node11</title>
<g id="a_node11"><a xlink:href="nanorq_8c_a956615eb4ea3ce34369951295e93f708.html#a956615eb4ea3ce34369951295e93f708" target="_top" xlink:title="nanorq_encode">
<polygon fill="none" stroke="black" points="469,-50 469,-69 552,-69 552,-50 469,-50"/>
<text text-anchor="middle" x="510.5" y="-57" font-family="Helvetica,sans-Serif" font-size="10.00">nanorq_encode</text>
</a>
</g>
</g>
<!-- Node10&#45;&gt;Node11 -->
<g id="edge14" class="edge"><title>Node10&#45;&gt;Node11</title>
<path fill="none" stroke="midnightblue" d="M276.65,-59.5C335.502,-59.5 419.412,-59.5 468.787,-59.5"/>
<polygon fill="midnightblue" stroke="midnightblue" points="276.334,-56.0001 266.334,-59.5 276.334,-63.0001 276.334,-56.0001"/>
</g>
<!-- Node13 -->
<g id="node13" class="node"><title>Node13</title>
<g id="a_node13"><a xlink:href="nanorq_8c_ad6a9288685637cdfe83303f66b087a29.html#ad6a9288685637cdfe83303f66b087a29" target="_top" xlink:title="nanorq_generate_symbols">
<polygon fill="none" stroke="black" points="302,-12 302,-31 433,-31 433,-12 302,-12"/>
<text text-anchor="middle" x="367.5" y="-19" font-family="Helvetica,sans-Serif" font-size="10.00">nanorq_generate_symbols</text>
</a>
</g>
</g>
<!-- Node10&#45;&gt;Node13 -->
<g id="edge17" class="edge"><title>Node10&#45;&gt;Node13</title>
<path fill="none" stroke="midnightblue" d="M259.289,-47.532C281.22,-42.2069 306.685,-36.0238 327.292,-31.0201"/>
<polygon fill="midnightblue" stroke="midnightblue" points="258.383,-44.1502 249.492,-49.911 260.035,-50.9525 258.383,-44.1502"/>
</g>
<!-- Node12 -->
<g id="node12" class="node"><title>Node12</title>
<g id="a_node12"><a xlink:href="encode_8c_a0993cb61d7e4c1b1a1606d159f5b1410.html#a0993cb61d7e4c1b1a1606d159f5b1410" target="_top" xlink:title="dump_esi">
<polygon fill="none" stroke="black" points="588,-50 588,-69 647,-69 647,-50 588,-50"/>
<text text-anchor="middle" x="617.5" y="-57" font-family="Helvetica,sans-Serif" font-size="10.00">dump_esi</text>
</a>
</g>
</g>
<!-- Node11&#45;&gt;Node12 -->
<g id="edge15" class="edge"><title>Node11&#45;&gt;Node12</title>
<path fill="none" stroke="midnightblue" d="M562.272,-59.5C571.015,-59.5 579.823,-59.5 587.723,-59.5"/>
<polygon fill="midnightblue" stroke="midnightblue" points="562.096,-56.0001 552.096,-59.5 562.096,-63.0001 562.096,-56.0001"/>
</g>
<!-- Node12&#45;&gt;Node2 -->
<g id="edge16" class="edge"><title>Node12&#45;&gt;Node2</title>
<path fill="none" stroke="midnightblue" d="M657.17,-59.5C665.653,-59.5 674.569,-59.5 682.837,-59.5"/>
<polygon fill="midnightblue" stroke="midnightblue" points="657.109,-56.0001 647.109,-59.5 657.109,-63.0001 657.109,-56.0001"/>
</g>
<!-- Node13&#45;&gt;Node3 -->
<g id="edge18" class="edge"><title>Node13&#45;&gt;Node3</title>
<path fill="none" stroke="midnightblue" d="M443.189,-24.7436C547.32,-29.2659 729.875,-37.194 787.814,-39.7102"/>
<polygon fill="midnightblue" stroke="midnightblue" points="443.197,-21.2408 433.055,-24.3035 442.893,-28.2342 443.197,-21.2408"/>
</g>
<!-- Node13&#45;&gt;Node11 -->
<g id="edge19" class="edge"><title>Node13&#45;&gt;Node11</title>
<path fill="none" stroke="midnightblue" d="M413.94,-33.7462C433.375,-38.984 455.731,-45.0091 473.931,-49.9141"/>
<polygon fill="midnightblue" stroke="midnightblue" points="414.647,-30.3118 404.08,-31.089 412.825,-37.0707 414.647,-30.3118"/>
</g>
</g>
</svg>
        <g id="navigator" transform="translate(0 0)" fill="#404254">
                <rect fill="#f2f5e9" fill-opacity="0.5" stroke="#606060" stroke-width=".5" x="0" y="0" width="60" height="60"/>
                <use id="zoomplus" xlink:href="#zoomPlus" x="17" y="9" onmousedown="handleZoom(evt,'in')"/>
                <use id="zoomminus" xlink:href="#zoomMin" x="42" y="9" onmousedown="handleZoom(evt,'out')"/>
                <use id="reset" xlink:href="#resetDef" x="30" y="36" onmousedown="handleReset()"/>
                <g id="arrowUp" xlink:href="#dirArrow" transform="translate(30 24)" onmousedown="handlePan(0,-1)">
                  <use xlink:href="#rim" fill="#404040">
                        <set attributeName="fill" to="#808080" begin="arrowUp.mouseover" end="arrowUp.mouseout"/>
                  </use>
                  <path fill="none" stroke="white" stroke-width="1.5" d="M0,-3.0v7 M-2.5,-0.5L0,-3.0L2.5,-0.5"/>
                </g>
                <g id="arrowRight" xlink:href="#dirArrow" transform="rotate(90) translate(36 -43)" onmousedown="handlePan(1,0)">
                  <use xlink:href="#rim" fill="#404040">
                        <set attributeName="fill" to="#808080" begin="arrowRight.mouseover" end="arrowRight.mouseout"/>
                  </use>
                  <path fill="none" stroke="white" stroke-width="1.5" d="M0,-3.0v7 M-2.5,-0.5L0,-3.0L2.5,-0.5"/>
                </g>
                <g id="arrowDown" xlink:href="#dirArrow" transform="rotate(180) translate(-30 -48)" onmousedown="handlePan(0,1)">
                  <use xlink:href="#rim" fill="#404040">
                        <set attributeName="fill" to="#808080" begin="arrowDown.mouseover" end="arrowDown.mouseout"/>
                  </use>
                  <path fill="none" stroke="white" stroke-width="1.5" d="M0,-3.0v7 M-2.5,-0.5L0,-3.0L2.5,-0.5"/>
                </g>
                <g id="arrowLeft" xlink:href="#dirArrow" transform="rotate(270) translate(-36 17)" onmousedown="handlePan(-1,0)">
                  <use xlink:href="#rim" fill="#404040">
                        <set attributeName="fill" to="#808080" begin="arrowLeft.mouseover" end="arrowLeft.mouseout"/>
                  </use>
                  <path fill="none" stroke="white" stroke-width="1.5" d="M0,-3.0v7 M-2.5,-0.5L0,-3.0L2.5,-0.5"/>
                </g>
        </g>
        <svg viewBox="0 0 15 15" width="100%" height="30px" preserveAspectRatio="xMaxYMin meet">
         <g id="arrow_out" transform="scale(0.3 0.3)">
          <a xlink:href="nanorq_8c_a4c02c9d148e282c464ab013a678387d0_a4c02c9d148e282c464ab013a678387d0_icgraph_org.svg" target="_base">
           <rect id="button" ry="5" rx="5" y="6" x="6" height="38" width="38"
                fill="#f2f5e9" fill-opacity="0.5" stroke="#606060" stroke-width="1.0"/>
           <path id="arrow"
             d="M 11.500037,31.436501 C 11.940474,20.09759 22.043105,11.32322 32.158766,21.979434 L 37.068811,17.246167 C 37.068811,17.246167 37.088388,32 37.088388,32 L 22.160133,31.978069 C 22.160133,31.978069 26.997745,27.140456 26.997745,27.140456 C 18.528582,18.264221 13.291696,25.230495 11.500037,31.436501 z"
             style="fill:#404040;"/>
          </a>
         </g>
        </svg>
</svg>
