<?xml version="1.0" encoding="UTF-8" standalone="no"?>
<!DOCTYPE svg PUBLIC "-//W3C//DTD SVG 1.1//EN"
 "http://www.w3.org/Graphics/SVG/1.1/DTD/svg11.dtd">
<!-- Generated by graphviz version 2.38.0 (20140413.2041)
 -->
<!-- Title: nanorq_encode Pages: 1 -->
<!--zoomable 1013 -->
<svg id="main" version="1.1" xmlns="http://www.w3.org/2000/svg" xmlns:xlink="http://www.w3.org/1999/xlink" xml:space="preserve" onload="init(evt)">
<style type="text/css"><![CDATA[
.edge:hover path { stroke: red; }
.edge:hover polygon { stroke: red; fill: red; }
]]></style>
<script type="text/javascript"><![CDATA[
var edges = document.getElementsByTagName('g');
if (edges && edges.length) {
  for (var i=0;i<edges.length;i++) {
    if (edges[i].id.substr(0,4)=='edge') {
      edges[i].setAttribute('class','edge');
    }
  }
}
]]></script>
        <defs>
                <circle id="rim" cx="0" cy="0" r="7"/>
                <circle id="rim2" cx="0" cy="0" r="3.5"/>
                <g id="zoomPlus">
                        <use xlink:href="#rim" fill="#404040">
                                <set attributeName="fill" to="#808080" begin="zoomplus.mouseover" end="zoomplus.mouseout"/>
                        </use>
                        <path d="M-4,0h8M0,-4v8" fill="none" stroke="white" stroke-width="1.5" pointer-events="none"/>
                </g>
                <g id="zoomMin">
                        <use xlink:href="#rim" fill="#404040">
                                <set attributeName="fill" to="#808080" begin="zoomminus.mouseover" end="zoomminus.mouseout"/>
                        </use>
                        <path d="M-4,0h8" fill="none" stroke="white" stroke-width="1.5" pointer-events="none"/>
                </g>
                <g id="dirArrow">
                        <path fill="none" stroke="white" stroke-width="1.5" d="M0,-3.0v7 M-2.5,-0.5L0,-3.0L2.5,-0.5"/>
                </g>
               <g id="resetDef">
                       <use xlink:href="#rim2" fill="#404040">
                               <set attributeName="fill" to="#808080" begin="reset.mouseover" end="reset.mouseout"/>
                       </use>
               </g>
        </defs>

<script type="text/javascript">
var viewWidth = 993;
var viewHeight = 1013;
var sectionId = 'dynsection-0';
</script>
<script xlink:href="svgpan.js"/>
<svg id="graph" class="graph">
<g id="viewport">
<title>nanorq_encode</title>
<!-- Node0 -->
<g id="node1" class="node"><title>Node0</title>
<polygon fill="#bfbfbf" stroke="black" points="0,-831.5 0,-850.5 83,-850.5 83,-831.5 0,-831.5"/>
<text text-anchor="middle" x="41.5" y="-838.5" font-family="Helvetica,sans-Serif" font-size="10.00">nanorq_encode</text>
</g>
<!-- Node1 -->
<g id="node2" class="node"><title>Node1</title>
<g id="a_node2"><a xlink:href="nanorq_8c_ac5177dacb887e2fa089abdb0de703b4d.html#ac5177dacb887e2fa089abdb0de703b4d" target="_top" xlink:title="get_symbol_offset">
<polygon fill="none" stroke="black" points="311,-979.5 311,-998.5 408,-998.5 408,-979.5 311,-979.5"/>
<text text-anchor="middle" x="359.5" y="-986.5" font-family="Helvetica,sans-Serif" font-size="10.00">get_symbol_offset</text>
</a>
</g>
</g>
<!-- Node0&#45;&gt;Node1 -->
<g id="edge1" class="edge"><title>Node0&#45;&gt;Node1</title>
<path fill="none" stroke="midnightblue" d="M51.5888,-850.555C65.1573,-864.366 92.0152,-890.002 119,-906 178.265,-941.135 254.618,-964.338 304.992,-977.063"/>
<polygon fill="midnightblue" stroke="midnightblue" points="304.16,-980.463 314.708,-979.469 305.842,-973.668 304.16,-980.463"/>
</g>
<!-- Node2 -->
<g id="node3" class="node"><title>Node2</title>
<g id="a_node3"><a xlink:href="nanorq_8c_ae51b5ce95f964fb7c4141edd8128dc0e.html#ae51b5ce95f964fb7c4141edd8128dc0e" target="_top" xlink:title="nanorq_block_encoder">
<polygon fill="none" stroke="black" points="302.5,-941.5 302.5,-960.5 416.5,-960.5 416.5,-941.5 302.5,-941.5"/>
<text text-anchor="middle" x="359.5" y="-948.5" font-family="Helvetica,sans-Serif" font-size="10.00">nanorq_block_encoder</text>
</a>
</g>
</g>
<!-- Node0&#45;&gt;Node2 -->
<g id="edge2" class="edge"><title>Node0&#45;&gt;Node2</title>
<path fill="none" stroke="midnightblue" d="M69.1031,-850.59C113.81,-866.663 206.886,-899.937 286,-927 296.853,-930.713 308.651,-934.657 319.516,-938.252"/>
<polygon fill="midnightblue" stroke="midnightblue" points="318.584,-941.63 329.177,-941.439 320.777,-934.983 318.584,-941.63"/>
</g>
<!-- Node4 -->
<g id="node5" class="node"><title>Node4</title>
<g id="a_node5"><a xlink:href="nanorq_8c_ad6a9288685637cdfe83303f66b087a29.html#ad6a9288685637cdfe83303f66b087a29" target="_top" xlink:title="nanorq_generate_symbols">
<polygon fill="none" stroke="black" points="119,-831.5 119,-850.5 250,-850.5 250,-831.5 119,-831.5"/>
<text text-anchor="middle" x="184.5" y="-838.5" font-family="Helvetica,sans-Serif" font-size="10.00">nanorq_generate_symbols</text>
</a>
</g>
</g>
<!-- Node0&#45;&gt;Node4 -->
<g id="edge4" class="edge"><title>Node0&#45;&gt;Node4</title>
<path fill="none" stroke="midnightblue" d="M83.283,-841C91.2918,-841 99.9269,-841 108.651,-841"/>
<polygon fill="midnightblue" stroke="midnightblue" points="108.901,-844.5 118.901,-841 108.901,-837.5 108.901,-844.5"/>
</g>
<!-- Node5 -->
<g id="node6" class="node"><title>Node5</title>
<g id="a_node6"><a xlink:href="octmat_8c_ac7854c0635a9441a5a352f95dbbd7bbd.html#ac7854c0635a9441a5a352f95dbbd7bbd" target="_top" xlink:title="om_destroy">
<polygon fill="none" stroke="black" points="673.5,-646.5 673.5,-665.5 741.5,-665.5 741.5,-646.5 673.5,-646.5"/>
<text text-anchor="middle" x="707.5" y="-653.5" font-family="Helvetica,sans-Serif" font-size="10.00">om_destroy</text>
</a>
</g>
</g>
<!-- Node0&#45;&gt;Node5 -->
<g id="edge58" class="edge"><title>Node0&#45;&gt;Node5</title>
<path fill="none" stroke="midnightblue" d="M59.7546,-831.395C98.9695,-809.862 198.206,-757.031 286,-724 365.025,-694.268 385.808,-687.42 469,-673 536.165,-661.358 615.346,-657.661 663.194,-656.503"/>
<polygon fill="midnightblue" stroke="midnightblue" points="663.282,-660.002 673.204,-656.288 663.131,-653.004 663.282,-660.002"/>
</g>
<!-- Node39 -->
<g id="node40" class="node"><title>Node39</title>
<g id="a_node40"><a xlink:href="precode_8c_ac563a7861b8d34580909af77f063ea66.html#ac563a7861b8d34580909af77f063ea66" target="_top" xlink:title="precode_matrix_encode">
<polygon fill="none" stroke="black" points="477,-57.5 477,-76.5 597,-76.5 597,-57.5 477,-57.5"/>
<text text-anchor="middle" x="537" y="-64.5" font-family="Helvetica,sans-Serif" font-size="10.00">precode_matrix_encode</text>
</a>
</g>
</g>
<!-- Node0&#45;&gt;Node39 -->
<g id="edge59" class="edge"><title>Node0&#45;&gt;Node39</title>
<path fill="none" stroke="midnightblue" d="M45.3754,-831.114C54.1931,-801.458 82.484,-711.036 119,-642 246.682,-400.608 296.276,-348.516 469,-137 484.654,-117.83 504.445,-97.5739 518.447,-83.8119"/>
<polygon fill="midnightblue" stroke="midnightblue" points="521.219,-85.9982 525.947,-76.5168 516.338,-80.9803 521.219,-85.9982"/>
</g>
<!-- Node3 -->
<g id="node4" class="node"><title>Node3</title>
<g id="a_node4"><a xlink:href="nanorq_8c_a4c02c9d148e282c464ab013a678387d0.html#a4c02c9d148e282c464ab013a678387d0" target="_top" xlink:title="nanorq_block_symbols">
<polygon fill="none" stroke="black" points="479,-985.5 479,-1004.5 595,-1004.5 595,-985.5 479,-985.5"/>
<text text-anchor="middle" x="537" y="-992.5" font-family="Helvetica,sans-Serif" font-size="10.00">nanorq_block_symbols</text>
</a>
</g>
</g>
<!-- Node2&#45;&gt;Node3 -->
<g id="edge3" class="edge"><title>Node2&#45;&gt;Node3</title>
<path fill="none" stroke="midnightblue" d="M398.581,-960.547C424.798,-967.12 459.836,-975.905 487.97,-982.958"/>
<polygon fill="midnightblue" stroke="midnightblue" points="487.442,-986.434 497.993,-985.471 489.145,-979.644 487.442,-986.434"/>
</g>
<!-- Node4&#45;&gt;Node1 -->
<g id="edge5" class="edge"><title>Node4&#45;&gt;Node1</title>
<path fill="none" stroke="midnightblue" d="M190.09,-850.507C202.191,-874.52 237.402,-937.977 286,-970 290.686,-973.087 295.85,-975.674 301.199,-977.841"/>
<polygon fill="midnightblue" stroke="midnightblue" points="300.368,-981.259 310.962,-981.304 302.708,-974.662 300.368,-981.259"/>
</g>
<!-- Node4&#45;&gt;Node2 -->
<g id="edge6" class="edge"><title>Node4&#45;&gt;Node2</title>
<path fill="none" stroke="midnightblue" d="M194.259,-850.648C210.658,-868.182 247.801,-905.445 286,-927 293.718,-931.355 302.349,-935.073 310.889,-938.188"/>
<polygon fill="midnightblue" stroke="midnightblue" points="309.845,-941.53 320.44,-941.451 312.109,-934.906 309.845,-941.53"/>
</g>
<!-- Node4&#45;&gt;Node5 -->
<g id="edge7" class="edge"><title>Node4&#45;&gt;Node5</title>
<path fill="none" stroke="midnightblue" d="M203.586,-831.378C247.79,-808.188 365.283,-748.505 469,-713 535.342,-690.29 615.076,-673.135 663.218,-663.835"/>
<polygon fill="midnightblue" stroke="midnightblue" points="664.12,-667.226 673.287,-661.916 662.809,-660.35 664.12,-667.226"/>
</g>
<!-- Node6 -->
<g id="node7" class="node"><title>Node6</title>
<g id="a_node7"><a xlink:href="octmat_8c_a0db07e8a815b999f9837c74c31213cdb.html#a0db07e8a815b999f9837c74c31213cdb" target="_top" xlink:title="om_resize">
<polygon fill="none" stroke="black" points="817.5,-805.5 817.5,-824.5 879.5,-824.5 879.5,-805.5 817.5,-805.5"/>
<text text-anchor="middle" x="848.5" y="-812.5" font-family="Helvetica,sans-Serif" font-size="10.00">om_resize</text>
</a>
</g>
</g>
<!-- Node4&#45;&gt;Node6 -->
<g id="edge8" class="edge"><title>Node4&#45;&gt;Node6</title>
<path fill="none" stroke="midnightblue" d="M210.225,-850.637C269.169,-873.419 416.915,-929.336 469,-938 602.718,-960.243 656.1,-1004.89 774,-938 794.314,-926.475 824.371,-865.682 838.95,-834.097"/>
<polygon fill="midnightblue" stroke="midnightblue" points="842.307,-835.17 843.264,-824.618 835.935,-832.27 842.307,-835.17"/>
</g>
<!-- Node7 -->
<g id="node8" class="node"><title>Node7</title>
<g id="a_node8"><a xlink:href="precode_8c_a85c0aa4f7900eccf336228d43b7c133c.html#a85c0aa4f7900eccf336228d43b7c133c" target="_top" xlink:title="precode_matrix_gen">
<polygon fill="none" stroke="black" points="307.5,-821.5 307.5,-840.5 411.5,-840.5 411.5,-821.5 307.5,-821.5"/>
<text text-anchor="middle" x="359.5" y="-828.5" font-family="Helvetica,sans-Serif" font-size="10.00">precode_matrix_gen</text>
</a>
</g>
</g>
<!-- Node4&#45;&gt;Node7 -->
<g id="edge9" class="edge"><title>Node4&#45;&gt;Node7</title>
<path fill="none" stroke="midnightblue" d="M250.411,-837.248C265.68,-836.365 281.907,-835.427 297.019,-834.554"/>
<polygon fill="midnightblue" stroke="midnightblue" points="297.497,-838.032 307.278,-833.961 297.093,-831.044 297.497,-838.032"/>
</g>
<!-- Node18 -->
<g id="node19" class="node"><title>Node18</title>
<g id="a_node19"><a xlink:href="precode_8c_a262ba8efa6b500c1e7a3cb0451245291.html#a262ba8efa6b500c1e7a3cb0451245291" target="_top" xlink:title="precode_matrix_intermediate1">
<polygon fill="none" stroke="black" points="286,-475.5 286,-494.5 433,-494.5 433,-475.5 286,-475.5"/>
<text text-anchor="middle" x="359.5" y="-482.5" font-family="Helvetica,sans-Serif" font-size="10.00">precode_matrix_intermediate1</text>
</a>
</g>
</g>
<!-- Node4&#45;&gt;Node18 -->
<g id="edge25" class="edge"><title>Node4&#45;&gt;Node18</title>
<path fill="none" stroke="midnightblue" d="M190.127,-831.478C213.386,-783.616 317.655,-569.052 349.339,-503.852"/>
<polygon fill="midnightblue" stroke="midnightblue" points="352.554,-505.242 353.777,-494.718 346.258,-502.183 352.554,-505.242"/>
</g>
<!-- Node7&#45;&gt;Node6 -->
<g id="edge10" class="edge"><title>Node7&#45;&gt;Node6</title>
<path fill="none" stroke="midnightblue" d="M411.632,-826.494C467.817,-821.786 560.754,-814.715 641,-812 700.077,-810.001 714.901,-810.794 774,-812 784.837,-812.221 796.568,-812.625 807.408,-813.067"/>
<polygon fill="midnightblue" stroke="midnightblue" points="807.329,-816.567 817.47,-813.497 807.628,-809.573 807.329,-816.567"/>
</g>
<!-- Node8 -->
<g id="node9" class="node"><title>Node8</title>
<g id="a_node9"><a xlink:href="precode_8c_a39d289c7bff03b667e282e44b3decb5f.html#a39d289c7bff03b667e282e44b3decb5f" target="_top" xlink:title="precode_matrix_init\l_LDPC1">
<polygon fill="none" stroke="black" points="486.5,-772 486.5,-802 587.5,-802 587.5,-772 486.5,-772"/>
<text text-anchor="start" x="494.5" y="-790" font-family="Helvetica,sans-Serif" font-size="10.00">precode_matrix_init</text>
<text text-anchor="middle" x="537" y="-779" font-family="Helvetica,sans-Serif" font-size="10.00">_LDPC1</text>
</a>
</g>
</g>
<!-- Node7&#45;&gt;Node8 -->
<g id="edge11" class="edge"><title>Node7&#45;&gt;Node8</title>
<path fill="none" stroke="midnightblue" d="M398.581,-821.453C421.275,-815.763 450.579,-808.416 476.293,-801.969"/>
<polygon fill="midnightblue" stroke="midnightblue" points="477.471,-805.282 486.319,-799.456 475.768,-798.493 477.471,-805.282"/>
</g>
<!-- Node9 -->
<g id="node10" class="node"><title>Node9</title>
<g id="a_node10"><a xlink:href="precode_8c_af2734c7ddac33888abcc52e10df15665.html#af2734c7ddac33888abcc52e10df15665" target="_top" xlink:title="precode_matrix_add\l_identity">
<polygon fill="none" stroke="black" points="485,-723 485,-753 589,-753 589,-723 485,-723"/>
<text text-anchor="start" x="493" y="-741" font-family="Helvetica,sans-Serif" font-size="10.00">precode_matrix_add</text>
<text text-anchor="middle" x="537" y="-730" font-family="Helvetica,sans-Serif" font-size="10.00">_identity</text>
</a>
</g>
</g>
<!-- Node7&#45;&gt;Node9 -->
<g id="edge12" class="edge"><title>Node7&#45;&gt;Node9</title>
<path fill="none" stroke="midnightblue" d="M373.637,-821.277C393.498,-806.901 432.709,-779.764 469,-762 472.581,-760.247 476.323,-758.555 480.13,-756.936"/>
<polygon fill="midnightblue" stroke="midnightblue" points="481.715,-760.07 489.668,-753.07 479.085,-753.583 481.715,-760.07"/>
</g>
<!-- Node10 -->
<g id="node11" class="node"><title>Node10</title>
<g id="a_node11"><a xlink:href="precode_8c_a992134f8be1689ebd0d9aea6fafe217a.html#a992134f8be1689ebd0d9aea6fafe217a" target="_top" xlink:title="precode_matrix_init\l_LDPC2">
<polygon fill="none" stroke="black" points="486.5,-860 486.5,-890 587.5,-890 587.5,-860 486.5,-860"/>
<text text-anchor="start" x="494.5" y="-878" font-family="Helvetica,sans-Serif" font-size="10.00">precode_matrix_init</text>
<text text-anchor="middle" x="537" y="-867" font-family="Helvetica,sans-Serif" font-size="10.00">_LDPC2</text>
</a>
</g>
</g>
<!-- Node7&#45;&gt;Node10 -->
<g id="edge13" class="edge"><title>Node7&#45;&gt;Node10</title>
<path fill="none" stroke="midnightblue" d="M398.581,-840.547C421.275,-846.237 450.579,-853.584 476.293,-860.031"/>
<polygon fill="midnightblue" stroke="midnightblue" points="475.768,-863.507 486.319,-862.544 477.471,-856.718 475.768,-863.507"/>
</g>
<!-- Node11 -->
<g id="node12" class="node"><title>Node11</title>
<g id="a_node12"><a xlink:href="precode_8c_a64e2c5739177d2991dea9ab54f2469b6.html#a64e2c5739177d2991dea9ab54f2469b6" target="_top" xlink:title="precode_matrix_init_HDPC">
<polygon fill="none" stroke="black" points="469,-909.5 469,-928.5 605,-928.5 605,-909.5 469,-909.5"/>
<text text-anchor="middle" x="537" y="-916.5" font-family="Helvetica,sans-Serif" font-size="10.00">precode_matrix_init_HDPC</text>
</a>
</g>
</g>
<!-- Node7&#45;&gt;Node11 -->
<g id="edge14" class="edge"><title>Node7&#45;&gt;Node11</title>
<path fill="none" stroke="midnightblue" d="M373.217,-840.579C392.85,-854.987 432.139,-882.319 469,-899 474.879,-901.66 481.205,-904.078 487.539,-906.24"/>
<polygon fill="midnightblue" stroke="midnightblue" points="486.845,-909.693 497.436,-909.423 488.988,-903.029 486.845,-909.693"/>
</g>
<!-- Node16 -->
<g id="node17" class="node"><title>Node16</title>
<g id="a_node17"><a xlink:href="precode_8c_a7fb81075ad77cf8790ba330c7fc6c221.html#a7fb81075ad77cf8790ba330c7fc6c221" target="_top" xlink:title="precode_matrix_add\l_G_ENC">
<polygon fill="none" stroke="black" points="485,-147 485,-177 589,-177 589,-147 485,-147"/>
<text text-anchor="start" x="493" y="-165" font-family="Helvetica,sans-Serif" font-size="10.00">precode_matrix_add</text>
<text text-anchor="middle" x="537" y="-154" font-family="Helvetica,sans-Serif" font-size="10.00">_G_ENC</text>
</a>
</g>
</g>
<!-- Node7&#45;&gt;Node16 -->
<g id="edge23" class="edge"><title>Node7&#45;&gt;Node16</title>
<path fill="none" stroke="midnightblue" d="M362.852,-821.415C372.423,-782.223 409.059,-630.26 433,-504 452.112,-403.207 434.404,-372.579 469,-276 480.975,-242.569 502.941,-207.916 518.452,-185.724"/>
<polygon fill="midnightblue" stroke="midnightblue" points="521.503,-187.473 524.452,-177.297 515.801,-183.413 521.503,-187.473"/>
</g>
<!-- Node11&#45;&gt;Node5 -->
<g id="edge22" class="edge"><title>Node11&#45;&gt;Node5</title>
<path fill="none" stroke="midnightblue" d="M588.225,-909.498C594.34,-906.821 600.134,-903.392 605,-899 636.063,-870.961 624.9,-850.625 641,-812 661.533,-762.74 685.913,-704.824 698.337,-675.351"/>
<polygon fill="midnightblue" stroke="midnightblue" points="701.684,-676.423 702.344,-665.849 695.234,-673.703 701.684,-676.423"/>
</g>
<!-- Node11&#45;&gt;Node6 -->
<g id="edge20" class="edge"><title>Node11&#45;&gt;Node6</title>
<path fill="none" stroke="midnightblue" d="M584.219,-909.467C642.759,-897.078 740.095,-875.339 774,-861 792.766,-853.064 812.234,-840.661 826.417,-830.733"/>
<polygon fill="midnightblue" stroke="midnightblue" points="828.827,-833.311 834.913,-824.638 824.747,-827.623 828.827,-833.311"/>
</g>
<!-- Node12 -->
<g id="node13" class="node"><title>Node12</title>
<g id="a_node13"><a xlink:href="precode_8c_a291ab32ffee6435673b4693d8c74952f.html#a291ab32ffee6435673b4693d8c74952f" target="_top" xlink:title="precode_matrix_make_MT">
<polygon fill="none" stroke="black" points="641.5,-909.5 641.5,-928.5 773.5,-928.5 773.5,-909.5 641.5,-909.5"/>
<text text-anchor="middle" x="707.5" y="-916.5" font-family="Helvetica,sans-Serif" font-size="10.00">precode_matrix_make_MT</text>
</a>
</g>
</g>
<!-- Node11&#45;&gt;Node12 -->
<g id="edge15" class="edge"><title>Node11&#45;&gt;Node12</title>
<path fill="none" stroke="midnightblue" d="M605.08,-919C613.655,-919 622.478,-919 631.173,-919"/>
<polygon fill="midnightblue" stroke="midnightblue" points="631.299,-922.5 641.299,-919 631.299,-915.5 631.299,-922.5"/>
</g>
<!-- Node14 -->
<g id="node15" class="node"><title>Node14</title>
<g id="a_node15"><a xlink:href="precode_8c_a88ec15cf62d897ab1df189175429c7f8.html#a88ec15cf62d897ab1df189175429c7f8" target="_top" xlink:title="precode_matrix_make\l_GAMMA">
<polygon fill="none" stroke="black" points="651,-822 651,-852 764,-852 764,-822 651,-822"/>
<text text-anchor="start" x="659" y="-840" font-family="Helvetica,sans-Serif" font-size="10.00">precode_matrix_make</text>
<text text-anchor="middle" x="707.5" y="-829" font-family="Helvetica,sans-Serif" font-size="10.00">_GAMMA</text>
</a>
</g>
</g>
<!-- Node11&#45;&gt;Node14 -->
<g id="edge18" class="edge"><title>Node11&#45;&gt;Node14</title>
<path fill="none" stroke="midnightblue" d="M580.249,-909.449C588.725,-906.698 597.365,-903.254 605,-899 623.7,-888.58 623.071,-878.697 641,-867 646.701,-863.281 652.938,-859.787 659.226,-856.591"/>
<polygon fill="midnightblue" stroke="midnightblue" points="660.949,-859.645 668.418,-852.13 657.893,-853.347 660.949,-859.645"/>
</g>
<!-- Node15 -->
<g id="node16" class="node"><title>Node15</title>
<g id="a_node16"><a xlink:href="oblas_8h_a85e2604cc8aec26b591370ab48307bcc.html#a85e2604cc8aec26b591370ab48307bcc" target="_top" xlink:title="ogemm">
<polygon fill="none" stroke="black" points="683,-608.5 683,-627.5 732,-627.5 732,-608.5 683,-608.5"/>
<text text-anchor="middle" x="707.5" y="-615.5" font-family="Helvetica,sans-Serif" font-size="10.00">ogemm</text>
</a>
</g>
</g>
<!-- Node11&#45;&gt;Node15 -->
<g id="edge21" class="edge"><title>Node11&#45;&gt;Node15</title>
<path fill="none" stroke="midnightblue" d="M591.63,-909.437C596.679,-906.747 601.287,-903.332 605,-899 681.493,-809.758 564.161,-725.944 641,-637 648.962,-627.783 661.102,-622.906 672.775,-620.368"/>
<polygon fill="midnightblue" stroke="midnightblue" points="673.513,-623.794 682.798,-618.691 672.357,-616.89 673.513,-623.794"/>
</g>
<!-- Node12&#45;&gt;Node6 -->
<g id="edge16" class="edge"><title>Node12&#45;&gt;Node6</title>
<path fill="none" stroke="midnightblue" d="M743.977,-909.457C754.154,-905.825 764.94,-901.059 774,-895 799.099,-878.214 821.551,-851.136 834.85,-833.204"/>
<polygon fill="midnightblue" stroke="midnightblue" points="837.927,-834.921 840.936,-824.763 832.249,-830.827 837.927,-834.921"/>
</g>
<!-- Node13 -->
<g id="node14" class="node"><title>Node13</title>
<g id="a_node14"><a xlink:href="rand_8h_acd60cf6a4df3a81ef6cad8f6e6ae715d.html#acd60cf6a4df3a81ef6cad8f6e6ae715d" target="_top" xlink:title="rnd_get">
<polygon fill="none" stroke="black" points="824,-909.5 824,-928.5 873,-928.5 873,-909.5 824,-909.5"/>
<text text-anchor="middle" x="848.5" y="-916.5" font-family="Helvetica,sans-Serif" font-size="10.00">rnd_get</text>
</a>
</g>
</g>
<!-- Node12&#45;&gt;Node13 -->
<g id="edge17" class="edge"><title>Node12&#45;&gt;Node13</title>
<path fill="none" stroke="midnightblue" d="M773.523,-919C787.404,-919 801.524,-919 813.656,-919"/>
<polygon fill="midnightblue" stroke="midnightblue" points="813.749,-922.5 823.749,-919 813.749,-915.5 813.749,-922.5"/>
</g>
<!-- Node14&#45;&gt;Node6 -->
<g id="edge19" class="edge"><title>Node14&#45;&gt;Node6</title>
<path fill="none" stroke="midnightblue" d="M764.236,-828.179C778.681,-825.892 793.952,-823.475 807.417,-821.344"/>
<polygon fill="midnightblue" stroke="midnightblue" points="807.988,-824.797 817.318,-819.777 806.893,-817.883 807.988,-824.797"/>
</g>
<!-- Node17 -->
<g id="node18" class="node"><title>Node17</title>
<g id="a_node18"><a xlink:href="params_8c_a5e51228448fbdf5e0d4310916b8eea93.html#a5e51228448fbdf5e0d4310916b8eea93" target="_top" xlink:title="params_get_idxs">
<polygon fill="none" stroke="black" points="662,-76.5 662,-95.5 753,-95.5 753,-76.5 662,-76.5"/>
<text text-anchor="middle" x="707.5" y="-83.5" font-family="Helvetica,sans-Serif" font-size="10.00">params_get_idxs</text>
</a>
</g>
</g>
<!-- Node16&#45;&gt;Node17 -->
<g id="edge24" class="edge"><title>Node16&#45;&gt;Node17</title>
<path fill="none" stroke="midnightblue" d="M561.793,-146.827C582.195,-134.313 612.691,-116.765 641,-105 646.533,-102.7 652.439,-100.567 658.353,-98.6249"/>
<polygon fill="midnightblue" stroke="midnightblue" points="659.745,-101.857 668.25,-95.5403 657.662,-95.1744 659.745,-101.857"/>
</g>
<!-- Node18&#45;&gt;Node5 -->
<g id="edge41" class="edge"><title>Node18&#45;&gt;Node5</title>
<path fill="none" stroke="midnightblue" d="M366.784,-494.728C381.667,-516.939 421.418,-571.577 469,-599 501.752,-617.876 604.085,-638.107 663.191,-648.65"/>
<polygon fill="midnightblue" stroke="midnightblue" points="662.89,-652.151 673.346,-650.442 664.106,-645.258 662.89,-652.151"/>
</g>
<!-- Node18&#45;&gt;Node6 -->
<g id="edge56" class="edge"><title>Node18&#45;&gt;Node6</title>
<path fill="none" stroke="midnightblue" d="M433.338,-487.177C545.112,-491.184 748.738,-501.378 774,-523 816.16,-559.086 838.945,-736.165 845.493,-795.547"/>
<polygon fill="midnightblue" stroke="midnightblue" points="842.013,-795.922 846.557,-805.492 848.973,-795.177 842.013,-795.922"/>
</g>
<!-- Node19 -->
<g id="node20" class="node"><title>Node19</title>
<g id="a_node20"><a xlink:href="octmat_8c_a4d2ed06936f8e9cba88b6b37e5a23712.html#a4d2ed06936f8e9cba88b6b37e5a23712" target="_top" xlink:title="om_copy">
<polygon fill="none" stroke="black" points="679.5,-532.5 679.5,-551.5 735.5,-551.5 735.5,-532.5 679.5,-532.5"/>
<text text-anchor="middle" x="707.5" y="-539.5" font-family="Helvetica,sans-Serif" font-size="10.00">om_copy</text>
</a>
</g>
</g>
<!-- Node18&#45;&gt;Node19 -->
<g id="edge26" class="edge"><title>Node18&#45;&gt;Node19</title>
<path fill="none" stroke="midnightblue" d="M386.884,-494.604C408.63,-502.134 440.43,-512.268 469,-518 538.886,-532.02 622.068,-538.034 669.136,-540.472"/>
<polygon fill="midnightblue" stroke="midnightblue" points="669.015,-543.97 679.174,-540.966 669.358,-536.979 669.015,-543.97"/>
</g>
<!-- Node20 -->
<g id="node21" class="node"><title>Node20</title>
<g id="a_node21"><a xlink:href="precode_8c_adde325d451f8ec9eb7f8f4542d81e884.html#adde325d451f8ec9eb7f8f4542d81e884" target="_top" xlink:title="decode_phase1">
<polygon fill="none" stroke="black" points="494.5,-285.5 494.5,-304.5 579.5,-304.5 579.5,-285.5 494.5,-285.5"/>
<text text-anchor="middle" x="537" y="-292.5" font-family="Helvetica,sans-Serif" font-size="10.00">decode_phase1</text>
</a>
</g>
</g>
<!-- Node18&#45;&gt;Node20 -->
<g id="edge27" class="edge"><title>Node18&#45;&gt;Node20</title>
<path fill="none" stroke="midnightblue" d="M365.423,-475.363C378.973,-449.579 419.14,-377.926 469,-333 479.426,-323.606 492.563,-315.528 504.437,-309.266"/>
<polygon fill="midnightblue" stroke="midnightblue" points="506.257,-312.268 513.613,-304.642 503.107,-306.016 506.257,-312.268"/>
</g>
<!-- Node33 -->
<g id="node34" class="node"><title>Node33</title>
<g id="a_node34"><a xlink:href="precode_8c_a41bb3b163c071597877ad0de9bbbd756.html#a41bb3b163c071597877ad0de9bbbd756" target="_top" xlink:title="decode_phase2">
<polygon fill="none" stroke="black" points="494.5,-380.5 494.5,-399.5 579.5,-399.5 579.5,-380.5 494.5,-380.5"/>
<text text-anchor="middle" x="537" y="-387.5" font-family="Helvetica,sans-Serif" font-size="10.00">decode_phase2</text>
</a>
</g>
</g>
<!-- Node18&#45;&gt;Node33 -->
<g id="edge42" class="edge"><title>Node18&#45;&gt;Node33</title>
<path fill="none" stroke="midnightblue" d="M371.432,-475.436C390.167,-459.504 430.157,-427.461 469,-409 473.982,-406.632 479.317,-404.505 484.72,-402.607"/>
<polygon fill="midnightblue" stroke="midnightblue" points="486.032,-405.861 494.458,-399.438 483.865,-399.205 486.032,-405.861"/>
</g>
<!-- Node35 -->
<g id="node36" class="node"><title>Node35</title>
<g id="a_node36"><a xlink:href="precode_8c_a11824185dea7b498ffadaca55ae49090.html#a11824185dea7b498ffadaca55ae49090" target="_top" xlink:title="decode_phase3">
<polygon fill="none" stroke="black" points="494.5,-570.5 494.5,-589.5 579.5,-589.5 579.5,-570.5 494.5,-570.5"/>
<text text-anchor="middle" x="537" y="-577.5" font-family="Helvetica,sans-Serif" font-size="10.00">decode_phase3</text>
</a>
</g>
</g>
<!-- Node18&#45;&gt;Node35 -->
<g id="edge46" class="edge"><title>Node18&#45;&gt;Node35</title>
<path fill="none" stroke="midnightblue" d="M372.939,-494.551C392.522,-509.253 432.118,-537.648 469,-556 477.198,-560.079 486.264,-563.808 495.009,-567.047"/>
<polygon fill="midnightblue" stroke="midnightblue" points="494.088,-570.434 504.683,-570.489 496.435,-563.839 494.088,-570.434"/>
</g>
<!-- Node36 -->
<g id="node37" class="node"><title>Node36</title>
<g id="a_node37"><a xlink:href="precode_8c_a84a742aaa0a90e37baf8db8cd5a035b7.html#a84a742aaa0a90e37baf8db8cd5a035b7" target="_top" xlink:title="decode_phase4">
<polygon fill="none" stroke="black" points="494.5,-342.5 494.5,-361.5 579.5,-361.5 579.5,-342.5 494.5,-342.5"/>
<text text-anchor="middle" x="537" y="-349.5" font-family="Helvetica,sans-Serif" font-size="10.00">decode_phase4</text>
</a>
</g>
</g>
<!-- Node18&#45;&gt;Node36 -->
<g id="edge51" class="edge"><title>Node18&#45;&gt;Node36</title>
<path fill="none" stroke="midnightblue" d="M366.862,-475.406C381.912,-453.475 421.987,-399.387 469,-371 473.787,-368.11 479.031,-365.643 484.411,-363.542"/>
<polygon fill="midnightblue" stroke="midnightblue" points="485.88,-366.737 494.172,-360.143 483.577,-360.127 485.88,-366.737"/>
</g>
<!-- Node37 -->
<g id="node38" class="node"><title>Node37</title>
<g id="a_node38"><a xlink:href="precode_8c_a16925f32060a478093240f3b35ee664a.html#a16925f32060a478093240f3b35ee664a" target="_top" xlink:title="decode_phase5">
<polygon fill="none" stroke="black" points="494.5,-418.5 494.5,-437.5 579.5,-437.5 579.5,-418.5 494.5,-418.5"/>
<text text-anchor="middle" x="537" y="-425.5" font-family="Helvetica,sans-Serif" font-size="10.00">decode_phase5</text>
</a>
</g>
</g>
<!-- Node18&#45;&gt;Node37 -->
<g id="edge53" class="edge"><title>Node18&#45;&gt;Node37</title>
<path fill="none" stroke="midnightblue" d="M386.221,-475.498C408.113,-467.529 440.458,-456.036 469,-447 476.053,-444.767 483.562,-442.516 490.906,-440.383"/>
<polygon fill="midnightblue" stroke="midnightblue" points="492.11,-443.679 500.76,-437.561 490.183,-436.95 492.11,-443.679"/>
</g>
<!-- Node38 -->
<g id="node39" class="node"><title>Node38</title>
<g id="a_node39"><a xlink:href="oblas_8h_a1b5ea186506d2e5d84ba3cc292043e21.html#a1b5ea186506d2e5d84ba3cc292043e21" target="_top" xlink:title="ocopy">
<polygon fill="none" stroke="black" points="515.5,-456.5 515.5,-475.5 558.5,-475.5 558.5,-456.5 515.5,-456.5"/>
<text text-anchor="middle" x="537" y="-463.5" font-family="Helvetica,sans-Serif" font-size="10.00">ocopy</text>
</a>
</g>
</g>
<!-- Node18&#45;&gt;Node38 -->
<g id="edge57" class="edge"><title>Node18&#45;&gt;Node38</title>
<path fill="none" stroke="midnightblue" d="M433.149,-477.135C458.408,-474.4 485.388,-471.479 505.375,-469.316"/>
<polygon fill="midnightblue" stroke="midnightblue" points="505.858,-472.784 515.423,-468.228 505.105,-465.824 505.858,-472.784"/>
</g>
<!-- Node21 -->
<g id="node22" class="node"><title>Node21</title>
<g id="a_node22"><a xlink:href="chooser_8h_a5c354680a80680d3c040504152d3c616.html#a5c354680a80680d3c040504152d3c616" target="_top" xlink:title="chooser_add_tracking_pair">
<polygon fill="none" stroke="black" points="641,-342.5 641,-361.5 774,-361.5 774,-342.5 641,-342.5"/>
<text text-anchor="middle" x="707.5" y="-349.5" font-family="Helvetica,sans-Serif" font-size="10.00">chooser_add_tracking_pair</text>
</a>
</g>
</g>
<!-- Node20&#45;&gt;Node21 -->
<g id="edge28" class="edge"><title>Node20&#45;&gt;Node21</title>
<path fill="none" stroke="midnightblue" d="M562.385,-304.554C583.148,-312.554 613.842,-324.064 641,-333 647.882,-335.264 655.216,-337.532 662.393,-339.671"/>
<polygon fill="midnightblue" stroke="midnightblue" points="661.444,-343.04 672.025,-342.497 663.415,-336.324 661.444,-343.04"/>
</g>
<!-- Node22 -->
<g id="node23" class="node"><title>Node22</title>
<g id="a_node23"><a xlink:href="graph_8c_ac96bb5f2ca9a14261f32f070172fb6d9.html#ac96bb5f2ca9a14261f32f070172fb6d9" target="_top" xlink:title="graph_new">
<polygon fill="none" stroke="black" points="675.5,-304.5 675.5,-323.5 739.5,-323.5 739.5,-304.5 675.5,-304.5"/>
<text text-anchor="middle" x="707.5" y="-311.5" font-family="Helvetica,sans-Serif" font-size="10.00">graph_new</text>
</a>
</g>
</g>
<!-- Node20&#45;&gt;Node22 -->
<g id="edge29" class="edge"><title>Node20&#45;&gt;Node22</title>
<path fill="none" stroke="midnightblue" d="M579.652,-299.697C605.691,-302.633 639.097,-306.4 665.09,-309.331"/>
<polygon fill="midnightblue" stroke="midnightblue" points="665.044,-312.848 675.374,-310.49 665.829,-305.892 665.044,-312.848"/>
</g>
<!-- Node23 -->
<g id="node24" class="node"><title>Node23</title>
<g id="a_node24"><a xlink:href="chooser_8h_aa055b1a2f2a47c17f612c052a2607ae1.html#aa055b1a2f2a47c17f612c052a2607ae1" target="_top" xlink:title="chooser_non_zero">
<polygon fill="none" stroke="black" points="659.5,-152.5 659.5,-171.5 755.5,-171.5 755.5,-152.5 659.5,-152.5"/>
<text text-anchor="middle" x="707.5" y="-159.5" font-family="Helvetica,sans-Serif" font-size="10.00">chooser_non_zero</text>
</a>
</g>
</g>
<!-- Node20&#45;&gt;Node23 -->
<g id="edge30" class="edge"><title>Node20&#45;&gt;Node23</title>
<path fill="none" stroke="midnightblue" d="M543.927,-285.413C557.975,-263.499 595.552,-209.442 641,-181 644.348,-178.905 647.936,-177.033 651.644,-175.362"/>
<polygon fill="midnightblue" stroke="midnightblue" points="653.053,-178.568 661.042,-171.608 650.457,-172.067 653.053,-178.568"/>
</g>
<!-- Node26 -->
<g id="node27" class="node"><title>Node26</title>
<g id="a_node27"><a xlink:href="chooser_8h_a54391f17335789a40d1a168009c9b5a1.html#a54391f17335789a40d1a168009c9b5a1" target="_top" xlink:title="chooser_clear">
<polygon fill="none" stroke="black" points="669,-266.5 669,-285.5 746,-285.5 746,-266.5 669,-266.5"/>
<text text-anchor="middle" x="707.5" y="-273.5" font-family="Helvetica,sans-Serif" font-size="10.00">chooser_clear</text>
</a>
</g>
</g>
<!-- Node20&#45;&gt;Node26 -->
<g id="edge33" class="edge"><title>Node20&#45;&gt;Node26</title>
<path fill="none" stroke="midnightblue" d="M579.652,-290.303C603.635,-287.599 633.868,-284.19 658.803,-281.378"/>
<polygon fill="midnightblue" stroke="midnightblue" points="659.232,-284.852 668.777,-280.254 658.448,-277.896 659.232,-284.852"/>
</g>
<!-- Node27 -->
<g id="node28" class="node"><title>Node27</title>
<g id="a_node28"><a xlink:href="graph_8c_ac683cc08fc4c4391a1e872db552f4c3b.html#ac683cc08fc4c4391a1e872db552f4c3b" target="_top" xlink:title="graph_free">
<polygon fill="none" stroke="black" points="676.5,-228.5 676.5,-247.5 738.5,-247.5 738.5,-228.5 676.5,-228.5"/>
<text text-anchor="middle" x="707.5" y="-235.5" font-family="Helvetica,sans-Serif" font-size="10.00">graph_free</text>
</a>
</g>
</g>
<!-- Node20&#45;&gt;Node27 -->
<g id="edge34" class="edge"><title>Node20&#45;&gt;Node27</title>
<path fill="none" stroke="midnightblue" d="M562.385,-285.446C583.148,-277.446 613.842,-265.936 641,-257 649.246,-254.287 658.14,-251.569 666.636,-249.073"/>
<polygon fill="midnightblue" stroke="midnightblue" points="667.731,-252.4 676.363,-246.257 665.784,-245.676 667.731,-252.4"/>
</g>
<!-- Node28 -->
<g id="node29" class="node"><title>Node28</title>
<g id="a_node29"><a xlink:href="chooser_8h_a6e78ae331b8eb1f6033fdb88aba27d69.html#a6e78ae331b8eb1f6033fdb88aba27d69" target="_top" xlink:title="chooser_pick">
<polygon fill="none" stroke="black" points="670.5,-114.5 670.5,-133.5 744.5,-133.5 744.5,-114.5 670.5,-114.5"/>
<text text-anchor="middle" x="707.5" y="-121.5" font-family="Helvetica,sans-Serif" font-size="10.00">chooser_pick</text>
</a>
</g>
</g>
<!-- Node20&#45;&gt;Node28 -->
<g id="edge35" class="edge"><title>Node20&#45;&gt;Node28</title>
<path fill="none" stroke="midnightblue" d="M544.013,-285.328C563.912,-253.439 627.143,-153.077 641,-143 646.925,-138.691 653.812,-135.355 660.851,-132.773"/>
<polygon fill="midnightblue" stroke="midnightblue" points="662.006,-136.079 670.466,-129.7 659.875,-129.411 662.006,-136.079"/>
</g>
<!-- Node30 -->
<g id="node31" class="node"><title>Node30</title>
<g id="a_node31"><a xlink:href="oblas_8h_ad0978d40d1e2a78b8ff34f3d0d376dd3.html#ad0978d40d1e2a78b8ff34f3d0d376dd3" target="_top" xlink:title="oswaprow">
<polygon fill="none" stroke="black" points="677,-380.5 677,-399.5 738,-399.5 738,-380.5 677,-380.5"/>
<text text-anchor="middle" x="707.5" y="-387.5" font-family="Helvetica,sans-Serif" font-size="10.00">oswaprow</text>
</a>
</g>
</g>
<!-- Node20&#45;&gt;Node30 -->
<g id="edge38" class="edge"><title>Node20&#45;&gt;Node30</title>
<path fill="none" stroke="midnightblue" d="M558.32,-304.527C572.135,-311.471 590.469,-321.625 605,-333 623.319,-347.34 621.135,-358.892 641,-371 648.86,-375.791 657.987,-379.424 666.886,-382.161"/>
<polygon fill="midnightblue" stroke="midnightblue" points="666.186,-385.598 676.757,-384.884 668.048,-378.851 666.186,-385.598"/>
</g>
<!-- Node31 -->
<g id="node32" class="node"><title>Node31</title>
<g id="a_node32"><a xlink:href="oblas_8h_aac1e9520179bae9bf58901a111aad57d.html#aac1e9520179bae9bf58901a111aad57d" target="_top" xlink:title="oswapcol">
<polygon fill="none" stroke="black" points="678.5,-190.5 678.5,-209.5 736.5,-209.5 736.5,-190.5 678.5,-190.5"/>
<text text-anchor="middle" x="707.5" y="-197.5" font-family="Helvetica,sans-Serif" font-size="10.00">oswapcol</text>
</a>
</g>
</g>
<!-- Node20&#45;&gt;Node31 -->
<g id="edge39" class="edge"><title>Node20&#45;&gt;Node31</title>
<path fill="none" stroke="midnightblue" d="M548.295,-285.425C565.958,-269.478 603.745,-237.412 641,-219 649.575,-214.762 659.26,-211.307 668.501,-208.563"/>
<polygon fill="midnightblue" stroke="midnightblue" points="669.574,-211.897 678.281,-205.86 667.71,-205.15 669.574,-211.897"/>
</g>
<!-- Node32 -->
<g id="node33" class="node"><title>Node32</title>
<g id="a_node33"><a xlink:href="oblas_8h_a962c3db45b173ccbaf6418d5894409be.html#a962c3db45b173ccbaf6418d5894409be" target="_top" xlink:title="oaxpy">
<polygon fill="none" stroke="black" points="686,-418.5 686,-437.5 729,-437.5 729,-418.5 686,-418.5"/>
<text text-anchor="middle" x="707.5" y="-425.5" font-family="Helvetica,sans-Serif" font-size="10.00">oaxpy</text>
</a>
</g>
</g>
<!-- Node20&#45;&gt;Node32 -->
<g id="edge40" class="edge"><title>Node20&#45;&gt;Node32</title>
<path fill="none" stroke="midnightblue" d="M562.762,-304.595C576.6,-310.96 593.35,-320.46 605,-333 630.439,-360.382 612.543,-384.769 641,-409 650.692,-417.253 663.795,-421.925 675.735,-424.568"/>
<polygon fill="midnightblue" stroke="midnightblue" points="675.347,-428.055 685.813,-426.408 676.604,-421.169 675.347,-428.055"/>
</g>
<!-- Node24 -->
<g id="node25" class="node"><title>Node24</title>
<g id="a_node25"><a xlink:href="graph_8c_a4df6f2af3bed651a7f3d19803ec598e4.html#a4df6f2af3bed651a7f3d19803ec598e4" target="_top" xlink:title="graph_link">
<polygon fill="none" stroke="black" points="818,-152.5 818,-171.5 879,-171.5 879,-152.5 818,-152.5"/>
<text text-anchor="middle" x="848.5" y="-159.5" font-family="Helvetica,sans-Serif" font-size="10.00">graph_link</text>
</a>
</g>
</g>
<!-- Node23&#45;&gt;Node24 -->
<g id="edge31" class="edge"><title>Node23&#45;&gt;Node24</title>
<path fill="none" stroke="midnightblue" d="M755.559,-162C772.486,-162 791.403,-162 807.656,-162"/>
<polygon fill="midnightblue" stroke="midnightblue" points="807.905,-165.5 817.905,-162 807.905,-158.5 807.905,-165.5"/>
</g>
<!-- Node25 -->
<g id="node26" class="node"><title>Node25</title>
<g id="a_node26"><a xlink:href="graph_8c_aebad20ec3b086b7fae30e6ef61892839.html#aebad20ec3b086b7fae30e6ef61892839" target="_top" xlink:title="graph_find">
<polygon fill="none" stroke="black" points="923,-133.5 923,-152.5 985,-152.5 985,-133.5 923,-133.5"/>
<text text-anchor="middle" x="954" y="-140.5" font-family="Helvetica,sans-Serif" font-size="10.00">graph_find</text>
</a>
</g>
</g>
<!-- Node24&#45;&gt;Node25 -->
<g id="edge32" class="edge"><title>Node24&#45;&gt;Node25</title>
<path fill="none" stroke="midnightblue" d="M879.159,-156.555C889.678,-154.624 901.696,-152.418 912.937,-150.354"/>
<polygon fill="midnightblue" stroke="midnightblue" points="913.774,-153.759 922.978,-148.511 912.51,-146.875 913.774,-153.759"/>
</g>
<!-- Node29 -->
<g id="node30" class="node"><title>Node29</title>
<g id="a_node30"><a xlink:href="graph_8c_ab380f8ec271892c52ab6836e6dba1746.html#ab380f8ec271892c52ab6836e6dba1746" target="_top" xlink:title="graph_is_max">
<polygon fill="none" stroke="black" points="810,-114.5 810,-133.5 887,-133.5 887,-114.5 810,-114.5"/>
<text text-anchor="middle" x="848.5" y="-121.5" font-family="Helvetica,sans-Serif" font-size="10.00">graph_is_max</text>
</a>
</g>
</g>
<!-- Node28&#45;&gt;Node29 -->
<g id="edge36" class="edge"><title>Node28&#45;&gt;Node29</title>
<path fill="none" stroke="midnightblue" d="M744.658,-124C761.412,-124 781.554,-124 799.555,-124"/>
<polygon fill="midnightblue" stroke="midnightblue" points="799.581,-127.5 809.581,-124 799.581,-120.5 799.581,-127.5"/>
</g>
<!-- Node29&#45;&gt;Node25 -->
<g id="edge37" class="edge"><title>Node29&#45;&gt;Node25</title>
<path fill="none" stroke="midnightblue" d="M887.159,-130.913C895.541,-132.452 904.458,-134.089 912.934,-135.645"/>
<polygon fill="midnightblue" stroke="midnightblue" points="912.52,-139.127 922.988,-137.49 913.784,-132.242 912.52,-139.127"/>
</g>
<!-- Node33&#45;&gt;Node30 -->
<g id="edge43" class="edge"><title>Node33&#45;&gt;Node30</title>
<path fill="none" stroke="midnightblue" d="M579.652,-390C606.205,-390 640.419,-390 666.621,-390"/>
<polygon fill="midnightblue" stroke="midnightblue" points="666.954,-393.5 676.954,-390 666.954,-386.5 666.954,-393.5"/>
</g>
<!-- Node33&#45;&gt;Node32 -->
<g id="edge45" class="edge"><title>Node33&#45;&gt;Node32</title>
<path fill="none" stroke="midnightblue" d="M579.652,-399.393C609.42,-406.107 648.817,-414.991 675.759,-421.067"/>
<polygon fill="midnightblue" stroke="midnightblue" points="675.253,-424.541 685.778,-423.327 676.793,-417.712 675.253,-424.541"/>
</g>
<!-- Node34 -->
<g id="node35" class="node"><title>Node34</title>
<g id="a_node35"><a xlink:href="oblas_8h_abfa7ba50070fbebe1ea2e0e2fc3f913b.html#abfa7ba50070fbebe1ea2e0e2fc3f913b" target="_top" xlink:title="oscal">
<polygon fill="none" stroke="black" points="687.5,-456.5 687.5,-475.5 727.5,-475.5 727.5,-456.5 687.5,-456.5"/>
<text text-anchor="middle" x="707.5" y="-463.5" font-family="Helvetica,sans-Serif" font-size="10.00">oscal</text>
</a>
</g>
</g>
<!-- Node33&#45;&gt;Node34 -->
<g id="edge44" class="edge"><title>Node33&#45;&gt;Node34</title>
<path fill="none" stroke="midnightblue" d="M579.836,-398.129C588.519,-400.824 597.346,-404.366 605,-409 624.902,-421.048 621.135,-434.892 641,-447 652.026,-453.72 665.544,-458.163 677.431,-461.049"/>
<polygon fill="midnightblue" stroke="midnightblue" points="676.837,-464.502 687.352,-463.202 678.322,-457.661 676.837,-464.502"/>
</g>
<!-- Node35&#45;&gt;Node5 -->
<g id="edge50" class="edge"><title>Node35&#45;&gt;Node5</title>
<path fill="none" stroke="midnightblue" d="M572.932,-589.578C583.629,-593.272 595.162,-598.063 605,-604 623.584,-615.214 622.08,-626.364 641,-637 647.967,-640.917 655.813,-644.089 663.592,-646.637"/>
<polygon fill="midnightblue" stroke="midnightblue" points="662.753,-650.039 673.336,-649.539 664.751,-643.33 662.753,-650.039"/>
</g>
<!-- Node35&#45;&gt;Node6 -->
<g id="edge47" class="edge"><title>Node35&#45;&gt;Node6</title>
<path fill="none" stroke="midnightblue" d="M579.535,-570.765C630.857,-561.919 718.216,-555.565 774,-599 836.259,-647.477 846.13,-751.294 847.446,-794.977"/>
<polygon fill="midnightblue" stroke="midnightblue" points="843.949,-795.228 847.624,-805.165 850.948,-795.105 843.949,-795.228"/>
</g>
<!-- Node35&#45;&gt;Node15 -->
<g id="edge49" class="edge"><title>Node35&#45;&gt;Node15</title>
<path fill="none" stroke="midnightblue" d="M579.652,-589.393C608.388,-595.874 646.096,-604.378 672.912,-610.425"/>
<polygon fill="midnightblue" stroke="midnightblue" points="672.443,-613.907 682.968,-612.693 673.983,-607.079 672.443,-613.907"/>
</g>
<!-- Node35&#45;&gt;Node19 -->
<g id="edge48" class="edge"><title>Node35&#45;&gt;Node19</title>
<path fill="none" stroke="midnightblue" d="M579.652,-570.607C607.097,-564.417 642.727,-556.382 669.235,-550.404"/>
<polygon fill="midnightblue" stroke="midnightblue" points="670.283,-553.756 679.268,-548.141 668.743,-546.927 670.283,-553.756"/>
</g>
<!-- Node36&#45;&gt;Node32 -->
<g id="edge52" class="edge"><title>Node36&#45;&gt;Node32</title>
<path fill="none" stroke="midnightblue" d="M579.836,-360.129C588.519,-362.824 597.346,-366.366 605,-371 624.902,-383.048 621.135,-396.892 641,-409 651.527,-415.416 664.327,-419.757 675.809,-422.648"/>
<polygon fill="midnightblue" stroke="midnightblue" points="675.356,-426.133 685.88,-424.914 676.892,-419.304 675.356,-426.133"/>
</g>
<!-- Node37&#45;&gt;Node32 -->
<g id="edge55" class="edge"><title>Node37&#45;&gt;Node32</title>
<path fill="none" stroke="midnightblue" d="M579.652,-428C609.42,-428 648.817,-428 675.759,-428"/>
<polygon fill="midnightblue" stroke="midnightblue" points="675.778,-431.5 685.778,-428 675.778,-424.5 675.778,-431.5"/>
</g>
<!-- Node37&#45;&gt;Node34 -->
<g id="edge54" class="edge"><title>Node37&#45;&gt;Node34</title>
<path fill="none" stroke="midnightblue" d="M579.652,-437.393C609.936,-444.223 650.186,-453.3 677.149,-459.381"/>
<polygon fill="midnightblue" stroke="midnightblue" points="676.605,-462.846 687.13,-461.632 678.145,-456.017 676.605,-462.846"/>
</g>
<!-- Node39&#45;&gt;Node6 -->
<g id="edge60" class="edge"><title>Node39&#45;&gt;Node6</title>
<path fill="none" stroke="midnightblue" d="M562.829,-57.4784C610.487,-40.9997 715.263,-13.7513 774,-67 829.613,-117.417 844.634,-681.537 847.103,-795.138"/>
<polygon fill="midnightblue" stroke="midnightblue" points="843.611,-795.539 847.319,-805.464 850.609,-795.392 843.611,-795.539"/>
</g>
<!-- Node39&#45;&gt;Node17 -->
<g id="edge61" class="edge"><title>Node39&#45;&gt;Node17</title>
<path fill="none" stroke="midnightblue" d="M597.407,-73.6987C615.149,-75.6993 634.505,-77.8819 651.922,-79.8458"/>
<polygon fill="midnightblue" stroke="midnightblue" points="651.596,-83.3312 661.925,-80.9738 652.381,-76.3752 651.596,-83.3312"/>
</g>
<!-- Node40 -->
<g id="node41" class="node"><title>Node40</title>
<g id="a_node41"><a xlink:href="oblas_8h_a06e2686eb0ba47ab72527cc2d8924583.html#a06e2686eb0ba47ab72527cc2d8924583" target="_top" xlink:title="oaddrow">
<polygon fill="none" stroke="black" points="681,-0.5 681,-19.5 734,-19.5 734,-0.5 681,-0.5"/>
<text text-anchor="middle" x="707.5" y="-7.5" font-family="Helvetica,sans-Serif" font-size="10.00">oaddrow</text>
</a>
</g>
</g>
<!-- Node39&#45;&gt;Node40 -->
<g id="edge62" class="edge"><title>Node39&#45;&gt;Node40</title>
<path fill="none" stroke="midnightblue" d="M566.203,-57.4595C595.115,-47.6792 640.143,-32.4471 671.356,-21.8884"/>
<polygon fill="midnightblue" stroke="midnightblue" points="672.616,-25.1572 680.967,-18.6372 670.373,-18.5263 672.616,-25.1572"/>
</g>
</g>
</svg>
        <g id="navigator" transform="translate(0 0)" fill="#404254">
                <rect fill="#f2f5e9" fill-opacity="0.5" stroke="#606060" stroke-width=".5" x="0" y="0" width="60" height="60"/>
                <use id="zoomplus" xlink:href="#zoomPlus" x="17" y="9" onmousedown="handleZoom(evt,'in')"/>
                <use id="zoomminus" xlink:href="#zoomMin" x="42" y="9" onmousedown="handleZoom(evt,'out')"/>
                <use id="reset" xlink:href="#resetDef" x="30" y="36" onmousedown="handleReset()"/>
                <g id="arrowUp" xlink:href="#dirArrow" transform="translate(30 24)" onmousedown="handlePan(0,-1)">
                  <use xlink:href="#rim" fill="#404040">
                        <set attributeName="fill" to="#808080" begin="arrowUp.mouseover" end="arrowUp.mouseout"/>
                  </use>
                  <path fill="none" stroke="white" stroke-width="1.5" d="M0,-3.0v7 M-2.5,-0.5L0,-3.0L2.5,-0.5"/>
                </g>
                <g id="arrowRight" xlink:href="#dirArrow" transform="rotate(90) translate(36 -43)" onmousedown="handlePan(1,0)">
                  <use xlink:href="#rim" fill="#404040">
                        <set attributeName="fill" to="#808080" begin="arrowRight.mouseover" end="arrowRight.mouseout"/>
                  </use>
                  <path fill="none" stroke="white" stroke-width="1.5" d="M0,-3.0v7 M-2.5,-0.5L0,-3.0L2.5,-0.5"/>
                </g>
                <g id="arrowDown" xlink:href="#dirArrow" transform="rotate(180) translate(-30 -48)" onmousedown="handlePan(0,1)">
                  <use xlink:href="#rim" fill="#404040">
                        <set attributeName="fill" to="#808080" begin="arrowDown.mouseover" end="arrowDown.mouseout"/>
                  </use>
                  <path fill="none" stroke="white" stroke-width="1.5" d="M0,-3.0v7 M-2.5,-0.5L0,-3.0L2.5,-0.5"/>
                </g>
                <g id="arrowLeft" xlink:href="#dirArrow" transform="rotate(270) translate(-36 17)" onmousedown="handlePan(-1,0)">
                  <use xlink:href="#rim" fill="#404040">
                        <set attributeName="fill" to="#808080" begin="arrowLeft.mouseover" end="arrowLeft.mouseout"/>
                  </use>
                  <path fill="none" stroke="white" stroke-width="1.5" d="M0,-3.0v7 M-2.5,-0.5L0,-3.0L2.5,-0.5"/>
                </g>
        </g>
        <svg viewBox="0 0 15 15" width="100%" height="30px" preserveAspectRatio="xMaxYMin meet">
         <g id="arrow_out" transform="scale(0.3 0.3)">
          <a xlink:href="nanorq_8c_a956615eb4ea3ce34369951295e93f708_a956615eb4ea3ce34369951295e93f708_cgraph_org.svg" target="_base">
           <rect id="button" ry="5" rx="5" y="6" x="6" height="38" width="38"
                fill="#f2f5e9" fill-opacity="0.5" stroke="#606060" stroke-width="1.0"/>
           <path id="arrow"
             d="M 11.500037,31.436501 C 11.940474,20.09759 22.043105,11.32322 32.158766,21.979434 L 37.068811,17.246167 C 37.068811,17.246167 37.088388,32 37.088388,32 L 22.160133,31.978069 C 22.160133,31.978069 26.997745,27.140456 26.997745,27.140456 C 18.528582,18.264221 13.291696,25.230495 11.500037,31.436501 z"
             style="fill:#404040;"/>
          </a>
         </g>
        </svg>
</svg>
