<?xml version="1.0" encoding="UTF-8" standalone="no"?>
<!DOCTYPE svg PUBLIC "-//W3C//DTD SVG 1.1//EN"
 "http://www.w3.org/Graphics/SVG/1.1/DTD/svg11.dtd">
<!-- Generated by graphviz version 2.38.0 (20140413.2041)
 -->
<!-- Title: nanorq_decoder_add_symbol Pages: 1 -->
<svg width="417pt" height="180pt"
 viewBox="0.00 0.00 417.00 180.00" xmlns="http://www.w3.org/2000/svg" xmlns:xlink="http://www.w3.org/1999/xlink">
<g id="graph0" class="graph" transform="scale(1 1) rotate(0) translate(4 176)">
<title>nanorq_decoder_add_symbol</title>
<!-- Node0 -->
<g id="node1" class="node"><title>Node0</title>
<polygon fill="#bfbfbf" stroke="black" points="0,-71 0,-101 107,-101 107,-71 0,-71"/>
<text text-anchor="start" x="8" y="-89" font-family="Helvetica,sans-Serif" font-size="10.00">nanorq_decoder_add</text>
<text text-anchor="middle" x="53.5" y="-78" font-family="Helvetica,sans-Serif" font-size="10.00">_symbol</text>
</g>
<!-- Node1 -->
<g id="node2" class="node"><title>Node1</title>
<g id="a_node2"><a xlink:href="bitmask_8h_ad67256bcd0a6b5b9e739bc889e22a45b.html#ad67256bcd0a6b5b9e739bc889e22a45b" target="_top" xlink:title="bitmask_check">
<polygon fill="none" stroke="black" points="158.5,-152.5 158.5,-171.5 241.5,-171.5 241.5,-152.5 158.5,-152.5"/>
<text text-anchor="middle" x="200" y="-159.5" font-family="Helvetica,sans-Serif" font-size="10.00">bitmask_check</text>
</a>
</g>
</g>
<!-- Node0&#45;&gt;Node1 -->
<g id="edge1" class="edge"><title>Node0&#45;&gt;Node1</title>
<path fill="none" stroke="midnightblue" d="M74.7557,-101.096C92.1707,-113.563 118.311,-131.085 143,-143 147.392,-145.12 152.082,-147.107 156.808,-148.938"/>
<polygon fill="midnightblue" stroke="midnightblue" points="155.883,-152.326 166.477,-152.469 158.284,-145.751 155.883,-152.326"/>
</g>
<!-- Node2 -->
<g id="node3" class="node"><title>Node2</title>
<g id="a_node3"><a xlink:href="bitmask_8h_a3b8b7d670ea2a2526b93623a8681341a.html#a3b8b7d670ea2a2526b93623a8681341a" target="_top" xlink:title="bitmask_gaps">
<polygon fill="none" stroke="black" points="161.5,-114.5 161.5,-133.5 238.5,-133.5 238.5,-114.5 161.5,-114.5"/>
<text text-anchor="middle" x="200" y="-121.5" font-family="Helvetica,sans-Serif" font-size="10.00">bitmask_gaps</text>
</a>
</g>
</g>
<!-- Node0&#45;&gt;Node2 -->
<g id="edge2" class="edge"><title>Node0&#45;&gt;Node2</title>
<path fill="none" stroke="midnightblue" d="M107.077,-99.8264C122.025,-103.758 138.191,-108.009 152.735,-111.833"/>
<polygon fill="midnightblue" stroke="midnightblue" points="151.949,-115.246 162.51,-114.404 153.729,-108.476 151.949,-115.246"/>
</g>
<!-- Node3 -->
<g id="node4" class="node"><title>Node3</title>
<g id="a_node4"><a xlink:href="bitmask_8h_a0b049fc6e42d4edb47d0ec69bd5af7ef.html#a0b049fc6e42d4edb47d0ec69bd5af7ef" target="_top" xlink:title="bitmask_set">
<polygon fill="none" stroke="black" points="165,-76.5 165,-95.5 235,-95.5 235,-76.5 165,-76.5"/>
<text text-anchor="middle" x="200" y="-83.5" font-family="Helvetica,sans-Serif" font-size="10.00">bitmask_set</text>
</a>
</g>
</g>
<!-- Node0&#45;&gt;Node3 -->
<g id="edge3" class="edge"><title>Node0&#45;&gt;Node3</title>
<path fill="none" stroke="midnightblue" d="M107.077,-86C122.681,-86 139.611,-86 154.639,-86"/>
<polygon fill="midnightblue" stroke="midnightblue" points="154.7,-89.5001 164.7,-86 154.7,-82.5001 154.7,-89.5001"/>
</g>
<!-- Node4 -->
<g id="node5" class="node"><title>Node4</title>
<g id="a_node5"><a xlink:href="nanorq_8c_a9e0825ce320f90492e45baad6a50ff4c.html#a9e0825ce320f90492e45baad6a50ff4c" target="_top" xlink:title="nanorq_block_decoder">
<polygon fill="none" stroke="black" points="143,-38.5 143,-57.5 257,-57.5 257,-38.5 143,-38.5"/>
<text text-anchor="middle" x="200" y="-45.5" font-family="Helvetica,sans-Serif" font-size="10.00">nanorq_block_decoder</text>
</a>
</g>
</g>
<!-- Node0&#45;&gt;Node4 -->
<g id="edge4" class="edge"><title>Node0&#45;&gt;Node4</title>
<path fill="none" stroke="midnightblue" d="M107.077,-72.1736C122.025,-68.2424 138.191,-63.9914 152.735,-60.1666"/>
<polygon fill="midnightblue" stroke="midnightblue" points="153.729,-63.5242 162.51,-57.5959 151.949,-56.7544 153.729,-63.5242"/>
</g>
<!-- Node6 -->
<g id="node7" class="node"><title>Node6</title>
<g id="a_node7"><a xlink:href="octmat_8c_a0db07e8a815b999f9837c74c31213cdb.html#a0db07e8a815b999f9837c74c31213cdb" target="_top" xlink:title="om_resize">
<polygon fill="none" stroke="black" points="169,-0.5 169,-19.5 231,-19.5 231,-0.5 169,-0.5"/>
<text text-anchor="middle" x="200" y="-7.5" font-family="Helvetica,sans-Serif" font-size="10.00">om_resize</text>
</a>
</g>
</g>
<!-- Node0&#45;&gt;Node6 -->
<g id="edge6" class="edge"><title>Node0&#45;&gt;Node6</title>
<path fill="none" stroke="midnightblue" d="M74.7557,-70.9038C92.1707,-58.4366 118.311,-40.9151 143,-29 148.085,-26.5457 153.57,-24.269 159.049,-22.2069"/>
<polygon fill="midnightblue" stroke="midnightblue" points="160.565,-25.3825 168.815,-18.7347 158.22,-18.787 160.565,-25.3825"/>
</g>
<!-- Node5 -->
<g id="node6" class="node"><title>Node5</title>
<g id="a_node6"><a xlink:href="nanorq_8c_a4c02c9d148e282c464ab013a678387d0.html#a4c02c9d148e282c464ab013a678387d0" target="_top" xlink:title="nanorq_block_symbols">
<polygon fill="none" stroke="black" points="293,-38.5 293,-57.5 409,-57.5 409,-38.5 293,-38.5"/>
<text text-anchor="middle" x="351" y="-45.5" font-family="Helvetica,sans-Serif" font-size="10.00">nanorq_block_symbols</text>
</a>
</g>
</g>
<!-- Node4&#45;&gt;Node5 -->
<g id="edge5" class="edge"><title>Node4&#45;&gt;Node5</title>
<path fill="none" stroke="midnightblue" d="M257.331,-48C265.533,-48 274.048,-48 282.445,-48"/>
<polygon fill="midnightblue" stroke="midnightblue" points="282.599,-51.5001 292.599,-48 282.599,-44.5001 282.599,-51.5001"/>
</g>
</g>
</svg>
