<?xml version="1.0" encoding="UTF-8" standalone="no"?>
<!DOCTYPE svg PUBLIC "-//W3C//DTD SVG 1.1//EN"
 "http://www.w3.org/Graphics/SVG/1.1/DTD/svg11.dtd">
<!-- Generated by graphviz version 2.38.0 (20140413.2041)
 -->
<!-- Title: nanorq_decode_cleanup Pages: 1 -->
<svg width="308pt" height="47pt"
 viewBox="0.00 0.00 308.00 47.00" xmlns="http://www.w3.org/2000/svg" xmlns:xlink="http://www.w3.org/1999/xlink">
<g id="graph0" class="graph" transform="scale(1 1) rotate(0) translate(4 43)">
<title>nanorq_decode_cleanup</title>
<!-- Node3 -->
<g id="node1" class="node"><title>Node3</title>
<polygon fill="#bfbfbf" stroke="black" points="0,-19.5 0,-38.5 122,-38.5 122,-19.5 0,-19.5"/>
<text text-anchor="middle" x="61" y="-26.5" font-family="Helvetica,sans-Serif" font-size="10.00">nanorq_decode_cleanup</text>
</g>
<!-- Node4 -->
<g id="node2" class="node"><title>Node4</title>
<g id="a_node2"><a xlink:href="decode_8c_a3c04138a5bfe5d72780bb7e82a18e627.html#a3c04138a5bfe5d72780bb7e82a18e627" target="_top" xlink:title="main">
<polygon fill="none" stroke="black" points="262,-19.5 262,-38.5 300,-38.5 300,-19.5 262,-19.5"/>
<text text-anchor="middle" x="281" y="-26.5" font-family="Helvetica,sans-Serif" font-size="10.00">main</text>
</a>
</g>
</g>
<!-- Node3&#45;&gt;Node4 -->
<g id="edge1" class="edge"><title>Node3&#45;&gt;Node4</title>
<path fill="none" stroke="midnightblue" d="M132.245,-29C177.604,-29 233.256,-29 261.563,-29"/>
<polygon fill="midnightblue" stroke="midnightblue" points="132.147,-25.5001 122.147,-29 132.147,-32.5001 132.147,-25.5001"/>
</g>
<!-- Node5 -->
<g id="node3" class="node"><title>Node5</title>
<g id="a_node3"><a xlink:href="nanorq_8c_aa9e53dbae07d172696c2ab8a56ffa150.html#aa9e53dbae07d172696c2ab8a56ffa150" target="_top" xlink:title="nanorq_free">
<polygon fill="none" stroke="black" points="158,-0.5 158,-19.5 226,-19.5 226,-0.5 158,-0.5"/>
<text text-anchor="middle" x="192" y="-7.5" font-family="Helvetica,sans-Serif" font-size="10.00">nanorq_free</text>
</a>
</g>
</g>
<!-- Node3&#45;&gt;Node5 -->
<g id="edge2" class="edge"><title>Node3&#45;&gt;Node5</title>
<path fill="none" stroke="midnightblue" d="M132.359,-18.637C141.205,-17.3342 149.902,-16.0532 157.778,-14.8932"/>
<polygon fill="midnightblue" stroke="midnightblue" points="131.729,-15.1921 122.345,-20.1119 132.749,-22.1173 131.729,-15.1921"/>
</g>
<!-- Node5&#45;&gt;Node4 -->
<g id="edge3" class="edge"><title>Node5&#45;&gt;Node4</title>
<path fill="none" stroke="midnightblue" d="M236.168,-19.4275C245.258,-21.4126 254.367,-23.402 261.908,-25.0488"/>
<polygon fill="midnightblue" stroke="midnightblue" points="236.904,-16.0058 226.388,-17.2916 235.411,-22.8447 236.904,-16.0058"/>
</g>
</g>
</svg>
