<?xml version="1.0" encoding="UTF-8" standalone="no"?>
<!DOCTYPE svg PUBLIC "-//W3C//DTD SVG 1.1//EN"
 "http://www.w3.org/Graphics/SVG/1.1/DTD/svg11.dtd">
<!-- Generated by graphviz version 2.38.0 (20140413.2041)
 -->
<!-- Title: nanorq.c Pages: 1 -->
<svg width="957pt" height="84pt"
 viewBox="0.00 0.00 956.50 84.00" xmlns="http://www.w3.org/2000/svg" xmlns:xlink="http://www.w3.org/1999/xlink">
<g id="graph0" class="graph" transform="scale(1 1) rotate(0) translate(4 80)">
<title>nanorq.c</title>
<!-- Node0 -->
<g id="node1" class="node"><title>Node0</title>
<polygon fill="#bfbfbf" stroke="black" points="455,-56.5 455,-75.5 509,-75.5 509,-56.5 455,-56.5"/>
<text text-anchor="middle" x="482" y="-63.5" font-family="Helvetica,sans-Serif" font-size="10.00">nanorq.c</text>
</g>
<!-- Node1 -->
<g id="node2" class="node"><title>Node1</title>
<polygon fill="none" stroke="#bfbfbf" points="0,-0.5 0,-19.5 48,-19.5 48,-0.5 0,-0.5"/>
<text text-anchor="middle" x="24" y="-7.5" font-family="Helvetica,sans-Serif" font-size="10.00">stdlib.h</text>
</g>
<!-- Node0&#45;&gt;Node1 -->
<g id="edge1" class="edge"><title>Node0&#45;&gt;Node1</title>
<path fill="none" stroke="midnightblue" d="M454.93,-63.6466C388.764,-60.0188 213.504,-48.4825 58.2431,-19.9428"/>
<polygon fill="midnightblue" stroke="midnightblue" points="58.5193,-16.4339 48.0467,-18.0382 57.234,-23.3149 58.5193,-16.4339"/>
</g>
<!-- Node2 -->
<g id="node3" class="node"><title>Node2</title>
<polygon fill="none" stroke="#bfbfbf" points="66,-0.5 66,-19.5 112,-19.5 112,-0.5 66,-0.5"/>
<text text-anchor="middle" x="89" y="-7.5" font-family="Helvetica,sans-Serif" font-size="10.00">stdio.h</text>
</g>
<!-- Node0&#45;&gt;Node2 -->
<g id="edge2" class="edge"><title>Node0&#45;&gt;Node2</title>
<path fill="none" stroke="midnightblue" d="M454.603,-62.9978C395.542,-58.3816 251.753,-45.5329 122.399,-20.0157"/>
<polygon fill="midnightblue" stroke="midnightblue" points="122.813,-16.5292 112.32,-17.9955 121.437,-23.3927 122.813,-16.5292"/>
</g>
<!-- Node3 -->
<g id="node4" class="node"><title>Node3</title>
<polygon fill="none" stroke="#bfbfbf" points="130.5,-0.5 130.5,-19.5 179.5,-19.5 179.5,-0.5 130.5,-0.5"/>
<text text-anchor="middle" x="155" y="-7.5" font-family="Helvetica,sans-Serif" font-size="10.00">stdint.h</text>
</g>
<!-- Node0&#45;&gt;Node3 -->
<g id="edge3" class="edge"><title>Node0&#45;&gt;Node3</title>
<path fill="none" stroke="midnightblue" d="M454.762,-61.8003C404.409,-55.6749 293.22,-41.1683 189.792,-19.9661"/>
<polygon fill="midnightblue" stroke="midnightblue" points="190.313,-16.4996 179.81,-17.8935 188.889,-23.3534 190.313,-16.4996"/>
</g>
<!-- Node4 -->
<g id="node5" class="node"><title>Node4</title>
<polygon fill="none" stroke="#bfbfbf" points="198,-0.5 198,-19.5 258,-19.5 258,-0.5 198,-0.5"/>
<text text-anchor="middle" x="228" y="-7.5" font-family="Helvetica,sans-Serif" font-size="10.00">memory.h</text>
</g>
<!-- Node0&#45;&gt;Node4 -->
<g id="edge4" class="edge"><title>Node0&#45;&gt;Node4</title>
<path fill="none" stroke="midnightblue" d="M454.81,-59.495C415.731,-51.5426 341.178,-36.2221 268.057,-20.1998"/>
<polygon fill="midnightblue" stroke="midnightblue" points="268.738,-16.7661 258.22,-18.0381 267.236,-23.6029 268.738,-16.7661"/>
</g>
<!-- Node5 -->
<g id="node6" class="node"><title>Node5</title>
<polygon fill="none" stroke="#bfbfbf" points="276,-0.5 276,-19.5 332,-19.5 332,-0.5 276,-0.5"/>
<text text-anchor="middle" x="304" y="-7.5" font-family="Helvetica,sans-Serif" font-size="10.00">stdbool.h</text>
</g>
<!-- Node0&#45;&gt;Node5 -->
<g id="edge5" class="edge"><title>Node0&#45;&gt;Node5</title>
<path fill="none" stroke="midnightblue" d="M454.966,-56.7986C424.781,-47.6414 375.718,-32.7572 341.756,-22.454"/>
<polygon fill="midnightblue" stroke="midnightblue" points="342.758,-19.1005 332.172,-19.5467 340.726,-25.7991 342.758,-19.1005"/>
</g>
<!-- Node6 -->
<g id="node7" class="node"><title>Node6</title>
<g id="a_node7"><a xlink:href="octmat_8h.html" target="_top" xlink:title="octmat.h">
<polygon fill="none" stroke="black" points="350.5,-0.5 350.5,-19.5 405.5,-19.5 405.5,-0.5 350.5,-0.5"/>
<text text-anchor="middle" x="378" y="-7.5" font-family="Helvetica,sans-Serif" font-size="10.00">octmat.h</text>
</a>
</g>
</g>
<!-- Node0&#45;&gt;Node6 -->
<g id="edge6" class="edge"><title>Node0&#45;&gt;Node6</title>
<path fill="none" stroke="midnightblue" d="M465.291,-56.324C448.688,-47.7034 422.998,-34.3643 403.78,-24.3855"/>
<polygon fill="midnightblue" stroke="midnightblue" points="405.156,-21.1565 394.668,-19.6545 401.93,-27.3689 405.156,-21.1565"/>
</g>
<!-- Node7 -->
<g id="node8" class="node"><title>Node7</title>
<g id="a_node8"><a xlink:href="kvec_8h.html" target="_top" xlink:title="kvec.h">
<polygon fill="none" stroke="black" points="424,-0.5 424,-19.5 470,-19.5 470,-0.5 424,-0.5"/>
<text text-anchor="middle" x="447" y="-7.5" font-family="Helvetica,sans-Serif" font-size="10.00">kvec.h</text>
</a>
</g>
</g>
<!-- Node0&#45;&gt;Node7 -->
<g id="edge7" class="edge"><title>Node0&#45;&gt;Node7</title>
<path fill="none" stroke="midnightblue" d="M476.22,-56.083C471.328,-48.5341 464.173,-37.4948 458.167,-28.2298"/>
<polygon fill="midnightblue" stroke="midnightblue" points="461.048,-26.239 452.672,-19.7511 455.174,-30.0463 461.048,-26.239"/>
</g>
<!-- Node8 -->
<g id="node9" class="node"><title>Node8</title>
<g id="a_node9"><a xlink:href="bitmask_8h.html" target="_top" xlink:title="bitmask.h">
<polygon fill="none" stroke="black" points="488.5,-0.5 488.5,-19.5 547.5,-19.5 547.5,-0.5 488.5,-0.5"/>
<text text-anchor="middle" x="518" y="-7.5" font-family="Helvetica,sans-Serif" font-size="10.00">bitmask.h</text>
</a>
</g>
</g>
<!-- Node0&#45;&gt;Node8 -->
<g id="edge8" class="edge"><title>Node0&#45;&gt;Node8</title>
<path fill="none" stroke="midnightblue" d="M487.945,-56.083C492.977,-48.5341 500.337,-37.4948 506.513,-28.2298"/>
<polygon fill="midnightblue" stroke="midnightblue" points="509.531,-30.0131 512.166,-19.7511 503.707,-26.1301 509.531,-30.0131"/>
</g>
<!-- Node9 -->
<g id="node10" class="node"><title>Node9</title>
<g id="a_node10"><a xlink:href="util_8h.html" target="_top" xlink:title="util.h">
<polygon fill="none" stroke="black" points="566,-0.5 566,-19.5 604,-19.5 604,-0.5 566,-0.5"/>
<text text-anchor="middle" x="585" y="-7.5" font-family="Helvetica,sans-Serif" font-size="10.00">util.h</text>
</a>
</g>
</g>
<!-- Node0&#45;&gt;Node9 -->
<g id="edge9" class="edge"><title>Node0&#45;&gt;Node9</title>
<path fill="none" stroke="midnightblue" d="M498.549,-56.324C514.992,-47.7034 540.435,-34.3643 559.468,-24.3855"/>
<polygon fill="midnightblue" stroke="midnightblue" points="561.261,-27.3977 568.492,-19.6545 558.011,-21.198 561.261,-27.3977"/>
</g>
<!-- Node10 -->
<g id="node11" class="node"><title>Node10</title>
<g id="a_node11"><a xlink:href="params_8h.html" target="_top" xlink:title="params.h">
<polygon fill="none" stroke="black" points="622.5,-0.5 622.5,-19.5 679.5,-19.5 679.5,-0.5 622.5,-0.5"/>
<text text-anchor="middle" x="651" y="-7.5" font-family="Helvetica,sans-Serif" font-size="10.00">params.h</text>
</a>
</g>
</g>
<!-- Node0&#45;&gt;Node10 -->
<g id="edge10" class="edge"><title>Node0&#45;&gt;Node10</title>
<path fill="none" stroke="midnightblue" d="M508.779,-56.4435C537.333,-47.3196 582.733,-32.8133 614.537,-22.6509"/>
<polygon fill="midnightblue" stroke="midnightblue" points="615.886,-25.8941 624.347,-19.5164 613.756,-19.2262 615.886,-25.8941"/>
</g>
<!-- Node11 -->
<g id="node12" class="node"><title>Node11</title>
<g id="a_node12"><a xlink:href="precode_8h.html" target="_top" xlink:title="precode.h">
<polygon fill="none" stroke="black" points="697.5,-0.5 697.5,-19.5 756.5,-19.5 756.5,-0.5 697.5,-0.5"/>
<text text-anchor="middle" x="727" y="-7.5" font-family="Helvetica,sans-Serif" font-size="10.00">precode.h</text>
</a>
</g>
</g>
<!-- Node0&#45;&gt;Node11 -->
<g id="edge11" class="edge"><title>Node0&#45;&gt;Node11</title>
<path fill="none" stroke="midnightblue" d="M509.161,-59.2628C546.977,-51.2387 617.881,-36.0628 687.352,-20.3473"/>
<polygon fill="midnightblue" stroke="midnightblue" points="688.163,-23.7522 697.141,-18.1268 686.615,-16.9256 688.163,-23.7522"/>
</g>
<!-- Node12 -->
<g id="node13" class="node"><title>Node12</title>
<g id="a_node13"><a xlink:href="io_8h.html" target="_top" xlink:title="io.h">
<polygon fill="none" stroke="black" points="775,-0.5 775,-19.5 807,-19.5 807,-0.5 775,-0.5"/>
<text text-anchor="middle" x="791" y="-7.5" font-family="Helvetica,sans-Serif" font-size="10.00">io.h</text>
</a>
</g>
</g>
<!-- Node0&#45;&gt;Node12 -->
<g id="edge12" class="edge"><title>Node0&#45;&gt;Node12</title>
<path fill="none" stroke="midnightblue" d="M509.367,-62.3976C558.777,-57.3306 666.188,-44.6306 764.902,-19.8687"/>
<polygon fill="midnightblue" stroke="midnightblue" points="765.911,-23.2233 774.732,-17.3547 764.176,-16.4416 765.911,-23.2233"/>
</g>
<!-- Node13 -->
<g id="node14" class="node"><title>Node13</title>
<g id="a_node14"><a xlink:href="nanorq_8h.html" target="_top" xlink:title="nanorq.h">
<polygon fill="none" stroke="black" points="825,-0.5 825,-19.5 879,-19.5 879,-0.5 825,-0.5"/>
<text text-anchor="middle" x="852" y="-7.5" font-family="Helvetica,sans-Serif" font-size="10.00">nanorq.h</text>
</a>
</g>
</g>
<!-- Node0&#45;&gt;Node13 -->
<g id="edge13" class="edge"><title>Node0&#45;&gt;Node13</title>
<path fill="none" stroke="midnightblue" d="M509.006,-62.39C564.474,-56.8103 695.378,-42.5172 814.894,-20.0226"/>
<polygon fill="midnightblue" stroke="midnightblue" points="815.777,-23.4173 824.945,-18.106 814.466,-16.5412 815.777,-23.4173"/>
</g>
<!-- Node14 -->
<g id="node15" class="node"><title>Node14</title>
<g id="a_node15"><a xlink:href="table2_8h.html" target="_top" xlink:title="table2.h">
<polygon fill="none" stroke="black" points="897.5,-0.5 897.5,-19.5 948.5,-19.5 948.5,-0.5 897.5,-0.5"/>
<text text-anchor="middle" x="923" y="-7.5" font-family="Helvetica,sans-Serif" font-size="10.00">table2.h</text>
</a>
</g>
</g>
<!-- Node0&#45;&gt;Node14 -->
<g id="edge14" class="edge"><title>Node0&#45;&gt;Node14</title>
<path fill="none" stroke="midnightblue" d="M509.276,-63.3133C573.446,-59.0618 739.074,-46.4412 887.29,-19.8613"/>
<polygon fill="midnightblue" stroke="midnightblue" points="888.267,-23.2412 897.478,-18.0069 887.013,-16.3544 888.267,-23.2412"/>
</g>
</g>
</svg>
