<?xml version="1.0" encoding="UTF-8" standalone="no"?>
<!DOCTYPE svg PUBLIC "-//W3C//DTD SVG 1.1//EN"
 "http://www.w3.org/Graphics/SVG/1.1/DTD/svg11.dtd">
<!-- Generated by graphviz version 2.38.0 (20140413.2041)
 -->
<!-- Title: nanorq_generate_symbols Pages: 1 -->
<svg width="874pt" height="976pt"
 viewBox="0.00 0.00 874.00 976.00" xmlns="http://www.w3.org/2000/svg" xmlns:xlink="http://www.w3.org/1999/xlink">
<g id="graph0" class="graph" transform="scale(1 1) rotate(0) translate(4 972)">
<title>nanorq_generate_symbols</title>
<!-- Node0 -->
<g id="node1" class="node"><title>Node0</title>
<polygon fill="#bfbfbf" stroke="black" points="0,-652.5 0,-671.5 131,-671.5 131,-652.5 0,-652.5"/>
<text text-anchor="middle" x="65.5" y="-659.5" font-family="Helvetica,sans-Serif" font-size="10.00">nanorq_generate_symbols</text>
</g>
<!-- Node1 -->
<g id="node2" class="node"><title>Node1</title>
<g id="a_node2"><a xlink:href="nanorq_8c_ac5177dacb887e2fa089abdb0de703b4d.html#ac5177dacb887e2fa089abdb0de703b4d" target="_top" xlink:title="get_symbol_offset">
<polygon fill="none" stroke="black" points="192,-811.5 192,-830.5 289,-830.5 289,-811.5 192,-811.5"/>
<text text-anchor="middle" x="240.5" y="-818.5" font-family="Helvetica,sans-Serif" font-size="10.00">get_symbol_offset</text>
</a>
</g>
</g>
<!-- Node0&#45;&gt;Node1 -->
<g id="edge1" class="edge"><title>Node0&#45;&gt;Node1</title>
<path fill="none" stroke="midnightblue" d="M70.5269,-671.568C81.7529,-697.034 115.962,-766.915 167,-802 171.624,-805.179 176.748,-807.826 182.071,-810.03"/>
<polygon fill="midnightblue" stroke="midnightblue" points="181.211,-813.44 191.805,-813.538 183.584,-806.855 181.211,-813.44"/>
</g>
<!-- Node2 -->
<g id="node3" class="node"><title>Node2</title>
<g id="a_node3"><a xlink:href="nanorq_8c_ae51b5ce95f964fb7c4141edd8128dc0e.html#ae51b5ce95f964fb7c4141edd8128dc0e" target="_top" xlink:title="nanorq_block_encoder">
<polygon fill="none" stroke="black" points="183.5,-773.5 183.5,-792.5 297.5,-792.5 297.5,-773.5 183.5,-773.5"/>
<text text-anchor="middle" x="240.5" y="-780.5" font-family="Helvetica,sans-Serif" font-size="10.00">nanorq_block_encoder</text>
</a>
</g>
</g>
<!-- Node0&#45;&gt;Node2 -->
<g id="edge2" class="edge"><title>Node0&#45;&gt;Node2</title>
<path fill="none" stroke="midnightblue" d="M73.0779,-671.539C87.5752,-691.813 124.396,-739.348 167,-764 170.842,-766.223 174.946,-768.191 179.176,-769.932"/>
<polygon fill="midnightblue" stroke="midnightblue" points="177.989,-773.224 188.582,-773.393 180.406,-766.655 177.989,-773.224"/>
</g>
<!-- Node4 -->
<g id="node5" class="node"><title>Node4</title>
<g id="a_node5"><a xlink:href="octmat_8c_ac7854c0635a9441a5a352f95dbbd7bbd.html#ac7854c0635a9441a5a352f95dbbd7bbd" target="_top" xlink:title="om_destroy">
<polygon fill="none" stroke="black" points="554.5,-494.5 554.5,-513.5 622.5,-513.5 622.5,-494.5 554.5,-494.5"/>
<text text-anchor="middle" x="588.5" y="-501.5" font-family="Helvetica,sans-Serif" font-size="10.00">om_destroy</text>
</a>
</g>
</g>
<!-- Node0&#45;&gt;Node4 -->
<g id="edge4" class="edge"><title>Node0&#45;&gt;Node4</title>
<path fill="none" stroke="midnightblue" d="M73.2482,-652.378C87.7996,-632.467 124.29,-586.866 167,-566 200.539,-549.614 443.752,-520.399 544.24,-508.87"/>
<polygon fill="midnightblue" stroke="midnightblue" points="544.818,-512.327 554.356,-507.714 544.023,-505.372 544.818,-512.327"/>
</g>
<!-- Node5 -->
<g id="node6" class="node"><title>Node5</title>
<g id="a_node6"><a xlink:href="octmat_8c_a0db07e8a815b999f9837c74c31213cdb.html#a0db07e8a815b999f9837c74c31213cdb" target="_top" xlink:title="om_resize">
<polygon fill="none" stroke="black" points="698.5,-614.5 698.5,-633.5 760.5,-633.5 760.5,-614.5 698.5,-614.5"/>
<text text-anchor="middle" x="729.5" y="-621.5" font-family="Helvetica,sans-Serif" font-size="10.00">om_resize</text>
</a>
</g>
</g>
<!-- Node0&#45;&gt;Node5 -->
<g id="edge5" class="edge"><title>Node0&#45;&gt;Node5</title>
<path fill="none" stroke="midnightblue" d="M118.176,-652.49C202.395,-637.526 374.658,-609.141 522,-599 580.972,-594.941 596.681,-589.353 655,-599 669.06,-601.326 684.044,-605.995 696.791,-610.675"/>
<polygon fill="midnightblue" stroke="midnightblue" points="695.882,-614.075 706.473,-614.386 698.388,-607.539 695.882,-614.075"/>
</g>
<!-- Node6 -->
<g id="node7" class="node"><title>Node6</title>
<g id="a_node7"><a xlink:href="precode_8c_a85c0aa4f7900eccf336228d43b7c133c.html#a85c0aa4f7900eccf336228d43b7c133c" target="_top" xlink:title="precode_matrix_gen">
<polygon fill="none" stroke="black" points="188.5,-735.5 188.5,-754.5 292.5,-754.5 292.5,-735.5 188.5,-735.5"/>
<text text-anchor="middle" x="240.5" y="-742.5" font-family="Helvetica,sans-Serif" font-size="10.00">precode_matrix_gen</text>
</a>
</g>
</g>
<!-- Node0&#45;&gt;Node6 -->
<g id="edge6" class="edge"><title>Node0&#45;&gt;Node6</title>
<path fill="none" stroke="midnightblue" d="M86.3453,-671.521C116.767,-686.117 175.1,-714.103 210.337,-731.008"/>
<polygon fill="midnightblue" stroke="midnightblue" points="209.09,-734.292 219.62,-735.462 212.118,-727.981 209.09,-734.292"/>
</g>
<!-- Node17 -->
<g id="node18" class="node"><title>Node17</title>
<g id="a_node18"><a xlink:href="precode_8c_a262ba8efa6b500c1e7a3cb0451245291.html#a262ba8efa6b500c1e7a3cb0451245291" target="_top" xlink:title="precode_matrix_intermediate1">
<polygon fill="none" stroke="black" points="167,-361.5 167,-380.5 314,-380.5 314,-361.5 167,-361.5"/>
<text text-anchor="middle" x="240.5" y="-368.5" font-family="Helvetica,sans-Serif" font-size="10.00">precode_matrix_intermediate1</text>
</a>
</g>
</g>
<!-- Node0&#45;&gt;Node17 -->
<g id="edge22" class="edge"><title>Node0&#45;&gt;Node17</title>
<path fill="none" stroke="midnightblue" d="M72.256,-652.318C97.0895,-610.546 195.295,-445.356 228.478,-389.539"/>
<polygon fill="midnightblue" stroke="midnightblue" points="231.621,-391.103 233.722,-380.718 225.604,-387.526 231.621,-391.103"/>
</g>
<!-- Node3 -->
<g id="node4" class="node"><title>Node3</title>
<g id="a_node4"><a xlink:href="nanorq_8c_a4c02c9d148e282c464ab013a678387d0.html#a4c02c9d148e282c464ab013a678387d0" target="_top" xlink:title="nanorq_block_symbols">
<polygon fill="none" stroke="black" points="360,-948.5 360,-967.5 476,-967.5 476,-948.5 360,-948.5"/>
<text text-anchor="middle" x="418" y="-955.5" font-family="Helvetica,sans-Serif" font-size="10.00">nanorq_block_symbols</text>
</a>
</g>
</g>
<!-- Node2&#45;&gt;Node3 -->
<g id="edge3" class="edge"><title>Node2&#45;&gt;Node3</title>
<path fill="none" stroke="midnightblue" d="M297.844,-791.175C303.828,-793.874 309.398,-797.401 314,-802 358.531,-846.502 305.916,-894.054 350,-939 351.429,-940.457 352.96,-941.804 354.575,-943.049"/>
<polygon fill="midnightblue" stroke="midnightblue" points="352.912,-946.138 363.247,-948.471 356.623,-940.202 352.912,-946.138"/>
</g>
<!-- Node6&#45;&gt;Node5 -->
<g id="edge7" class="edge"><title>Node6&#45;&gt;Node5</title>
<path fill="none" stroke="midnightblue" d="M292.741,-743.698C399.946,-740.812 639.327,-733.461 655,-725 672.336,-715.641 702.086,-668.693 717.898,-642.225"/>
<polygon fill="midnightblue" stroke="midnightblue" points="720.974,-643.899 723.044,-633.508 714.946,-640.34 720.974,-643.899"/>
</g>
<!-- Node7 -->
<g id="node8" class="node"><title>Node7</title>
<g id="a_node8"><a xlink:href="precode_8c_a39d289c7bff03b667e282e44b3decb5f.html#a39d289c7bff03b667e282e44b3decb5f" target="_top" xlink:title="precode_matrix_init\l_LDPC1">
<polygon fill="none" stroke="black" points="367.5,-850 367.5,-880 468.5,-880 468.5,-850 367.5,-850"/>
<text text-anchor="start" x="375.5" y="-868" font-family="Helvetica,sans-Serif" font-size="10.00">precode_matrix_init</text>
<text text-anchor="middle" x="418" y="-857" font-family="Helvetica,sans-Serif" font-size="10.00">_LDPC1</text>
</a>
</g>
</g>
<!-- Node6&#45;&gt;Node7 -->
<g id="edge8" class="edge"><title>Node6&#45;&gt;Node7</title>
<path fill="none" stroke="midnightblue" d="M292.626,-752.297C300.356,-755.057 307.803,-758.835 314,-764 343.018,-788.189 322.07,-815.563 350,-841 352.591,-843.359 355.43,-845.491 358.43,-847.415"/>
<polygon fill="midnightblue" stroke="midnightblue" points="356.799,-850.513 367.241,-852.31 360.199,-844.394 356.799,-850.513"/>
</g>
<!-- Node8 -->
<g id="node9" class="node"><title>Node8</title>
<g id="a_node9"><a xlink:href="precode_8c_af2734c7ddac33888abcc52e10df15665.html#af2734c7ddac33888abcc52e10df15665" target="_top" xlink:title="precode_matrix_add\l_identity">
<polygon fill="none" stroke="black" points="366,-801 366,-831 470,-831 470,-801 366,-801"/>
<text text-anchor="start" x="374" y="-819" font-family="Helvetica,sans-Serif" font-size="10.00">precode_matrix_add</text>
<text text-anchor="middle" x="418" y="-808" font-family="Helvetica,sans-Serif" font-size="10.00">_identity</text>
</a>
</g>
</g>
<!-- Node6&#45;&gt;Node8 -->
<g id="edge9" class="edge"><title>Node6&#45;&gt;Node8</title>
<path fill="none" stroke="midnightblue" d="M289.303,-754.579C297.751,-757.093 306.3,-760.198 314,-764 332.175,-772.975 332.236,-782.238 350,-792 353.071,-793.688 356.284,-795.296 359.569,-796.822"/>
<polygon fill="midnightblue" stroke="midnightblue" points="358.396,-800.128 368.963,-800.9 361.184,-793.707 358.396,-800.128"/>
</g>
<!-- Node9 -->
<g id="node10" class="node"><title>Node9</title>
<g id="a_node10"><a xlink:href="precode_8c_a992134f8be1689ebd0d9aea6fafe217a.html#a992134f8be1689ebd0d9aea6fafe217a" target="_top" xlink:title="precode_matrix_init\l_LDPC2">
<polygon fill="none" stroke="black" points="367.5,-752 367.5,-782 468.5,-782 468.5,-752 367.5,-752"/>
<text text-anchor="start" x="375.5" y="-770" font-family="Helvetica,sans-Serif" font-size="10.00">precode_matrix_init</text>
<text text-anchor="middle" x="418" y="-759" font-family="Helvetica,sans-Serif" font-size="10.00">_LDPC2</text>
</a>
</g>
</g>
<!-- Node6&#45;&gt;Node9 -->
<g id="edge10" class="edge"><title>Node6&#45;&gt;Node9</title>
<path fill="none" stroke="midnightblue" d="M292.734,-751.422C312.905,-753.951 336.21,-756.873 357.15,-759.497"/>
<polygon fill="midnightblue" stroke="midnightblue" points="356.857,-762.988 367.215,-760.759 357.728,-756.042 356.857,-762.988"/>
</g>
<!-- Node10 -->
<g id="node11" class="node"><title>Node10</title>
<g id="a_node11"><a xlink:href="precode_8c_a64e2c5739177d2991dea9ab54f2469b6.html#a64e2c5739177d2991dea9ab54f2469b6" target="_top" xlink:title="precode_matrix_init_HDPC">
<polygon fill="none" stroke="black" points="350,-634.5 350,-653.5 486,-653.5 486,-634.5 350,-634.5"/>
<text text-anchor="middle" x="418" y="-641.5" font-family="Helvetica,sans-Serif" font-size="10.00">precode_matrix_init_HDPC</text>
</a>
</g>
</g>
<!-- Node6&#45;&gt;Node10 -->
<g id="edge11" class="edge"><title>Node6&#45;&gt;Node10</title>
<path fill="none" stroke="midnightblue" d="M258.011,-735.498C288.716,-717.827 354.794,-679.799 391.357,-658.758"/>
<polygon fill="midnightblue" stroke="midnightblue" points="393.484,-661.572 400.405,-653.55 389.992,-655.505 393.484,-661.572"/>
</g>
<!-- Node15 -->
<g id="node16" class="node"><title>Node15</title>
<g id="a_node16"><a xlink:href="precode_8c_a7fb81075ad77cf8790ba330c7fc6c221.html#a7fb81075ad77cf8790ba330c7fc6c221" target="_top" xlink:title="precode_matrix_add\l_G_ENC">
<polygon fill="none" stroke="black" points="366,-899 366,-929 470,-929 470,-899 366,-899"/>
<text text-anchor="start" x="374" y="-917" font-family="Helvetica,sans-Serif" font-size="10.00">precode_matrix_add</text>
<text text-anchor="middle" x="418" y="-906" font-family="Helvetica,sans-Serif" font-size="10.00">_G_ENC</text>
</a>
</g>
</g>
<!-- Node6&#45;&gt;Node15 -->
<g id="edge20" class="edge"><title>Node6&#45;&gt;Node15</title>
<path fill="none" stroke="midnightblue" d="M292.626,-751.204C300.539,-754.077 308.047,-758.177 314,-764 355.633,-804.727 310.192,-847.488 350,-890 352.098,-892.241 354.42,-894.272 356.902,-896.115"/>
<polygon fill="midnightblue" stroke="midnightblue" points="355.527,-899.38 365.87,-901.677 359.217,-893.432 355.527,-899.38"/>
</g>
<!-- Node10&#45;&gt;Node4 -->
<g id="edge19" class="edge"><title>Node10&#45;&gt;Node4</title>
<path fill="none" stroke="midnightblue" d="M425.964,-634.476C444.969,-608.721 497.907,-538.578 522,-523 528.781,-518.615 536.599,-515.218 544.418,-512.594"/>
<polygon fill="midnightblue" stroke="midnightblue" points="545.662,-515.876 554.247,-509.667 543.664,-509.167 545.662,-515.876"/>
</g>
<!-- Node10&#45;&gt;Node5 -->
<g id="edge17" class="edge"><title>Node10&#45;&gt;Node5</title>
<path fill="none" stroke="midnightblue" d="M486.066,-651.313C533.54,-654.989 598.546,-656.984 655,-648 668.703,-645.819 683.323,-641.487 695.886,-637.096"/>
<polygon fill="midnightblue" stroke="midnightblue" points="697.268,-640.317 705.463,-633.602 694.869,-633.741 697.268,-640.317"/>
</g>
<!-- Node11 -->
<g id="node12" class="node"><title>Node11</title>
<g id="a_node12"><a xlink:href="precode_8c_a291ab32ffee6435673b4693d8c74952f.html#a291ab32ffee6435673b4693d8c74952f" target="_top" xlink:title="precode_matrix_make_MT">
<polygon fill="none" stroke="black" points="522.5,-696.5 522.5,-715.5 654.5,-715.5 654.5,-696.5 522.5,-696.5"/>
<text text-anchor="middle" x="588.5" y="-703.5" font-family="Helvetica,sans-Serif" font-size="10.00">precode_matrix_make_MT</text>
</a>
</g>
</g>
<!-- Node10&#45;&gt;Node11 -->
<g id="edge12" class="edge"><title>Node10&#45;&gt;Node11</title>
<path fill="none" stroke="midnightblue" d="M444.815,-653.542C465.644,-661.237 495.703,-672.331 522,-682 531.617,-685.536 542.032,-689.356 551.667,-692.887"/>
<polygon fill="midnightblue" stroke="midnightblue" points="550.766,-696.284 561.359,-696.437 553.173,-689.711 550.766,-696.284"/>
</g>
<!-- Node13 -->
<g id="node14" class="node"><title>Node13</title>
<g id="a_node14"><a xlink:href="precode_8c_a88ec15cf62d897ab1df189175429c7f8.html#a88ec15cf62d897ab1df189175429c7f8" target="_top" xlink:title="precode_matrix_make\l_GAMMA">
<polygon fill="none" stroke="black" points="532,-609 532,-639 645,-639 645,-609 532,-609"/>
<text text-anchor="start" x="540" y="-627" font-family="Helvetica,sans-Serif" font-size="10.00">precode_matrix_make</text>
<text text-anchor="middle" x="588.5" y="-616" font-family="Helvetica,sans-Serif" font-size="10.00">_GAMMA</text>
</a>
</g>
</g>
<!-- Node10&#45;&gt;Node13 -->
<g id="edge15" class="edge"><title>Node10&#45;&gt;Node13</title>
<path fill="none" stroke="midnightblue" d="M486.08,-636.038C497.792,-634.648 509.966,-633.203 521.645,-631.817"/>
<polygon fill="midnightblue" stroke="midnightblue" points="522.239,-635.271 531.757,-630.616 521.414,-628.32 522.239,-635.271"/>
</g>
<!-- Node14 -->
<g id="node15" class="node"><title>Node14</title>
<g id="a_node15"><a xlink:href="oblas_8h_a85e2604cc8aec26b591370ab48307bcc.html#a85e2604cc8aec26b591370ab48307bcc" target="_top" xlink:title="ogemm">
<polygon fill="none" stroke="black" points="564,-532.5 564,-551.5 613,-551.5 613,-532.5 564,-532.5"/>
<text text-anchor="middle" x="588.5" y="-539.5" font-family="Helvetica,sans-Serif" font-size="10.00">ogemm</text>
</a>
</g>
</g>
<!-- Node10&#45;&gt;Node14 -->
<g id="edge18" class="edge"><title>Node10&#45;&gt;Node14</title>
<path fill="none" stroke="midnightblue" d="M434.852,-634.404C464.332,-616.558 527.775,-578.154 562.88,-556.904"/>
<polygon fill="midnightblue" stroke="midnightblue" points="564.825,-559.817 571.567,-551.645 561.2,-553.829 564.825,-559.817"/>
</g>
<!-- Node11&#45;&gt;Node5 -->
<g id="edge13" class="edge"><title>Node11&#45;&gt;Node5</title>
<path fill="none" stroke="midnightblue" d="M621.713,-696.475C632.613,-692.665 644.64,-687.79 655,-682 675.639,-670.465 696.552,-653.314 710.765,-640.653"/>
<polygon fill="midnightblue" stroke="midnightblue" points="713.264,-643.111 718.307,-633.793 708.554,-637.933 713.264,-643.111"/>
</g>
<!-- Node12 -->
<g id="node13" class="node"><title>Node12</title>
<g id="a_node13"><a xlink:href="rand_8h_acd60cf6a4df3a81ef6cad8f6e6ae715d.html#acd60cf6a4df3a81ef6cad8f6e6ae715d" target="_top" xlink:title="rnd_get">
<polygon fill="none" stroke="black" points="705,-696.5 705,-715.5 754,-715.5 754,-696.5 705,-696.5"/>
<text text-anchor="middle" x="729.5" y="-703.5" font-family="Helvetica,sans-Serif" font-size="10.00">rnd_get</text>
</a>
</g>
</g>
<!-- Node11&#45;&gt;Node12 -->
<g id="edge14" class="edge"><title>Node11&#45;&gt;Node12</title>
<path fill="none" stroke="midnightblue" d="M654.523,-706C668.404,-706 682.524,-706 694.656,-706"/>
<polygon fill="midnightblue" stroke="midnightblue" points="694.749,-709.5 704.749,-706 694.749,-702.5 694.749,-709.5"/>
</g>
<!-- Node13&#45;&gt;Node5 -->
<g id="edge16" class="edge"><title>Node13&#45;&gt;Node5</title>
<path fill="none" stroke="midnightblue" d="M645.236,-624C659.539,-624 674.653,-624 688.02,-624"/>
<polygon fill="midnightblue" stroke="midnightblue" points="688.318,-627.5 698.318,-624 688.318,-620.5 688.318,-627.5"/>
</g>
<!-- Node16 -->
<g id="node17" class="node"><title>Node16</title>
<g id="a_node17"><a xlink:href="params_8c_a5e51228448fbdf5e0d4310916b8eea93.html#a5e51228448fbdf5e0d4310916b8eea93" target="_top" xlink:title="params_get_idxs">
<polygon fill="none" stroke="black" points="543,-904.5 543,-923.5 634,-923.5 634,-904.5 543,-904.5"/>
<text text-anchor="middle" x="588.5" y="-911.5" font-family="Helvetica,sans-Serif" font-size="10.00">params_get_idxs</text>
</a>
</g>
</g>
<!-- Node15&#45;&gt;Node16 -->
<g id="edge21" class="edge"><title>Node15&#45;&gt;Node16</title>
<path fill="none" stroke="midnightblue" d="M470.013,-914C489.809,-914 512.521,-914 532.667,-914"/>
<polygon fill="midnightblue" stroke="midnightblue" points="532.939,-917.5 542.939,-914 532.939,-910.5 532.939,-917.5"/>
</g>
<!-- Node17&#45;&gt;Node4 -->
<g id="edge38" class="edge"><title>Node17&#45;&gt;Node4</title>
<path fill="none" stroke="midnightblue" d="M247.088,-380.566C261.046,-403.432 299.936,-461.126 350,-485 412.394,-514.754 494.534,-513.758 544.052,-509.48"/>
<polygon fill="midnightblue" stroke="midnightblue" points="544.48,-512.955 554.105,-508.527 543.819,-505.986 544.48,-512.955"/>
</g>
<!-- Node17&#45;&gt;Node5 -->
<g id="edge53" class="edge"><title>Node17&#45;&gt;Node5</title>
<path fill="none" stroke="midnightblue" d="M264.373,-380.543C286.055,-389.219 319.722,-401.743 350,-409 416.504,-424.94 600.656,-408.484 655,-450 705.065,-488.248 721.381,-567.089 726.407,-604.051"/>
<polygon fill="midnightblue" stroke="midnightblue" points="722.945,-604.583 727.629,-614.087 729.894,-603.737 722.945,-604.583"/>
</g>
<!-- Node18 -->
<g id="node19" class="node"><title>Node18</title>
<g id="a_node19"><a xlink:href="octmat_8c_a4d2ed06936f8e9cba88b6b37e5a23712.html#a4d2ed06936f8e9cba88b6b37e5a23712" target="_top" xlink:title="om_copy">
<polygon fill="none" stroke="black" points="560.5,-380.5 560.5,-399.5 616.5,-399.5 616.5,-380.5 560.5,-380.5"/>
<text text-anchor="middle" x="588.5" y="-387.5" font-family="Helvetica,sans-Serif" font-size="10.00">om_copy</text>
</a>
</g>
</g>
<!-- Node17&#45;&gt;Node18 -->
<g id="edge23" class="edge"><title>Node17&#45;&gt;Node18</title>
<path fill="none" stroke="midnightblue" d="M314.145,-367.492C362.865,-366.001 428.412,-365.656 486,-371 507.487,-372.994 531.207,-377.313 550.31,-381.33"/>
<polygon fill="midnightblue" stroke="midnightblue" points="549.609,-384.759 560.123,-383.452 551.088,-377.918 549.609,-384.759"/>
</g>
<!-- Node19 -->
<g id="node20" class="node"><title>Node19</title>
<g id="a_node20"><a xlink:href="precode_8c_adde325d451f8ec9eb7f8f4542d81e884.html#adde325d451f8ec9eb7f8f4542d81e884" target="_top" xlink:title="decode_phase1">
<polygon fill="none" stroke="black" points="375.5,-209.5 375.5,-228.5 460.5,-228.5 460.5,-209.5 375.5,-209.5"/>
<text text-anchor="middle" x="418" y="-216.5" font-family="Helvetica,sans-Serif" font-size="10.00">decode_phase1</text>
</a>
</g>
</g>
<!-- Node17&#45;&gt;Node19 -->
<g id="edge24" class="edge"><title>Node17&#45;&gt;Node19</title>
<path fill="none" stroke="midnightblue" d="M252.478,-361.492C281.657,-336.221 361.402,-267.153 398.083,-235.384"/>
<polygon fill="midnightblue" stroke="midnightblue" points="400.758,-237.697 406.026,-228.505 396.175,-232.406 400.758,-237.697"/>
</g>
<!-- Node32 -->
<g id="node33" class="node"><title>Node32</title>
<g id="a_node33"><a xlink:href="precode_8c_a41bb3b163c071597877ad0de9bbbd756.html#a41bb3b163c071597877ad0de9bbbd756" target="_top" xlink:title="decode_phase2">
<polygon fill="none" stroke="black" points="375.5,-76.5 375.5,-95.5 460.5,-95.5 460.5,-76.5 375.5,-76.5"/>
<text text-anchor="middle" x="418" y="-83.5" font-family="Helvetica,sans-Serif" font-size="10.00">decode_phase2</text>
</a>
</g>
</g>
<!-- Node17&#45;&gt;Node32 -->
<g id="edge39" class="edge"><title>Node17&#45;&gt;Node32</title>
<path fill="none" stroke="midnightblue" d="M243.439,-361.298C251.007,-325.613 281.577,-199.786 350,-124 358.98,-114.053 371.196,-106.071 382.739,-100.039"/>
<polygon fill="midnightblue" stroke="midnightblue" points="384.331,-103.157 391.777,-95.6201 381.256,-96.8687 384.331,-103.157"/>
</g>
<!-- Node34 -->
<g id="node35" class="node"><title>Node34</title>
<g id="a_node35"><a xlink:href="precode_8c_a11824185dea7b498ffadaca55ae49090.html#a11824185dea7b498ffadaca55ae49090" target="_top" xlink:title="decode_phase3">
<polygon fill="none" stroke="black" points="375.5,-456.5 375.5,-475.5 460.5,-475.5 460.5,-456.5 375.5,-456.5"/>
<text text-anchor="middle" x="418" y="-463.5" font-family="Helvetica,sans-Serif" font-size="10.00">decode_phase3</text>
</a>
</g>
</g>
<!-- Node17&#45;&gt;Node34 -->
<g id="edge43" class="edge"><title>Node17&#45;&gt;Node34</title>
<path fill="none" stroke="midnightblue" d="M253.939,-380.551C273.522,-395.253 313.118,-423.648 350,-442 358.198,-446.079 367.264,-449.808 376.009,-453.047"/>
<polygon fill="midnightblue" stroke="midnightblue" points="375.088,-456.434 385.683,-456.489 377.435,-449.839 375.088,-456.434"/>
</g>
<!-- Node35 -->
<g id="node36" class="node"><title>Node35</title>
<g id="a_node36"><a xlink:href="precode_8c_a84a742aaa0a90e37baf8db8cd5a035b7.html#a84a742aaa0a90e37baf8db8cd5a035b7" target="_top" xlink:title="decode_phase4">
<polygon fill="none" stroke="black" points="375.5,-133.5 375.5,-152.5 460.5,-152.5 460.5,-133.5 375.5,-133.5"/>
<text text-anchor="middle" x="418" y="-140.5" font-family="Helvetica,sans-Serif" font-size="10.00">decode_phase4</text>
</a>
</g>
</g>
<!-- Node17&#45;&gt;Node35 -->
<g id="edge48" class="edge"><title>Node17&#45;&gt;Node35</title>
<path fill="none" stroke="midnightblue" d="M246.253,-361.433C259.98,-334.337 301.788,-255.456 350,-200 363.525,-184.443 381.415,-169.444 395.306,-158.74"/>
<polygon fill="midnightblue" stroke="midnightblue" points="397.487,-161.479 403.364,-152.664 393.272,-155.89 397.487,-161.479"/>
</g>
<!-- Node36 -->
<g id="node37" class="node"><title>Node36</title>
<g id="a_node37"><a xlink:href="precode_8c_a16925f32060a478093240f3b35ee664a.html#a16925f32060a478093240f3b35ee664a" target="_top" xlink:title="decode_phase5">
<polygon fill="none" stroke="black" points="375.5,-38.5 375.5,-57.5 460.5,-57.5 460.5,-38.5 375.5,-38.5"/>
<text text-anchor="middle" x="418" y="-45.5" font-family="Helvetica,sans-Serif" font-size="10.00">decode_phase5</text>
</a>
</g>
</g>
<!-- Node17&#45;&gt;Node36 -->
<g id="edge50" class="edge"><title>Node17&#45;&gt;Node36</title>
<path fill="none" stroke="midnightblue" d="M241.895,-361.404C244.144,-319.688 258.747,-152.378 350,-67 354.468,-62.8194 359.788,-59.5492 365.449,-56.9928"/>
<polygon fill="midnightblue" stroke="midnightblue" points="367.074,-60.1212 375.206,-53.3298 364.614,-53.5678 367.074,-60.1212"/>
</g>
<!-- Node37 -->
<g id="node38" class="node"><title>Node37</title>
<g id="a_node38"><a xlink:href="oblas_8h_a1b5ea186506d2e5d84ba3cc292043e21.html#a1b5ea186506d2e5d84ba3cc292043e21" target="_top" xlink:title="ocopy">
<polygon fill="none" stroke="black" points="396.5,-380.5 396.5,-399.5 439.5,-399.5 439.5,-380.5 396.5,-380.5"/>
<text text-anchor="middle" x="418" y="-387.5" font-family="Helvetica,sans-Serif" font-size="10.00">ocopy</text>
</a>
</g>
</g>
<!-- Node17&#45;&gt;Node37 -->
<g id="edge54" class="edge"><title>Node17&#45;&gt;Node37</title>
<path fill="none" stroke="midnightblue" d="M314.149,-378.865C339.408,-381.6 366.388,-384.521 386.375,-386.684"/>
<polygon fill="midnightblue" stroke="midnightblue" points="386.105,-390.176 396.423,-387.772 386.858,-383.216 386.105,-390.176"/>
</g>
<!-- Node20 -->
<g id="node21" class="node"><title>Node20</title>
<g id="a_node21"><a xlink:href="chooser_8h_a5c354680a80680d3c040504152d3c616.html#a5c354680a80680d3c040504152d3c616" target="_top" xlink:title="chooser_add_tracking_pair">
<polygon fill="none" stroke="black" points="522,-342.5 522,-361.5 655,-361.5 655,-342.5 522,-342.5"/>
<text text-anchor="middle" x="588.5" y="-349.5" font-family="Helvetica,sans-Serif" font-size="10.00">chooser_add_tracking_pair</text>
</a>
</g>
</g>
<!-- Node19&#45;&gt;Node20 -->
<g id="edge25" class="edge"><title>Node19&#45;&gt;Node20</title>
<path fill="none" stroke="midnightblue" d="M424.927,-228.587C438.975,-250.501 476.552,-304.558 522,-333 525.348,-335.095 528.936,-336.967 532.644,-338.638"/>
<polygon fill="midnightblue" stroke="midnightblue" points="531.457,-341.933 542.042,-342.392 534.053,-335.432 531.457,-341.933"/>
</g>
<!-- Node21 -->
<g id="node22" class="node"><title>Node21</title>
<g id="a_node22"><a xlink:href="graph_8c_ac96bb5f2ca9a14261f32f070172fb6d9.html#ac96bb5f2ca9a14261f32f070172fb6d9" target="_top" xlink:title="graph_new">
<polygon fill="none" stroke="black" points="556.5,-304.5 556.5,-323.5 620.5,-323.5 620.5,-304.5 556.5,-304.5"/>
<text text-anchor="middle" x="588.5" y="-311.5" font-family="Helvetica,sans-Serif" font-size="10.00">graph_new</text>
</a>
</g>
</g>
<!-- Node19&#45;&gt;Node21 -->
<g id="edge26" class="edge"><title>Node19&#45;&gt;Node21</title>
<path fill="none" stroke="midnightblue" d="M429.295,-228.575C446.958,-244.522 484.745,-276.588 522,-295 529.706,-298.808 538.308,-301.984 546.679,-304.581"/>
<polygon fill="midnightblue" stroke="midnightblue" points="545.754,-307.957 556.332,-307.366 547.694,-301.231 545.754,-307.957"/>
</g>
<!-- Node22 -->
<g id="node23" class="node"><title>Node22</title>
<g id="a_node23"><a xlink:href="chooser_8h_aa055b1a2f2a47c17f612c052a2607ae1.html#aa055b1a2f2a47c17f612c052a2607ae1" target="_top" xlink:title="chooser_non_zero">
<polygon fill="none" stroke="black" points="540.5,-266.5 540.5,-285.5 636.5,-285.5 636.5,-266.5 540.5,-266.5"/>
<text text-anchor="middle" x="588.5" y="-273.5" font-family="Helvetica,sans-Serif" font-size="10.00">chooser_non_zero</text>
</a>
</g>
</g>
<!-- Node19&#45;&gt;Node22 -->
<g id="edge27" class="edge"><title>Node19&#45;&gt;Node22</title>
<path fill="none" stroke="midnightblue" d="M443.385,-228.554C464.148,-236.554 494.842,-248.064 522,-257 528.882,-259.264 536.216,-261.532 543.393,-263.671"/>
<polygon fill="midnightblue" stroke="midnightblue" points="542.444,-267.04 553.025,-266.497 544.415,-260.324 542.444,-267.04"/>
</g>
<!-- Node25 -->
<g id="node26" class="node"><title>Node25</title>
<g id="a_node26"><a xlink:href="chooser_8h_a54391f17335789a40d1a168009c9b5a1.html#a54391f17335789a40d1a168009c9b5a1" target="_top" xlink:title="chooser_clear">
<polygon fill="none" stroke="black" points="550,-190.5 550,-209.5 627,-209.5 627,-190.5 550,-190.5"/>
<text text-anchor="middle" x="588.5" y="-197.5" font-family="Helvetica,sans-Serif" font-size="10.00">chooser_clear</text>
</a>
</g>
</g>
<!-- Node19&#45;&gt;Node25 -->
<g id="edge30" class="edge"><title>Node19&#45;&gt;Node25</title>
<path fill="none" stroke="midnightblue" d="M460.652,-214.303C484.635,-211.599 514.868,-208.19 539.803,-205.378"/>
<polygon fill="midnightblue" stroke="midnightblue" points="540.232,-208.852 549.777,-204.254 539.448,-201.896 540.232,-208.852"/>
</g>
<!-- Node26 -->
<g id="node27" class="node"><title>Node26</title>
<g id="a_node27"><a xlink:href="graph_8c_ac683cc08fc4c4391a1e872db552f4c3b.html#ac683cc08fc4c4391a1e872db552f4c3b" target="_top" xlink:title="graph_free">
<polygon fill="none" stroke="black" points="557.5,-152.5 557.5,-171.5 619.5,-171.5 619.5,-152.5 557.5,-152.5"/>
<text text-anchor="middle" x="588.5" y="-159.5" font-family="Helvetica,sans-Serif" font-size="10.00">graph_free</text>
</a>
</g>
</g>
<!-- Node19&#45;&gt;Node26 -->
<g id="edge31" class="edge"><title>Node19&#45;&gt;Node26</title>
<path fill="none" stroke="midnightblue" d="M443.385,-209.446C464.148,-201.446 494.842,-189.936 522,-181 530.246,-178.287 539.14,-175.569 547.636,-173.073"/>
<polygon fill="midnightblue" stroke="midnightblue" points="548.731,-176.4 557.363,-170.257 546.784,-169.676 548.731,-176.4"/>
</g>
<!-- Node27 -->
<g id="node28" class="node"><title>Node27</title>
<g id="a_node28"><a xlink:href="chooser_8h_a6e78ae331b8eb1f6033fdb88aba27d69.html#a6e78ae331b8eb1f6033fdb88aba27d69" target="_top" xlink:title="chooser_pick">
<polygon fill="none" stroke="black" points="551.5,-228.5 551.5,-247.5 625.5,-247.5 625.5,-228.5 551.5,-228.5"/>
<text text-anchor="middle" x="588.5" y="-235.5" font-family="Helvetica,sans-Serif" font-size="10.00">chooser_pick</text>
</a>
</g>
</g>
<!-- Node19&#45;&gt;Node27 -->
<g id="edge32" class="edge"><title>Node19&#45;&gt;Node27</title>
<path fill="none" stroke="midnightblue" d="M460.652,-223.697C485.149,-226.459 516.167,-229.957 541.398,-232.802"/>
<polygon fill="midnightblue" stroke="midnightblue" points="541.136,-236.294 551.466,-233.937 541.921,-229.338 541.136,-236.294"/>
</g>
<!-- Node29 -->
<g id="node30" class="node"><title>Node29</title>
<g id="a_node30"><a xlink:href="oblas_8h_ad0978d40d1e2a78b8ff34f3d0d376dd3.html#ad0978d40d1e2a78b8ff34f3d0d376dd3" target="_top" xlink:title="oswaprow">
<polygon fill="none" stroke="black" points="558,-76.5 558,-95.5 619,-95.5 619,-76.5 558,-76.5"/>
<text text-anchor="middle" x="588.5" y="-83.5" font-family="Helvetica,sans-Serif" font-size="10.00">oswaprow</text>
</a>
</g>
</g>
<!-- Node19&#45;&gt;Node29 -->
<g id="edge35" class="edge"><title>Node19&#45;&gt;Node29</title>
<path fill="none" stroke="midnightblue" d="M432.644,-209.343C446.985,-198.77 469.687,-180.803 486,-162 505.635,-139.367 498.055,-123.011 522,-105 529.574,-99.3027 538.816,-95.3107 547.941,-92.5145"/>
<polygon fill="midnightblue" stroke="midnightblue" points="548.944,-95.8698 557.714,-89.9256 547.151,-89.1032 548.944,-95.8698"/>
</g>
<!-- Node30 -->
<g id="node31" class="node"><title>Node30</title>
<g id="a_node31"><a xlink:href="oblas_8h_aac1e9520179bae9bf58901a111aad57d.html#aac1e9520179bae9bf58901a111aad57d" target="_top" xlink:title="oswapcol">
<polygon fill="none" stroke="black" points="559.5,-114.5 559.5,-133.5 617.5,-133.5 617.5,-114.5 559.5,-114.5"/>
<text text-anchor="middle" x="588.5" y="-121.5" font-family="Helvetica,sans-Serif" font-size="10.00">oswapcol</text>
</a>
</g>
</g>
<!-- Node19&#45;&gt;Node30 -->
<g id="edge36" class="edge"><title>Node19&#45;&gt;Node30</title>
<path fill="none" stroke="midnightblue" d="M429.295,-209.425C446.958,-193.478 484.745,-161.412 522,-143 530.575,-138.762 540.26,-135.307 549.501,-132.563"/>
<polygon fill="midnightblue" stroke="midnightblue" points="550.574,-135.897 559.281,-129.86 548.71,-129.15 550.574,-135.897"/>
</g>
<!-- Node31 -->
<g id="node32" class="node"><title>Node31</title>
<g id="a_node32"><a xlink:href="oblas_8h_a962c3db45b173ccbaf6418d5894409be.html#a962c3db45b173ccbaf6418d5894409be" target="_top" xlink:title="oaxpy">
<polygon fill="none" stroke="black" points="567,-38.5 567,-57.5 610,-57.5 610,-38.5 567,-38.5"/>
<text text-anchor="middle" x="588.5" y="-45.5" font-family="Helvetica,sans-Serif" font-size="10.00">oaxpy</text>
</a>
</g>
</g>
<!-- Node19&#45;&gt;Node31 -->
<g id="edge37" class="edge"><title>Node19&#45;&gt;Node31</title>
<path fill="none" stroke="midnightblue" d="M434.26,-209.39C449.269,-199.244 471.921,-181.971 486,-162 512.016,-125.096 488.823,-97.6268 522,-67 531.421,-58.3036 544.59,-53.5647 556.652,-50.9913"/>
<polygon fill="midnightblue" stroke="midnightblue" points="557.581,-54.3832 566.844,-49.2422 556.397,-47.484 557.581,-54.3832"/>
</g>
<!-- Node23 -->
<g id="node24" class="node"><title>Node23</title>
<g id="a_node24"><a xlink:href="graph_8c_a4df6f2af3bed651a7f3d19803ec598e4.html#a4df6f2af3bed651a7f3d19803ec598e4" target="_top" xlink:title="graph_link">
<polygon fill="none" stroke="black" points="699,-266.5 699,-285.5 760,-285.5 760,-266.5 699,-266.5"/>
<text text-anchor="middle" x="729.5" y="-273.5" font-family="Helvetica,sans-Serif" font-size="10.00">graph_link</text>
</a>
</g>
</g>
<!-- Node22&#45;&gt;Node23 -->
<g id="edge28" class="edge"><title>Node22&#45;&gt;Node23</title>
<path fill="none" stroke="midnightblue" d="M636.559,-276C653.486,-276 672.403,-276 688.656,-276"/>
<polygon fill="midnightblue" stroke="midnightblue" points="688.905,-279.5 698.905,-276 688.905,-272.5 688.905,-279.5"/>
</g>
<!-- Node24 -->
<g id="node25" class="node"><title>Node24</title>
<g id="a_node25"><a xlink:href="graph_8c_aebad20ec3b086b7fae30e6ef61892839.html#aebad20ec3b086b7fae30e6ef61892839" target="_top" xlink:title="graph_find">
<polygon fill="none" stroke="black" points="804,-247.5 804,-266.5 866,-266.5 866,-247.5 804,-247.5"/>
<text text-anchor="middle" x="835" y="-254.5" font-family="Helvetica,sans-Serif" font-size="10.00">graph_find</text>
</a>
</g>
</g>
<!-- Node23&#45;&gt;Node24 -->
<g id="edge29" class="edge"><title>Node23&#45;&gt;Node24</title>
<path fill="none" stroke="midnightblue" d="M760.159,-270.555C770.678,-268.624 782.696,-266.418 793.937,-264.354"/>
<polygon fill="midnightblue" stroke="midnightblue" points="794.774,-267.759 803.978,-262.511 793.51,-260.875 794.774,-267.759"/>
</g>
<!-- Node28 -->
<g id="node29" class="node"><title>Node28</title>
<g id="a_node29"><a xlink:href="graph_8c_ab380f8ec271892c52ab6836e6dba1746.html#ab380f8ec271892c52ab6836e6dba1746" target="_top" xlink:title="graph_is_max">
<polygon fill="none" stroke="black" points="691,-228.5 691,-247.5 768,-247.5 768,-228.5 691,-228.5"/>
<text text-anchor="middle" x="729.5" y="-235.5" font-family="Helvetica,sans-Serif" font-size="10.00">graph_is_max</text>
</a>
</g>
</g>
<!-- Node27&#45;&gt;Node28 -->
<g id="edge33" class="edge"><title>Node27&#45;&gt;Node28</title>
<path fill="none" stroke="midnightblue" d="M625.658,-238C642.412,-238 662.554,-238 680.555,-238"/>
<polygon fill="midnightblue" stroke="midnightblue" points="680.581,-241.5 690.581,-238 680.581,-234.5 680.581,-241.5"/>
</g>
<!-- Node28&#45;&gt;Node24 -->
<g id="edge34" class="edge"><title>Node28&#45;&gt;Node24</title>
<path fill="none" stroke="midnightblue" d="M768.159,-244.913C776.541,-246.452 785.458,-248.089 793.934,-249.645"/>
<polygon fill="midnightblue" stroke="midnightblue" points="793.52,-253.127 803.988,-251.49 794.784,-246.242 793.52,-253.127"/>
</g>
<!-- Node32&#45;&gt;Node29 -->
<g id="edge40" class="edge"><title>Node32&#45;&gt;Node29</title>
<path fill="none" stroke="midnightblue" d="M460.652,-86C487.205,-86 521.419,-86 547.621,-86"/>
<polygon fill="midnightblue" stroke="midnightblue" points="547.954,-89.5001 557.954,-86 547.954,-82.5001 547.954,-89.5001"/>
</g>
<!-- Node32&#45;&gt;Node31 -->
<g id="edge42" class="edge"><title>Node32&#45;&gt;Node31</title>
<path fill="none" stroke="midnightblue" d="M460.652,-76.6067C490.42,-69.8934 529.817,-61.0086 556.759,-54.9327"/>
<polygon fill="midnightblue" stroke="midnightblue" points="557.793,-58.2875 566.778,-52.6732 556.253,-51.459 557.793,-58.2875"/>
</g>
<!-- Node33 -->
<g id="node34" class="node"><title>Node33</title>
<g id="a_node34"><a xlink:href="oblas_8h_abfa7ba50070fbebe1ea2e0e2fc3f913b.html#abfa7ba50070fbebe1ea2e0e2fc3f913b" target="_top" xlink:title="oscal">
<polygon fill="none" stroke="black" points="568.5,-0.5 568.5,-19.5 608.5,-19.5 608.5,-0.5 568.5,-0.5"/>
<text text-anchor="middle" x="588.5" y="-7.5" font-family="Helvetica,sans-Serif" font-size="10.00">oscal</text>
</a>
</g>
</g>
<!-- Node32&#45;&gt;Node33 -->
<g id="edge41" class="edge"><title>Node32&#45;&gt;Node33</title>
<path fill="none" stroke="midnightblue" d="M460.836,-77.8707C469.519,-75.1759 478.346,-71.6335 486,-67 505.902,-54.9518 502.135,-41.1079 522,-29 533.026,-22.2798 546.544,-17.8372 558.431,-14.9512"/>
<polygon fill="midnightblue" stroke="midnightblue" points="559.322,-18.3392 568.352,-12.7976 557.837,-11.4985 559.322,-18.3392"/>
</g>
<!-- Node34&#45;&gt;Node4 -->
<g id="edge47" class="edge"><title>Node34&#45;&gt;Node4</title>
<path fill="none" stroke="midnightblue" d="M460.652,-475.393C486.204,-481.156 518.851,-488.518 544.626,-494.331"/>
<polygon fill="midnightblue" stroke="midnightblue" points="543.969,-497.771 554.494,-496.557 545.509,-490.942 543.969,-497.771"/>
</g>
<!-- Node34&#45;&gt;Node5 -->
<g id="edge44" class="edge"><title>Node34&#45;&gt;Node5</title>
<path fill="none" stroke="midnightblue" d="M460.803,-458.044C511.219,-450.825 596.469,-446.454 655,-485 697.234,-512.813 716.832,-573.16 724.439,-604.391"/>
<polygon fill="midnightblue" stroke="midnightblue" points="721.098,-605.485 726.718,-614.466 727.925,-603.94 721.098,-605.485"/>
</g>
<!-- Node34&#45;&gt;Node14 -->
<g id="edge46" class="edge"><title>Node34&#45;&gt;Node14</title>
<path fill="none" stroke="midnightblue" d="M433.826,-475.597C453.38,-487.924 489.162,-509.352 522,-523 532.086,-527.192 543.409,-530.83 553.767,-533.769"/>
<polygon fill="midnightblue" stroke="midnightblue" points="553.154,-537.229 563.722,-536.469 554.987,-530.473 553.154,-537.229"/>
</g>
<!-- Node34&#45;&gt;Node18 -->
<g id="edge45" class="edge"><title>Node34&#45;&gt;Node18</title>
<path fill="none" stroke="midnightblue" d="M440.341,-456.375C469.84,-443.069 523.247,-418.98 556.965,-403.772"/>
<polygon fill="midnightblue" stroke="midnightblue" points="558.656,-406.849 566.333,-399.547 555.778,-400.468 558.656,-406.849"/>
</g>
<!-- Node35&#45;&gt;Node31 -->
<g id="edge49" class="edge"><title>Node35&#45;&gt;Node31</title>
<path fill="none" stroke="midnightblue" d="M439.32,-133.473C453.135,-126.529 471.469,-116.375 486,-105 504.319,-90.6596 502.135,-79.1079 522,-67 532.527,-60.5836 545.327,-56.2435 556.809,-53.3522"/>
<polygon fill="midnightblue" stroke="midnightblue" points="557.892,-56.696 566.88,-51.0862 556.356,-49.8667 557.892,-56.696"/>
</g>
<!-- Node36&#45;&gt;Node31 -->
<g id="edge52" class="edge"><title>Node36&#45;&gt;Node31</title>
<path fill="none" stroke="midnightblue" d="M460.652,-48C490.42,-48 529.817,-48 556.759,-48"/>
<polygon fill="midnightblue" stroke="midnightblue" points="556.778,-51.5001 566.778,-48 556.778,-44.5001 556.778,-51.5001"/>
</g>
<!-- Node36&#45;&gt;Node33 -->
<g id="edge51" class="edge"><title>Node36&#45;&gt;Node33</title>
<path fill="none" stroke="midnightblue" d="M460.652,-38.6067C490.936,-31.777 531.186,-22.6998 558.149,-16.6192"/>
<polygon fill="midnightblue" stroke="midnightblue" points="559.145,-19.9826 568.13,-14.3684 557.605,-13.1541 559.145,-19.9826"/>
</g>
</g>
</svg>
