<?xml version="1.0" encoding="UTF-8" standalone="no"?>
<!DOCTYPE svg PUBLIC "-//W3C//DTD SVG 1.1//EN"
 "http://www.w3.org/Graphics/SVG/1.1/DTD/svg11.dtd">
<!-- Generated by graphviz version 2.38.0 (20140413.2041)
 -->
<!-- Title: nanorq_block_encoder Pages: 1 -->
<svg width="682pt" height="66pt"
 viewBox="0.00 0.00 682.00 66.00" xmlns="http://www.w3.org/2000/svg" xmlns:xlink="http://www.w3.org/1999/xlink">
<g id="graph0" class="graph" transform="scale(1 1) rotate(0) translate(4 62)">
<title>nanorq_block_encoder</title>
<!-- Node2 -->
<g id="node1" class="node"><title>Node2</title>
<polygon fill="#bfbfbf" stroke="black" points="0,-19.5 0,-38.5 114,-38.5 114,-19.5 0,-19.5"/>
<text text-anchor="middle" x="57" y="-26.5" font-family="Helvetica,sans-Serif" font-size="10.00">nanorq_block_encoder</text>
</g>
<!-- Node3 -->
<g id="node2" class="node"><title>Node3</title>
<g id="a_node2"><a xlink:href="nanorq_8c_a956615eb4ea3ce34369951295e93f708.html#a956615eb4ea3ce34369951295e93f708" target="_top" xlink:title="nanorq_encode">
<polygon fill="none" stroke="black" points="317,-38.5 317,-57.5 400,-57.5 400,-38.5 317,-38.5"/>
<text text-anchor="middle" x="358.5" y="-45.5" font-family="Helvetica,sans-Serif" font-size="10.00">nanorq_encode</text>
</a>
</g>
</g>
<!-- Node2&#45;&gt;Node3 -->
<g id="edge1" class="edge"><title>Node2&#45;&gt;Node3</title>
<path fill="none" stroke="midnightblue" d="M124.65,-33.2282C183.502,-36.9618 267.412,-42.2849 316.787,-45.4172"/>
<polygon fill="midnightblue" stroke="midnightblue" points="124.535,-29.714 114.334,-32.5738 124.092,-36.6999 124.535,-29.714"/>
</g>
<!-- Node7 -->
<g id="node6" class="node"><title>Node7</title>
<g id="a_node6"><a xlink:href="nanorq_8c_ad6a9288685637cdfe83303f66b087a29.html#ad6a9288685637cdfe83303f66b087a29" target="_top" xlink:title="nanorq_generate_symbols">
<polygon fill="none" stroke="black" points="150,-0.5 150,-19.5 281,-19.5 281,-0.5 150,-0.5"/>
<text text-anchor="middle" x="215.5" y="-7.5" font-family="Helvetica,sans-Serif" font-size="10.00">nanorq_generate_symbols</text>
</a>
</g>
</g>
<!-- Node2&#45;&gt;Node7 -->
<g id="edge5" class="edge"><title>Node2&#45;&gt;Node7</title>
<path fill="none" stroke="midnightblue" d="M124.247,-20.9572C132.701,-19.9308 141.347,-18.8812 149.776,-17.8579"/>
<polygon fill="midnightblue" stroke="midnightblue" points="123.563,-17.5144 114.058,-22.1942 124.407,-24.4634 123.563,-17.5144"/>
</g>
<!-- Node4 -->
<g id="node3" class="node"><title>Node4</title>
<g id="a_node3"><a xlink:href="encode_8c_a0993cb61d7e4c1b1a1606d159f5b1410.html#a0993cb61d7e4c1b1a1606d159f5b1410" target="_top" xlink:title="dump_esi">
<polygon fill="none" stroke="black" points="436,-38.5 436,-57.5 495,-57.5 495,-38.5 436,-38.5"/>
<text text-anchor="middle" x="465.5" y="-45.5" font-family="Helvetica,sans-Serif" font-size="10.00">dump_esi</text>
</a>
</g>
</g>
<!-- Node3&#45;&gt;Node4 -->
<g id="edge2" class="edge"><title>Node3&#45;&gt;Node4</title>
<path fill="none" stroke="midnightblue" d="M410.272,-48C419.015,-48 427.823,-48 435.723,-48"/>
<polygon fill="midnightblue" stroke="midnightblue" points="410.096,-44.5001 400.096,-48 410.096,-51.5001 410.096,-44.5001"/>
</g>
<!-- Node5 -->
<g id="node4" class="node"><title>Node5</title>
<g id="a_node4"><a xlink:href="encode_8c_ae7f8bbf4dcea92f802d2521fa0264f93.html#ae7f8bbf4dcea92f802d2521fa0264f93" target="_top" xlink:title="dump_block">
<polygon fill="none" stroke="black" points="531,-38.5 531,-57.5 600,-57.5 600,-38.5 531,-38.5"/>
<text text-anchor="middle" x="565.5" y="-45.5" font-family="Helvetica,sans-Serif" font-size="10.00">dump_block</text>
</a>
</g>
</g>
<!-- Node4&#45;&gt;Node5 -->
<g id="edge3" class="edge"><title>Node4&#45;&gt;Node5</title>
<path fill="none" stroke="midnightblue" d="M505.17,-48C513.653,-48 522.569,-48 530.837,-48"/>
<polygon fill="midnightblue" stroke="midnightblue" points="505.109,-44.5001 495.109,-48 505.109,-51.5001 505.109,-44.5001"/>
</g>
<!-- Node6 -->
<g id="node5" class="node"><title>Node6</title>
<g id="a_node5"><a xlink:href="encode_8c_a3c04138a5bfe5d72780bb7e82a18e627.html#a3c04138a5bfe5d72780bb7e82a18e627" target="_top" xlink:title="main">
<polygon fill="none" stroke="black" points="636,-19.5 636,-38.5 674,-38.5 674,-19.5 636,-19.5"/>
<text text-anchor="middle" x="655" y="-26.5" font-family="Helvetica,sans-Serif" font-size="10.00">main</text>
</a>
</g>
</g>
<!-- Node5&#45;&gt;Node6 -->
<g id="edge4" class="edge"><title>Node5&#45;&gt;Node6</title>
<path fill="none" stroke="midnightblue" d="M609.916,-38.5725C619.058,-36.5874 628.22,-34.598 635.804,-32.9512"/>
<polygon fill="midnightblue" stroke="midnightblue" points="609.109,-35.1661 600.08,-40.7084 610.595,-42.0067 609.109,-35.1661"/>
</g>
<!-- Node7&#45;&gt;Node3 -->
<g id="edge7" class="edge"><title>Node7&#45;&gt;Node3</title>
<path fill="none" stroke="midnightblue" d="M261.94,-22.2462C281.375,-27.484 303.731,-33.5091 321.931,-38.4141"/>
<polygon fill="midnightblue" stroke="midnightblue" points="262.647,-18.8118 252.08,-19.589 260.825,-25.5707 262.647,-18.8118"/>
</g>
<!-- Node7&#45;&gt;Node6 -->
<g id="edge6" class="edge"><title>Node7&#45;&gt;Node6</title>
<path fill="none" stroke="midnightblue" d="M291.189,-13.2436C395.32,-17.7659 577.875,-25.694 635.814,-28.2102"/>
<polygon fill="midnightblue" stroke="midnightblue" points="291.197,-9.74078 281.055,-12.8035 290.893,-16.7342 291.197,-9.74078"/>
</g>
</g>
</svg>
