<?xml version="1.0" encoding="UTF-8" standalone="no"?>
<!DOCTYPE svg PUBLIC "-//W3C//DTD SVG 1.1//EN"
 "http://www.w3.org/Graphics/SVG/1.1/DTD/svg11.dtd">
<!-- Generated by graphviz version 2.38.0 (20140413.2041)
 -->
<!-- Title: nanorq_num_missing Pages: 1 -->
<svg width="419pt" height="85pt"
 viewBox="0.00 0.00 419.00 85.00" xmlns="http://www.w3.org/2000/svg" xmlns:xlink="http://www.w3.org/1999/xlink">
<g id="graph0" class="graph" transform="scale(1 1) rotate(0) translate(4 81)">
<title>nanorq_num_missing</title>
<!-- Node0 -->
<g id="node1" class="node"><title>Node0</title>
<polygon fill="#bfbfbf" stroke="black" points="0,-19.5 0,-38.5 109,-38.5 109,-19.5 0,-19.5"/>
<text text-anchor="middle" x="54.5" y="-26.5" font-family="Helvetica,sans-Serif" font-size="10.00">nanorq_num_missing</text>
</g>
<!-- Node1 -->
<g id="node2" class="node"><title>Node1</title>
<g id="a_node2"><a xlink:href="bitmask_8h_a3b8b7d670ea2a2526b93623a8681341a.html#a3b8b7d670ea2a2526b93623a8681341a" target="_top" xlink:title="bitmask_gaps">
<polygon fill="none" stroke="black" points="163.5,-57.5 163.5,-76.5 240.5,-76.5 240.5,-57.5 163.5,-57.5"/>
<text text-anchor="middle" x="202" y="-64.5" font-family="Helvetica,sans-Serif" font-size="10.00">bitmask_gaps</text>
</a>
</g>
</g>
<!-- Node0&#45;&gt;Node1 -->
<g id="edge1" class="edge"><title>Node0&#45;&gt;Node1</title>
<path fill="none" stroke="midnightblue" d="M92.2158,-38.589C111.157,-43.5358 134.457,-49.6211 154.629,-54.8892"/>
<polygon fill="midnightblue" stroke="midnightblue" points="153.988,-58.3394 164.548,-57.4799 155.757,-51.5665 153.988,-58.3394"/>
</g>
<!-- Node2 -->
<g id="node3" class="node"><title>Node2</title>
<g id="a_node3"><a xlink:href="nanorq_8c_a9e0825ce320f90492e45baad6a50ff4c.html#a9e0825ce320f90492e45baad6a50ff4c" target="_top" xlink:title="nanorq_block_decoder">
<polygon fill="none" stroke="black" points="145,-19.5 145,-38.5 259,-38.5 259,-19.5 145,-19.5"/>
<text text-anchor="middle" x="202" y="-26.5" font-family="Helvetica,sans-Serif" font-size="10.00">nanorq_block_decoder</text>
</a>
</g>
</g>
<!-- Node0&#45;&gt;Node2 -->
<g id="edge2" class="edge"><title>Node0&#45;&gt;Node2</title>
<path fill="none" stroke="midnightblue" d="M109.265,-29C117.438,-29 125.954,-29 134.36,-29"/>
<polygon fill="midnightblue" stroke="midnightblue" points="134.53,-32.5001 144.53,-29 134.529,-25.5001 134.53,-32.5001"/>
</g>
<!-- Node3 -->
<g id="node4" class="node"><title>Node3</title>
<g id="a_node4"><a xlink:href="nanorq_8c_a4c02c9d148e282c464ab013a678387d0.html#a4c02c9d148e282c464ab013a678387d0" target="_top" xlink:title="nanorq_block_symbols">
<polygon fill="none" stroke="black" points="295,-0.5 295,-19.5 411,-19.5 411,-0.5 295,-0.5"/>
<text text-anchor="middle" x="353" y="-7.5" font-family="Helvetica,sans-Serif" font-size="10.00">nanorq_block_symbols</text>
</a>
</g>
</g>
<!-- Node0&#45;&gt;Node3 -->
<g id="edge4" class="edge"><title>Node0&#45;&gt;Node3</title>
<path fill="none" stroke="midnightblue" d="M91.802,-19.4911C107.964,-15.7263 127.307,-11.8574 145,-10 191.458,-5.12306 244.105,-5.19867 284.678,-6.45483"/>
<polygon fill="midnightblue" stroke="midnightblue" points="284.609,-9.9544 294.722,-6.79733 284.847,-2.95846 284.609,-9.9544"/>
</g>
<!-- Node2&#45;&gt;Node3 -->
<g id="edge3" class="edge"><title>Node2&#45;&gt;Node3</title>
<path fill="none" stroke="midnightblue" d="M259.331,-21.8169C267.533,-20.771 276.048,-19.6851 284.445,-18.6144"/>
<polygon fill="midnightblue" stroke="midnightblue" points="285.122,-22.0565 294.599,-17.3196 284.237,-15.1127 285.122,-22.0565"/>
</g>
</g>
</svg>
