<?xml version="1.0" encoding="UTF-8" standalone="no"?>
<!DOCTYPE svg PUBLIC "-//W3C//DTD SVG 1.1//EN"
 "http://www.w3.org/Graphics/SVG/1.1/DTD/svg11.dtd">
<!-- Generated by graphviz version 2.38.0 (20140413.2041)
 -->
<!-- Title: ocopy Pages: 1 -->
<svg width="899pt" height="113pt"
 viewBox="0.00 0.00 899.00 113.00" xmlns="http://www.w3.org/2000/svg" xmlns:xlink="http://www.w3.org/1999/xlink">
<g id="graph0" class="graph" transform="scale(1 1) rotate(0) translate(4 109)">
<title>ocopy</title>
<!-- Node1 -->
<g id="node1" class="node"><title>Node1</title>
<polygon fill="#bfbfbf" stroke="black" points="0,-66.5 0,-85.5 43,-85.5 43,-66.5 0,-66.5"/>
<text text-anchor="middle" x="21.5" y="-73.5" font-family="Helvetica,sans-Serif" font-size="10.00">ocopy</text>
</g>
<!-- Node2 -->
<g id="node2" class="node"><title>Node2</title>
<g id="a_node2"><a xlink:href="precode_8c_aee2113e8f8d7e54052fc8db5dd71fd1f.html#aee2113e8f8d7e54052fc8db5dd71fd1f" target="_top" xlink:title="precode_matrix_decode">
<polygon fill="none" stroke="black" points="445,-85.5 445,-104.5 565,-104.5 565,-85.5 445,-85.5"/>
<text text-anchor="middle" x="505" y="-92.5" font-family="Helvetica,sans-Serif" font-size="10.00">precode_matrix_decode</text>
</a>
</g>
</g>
<!-- Node1&#45;&gt;Node2 -->
<g id="edge1" class="edge"><title>Node1&#45;&gt;Node2</title>
<path fill="none" stroke="midnightblue" d="M52.9648,-84.8232C61.3334,-86.8967 70.4572,-88.8387 79,-90 208.601,-107.617 362.477,-103.236 444.883,-98.8729"/>
<polygon fill="midnightblue" stroke="midnightblue" points="53.7814,-81.4191 43.221,-82.2724 52.0086,-88.1909 53.7814,-81.4191"/>
</g>
<!-- Node5 -->
<g id="node5" class="node"><title>Node5</title>
<g id="a_node5"><a xlink:href="precode_8c_a262ba8efa6b500c1e7a3cb0451245291.html#a262ba8efa6b500c1e7a3cb0451245291" target="_top" xlink:title="precode_matrix_intermediate1">
<polygon fill="none" stroke="black" points="79,-28.5 79,-47.5 226,-47.5 226,-28.5 79,-28.5"/>
<text text-anchor="middle" x="152.5" y="-35.5" font-family="Helvetica,sans-Serif" font-size="10.00">precode_matrix_intermediate1</text>
</a>
</g>
</g>
<!-- Node1&#45;&gt;Node5 -->
<g id="edge4" class="edge"><title>Node1&#45;&gt;Node5</title>
<path fill="none" stroke="midnightblue" d="M53.037,-67.0046C72.9733,-61.1319 98.9662,-53.4751 119.239,-47.5032"/>
<polygon fill="midnightblue" stroke="midnightblue" points="51.8295,-63.7115 43.2261,-69.8946 53.8076,-70.4262 51.8295,-63.7115"/>
</g>
<!-- Node11 -->
<g id="node11" class="node"><title>Node11</title>
<g id="a_node11"><a xlink:href="precode_8c_a2b6a5db8f90fc98b364cb5ed3b5eca24.html#a2b6a5db8f90fc98b364cb5ed3b5eca24" target="_top" xlink:title="precode_matrix_intermediate2">
<polygon fill="none" stroke="black" points="262,-66.5 262,-85.5 409,-85.5 409,-66.5 262,-66.5"/>
<text text-anchor="middle" x="335.5" y="-73.5" font-family="Helvetica,sans-Serif" font-size="10.00">precode_matrix_intermediate2</text>
</a>
</g>
</g>
<!-- Node1&#45;&gt;Node11 -->
<g id="edge13" class="edge"><title>Node1&#45;&gt;Node11</title>
<path fill="none" stroke="midnightblue" d="M53.5732,-76C101.778,-76 195.889,-76 261.852,-76"/>
<polygon fill="midnightblue" stroke="midnightblue" points="53.4557,-72.5001 43.4557,-76 53.4556,-79.5001 53.4557,-72.5001"/>
</g>
<!-- Node3 -->
<g id="node3" class="node"><title>Node3</title>
<g id="a_node3"><a xlink:href="nanorq_8c_aa1dcf83669e76931be0e6e7a1f02c185.html#aa1dcf83669e76931be0e6e7a1f02c185" target="_top" xlink:title="nanorq_decode_block">
<polygon fill="none" stroke="black" points="601,-85.5 601,-104.5 712,-104.5 712,-85.5 601,-85.5"/>
<text text-anchor="middle" x="656.5" y="-92.5" font-family="Helvetica,sans-Serif" font-size="10.00">nanorq_decode_block</text>
</a>
</g>
</g>
<!-- Node2&#45;&gt;Node3 -->
<g id="edge2" class="edge"><title>Node2&#45;&gt;Node3</title>
<path fill="none" stroke="midnightblue" d="M575.104,-95C583.7,-95 592.396,-95 600.734,-95"/>
<polygon fill="midnightblue" stroke="midnightblue" points="575.086,-91.5001 565.086,-95 575.086,-98.5001 575.086,-91.5001"/>
</g>
<!-- Node4 -->
<g id="node4" class="node"><title>Node4</title>
<g id="a_node4"><a xlink:href="decode_8c_a3c04138a5bfe5d72780bb7e82a18e627.html#a3c04138a5bfe5d72780bb7e82a18e627" target="_top" xlink:title="main">
<polygon fill="none" stroke="black" points="763.5,-85.5 763.5,-104.5 801.5,-104.5 801.5,-85.5 763.5,-85.5"/>
<text text-anchor="middle" x="782.5" y="-92.5" font-family="Helvetica,sans-Serif" font-size="10.00">main</text>
</a>
</g>
</g>
<!-- Node3&#45;&gt;Node4 -->
<g id="edge3" class="edge"><title>Node3&#45;&gt;Node4</title>
<path fill="none" stroke="midnightblue" d="M722.661,-95C737.706,-95 752.503,-95 763.494,-95"/>
<polygon fill="midnightblue" stroke="midnightblue" points="722.249,-91.5001 712.249,-95 722.249,-98.5001 722.249,-91.5001"/>
</g>
<!-- Node6 -->
<g id="node6" class="node"><title>Node6</title>
<g id="a_node6"><a xlink:href="nanorq_8c_ad6a9288685637cdfe83303f66b087a29.html#ad6a9288685637cdfe83303f66b087a29" target="_top" xlink:title="nanorq_generate_symbols">
<polygon fill="none" stroke="black" points="270,-28.5 270,-47.5 401,-47.5 401,-28.5 270,-28.5"/>
<text text-anchor="middle" x="335.5" y="-35.5" font-family="Helvetica,sans-Serif" font-size="10.00">nanorq_generate_symbols</text>
</a>
</g>
</g>
<!-- Node5&#45;&gt;Node6 -->
<g id="edge5" class="edge"><title>Node5&#45;&gt;Node6</title>
<path fill="none" stroke="midnightblue" d="M236.327,-38C247.559,-38 258.949,-38 269.8,-38"/>
<polygon fill="midnightblue" stroke="midnightblue" points="236.077,-34.5001 226.077,-38 236.077,-41.5001 236.077,-34.5001"/>
</g>
<!-- Node5&#45;&gt;Node11 -->
<g id="edge11" class="edge"><title>Node5&#45;&gt;Node11</title>
<path fill="none" stroke="midnightblue" d="M209.138,-49.681C234.807,-55.0699 264.891,-61.3861 289.154,-66.4799"/>
<polygon fill="midnightblue" stroke="midnightblue" points="209.68,-46.2184 199.174,-47.589 208.241,-53.0691 209.68,-46.2184"/>
</g>
<!-- Node7 -->
<g id="node7" class="node"><title>Node7</title>
<g id="a_node7"><a xlink:href="encode_8c_a3c04138a5bfe5d72780bb7e82a18e627.html#a3c04138a5bfe5d72780bb7e82a18e627" target="_top" xlink:title="main">
<polygon fill="none" stroke="black" points="853,-19.5 853,-38.5 891,-38.5 891,-19.5 853,-19.5"/>
<text text-anchor="middle" x="872" y="-26.5" font-family="Helvetica,sans-Serif" font-size="10.00">main</text>
</a>
</g>
</g>
<!-- Node6&#45;&gt;Node7 -->
<g id="edge6" class="edge"><title>Node6&#45;&gt;Node7</title>
<path fill="none" stroke="midnightblue" d="M411.571,-36.7359C537.556,-34.6146 784.49,-30.4567 852.999,-29.3031"/>
<polygon fill="midnightblue" stroke="midnightblue" points="411.179,-33.242 401.239,-36.9099 411.297,-40.241 411.179,-33.242"/>
</g>
<!-- Node8 -->
<g id="node8" class="node"><title>Node8</title>
<g id="a_node8"><a xlink:href="nanorq_8c_a956615eb4ea3ce34369951295e93f708.html#a956615eb4ea3ce34369951295e93f708" target="_top" xlink:title="nanorq_encode">
<polygon fill="none" stroke="black" points="463.5,-0.5 463.5,-19.5 546.5,-19.5 546.5,-0.5 463.5,-0.5"/>
<text text-anchor="middle" x="505" y="-7.5" font-family="Helvetica,sans-Serif" font-size="10.00">nanorq_encode</text>
</a>
</g>
</g>
<!-- Node6&#45;&gt;Node8 -->
<g id="edge7" class="edge"><title>Node6&#45;&gt;Node8</title>
<path fill="none" stroke="midnightblue" d="M403.782,-26.7529C423.994,-23.3742 445.538,-19.7727 463.451,-16.7783"/>
<polygon fill="midnightblue" stroke="midnightblue" points="402.962,-23.3414 393.676,-28.4423 404.116,-30.2456 402.962,-23.3414"/>
</g>
<!-- Node9 -->
<g id="node9" class="node"><title>Node9</title>
<g id="a_node9"><a xlink:href="encode_8c_a0993cb61d7e4c1b1a1606d159f5b1410.html#a0993cb61d7e4c1b1a1606d159f5b1410" target="_top" xlink:title="dump_esi">
<polygon fill="none" stroke="black" points="627,-0.5 627,-19.5 686,-19.5 686,-0.5 627,-0.5"/>
<text text-anchor="middle" x="656.5" y="-7.5" font-family="Helvetica,sans-Serif" font-size="10.00">dump_esi</text>
</a>
</g>
</g>
<!-- Node8&#45;&gt;Node9 -->
<g id="edge8" class="edge"><title>Node8&#45;&gt;Node9</title>
<path fill="none" stroke="midnightblue" d="M556.907,-10C580.14,-10 606.805,-10 626.542,-10"/>
<polygon fill="midnightblue" stroke="midnightblue" points="556.852,-6.5001 546.852,-10 556.851,-13.5001 556.852,-6.5001"/>
</g>
<!-- Node10 -->
<g id="node10" class="node"><title>Node10</title>
<g id="a_node10"><a xlink:href="encode_8c_ae7f8bbf4dcea92f802d2521fa0264f93.html#ae7f8bbf4dcea92f802d2521fa0264f93" target="_top" xlink:title="dump_block">
<polygon fill="none" stroke="black" points="748,-0.5 748,-19.5 817,-19.5 817,-0.5 748,-0.5"/>
<text text-anchor="middle" x="782.5" y="-7.5" font-family="Helvetica,sans-Serif" font-size="10.00">dump_block</text>
</a>
</g>
</g>
<!-- Node9&#45;&gt;Node10 -->
<g id="edge9" class="edge"><title>Node9&#45;&gt;Node10</title>
<path fill="none" stroke="midnightblue" d="M696.607,-10C712.984,-10 731.841,-10 747.616,-10"/>
<polygon fill="midnightblue" stroke="midnightblue" points="696.26,-6.5001 686.26,-10 696.26,-13.5001 696.26,-6.5001"/>
</g>
<!-- Node10&#45;&gt;Node7 -->
<g id="edge10" class="edge"><title>Node10&#45;&gt;Node7</title>
<path fill="none" stroke="midnightblue" d="M826.916,-19.4275C836.058,-21.4126 845.22,-23.402 852.804,-25.0488"/>
<polygon fill="midnightblue" stroke="midnightblue" points="827.595,-15.9933 817.08,-17.2916 826.109,-22.8339 827.595,-15.9933"/>
</g>
<!-- Node11&#45;&gt;Node2 -->
<g id="edge12" class="edge"><title>Node11&#45;&gt;Node2</title>
<path fill="none" stroke="midnightblue" d="M419.496,-85.4145C428.05,-86.3847 436.614,-87.3562 444.832,-88.2884"/>
<polygon fill="midnightblue" stroke="midnightblue" points="419.811,-81.9279 409.481,-84.2784 419.022,-88.8833 419.811,-81.9279"/>
</g>
</g>
</svg>
