<?xml version="1.0" encoding="UTF-8" standalone="no"?>
<!DOCTYPE svg PUBLIC "-//W3C//DTD SVG 1.1//EN"
 "http://www.w3.org/Graphics/SVG/1.1/DTD/svg11.dtd">
<!-- Generated by graphviz version 2.38.0 (20140413.2041)
 -->
<!-- Title: oscal Pages: 1 -->
<svg width="1017pt" height="85pt"
 viewBox="0.00 0.00 1017.00 85.00" xmlns="http://www.w3.org/2000/svg" xmlns:xlink="http://www.w3.org/1999/xlink">
<g id="graph0" class="graph" transform="scale(1 1) rotate(0) translate(4 81)">
<title>oscal</title>
<!-- Node1 -->
<g id="node1" class="node"><title>Node1</title>
<polygon fill="#bfbfbf" stroke="black" points="0,-19.5 0,-38.5 40,-38.5 40,-19.5 0,-19.5"/>
<text text-anchor="middle" x="20" y="-26.5" font-family="Helvetica,sans-Serif" font-size="10.00">oscal</text>
</g>
<!-- Node2 -->
<g id="node2" class="node"><title>Node2</title>
<g id="a_node2"><a xlink:href="precode_8c_a41bb3b163c071597877ad0de9bbbd756.html#a41bb3b163c071597877ad0de9bbbd756" target="_top" xlink:title="decode_phase2">
<polygon fill="none" stroke="black" points="76,-38.5 76,-57.5 161,-57.5 161,-38.5 76,-38.5"/>
<text text-anchor="middle" x="118.5" y="-45.5" font-family="Helvetica,sans-Serif" font-size="10.00">decode_phase2</text>
</a>
</g>
</g>
<!-- Node1&#45;&gt;Node2 -->
<g id="edge1" class="edge"><title>Node1&#45;&gt;Node2</title>
<path fill="none" stroke="midnightblue" d="M50.0871,-34.727C58.1574,-36.316 67.0818,-38.0731 75.724,-39.7747"/>
<polygon fill="midnightblue" stroke="midnightblue" points="50.5531,-31.2516 40.0653,-32.7538 49.2008,-38.1198 50.5531,-31.2516"/>
</g>
<!-- Node13 -->
<g id="node13" class="node"><title>Node13</title>
<g id="a_node13"><a xlink:href="precode_8c_a16925f32060a478093240f3b35ee664a.html#a16925f32060a478093240f3b35ee664a" target="_top" xlink:title="decode_phase5">
<polygon fill="none" stroke="black" points="76,-0.5 76,-19.5 161,-19.5 161,-0.5 76,-0.5"/>
<text text-anchor="middle" x="118.5" y="-7.5" font-family="Helvetica,sans-Serif" font-size="10.00">decode_phase5</text>
</a>
</g>
</g>
<!-- Node1&#45;&gt;Node13 -->
<g id="edge13" class="edge"><title>Node1&#45;&gt;Node13</title>
<path fill="none" stroke="midnightblue" d="M50.0871,-23.273C58.1574,-21.684 67.0818,-19.9269 75.724,-18.2253"/>
<polygon fill="midnightblue" stroke="midnightblue" points="49.2008,-19.8802 40.0653,-25.2462 50.5531,-26.7484 49.2008,-19.8802"/>
</g>
<!-- Node3 -->
<g id="node3" class="node"><title>Node3</title>
<g id="a_node3"><a xlink:href="precode_8c_a262ba8efa6b500c1e7a3cb0451245291.html#a262ba8efa6b500c1e7a3cb0451245291" target="_top" xlink:title="precode_matrix_intermediate1">
<polygon fill="none" stroke="black" points="197,-19.5 197,-38.5 344,-38.5 344,-19.5 197,-19.5"/>
<text text-anchor="middle" x="270.5" y="-26.5" font-family="Helvetica,sans-Serif" font-size="10.00">precode_matrix_intermediate1</text>
</a>
</g>
</g>
<!-- Node2&#45;&gt;Node3 -->
<g id="edge2" class="edge"><title>Node2&#45;&gt;Node3</title>
<path fill="none" stroke="midnightblue" d="M171.453,-41.4193C179.682,-40.377 188.32,-39.2828 196.917,-38.1939"/>
<polygon fill="midnightblue" stroke="midnightblue" points="170.764,-37.9785 161.283,-42.7074 171.644,-44.923 170.764,-37.9785"/>
</g>
<!-- Node4 -->
<g id="node4" class="node"><title>Node4</title>
<g id="a_node4"><a xlink:href="nanorq_8c_ad6a9288685637cdfe83303f66b087a29.html#ad6a9288685637cdfe83303f66b087a29" target="_top" xlink:title="nanorq_generate_symbols">
<polygon fill="none" stroke="black" points="388,-38.5 388,-57.5 519,-57.5 519,-38.5 388,-38.5"/>
<text text-anchor="middle" x="453.5" y="-45.5" font-family="Helvetica,sans-Serif" font-size="10.00">nanorq_generate_symbols</text>
</a>
</g>
</g>
<!-- Node3&#45;&gt;Node4 -->
<g id="edge3" class="edge"><title>Node3&#45;&gt;Node4</title>
<path fill="none" stroke="midnightblue" d="M354.327,-37.6945C365.559,-38.8736 376.949,-40.0692 387.8,-41.2083"/>
<polygon fill="midnightblue" stroke="midnightblue" points="354.387,-34.1817 344.077,-36.6185 353.657,-41.1435 354.387,-34.1817"/>
</g>
<!-- Node9 -->
<g id="node9" class="node"><title>Node9</title>
<g id="a_node9"><a xlink:href="precode_8c_a2b6a5db8f90fc98b364cb5ed3b5eca24.html#a2b6a5db8f90fc98b364cb5ed3b5eca24" target="_top" xlink:title="precode_matrix_intermediate2">
<polygon fill="none" stroke="black" points="380,-0.5 380,-19.5 527,-19.5 527,-0.5 380,-0.5"/>
<text text-anchor="middle" x="453.5" y="-7.5" font-family="Helvetica,sans-Serif" font-size="10.00">precode_matrix_intermediate2</text>
</a>
</g>
</g>
<!-- Node3&#45;&gt;Node9 -->
<g id="edge9" class="edge"><title>Node3&#45;&gt;Node9</title>
<path fill="none" stroke="midnightblue" d="M354.116,-20.3276C362.722,-19.4242 371.424,-18.5107 379.907,-17.6203"/>
<polygon fill="midnightblue" stroke="midnightblue" points="353.657,-16.8565 344.077,-21.3815 354.387,-23.8182 353.657,-16.8565"/>
</g>
<!-- Node5 -->
<g id="node5" class="node"><title>Node5</title>
<g id="a_node5"><a xlink:href="encode_8c_a3c04138a5bfe5d72780bb7e82a18e627.html#a3c04138a5bfe5d72780bb7e82a18e627" target="_top" xlink:title="main">
<polygon fill="none" stroke="black" points="971,-57.5 971,-76.5 1009,-76.5 1009,-57.5 971,-57.5"/>
<text text-anchor="middle" x="990" y="-64.5" font-family="Helvetica,sans-Serif" font-size="10.00">main</text>
</a>
</g>
</g>
<!-- Node4&#45;&gt;Node5 -->
<g id="edge4" class="edge"><title>Node4&#45;&gt;Node5</title>
<path fill="none" stroke="midnightblue" d="M508.55,-59.3642C525.86,-62.4925 545.163,-65.45 563,-67 720.308,-80.6695 911.527,-71.5387 970.682,-68.1302"/>
<polygon fill="midnightblue" stroke="midnightblue" points="509.087,-55.904 498.615,-57.5119 507.804,-62.7854 509.087,-55.904"/>
</g>
<!-- Node6 -->
<g id="node6" class="node"><title>Node6</title>
<g id="a_node6"><a xlink:href="nanorq_8c_a956615eb4ea3ce34369951295e93f708.html#a956615eb4ea3ce34369951295e93f708" target="_top" xlink:title="nanorq_encode">
<polygon fill="none" stroke="black" points="581.5,-38.5 581.5,-57.5 664.5,-57.5 664.5,-38.5 581.5,-38.5"/>
<text text-anchor="middle" x="623" y="-45.5" font-family="Helvetica,sans-Serif" font-size="10.00">nanorq_encode</text>
</a>
</g>
</g>
<!-- Node4&#45;&gt;Node6 -->
<g id="edge5" class="edge"><title>Node4&#45;&gt;Node6</title>
<path fill="none" stroke="midnightblue" d="M529.609,-48C547.33,-48 565.572,-48 581.117,-48"/>
<polygon fill="midnightblue" stroke="midnightblue" points="529.26,-44.5001 519.26,-48 529.26,-51.5001 529.26,-44.5001"/>
</g>
<!-- Node7 -->
<g id="node7" class="node"><title>Node7</title>
<g id="a_node7"><a xlink:href="encode_8c_a0993cb61d7e4c1b1a1606d159f5b1410.html#a0993cb61d7e4c1b1a1606d159f5b1410" target="_top" xlink:title="dump_esi">
<polygon fill="none" stroke="black" points="745,-38.5 745,-57.5 804,-57.5 804,-38.5 745,-38.5"/>
<text text-anchor="middle" x="774.5" y="-45.5" font-family="Helvetica,sans-Serif" font-size="10.00">dump_esi</text>
</a>
</g>
</g>
<!-- Node6&#45;&gt;Node7 -->
<g id="edge6" class="edge"><title>Node6&#45;&gt;Node7</title>
<path fill="none" stroke="midnightblue" d="M674.907,-48C698.14,-48 724.805,-48 744.542,-48"/>
<polygon fill="midnightblue" stroke="midnightblue" points="674.852,-44.5001 664.852,-48 674.851,-51.5001 674.852,-44.5001"/>
</g>
<!-- Node8 -->
<g id="node8" class="node"><title>Node8</title>
<g id="a_node8"><a xlink:href="encode_8c_ae7f8bbf4dcea92f802d2521fa0264f93.html#ae7f8bbf4dcea92f802d2521fa0264f93" target="_top" xlink:title="dump_block">
<polygon fill="none" stroke="black" points="866,-38.5 866,-57.5 935,-57.5 935,-38.5 866,-38.5"/>
<text text-anchor="middle" x="900.5" y="-45.5" font-family="Helvetica,sans-Serif" font-size="10.00">dump_block</text>
</a>
</g>
</g>
<!-- Node7&#45;&gt;Node8 -->
<g id="edge7" class="edge"><title>Node7&#45;&gt;Node8</title>
<path fill="none" stroke="midnightblue" d="M814.607,-48C830.984,-48 849.841,-48 865.616,-48"/>
<polygon fill="midnightblue" stroke="midnightblue" points="814.26,-44.5001 804.26,-48 814.26,-51.5001 814.26,-44.5001"/>
</g>
<!-- Node8&#45;&gt;Node5 -->
<g id="edge8" class="edge"><title>Node8&#45;&gt;Node5</title>
<path fill="none" stroke="midnightblue" d="M944.916,-57.4275C954.058,-59.4126 963.22,-61.402 970.804,-63.0488"/>
<polygon fill="midnightblue" stroke="midnightblue" points="945.595,-53.9933 935.08,-55.2916 944.109,-60.8339 945.595,-53.9933"/>
</g>
<!-- Node10 -->
<g id="node10" class="node"><title>Node10</title>
<g id="a_node10"><a xlink:href="precode_8c_aee2113e8f8d7e54052fc8db5dd71fd1f.html#aee2113e8f8d7e54052fc8db5dd71fd1f" target="_top" xlink:title="precode_matrix_decode">
<polygon fill="none" stroke="black" points="563,-0.5 563,-19.5 683,-19.5 683,-0.5 563,-0.5"/>
<text text-anchor="middle" x="623" y="-7.5" font-family="Helvetica,sans-Serif" font-size="10.00">precode_matrix_decode</text>
</a>
</g>
</g>
<!-- Node9&#45;&gt;Node10 -->
<g id="edge10" class="edge"><title>Node9&#45;&gt;Node10</title>
<path fill="none" stroke="midnightblue" d="M537.496,-10C546.05,-10 554.614,-10 562.832,-10"/>
<polygon fill="midnightblue" stroke="midnightblue" points="537.481,-6.5001 527.481,-10 537.481,-13.5001 537.481,-6.5001"/>
</g>
<!-- Node11 -->
<g id="node11" class="node"><title>Node11</title>
<g id="a_node11"><a xlink:href="nanorq_8c_aa1dcf83669e76931be0e6e7a1f02c185.html#aa1dcf83669e76931be0e6e7a1f02c185" target="_top" xlink:title="nanorq_decode_block">
<polygon fill="none" stroke="black" points="719,-0.5 719,-19.5 830,-19.5 830,-0.5 719,-0.5"/>
<text text-anchor="middle" x="774.5" y="-7.5" font-family="Helvetica,sans-Serif" font-size="10.00">nanorq_decode_block</text>
</a>
</g>
</g>
<!-- Node10&#45;&gt;Node11 -->
<g id="edge11" class="edge"><title>Node10&#45;&gt;Node11</title>
<path fill="none" stroke="midnightblue" d="M693.104,-10C701.7,-10 710.396,-10 718.734,-10"/>
<polygon fill="midnightblue" stroke="midnightblue" points="693.086,-6.5001 683.086,-10 693.086,-13.5001 693.086,-6.5001"/>
</g>
<!-- Node12 -->
<g id="node12" class="node"><title>Node12</title>
<g id="a_node12"><a xlink:href="decode_8c_a3c04138a5bfe5d72780bb7e82a18e627.html#a3c04138a5bfe5d72780bb7e82a18e627" target="_top" xlink:title="main">
<polygon fill="none" stroke="black" points="881.5,-0.5 881.5,-19.5 919.5,-19.5 919.5,-0.5 881.5,-0.5"/>
<text text-anchor="middle" x="900.5" y="-7.5" font-family="Helvetica,sans-Serif" font-size="10.00">main</text>
</a>
</g>
</g>
<!-- Node11&#45;&gt;Node12 -->
<g id="edge12" class="edge"><title>Node11&#45;&gt;Node12</title>
<path fill="none" stroke="midnightblue" d="M840.661,-10C855.706,-10 870.503,-10 881.494,-10"/>
<polygon fill="midnightblue" stroke="midnightblue" points="840.249,-6.5001 830.249,-10 840.249,-13.5001 840.249,-6.5001"/>
</g>
<!-- Node13&#45;&gt;Node3 -->
<g id="edge14" class="edge"><title>Node13&#45;&gt;Node3</title>
<path fill="none" stroke="midnightblue" d="M171.453,-16.5807C179.682,-17.623 188.32,-18.7172 196.917,-19.8061"/>
<polygon fill="midnightblue" stroke="midnightblue" points="171.644,-13.077 161.283,-15.2926 170.764,-20.0215 171.644,-13.077"/>
</g>
</g>
</svg>
