<?xml version="1.0" encoding="UTF-8" standalone="no"?>
<!DOCTYPE svg PUBLIC "-//W3C//DTD SVG 1.1//EN"
 "http://www.w3.org/Graphics/SVG/1.1/DTD/svg11.dtd">
<!-- Generated by graphviz version 2.38.0 (20140413.2041)
 -->
<!-- Title: octmat.c Pages: 1 -->
<svg width="555pt" height="84pt"
 viewBox="0.00 0.00 555.00 84.00" xmlns="http://www.w3.org/2000/svg" xmlns:xlink="http://www.w3.org/1999/xlink">
<g id="graph0" class="graph" transform="scale(1 1) rotate(0) translate(4 80)">
<title>octmat.c</title>
<!-- Node0 -->
<g id="node1" class="node"><title>Node0</title>
<polygon fill="#bfbfbf" stroke="black" points="229.5,-56.5 229.5,-75.5 284.5,-75.5 284.5,-56.5 229.5,-56.5"/>
<text text-anchor="middle" x="257" y="-63.5" font-family="Helvetica,sans-Serif" font-size="10.00">octmat.c</text>
</g>
<!-- Node1 -->
<g id="node2" class="node"><title>Node1</title>
<polygon fill="none" stroke="#bfbfbf" points="0,-0.5 0,-19.5 48,-19.5 48,-0.5 0,-0.5"/>
<text text-anchor="middle" x="24" y="-7.5" font-family="Helvetica,sans-Serif" font-size="10.00">stdlib.h</text>
</g>
<!-- Node0&#45;&gt;Node1 -->
<g id="edge1" class="edge"><title>Node0&#45;&gt;Node1</title>
<path fill="none" stroke="midnightblue" d="M229.409,-59.2025C192.559,-51.3703 125.022,-36.7072 57.999,-20.1655"/>
<polygon fill="midnightblue" stroke="midnightblue" points="58.6666,-16.7251 48.1179,-17.7119 56.9796,-23.5188 58.6666,-16.7251"/>
</g>
<!-- Node2 -->
<g id="node3" class="node"><title>Node2</title>
<polygon fill="none" stroke="#bfbfbf" points="66.5,-0.5 66.5,-19.5 113.5,-19.5 113.5,-0.5 66.5,-0.5"/>
<text text-anchor="middle" x="90" y="-7.5" font-family="Helvetica,sans-Serif" font-size="10.00">errno.h</text>
</g>
<!-- Node0&#45;&gt;Node2 -->
<g id="edge2" class="edge"><title>Node0&#45;&gt;Node2</title>
<path fill="none" stroke="midnightblue" d="M230.538,-56.4435C201.492,-47.0513 154.806,-31.9553 123.294,-21.7658"/>
<polygon fill="midnightblue" stroke="midnightblue" points="124.23,-18.3899 113.638,-18.6433 122.076,-25.0503 124.23,-18.3899"/>
</g>
<!-- Node3 -->
<g id="node4" class="node"><title>Node3</title>
<polygon fill="none" stroke="#bfbfbf" points="132,-0.5 132,-19.5 178,-19.5 178,-0.5 132,-0.5"/>
<text text-anchor="middle" x="155" y="-7.5" font-family="Helvetica,sans-Serif" font-size="10.00">stdio.h</text>
</g>
<!-- Node0&#45;&gt;Node3 -->
<g id="edge3" class="edge"><title>Node0&#45;&gt;Node3</title>
<path fill="none" stroke="midnightblue" d="M240.612,-56.324C224.329,-47.7034 199.133,-34.3643 180.284,-24.3855"/>
<polygon fill="midnightblue" stroke="midnightblue" points="181.823,-21.2402 171.347,-19.6545 178.548,-27.4267 181.823,-21.2402"/>
</g>
<!-- Node4 -->
<g id="node5" class="node"><title>Node4</title>
<polygon fill="none" stroke="#bfbfbf" points="196.5,-0.5 196.5,-19.5 245.5,-19.5 245.5,-0.5 196.5,-0.5"/>
<text text-anchor="middle" x="221" y="-7.5" font-family="Helvetica,sans-Serif" font-size="10.00">stdint.h</text>
</g>
<!-- Node0&#45;&gt;Node4 -->
<g id="edge4" class="edge"><title>Node0&#45;&gt;Node4</title>
<path fill="none" stroke="midnightblue" d="M251.055,-56.083C246.023,-48.5341 238.663,-37.4948 232.487,-28.2298"/>
<polygon fill="midnightblue" stroke="midnightblue" points="235.293,-26.1301 226.834,-19.7511 229.469,-30.0131 235.293,-26.1301"/>
</g>
<!-- Node5 -->
<g id="node6" class="node"><title>Node5</title>
<polygon fill="none" stroke="#bfbfbf" points="264,-0.5 264,-19.5 324,-19.5 324,-0.5 264,-0.5"/>
<text text-anchor="middle" x="294" y="-7.5" font-family="Helvetica,sans-Serif" font-size="10.00">memory.h</text>
</g>
<!-- Node0&#45;&gt;Node5 -->
<g id="edge5" class="edge"><title>Node0&#45;&gt;Node5</title>
<path fill="none" stroke="midnightblue" d="M263.11,-56.083C268.282,-48.5341 275.846,-37.4948 282.194,-28.2298"/>
<polygon fill="midnightblue" stroke="midnightblue" points="285.239,-29.9787 288.004,-19.7511 279.464,-26.0221 285.239,-29.9787"/>
</g>
<!-- Node6 -->
<g id="node7" class="node"><title>Node6</title>
<g id="a_node7"><a xlink:href="octmat_8h.html" target="_top" xlink:title="octmat.h">
<polygon fill="none" stroke="black" points="342.5,-0.5 342.5,-19.5 397.5,-19.5 397.5,-0.5 342.5,-0.5"/>
<text text-anchor="middle" x="370" y="-7.5" font-family="Helvetica,sans-Serif" font-size="10.00">octmat.h</text>
</a>
</g>
</g>
<!-- Node0&#45;&gt;Node6 -->
<g id="edge6" class="edge"><title>Node0&#45;&gt;Node6</title>
<path fill="none" stroke="midnightblue" d="M274.905,-56.4435C293.254,-47.6751 322.005,-33.9355 343.094,-23.8579"/>
<polygon fill="midnightblue" stroke="midnightblue" points="344.665,-26.9862 352.179,-19.5164 341.647,-20.6703 344.665,-26.9862"/>
</g>
<!-- Node7 -->
<g id="node8" class="node"><title>Node7</title>
<g id="a_node8"><a xlink:href="octtables_8h.html" target="_top" xlink:title="octtables.h">
<polygon fill="none" stroke="black" points="415.5,-0.5 415.5,-19.5 480.5,-19.5 480.5,-0.5 415.5,-0.5"/>
<text text-anchor="middle" x="448" y="-7.5" font-family="Helvetica,sans-Serif" font-size="10.00">octtables.h</text>
</a>
</g>
</g>
<!-- Node0&#45;&gt;Node7 -->
<g id="edge7" class="edge"><title>Node0&#45;&gt;Node7</title>
<path fill="none" stroke="midnightblue" d="M284.773,-57.1479C317.117,-48.0036 370.814,-32.8222 407.732,-22.3847"/>
<polygon fill="midnightblue" stroke="midnightblue" points="408.997,-25.6642 417.668,-19.5756 407.093,-18.9282 408.997,-25.6642"/>
</g>
<!-- Node8 -->
<g id="node9" class="node"><title>Node8</title>
<g id="a_node9"><a xlink:href="oblas_8h.html" target="_top" xlink:title="oblas.h">
<polygon fill="none" stroke="black" points="499,-0.5 499,-19.5 547,-19.5 547,-0.5 499,-0.5"/>
<text text-anchor="middle" x="523" y="-7.5" font-family="Helvetica,sans-Serif" font-size="10.00">oblas.h</text>
</a>
</g>
</g>
<!-- Node0&#45;&gt;Node8 -->
<g id="edge8" class="edge"><title>Node0&#45;&gt;Node8</title>
<path fill="none" stroke="midnightblue" d="M284.76,-60.3374C326.781,-53.1295 409.238,-38.3997 488.724,-20.1572"/>
<polygon fill="midnightblue" stroke="midnightblue" points="489.951,-23.4654 498.903,-17.7975 488.371,-16.6463 489.951,-23.4654"/>
</g>
</g>
</svg>
