<?xml version="1.0" encoding="UTF-8" standalone="no"?>
<!DOCTYPE svg PUBLIC "-//W3C//DTD SVG 1.1//EN"
 "http://www.w3.org/Graphics/SVG/1.1/DTD/svg11.dtd">
<!-- Generated by graphviz version 2.38.0 (20140413.2041)
 -->
<!-- Title: octmat.h Pages: 1 -->
<svg width="534pt" height="84pt"
 viewBox="0.00 0.00 534.00 84.00" xmlns="http://www.w3.org/2000/svg" xmlns:xlink="http://www.w3.org/1999/xlink">
<g id="graph0" class="graph" transform="scale(1 1) rotate(0) translate(4 80)">
<title>octmat.h</title>
<!-- Node1 -->
<g id="node1" class="node"><title>Node1</title>
<polygon fill="#bfbfbf" stroke="black" points="231,-56.5 231,-75.5 286,-75.5 286,-56.5 231,-56.5"/>
<text text-anchor="middle" x="258.5" y="-63.5" font-family="Helvetica,sans-Serif" font-size="10.00">octmat.h</text>
</g>
<!-- Node2 -->
<g id="node2" class="node"><title>Node2</title>
<g id="a_node2"><a xlink:href="chooser_8c.html" target="_top" xlink:title="chooser.c">
<polygon fill="none" stroke="black" points="0,-0.5 0,-19.5 59,-19.5 59,-0.5 0,-0.5"/>
<text text-anchor="middle" x="29.5" y="-7.5" font-family="Helvetica,sans-Serif" font-size="10.00">chooser.c</text>
</a>
</g>
</g>
<!-- Node1&#45;&gt;Node2 -->
<g id="edge1" class="edge"><title>Node1&#45;&gt;Node2</title>
<path fill="none" stroke="midnightblue" d="M221.241,-56.2352C182.742,-47.1758 120.914,-32.6176 67.5,-20 64.8607,-19.3765 62.1185,-18.7282 59.3699,-18.078"/>
<polygon fill="midnightblue" stroke="midnightblue" points="220.444,-59.6433 230.98,-58.5269 222.047,-52.8294 220.444,-59.6433"/>
</g>
<!-- Node3 -->
<g id="node3" class="node"><title>Node3</title>
<g id="a_node3"><a xlink:href="graph_8c.html" target="_top" xlink:title="graph.c">
<polygon fill="none" stroke="black" points="77,-0.5 77,-19.5 126,-19.5 126,-0.5 77,-0.5"/>
<text text-anchor="middle" x="101.5" y="-7.5" font-family="Helvetica,sans-Serif" font-size="10.00">graph.c</text>
</a>
</g>
</g>
<!-- Node1&#45;&gt;Node3 -->
<g id="edge2" class="edge"><title>Node1&#45;&gt;Node3</title>
<path fill="none" stroke="midnightblue" d="M224.082,-53.1619C194.424,-42.961 152.344,-28.4877 126.002,-19.4275"/>
<polygon fill="midnightblue" stroke="midnightblue" points="223.028,-56.5007 233.623,-56.4435 225.305,-49.8813 223.028,-56.5007"/>
</g>
<!-- Node4 -->
<g id="node4" class="node"><title>Node4</title>
<g id="a_node4"><a xlink:href="nanorq_8c.html" target="_top" xlink:title="nanorq.c">
<polygon fill="none" stroke="black" points="144.5,-0.5 144.5,-19.5 198.5,-19.5 198.5,-0.5 144.5,-0.5"/>
<text text-anchor="middle" x="171.5" y="-7.5" font-family="Helvetica,sans-Serif" font-size="10.00">nanorq.c</text>
</a>
</g>
</g>
<!-- Node1&#45;&gt;Node4 -->
<g id="edge3" class="edge"><title>Node1&#45;&gt;Node4</title>
<path fill="none" stroke="midnightblue" d="M235.784,-50.9005C219.831,-40.9986 199.003,-28.0705 185.443,-19.6545"/>
<polygon fill="midnightblue" stroke="midnightblue" points="234.18,-54.024 244.522,-56.324 237.871,-48.0765 234.18,-54.024"/>
</g>
<!-- Node5 -->
<g id="node5" class="node"><title>Node5</title>
<g id="a_node5"><a xlink:href="oblas__classic_8c.html" target="_top" xlink:title="oblas_classic.c">
<polygon fill="none" stroke="black" points="216.5,-0.5 216.5,-19.5 300.5,-19.5 300.5,-0.5 216.5,-0.5"/>
<text text-anchor="middle" x="258.5" y="-7.5" font-family="Helvetica,sans-Serif" font-size="10.00">oblas_classic.c</text>
</a>
</g>
</g>
<!-- Node1&#45;&gt;Node5 -->
<g id="edge4" class="edge"><title>Node1&#45;&gt;Node5</title>
<path fill="none" stroke="midnightblue" d="M258.5,-45.8045C258.5,-36.9102 258.5,-26.7798 258.5,-19.7511"/>
<polygon fill="midnightblue" stroke="midnightblue" points="255,-46.083 258.5,-56.083 262,-46.083 255,-46.083"/>
</g>
<!-- Node6 -->
<g id="node6" class="node"><title>Node6</title>
<g id="a_node6"><a xlink:href="octmat_8c.html" target="_top" xlink:title="octmat.c">
<polygon fill="none" stroke="black" points="319,-0.5 319,-19.5 374,-19.5 374,-0.5 319,-0.5"/>
<text text-anchor="middle" x="346.5" y="-7.5" font-family="Helvetica,sans-Serif" font-size="10.00">octmat.c</text>
</a>
</g>
</g>
<!-- Node1&#45;&gt;Node6 -->
<g id="edge5" class="edge"><title>Node1&#45;&gt;Node6</title>
<path fill="none" stroke="midnightblue" d="M281.477,-50.9005C297.613,-40.9986 318.681,-28.0705 332.396,-19.6545"/>
<polygon fill="midnightblue" stroke="midnightblue" points="279.331,-48.1106 272.639,-56.324 282.993,-54.0769 279.331,-48.1106"/>
</g>
<!-- Node7 -->
<g id="node7" class="node"><title>Node7</title>
<g id="a_node7"><a xlink:href="params_8c.html" target="_top" xlink:title="params.c">
<polygon fill="none" stroke="black" points="392,-0.5 392,-19.5 449,-19.5 449,-0.5 392,-0.5"/>
<text text-anchor="middle" x="420.5" y="-7.5" font-family="Helvetica,sans-Serif" font-size="10.00">params.c</text>
</a>
</g>
</g>
<!-- Node1&#45;&gt;Node7 -->
<g id="edge6" class="edge"><title>Node1&#45;&gt;Node7</title>
<path fill="none" stroke="midnightblue" d="M293.984,-53.172C324.488,-43.0039 367.745,-28.5852 394.951,-19.5164"/>
<polygon fill="midnightblue" stroke="midnightblue" points="292.549,-49.9608 284.169,-56.4435 294.763,-56.6016 292.549,-49.9608"/>
</g>
<!-- Node8 -->
<g id="node8" class="node"><title>Node8</title>
<g id="a_node8"><a xlink:href="precode_8c.html" target="_top" xlink:title="precode.c">
<polygon fill="none" stroke="black" points="467,-0.5 467,-19.5 526,-19.5 526,-0.5 467,-0.5"/>
<text text-anchor="middle" x="496.5" y="-7.5" font-family="Helvetica,sans-Serif" font-size="10.00">precode.c</text>
</a>
</g>
</g>
<!-- Node1&#45;&gt;Node8 -->
<g id="edge7" class="edge"><title>Node1&#45;&gt;Node8</title>
<path fill="none" stroke="midnightblue" d="M295.916,-56.7132C336.119,-47.7783 401.876,-33.0752 458.5,-20 461.142,-19.3898 463.887,-18.7506 466.637,-18.1063"/>
<polygon fill="midnightblue" stroke="midnightblue" points="295.024,-53.3259 286.021,-58.9105 296.542,-60.1594 295.024,-53.3259"/>
</g>
</g>
</svg>
