<?xml version="1.0" encoding="UTF-8" standalone="no"?>
<!DOCTYPE svg PUBLIC "-//W3C//DTD SVG 1.1//EN"
 "http://www.w3.org/Graphics/SVG/1.1/DTD/svg11.dtd">
<!-- Generated by graphviz version 2.38.0 (20140413.2041)
 -->
<!-- Title: om_resize Pages: 1 -->
<!--zoomable 416 -->
<svg id="main" version="1.1" xmlns="http://www.w3.org/2000/svg" xmlns:xlink="http://www.w3.org/1999/xlink" xml:space="preserve" onload="init(evt)">
<style type="text/css"><![CDATA[
.edge:hover path { stroke: red; }
.edge:hover polygon { stroke: red; fill: red; }
]]></style>
<script type="text/javascript"><![CDATA[
var edges = document.getElementsByTagName('g');
if (edges && edges.length) {
  for (var i=0;i<edges.length;i++) {
    if (edges[i].id.substr(0,4)=='edge') {
      edges[i].setAttribute('class','edge');
    }
  }
}
]]></script>
        <defs>
                <circle id="rim" cx="0" cy="0" r="7"/>
                <circle id="rim2" cx="0" cy="0" r="3.5"/>
                <g id="zoomPlus">
                        <use xlink:href="#rim" fill="#404040">
                                <set attributeName="fill" to="#808080" begin="zoomplus.mouseover" end="zoomplus.mouseout"/>
                        </use>
                        <path d="M-4,0h8M0,-4v8" fill="none" stroke="white" stroke-width="1.5" pointer-events="none"/>
                </g>
                <g id="zoomMin">
                        <use xlink:href="#rim" fill="#404040">
                                <set attributeName="fill" to="#808080" begin="zoomminus.mouseover" end="zoomminus.mouseout"/>
                        </use>
                        <path d="M-4,0h8" fill="none" stroke="white" stroke-width="1.5" pointer-events="none"/>
                </g>
                <g id="dirArrow">
                        <path fill="none" stroke="white" stroke-width="1.5" d="M0,-3.0v7 M-2.5,-0.5L0,-3.0L2.5,-0.5"/>
                </g>
               <g id="resetDef">
                       <use xlink:href="#rim2" fill="#404040">
                               <set attributeName="fill" to="#808080" begin="reset.mouseover" end="reset.mouseout"/>
                       </use>
               </g>
        </defs>

<script type="text/javascript">
var viewWidth = 1192;
var viewHeight = 416;
var sectionId = 'dynsection-0';
</script>
<script xlink:href="svgpan.js"/>
<svg id="graph" class="graph">
<g id="viewport">
<title>om_resize</title>
<!-- Node1 -->
<g id="node1" class="node"><title>Node1</title>
<polygon fill="#bfbfbf" stroke="black" points="0,-215.408 0,-234.408 62,-234.408 62,-215.408 0,-215.408"/>
<text text-anchor="middle" x="31" y="-222.408" font-family="Helvetica,sans-Serif" font-size="10.00">om_resize</text>
</g>
<!-- Node2 -->
<g id="node2" class="node"><title>Node2</title>
<g id="a_node2"><a xlink:href="precode_8c_a11824185dea7b498ffadaca55ae49090.html#a11824185dea7b498ffadaca55ae49090" target="_top" xlink:title="decode_phase3">
<polygon fill="none" stroke="black" points="121.5,-215.408 121.5,-234.408 206.5,-234.408 206.5,-215.408 121.5,-215.408"/>
<text text-anchor="middle" x="164" y="-222.408" font-family="Helvetica,sans-Serif" font-size="10.00">decode_phase3</text>
</a>
</g>
</g>
<!-- Node1&#45;&gt;Node2 -->
<g id="edge1" class="edge"><title>Node1&#45;&gt;Node2</title>
<path fill="none" stroke="midnightblue" d="M72.3701,-224.908C87.857,-224.908 105.553,-224.908 121.174,-224.908"/>
<polygon fill="midnightblue" stroke="midnightblue" points="72.0541,-221.408 62.054,-224.908 72.054,-228.408 72.0541,-221.408"/>
</g>
<!-- Node3 -->
<g id="node3" class="node"><title>Node3</title>
<g id="a_node3"><a xlink:href="precode_8c_a262ba8efa6b500c1e7a3cb0451245291.html#a262ba8efa6b500c1e7a3cb0451245291" target="_top" xlink:title="precode_matrix_intermediate1">
<polygon fill="none" stroke="black" points="266,-187.408 266,-206.408 413,-206.408 413,-187.408 266,-187.408"/>
<text text-anchor="middle" x="339.5" y="-194.408" font-family="Helvetica,sans-Serif" font-size="10.00">precode_matrix_intermediate1</text>
</a>
</g>
</g>
<!-- Node1&#45;&gt;Node3 -->
<g id="edge25" class="edge"><title>Node1&#45;&gt;Node3</title>
<path fill="none" stroke="midnightblue" d="M69.3205,-212.459C78.5921,-209.841 88.5756,-207.418 98,-205.908 153.903,-196.952 218.005,-194.956 265.964,-195.06"/>
<polygon fill="midnightblue" stroke="midnightblue" points="68.1914,-209.143 59.5993,-215.342 70.1818,-215.854 68.1914,-209.143"/>
</g>
<!-- Node4 -->
<g id="node4" class="node"><title>Node4</title>
<g id="a_node4"><a xlink:href="nanorq_8c_ad6a9288685637cdfe83303f66b087a29.html#ad6a9288685637cdfe83303f66b087a29" target="_top" xlink:title="nanorq_generate_symbols">
<polygon fill="none" stroke="black" points="632,-191.408 632,-210.408 763,-210.408 763,-191.408 632,-191.408"/>
<text text-anchor="middle" x="697.5" y="-198.408" font-family="Helvetica,sans-Serif" font-size="10.00">nanorq_generate_symbols</text>
</a>
</g>
</g>
<!-- Node1&#45;&gt;Node4 -->
<g id="edge15" class="edge"><title>Node1&#45;&gt;Node4</title>
<path fill="none" stroke="midnightblue" d="M33.0665,-245.093C36.2184,-281.705 48.6857,-358.372 98,-391.908 146.512,-424.899 171.854,-399.709 230,-391.908 400.943,-368.975 443.027,-342.576 596,-262.908 627.82,-246.336 663.1,-223.449 682.24,-210.624"/>
<polygon fill="midnightblue" stroke="midnightblue" points="36.5298,-244.448 32.3355,-234.719 29.5471,-244.94 36.5298,-244.448"/>
</g>
<!-- Node9 -->
<g id="node9" class="node"><title>Node9</title>
<g id="a_node9"><a xlink:href="precode_8c_a2b6a5db8f90fc98b364cb5ed3b5eca24.html#a2b6a5db8f90fc98b364cb5ed3b5eca24" target="_top" xlink:title="precode_matrix_intermediate2">
<polygon fill="none" stroke="black" points="449,-110.408 449,-129.408 596,-129.408 596,-110.408 449,-110.408"/>
<text text-anchor="middle" x="522.5" y="-117.408" font-family="Helvetica,sans-Serif" font-size="10.00">precode_matrix_intermediate2</text>
</a>
</g>
</g>
<!-- Node1&#45;&gt;Node9 -->
<g id="edge26" class="edge"><title>Node1&#45;&gt;Node9</title>
<path fill="none" stroke="midnightblue" d="M44.967,-206.735C56.929,-191.424 76.1115,-170.253 98,-158.908 209.77,-100.98 360.513,-102.914 448.738,-110.668"/>
<polygon fill="midnightblue" stroke="midnightblue" points="42.0004,-204.856 38.7924,-214.954 47.5971,-209.061 42.0004,-204.856"/>
</g>
<!-- Node10 -->
<g id="node10" class="node"><title>Node10</title>
<g id="a_node10"><a xlink:href="precode_8c_aee2113e8f8d7e54052fc8db5dd71fd1f.html#aee2113e8f8d7e54052fc8db5dd71fd1f" target="_top" xlink:title="precode_matrix_decode">
<polygon fill="none" stroke="black" points="637.5,-106.408 637.5,-125.408 757.5,-125.408 757.5,-106.408 637.5,-106.408"/>
<text text-anchor="middle" x="697.5" y="-113.408" font-family="Helvetica,sans-Serif" font-size="10.00">precode_matrix_decode</text>
</a>
</g>
</g>
<!-- Node1&#45;&gt;Node10 -->
<g id="edge16" class="edge"><title>Node1&#45;&gt;Node10</title>
<path fill="none" stroke="midnightblue" d="M37.5407,-205.351C45.9568,-179.66 64.6246,-135.409 98,-114.908 287.248,1.34014 577.717,-77.2342 668.439,-106.336"/>
<polygon fill="midnightblue" stroke="midnightblue" points="34.1361,-204.515 34.5484,-215.102 40.8281,-206.569 34.1361,-204.515"/>
</g>
<!-- Node13 -->
<g id="node13" class="node"><title>Node13</title>
<g id="a_node13"><a xlink:href="nanorq_8c_a4199d347f3a4d6e329a6b76fde635121.html#a4199d347f3a4d6e329a6b76fde635121" target="_top" xlink:title="nanorq_decoder_add\l_symbol">
<polygon fill="none" stroke="black" points="469,-13.9081 469,-43.9081 576,-43.9081 576,-13.9081 469,-13.9081"/>
<text text-anchor="start" x="477" y="-31.9081" font-family="Helvetica,sans-Serif" font-size="10.00">nanorq_decoder_add</text>
<text text-anchor="middle" x="522.5" y="-20.9081" font-family="Helvetica,sans-Serif" font-size="10.00">_symbol</text>
</a>
</g>
</g>
<!-- Node1&#45;&gt;Node13 -->
<g id="edge13" class="edge"><title>Node1&#45;&gt;Node13</title>
<path fill="none" stroke="midnightblue" d="M33.3404,-205.168C36.9409,-169.306 50.1151,-93.9351 98,-58.9081 208.803,22.1422 382.543,1.13741 468.992,-16.3253"/>
<polygon fill="midnightblue" stroke="midnightblue" points="29.8369,-205.062 32.4759,-215.322 36.8117,-205.655 29.8369,-205.062"/>
</g>
<!-- Node14 -->
<g id="node14" class="node"><title>Node14</title>
<g id="a_node14"><a xlink:href="precode_8c_ac563a7861b8d34580909af77f063ea66.html#ac563a7861b8d34580909af77f063ea66" target="_top" xlink:title="precode_matrix_encode">
<polygon fill="none" stroke="black" points="279.5,-139.408 279.5,-158.408 399.5,-158.408 399.5,-139.408 279.5,-139.408"/>
<text text-anchor="middle" x="339.5" y="-146.408" font-family="Helvetica,sans-Serif" font-size="10.00">precode_matrix_encode</text>
</a>
</g>
</g>
<!-- Node1&#45;&gt;Node14 -->
<g id="edge17" class="edge"><title>Node1&#45;&gt;Node14</title>
<path fill="none" stroke="midnightblue" d="M56.9744,-210.291C69.0236,-203.8 83.8961,-196.586 98,-191.908 157.985,-172.011 229.616,-160.708 279.015,-154.736"/>
<polygon fill="midnightblue" stroke="midnightblue" points="55.0306,-207.367 47.9851,-215.28 58.4273,-213.488 55.0306,-207.367"/>
</g>
<!-- Node15 -->
<g id="node15" class="node"><title>Node15</title>
<g id="a_node15"><a xlink:href="precode_8c_a85c0aa4f7900eccf336228d43b7c133c.html#a85c0aa4f7900eccf336228d43b7c133c" target="_top" xlink:title="precode_matrix_gen">
<polygon fill="none" stroke="black" points="470.5,-234.408 470.5,-253.408 574.5,-253.408 574.5,-234.408 470.5,-234.408"/>
<text text-anchor="middle" x="522.5" y="-241.408" font-family="Helvetica,sans-Serif" font-size="10.00">precode_matrix_gen</text>
</a>
</g>
</g>
<!-- Node1&#45;&gt;Node15 -->
<g id="edge20" class="edge"><title>Node1&#45;&gt;Node15</title>
<path fill="none" stroke="midnightblue" d="M68.2163,-237.305C77.7861,-240.035 88.1856,-242.524 98,-243.908 231.23,-262.703 390.392,-254.627 470.331,-248.493"/>
<polygon fill="midnightblue" stroke="midnightblue" points="69.1877,-233.942 58.6032,-234.409 67.1687,-240.645 69.1877,-233.942"/>
</g>
<!-- Node16 -->
<g id="node16" class="node"><title>Node16</title>
<g id="a_node16"><a xlink:href="precode_8c_a64e2c5739177d2991dea9ab54f2469b6.html#a64e2c5739177d2991dea9ab54f2469b6" target="_top" xlink:title="precode_matrix_init_HDPC">
<polygon fill="none" stroke="black" points="271.5,-313.408 271.5,-332.408 407.5,-332.408 407.5,-313.408 271.5,-313.408"/>
<text text-anchor="middle" x="339.5" y="-320.408" font-family="Helvetica,sans-Serif" font-size="10.00">precode_matrix_init_HDPC</text>
</a>
</g>
</g>
<!-- Node1&#45;&gt;Node16 -->
<g id="edge23" class="edge"><title>Node1&#45;&gt;Node16</title>
<path fill="none" stroke="midnightblue" d="M34.3239,-244.754C39.3446,-277.479 54.5164,-341.924 98,-369.908 172.234,-417.681 284.133,-357.131 323.868,-332.474"/>
<polygon fill="midnightblue" stroke="midnightblue" points="37.7602,-244.048 32.9416,-234.613 30.8243,-244.994 37.7602,-244.048"/>
</g>
<!-- Node17 -->
<g id="node17" class="node"><title>Node17</title>
<g id="a_node17"><a xlink:href="precode_8c_a88ec15cf62d897ab1df189175429c7f8.html#a88ec15cf62d897ab1df189175429c7f8" target="_top" xlink:title="precode_matrix_make\l_GAMMA">
<polygon fill="none" stroke="black" points="107.5,-329.908 107.5,-359.908 220.5,-359.908 220.5,-329.908 107.5,-329.908"/>
<text text-anchor="start" x="115.5" y="-347.908" font-family="Helvetica,sans-Serif" font-size="10.00">precode_matrix_make</text>
<text text-anchor="middle" x="164" y="-336.908" font-family="Helvetica,sans-Serif" font-size="10.00">_GAMMA</text>
</a>
</g>
</g>
<!-- Node1&#45;&gt;Node17 -->
<g id="edge27" class="edge"><title>Node1&#45;&gt;Node17</title>
<path fill="none" stroke="midnightblue" d="M40.8725,-243.971C51.6363,-265.199 71.6609,-299.238 98,-319.908 102.851,-323.715 108.349,-326.997 114.043,-329.813"/>
<polygon fill="midnightblue" stroke="midnightblue" points="43.8764,-242.145 36.3454,-234.693 37.5855,-245.215 43.8764,-242.145"/>
</g>
<!-- Node18 -->
<g id="node18" class="node"><title>Node18</title>
<g id="a_node18"><a xlink:href="precode_8c_a291ab32ffee6435673b4693d8c74952f.html#a291ab32ffee6435673b4693d8c74952f" target="_top" xlink:title="precode_matrix_make_MT">
<polygon fill="none" stroke="black" points="98,-291.408 98,-310.408 230,-310.408 230,-291.408 98,-291.408"/>
<text text-anchor="middle" x="164" y="-298.408" font-family="Helvetica,sans-Serif" font-size="10.00">precode_matrix_make_MT</text>
</a>
</g>
</g>
<!-- Node1&#45;&gt;Node18 -->
<g id="edge29" class="edge"><title>Node1&#45;&gt;Node18</title>
<path fill="none" stroke="midnightblue" d="M49.5466,-241.247C62.2543,-252.427 80.2511,-266.968 98,-276.908 108.286,-282.668 120.222,-287.535 131.038,-291.349"/>
<polygon fill="midnightblue" stroke="midnightblue" points="51.7893,-238.557 42.0153,-234.468 47.1062,-243.76 51.7893,-238.557"/>
</g>
<!-- Node2&#45;&gt;Node3 -->
<g id="edge2" class="edge"><title>Node2&#45;&gt;Node3</title>
<path fill="none" stroke="midnightblue" d="M216.613,-216.579C236.407,-213.384 259.137,-209.716 279.566,-206.419"/>
<polygon fill="midnightblue" stroke="midnightblue" points="215.872,-213.153 206.558,-218.201 216.987,-220.063 215.872,-213.153"/>
</g>
<!-- Node3&#45;&gt;Node4 -->
<g id="edge3" class="edge"><title>Node3&#45;&gt;Node4</title>
<path fill="none" stroke="midnightblue" d="M423.783,-197.844C487.259,-198.557 573.41,-199.525 631.771,-200.181"/>
<polygon fill="midnightblue" stroke="midnightblue" points="423.44,-194.34 413.401,-197.727 423.361,-201.339 423.44,-194.34"/>
</g>
<!-- Node3&#45;&gt;Node9 -->
<g id="edge9" class="edge"><title>Node3&#45;&gt;Node9</title>
<path fill="none" stroke="midnightblue" d="M374.459,-183.617C386.652,-178.768 400.48,-173.18 413,-167.908 443.564,-155.04 478.598,-139.372 500.392,-129.516"/>
<polygon fill="midnightblue" stroke="midnightblue" points="373.097,-180.392 365.087,-187.327 375.674,-186.9 373.097,-180.392"/>
</g>
<!-- Node5 -->
<g id="node5" class="node"><title>Node5</title>
<g id="a_node5"><a xlink:href="encode_8c_a3c04138a5bfe5d72780bb7e82a18e627.html#a3c04138a5bfe5d72780bb7e82a18e627" target="_top" xlink:title="main">
<polygon fill="none" stroke="black" points="1146,-172.408 1146,-191.408 1184,-191.408 1184,-172.408 1146,-172.408"/>
<text text-anchor="middle" x="1165" y="-179.408" font-family="Helvetica,sans-Serif" font-size="10.00">main</text>
</a>
</g>
</g>
<!-- Node4&#45;&gt;Node5 -->
<g id="edge4" class="edge"><title>Node4&#45;&gt;Node5</title>
<path fill="none" stroke="midnightblue" d="M773.304,-197.855C883.794,-193.345 1084.19,-185.166 1145.61,-182.659"/>
<polygon fill="midnightblue" stroke="midnightblue" points="773.075,-194.361 763.226,-198.266 773.36,-201.355 773.075,-194.361"/>
</g>
<!-- Node6 -->
<g id="node6" class="node"><title>Node6</title>
<g id="a_node6"><a xlink:href="nanorq_8c_a956615eb4ea3ce34369951295e93f708.html#a956615eb4ea3ce34369951295e93f708" target="_top" xlink:title="nanorq_encode">
<polygon fill="none" stroke="black" points="813,-153.408 813,-172.408 896,-172.408 896,-153.408 813,-153.408"/>
<text text-anchor="middle" x="854.5" y="-160.408" font-family="Helvetica,sans-Serif" font-size="10.00">nanorq_encode</text>
</a>
</g>
</g>
<!-- Node4&#45;&gt;Node6 -->
<g id="edge5" class="edge"><title>Node4&#45;&gt;Node6</title>
<path fill="none" stroke="midnightblue" d="M747.611,-188.868C769.265,-183.559 794.35,-177.409 814.668,-172.428"/>
<polygon fill="midnightblue" stroke="midnightblue" points="746.492,-185.539 737.613,-191.319 748.159,-192.337 746.492,-185.539"/>
</g>
<!-- Node7 -->
<g id="node7" class="node"><title>Node7</title>
<g id="a_node7"><a xlink:href="encode_8c_a0993cb61d7e4c1b1a1606d159f5b1410.html#a0993cb61d7e4c1b1a1606d159f5b1410" target="_top" xlink:title="dump_esi">
<polygon fill="none" stroke="black" points="946,-153.408 946,-172.408 1005,-172.408 1005,-153.408 946,-153.408"/>
<text text-anchor="middle" x="975.5" y="-160.408" font-family="Helvetica,sans-Serif" font-size="10.00">dump_esi</text>
</a>
</g>
</g>
<!-- Node6&#45;&gt;Node7 -->
<g id="edge6" class="edge"><title>Node6&#45;&gt;Node7</title>
<path fill="none" stroke="midnightblue" d="M906.263,-162.908C919.744,-162.908 933.838,-162.908 945.692,-162.908"/>
<polygon fill="midnightblue" stroke="midnightblue" points="906.12,-159.408 896.12,-162.908 906.12,-166.408 906.12,-159.408"/>
</g>
<!-- Node8 -->
<g id="node8" class="node"><title>Node8</title>
<g id="a_node8"><a xlink:href="encode_8c_ae7f8bbf4dcea92f802d2521fa0264f93.html#ae7f8bbf4dcea92f802d2521fa0264f93" target="_top" xlink:title="dump_block">
<polygon fill="none" stroke="black" points="1041,-153.408 1041,-172.408 1110,-172.408 1110,-153.408 1041,-153.408"/>
<text text-anchor="middle" x="1075.5" y="-160.408" font-family="Helvetica,sans-Serif" font-size="10.00">dump_block</text>
</a>
</g>
</g>
<!-- Node7&#45;&gt;Node8 -->
<g id="edge7" class="edge"><title>Node7&#45;&gt;Node8</title>
<path fill="none" stroke="midnightblue" d="M1015.17,-162.908C1023.65,-162.908 1032.57,-162.908 1040.84,-162.908"/>
<polygon fill="midnightblue" stroke="midnightblue" points="1015.11,-159.408 1005.11,-162.908 1015.11,-166.408 1015.11,-159.408"/>
</g>
<!-- Node8&#45;&gt;Node5 -->
<g id="edge8" class="edge"><title>Node8&#45;&gt;Node5</title>
<path fill="none" stroke="midnightblue" d="M1119.92,-172.336C1129.06,-174.321 1138.22,-176.31 1145.8,-177.957"/>
<polygon fill="midnightblue" stroke="midnightblue" points="1120.59,-168.901 1110.08,-170.2 1119.11,-175.742 1120.59,-168.901"/>
</g>
<!-- Node9&#45;&gt;Node10 -->
<g id="edge10" class="edge"><title>Node9&#45;&gt;Node10</title>
<path fill="none" stroke="midnightblue" d="M606.19,-117.996C616.744,-117.752 627.373,-117.506 637.448,-117.273"/>
<polygon fill="midnightblue" stroke="midnightblue" points="606.032,-114.499 596.116,-118.229 606.194,-121.497 606.032,-114.499"/>
</g>
<!-- Node11 -->
<g id="node11" class="node"><title>Node11</title>
<g id="a_node11"><a xlink:href="nanorq_8c_aa1dcf83669e76931be0e6e7a1f02c185.html#aa1dcf83669e76931be0e6e7a1f02c185" target="_top" xlink:title="nanorq_decode_block">
<polygon fill="none" stroke="black" points="799,-102.408 799,-121.408 910,-121.408 910,-102.408 799,-102.408"/>
<text text-anchor="middle" x="854.5" y="-109.408" font-family="Helvetica,sans-Serif" font-size="10.00">nanorq_decode_block</text>
</a>
</g>
</g>
<!-- Node10&#45;&gt;Node11 -->
<g id="edge11" class="edge"><title>Node10&#45;&gt;Node11</title>
<path fill="none" stroke="midnightblue" d="M767.54,-114.126C778.064,-113.855 788.798,-113.578 798.954,-113.316"/>
<polygon fill="midnightblue" stroke="midnightblue" points="767.447,-110.628 757.541,-114.384 767.628,-117.625 767.447,-110.628"/>
</g>
<!-- Node12 -->
<g id="node12" class="node"><title>Node12</title>
<g id="a_node12"><a xlink:href="decode_8c_a3c04138a5bfe5d72780bb7e82a18e627.html#a3c04138a5bfe5d72780bb7e82a18e627" target="_top" xlink:title="main">
<polygon fill="none" stroke="black" points="956.5,-70.4081 956.5,-89.4081 994.5,-89.4081 994.5,-70.4081 956.5,-70.4081"/>
<text text-anchor="middle" x="975.5" y="-77.4081" font-family="Helvetica,sans-Serif" font-size="10.00">main</text>
</a>
</g>
</g>
<!-- Node11&#45;&gt;Node12 -->
<g id="edge12" class="edge"><title>Node11&#45;&gt;Node12</title>
<path fill="none" stroke="midnightblue" d="M900.75,-99.7401C920.081,-94.5419 941.544,-88.7702 956.308,-84.8"/>
<polygon fill="midnightblue" stroke="midnightblue" points="899.63,-96.4168 890.882,-102.394 901.448,-103.177 899.63,-96.4168"/>
</g>
<!-- Node13&#45;&gt;Node12 -->
<g id="edge14" class="edge"><title>Node13&#45;&gt;Node12</title>
<path fill="none" stroke="midnightblue" d="M586.194,-35.9976C690.454,-47.7876 894.159,-70.823 956.159,-77.8341"/>
<polygon fill="midnightblue" stroke="midnightblue" points="586.448,-32.5041 576.118,-34.8582 585.661,-39.4598 586.448,-32.5041"/>
</g>
<!-- Node14&#45;&gt;Node6 -->
<g id="edge18" class="edge"><title>Node14&#45;&gt;Node6</title>
<path fill="none" stroke="midnightblue" d="M409.8,-150.799C518.469,-153.765 725.564,-159.417 812.971,-161.802"/>
<polygon fill="midnightblue" stroke="midnightblue" points="409.69,-147.295 399.598,-150.521 409.499,-154.292 409.69,-147.295"/>
</g>
<!-- Node14&#45;&gt;Node9 -->
<g id="edge19" class="edge"><title>Node14&#45;&gt;Node9</title>
<path fill="none" stroke="midnightblue" d="M409.778,-137.808C427.03,-135.044 445.372,-132.105 462.101,-129.425"/>
<polygon fill="midnightblue" stroke="midnightblue" points="409.086,-134.374 399.766,-139.412 410.194,-141.286 409.086,-134.374"/>
</g>
<!-- Node15&#45;&gt;Node4 -->
<g id="edge21" class="edge"><title>Node15&#45;&gt;Node4</title>
<path fill="none" stroke="midnightblue" d="M571.645,-231.941C598.972,-225.149 632.703,-216.765 658.213,-210.424"/>
<polygon fill="midnightblue" stroke="midnightblue" points="570.755,-228.556 561.894,-234.365 572.443,-235.349 570.755,-228.556"/>
</g>
<!-- Node15&#45;&gt;Node10 -->
<g id="edge22" class="edge"><title>Node15&#45;&gt;Node10</title>
<path fill="none" stroke="midnightblue" d="M544.894,-228.079C581.157,-201.248 653.644,-147.616 683.346,-125.641"/>
<polygon fill="midnightblue" stroke="midnightblue" points="542.46,-225.526 536.503,-234.287 546.624,-231.153 542.46,-225.526"/>
</g>
<!-- Node16&#45;&gt;Node15 -->
<g id="edge24" class="edge"><title>Node16&#45;&gt;Node15</title>
<path fill="none" stroke="midnightblue" d="M371.521,-309.369C407.997,-293.448 467.61,-267.429 499.59,-253.471"/>
<polygon fill="midnightblue" stroke="midnightblue" points="370.098,-306.171 362.333,-313.379 372.898,-312.586 370.098,-306.171"/>
</g>
<!-- Node17&#45;&gt;Node16 -->
<g id="edge28" class="edge"><title>Node17&#45;&gt;Node16</title>
<path fill="none" stroke="midnightblue" d="M230.81,-336.563C244.037,-334.886 257.954,-333.121 271.23,-331.438"/>
<polygon fill="midnightblue" stroke="midnightblue" points="230.332,-333.096 220.852,-337.826 231.212,-340.04 230.332,-333.096"/>
</g>
<!-- Node18&#45;&gt;Node16 -->
<g id="edge30" class="edge"><title>Node18&#45;&gt;Node16</title>
<path fill="none" stroke="midnightblue" d="M240.312,-310.458C250.621,-311.765 261.149,-313.1 271.3,-314.387"/>
<polygon fill="midnightblue" stroke="midnightblue" points="240.459,-306.948 230.099,-309.163 239.579,-313.893 240.459,-306.948"/>
</g>
</g>
</svg>
        <g id="navigator" transform="translate(0 0)" fill="#404254">
                <rect fill="#f2f5e9" fill-opacity="0.5" stroke="#606060" stroke-width=".5" x="0" y="0" width="60" height="60"/>
                <use id="zoomplus" xlink:href="#zoomPlus" x="17" y="9" onmousedown="handleZoom(evt,'in')"/>
                <use id="zoomminus" xlink:href="#zoomMin" x="42" y="9" onmousedown="handleZoom(evt,'out')"/>
                <use id="reset" xlink:href="#resetDef" x="30" y="36" onmousedown="handleReset()"/>
                <g id="arrowUp" xlink:href="#dirArrow" transform="translate(30 24)" onmousedown="handlePan(0,-1)">
                  <use xlink:href="#rim" fill="#404040">
                        <set attributeName="fill" to="#808080" begin="arrowUp.mouseover" end="arrowUp.mouseout"/>
                  </use>
                  <path fill="none" stroke="white" stroke-width="1.5" d="M0,-3.0v7 M-2.5,-0.5L0,-3.0L2.5,-0.5"/>
                </g>
                <g id="arrowRight" xlink:href="#dirArrow" transform="rotate(90) translate(36 -43)" onmousedown="handlePan(1,0)">
                  <use xlink:href="#rim" fill="#404040">
                        <set attributeName="fill" to="#808080" begin="arrowRight.mouseover" end="arrowRight.mouseout"/>
                  </use>
                  <path fill="none" stroke="white" stroke-width="1.5" d="M0,-3.0v7 M-2.5,-0.5L0,-3.0L2.5,-0.5"/>
                </g>
                <g id="arrowDown" xlink:href="#dirArrow" transform="rotate(180) translate(-30 -48)" onmousedown="handlePan(0,1)">
                  <use xlink:href="#rim" fill="#404040">
                        <set attributeName="fill" to="#808080" begin="arrowDown.mouseover" end="arrowDown.mouseout"/>
                  </use>
                  <path fill="none" stroke="white" stroke-width="1.5" d="M0,-3.0v7 M-2.5,-0.5L0,-3.0L2.5,-0.5"/>
                </g>
                <g id="arrowLeft" xlink:href="#dirArrow" transform="rotate(270) translate(-36 17)" onmousedown="handlePan(-1,0)">
                  <use xlink:href="#rim" fill="#404040">
                        <set attributeName="fill" to="#808080" begin="arrowLeft.mouseover" end="arrowLeft.mouseout"/>
                  </use>
                  <path fill="none" stroke="white" stroke-width="1.5" d="M0,-3.0v7 M-2.5,-0.5L0,-3.0L2.5,-0.5"/>
                </g>
        </g>
        <svg viewBox="0 0 15 15" width="100%" height="30px" preserveAspectRatio="xMaxYMin meet">
         <g id="arrow_out" transform="scale(0.3 0.3)">
          <a xlink:href="octmat_8h_a0db07e8a815b999f9837c74c31213cdb_a0db07e8a815b999f9837c74c31213cdb_icgraph_org.svg" target="_base">
           <rect id="button" ry="5" rx="5" y="6" x="6" height="38" width="38"
                fill="#f2f5e9" fill-opacity="0.5" stroke="#606060" stroke-width="1.0"/>
           <path id="arrow"
             d="M 11.500037,31.436501 C 11.940474,20.09759 22.043105,11.32322 32.158766,21.979434 L 37.068811,17.246167 C 37.068811,17.246167 37.088388,32 37.088388,32 L 22.160133,31.978069 C 22.160133,31.978069 26.997745,27.140456 26.997745,27.140456 C 18.528582,18.264221 13.291696,25.230495 11.500037,31.436501 z"
             style="fill:#404040;"/>
          </a>
         </g>
        </svg>
</svg>
