<?xml version="1.0" encoding="UTF-8" standalone="no"?>
<!DOCTYPE svg PUBLIC "-//W3C//DTD SVG 1.1//EN"
 "http://www.w3.org/Graphics/SVG/1.1/DTD/svg11.dtd">
<!-- Generated by graphviz version 2.38.0 (20140413.2041)
 -->
<!-- Title: octtables.h Pages: 1 -->
<svg width="243pt" height="84pt"
 viewBox="0.00 0.00 242.50 84.00" xmlns="http://www.w3.org/2000/svg" xmlns:xlink="http://www.w3.org/1999/xlink">
<g id="graph0" class="graph" transform="scale(1 1) rotate(0) translate(4 80)">
<title>octtables.h</title>
<!-- Node1 -->
<g id="node1" class="node"><title>Node1</title>
<polygon fill="#bfbfbf" stroke="black" points="97.5,-56.5 97.5,-75.5 162.5,-75.5 162.5,-56.5 97.5,-56.5"/>
<text text-anchor="middle" x="130" y="-63.5" font-family="Helvetica,sans-Serif" font-size="10.00">octtables.h</text>
</g>
<!-- Node2 -->
<g id="node2" class="node"><title>Node2</title>
<g id="a_node2"><a xlink:href="oblas__classic_8c.html" target="_top" xlink:title="oblas_classic.c">
<polygon fill="none" stroke="black" points="0,-0.5 0,-19.5 84,-19.5 84,-0.5 0,-0.5"/>
<text text-anchor="middle" x="42" y="-7.5" font-family="Helvetica,sans-Serif" font-size="10.00">oblas_classic.c</text>
</a>
</g>
</g>
<!-- Node1&#45;&gt;Node2 -->
<g id="edge1" class="edge"><title>Node1&#45;&gt;Node2</title>
<path fill="none" stroke="midnightblue" d="M107.023,-50.9005C90.8866,-40.9986 69.8187,-28.0705 56.1036,-19.6545"/>
<polygon fill="midnightblue" stroke="midnightblue" points="105.507,-54.0769 115.861,-56.324 109.169,-48.1106 105.507,-54.0769"/>
</g>
<!-- Node3 -->
<g id="node3" class="node"><title>Node3</title>
<g id="a_node3"><a xlink:href="octmat_8c.html" target="_top" xlink:title="octmat.c">
<polygon fill="none" stroke="black" points="102.5,-0.5 102.5,-19.5 157.5,-19.5 157.5,-0.5 102.5,-0.5"/>
<text text-anchor="middle" x="130" y="-7.5" font-family="Helvetica,sans-Serif" font-size="10.00">octmat.c</text>
</a>
</g>
</g>
<!-- Node1&#45;&gt;Node3 -->
<g id="edge2" class="edge"><title>Node1&#45;&gt;Node3</title>
<path fill="none" stroke="midnightblue" d="M130,-45.8045C130,-36.9102 130,-26.7798 130,-19.7511"/>
<polygon fill="midnightblue" stroke="midnightblue" points="126.5,-46.083 130,-56.083 133.5,-46.083 126.5,-46.083"/>
</g>
<!-- Node4 -->
<g id="node4" class="node"><title>Node4</title>
<g id="a_node4"><a xlink:href="precode_8c.html" target="_top" xlink:title="precode.c">
<polygon fill="none" stroke="black" points="175.5,-0.5 175.5,-19.5 234.5,-19.5 234.5,-0.5 175.5,-0.5"/>
<text text-anchor="middle" x="205" y="-7.5" font-family="Helvetica,sans-Serif" font-size="10.00">precode.c</text>
</a>
</g>
</g>
<!-- Node1&#45;&gt;Node4 -->
<g id="edge3" class="edge"><title>Node1&#45;&gt;Node4</title>
<path fill="none" stroke="midnightblue" d="M150.305,-50.3804C163.861,-40.6204 181.242,-28.1057 192.731,-19.8339"/>
<polygon fill="midnightblue" stroke="midnightblue" points="148.12,-47.6405 142.05,-56.324 152.21,-53.3213 148.12,-47.6405"/>
</g>
</g>
</svg>
