<?xml version="1.0" encoding="UTF-8" standalone="no"?>
<!DOCTYPE svg PUBLIC "-//W3C//DTD SVG 1.1//EN"
 "http://www.w3.org/Graphics/SVG/1.1/DTD/svg11.dtd">
<!-- Generated by graphviz version 2.38.0 (20140413.2041)
 -->
<!-- Title: params.c Pages: 1 -->
<svg width="663pt" height="84pt"
 viewBox="0.00 0.00 663.00 84.00" xmlns="http://www.w3.org/2000/svg" xmlns:xlink="http://www.w3.org/1999/xlink">
<g id="graph0" class="graph" transform="scale(1 1) rotate(0) translate(4 80)">
<title>params.c</title>
<!-- Node0 -->
<g id="node1" class="node"><title>Node0</title>
<polygon fill="#bfbfbf" stroke="black" points="300.5,-56.5 300.5,-75.5 357.5,-75.5 357.5,-56.5 300.5,-56.5"/>
<text text-anchor="middle" x="329" y="-63.5" font-family="Helvetica,sans-Serif" font-size="10.00">params.c</text>
</g>
<!-- Node1 -->
<g id="node2" class="node"><title>Node1</title>
<polygon fill="none" stroke="#bfbfbf" points="0,-0.5 0,-19.5 56,-19.5 56,-0.5 0,-0.5"/>
<text text-anchor="middle" x="28" y="-7.5" font-family="Helvetica,sans-Serif" font-size="10.00">stdbool.h</text>
</g>
<!-- Node0&#45;&gt;Node1 -->
<g id="edge1" class="edge"><title>Node0&#45;&gt;Node1</title>
<path fill="none" stroke="midnightblue" d="M300.359,-60.7885C253.474,-53.75 157.226,-38.6977 66.1665,-20.1268"/>
<polygon fill="midnightblue" stroke="midnightblue" points="66.7362,-16.6708 56.2359,-18.083 65.3251,-23.5271 66.7362,-16.6708"/>
</g>
<!-- Node2 -->
<g id="node3" class="node"><title>Node2</title>
<polygon fill="none" stroke="#bfbfbf" points="74,-0.5 74,-19.5 120,-19.5 120,-0.5 74,-0.5"/>
<text text-anchor="middle" x="97" y="-7.5" font-family="Helvetica,sans-Serif" font-size="10.00">stdio.h</text>
</g>
<!-- Node0&#45;&gt;Node2 -->
<g id="edge2" class="edge"><title>Node0&#45;&gt;Node2</title>
<path fill="none" stroke="midnightblue" d="M300.404,-59.063C263.31,-51.2536 196.382,-36.7979 129.844,-20.1124"/>
<polygon fill="midnightblue" stroke="midnightblue" points="130.586,-16.69 120.033,-17.635 128.872,-23.4769 130.586,-16.69"/>
</g>
<!-- Node3 -->
<g id="node4" class="node"><title>Node3</title>
<polygon fill="none" stroke="#bfbfbf" points="138,-0.5 138,-19.5 186,-19.5 186,-0.5 138,-0.5"/>
<text text-anchor="middle" x="162" y="-7.5" font-family="Helvetica,sans-Serif" font-size="10.00">stdlib.h</text>
</g>
<!-- Node0&#45;&gt;Node3 -->
<g id="edge3" class="edge"><title>Node0&#45;&gt;Node3</title>
<path fill="none" stroke="midnightblue" d="M302.538,-56.4435C273.658,-47.1049 227.339,-32.1276 195.836,-21.9409"/>
<polygon fill="midnightblue" stroke="midnightblue" points="196.761,-18.5616 186.169,-18.8151 194.607,-25.2221 196.761,-18.5616"/>
</g>
<!-- Node4 -->
<g id="node5" class="node"><title>Node4</title>
<polygon fill="none" stroke="#bfbfbf" points="204.5,-0.5 204.5,-19.5 253.5,-19.5 253.5,-0.5 204.5,-0.5"/>
<text text-anchor="middle" x="229" y="-7.5" font-family="Helvetica,sans-Serif" font-size="10.00">stdint.h</text>
</g>
<!-- Node0&#45;&gt;Node4 -->
<g id="edge4" class="edge"><title>Node0&#45;&gt;Node4</title>
<path fill="none" stroke="midnightblue" d="M312.933,-56.324C297.042,-47.7428 272.493,-34.486 254.042,-24.5224"/>
<polygon fill="midnightblue" stroke="midnightblue" points="255.489,-21.3264 245.027,-19.6545 252.163,-27.4857 255.489,-21.3264"/>
</g>
<!-- Node5 -->
<g id="node6" class="node"><title>Node5</title>
<g id="a_node6"><a xlink:href="kvec_8h.html" target="_top" xlink:title="kvec.h">
<polygon fill="none" stroke="black" points="272,-0.5 272,-19.5 318,-19.5 318,-0.5 272,-0.5"/>
<text text-anchor="middle" x="295" y="-7.5" font-family="Helvetica,sans-Serif" font-size="10.00">kvec.h</text>
</a>
</g>
</g>
<!-- Node0&#45;&gt;Node5 -->
<g id="edge5" class="edge"><title>Node0&#45;&gt;Node5</title>
<path fill="none" stroke="midnightblue" d="M323.386,-56.083C318.633,-48.5341 311.682,-37.4948 305.848,-28.2298"/>
<polygon fill="midnightblue" stroke="midnightblue" points="308.8,-26.3486 300.51,-19.7511 302.876,-30.0783 308.8,-26.3486"/>
</g>
<!-- Node6 -->
<g id="node7" class="node"><title>Node6</title>
<g id="a_node7"><a xlink:href="octmat_8h.html" target="_top" xlink:title="octmat.h">
<polygon fill="none" stroke="black" points="336.5,-0.5 336.5,-19.5 391.5,-19.5 391.5,-0.5 336.5,-0.5"/>
<text text-anchor="middle" x="364" y="-7.5" font-family="Helvetica,sans-Serif" font-size="10.00">octmat.h</text>
</a>
</g>
</g>
<!-- Node0&#45;&gt;Node6 -->
<g id="edge6" class="edge"><title>Node0&#45;&gt;Node6</title>
<path fill="none" stroke="midnightblue" d="M334.78,-56.083C339.672,-48.5341 346.827,-37.4948 352.833,-28.2298"/>
<polygon fill="midnightblue" stroke="midnightblue" points="355.826,-30.0463 358.328,-19.7511 349.952,-26.239 355.826,-30.0463"/>
</g>
<!-- Node7 -->
<g id="node8" class="node"><title>Node7</title>
<g id="a_node8"><a xlink:href="util_8h.html" target="_top" xlink:title="util.h">
<polygon fill="none" stroke="black" points="410,-0.5 410,-19.5 448,-19.5 448,-0.5 410,-0.5"/>
<text text-anchor="middle" x="429" y="-7.5" font-family="Helvetica,sans-Serif" font-size="10.00">util.h</text>
</a>
</g>
</g>
<!-- Node0&#45;&gt;Node7 -->
<g id="edge7" class="edge"><title>Node0&#45;&gt;Node7</title>
<path fill="none" stroke="midnightblue" d="M345.067,-56.324C360.958,-47.7428 385.507,-34.486 403.958,-24.5224"/>
<polygon fill="midnightblue" stroke="midnightblue" points="405.837,-27.4857 412.973,-19.6545 402.511,-21.3264 405.837,-27.4857"/>
</g>
<!-- Node8 -->
<g id="node9" class="node"><title>Node8</title>
<g id="a_node9"><a xlink:href="params_8h.html" target="_top" xlink:title="params.h">
<polygon fill="none" stroke="black" points="466.5,-0.5 466.5,-19.5 523.5,-19.5 523.5,-0.5 466.5,-0.5"/>
<text text-anchor="middle" x="495" y="-7.5" font-family="Helvetica,sans-Serif" font-size="10.00">params.h</text>
</a>
</g>
</g>
<!-- Node0&#45;&gt;Node8 -->
<g id="edge8" class="edge"><title>Node0&#45;&gt;Node8</title>
<path fill="none" stroke="midnightblue" d="M355.303,-56.4435C383.351,-47.3196 427.944,-32.8133 459.184,-22.6509"/>
<polygon fill="midnightblue" stroke="midnightblue" points="460.393,-25.9383 468.82,-19.5164 458.228,-19.2816 460.393,-25.9383"/>
</g>
<!-- Node9 -->
<g id="node10" class="node"><title>Node9</title>
<g id="a_node10"><a xlink:href="table2_8h.html" target="_top" xlink:title="table2.h">
<polygon fill="none" stroke="black" points="541.5,-0.5 541.5,-19.5 592.5,-19.5 592.5,-0.5 541.5,-0.5"/>
<text text-anchor="middle" x="567" y="-7.5" font-family="Helvetica,sans-Serif" font-size="10.00">table2.h</text>
</a>
</g>
</g>
<!-- Node0&#45;&gt;Node9 -->
<g id="edge9" class="edge"><title>Node0&#45;&gt;Node9</title>
<path fill="none" stroke="midnightblue" d="M357.803,-59.0413C395.536,-51.1498 463.983,-36.5412 531.464,-20.3032"/>
<polygon fill="midnightblue" stroke="midnightblue" points="532.513,-23.6504 541.409,-17.8962 530.867,-16.8468 532.513,-23.6504"/>
</g>
<!-- Node10 -->
<g id="node11" class="node"><title>Node10</title>
<g id="a_node11"><a xlink:href="rand_8h.html" target="_top" xlink:title="rand.h">
<polygon fill="none" stroke="black" points="611,-0.5 611,-19.5 655,-19.5 655,-0.5 611,-0.5"/>
<text text-anchor="middle" x="633" y="-7.5" font-family="Helvetica,sans-Serif" font-size="10.00">rand.h</text>
</a>
</g>
</g>
<!-- Node0&#45;&gt;Node10 -->
<g id="edge10" class="edge"><title>Node0&#45;&gt;Node10</title>
<path fill="none" stroke="midnightblue" d="M357.513,-61.4401C405.712,-55.1779 506.495,-41.0326 600.752,-20.0614"/>
<polygon fill="midnightblue" stroke="midnightblue" points="601.747,-23.4248 610.732,-17.8093 600.207,-16.5965 601.747,-23.4248"/>
</g>
</g>
</svg>
