<?xml version="1.0" encoding="UTF-8" standalone="no"?>
<!DOCTYPE svg PUBLIC "-//W3C//DTD SVG 1.1//EN"
 "http://www.w3.org/Graphics/SVG/1.1/DTD/svg11.dtd">
<!-- Generated by graphviz version 2.38.0 (20140413.2041)
 -->
<!-- Title: decode_phase3 Pages: 1 -->
<!--zoomable 85 -->
<svg id="main" version="1.1" xmlns="http://www.w3.org/2000/svg" xmlns:xlink="http://www.w3.org/1999/xlink" xml:space="preserve" onload="init(evt)">
<style type="text/css"><![CDATA[
.edge:hover path { stroke: red; }
.edge:hover polygon { stroke: red; fill: red; }
]]></style>
<script type="text/javascript"><![CDATA[
var edges = document.getElementsByTagName('g');
if (edges && edges.length) {
  for (var i=0;i<edges.length;i++) {
    if (edges[i].id.substr(0,4)=='edge') {
      edges[i].setAttribute('class','edge');
    }
  }
}
]]></script>
        <defs>
                <circle id="rim" cx="0" cy="0" r="7"/>
                <circle id="rim2" cx="0" cy="0" r="3.5"/>
                <g id="zoomPlus">
                        <use xlink:href="#rim" fill="#404040">
                                <set attributeName="fill" to="#808080" begin="zoomplus.mouseover" end="zoomplus.mouseout"/>
                        </use>
                        <path d="M-4,0h8M0,-4v8" fill="none" stroke="white" stroke-width="1.5" pointer-events="none"/>
                </g>
                <g id="zoomMin">
                        <use xlink:href="#rim" fill="#404040">
                                <set attributeName="fill" to="#808080" begin="zoomminus.mouseover" end="zoomminus.mouseout"/>
                        </use>
                        <path d="M-4,0h8" fill="none" stroke="white" stroke-width="1.5" pointer-events="none"/>
                </g>
                <g id="dirArrow">
                        <path fill="none" stroke="white" stroke-width="1.5" d="M0,-3.0v7 M-2.5,-0.5L0,-3.0L2.5,-0.5"/>
                </g>
               <g id="resetDef">
                       <use xlink:href="#rim2" fill="#404040">
                               <set attributeName="fill" to="#808080" begin="reset.mouseover" end="reset.mouseout"/>
                       </use>
               </g>
        </defs>

<script type="text/javascript">
var viewWidth = 941;
var viewHeight = 85;
var sectionId = 'dynsection-1';
</script>
<script xlink:href="svgpan.js"/>
<svg id="graph" class="graph">
<g id="viewport">
<title>decode_phase3</title>
<!-- Node5 -->
<g id="node1" class="node"><title>Node5</title>
<polygon fill="#bfbfbf" stroke="black" points="0,-19.5 0,-38.5 85,-38.5 85,-19.5 0,-19.5"/>
<text text-anchor="middle" x="42.5" y="-26.5" font-family="Helvetica,sans-Serif" font-size="10.00">decode_phase3</text>
</g>
<!-- Node6 -->
<g id="node2" class="node"><title>Node6</title>
<g id="a_node2"><a xlink:href="precode_8c_a262ba8efa6b500c1e7a3cb0451245291.html#a262ba8efa6b500c1e7a3cb0451245291" target="_top" xlink:title="precode_matrix_intermediate1">
<polygon fill="none" stroke="black" points="121,-19.5 121,-38.5 268,-38.5 268,-19.5 121,-19.5"/>
<text text-anchor="middle" x="194.5" y="-26.5" font-family="Helvetica,sans-Serif" font-size="10.00">precode_matrix_intermediate1</text>
</a>
</g>
</g>
<!-- Node5&#45;&gt;Node6 -->
<g id="edge1" class="edge"><title>Node5&#45;&gt;Node6</title>
<path fill="none" stroke="midnightblue" d="M95.453,-29C103.682,-29 112.32,-29 120.917,-29"/>
<polygon fill="midnightblue" stroke="midnightblue" points="95.2834,-25.5001 85.2834,-29 95.2833,-32.5001 95.2834,-25.5001"/>
</g>
<!-- Node7 -->
<g id="node3" class="node"><title>Node7</title>
<g id="a_node3"><a xlink:href="nanorq_8c_ad6a9288685637cdfe83303f66b087a29.html#ad6a9288685637cdfe83303f66b087a29" target="_top" xlink:title="nanorq_generate_symbols">
<polygon fill="none" stroke="black" points="312,-38.5 312,-57.5 443,-57.5 443,-38.5 312,-38.5"/>
<text text-anchor="middle" x="377.5" y="-45.5" font-family="Helvetica,sans-Serif" font-size="10.00">nanorq_generate_symbols</text>
</a>
</g>
</g>
<!-- Node6&#45;&gt;Node7 -->
<g id="edge2" class="edge"><title>Node6&#45;&gt;Node7</title>
<path fill="none" stroke="midnightblue" d="M278.327,-37.6945C289.559,-38.8736 300.949,-40.0692 311.8,-41.2083"/>
<polygon fill="midnightblue" stroke="midnightblue" points="278.387,-34.1817 268.077,-36.6185 277.657,-41.1435 278.387,-34.1817"/>
</g>
<!-- Node12 -->
<g id="node8" class="node"><title>Node12</title>
<g id="a_node8"><a xlink:href="precode_8c_a2b6a5db8f90fc98b364cb5ed3b5eca24.html#a2b6a5db8f90fc98b364cb5ed3b5eca24" target="_top" xlink:title="precode_matrix_intermediate2">
<polygon fill="none" stroke="black" points="304,-0.5 304,-19.5 451,-19.5 451,-0.5 304,-0.5"/>
<text text-anchor="middle" x="377.5" y="-7.5" font-family="Helvetica,sans-Serif" font-size="10.00">precode_matrix_intermediate2</text>
</a>
</g>
</g>
<!-- Node6&#45;&gt;Node12 -->
<g id="edge8" class="edge"><title>Node6&#45;&gt;Node12</title>
<path fill="none" stroke="midnightblue" d="M278.116,-20.3276C286.722,-19.4242 295.424,-18.5107 303.907,-17.6203"/>
<polygon fill="midnightblue" stroke="midnightblue" points="277.657,-16.8565 268.077,-21.3815 278.387,-23.8182 277.657,-16.8565"/>
</g>
<!-- Node8 -->
<g id="node4" class="node"><title>Node8</title>
<g id="a_node4"><a xlink:href="encode_8c_a3c04138a5bfe5d72780bb7e82a18e627.html#a3c04138a5bfe5d72780bb7e82a18e627" target="_top" xlink:title="main">
<polygon fill="none" stroke="black" points="895,-57.5 895,-76.5 933,-76.5 933,-57.5 895,-57.5"/>
<text text-anchor="middle" x="914" y="-64.5" font-family="Helvetica,sans-Serif" font-size="10.00">main</text>
</a>
</g>
</g>
<!-- Node7&#45;&gt;Node8 -->
<g id="edge3" class="edge"><title>Node7&#45;&gt;Node8</title>
<path fill="none" stroke="midnightblue" d="M432.55,-59.3642C449.86,-62.4925 469.163,-65.45 487,-67 644.308,-80.6695 835.527,-71.5387 894.682,-68.1302"/>
<polygon fill="midnightblue" stroke="midnightblue" points="433.087,-55.904 422.615,-57.5119 431.804,-62.7854 433.087,-55.904"/>
</g>
<!-- Node9 -->
<g id="node5" class="node"><title>Node9</title>
<g id="a_node5"><a xlink:href="nanorq_8c_a956615eb4ea3ce34369951295e93f708.html#a956615eb4ea3ce34369951295e93f708" target="_top" xlink:title="nanorq_encode">
<polygon fill="none" stroke="black" points="505.5,-38.5 505.5,-57.5 588.5,-57.5 588.5,-38.5 505.5,-38.5"/>
<text text-anchor="middle" x="547" y="-45.5" font-family="Helvetica,sans-Serif" font-size="10.00">nanorq_encode</text>
</a>
</g>
</g>
<!-- Node7&#45;&gt;Node9 -->
<g id="edge4" class="edge"><title>Node7&#45;&gt;Node9</title>
<path fill="none" stroke="midnightblue" d="M453.609,-48C471.33,-48 489.572,-48 505.117,-48"/>
<polygon fill="midnightblue" stroke="midnightblue" points="453.26,-44.5001 443.26,-48 453.26,-51.5001 453.26,-44.5001"/>
</g>
<!-- Node10 -->
<g id="node6" class="node"><title>Node10</title>
<g id="a_node6"><a xlink:href="encode_8c_a0993cb61d7e4c1b1a1606d159f5b1410.html#a0993cb61d7e4c1b1a1606d159f5b1410" target="_top" xlink:title="dump_esi">
<polygon fill="none" stroke="black" points="669,-38.5 669,-57.5 728,-57.5 728,-38.5 669,-38.5"/>
<text text-anchor="middle" x="698.5" y="-45.5" font-family="Helvetica,sans-Serif" font-size="10.00">dump_esi</text>
</a>
</g>
</g>
<!-- Node9&#45;&gt;Node10 -->
<g id="edge5" class="edge"><title>Node9&#45;&gt;Node10</title>
<path fill="none" stroke="midnightblue" d="M598.907,-48C622.14,-48 648.805,-48 668.542,-48"/>
<polygon fill="midnightblue" stroke="midnightblue" points="598.852,-44.5001 588.852,-48 598.851,-51.5001 598.852,-44.5001"/>
</g>
<!-- Node11 -->
<g id="node7" class="node"><title>Node11</title>
<g id="a_node7"><a xlink:href="encode_8c_ae7f8bbf4dcea92f802d2521fa0264f93.html#ae7f8bbf4dcea92f802d2521fa0264f93" target="_top" xlink:title="dump_block">
<polygon fill="none" stroke="black" points="790,-38.5 790,-57.5 859,-57.5 859,-38.5 790,-38.5"/>
<text text-anchor="middle" x="824.5" y="-45.5" font-family="Helvetica,sans-Serif" font-size="10.00">dump_block</text>
</a>
</g>
</g>
<!-- Node10&#45;&gt;Node11 -->
<g id="edge6" class="edge"><title>Node10&#45;&gt;Node11</title>
<path fill="none" stroke="midnightblue" d="M738.607,-48C754.984,-48 773.841,-48 789.616,-48"/>
<polygon fill="midnightblue" stroke="midnightblue" points="738.26,-44.5001 728.26,-48 738.26,-51.5001 738.26,-44.5001"/>
</g>
<!-- Node11&#45;&gt;Node8 -->
<g id="edge7" class="edge"><title>Node11&#45;&gt;Node8</title>
<path fill="none" stroke="midnightblue" d="M868.916,-57.4275C878.058,-59.4126 887.22,-61.402 894.804,-63.0488"/>
<polygon fill="midnightblue" stroke="midnightblue" points="869.595,-53.9933 859.08,-55.2916 868.109,-60.8339 869.595,-53.9933"/>
</g>
<!-- Node13 -->
<g id="node9" class="node"><title>Node13</title>
<g id="a_node9"><a xlink:href="precode_8c_aee2113e8f8d7e54052fc8db5dd71fd1f.html#aee2113e8f8d7e54052fc8db5dd71fd1f" target="_top" xlink:title="precode_matrix_decode">
<polygon fill="none" stroke="black" points="487,-0.5 487,-19.5 607,-19.5 607,-0.5 487,-0.5"/>
<text text-anchor="middle" x="547" y="-7.5" font-family="Helvetica,sans-Serif" font-size="10.00">precode_matrix_decode</text>
</a>
</g>
</g>
<!-- Node12&#45;&gt;Node13 -->
<g id="edge9" class="edge"><title>Node12&#45;&gt;Node13</title>
<path fill="none" stroke="midnightblue" d="M461.496,-10C470.05,-10 478.614,-10 486.832,-10"/>
<polygon fill="midnightblue" stroke="midnightblue" points="461.481,-6.5001 451.481,-10 461.481,-13.5001 461.481,-6.5001"/>
</g>
<!-- Node14 -->
<g id="node10" class="node"><title>Node14</title>
<g id="a_node10"><a xlink:href="nanorq_8c_aa1dcf83669e76931be0e6e7a1f02c185.html#aa1dcf83669e76931be0e6e7a1f02c185" target="_top" xlink:title="nanorq_decode_block">
<polygon fill="none" stroke="black" points="643,-0.5 643,-19.5 754,-19.5 754,-0.5 643,-0.5"/>
<text text-anchor="middle" x="698.5" y="-7.5" font-family="Helvetica,sans-Serif" font-size="10.00">nanorq_decode_block</text>
</a>
</g>
</g>
<!-- Node13&#45;&gt;Node14 -->
<g id="edge10" class="edge"><title>Node13&#45;&gt;Node14</title>
<path fill="none" stroke="midnightblue" d="M617.104,-10C625.7,-10 634.396,-10 642.734,-10"/>
<polygon fill="midnightblue" stroke="midnightblue" points="617.086,-6.5001 607.086,-10 617.086,-13.5001 617.086,-6.5001"/>
</g>
<!-- Node15 -->
<g id="node11" class="node"><title>Node15</title>
<g id="a_node11"><a xlink:href="decode_8c_a3c04138a5bfe5d72780bb7e82a18e627.html#a3c04138a5bfe5d72780bb7e82a18e627" target="_top" xlink:title="main">
<polygon fill="none" stroke="black" points="805.5,-0.5 805.5,-19.5 843.5,-19.5 843.5,-0.5 805.5,-0.5"/>
<text text-anchor="middle" x="824.5" y="-7.5" font-family="Helvetica,sans-Serif" font-size="10.00">main</text>
</a>
</g>
</g>
<!-- Node14&#45;&gt;Node15 -->
<g id="edge11" class="edge"><title>Node14&#45;&gt;Node15</title>
<path fill="none" stroke="midnightblue" d="M764.661,-10C779.706,-10 794.503,-10 805.494,-10"/>
<polygon fill="midnightblue" stroke="midnightblue" points="764.249,-6.5001 754.249,-10 764.249,-13.5001 764.249,-6.5001"/>
</g>
</g>
</svg>
        <g id="navigator" transform="translate(0 0)" fill="#404254">
                <rect fill="#f2f5e9" fill-opacity="0.5" stroke="#606060" stroke-width=".5" x="0" y="0" width="60" height="60"/>
                <use id="zoomplus" xlink:href="#zoomPlus" x="17" y="9" onmousedown="handleZoom(evt,'in')"/>
                <use id="zoomminus" xlink:href="#zoomMin" x="42" y="9" onmousedown="handleZoom(evt,'out')"/>
                <use id="reset" xlink:href="#resetDef" x="30" y="36" onmousedown="handleReset()"/>
                <g id="arrowUp" xlink:href="#dirArrow" transform="translate(30 24)" onmousedown="handlePan(0,-1)">
                  <use xlink:href="#rim" fill="#404040">
                        <set attributeName="fill" to="#808080" begin="arrowUp.mouseover" end="arrowUp.mouseout"/>
                  </use>
                  <path fill="none" stroke="white" stroke-width="1.5" d="M0,-3.0v7 M-2.5,-0.5L0,-3.0L2.5,-0.5"/>
                </g>
                <g id="arrowRight" xlink:href="#dirArrow" transform="rotate(90) translate(36 -43)" onmousedown="handlePan(1,0)">
                  <use xlink:href="#rim" fill="#404040">
                        <set attributeName="fill" to="#808080" begin="arrowRight.mouseover" end="arrowRight.mouseout"/>
                  </use>
                  <path fill="none" stroke="white" stroke-width="1.5" d="M0,-3.0v7 M-2.5,-0.5L0,-3.0L2.5,-0.5"/>
                </g>
                <g id="arrowDown" xlink:href="#dirArrow" transform="rotate(180) translate(-30 -48)" onmousedown="handlePan(0,1)">
                  <use xlink:href="#rim" fill="#404040">
                        <set attributeName="fill" to="#808080" begin="arrowDown.mouseover" end="arrowDown.mouseout"/>
                  </use>
                  <path fill="none" stroke="white" stroke-width="1.5" d="M0,-3.0v7 M-2.5,-0.5L0,-3.0L2.5,-0.5"/>
                </g>
                <g id="arrowLeft" xlink:href="#dirArrow" transform="rotate(270) translate(-36 17)" onmousedown="handlePan(-1,0)">
                  <use xlink:href="#rim" fill="#404040">
                        <set attributeName="fill" to="#808080" begin="arrowLeft.mouseover" end="arrowLeft.mouseout"/>
                  </use>
                  <path fill="none" stroke="white" stroke-width="1.5" d="M0,-3.0v7 M-2.5,-0.5L0,-3.0L2.5,-0.5"/>
                </g>
        </g>
        <svg viewBox="0 0 15 15" width="100%" height="30px" preserveAspectRatio="xMaxYMin meet">
         <g id="arrow_out" transform="scale(0.3 0.3)">
          <a xlink:href="precode_8c_a11824185dea7b498ffadaca55ae49090_a11824185dea7b498ffadaca55ae49090_icgraph_org.svg" target="_base">
           <rect id="button" ry="5" rx="5" y="6" x="6" height="38" width="38"
                fill="#f2f5e9" fill-opacity="0.5" stroke="#606060" stroke-width="1.0"/>
           <path id="arrow"
             d="M 11.500037,31.436501 C 11.940474,20.09759 22.043105,11.32322 32.158766,21.979434 L 37.068811,17.246167 C 37.068811,17.246167 37.088388,32 37.088388,32 L 22.160133,31.978069 C 22.160133,31.978069 26.997745,27.140456 26.997745,27.140456 C 18.528582,18.264221 13.291696,25.230495 11.500037,31.436501 z"
             style="fill:#404040;"/>
          </a>
         </g>
        </svg>
</svg>
