<?xml version="1.0" encoding="UTF-8" standalone="no"?>
<!DOCTYPE svg PUBLIC "-//W3C//DTD SVG 1.1//EN"
 "http://www.w3.org/Graphics/SVG/1.1/DTD/svg11.dtd">
<!-- Generated by graphviz version 2.38.0 (20140413.2041)
 -->
<!-- Title: precode_matrix_intermediate1 Pages: 1 -->
<!--zoomable 560 -->
<svg id="main" version="1.1" xmlns="http://www.w3.org/2000/svg" xmlns:xlink="http://www.w3.org/1999/xlink" xml:space="preserve" onload="init(evt)">
<style type="text/css"><![CDATA[
.edge:hover path { stroke: red; }
.edge:hover polygon { stroke: red; fill: red; }
]]></style>
<script type="text/javascript"><![CDATA[
var edges = document.getElementsByTagName('g');
if (edges && edges.length) {
  for (var i=0;i<edges.length;i++) {
    if (edges[i].id.substr(0,4)=='edge') {
      edges[i].setAttribute('class','edge');
    }
  }
}
]]></script>
        <defs>
                <circle id="rim" cx="0" cy="0" r="7"/>
                <circle id="rim2" cx="0" cy="0" r="3.5"/>
                <g id="zoomPlus">
                        <use xlink:href="#rim" fill="#404040">
                                <set attributeName="fill" to="#808080" begin="zoomplus.mouseover" end="zoomplus.mouseout"/>
                        </use>
                        <path d="M-4,0h8M0,-4v8" fill="none" stroke="white" stroke-width="1.5" pointer-events="none"/>
                </g>
                <g id="zoomMin">
                        <use xlink:href="#rim" fill="#404040">
                                <set attributeName="fill" to="#808080" begin="zoomminus.mouseover" end="zoomminus.mouseout"/>
                        </use>
                        <path d="M-4,0h8" fill="none" stroke="white" stroke-width="1.5" pointer-events="none"/>
                </g>
                <g id="dirArrow">
                        <path fill="none" stroke="white" stroke-width="1.5" d="M0,-3.0v7 M-2.5,-0.5L0,-3.0L2.5,-0.5"/>
                </g>
               <g id="resetDef">
                       <use xlink:href="#rim2" fill="#404040">
                               <set attributeName="fill" to="#808080" begin="reset.mouseover" end="reset.mouseout"/>
                       </use>
               </g>
        </defs>

<script type="text/javascript">
var viewWidth = 656;
var viewHeight = 560;
var sectionId = 'dynsection-0';
</script>
<script xlink:href="svgpan.js"/>
<svg id="graph" class="graph">
<g id="viewport">
<title>precode_matrix_intermediate1</title>
<!-- Node0 -->
<g id="node1" class="node"><title>Node0</title>
<polygon fill="#bfbfbf" stroke="black" points="0,-152.5 0,-171.5 147,-171.5 147,-152.5 0,-152.5"/>
<text text-anchor="middle" x="73.5" y="-159.5" font-family="Helvetica,sans-Serif" font-size="10.00">precode_matrix_intermediate1</text>
</g>
<!-- Node1 -->
<g id="node2" class="node"><title>Node1</title>
<g id="a_node2"><a xlink:href="precode_8c_adde325d451f8ec9eb7f8f4542d81e884.html#adde325d451f8ec9eb7f8f4542d81e884" target="_top" xlink:title="decode_phase1">
<polygon fill="none" stroke="black" points="183,-361.5 183,-380.5 268,-380.5 268,-361.5 183,-361.5"/>
<text text-anchor="middle" x="225.5" y="-368.5" font-family="Helvetica,sans-Serif" font-size="10.00">decode_phase1</text>
</a>
</g>
</g>
<!-- Node0&#45;&gt;Node1 -->
<g id="edge1" class="edge"><title>Node0&#45;&gt;Node1</title>
<path fill="none" stroke="midnightblue" d="M81.335,-171.523C104.615,-203.961 181.065,-310.481 211.668,-353.121"/>
<polygon fill="midnightblue" stroke="midnightblue" points="208.951,-355.337 217.625,-361.421 214.638,-351.256 208.951,-355.337"/>
</g>
<!-- Node14 -->
<g id="node15" class="node"><title>Node14</title>
<g id="a_node15"><a xlink:href="precode_8c_a41bb3b163c071597877ad0de9bbbd756.html#a41bb3b163c071597877ad0de9bbbd756" target="_top" xlink:title="decode_phase2">
<polygon fill="none" stroke="black" points="183,-266.5 183,-285.5 268,-285.5 268,-266.5 183,-266.5"/>
<text text-anchor="middle" x="225.5" y="-273.5" font-family="Helvetica,sans-Serif" font-size="10.00">decode_phase2</text>
</a>
</g>
</g>
<!-- Node0&#45;&gt;Node14 -->
<g id="edge15" class="edge"><title>Node0&#45;&gt;Node14</title>
<path fill="none" stroke="midnightblue" d="M83.6077,-171.659C101.363,-190.085 142.43,-230.752 183,-257 185.728,-258.765 188.646,-260.452 191.624,-262.04"/>
<polygon fill="midnightblue" stroke="midnightblue" points="190.093,-265.187 200.607,-266.491 193.201,-258.915 190.093,-265.187"/>
</g>
<!-- Node16 -->
<g id="node17" class="node"><title>Node16</title>
<g id="a_node17"><a xlink:href="precode_8c_a11824185dea7b498ffadaca55ae49090.html#a11824185dea7b498ffadaca55ae49090" target="_top" xlink:title="decode_phase3">
<polygon fill="none" stroke="black" points="183,-114.5 183,-133.5 268,-133.5 268,-114.5 183,-114.5"/>
<text text-anchor="middle" x="225.5" y="-121.5" font-family="Helvetica,sans-Serif" font-size="10.00">decode_phase3</text>
</a>
</g>
</g>
<!-- Node0&#45;&gt;Node16 -->
<g id="edge19" class="edge"><title>Node0&#45;&gt;Node16</title>
<path fill="none" stroke="midnightblue" d="M112.351,-152.411C131.967,-147.442 156.119,-141.323 176.979,-136.039"/>
<polygon fill="midnightblue" stroke="midnightblue" points="178.087,-139.369 186.921,-133.52 176.368,-132.583 178.087,-139.369"/>
</g>
<!-- Node18 -->
<g id="node19" class="node"><title>Node18</title>
<g id="a_node19"><a xlink:href="octmat_8c_a4d2ed06936f8e9cba88b6b37e5a23712.html#a4d2ed06936f8e9cba88b6b37e5a23712" target="_top" xlink:title="om_copy">
<polygon fill="none" stroke="black" points="342.5,-152.5 342.5,-171.5 398.5,-171.5 398.5,-152.5 342.5,-152.5"/>
<text text-anchor="middle" x="370.5" y="-159.5" font-family="Helvetica,sans-Serif" font-size="10.00">om_copy</text>
</a>
</g>
</g>
<!-- Node0&#45;&gt;Node18 -->
<g id="edge30" class="edge"><title>Node0&#45;&gt;Node18</title>
<path fill="none" stroke="midnightblue" d="M147.043,-162C205.603,-162 285.632,-162 332.021,-162"/>
<polygon fill="midnightblue" stroke="midnightblue" points="332.223,-165.5 342.223,-162 332.223,-158.5 332.223,-165.5"/>
</g>
<!-- Node19 -->
<g id="node20" class="node"><title>Node19</title>
<g id="a_node20"><a xlink:href="octmat_8c_ac7854c0635a9441a5a352f95dbbd7bbd.html#ac7854c0635a9441a5a352f95dbbd7bbd" target="_top" xlink:title="om_destroy">
<polygon fill="none" stroke="black" points="336.5,-76.5 336.5,-95.5 404.5,-95.5 404.5,-76.5 336.5,-76.5"/>
<text text-anchor="middle" x="370.5" y="-83.5" font-family="Helvetica,sans-Serif" font-size="10.00">om_destroy</text>
</a>
</g>
</g>
<!-- Node0&#45;&gt;Node19 -->
<g id="edge31" class="edge"><title>Node0&#45;&gt;Node19</title>
<path fill="none" stroke="midnightblue" d="M88.4798,-152.393C108.446,-139.215 146.735,-115.926 183,-105 230.569,-90.6688 287.72,-86.673 326.112,-85.7824"/>
<polygon fill="midnightblue" stroke="midnightblue" points="326.48,-89.2768 336.419,-85.6076 326.361,-82.2778 326.48,-89.2768"/>
</g>
<!-- Node20 -->
<g id="node21" class="node"><title>Node20</title>
<g id="a_node21"><a xlink:href="octmat_8c_a0db07e8a815b999f9837c74c31213cdb.html#a0db07e8a815b999f9837c74c31213cdb" target="_top" xlink:title="om_resize">
<polygon fill="none" stroke="black" points="339.5,-38.5 339.5,-57.5 401.5,-57.5 401.5,-38.5 339.5,-38.5"/>
<text text-anchor="middle" x="370.5" y="-45.5" font-family="Helvetica,sans-Serif" font-size="10.00">om_resize</text>
</a>
</g>
</g>
<!-- Node0&#45;&gt;Node20 -->
<g id="edge32" class="edge"><title>Node0&#45;&gt;Node20</title>
<path fill="none" stroke="midnightblue" d="M84.9914,-152.376C103.383,-136.059 143.278,-103.077 183,-86 230.727,-65.4817 290.173,-55.8333 328.943,-51.4423"/>
<polygon fill="midnightblue" stroke="midnightblue" points="329.73,-54.8783 339.303,-50.3386 328.989,-47.9177 329.73,-54.8783"/>
</g>
<!-- Node21 -->
<g id="node22" class="node"><title>Node21</title>
<g id="a_node22"><a xlink:href="precode_8c_a84a742aaa0a90e37baf8db8cd5a035b7.html#a84a742aaa0a90e37baf8db8cd5a035b7" target="_top" xlink:title="decode_phase4">
<polygon fill="none" stroke="black" points="183,-228.5 183,-247.5 268,-247.5 268,-228.5 183,-228.5"/>
<text text-anchor="middle" x="225.5" y="-235.5" font-family="Helvetica,sans-Serif" font-size="10.00">decode_phase4</text>
</a>
</g>
</g>
<!-- Node0&#45;&gt;Node21 -->
<g id="edge24" class="edge"><title>Node0&#45;&gt;Node21</title>
<path fill="none" stroke="midnightblue" d="M92.0147,-171.577C113.339,-183.15 150.532,-203.054 183,-219 186.401,-220.67 189.979,-222.379 193.549,-224.054"/>
<polygon fill="midnightblue" stroke="midnightblue" points="192.31,-227.338 202.856,-228.36 195.249,-220.985 192.31,-227.338"/>
</g>
<!-- Node22 -->
<g id="node23" class="node"><title>Node22</title>
<g id="a_node23"><a xlink:href="precode_8c_a16925f32060a478093240f3b35ee664a.html#a16925f32060a478093240f3b35ee664a" target="_top" xlink:title="decode_phase5">
<polygon fill="none" stroke="black" points="183,-190.5 183,-209.5 268,-209.5 268,-190.5 183,-190.5"/>
<text text-anchor="middle" x="225.5" y="-197.5" font-family="Helvetica,sans-Serif" font-size="10.00">decode_phase5</text>
</a>
</g>
</g>
<!-- Node0&#45;&gt;Node22 -->
<g id="edge26" class="edge"><title>Node0&#45;&gt;Node22</title>
<path fill="none" stroke="midnightblue" d="M112.351,-171.589C131.967,-176.558 156.119,-182.677 176.979,-187.961"/>
<polygon fill="midnightblue" stroke="midnightblue" points="176.368,-191.417 186.921,-190.48 178.087,-184.631 176.368,-191.417"/>
</g>
<!-- Node23 -->
<g id="node24" class="node"><title>Node23</title>
<g id="a_node24"><a xlink:href="oblas_8h_a1b5ea186506d2e5d84ba3cc292043e21.html#a1b5ea186506d2e5d84ba3cc292043e21" target="_top" xlink:title="ocopy">
<polygon fill="none" stroke="black" points="204,-0.5 204,-19.5 247,-19.5 247,-0.5 204,-0.5"/>
<text text-anchor="middle" x="225.5" y="-7.5" font-family="Helvetica,sans-Serif" font-size="10.00">ocopy</text>
</a>
</g>
</g>
<!-- Node0&#45;&gt;Node23 -->
<g id="edge29" class="edge"><title>Node0&#45;&gt;Node23</title>
<path fill="none" stroke="midnightblue" d="M80.9183,-152.353C96.3942,-129.612 137.841,-71.7289 183,-34 186.868,-30.7682 191.229,-27.7224 195.632,-24.9553"/>
<polygon fill="midnightblue" stroke="midnightblue" points="197.736,-27.7787 204.587,-19.6969 194.192,-21.7424 197.736,-27.7787"/>
</g>
<!-- Node2 -->
<g id="node3" class="node"><title>Node2</title>
<g id="a_node3"><a xlink:href="chooser_8h_a5c354680a80680d3c040504152d3c616.html#a5c354680a80680d3c040504152d3c616" target="_top" xlink:title="chooser_add_tracking_pair">
<polygon fill="none" stroke="black" points="304,-532.5 304,-551.5 437,-551.5 437,-532.5 304,-532.5"/>
<text text-anchor="middle" x="370.5" y="-539.5" font-family="Helvetica,sans-Serif" font-size="10.00">chooser_add_tracking_pair</text>
</a>
</g>
</g>
<!-- Node1&#45;&gt;Node2 -->
<g id="edge2" class="edge"><title>Node1&#45;&gt;Node2</title>
<path fill="none" stroke="midnightblue" d="M228.553,-380.5C234.825,-407.205 256.285,-483.555 304,-523 306.036,-524.683 308.215,-526.217 310.496,-527.616"/>
<polygon fill="midnightblue" stroke="midnightblue" points="309.223,-530.897 319.716,-532.363 312.428,-524.674 309.223,-530.897"/>
</g>
<!-- Node3 -->
<g id="node4" class="node"><title>Node3</title>
<g id="a_node4"><a xlink:href="chooser_8h_a54391f17335789a40d1a168009c9b5a1.html#a54391f17335789a40d1a168009c9b5a1" target="_top" xlink:title="chooser_clear">
<polygon fill="none" stroke="black" points="332,-494.5 332,-513.5 409,-513.5 409,-494.5 332,-494.5"/>
<text text-anchor="middle" x="370.5" y="-501.5" font-family="Helvetica,sans-Serif" font-size="10.00">chooser_clear</text>
</a>
</g>
</g>
<!-- Node1&#45;&gt;Node3 -->
<g id="edge3" class="edge"><title>Node1&#45;&gt;Node3</title>
<path fill="none" stroke="midnightblue" d="M230.305,-380.611C239.498,-402.578 265.075,-456.737 304,-485 309.472,-488.973 315.762,-492.119 322.233,-494.609"/>
<polygon fill="midnightblue" stroke="midnightblue" points="321.175,-497.946 331.769,-497.808 323.401,-491.309 321.175,-497.946"/>
</g>
<!-- Node4 -->
<g id="node5" class="node"><title>Node4</title>
<g id="a_node5"><a xlink:href="chooser_8h_aa055b1a2f2a47c17f612c052a2607ae1.html#aa055b1a2f2a47c17f612c052a2607ae1" target="_top" xlink:title="chooser_non_zero">
<polygon fill="none" stroke="black" points="322.5,-456.5 322.5,-475.5 418.5,-475.5 418.5,-456.5 322.5,-456.5"/>
<text text-anchor="middle" x="370.5" y="-463.5" font-family="Helvetica,sans-Serif" font-size="10.00">chooser_non_zero</text>
</a>
</g>
</g>
<!-- Node1&#45;&gt;Node4 -->
<g id="edge4" class="edge"><title>Node1&#45;&gt;Node4</title>
<path fill="none" stroke="midnightblue" d="M233.725,-380.711C246.247,-396.861 273.577,-429.216 304,-447 307.68,-449.151 311.62,-451.073 315.675,-452.787"/>
<polygon fill="midnightblue" stroke="midnightblue" points="314.683,-456.154 325.274,-456.422 317.161,-449.608 314.683,-456.154"/>
</g>
<!-- Node7 -->
<g id="node8" class="node"><title>Node7</title>
<g id="a_node8"><a xlink:href="chooser_8h_a6e78ae331b8eb1f6033fdb88aba27d69.html#a6e78ae331b8eb1f6033fdb88aba27d69" target="_top" xlink:title="chooser_pick">
<polygon fill="none" stroke="black" points="333.5,-418.5 333.5,-437.5 407.5,-437.5 407.5,-418.5 333.5,-418.5"/>
<text text-anchor="middle" x="370.5" y="-425.5" font-family="Helvetica,sans-Serif" font-size="10.00">chooser_pick</text>
</a>
</g>
</g>
<!-- Node1&#45;&gt;Node7 -->
<g id="edge7" class="edge"><title>Node1&#45;&gt;Node7</title>
<path fill="none" stroke="midnightblue" d="M243.961,-380.65C259.418,-388.927 282.757,-400.782 304,-409 310.307,-411.44 317.059,-413.736 323.745,-415.832"/>
<polygon fill="midnightblue" stroke="midnightblue" points="322.847,-419.217 333.432,-418.753 324.868,-412.515 322.847,-419.217"/>
</g>
<!-- Node9 -->
<g id="node10" class="node"><title>Node9</title>
<g id="a_node10"><a xlink:href="graph_8c_ac683cc08fc4c4391a1e872db552f4c3b.html#ac683cc08fc4c4391a1e872db552f4c3b" target="_top" xlink:title="graph_free">
<polygon fill="none" stroke="black" points="339.5,-380.5 339.5,-399.5 401.5,-399.5 401.5,-380.5 339.5,-380.5"/>
<text text-anchor="middle" x="370.5" y="-387.5" font-family="Helvetica,sans-Serif" font-size="10.00">graph_free</text>
</a>
</g>
</g>
<!-- Node1&#45;&gt;Node9 -->
<g id="edge10" class="edge"><title>Node1&#45;&gt;Node9</title>
<path fill="none" stroke="midnightblue" d="M268.246,-376.547C287.444,-379.097 310.125,-382.111 329.149,-384.639"/>
<polygon fill="midnightblue" stroke="midnightblue" points="328.922,-388.139 339.296,-385.987 329.844,-381.2 328.922,-388.139"/>
</g>
<!-- Node10 -->
<g id="node11" class="node"><title>Node10</title>
<g id="a_node11"><a xlink:href="graph_8c_ac96bb5f2ca9a14261f32f070172fb6d9.html#ac96bb5f2ca9a14261f32f070172fb6d9" target="_top" xlink:title="graph_new">
<polygon fill="none" stroke="black" points="338.5,-342.5 338.5,-361.5 402.5,-361.5 402.5,-342.5 338.5,-342.5"/>
<text text-anchor="middle" x="370.5" y="-349.5" font-family="Helvetica,sans-Serif" font-size="10.00">graph_new</text>
</a>
</g>
</g>
<!-- Node1&#45;&gt;Node10 -->
<g id="edge11" class="edge"><title>Node1&#45;&gt;Node10</title>
<path fill="none" stroke="midnightblue" d="M268.246,-365.453C287.166,-362.94 309.468,-359.976 328.319,-357.472"/>
<polygon fill="midnightblue" stroke="midnightblue" points="328.942,-360.92 338.394,-356.133 328.02,-353.981 328.942,-360.92"/>
</g>
<!-- Node11 -->
<g id="node12" class="node"><title>Node11</title>
<g id="a_node12"><a xlink:href="oblas_8h_a962c3db45b173ccbaf6418d5894409be.html#a962c3db45b173ccbaf6418d5894409be" target="_top" xlink:title="oaxpy">
<polygon fill="none" stroke="black" points="349,-228.5 349,-247.5 392,-247.5 392,-228.5 349,-228.5"/>
<text text-anchor="middle" x="370.5" y="-235.5" font-family="Helvetica,sans-Serif" font-size="10.00">oaxpy</text>
</a>
</g>
</g>
<!-- Node1&#45;&gt;Node11 -->
<g id="edge12" class="edge"><title>Node1&#45;&gt;Node11</title>
<path fill="none" stroke="midnightblue" d="M231.932,-361.31C246.025,-336.475 284.054,-271.483 304,-257 314.152,-249.628 327.122,-245.104 338.837,-242.333"/>
<polygon fill="midnightblue" stroke="midnightblue" points="339.608,-245.748 348.707,-240.321 338.21,-238.889 339.608,-245.748"/>
</g>
<!-- Node12 -->
<g id="node13" class="node"><title>Node12</title>
<g id="a_node13"><a xlink:href="oblas_8h_aac1e9520179bae9bf58901a111aad57d.html#aac1e9520179bae9bf58901a111aad57d" target="_top" xlink:title="oswapcol">
<polygon fill="none" stroke="black" points="341.5,-304.5 341.5,-323.5 399.5,-323.5 399.5,-304.5 341.5,-304.5"/>
<text text-anchor="middle" x="370.5" y="-311.5" font-family="Helvetica,sans-Serif" font-size="10.00">oswapcol</text>
</a>
</g>
</g>
<!-- Node1&#45;&gt;Node12 -->
<g id="edge13" class="edge"><title>Node1&#45;&gt;Node12</title>
<path fill="none" stroke="midnightblue" d="M243.961,-361.35C259.418,-353.073 282.757,-341.218 304,-333 312.839,-329.581 322.555,-326.442 331.735,-323.743"/>
<polygon fill="midnightblue" stroke="midnightblue" points="332.754,-327.092 341.418,-320.994 330.842,-320.358 332.754,-327.092"/>
</g>
<!-- Node13 -->
<g id="node14" class="node"><title>Node13</title>
<g id="a_node14"><a xlink:href="oblas_8h_ad0978d40d1e2a78b8ff34f3d0d376dd3.html#ad0978d40d1e2a78b8ff34f3d0d376dd3" target="_top" xlink:title="oswaprow">
<polygon fill="none" stroke="black" points="340,-266.5 340,-285.5 401,-285.5 401,-266.5 340,-266.5"/>
<text text-anchor="middle" x="370.5" y="-273.5" font-family="Helvetica,sans-Serif" font-size="10.00">oswaprow</text>
</a>
</g>
</g>
<!-- Node1&#45;&gt;Node13 -->
<g id="edge14" class="edge"><title>Node1&#45;&gt;Node13</title>
<path fill="none" stroke="midnightblue" d="M233.725,-361.289C246.247,-345.139 273.577,-312.784 304,-295 311.947,-290.355 321.108,-286.779 330.012,-284.051"/>
<polygon fill="midnightblue" stroke="midnightblue" points="331.175,-287.361 339.878,-281.319 329.307,-280.614 331.175,-287.361"/>
</g>
<!-- Node5 -->
<g id="node6" class="node"><title>Node5</title>
<g id="a_node6"><a xlink:href="graph_8c_a4df6f2af3bed651a7f3d19803ec598e4.html#a4df6f2af3bed651a7f3d19803ec598e4" target="_top" xlink:title="graph_link">
<polygon fill="none" stroke="black" points="481,-456.5 481,-475.5 542,-475.5 542,-456.5 481,-456.5"/>
<text text-anchor="middle" x="511.5" y="-463.5" font-family="Helvetica,sans-Serif" font-size="10.00">graph_link</text>
</a>
</g>
</g>
<!-- Node4&#45;&gt;Node5 -->
<g id="edge5" class="edge"><title>Node4&#45;&gt;Node5</title>
<path fill="none" stroke="midnightblue" d="M418.559,-466C435.486,-466 454.403,-466 470.656,-466"/>
<polygon fill="midnightblue" stroke="midnightblue" points="470.905,-469.5 480.905,-466 470.905,-462.5 470.905,-469.5"/>
</g>
<!-- Node6 -->
<g id="node7" class="node"><title>Node6</title>
<g id="a_node7"><a xlink:href="graph_8c_aebad20ec3b086b7fae30e6ef61892839.html#aebad20ec3b086b7fae30e6ef61892839" target="_top" xlink:title="graph_find">
<polygon fill="none" stroke="black" points="586,-437.5 586,-456.5 648,-456.5 648,-437.5 586,-437.5"/>
<text text-anchor="middle" x="617" y="-444.5" font-family="Helvetica,sans-Serif" font-size="10.00">graph_find</text>
</a>
</g>
</g>
<!-- Node5&#45;&gt;Node6 -->
<g id="edge6" class="edge"><title>Node5&#45;&gt;Node6</title>
<path fill="none" stroke="midnightblue" d="M542.159,-460.555C552.678,-458.624 564.696,-456.418 575.937,-454.354"/>
<polygon fill="midnightblue" stroke="midnightblue" points="576.774,-457.759 585.978,-452.511 575.51,-450.875 576.774,-457.759"/>
</g>
<!-- Node8 -->
<g id="node9" class="node"><title>Node8</title>
<g id="a_node9"><a xlink:href="graph_8c_ab380f8ec271892c52ab6836e6dba1746.html#ab380f8ec271892c52ab6836e6dba1746" target="_top" xlink:title="graph_is_max">
<polygon fill="none" stroke="black" points="473,-418.5 473,-437.5 550,-437.5 550,-418.5 473,-418.5"/>
<text text-anchor="middle" x="511.5" y="-425.5" font-family="Helvetica,sans-Serif" font-size="10.00">graph_is_max</text>
</a>
</g>
</g>
<!-- Node7&#45;&gt;Node8 -->
<g id="edge8" class="edge"><title>Node7&#45;&gt;Node8</title>
<path fill="none" stroke="midnightblue" d="M407.658,-428C424.412,-428 444.554,-428 462.555,-428"/>
<polygon fill="midnightblue" stroke="midnightblue" points="462.581,-431.5 472.581,-428 462.581,-424.5 462.581,-431.5"/>
</g>
<!-- Node8&#45;&gt;Node6 -->
<g id="edge9" class="edge"><title>Node8&#45;&gt;Node6</title>
<path fill="none" stroke="midnightblue" d="M550.159,-434.913C558.541,-436.452 567.458,-438.089 575.934,-439.645"/>
<polygon fill="midnightblue" stroke="midnightblue" points="575.52,-443.127 585.988,-441.49 576.784,-436.242 575.52,-443.127"/>
</g>
<!-- Node14&#45;&gt;Node11 -->
<g id="edge16" class="edge"><title>Node14&#45;&gt;Node11</title>
<path fill="none" stroke="midnightblue" d="M262.585,-266.411C286.156,-260.147 316.597,-252.058 338.965,-246.114"/>
<polygon fill="midnightblue" stroke="midnightblue" points="340.16,-249.418 348.926,-243.467 338.362,-242.653 340.16,-249.418"/>
</g>
<!-- Node14&#45;&gt;Node13 -->
<g id="edge18" class="edge"><title>Node14&#45;&gt;Node13</title>
<path fill="none" stroke="midnightblue" d="M268.246,-276C287.583,-276 310.454,-276 329.562,-276"/>
<polygon fill="midnightblue" stroke="midnightblue" points="329.744,-279.5 339.744,-276 329.744,-272.5 329.744,-279.5"/>
</g>
<!-- Node15 -->
<g id="node16" class="node"><title>Node15</title>
<g id="a_node16"><a xlink:href="oblas_8h_abfa7ba50070fbebe1ea2e0e2fc3f913b.html#abfa7ba50070fbebe1ea2e0e2fc3f913b" target="_top" xlink:title="oscal">
<polygon fill="none" stroke="black" points="350.5,-190.5 350.5,-209.5 390.5,-209.5 390.5,-190.5 350.5,-190.5"/>
<text text-anchor="middle" x="370.5" y="-197.5" font-family="Helvetica,sans-Serif" font-size="10.00">oscal</text>
</a>
</g>
</g>
<!-- Node14&#45;&gt;Node15 -->
<g id="edge17" class="edge"><title>Node14&#45;&gt;Node15</title>
<path fill="none" stroke="midnightblue" d="M251.498,-266.432C257.156,-263.764 262.973,-260.596 268,-257 286.922,-243.466 284.135,-231.108 304,-219 315.026,-212.28 328.544,-207.837 340.431,-204.951"/>
<polygon fill="midnightblue" stroke="midnightblue" points="341.322,-208.339 350.352,-202.798 339.837,-201.498 341.322,-208.339"/>
</g>
<!-- Node17 -->
<g id="node18" class="node"><title>Node17</title>
<g id="a_node18"><a xlink:href="oblas_8h_a85e2604cc8aec26b591370ab48307bcc.html#a85e2604cc8aec26b591370ab48307bcc" target="_top" xlink:title="ogemm">
<polygon fill="none" stroke="black" points="346,-114.5 346,-133.5 395,-133.5 395,-114.5 346,-114.5"/>
<text text-anchor="middle" x="370.5" y="-121.5" font-family="Helvetica,sans-Serif" font-size="10.00">ogemm</text>
</a>
</g>
</g>
<!-- Node16&#45;&gt;Node17 -->
<g id="edge20" class="edge"><title>Node16&#45;&gt;Node17</title>
<path fill="none" stroke="midnightblue" d="M268.246,-124C289.629,-124 315.333,-124 335.493,-124"/>
<polygon fill="midnightblue" stroke="midnightblue" points="335.767,-127.5 345.767,-124 335.767,-120.5 335.767,-127.5"/>
</g>
<!-- Node16&#45;&gt;Node18 -->
<g id="edge21" class="edge"><title>Node16&#45;&gt;Node18</title>
<path fill="none" stroke="midnightblue" d="M262.585,-133.589C284.013,-139.283 311.119,-146.486 332.676,-152.215"/>
<polygon fill="midnightblue" stroke="midnightblue" points="331.892,-155.628 342.456,-154.813 333.69,-148.863 331.892,-155.628"/>
</g>
<!-- Node16&#45;&gt;Node19 -->
<g id="edge22" class="edge"><title>Node16&#45;&gt;Node19</title>
<path fill="none" stroke="midnightblue" d="M262.585,-114.411C282.067,-109.234 306.243,-102.809 326.675,-97.3801"/>
<polygon fill="midnightblue" stroke="midnightblue" points="327.602,-100.755 336.367,-94.8045 325.804,-93.9902 327.602,-100.755"/>
</g>
<!-- Node16&#45;&gt;Node20 -->
<g id="edge23" class="edge"><title>Node16&#45;&gt;Node20</title>
<path fill="none" stroke="midnightblue" d="M237.238,-114.159C251.5,-101.568 277.936,-79.8559 304,-67 311.938,-63.0848 320.824,-59.836 329.429,-57.1984"/>
<polygon fill="midnightblue" stroke="midnightblue" points="330.668,-60.4848 339.327,-54.3794 328.751,-53.7525 330.668,-60.4848"/>
</g>
<!-- Node21&#45;&gt;Node11 -->
<g id="edge25" class="edge"><title>Node21&#45;&gt;Node11</title>
<path fill="none" stroke="midnightblue" d="M268.246,-238C290.851,-238 318.285,-238 338.892,-238"/>
<polygon fill="midnightblue" stroke="midnightblue" points="338.984,-241.5 348.984,-238 338.984,-234.5 338.984,-241.5"/>
</g>
<!-- Node22&#45;&gt;Node11 -->
<g id="edge27" class="edge"><title>Node22&#45;&gt;Node11</title>
<path fill="none" stroke="midnightblue" d="M262.585,-209.589C286.156,-215.853 316.597,-223.942 338.965,-229.886"/>
<polygon fill="midnightblue" stroke="midnightblue" points="338.362,-233.347 348.926,-232.533 340.16,-226.582 338.362,-233.347"/>
</g>
<!-- Node22&#45;&gt;Node15 -->
<g id="edge28" class="edge"><title>Node22&#45;&gt;Node15</title>
<path fill="none" stroke="midnightblue" d="M268.246,-200C291.272,-200 319.309,-200 340.037,-200"/>
<polygon fill="midnightblue" stroke="midnightblue" points="340.145,-203.5 350.145,-200 340.145,-196.5 340.145,-203.5"/>
</g>
</g>
</svg>
        <g id="navigator" transform="translate(0 0)" fill="#404254">
                <rect fill="#f2f5e9" fill-opacity="0.5" stroke="#606060" stroke-width=".5" x="0" y="0" width="60" height="60"/>
                <use id="zoomplus" xlink:href="#zoomPlus" x="17" y="9" onmousedown="handleZoom(evt,'in')"/>
                <use id="zoomminus" xlink:href="#zoomMin" x="42" y="9" onmousedown="handleZoom(evt,'out')"/>
                <use id="reset" xlink:href="#resetDef" x="30" y="36" onmousedown="handleReset()"/>
                <g id="arrowUp" xlink:href="#dirArrow" transform="translate(30 24)" onmousedown="handlePan(0,-1)">
                  <use xlink:href="#rim" fill="#404040">
                        <set attributeName="fill" to="#808080" begin="arrowUp.mouseover" end="arrowUp.mouseout"/>
                  </use>
                  <path fill="none" stroke="white" stroke-width="1.5" d="M0,-3.0v7 M-2.5,-0.5L0,-3.0L2.5,-0.5"/>
                </g>
                <g id="arrowRight" xlink:href="#dirArrow" transform="rotate(90) translate(36 -43)" onmousedown="handlePan(1,0)">
                  <use xlink:href="#rim" fill="#404040">
                        <set attributeName="fill" to="#808080" begin="arrowRight.mouseover" end="arrowRight.mouseout"/>
                  </use>
                  <path fill="none" stroke="white" stroke-width="1.5" d="M0,-3.0v7 M-2.5,-0.5L0,-3.0L2.5,-0.5"/>
                </g>
                <g id="arrowDown" xlink:href="#dirArrow" transform="rotate(180) translate(-30 -48)" onmousedown="handlePan(0,1)">
                  <use xlink:href="#rim" fill="#404040">
                        <set attributeName="fill" to="#808080" begin="arrowDown.mouseover" end="arrowDown.mouseout"/>
                  </use>
                  <path fill="none" stroke="white" stroke-width="1.5" d="M0,-3.0v7 M-2.5,-0.5L0,-3.0L2.5,-0.5"/>
                </g>
                <g id="arrowLeft" xlink:href="#dirArrow" transform="rotate(270) translate(-36 17)" onmousedown="handlePan(-1,0)">
                  <use xlink:href="#rim" fill="#404040">
                        <set attributeName="fill" to="#808080" begin="arrowLeft.mouseover" end="arrowLeft.mouseout"/>
                  </use>
                  <path fill="none" stroke="white" stroke-width="1.5" d="M0,-3.0v7 M-2.5,-0.5L0,-3.0L2.5,-0.5"/>
                </g>
        </g>
        <svg viewBox="0 0 15 15" width="100%" height="30px" preserveAspectRatio="xMaxYMin meet">
         <g id="arrow_out" transform="scale(0.3 0.3)">
          <a xlink:href="precode_8h_a262ba8efa6b500c1e7a3cb0451245291_a262ba8efa6b500c1e7a3cb0451245291_cgraph_org.svg" target="_base">
           <rect id="button" ry="5" rx="5" y="6" x="6" height="38" width="38"
                fill="#f2f5e9" fill-opacity="0.5" stroke="#606060" stroke-width="1.0"/>
           <path id="arrow"
             d="M 11.500037,31.436501 C 11.940474,20.09759 22.043105,11.32322 32.158766,21.979434 L 37.068811,17.246167 C 37.068811,17.246167 37.088388,32 37.088388,32 L 22.160133,31.978069 C 22.160133,31.978069 26.997745,27.140456 26.997745,27.140456 C 18.528582,18.264221 13.291696,25.230495 11.500037,31.436501 z"
             style="fill:#404040;"/>
          </a>
         </g>
        </svg>
</svg>
