<?xml version="1.0" encoding="UTF-8" standalone="no"?>
<!DOCTYPE svg PUBLIC "-//W3C//DTD SVG 1.1//EN"
 "http://www.w3.org/Graphics/SVG/1.1/DTD/svg11.dtd">
<!-- Generated by graphviz version 2.38.0 (20140413.2041)
 -->
<!-- Title: decode_phase0 Pages: 1 -->
<svg width="220pt" height="104pt"
 viewBox="0.00 0.00 220.00 104.00" xmlns="http://www.w3.org/2000/svg" xmlns:xlink="http://www.w3.org/1999/xlink">
<g id="graph0" class="graph" transform="scale(1 1) rotate(0) translate(4 100)">
<title>decode_phase0</title>
<!-- Node0 -->
<g id="node1" class="node"><title>Node0</title>
<polygon fill="#bfbfbf" stroke="black" points="0,-38.5 0,-57.5 85,-57.5 85,-38.5 0,-38.5"/>
<text text-anchor="middle" x="42.5" y="-45.5" font-family="Helvetica,sans-Serif" font-size="10.00">decode_phase0</text>
</g>
<!-- Node1 -->
<g id="node2" class="node"><title>Node1</title>
<g id="a_node2"><a xlink:href="bitmask_8h_ad67256bcd0a6b5b9e739bc889e22a45b.html#ad67256bcd0a6b5b9e739bc889e22a45b" target="_top" xlink:title="bitmask_check">
<polygon fill="none" stroke="black" points="125,-76.5 125,-95.5 208,-95.5 208,-76.5 125,-76.5"/>
<text text-anchor="middle" x="166.5" y="-83.5" font-family="Helvetica,sans-Serif" font-size="10.00">bitmask_check</text>
</a>
</g>
</g>
<!-- Node0&#45;&gt;Node1 -->
<g id="edge1" class="edge"><title>Node0&#45;&gt;Node1</title>
<path fill="none" stroke="midnightblue" d="M74.2858,-57.589C89.6013,-62.3594 108.317,-68.1888 124.8,-73.3229"/>
<polygon fill="midnightblue" stroke="midnightblue" points="124.136,-76.7818 134.724,-76.4141 126.217,-70.0985 124.136,-76.7818"/>
</g>
<!-- Node2 -->
<g id="node3" class="node"><title>Node2</title>
<g id="a_node3"><a xlink:href="bitmask_8h_a3b8b7d670ea2a2526b93623a8681341a.html#a3b8b7d670ea2a2526b93623a8681341a" target="_top" xlink:title="bitmask_gaps">
<polygon fill="none" stroke="black" points="128,-38.5 128,-57.5 205,-57.5 205,-38.5 128,-38.5"/>
<text text-anchor="middle" x="166.5" y="-45.5" font-family="Helvetica,sans-Serif" font-size="10.00">bitmask_gaps</text>
</a>
</g>
</g>
<!-- Node0&#45;&gt;Node2 -->
<g id="edge2" class="edge"><title>Node0&#45;&gt;Node2</title>
<path fill="none" stroke="midnightblue" d="M85.1443,-48C95.6063,-48 106.916,-48 117.654,-48"/>
<polygon fill="midnightblue" stroke="midnightblue" points="117.729,-51.5001 127.729,-48 117.729,-44.5001 117.729,-51.5001"/>
</g>
<!-- Node3 -->
<g id="node4" class="node"><title>Node3</title>
<g id="a_node4"><a xlink:href="params_8c_a5e51228448fbdf5e0d4310916b8eea93.html#a5e51228448fbdf5e0d4310916b8eea93" target="_top" xlink:title="params_get_idxs">
<polygon fill="none" stroke="black" points="121,-0.5 121,-19.5 212,-19.5 212,-0.5 121,-0.5"/>
<text text-anchor="middle" x="166.5" y="-7.5" font-family="Helvetica,sans-Serif" font-size="10.00">params_get_idxs</text>
</a>
</g>
</g>
<!-- Node0&#45;&gt;Node3 -->
<g id="edge3" class="edge"><title>Node0&#45;&gt;Node3</title>
<path fill="none" stroke="midnightblue" d="M74.2858,-38.411C89.6013,-33.6406 108.317,-27.8112 124.8,-22.6771"/>
<polygon fill="midnightblue" stroke="midnightblue" points="126.217,-25.9015 134.724,-19.5859 124.136,-19.2182 126.217,-25.9015"/>
</g>
</g>
</svg>
