<?xml version="1.0" encoding="UTF-8" standalone="no"?>
<!DOCTYPE svg PUBLIC "-//W3C//DTD SVG 1.1//EN"
 "http://www.w3.org/Graphics/SVG/1.1/DTD/svg11.dtd">
<!-- Generated by graphviz version 2.38.0 (20140413.2041)
 -->
<!-- Title: precode_matrix_gen Pages: 1 -->
<!--zoomable 286 -->
<svg id="main" version="1.1" xmlns="http://www.w3.org/2000/svg" xmlns:xlink="http://www.w3.org/1999/xlink" xml:space="preserve" onload="init(evt)">
<style type="text/css"><![CDATA[
.edge:hover path { stroke: red; }
.edge:hover polygon { stroke: red; fill: red; }
]]></style>
<script type="text/javascript"><![CDATA[
var edges = document.getElementsByTagName('g');
if (edges && edges.length) {
  for (var i=0;i<edges.length;i++) {
    if (edges[i].id.substr(0,4)=='edge') {
      edges[i].setAttribute('class','edge');
    }
  }
}
]]></script>
        <defs>
                <circle id="rim" cx="0" cy="0" r="7"/>
                <circle id="rim2" cx="0" cy="0" r="3.5"/>
                <g id="zoomPlus">
                        <use xlink:href="#rim" fill="#404040">
                                <set attributeName="fill" to="#808080" begin="zoomplus.mouseover" end="zoomplus.mouseout"/>
                        </use>
                        <path d="M-4,0h8M0,-4v8" fill="none" stroke="white" stroke-width="1.5" pointer-events="none"/>
                </g>
                <g id="zoomMin">
                        <use xlink:href="#rim" fill="#404040">
                                <set attributeName="fill" to="#808080" begin="zoomminus.mouseover" end="zoomminus.mouseout"/>
                        </use>
                        <path d="M-4,0h8" fill="none" stroke="white" stroke-width="1.5" pointer-events="none"/>
                </g>
                <g id="dirArrow">
                        <path fill="none" stroke="white" stroke-width="1.5" d="M0,-3.0v7 M-2.5,-0.5L0,-3.0L2.5,-0.5"/>
                </g>
               <g id="resetDef">
                       <use xlink:href="#rim2" fill="#404040">
                               <set attributeName="fill" to="#808080" begin="reset.mouseover" end="reset.mouseout"/>
                       </use>
               </g>
        </defs>

<script type="text/javascript">
var viewWidth = 550;
var viewHeight = 286;
var sectionId = 'dynsection-0';
</script>
<script xlink:href="svgpan.js"/>
<svg id="graph" class="graph">
<g id="viewport">
<title>precode_matrix_gen</title>
<!-- Node0 -->
<g id="node1" class="node"><title>Node0</title>
<polygon fill="#bfbfbf" stroke="black" points="0,-125.5 0,-144.5 104,-144.5 104,-125.5 0,-125.5"/>
<text text-anchor="middle" x="52" y="-132.5" font-family="Helvetica,sans-Serif" font-size="10.00">precode_matrix_gen</text>
</g>
<!-- Node1 -->
<g id="node2" class="node"><title>Node1</title>
<g id="a_node2"><a xlink:href="octmat_8c_a0db07e8a815b999f9837c74c31213cdb.html#a0db07e8a815b999f9837c74c31213cdb" target="_top" xlink:title="om_resize">
<polygon fill="none" stroke="black" points="480,-104.5 480,-123.5 542,-123.5 542,-104.5 480,-104.5"/>
<text text-anchor="middle" x="511" y="-111.5" font-family="Helvetica,sans-Serif" font-size="10.00">om_resize</text>
</a>
</g>
</g>
<!-- Node0&#45;&gt;Node1 -->
<g id="edge1" class="edge"><title>Node0&#45;&gt;Node1</title>
<path fill="none" stroke="midnightblue" d="M58.1041,-144.771C69.5076,-165.394 99.286,-212.951 140,-231 263.518,-285.756 327.329,-299.139 444,-231 480.108,-209.912 498.012,-160.971 505.5,-133.537"/>
<polygon fill="midnightblue" stroke="midnightblue" points="508.967,-134.104 508.022,-123.551 502.18,-132.39 508.967,-134.104"/>
</g>
<!-- Node2 -->
<g id="node3" class="node"><title>Node2</title>
<g id="a_node3"><a xlink:href="precode_8c_a7fb81075ad77cf8790ba330c7fc6c221.html#a7fb81075ad77cf8790ba330c7fc6c221" target="_top" xlink:title="precode_matrix_add\l_G_ENC">
<polygon fill="none" stroke="black" points="156,-191 156,-221 260,-221 260,-191 156,-191"/>
<text text-anchor="start" x="164" y="-209" font-family="Helvetica,sans-Serif" font-size="10.00">precode_matrix_add</text>
<text text-anchor="middle" x="208" y="-198" font-family="Helvetica,sans-Serif" font-size="10.00">_G_ENC</text>
</a>
</g>
</g>
<!-- Node0&#45;&gt;Node2 -->
<g id="edge2" class="edge"><title>Node0&#45;&gt;Node2</title>
<path fill="none" stroke="midnightblue" d="M68.9852,-144.588C86.1621,-154.662 114.445,-170.599 140,-182 144.044,-183.804 148.27,-185.574 152.546,-187.283"/>
<polygon fill="midnightblue" stroke="midnightblue" points="151.35,-190.573 161.939,-190.919 153.876,-184.045 151.35,-190.573"/>
</g>
<!-- Node4 -->
<g id="node5" class="node"><title>Node4</title>
<g id="a_node5"><a xlink:href="precode_8c_af2734c7ddac33888abcc52e10df15665.html#af2734c7ddac33888abcc52e10df15665" target="_top" xlink:title="precode_matrix_add\l_identity">
<polygon fill="none" stroke="black" points="156,-142 156,-172 260,-172 260,-142 156,-142"/>
<text text-anchor="start" x="164" y="-160" font-family="Helvetica,sans-Serif" font-size="10.00">precode_matrix_add</text>
<text text-anchor="middle" x="208" y="-149" font-family="Helvetica,sans-Serif" font-size="10.00">_identity</text>
</a>
</g>
</g>
<!-- Node0&#45;&gt;Node4 -->
<g id="edge4" class="edge"><title>Node0&#45;&gt;Node4</title>
<path fill="none" stroke="midnightblue" d="M104.28,-142.326C117.657,-144.237 132.205,-146.315 146.031,-148.29"/>
<polygon fill="midnightblue" stroke="midnightblue" points="145.55,-151.757 155.944,-149.706 146.54,-144.827 145.55,-151.757"/>
</g>
<!-- Node5 -->
<g id="node6" class="node"><title>Node5</title>
<g id="a_node6"><a xlink:href="precode_8c_a64e2c5739177d2991dea9ab54f2469b6.html#a64e2c5739177d2991dea9ab54f2469b6" target="_top" xlink:title="precode_matrix_init_HDPC">
<polygon fill="none" stroke="black" points="140,-103.5 140,-122.5 276,-122.5 276,-103.5 140,-103.5"/>
<text text-anchor="middle" x="208" y="-110.5" font-family="Helvetica,sans-Serif" font-size="10.00">precode_matrix_init_HDPC</text>
</a>
</g>
</g>
<!-- Node0&#45;&gt;Node5 -->
<g id="edge5" class="edge"><title>Node0&#45;&gt;Node5</title>
<path fill="none" stroke="midnightblue" d="M104.28,-127.674C112.671,-126.476 121.523,-125.211 130.369,-123.947"/>
<polygon fill="midnightblue" stroke="midnightblue" points="130.924,-127.404 140.328,-122.525 129.934,-120.474 130.924,-127.404"/>
</g>
<!-- Node11 -->
<g id="node12" class="node"><title>Node11</title>
<g id="a_node12"><a xlink:href="precode_8c_a39d289c7bff03b667e282e44b3decb5f.html#a39d289c7bff03b667e282e44b3decb5f" target="_top" xlink:title="precode_matrix_init\l_LDPC1">
<polygon fill="none" stroke="black" points="157.5,-54 157.5,-84 258.5,-84 258.5,-54 157.5,-54"/>
<text text-anchor="start" x="165.5" y="-72" font-family="Helvetica,sans-Serif" font-size="10.00">precode_matrix_init</text>
<text text-anchor="middle" x="208" y="-61" font-family="Helvetica,sans-Serif" font-size="10.00">_LDPC1</text>
</a>
</g>
</g>
<!-- Node0&#45;&gt;Node11 -->
<g id="edge14" class="edge"><title>Node0&#45;&gt;Node11</title>
<path fill="none" stroke="midnightblue" d="M72.1428,-125.415C89.6335,-116.793 116.304,-103.984 140,-94 145.006,-91.891 150.257,-89.7727 155.524,-87.7098"/>
<polygon fill="midnightblue" stroke="midnightblue" points="156.899,-90.9311 164.972,-84.0706 154.383,-84.3989 156.899,-90.9311"/>
</g>
<!-- Node12 -->
<g id="node13" class="node"><title>Node12</title>
<g id="a_node13"><a xlink:href="precode_8c_a992134f8be1689ebd0d9aea6fafe217a.html#a992134f8be1689ebd0d9aea6fafe217a" target="_top" xlink:title="precode_matrix_init\l_LDPC2">
<polygon fill="none" stroke="black" points="157.5,-5 157.5,-35 258.5,-35 258.5,-5 157.5,-5"/>
<text text-anchor="start" x="165.5" y="-23" font-family="Helvetica,sans-Serif" font-size="10.00">precode_matrix_init</text>
<text text-anchor="middle" x="208" y="-12" font-family="Helvetica,sans-Serif" font-size="10.00">_LDPC2</text>
</a>
</g>
</g>
<!-- Node0&#45;&gt;Node12 -->
<g id="edge15" class="edge"><title>Node0&#45;&gt;Node12</title>
<path fill="none" stroke="midnightblue" d="M59.7854,-125.353C73.138,-107.029 104.62,-66.9737 140,-44 142.61,-42.3051 145.355,-40.7115 148.183,-39.2155"/>
<polygon fill="midnightblue" stroke="midnightblue" points="149.941,-42.2542 157.436,-34.7658 146.907,-35.9458 149.941,-42.2542"/>
</g>
<!-- Node3 -->
<g id="node4" class="node"><title>Node3</title>
<g id="a_node4"><a xlink:href="params_8c_a5e51228448fbdf5e0d4310916b8eea93.html#a5e51228448fbdf5e0d4310916b8eea93" target="_top" xlink:title="params_get_idxs">
<polygon fill="none" stroke="black" points="332.5,-202.5 332.5,-221.5 423.5,-221.5 423.5,-202.5 332.5,-202.5"/>
<text text-anchor="middle" x="378" y="-209.5" font-family="Helvetica,sans-Serif" font-size="10.00">params_get_idxs</text>
</a>
</g>
</g>
<!-- Node2&#45;&gt;Node3 -->
<g id="edge3" class="edge"><title>Node2&#45;&gt;Node3</title>
<path fill="none" stroke="midnightblue" d="M260.318,-207.833C279.875,-208.531 302.232,-209.33 322.108,-210.04"/>
<polygon fill="midnightblue" stroke="midnightblue" points="322.129,-213.542 332.248,-210.402 322.379,-206.547 322.129,-213.542"/>
</g>
<!-- Node5&#45;&gt;Node1 -->
<g id="edge8" class="edge"><title>Node5&#45;&gt;Node1</title>
<path fill="none" stroke="midnightblue" d="M247.181,-122.542C256.767,-125.439 266.908,-128.947 276,-133 293.127,-140.634 293.95,-149.921 312,-155 368.474,-170.89 387.585,-171.096 444,-155 461.118,-150.116 478.127,-139.372 490.589,-130.107"/>
<polygon fill="midnightblue" stroke="midnightblue" points="493.049,-132.628 498.797,-123.728 488.754,-127.101 493.049,-132.628"/>
</g>
<!-- Node6 -->
<g id="node7" class="node"><title>Node6</title>
<g id="a_node7"><a xlink:href="oblas_8h_a85e2604cc8aec26b591370ab48307bcc.html#a85e2604cc8aec26b591370ab48307bcc" target="_top" xlink:title="ogemm">
<polygon fill="none" stroke="black" points="353.5,-126.5 353.5,-145.5 402.5,-145.5 402.5,-126.5 353.5,-126.5"/>
<text text-anchor="middle" x="378" y="-133.5" font-family="Helvetica,sans-Serif" font-size="10.00">ogemm</text>
</a>
</g>
</g>
<!-- Node5&#45;&gt;Node6 -->
<g id="edge6" class="edge"><title>Node5&#45;&gt;Node6</title>
<path fill="none" stroke="midnightblue" d="M276.364,-122.222C299.317,-125.365 323.996,-128.744 343.171,-131.369"/>
<polygon fill="midnightblue" stroke="midnightblue" points="342.829,-134.854 353.211,-132.743 343.778,-127.919 342.829,-134.854"/>
</g>
<!-- Node7 -->
<g id="node8" class="node"><title>Node7</title>
<g id="a_node8"><a xlink:href="octmat_8c_ac7854c0635a9441a5a352f95dbbd7bbd.html#ac7854c0635a9441a5a352f95dbbd7bbd" target="_top" xlink:title="om_destroy">
<polygon fill="none" stroke="black" points="344,-88.5 344,-107.5 412,-107.5 412,-88.5 344,-88.5"/>
<text text-anchor="middle" x="378" y="-95.5" font-family="Helvetica,sans-Serif" font-size="10.00">om_destroy</text>
</a>
</g>
</g>
<!-- Node5&#45;&gt;Node7 -->
<g id="edge7" class="edge"><title>Node5&#45;&gt;Node7</title>
<path fill="none" stroke="midnightblue" d="M276.364,-106.985C295.566,-105.271 315.975,-103.449 333.36,-101.896"/>
<polygon fill="midnightblue" stroke="midnightblue" points="334.106,-105.344 343.755,-100.968 333.484,-98.3716 334.106,-105.344"/>
</g>
<!-- Node8 -->
<g id="node9" class="node"><title>Node8</title>
<g id="a_node9"><a xlink:href="precode_8c_a88ec15cf62d897ab1df189175429c7f8.html#a88ec15cf62d897ab1df189175429c7f8" target="_top" xlink:title="precode_matrix_make\l_GAMMA">
<polygon fill="none" stroke="black" points="321.5,-39 321.5,-69 434.5,-69 434.5,-39 321.5,-39"/>
<text text-anchor="start" x="329.5" y="-57" font-family="Helvetica,sans-Serif" font-size="10.00">precode_matrix_make</text>
<text text-anchor="middle" x="378" y="-46" font-family="Helvetica,sans-Serif" font-size="10.00">_GAMMA</text>
</a>
</g>
</g>
<!-- Node5&#45;&gt;Node8 -->
<g id="edge9" class="edge"><title>Node5&#45;&gt;Node8</title>
<path fill="none" stroke="midnightblue" d="M245.757,-103.423C255.65,-100.616 266.296,-97.3842 276,-94 292.367,-88.2922 295.909,-85.4451 312,-79 317.121,-76.9488 322.481,-74.8347 327.832,-72.7452"/>
<polygon fill="midnightblue" stroke="midnightblue" points="329.347,-75.9118 337.402,-69.0297 326.813,-69.3864 329.347,-75.9118"/>
</g>
<!-- Node9 -->
<g id="node10" class="node"><title>Node9</title>
<g id="a_node10"><a xlink:href="precode_8c_a291ab32ffee6435673b4693d8c74952f.html#a291ab32ffee6435673b4693d8c74952f" target="_top" xlink:title="precode_matrix_make_MT">
<polygon fill="none" stroke="black" points="312,-0.5 312,-19.5 444,-19.5 444,-0.5 312,-0.5"/>
<text text-anchor="middle" x="378" y="-7.5" font-family="Helvetica,sans-Serif" font-size="10.00">precode_matrix_make_MT</text>
</a>
</g>
</g>
<!-- Node5&#45;&gt;Node9 -->
<g id="edge11" class="edge"><title>Node5&#45;&gt;Node9</title>
<path fill="none" stroke="midnightblue" d="M259.447,-103.477C265.386,-101.012 271.075,-97.9075 276,-94 301.871,-73.4755 286.212,-49.6286 312,-29 314.281,-27.1755 316.731,-25.5261 319.297,-24.0351"/>
<polygon fill="midnightblue" stroke="midnightblue" points="320.964,-27.1151 328.384,-19.5515 317.867,-20.8377 320.964,-27.1151"/>
</g>
<!-- Node8&#45;&gt;Node1 -->
<g id="edge10" class="edge"><title>Node8&#45;&gt;Node1</title>
<path fill="none" stroke="midnightblue" d="M420.572,-69.1318C428.424,-72.2309 436.518,-75.5922 444,-79 457.505,-85.1508 472.121,-92.7947 484.158,-99.3686"/>
<polygon fill="midnightblue" stroke="midnightblue" points="482.744,-102.586 493.188,-104.362 486.131,-96.46 482.744,-102.586"/>
</g>
<!-- Node9&#45;&gt;Node1 -->
<g id="edge12" class="edge"><title>Node9&#45;&gt;Node1</title>
<path fill="none" stroke="midnightblue" d="M425.046,-19.5051C431.721,-21.985 438.265,-25.0978 444,-29 469.239,-46.1734 489.146,-76.0515 500.247,-95.4205"/>
<polygon fill="midnightblue" stroke="midnightblue" points="497.208,-97.1588 505.102,-104.226 503.338,-93.7788 497.208,-97.1588"/>
</g>
<!-- Node10 -->
<g id="node11" class="node"><title>Node10</title>
<g id="a_node11"><a xlink:href="rand_8h_acd60cf6a4df3a81ef6cad8f6e6ae715d.html#acd60cf6a4df3a81ef6cad8f6e6ae715d" target="_top" xlink:title="rnd_get">
<polygon fill="none" stroke="black" points="486.5,-0.5 486.5,-19.5 535.5,-19.5 535.5,-0.5 486.5,-0.5"/>
<text text-anchor="middle" x="511" y="-7.5" font-family="Helvetica,sans-Serif" font-size="10.00">rnd_get</text>
</a>
</g>
</g>
<!-- Node9&#45;&gt;Node10 -->
<g id="edge13" class="edge"><title>Node9&#45;&gt;Node10</title>
<path fill="none" stroke="midnightblue" d="M444.116,-10C455.245,-10 466.389,-10 476.262,-10"/>
<polygon fill="midnightblue" stroke="midnightblue" points="476.417,-13.5001 486.417,-10 476.417,-6.5001 476.417,-13.5001"/>
</g>
</g>
</svg>
        <g id="navigator" transform="translate(0 0)" fill="#404254">
                <rect fill="#f2f5e9" fill-opacity="0.5" stroke="#606060" stroke-width=".5" x="0" y="0" width="60" height="60"/>
                <use id="zoomplus" xlink:href="#zoomPlus" x="17" y="9" onmousedown="handleZoom(evt,'in')"/>
                <use id="zoomminus" xlink:href="#zoomMin" x="42" y="9" onmousedown="handleZoom(evt,'out')"/>
                <use id="reset" xlink:href="#resetDef" x="30" y="36" onmousedown="handleReset()"/>
                <g id="arrowUp" xlink:href="#dirArrow" transform="translate(30 24)" onmousedown="handlePan(0,-1)">
                  <use xlink:href="#rim" fill="#404040">
                        <set attributeName="fill" to="#808080" begin="arrowUp.mouseover" end="arrowUp.mouseout"/>
                  </use>
                  <path fill="none" stroke="white" stroke-width="1.5" d="M0,-3.0v7 M-2.5,-0.5L0,-3.0L2.5,-0.5"/>
                </g>
                <g id="arrowRight" xlink:href="#dirArrow" transform="rotate(90) translate(36 -43)" onmousedown="handlePan(1,0)">
                  <use xlink:href="#rim" fill="#404040">
                        <set attributeName="fill" to="#808080" begin="arrowRight.mouseover" end="arrowRight.mouseout"/>
                  </use>
                  <path fill="none" stroke="white" stroke-width="1.5" d="M0,-3.0v7 M-2.5,-0.5L0,-3.0L2.5,-0.5"/>
                </g>
                <g id="arrowDown" xlink:href="#dirArrow" transform="rotate(180) translate(-30 -48)" onmousedown="handlePan(0,1)">
                  <use xlink:href="#rim" fill="#404040">
                        <set attributeName="fill" to="#808080" begin="arrowDown.mouseover" end="arrowDown.mouseout"/>
                  </use>
                  <path fill="none" stroke="white" stroke-width="1.5" d="M0,-3.0v7 M-2.5,-0.5L0,-3.0L2.5,-0.5"/>
                </g>
                <g id="arrowLeft" xlink:href="#dirArrow" transform="rotate(270) translate(-36 17)" onmousedown="handlePan(-1,0)">
                  <use xlink:href="#rim" fill="#404040">
                        <set attributeName="fill" to="#808080" begin="arrowLeft.mouseover" end="arrowLeft.mouseout"/>
                  </use>
                  <path fill="none" stroke="white" stroke-width="1.5" d="M0,-3.0v7 M-2.5,-0.5L0,-3.0L2.5,-0.5"/>
                </g>
        </g>
        <svg viewBox="0 0 15 15" width="100%" height="30px" preserveAspectRatio="xMaxYMin meet">
         <g id="arrow_out" transform="scale(0.3 0.3)">
          <a xlink:href="precode_8h_a85c0aa4f7900eccf336228d43b7c133c_a85c0aa4f7900eccf336228d43b7c133c_cgraph_org.svg" target="_base">
           <rect id="button" ry="5" rx="5" y="6" x="6" height="38" width="38"
                fill="#f2f5e9" fill-opacity="0.5" stroke="#606060" stroke-width="1.0"/>
           <path id="arrow"
             d="M 11.500037,31.436501 C 11.940474,20.09759 22.043105,11.32322 32.158766,21.979434 L 37.068811,17.246167 C 37.068811,17.246167 37.088388,32 37.088388,32 L 22.160133,31.978069 C 22.160133,31.978069 26.997745,27.140456 26.997745,27.140456 C 18.528582,18.264221 13.291696,25.230495 11.500037,31.436501 z"
             style="fill:#404040;"/>
          </a>
         </g>
        </svg>
</svg>
