<?xml version="1.0" encoding="UTF-8" standalone="no"?>
<!DOCTYPE svg PUBLIC "-//W3C//DTD SVG 1.1//EN"
 "http://www.w3.org/Graphics/SVG/1.1/DTD/svg11.dtd">
<!-- Generated by graphviz version 2.38.0 (20140413.2041)
 -->
<!-- Title: decode_phase2 Pages: 1 -->
<svg width="190pt" height="104pt"
 viewBox="0.00 0.00 190.00 104.00" xmlns="http://www.w3.org/2000/svg" xmlns:xlink="http://www.w3.org/1999/xlink">
<g id="graph0" class="graph" transform="scale(1 1) rotate(0) translate(4 100)">
<title>decode_phase2</title>
<!-- Node0 -->
<g id="node1" class="node"><title>Node0</title>
<polygon fill="#bfbfbf" stroke="black" points="0,-38.5 0,-57.5 85,-57.5 85,-38.5 0,-38.5"/>
<text text-anchor="middle" x="42.5" y="-45.5" font-family="Helvetica,sans-Serif" font-size="10.00">decode_phase2</text>
</g>
<!-- Node1 -->
<g id="node2" class="node"><title>Node1</title>
<g id="a_node2"><a xlink:href="oblas_8h_a962c3db45b173ccbaf6418d5894409be.html#a962c3db45b173ccbaf6418d5894409be" target="_top" xlink:title="oaxpy">
<polygon fill="none" stroke="black" points="130,-76.5 130,-95.5 173,-95.5 173,-76.5 130,-76.5"/>
<text text-anchor="middle" x="151.5" y="-83.5" font-family="Helvetica,sans-Serif" font-size="10.00">oaxpy</text>
</a>
</g>
</g>
<!-- Node0&#45;&gt;Node1 -->
<g id="edge1" class="edge"><title>Node0&#45;&gt;Node1</title>
<path fill="none" stroke="midnightblue" d="M70.5006,-57.589C85.6347,-62.9637 104.554,-69.6826 120.193,-75.2369"/>
<polygon fill="midnightblue" stroke="midnightblue" points="119.33,-78.6444 129.925,-78.6929 121.673,-72.048 119.33,-78.6444"/>
</g>
<!-- Node2 -->
<g id="node3" class="node"><title>Node2</title>
<g id="a_node3"><a xlink:href="oblas_8h_abfa7ba50070fbebe1ea2e0e2fc3f913b.html#abfa7ba50070fbebe1ea2e0e2fc3f913b" target="_top" xlink:title="oscal">
<polygon fill="none" stroke="black" points="131.5,-38.5 131.5,-57.5 171.5,-57.5 171.5,-38.5 131.5,-38.5"/>
<text text-anchor="middle" x="151.5" y="-45.5" font-family="Helvetica,sans-Serif" font-size="10.00">oscal</text>
</a>
</g>
</g>
<!-- Node0&#45;&gt;Node2 -->
<g id="edge2" class="edge"><title>Node0&#45;&gt;Node2</title>
<path fill="none" stroke="midnightblue" d="M85.1754,-48C97.2707,-48 110.215,-48 121.364,-48"/>
<polygon fill="midnightblue" stroke="midnightblue" points="121.417,-51.5001 131.417,-48 121.417,-44.5001 121.417,-51.5001"/>
</g>
<!-- Node3 -->
<g id="node4" class="node"><title>Node3</title>
<g id="a_node4"><a xlink:href="oblas_8h_ad0978d40d1e2a78b8ff34f3d0d376dd3.html#ad0978d40d1e2a78b8ff34f3d0d376dd3" target="_top" xlink:title="oswaprow">
<polygon fill="none" stroke="black" points="121,-0.5 121,-19.5 182,-19.5 182,-0.5 121,-0.5"/>
<text text-anchor="middle" x="151.5" y="-7.5" font-family="Helvetica,sans-Serif" font-size="10.00">oswaprow</text>
</a>
</g>
</g>
<!-- Node0&#45;&gt;Node3 -->
<g id="edge3" class="edge"><title>Node0&#45;&gt;Node3</title>
<path fill="none" stroke="midnightblue" d="M70.5006,-38.411C83.6797,-33.7306 99.729,-28.0308 113.984,-22.9685"/>
<polygon fill="midnightblue" stroke="midnightblue" points="115.256,-26.2308 123.508,-19.5859 112.913,-19.6344 115.256,-26.2308"/>
</g>
</g>
</svg>
