<?xml version="1.0" encoding="UTF-8" standalone="no"?>
<!DOCTYPE svg PUBLIC "-//W3C//DTD SVG 1.1//EN"
 "http://www.w3.org/Graphics/SVG/1.1/DTD/svg11.dtd">
<!-- Generated by graphviz version 2.38.0 (20140413.2041)
 -->
<!-- Title: precode_matrix_intermediate2 Pages: 1 -->
<!--zoomable 750 -->
<svg id="main" version="1.1" xmlns="http://www.w3.org/2000/svg" xmlns:xlink="http://www.w3.org/1999/xlink" xml:space="preserve" onload="init(evt)">
<style type="text/css"><![CDATA[
.edge:hover path { stroke: red; }
.edge:hover polygon { stroke: red; fill: red; }
]]></style>
<script type="text/javascript"><![CDATA[
var edges = document.getElementsByTagName('g');
if (edges && edges.length) {
  for (var i=0;i<edges.length;i++) {
    if (edges[i].id.substr(0,4)=='edge') {
      edges[i].setAttribute('class','edge');
    }
  }
}
]]></script>
        <defs>
                <circle id="rim" cx="0" cy="0" r="7"/>
                <circle id="rim2" cx="0" cy="0" r="3.5"/>
                <g id="zoomPlus">
                        <use xlink:href="#rim" fill="#404040">
                                <set attributeName="fill" to="#808080" begin="zoomplus.mouseover" end="zoomplus.mouseout"/>
                        </use>
                        <path d="M-4,0h8M0,-4v8" fill="none" stroke="white" stroke-width="1.5" pointer-events="none"/>
                </g>
                <g id="zoomMin">
                        <use xlink:href="#rim" fill="#404040">
                                <set attributeName="fill" to="#808080" begin="zoomminus.mouseover" end="zoomminus.mouseout"/>
                        </use>
                        <path d="M-4,0h8" fill="none" stroke="white" stroke-width="1.5" pointer-events="none"/>
                </g>
                <g id="dirArrow">
                        <path fill="none" stroke="white" stroke-width="1.5" d="M0,-3.0v7 M-2.5,-0.5L0,-3.0L2.5,-0.5"/>
                </g>
               <g id="resetDef">
                       <use xlink:href="#rim2" fill="#404040">
                               <set attributeName="fill" to="#808080" begin="reset.mouseover" end="reset.mouseout"/>
                       </use>
               </g>
        </defs>

<script type="text/javascript">
var viewWidth = 845;
var viewHeight = 750;
var sectionId = 'dynsection-0';
</script>
<script xlink:href="svgpan.js"/>
<svg id="graph" class="graph">
<g id="viewport">
<title>precode_matrix_intermediate2</title>
<!-- Node0 -->
<g id="node1" class="node"><title>Node0</title>
<polygon fill="#bfbfbf" stroke="black" points="0,-560.5 0,-579.5 147,-579.5 147,-560.5 0,-560.5"/>
<text text-anchor="middle" x="73.5" y="-567.5" font-family="Helvetica,sans-Serif" font-size="10.00">precode_matrix_intermediate2</text>
</g>
<!-- Node1 -->
<g id="node2" class="node"><title>Node1</title>
<g id="a_node2"><a xlink:href="bitmask_8h_ad67256bcd0a6b5b9e739bc889e22a45b.html#ad67256bcd0a6b5b9e739bc889e22a45b" target="_top" xlink:title="bitmask_check">
<polygon fill="none" stroke="black" points="370,-722.5 370,-741.5 453,-741.5 453,-722.5 370,-722.5"/>
<text text-anchor="middle" x="411.5" y="-729.5" font-family="Helvetica,sans-Serif" font-size="10.00">bitmask_check</text>
</a>
</g>
</g>
<!-- Node0&#45;&gt;Node1 -->
<g id="edge1" class="edge"><title>Node0&#45;&gt;Node1</title>
<path fill="none" stroke="midnightblue" d="M78.6611,-579.502C90.5664,-605.401 127.515,-677.341 183,-708 237.732,-738.243 311.194,-740.363 359.645,-737.514"/>
<polygon fill="midnightblue" stroke="midnightblue" points="360.15,-740.988 369.889,-736.816 359.674,-734.004 360.15,-740.988"/>
</g>
<!-- Node2 -->
<g id="node3" class="node"><title>Node2</title>
<g id="a_node3"><a xlink:href="bitmask_8h_a3b8b7d670ea2a2526b93623a8681341a.html#a3b8b7d670ea2a2526b93623a8681341a" target="_top" xlink:title="bitmask_gaps">
<polygon fill="none" stroke="black" points="373,-684.5 373,-703.5 450,-703.5 450,-684.5 373,-684.5"/>
<text text-anchor="middle" x="411.5" y="-691.5" font-family="Helvetica,sans-Serif" font-size="10.00">bitmask_gaps</text>
</a>
</g>
</g>
<!-- Node0&#45;&gt;Node2 -->
<g id="edge2" class="edge"><title>Node0&#45;&gt;Node2</title>
<path fill="none" stroke="midnightblue" d="M94.6578,-579.601C116.265,-589.731 151.691,-605.876 183,-618 247.215,-642.867 323.398,-667.32 369.291,-681.518"/>
<polygon fill="midnightblue" stroke="midnightblue" points="368.301,-684.875 378.888,-684.473 370.361,-678.185 368.301,-684.875"/>
</g>
<!-- Node3 -->
<g id="node4" class="node"><title>Node3</title>
<g id="a_node4"><a xlink:href="precode_8c_aba331164c0af3eef69c0ac91d8fe2eba.html#aba331164c0af3eef69c0ac91d8fe2eba" target="_top" xlink:title="decode_phase0">
<polygon fill="none" stroke="black" points="214,-679.5 214,-698.5 299,-698.5 299,-679.5 214,-679.5"/>
<text text-anchor="middle" x="256.5" y="-686.5" font-family="Helvetica,sans-Serif" font-size="10.00">decode_phase0</text>
</a>
</g>
</g>
<!-- Node0&#45;&gt;Node3 -->
<g id="edge3" class="edge"><title>Node0&#45;&gt;Node3</title>
<path fill="none" stroke="midnightblue" d="M83.8804,-579.559C101.775,-597.366 142.612,-635.983 183,-660 193.274,-666.109 205.071,-671.451 216.123,-675.828"/>
<polygon fill="midnightblue" stroke="midnightblue" points="214.996,-679.144 225.587,-679.422 217.481,-672.6 214.996,-679.144"/>
</g>
<!-- Node5 -->
<g id="node6" class="node"><title>Node5</title>
<g id="a_node6"><a xlink:href="oblas_8h_a1b5ea186506d2e5d84ba3cc292043e21.html#a1b5ea186506d2e5d84ba3cc292043e21" target="_top" xlink:title="ocopy">
<polygon fill="none" stroke="black" points="390,-456.5 390,-475.5 433,-475.5 433,-456.5 390,-456.5"/>
<text text-anchor="middle" x="411.5" y="-463.5" font-family="Helvetica,sans-Serif" font-size="10.00">ocopy</text>
</a>
</g>
</g>
<!-- Node0&#45;&gt;Node5 -->
<g id="edge7" class="edge"><title>Node0&#45;&gt;Node5</title>
<path fill="none" stroke="midnightblue" d="M83.8728,-560.275C101.441,-542.746 141.328,-506.174 183,-490 249.528,-464.179 334.744,-462.782 379.638,-464.243"/>
<polygon fill="midnightblue" stroke="midnightblue" points="379.757,-467.75 389.888,-464.651 380.035,-460.756 379.757,-467.75"/>
</g>
<!-- Node6 -->
<g id="node7" class="node"><title>Node6</title>
<g id="a_node7"><a xlink:href="octmat_8c_ac7854c0635a9441a5a352f95dbbd7bbd.html#ac7854c0635a9441a5a352f95dbbd7bbd" target="_top" xlink:title="om_destroy">
<polygon fill="none" stroke="black" points="525.5,-456.5 525.5,-475.5 593.5,-475.5 593.5,-456.5 525.5,-456.5"/>
<text text-anchor="middle" x="559.5" y="-463.5" font-family="Helvetica,sans-Serif" font-size="10.00">om_destroy</text>
</a>
</g>
</g>
<!-- Node0&#45;&gt;Node6 -->
<g id="edge8" class="edge"><title>Node0&#45;&gt;Node6</title>
<path fill="none" stroke="midnightblue" d="M108.083,-560.429C129.446,-554.488 157.746,-546.891 183,-541 246.081,-526.286 430.71,-490.514 515.285,-474.27"/>
<polygon fill="midnightblue" stroke="midnightblue" points="516.169,-477.664 525.33,-472.342 514.849,-470.79 516.169,-477.664"/>
</g>
<!-- Node7 -->
<g id="node8" class="node"><title>Node7</title>
<g id="a_node8"><a xlink:href="octmat_8c_a0db07e8a815b999f9837c74c31213cdb.html#a0db07e8a815b999f9837c74c31213cdb" target="_top" xlink:title="om_resize">
<polygon fill="none" stroke="black" points="528.5,-513.5 528.5,-532.5 590.5,-532.5 590.5,-513.5 528.5,-513.5"/>
<text text-anchor="middle" x="559.5" y="-520.5" font-family="Helvetica,sans-Serif" font-size="10.00">om_resize</text>
</a>
</g>
</g>
<!-- Node0&#45;&gt;Node7 -->
<g id="edge9" class="edge"><title>Node0&#45;&gt;Node7</title>
<path fill="none" stroke="midnightblue" d="M147.222,-562.938C250.517,-552.907 436.251,-534.871 518.002,-526.933"/>
<polygon fill="midnightblue" stroke="midnightblue" points="518.753,-530.376 528.368,-525.926 518.076,-523.409 518.753,-530.376"/>
</g>
<!-- Node8 -->
<g id="node9" class="node"><title>Node8</title>
<g id="a_node9"><a xlink:href="precode_8c_ac563a7861b8d34580909af77f063ea66.html#ac563a7861b8d34580909af77f063ea66" target="_top" xlink:title="precode_matrix_encode">
<polygon fill="none" stroke="black" points="196.5,-589.5 196.5,-608.5 316.5,-608.5 316.5,-589.5 196.5,-589.5"/>
<text text-anchor="middle" x="256.5" y="-596.5" font-family="Helvetica,sans-Serif" font-size="10.00">precode_matrix_encode</text>
</a>
</g>
</g>
<!-- Node0&#45;&gt;Node8 -->
<g id="edge10" class="edge"><title>Node0&#45;&gt;Node8</title>
<path fill="none" stroke="midnightblue" d="M134.017,-579.536C150.726,-582.213 169.039,-585.147 186.262,-587.907"/>
<polygon fill="midnightblue" stroke="midnightblue" points="185.829,-591.382 196.256,-589.508 186.936,-584.47 185.829,-591.382"/>
</g>
<!-- Node10 -->
<g id="node11" class="node"><title>Node10</title>
<g id="a_node11"><a xlink:href="precode_8c_a262ba8efa6b500c1e7a3cb0451245291.html#a262ba8efa6b500c1e7a3cb0451245291" target="_top" xlink:title="precode_matrix_intermediate1">
<polygon fill="none" stroke="black" points="183,-323.5 183,-342.5 330,-342.5 330,-323.5 183,-323.5"/>
<text text-anchor="middle" x="256.5" y="-330.5" font-family="Helvetica,sans-Serif" font-size="10.00">precode_matrix_intermediate1</text>
</a>
</g>
</g>
<!-- Node0&#45;&gt;Node10 -->
<g id="edge14" class="edge"><title>Node0&#45;&gt;Node10</title>
<path fill="none" stroke="midnightblue" d="M81.8196,-560.416C109.22,-524.538 205.997,-397.819 241.934,-350.763"/>
<polygon fill="midnightblue" stroke="midnightblue" points="244.801,-352.775 248.089,-342.703 239.238,-348.527 244.801,-352.775"/>
</g>
<!-- Node3&#45;&gt;Node1 -->
<g id="edge4" class="edge"><title>Node3&#45;&gt;Node1</title>
<path fill="none" stroke="midnightblue" d="M291.456,-698.543C313.641,-704.778 342.826,-712.981 366.746,-719.703"/>
<polygon fill="midnightblue" stroke="midnightblue" points="366.065,-723.147 376.639,-722.484 367.959,-716.408 366.065,-723.147"/>
</g>
<!-- Node3&#45;&gt;Node2 -->
<g id="edge5" class="edge"><title>Node3&#45;&gt;Node2</title>
<path fill="none" stroke="midnightblue" d="M299.308,-690.366C318.987,-691.009 342.553,-691.779 362.914,-692.445"/>
<polygon fill="midnightblue" stroke="midnightblue" points="362.816,-695.943 372.925,-692.772 363.045,-688.947 362.816,-695.943"/>
</g>
<!-- Node4 -->
<g id="node5" class="node"><title>Node4</title>
<g id="a_node5"><a xlink:href="params_8c_a5e51228448fbdf5e0d4310916b8eea93.html#a5e51228448fbdf5e0d4310916b8eea93" target="_top" xlink:title="params_get_idxs">
<polygon fill="none" stroke="black" points="366,-646.5 366,-665.5 457,-665.5 457,-646.5 366,-646.5"/>
<text text-anchor="middle" x="411.5" y="-653.5" font-family="Helvetica,sans-Serif" font-size="10.00">params_get_idxs</text>
</a>
</g>
</g>
<!-- Node3&#45;&gt;Node4 -->
<g id="edge6" class="edge"><title>Node3&#45;&gt;Node4</title>
<path fill="none" stroke="midnightblue" d="M299.308,-679.983C316.933,-676.181 337.674,-671.708 356.439,-667.66"/>
<polygon fill="midnightblue" stroke="midnightblue" points="357.299,-671.055 366.336,-665.526 355.823,-664.213 357.299,-671.055"/>
</g>
<!-- Node8&#45;&gt;Node4 -->
<g id="edge13" class="edge"><title>Node8&#45;&gt;Node4</title>
<path fill="none" stroke="midnightblue" d="M283.109,-608.541C308.373,-617.953 347.19,-632.414 375.337,-642.9"/>
<polygon fill="midnightblue" stroke="midnightblue" points="374.215,-646.217 384.808,-646.428 376.659,-639.657 374.215,-646.217"/>
</g>
<!-- Node8&#45;&gt;Node7 -->
<g id="edge12" class="edge"><title>Node8&#45;&gt;Node7</title>
<path fill="none" stroke="midnightblue" d="M308.683,-589.463C349.189,-581.557 407.054,-569.464 457,-556 478.786,-550.127 502.812,-542.374 522.018,-535.859"/>
<polygon fill="midnightblue" stroke="midnightblue" points="523.259,-539.134 531.584,-532.582 520.99,-532.512 523.259,-539.134"/>
</g>
<!-- Node9 -->
<g id="node10" class="node"><title>Node9</title>
<g id="a_node10"><a xlink:href="oblas_8h_a06e2686eb0ba47ab72527cc2d8924583.html#a06e2686eb0ba47ab72527cc2d8924583" target="_top" xlink:title="oaddrow">
<polygon fill="none" stroke="black" points="385,-608.5 385,-627.5 438,-627.5 438,-608.5 385,-608.5"/>
<text text-anchor="middle" x="411.5" y="-615.5" font-family="Helvetica,sans-Serif" font-size="10.00">oaddrow</text>
</a>
</g>
</g>
<!-- Node8&#45;&gt;Node9 -->
<g id="edge11" class="edge"><title>Node8&#45;&gt;Node9</title>
<path fill="none" stroke="midnightblue" d="M316.654,-606.346C336.152,-608.767 357.238,-611.386 374.474,-613.526"/>
<polygon fill="midnightblue" stroke="midnightblue" points="374.304,-617.032 384.659,-614.791 375.167,-610.085 374.304,-617.032"/>
</g>
<!-- Node10&#45;&gt;Node5 -->
<g id="edge43" class="edge"><title>Node10&#45;&gt;Node5</title>
<path fill="none" stroke="midnightblue" d="M265.416,-342.687C282.318,-362.951 323.846,-410.539 366,-442 370.572,-445.413 375.692,-448.639 380.785,-451.555"/>
<polygon fill="midnightblue" stroke="midnightblue" points="379.343,-454.754 389.803,-456.439 382.677,-448.599 379.343,-454.754"/>
</g>
<!-- Node10&#45;&gt;Node6 -->
<g id="edge45" class="edge"><title>Node10&#45;&gt;Node6</title>
<path fill="none" stroke="midnightblue" d="M284.458,-342.591C331.63,-359.596 426.984,-395.022 457,-414 475.346,-425.6 474.08,-436.364 493,-447 499.967,-450.917 507.813,-454.089 515.592,-456.637"/>
<polygon fill="midnightblue" stroke="midnightblue" points="514.753,-460.039 525.336,-459.539 516.751,-453.33 514.753,-460.039"/>
</g>
<!-- Node10&#45;&gt;Node7 -->
<g id="edge46" class="edge"><title>Node10&#45;&gt;Node7</title>
<path fill="none" stroke="midnightblue" d="M269.669,-342.625C289.205,-357.791 329.122,-387.62 366,-408 404.513,-429.283 420.9,-421.841 457,-447 476.087,-460.302 474.751,-470.57 493,-485 504.229,-493.879 517.756,-502.08 529.595,-508.573"/>
<polygon fill="midnightblue" stroke="midnightblue" points="528.179,-511.784 538.651,-513.394 531.469,-505.605 528.179,-511.784"/>
</g>
<!-- Node11 -->
<g id="node12" class="node"><title>Node11</title>
<g id="a_node12"><a xlink:href="precode_8c_adde325d451f8ec9eb7f8f4542d81e884.html#adde325d451f8ec9eb7f8f4542d81e884" target="_top" xlink:title="decode_phase1">
<polygon fill="none" stroke="black" points="369,-209.5 369,-228.5 454,-228.5 454,-209.5 369,-209.5"/>
<text text-anchor="middle" x="411.5" y="-216.5" font-family="Helvetica,sans-Serif" font-size="10.00">decode_phase1</text>
</a>
</g>
</g>
<!-- Node10&#45;&gt;Node11 -->
<g id="edge15" class="edge"><title>Node10&#45;&gt;Node11</title>
<path fill="none" stroke="midnightblue" d="M270.282,-323.477C296.541,-303.911 356.801,-259.011 389.11,-234.937"/>
<polygon fill="midnightblue" stroke="midnightblue" points="391.503,-237.519 397.431,-228.738 387.32,-231.906 391.503,-237.519"/>
</g>
<!-- Node24 -->
<g id="node25" class="node"><title>Node24</title>
<g id="a_node25"><a xlink:href="precode_8c_a41bb3b163c071597877ad0de9bbbd756.html#a41bb3b163c071597877ad0de9bbbd756" target="_top" xlink:title="decode_phase2">
<polygon fill="none" stroke="black" points="369,-76.5 369,-95.5 454,-95.5 454,-76.5 369,-76.5"/>
<text text-anchor="middle" x="411.5" y="-83.5" font-family="Helvetica,sans-Serif" font-size="10.00">decode_phase2</text>
</a>
</g>
</g>
<!-- Node10&#45;&gt;Node24 -->
<g id="edge29" class="edge"><title>Node10&#45;&gt;Node24</title>
<path fill="none" stroke="midnightblue" d="M263.498,-323.317C286.443,-286.274 368.888,-153.178 399.208,-104.23"/>
<polygon fill="midnightblue" stroke="midnightblue" points="402.253,-105.96 404.544,-95.6158 396.302,-102.274 402.253,-105.96"/>
</g>
<!-- Node26 -->
<g id="node27" class="node"><title>Node26</title>
<g id="a_node27"><a xlink:href="precode_8c_a11824185dea7b498ffadaca55ae49090.html#a11824185dea7b498ffadaca55ae49090" target="_top" xlink:title="decode_phase3">
<polygon fill="none" stroke="black" points="369,-342.5 369,-361.5 454,-361.5 454,-342.5 369,-342.5"/>
<text text-anchor="middle" x="411.5" y="-349.5" font-family="Helvetica,sans-Serif" font-size="10.00">decode_phase3</text>
</a>
</g>
</g>
<!-- Node10&#45;&gt;Node26 -->
<g id="edge33" class="edge"><title>Node10&#45;&gt;Node26</title>
<path fill="none" stroke="midnightblue" d="M330.415,-342.055C340.034,-343.249 349.728,-344.453 358.888,-345.591"/>
<polygon fill="midnightblue" stroke="midnightblue" points="358.615,-349.084 368.97,-346.843 359.477,-342.137 358.615,-349.084"/>
</g>
<!-- Node28 -->
<g id="node29" class="node"><title>Node28</title>
<g id="a_node29"><a xlink:href="octmat_8c_a4d2ed06936f8e9cba88b6b37e5a23712.html#a4d2ed06936f8e9cba88b6b37e5a23712" target="_top" xlink:title="om_copy">
<polygon fill="none" stroke="black" points="531.5,-380.5 531.5,-399.5 587.5,-399.5 587.5,-380.5 531.5,-380.5"/>
<text text-anchor="middle" x="559.5" y="-387.5" font-family="Helvetica,sans-Serif" font-size="10.00">om_copy</text>
</a>
</g>
</g>
<!-- Node10&#45;&gt;Node28 -->
<g id="edge44" class="edge"><title>Node10&#45;&gt;Node28</title>
<path fill="none" stroke="midnightblue" d="M300.723,-323.494C342.518,-316.445 406.729,-311.377 457,-333 478.371,-342.192 473.135,-358.892 493,-371 501.629,-376.26 511.785,-380.124 521.491,-382.939"/>
<polygon fill="midnightblue" stroke="midnightblue" points="520.8,-386.376 531.359,-385.507 522.563,-379.601 520.8,-386.376"/>
</g>
<!-- Node29 -->
<g id="node30" class="node"><title>Node29</title>
<g id="a_node30"><a xlink:href="precode_8c_a84a742aaa0a90e37baf8db8cd5a035b7.html#a84a742aaa0a90e37baf8db8cd5a035b7" target="_top" xlink:title="decode_phase4">
<polygon fill="none" stroke="black" points="369,-38.5 369,-57.5 454,-57.5 454,-38.5 369,-38.5"/>
<text text-anchor="middle" x="411.5" y="-45.5" font-family="Helvetica,sans-Serif" font-size="10.00">decode_phase4</text>
</a>
</g>
</g>
<!-- Node10&#45;&gt;Node29 -->
<g id="edge38" class="edge"><title>Node10&#45;&gt;Node29</title>
<path fill="none" stroke="midnightblue" d="M258.768,-323.339C264.227,-285.445 289.046,-145.214 366,-67 367.414,-65.5629 368.954,-64.2282 370.584,-62.9894"/>
<polygon fill="midnightblue" stroke="midnightblue" points="372.669,-65.8145 379.316,-57.5642 368.975,-59.8686 372.669,-65.8145"/>
</g>
<!-- Node30 -->
<g id="node31" class="node"><title>Node30</title>
<g id="a_node31"><a xlink:href="precode_8c_a16925f32060a478093240f3b35ee664a.html#a16925f32060a478093240f3b35ee664a" target="_top" xlink:title="decode_phase5">
<polygon fill="none" stroke="black" points="369,-0.5 369,-19.5 454,-19.5 454,-0.5 369,-0.5"/>
<text text-anchor="middle" x="411.5" y="-7.5" font-family="Helvetica,sans-Serif" font-size="10.00">decode_phase5</text>
</a>
</g>
</g>
<!-- Node10&#45;&gt;Node30 -->
<g id="edge40" class="edge"><title>Node10&#45;&gt;Node30</title>
<path fill="none" stroke="midnightblue" d="M258.198,-323.41C261.675,-282.408 280.551,-119.802 366,-29 367.227,-27.6962 368.558,-26.4778 369.967,-25.3396"/>
<polygon fill="midnightblue" stroke="midnightblue" points="372.233,-28.042 378.715,-19.6619 368.422,-22.1702 372.233,-28.042"/>
</g>
<!-- Node12 -->
<g id="node13" class="node"><title>Node12</title>
<g id="a_node13"><a xlink:href="chooser_8h_a5c354680a80680d3c040504152d3c616.html#a5c354680a80680d3c040504152d3c616" target="_top" xlink:title="chooser_add_tracking_pair">
<polygon fill="none" stroke="black" points="493,-114.5 493,-133.5 626,-133.5 626,-114.5 493,-114.5"/>
<text text-anchor="middle" x="559.5" y="-121.5" font-family="Helvetica,sans-Serif" font-size="10.00">chooser_add_tracking_pair</text>
</a>
</g>
</g>
<!-- Node11&#45;&gt;Node12 -->
<g id="edge16" class="edge"><title>Node11&#45;&gt;Node12</title>
<path fill="none" stroke="midnightblue" d="M420.092,-209.301C433.228,-193.171 461.8,-160.843 493,-143 496.862,-140.791 501.002,-138.821 505.255,-137.068"/>
<polygon fill="midnightblue" stroke="midnightblue" points="506.525,-140.33 514.681,-133.567 504.088,-133.768 506.525,-140.33"/>
</g>
<!-- Node13 -->
<g id="node14" class="node"><title>Node13</title>
<g id="a_node14"><a xlink:href="chooser_8h_a54391f17335789a40d1a168009c9b5a1.html#a54391f17335789a40d1a168009c9b5a1" target="_top" xlink:title="chooser_clear">
<polygon fill="none" stroke="black" points="521,-342.5 521,-361.5 598,-361.5 598,-342.5 521,-342.5"/>
<text text-anchor="middle" x="559.5" y="-349.5" font-family="Helvetica,sans-Serif" font-size="10.00">chooser_clear</text>
</a>
</g>
</g>
<!-- Node11&#45;&gt;Node13 -->
<g id="edge17" class="edge"><title>Node11&#45;&gt;Node13</title>
<path fill="none" stroke="midnightblue" d="M416.559,-228.611C426.333,-250.578 453.34,-304.738 493,-333 498.507,-336.924 504.816,-340.043 511.296,-342.521"/>
<polygon fill="midnightblue" stroke="midnightblue" points="510.245,-345.86 520.839,-345.711 512.464,-339.221 510.245,-345.86"/>
</g>
<!-- Node14 -->
<g id="node15" class="node"><title>Node14</title>
<g id="a_node15"><a xlink:href="chooser_8h_aa055b1a2f2a47c17f612c052a2607ae1.html#aa055b1a2f2a47c17f612c052a2607ae1" target="_top" xlink:title="chooser_non_zero">
<polygon fill="none" stroke="black" points="511.5,-304.5 511.5,-323.5 607.5,-323.5 607.5,-304.5 511.5,-304.5"/>
<text text-anchor="middle" x="559.5" y="-311.5" font-family="Helvetica,sans-Serif" font-size="10.00">chooser_non_zero</text>
</a>
</g>
</g>
<!-- Node11&#45;&gt;Node14 -->
<g id="edge18" class="edge"><title>Node11&#45;&gt;Node14</title>
<path fill="none" stroke="midnightblue" d="M420.092,-228.699C433.228,-244.829 461.8,-277.157 493,-295 496.862,-297.209 501.002,-299.179 505.255,-300.932"/>
<polygon fill="midnightblue" stroke="midnightblue" points="504.088,-304.232 514.681,-304.433 506.525,-297.67 504.088,-304.232"/>
</g>
<!-- Node17 -->
<g id="node18" class="node"><title>Node17</title>
<g id="a_node18"><a xlink:href="chooser_8h_a6e78ae331b8eb1f6033fdb88aba27d69.html#a6e78ae331b8eb1f6033fdb88aba27d69" target="_top" xlink:title="chooser_pick">
<polygon fill="none" stroke="black" points="522.5,-266.5 522.5,-285.5 596.5,-285.5 596.5,-266.5 522.5,-266.5"/>
<text text-anchor="middle" x="559.5" y="-273.5" font-family="Helvetica,sans-Serif" font-size="10.00">chooser_pick</text>
</a>
</g>
</g>
<!-- Node11&#45;&gt;Node17 -->
<g id="edge21" class="edge"><title>Node11&#45;&gt;Node17</title>
<path fill="none" stroke="midnightblue" d="M430.684,-228.603C446.769,-236.85 471.029,-248.688 493,-257 499.324,-259.393 506.087,-261.663 512.777,-263.747"/>
<polygon fill="midnightblue" stroke="midnightblue" points="511.884,-267.134 522.468,-266.66 513.898,-260.43 511.884,-267.134"/>
</g>
<!-- Node19 -->
<g id="node20" class="node"><title>Node19</title>
<g id="a_node20"><a xlink:href="graph_8c_ac683cc08fc4c4391a1e872db552f4c3b.html#ac683cc08fc4c4391a1e872db552f4c3b" target="_top" xlink:title="graph_free">
<polygon fill="none" stroke="black" points="528.5,-228.5 528.5,-247.5 590.5,-247.5 590.5,-228.5 528.5,-228.5"/>
<text text-anchor="middle" x="559.5" y="-235.5" font-family="Helvetica,sans-Serif" font-size="10.00">graph_free</text>
</a>
</g>
</g>
<!-- Node11&#45;&gt;Node19 -->
<g id="edge24" class="edge"><title>Node11&#45;&gt;Node19</title>
<path fill="none" stroke="midnightblue" d="M454.338,-224.445C474.429,-227.059 498.398,-230.178 518.275,-232.765"/>
<polygon fill="midnightblue" stroke="midnightblue" points="517.886,-236.244 528.254,-234.064 518.79,-229.303 517.886,-236.244"/>
</g>
<!-- Node20 -->
<g id="node21" class="node"><title>Node20</title>
<g id="a_node21"><a xlink:href="graph_8c_ac96bb5f2ca9a14261f32f070172fb6d9.html#ac96bb5f2ca9a14261f32f070172fb6d9" target="_top" xlink:title="graph_new">
<polygon fill="none" stroke="black" points="527.5,-190.5 527.5,-209.5 591.5,-209.5 591.5,-190.5 527.5,-190.5"/>
<text text-anchor="middle" x="559.5" y="-197.5" font-family="Helvetica,sans-Serif" font-size="10.00">graph_new</text>
</a>
</g>
</g>
<!-- Node11&#45;&gt;Node20 -->
<g id="edge25" class="edge"><title>Node11&#45;&gt;Node20</title>
<path fill="none" stroke="midnightblue" d="M454.338,-213.555C474.051,-210.99 497.498,-207.939 517.149,-205.381"/>
<polygon fill="midnightblue" stroke="midnightblue" points="517.869,-208.817 527.333,-204.056 516.965,-201.876 517.869,-208.817"/>
</g>
<!-- Node21 -->
<g id="node22" class="node"><title>Node21</title>
<g id="a_node22"><a xlink:href="oblas_8h_a962c3db45b173ccbaf6418d5894409be.html#a962c3db45b173ccbaf6418d5894409be" target="_top" xlink:title="oaxpy">
<polygon fill="none" stroke="black" points="538,-38.5 538,-57.5 581,-57.5 581,-38.5 538,-38.5"/>
<text text-anchor="middle" x="559.5" y="-45.5" font-family="Helvetica,sans-Serif" font-size="10.00">oaxpy</text>
</a>
</g>
</g>
<!-- Node11&#45;&gt;Node21 -->
<g id="edge26" class="edge"><title>Node11&#45;&gt;Node21</title>
<path fill="none" stroke="midnightblue" d="M414.749,-209.494C421.57,-182.774 444.591,-106.39 493,-67 502.874,-58.9659 516.006,-54.3289 527.919,-51.6525"/>
<polygon fill="midnightblue" stroke="midnightblue" points="528.777,-55.0526 537.961,-49.7693 527.487,-48.1725 528.777,-55.0526"/>
</g>
<!-- Node22 -->
<g id="node23" class="node"><title>Node22</title>
<g id="a_node23"><a xlink:href="oblas_8h_aac1e9520179bae9bf58901a111aad57d.html#aac1e9520179bae9bf58901a111aad57d" target="_top" xlink:title="oswapcol">
<polygon fill="none" stroke="black" points="530.5,-152.5 530.5,-171.5 588.5,-171.5 588.5,-152.5 530.5,-152.5"/>
<text text-anchor="middle" x="559.5" y="-159.5" font-family="Helvetica,sans-Serif" font-size="10.00">oswapcol</text>
</a>
</g>
</g>
<!-- Node11&#45;&gt;Node22 -->
<g id="edge27" class="edge"><title>Node11&#45;&gt;Node22</title>
<path fill="none" stroke="midnightblue" d="M430.684,-209.397C446.769,-201.15 471.029,-189.312 493,-181 501.865,-177.646 511.59,-174.532 520.77,-171.836"/>
<polygon fill="midnightblue" stroke="midnightblue" points="521.791,-175.184 530.452,-169.082 519.876,-168.451 521.791,-175.184"/>
</g>
<!-- Node23 -->
<g id="node24" class="node"><title>Node23</title>
<g id="a_node24"><a xlink:href="oblas_8h_ad0978d40d1e2a78b8ff34f3d0d376dd3.html#ad0978d40d1e2a78b8ff34f3d0d376dd3" target="_top" xlink:title="oswaprow">
<polygon fill="none" stroke="black" points="529,-76.5 529,-95.5 590,-95.5 590,-76.5 529,-76.5"/>
<text text-anchor="middle" x="559.5" y="-83.5" font-family="Helvetica,sans-Serif" font-size="10.00">oswaprow</text>
</a>
</g>
</g>
<!-- Node11&#45;&gt;Node23 -->
<g id="edge28" class="edge"><title>Node11&#45;&gt;Node23</title>
<path fill="none" stroke="midnightblue" d="M416.559,-209.389C426.333,-187.422 453.34,-133.262 493,-105 500.718,-99.4997 510.014,-95.5814 519.146,-92.7936"/>
<polygon fill="midnightblue" stroke="midnightblue" points="520.147,-96.149 528.908,-90.1909 518.344,-89.3852 520.147,-96.149"/>
</g>
<!-- Node15 -->
<g id="node16" class="node"><title>Node15</title>
<g id="a_node16"><a xlink:href="graph_8c_a4df6f2af3bed651a7f3d19803ec598e4.html#a4df6f2af3bed651a7f3d19803ec598e4" target="_top" xlink:title="graph_link">
<polygon fill="none" stroke="black" points="670,-304.5 670,-323.5 731,-323.5 731,-304.5 670,-304.5"/>
<text text-anchor="middle" x="700.5" y="-311.5" font-family="Helvetica,sans-Serif" font-size="10.00">graph_link</text>
</a>
</g>
</g>
<!-- Node14&#45;&gt;Node15 -->
<g id="edge19" class="edge"><title>Node14&#45;&gt;Node15</title>
<path fill="none" stroke="midnightblue" d="M607.559,-314C624.486,-314 643.403,-314 659.656,-314"/>
<polygon fill="midnightblue" stroke="midnightblue" points="659.905,-317.5 669.905,-314 659.905,-310.5 659.905,-317.5"/>
</g>
<!-- Node16 -->
<g id="node17" class="node"><title>Node16</title>
<g id="a_node17"><a xlink:href="graph_8c_aebad20ec3b086b7fae30e6ef61892839.html#aebad20ec3b086b7fae30e6ef61892839" target="_top" xlink:title="graph_find">
<polygon fill="none" stroke="black" points="775,-285.5 775,-304.5 837,-304.5 837,-285.5 775,-285.5"/>
<text text-anchor="middle" x="806" y="-292.5" font-family="Helvetica,sans-Serif" font-size="10.00">graph_find</text>
</a>
</g>
</g>
<!-- Node15&#45;&gt;Node16 -->
<g id="edge20" class="edge"><title>Node15&#45;&gt;Node16</title>
<path fill="none" stroke="midnightblue" d="M731.159,-308.555C741.678,-306.624 753.696,-304.418 764.937,-302.354"/>
<polygon fill="midnightblue" stroke="midnightblue" points="765.774,-305.759 774.978,-300.511 764.51,-298.875 765.774,-305.759"/>
</g>
<!-- Node18 -->
<g id="node19" class="node"><title>Node18</title>
<g id="a_node19"><a xlink:href="graph_8c_ab380f8ec271892c52ab6836e6dba1746.html#ab380f8ec271892c52ab6836e6dba1746" target="_top" xlink:title="graph_is_max">
<polygon fill="none" stroke="black" points="662,-266.5 662,-285.5 739,-285.5 739,-266.5 662,-266.5"/>
<text text-anchor="middle" x="700.5" y="-273.5" font-family="Helvetica,sans-Serif" font-size="10.00">graph_is_max</text>
</a>
</g>
</g>
<!-- Node17&#45;&gt;Node18 -->
<g id="edge22" class="edge"><title>Node17&#45;&gt;Node18</title>
<path fill="none" stroke="midnightblue" d="M596.658,-276C613.412,-276 633.554,-276 651.555,-276"/>
<polygon fill="midnightblue" stroke="midnightblue" points="651.581,-279.5 661.581,-276 651.581,-272.5 651.581,-279.5"/>
</g>
<!-- Node18&#45;&gt;Node16 -->
<g id="edge23" class="edge"><title>Node18&#45;&gt;Node16</title>
<path fill="none" stroke="midnightblue" d="M739.159,-282.913C747.541,-284.452 756.458,-286.089 764.934,-287.645"/>
<polygon fill="midnightblue" stroke="midnightblue" points="764.52,-291.127 774.988,-289.49 765.784,-284.242 764.52,-291.127"/>
</g>
<!-- Node24&#45;&gt;Node21 -->
<g id="edge30" class="edge"><title>Node24&#45;&gt;Node21</title>
<path fill="none" stroke="midnightblue" d="M449.342,-76.411C473.663,-70.0809 505.147,-61.8863 528.049,-55.9256"/>
<polygon fill="midnightblue" stroke="midnightblue" points="529.115,-59.2649 537.911,-53.3589 527.352,-52.4906 529.115,-59.2649"/>
</g>
<!-- Node24&#45;&gt;Node23 -->
<g id="edge32" class="edge"><title>Node24&#45;&gt;Node23</title>
<path fill="none" stroke="midnightblue" d="M454.338,-86C474.573,-86 498.74,-86 518.7,-86"/>
<polygon fill="midnightblue" stroke="midnightblue" points="518.711,-89.5001 528.711,-86 518.711,-82.5001 518.711,-89.5001"/>
</g>
<!-- Node25 -->
<g id="node26" class="node"><title>Node25</title>
<g id="a_node26"><a xlink:href="oblas_8h_abfa7ba50070fbebe1ea2e0e2fc3f913b.html#abfa7ba50070fbebe1ea2e0e2fc3f913b" target="_top" xlink:title="oscal">
<polygon fill="none" stroke="black" points="539.5,-0.5 539.5,-19.5 579.5,-19.5 579.5,-0.5 539.5,-0.5"/>
<text text-anchor="middle" x="559.5" y="-7.5" font-family="Helvetica,sans-Serif" font-size="10.00">oscal</text>
</a>
</g>
</g>
<!-- Node24&#45;&gt;Node25 -->
<g id="edge31" class="edge"><title>Node24&#45;&gt;Node25</title>
<path fill="none" stroke="midnightblue" d="M439.791,-76.4381C445.709,-73.8028 451.76,-70.6468 457,-67 476.096,-53.7112 473.135,-41.1079 493,-29 504.026,-22.2798 517.544,-17.8372 529.431,-14.9512"/>
<polygon fill="midnightblue" stroke="midnightblue" points="530.322,-18.3392 539.352,-12.7976 528.837,-11.4985 530.322,-18.3392"/>
</g>
<!-- Node26&#45;&gt;Node6 -->
<g id="edge36" class="edge"><title>Node26&#45;&gt;Node6</title>
<path fill="none" stroke="midnightblue" d="M436.487,-361.571C443.71,-365.287 451.24,-370.092 457,-376 481.698,-401.333 465.757,-424.427 493,-447 499.482,-452.371 507.415,-456.224 515.494,-458.988"/>
<polygon fill="midnightblue" stroke="midnightblue" points="514.752,-462.417 525.332,-461.848 516.707,-455.696 514.752,-462.417"/>
</g>
<!-- Node26&#45;&gt;Node7 -->
<g id="edge37" class="edge"><title>Node26&#45;&gt;Node7</title>
<path fill="none" stroke="midnightblue" d="M420.233,-361.772C429.519,-373.725 445.306,-394.75 457,-414 475.369,-444.238 468.698,-459.287 493,-485 502.263,-494.801 514.619,-502.849 526.102,-508.975"/>
<polygon fill="midnightblue" stroke="midnightblue" points="524.542,-512.108 535.049,-513.472 527.686,-505.853 524.542,-512.108"/>
</g>
<!-- Node27 -->
<g id="node28" class="node"><title>Node27</title>
<g id="a_node28"><a xlink:href="oblas_8h_a85e2604cc8aec26b591370ab48307bcc.html#a85e2604cc8aec26b591370ab48307bcc" target="_top" xlink:title="ogemm">
<polygon fill="none" stroke="black" points="535,-418.5 535,-437.5 584,-437.5 584,-418.5 535,-418.5"/>
<text text-anchor="middle" x="559.5" y="-425.5" font-family="Helvetica,sans-Serif" font-size="10.00">ogemm</text>
</a>
</g>
</g>
<!-- Node26&#45;&gt;Node27 -->
<g id="edge34" class="edge"><title>Node26&#45;&gt;Node27</title>
<path fill="none" stroke="midnightblue" d="M432.621,-361.509C440.486,-365.565 449.418,-370.607 457,-376 474.687,-388.581 474.08,-398.364 493,-409 502.777,-414.496 514.287,-418.526 524.908,-421.423"/>
<polygon fill="midnightblue" stroke="midnightblue" points="524.185,-424.85 534.734,-423.864 525.872,-418.056 524.185,-424.85"/>
</g>
<!-- Node26&#45;&gt;Node28 -->
<g id="edge35" class="edge"><title>Node26&#45;&gt;Node28</title>
<path fill="none" stroke="midnightblue" d="M449.342,-361.589C471.465,-367.347 499.516,-374.648 521.642,-380.407"/>
<polygon fill="midnightblue" stroke="midnightblue" points="520.789,-383.801 531.349,-382.933 522.553,-377.027 520.789,-383.801"/>
</g>
<!-- Node29&#45;&gt;Node21 -->
<g id="edge39" class="edge"><title>Node29&#45;&gt;Node21</title>
<path fill="none" stroke="midnightblue" d="M454.338,-48C477.693,-48 506.287,-48 527.604,-48"/>
<polygon fill="midnightblue" stroke="midnightblue" points="527.725,-51.5001 537.725,-48 527.725,-44.5001 527.725,-51.5001"/>
</g>
<!-- Node30&#45;&gt;Node21 -->
<g id="edge41" class="edge"><title>Node30&#45;&gt;Node21</title>
<path fill="none" stroke="midnightblue" d="M449.342,-19.589C473.663,-25.9191 505.147,-34.1137 528.049,-40.0744"/>
<polygon fill="midnightblue" stroke="midnightblue" points="527.352,-43.5094 537.911,-42.6411 529.115,-36.7351 527.352,-43.5094"/>
</g>
<!-- Node30&#45;&gt;Node25 -->
<g id="edge42" class="edge"><title>Node30&#45;&gt;Node25</title>
<path fill="none" stroke="midnightblue" d="M454.338,-10C478.27,-10 507.703,-10 529.17,-10"/>
<polygon fill="midnightblue" stroke="midnightblue" points="529.303,-13.5001 539.303,-10 529.303,-6.5001 529.303,-13.5001"/>
</g>
</g>
</svg>
        <g id="navigator" transform="translate(0 0)" fill="#404254">
                <rect fill="#f2f5e9" fill-opacity="0.5" stroke="#606060" stroke-width=".5" x="0" y="0" width="60" height="60"/>
                <use id="zoomplus" xlink:href="#zoomPlus" x="17" y="9" onmousedown="handleZoom(evt,'in')"/>
                <use id="zoomminus" xlink:href="#zoomMin" x="42" y="9" onmousedown="handleZoom(evt,'out')"/>
                <use id="reset" xlink:href="#resetDef" x="30" y="36" onmousedown="handleReset()"/>
                <g id="arrowUp" xlink:href="#dirArrow" transform="translate(30 24)" onmousedown="handlePan(0,-1)">
                  <use xlink:href="#rim" fill="#404040">
                        <set attributeName="fill" to="#808080" begin="arrowUp.mouseover" end="arrowUp.mouseout"/>
                  </use>
                  <path fill="none" stroke="white" stroke-width="1.5" d="M0,-3.0v7 M-2.5,-0.5L0,-3.0L2.5,-0.5"/>
                </g>
                <g id="arrowRight" xlink:href="#dirArrow" transform="rotate(90) translate(36 -43)" onmousedown="handlePan(1,0)">
                  <use xlink:href="#rim" fill="#404040">
                        <set attributeName="fill" to="#808080" begin="arrowRight.mouseover" end="arrowRight.mouseout"/>
                  </use>
                  <path fill="none" stroke="white" stroke-width="1.5" d="M0,-3.0v7 M-2.5,-0.5L0,-3.0L2.5,-0.5"/>
                </g>
                <g id="arrowDown" xlink:href="#dirArrow" transform="rotate(180) translate(-30 -48)" onmousedown="handlePan(0,1)">
                  <use xlink:href="#rim" fill="#404040">
                        <set attributeName="fill" to="#808080" begin="arrowDown.mouseover" end="arrowDown.mouseout"/>
                  </use>
                  <path fill="none" stroke="white" stroke-width="1.5" d="M0,-3.0v7 M-2.5,-0.5L0,-3.0L2.5,-0.5"/>
                </g>
                <g id="arrowLeft" xlink:href="#dirArrow" transform="rotate(270) translate(-36 17)" onmousedown="handlePan(-1,0)">
                  <use xlink:href="#rim" fill="#404040">
                        <set attributeName="fill" to="#808080" begin="arrowLeft.mouseover" end="arrowLeft.mouseout"/>
                  </use>
                  <path fill="none" stroke="white" stroke-width="1.5" d="M0,-3.0v7 M-2.5,-0.5L0,-3.0L2.5,-0.5"/>
                </g>
        </g>
        <svg viewBox="0 0 15 15" width="100%" height="30px" preserveAspectRatio="xMaxYMin meet">
         <g id="arrow_out" transform="scale(0.3 0.3)">
          <a xlink:href="precode_8h_a2b6a5db8f90fc98b364cb5ed3b5eca24_a2b6a5db8f90fc98b364cb5ed3b5eca24_cgraph_org.svg" target="_base">
           <rect id="button" ry="5" rx="5" y="6" x="6" height="38" width="38"
                fill="#f2f5e9" fill-opacity="0.5" stroke="#606060" stroke-width="1.0"/>
           <path id="arrow"
             d="M 11.500037,31.436501 C 11.940474,20.09759 22.043105,11.32322 32.158766,21.979434 L 37.068811,17.246167 C 37.068811,17.246167 37.088388,32 37.088388,32 L 22.160133,31.978069 C 22.160133,31.978069 26.997745,27.140456 26.997745,27.140456 C 18.528582,18.264221 13.291696,25.230495 11.500037,31.436501 z"
             style="fill:#404040;"/>
          </a>
         </g>
        </svg>
</svg>
