<?xml version="1.0" encoding="UTF-8" standalone="no"?>
<!DOCTYPE svg PUBLIC "-//W3C//DTD SVG 1.1//EN"
 "http://www.w3.org/Graphics/SVG/1.1/DTD/svg11.dtd">
<!-- Generated by graphviz version 2.38.0 (20140413.2041)
 -->
<!-- Title: precode.c Pages: 1 -->
<svg width="1044pt" height="84pt"
 viewBox="0.00 0.00 1043.50 84.00" xmlns="http://www.w3.org/2000/svg" xmlns:xlink="http://www.w3.org/1999/xlink">
<g id="graph0" class="graph" transform="scale(1 1) rotate(0) translate(4 80)">
<title>precode.c</title>
<!-- Node0 -->
<g id="node1" class="node"><title>Node0</title>
<polygon fill="#bfbfbf" stroke="black" points="477.5,-56.5 477.5,-75.5 536.5,-75.5 536.5,-56.5 477.5,-56.5"/>
<text text-anchor="middle" x="507" y="-63.5" font-family="Helvetica,sans-Serif" font-size="10.00">precode.c</text>
</g>
<!-- Node1 -->
<g id="node2" class="node"><title>Node1</title>
<polygon fill="none" stroke="#bfbfbf" points="0,-0.5 0,-19.5 48,-19.5 48,-0.5 0,-0.5"/>
<text text-anchor="middle" x="24" y="-7.5" font-family="Helvetica,sans-Serif" font-size="10.00">stdlib.h</text>
</g>
<!-- Node0&#45;&gt;Node1 -->
<g id="edge1" class="edge"><title>Node0&#45;&gt;Node1</title>
<path fill="none" stroke="midnightblue" d="M477.275,-63.7411C406.339,-60.3737 221.514,-49.459 58.2677,-19.9338"/>
<polygon fill="midnightblue" stroke="midnightblue" points="58.5115,-16.4201 48.0436,-18.0547 57.2461,-23.3048 58.5115,-16.4201"/>
</g>
<!-- Node2 -->
<g id="node3" class="node"><title>Node2</title>
<polygon fill="none" stroke="#bfbfbf" points="66,-0.5 66,-19.5 112,-19.5 112,-0.5 66,-0.5"/>
<text text-anchor="middle" x="89" y="-7.5" font-family="Helvetica,sans-Serif" font-size="10.00">stdio.h</text>
</g>
<!-- Node0&#45;&gt;Node2 -->
<g id="edge2" class="edge"><title>Node0&#45;&gt;Node2</title>
<path fill="none" stroke="midnightblue" d="M477.212,-63.1389C413.621,-58.8227 259.817,-46.5579 122.195,-19.9575"/>
<polygon fill="midnightblue" stroke="midnightblue" points="122.803,-16.51 112.316,-18.0174 121.454,-23.3789 122.803,-16.51"/>
</g>
<!-- Node3 -->
<g id="node4" class="node"><title>Node3</title>
<polygon fill="none" stroke="#bfbfbf" points="130.5,-0.5 130.5,-19.5 179.5,-19.5 179.5,-0.5 130.5,-0.5"/>
<text text-anchor="middle" x="155" y="-7.5" font-family="Helvetica,sans-Serif" font-size="10.00">stdint.h</text>
</g>
<!-- Node0&#45;&gt;Node3 -->
<g id="edge3" class="edge"><title>Node0&#45;&gt;Node3</title>
<path fill="none" stroke="midnightblue" d="M477.428,-61.9971C422.651,-56.1818 301.571,-42.1446 189.887,-19.9588"/>
<polygon fill="midnightblue" stroke="midnightblue" points="190.297,-16.4711 179.803,-17.9278 188.915,-23.3333 190.297,-16.4711"/>
</g>
<!-- Node4 -->
<g id="node5" class="node"><title>Node4</title>
<polygon fill="none" stroke="#bfbfbf" points="198,-0.5 198,-19.5 254,-19.5 254,-0.5 198,-0.5"/>
<text text-anchor="middle" x="226" y="-7.5" font-family="Helvetica,sans-Serif" font-size="10.00">stdbool.h</text>
</g>
<!-- Node0&#45;&gt;Node4 -->
<g id="edge4" class="edge"><title>Node0&#45;&gt;Node4</title>
<path fill="none" stroke="midnightblue" d="M477.221,-60.0637C432.903,-52.5971 346.764,-37.6231 264.05,-20.1325"/>
<polygon fill="midnightblue" stroke="midnightblue" points="264.754,-16.7039 254.244,-18.0434 263.295,-23.5503 264.754,-16.7039"/>
</g>
<!-- Node5 -->
<g id="node6" class="node"><title>Node5</title>
<g id="a_node6"><a xlink:href="octmat_8h.html" target="_top" xlink:title="octmat.h">
<polygon fill="none" stroke="black" points="272.5,-0.5 272.5,-19.5 327.5,-19.5 327.5,-0.5 272.5,-0.5"/>
<text text-anchor="middle" x="300" y="-7.5" font-family="Helvetica,sans-Serif" font-size="10.00">octmat.h</text>
</a>
</g>
</g>
<!-- Node0&#45;&gt;Node5 -->
<g id="edge5" class="edge"><title>Node0&#45;&gt;Node5</title>
<path fill="none" stroke="midnightblue" d="M477.342,-57.2631C440.447,-47.6384 377.431,-31.1994 337.299,-20.7301"/>
<polygon fill="midnightblue" stroke="midnightblue" points="338.178,-17.3424 327.618,-18.2048 336.411,-24.1158 338.178,-17.3424"/>
</g>
<!-- Node6 -->
<g id="node7" class="node"><title>Node6</title>
<g id="a_node7"><a xlink:href="kvec_8h.html" target="_top" xlink:title="kvec.h">
<polygon fill="none" stroke="black" points="346,-0.5 346,-19.5 392,-19.5 392,-0.5 346,-0.5"/>
<text text-anchor="middle" x="369" y="-7.5" font-family="Helvetica,sans-Serif" font-size="10.00">kvec.h</text>
</a>
</g>
</g>
<!-- Node0&#45;&gt;Node6 -->
<g id="edge6" class="edge"><title>Node0&#45;&gt;Node6</title>
<path fill="none" stroke="midnightblue" d="M485.133,-56.4435C462.221,-47.4776 426.025,-33.314 400.134,-23.1827"/>
<polygon fill="midnightblue" stroke="midnightblue" points="401.352,-19.9011 390.764,-19.5164 398.801,-26.4198 401.352,-19.9011"/>
</g>
<!-- Node7 -->
<g id="node8" class="node"><title>Node7</title>
<g id="a_node8"><a xlink:href="bitmask_8h.html" target="_top" xlink:title="bitmask.h">
<polygon fill="none" stroke="black" points="410.5,-0.5 410.5,-19.5 469.5,-19.5 469.5,-0.5 410.5,-0.5"/>
<text text-anchor="middle" x="440" y="-7.5" font-family="Helvetica,sans-Serif" font-size="10.00">bitmask.h</text>
</a>
</g>
</g>
<!-- Node0&#45;&gt;Node7 -->
<g id="edge7" class="edge"><title>Node0&#45;&gt;Node7</title>
<path fill="none" stroke="midnightblue" d="M496.235,-56.324C486.234,-48.2631 471.113,-36.0765 459.07,-26.3695"/>
<polygon fill="midnightblue" stroke="midnightblue" points="460.943,-23.3841 450.961,-19.8339 456.55,-28.8343 460.943,-23.3841"/>
</g>
<!-- Node8 -->
<g id="node9" class="node"><title>Node8</title>
<g id="a_node9"><a xlink:href="util_8h.html" target="_top" xlink:title="util.h">
<polygon fill="none" stroke="black" points="488,-0.5 488,-19.5 526,-19.5 526,-0.5 488,-0.5"/>
<text text-anchor="middle" x="507" y="-7.5" font-family="Helvetica,sans-Serif" font-size="10.00">util.h</text>
</a>
</g>
</g>
<!-- Node0&#45;&gt;Node8 -->
<g id="edge8" class="edge"><title>Node0&#45;&gt;Node8</title>
<path fill="none" stroke="midnightblue" d="M507,-56.083C507,-49.0059 507,-38.8611 507,-29.9865"/>
<polygon fill="midnightblue" stroke="midnightblue" points="510.5,-29.751 507,-19.7511 503.5,-29.7511 510.5,-29.751"/>
</g>
<!-- Node9 -->
<g id="node10" class="node"><title>Node9</title>
<g id="a_node10"><a xlink:href="chooser_8h.html" target="_top" xlink:title="chooser.h">
<polygon fill="none" stroke="black" points="544.5,-0.5 544.5,-19.5 603.5,-19.5 603.5,-0.5 544.5,-0.5"/>
<text text-anchor="middle" x="574" y="-7.5" font-family="Helvetica,sans-Serif" font-size="10.00">chooser.h</text>
</a>
</g>
</g>
<!-- Node0&#45;&gt;Node9 -->
<g id="edge9" class="edge"><title>Node0&#45;&gt;Node9</title>
<path fill="none" stroke="midnightblue" d="M517.765,-56.324C527.766,-48.2631 542.887,-36.0765 554.93,-26.3695"/>
<polygon fill="midnightblue" stroke="midnightblue" points="557.45,-28.8343 563.039,-19.8339 553.057,-23.3841 557.45,-28.8343"/>
</g>
<!-- Node10 -->
<g id="node11" class="node"><title>Node10</title>
<g id="a_node11"><a xlink:href="params_8h.html" target="_top" xlink:title="params.h">
<polygon fill="none" stroke="black" points="621.5,-0.5 621.5,-19.5 678.5,-19.5 678.5,-0.5 621.5,-0.5"/>
<text text-anchor="middle" x="650" y="-7.5" font-family="Helvetica,sans-Serif" font-size="10.00">params.h</text>
</a>
</g>
</g>
<!-- Node0&#45;&gt;Node10 -->
<g id="edge10" class="edge"><title>Node0&#45;&gt;Node10</title>
<path fill="none" stroke="midnightblue" d="M529.659,-56.4435C553.402,-47.4776 590.909,-33.314 617.738,-23.1827"/>
<polygon fill="midnightblue" stroke="midnightblue" points="619.329,-26.3235 627.447,-19.5164 616.856,-19.7749 619.329,-26.3235"/>
</g>
<!-- Node11 -->
<g id="node12" class="node"><title>Node11</title>
<g id="a_node12"><a xlink:href="precode_8h.html" target="_top" xlink:title="precode.h">
<polygon fill="none" stroke="black" points="696.5,-0.5 696.5,-19.5 755.5,-19.5 755.5,-0.5 696.5,-0.5"/>
<text text-anchor="middle" x="726" y="-7.5" font-family="Helvetica,sans-Serif" font-size="10.00">precode.h</text>
</a>
</g>
</g>
<!-- Node0&#45;&gt;Node11 -->
<g id="edge11" class="edge"><title>Node0&#45;&gt;Node11</title>
<path fill="none" stroke="midnightblue" d="M536.535,-57.7173C575.231,-48.176 643.22,-31.4114 686.364,-20.7733"/>
<polygon fill="midnightblue" stroke="midnightblue" points="687.362,-24.1321 696.233,-18.3398 685.686,-17.3357 687.362,-24.1321"/>
</g>
<!-- Node12 -->
<g id="node13" class="node"><title>Node12</title>
<g id="a_node13"><a xlink:href="rand_8h.html" target="_top" xlink:title="rand.h">
<polygon fill="none" stroke="black" points="774,-0.5 774,-19.5 818,-19.5 818,-0.5 774,-0.5"/>
<text text-anchor="middle" x="796" y="-7.5" font-family="Helvetica,sans-Serif" font-size="10.00">rand.h</text>
</a>
</g>
</g>
<!-- Node0&#45;&gt;Node12 -->
<g id="edge12" class="edge"><title>Node0&#45;&gt;Node12</title>
<path fill="none" stroke="midnightblue" d="M536.618,-60.916C583.068,-54.278 676.02,-40.0581 763.87,-20.0577"/>
<polygon fill="midnightblue" stroke="midnightblue" points="764.769,-23.4424 773.726,-17.7841 763.195,-16.6216 764.769,-23.4424"/>
</g>
<!-- Node13 -->
<g id="node14" class="node"><title>Node13</title>
<g id="a_node14"><a xlink:href="octtables_8h.html" target="_top" xlink:title="octtables.h">
<polygon fill="none" stroke="black" points="836.5,-0.5 836.5,-19.5 901.5,-19.5 901.5,-0.5 836.5,-0.5"/>
<text text-anchor="middle" x="869" y="-7.5" font-family="Helvetica,sans-Serif" font-size="10.00">octtables.h</text>
</a>
</g>
</g>
<!-- Node0&#45;&gt;Node13 -->
<g id="edge13" class="edge"><title>Node0&#45;&gt;Node13</title>
<path fill="none" stroke="midnightblue" d="M536.67,-61.546C591.703,-54.985 713.504,-39.7417 826.619,-19.9491"/>
<polygon fill="midnightblue" stroke="midnightblue" points="827.247,-23.3925 836.486,-18.207 826.029,-16.4991 827.247,-23.3925"/>
</g>
<!-- Node14 -->
<g id="node15" class="node"><title>Node14</title>
<g id="a_node15"><a xlink:href="oblas_8h.html" target="_top" xlink:title="oblas.h">
<polygon fill="none" stroke="black" points="920,-0.5 920,-19.5 968,-19.5 968,-0.5 920,-0.5"/>
<text text-anchor="middle" x="944" y="-7.5" font-family="Helvetica,sans-Serif" font-size="10.00">oblas.h</text>
</a>
</g>
</g>
<!-- Node0&#45;&gt;Node14 -->
<g id="edge14" class="edge"><title>Node0&#45;&gt;Node14</title>
<path fill="none" stroke="midnightblue" d="M536.636,-63.2807C602.254,-59.1378 764.835,-47.0221 909.975,-19.9152"/>
<polygon fill="midnightblue" stroke="midnightblue" points="910.778,-23.3253 919.95,-18.0228 909.473,-16.4479 910.778,-23.3253"/>
</g>
<!-- Node15 -->
<g id="node16" class="node"><title>Node15</title>
<g id="a_node16"><a xlink:href="graph_8h.html" target="_top" xlink:title="graph.h">
<polygon fill="none" stroke="black" points="986.5,-0.5 986.5,-19.5 1035.5,-19.5 1035.5,-0.5 986.5,-0.5"/>
<text text-anchor="middle" x="1011" y="-7.5" font-family="Helvetica,sans-Serif" font-size="10.00">graph.h</text>
</a>
</g>
</g>
<!-- Node0&#45;&gt;Node15 -->
<g id="edge15" class="edge"><title>Node0&#45;&gt;Node15</title>
<path fill="none" stroke="midnightblue" d="M536.649,-63.8431C609.764,-60.6338 804.585,-49.9171 976.252,-19.8332"/>
<polygon fill="midnightblue" stroke="midnightblue" points="976.99,-23.257 986.222,-18.0592 975.764,-16.3652 976.99,-23.257"/>
</g>
</g>
</svg>
