<?xml version="1.0" encoding="UTF-8" standalone="no"?>
<!DOCTYPE svg PUBLIC "-//W3C//DTD SVG 1.1//EN"
 "http://www.w3.org/Graphics/SVG/1.1/DTD/svg11.dtd">
<!-- Generated by graphviz version 2.38.0 (20140413.2041)
 -->
<!-- Title: decode_phase1 Pages: 1 -->
<svg width="473pt" height="332pt"
 viewBox="0.00 0.00 473.00 332.00" xmlns="http://www.w3.org/2000/svg" xmlns:xlink="http://www.w3.org/1999/xlink">
<g id="graph0" class="graph" transform="scale(1 1) rotate(0) translate(4 328)">
<title>decode_phase1</title>
<!-- Node0 -->
<g id="node1" class="node"><title>Node0</title>
<polygon fill="#bfbfbf" stroke="black" points="0,-152.5 0,-171.5 85,-171.5 85,-152.5 0,-152.5"/>
<text text-anchor="middle" x="42.5" y="-159.5" font-family="Helvetica,sans-Serif" font-size="10.00">decode_phase1</text>
</g>
<!-- Node1 -->
<g id="node2" class="node"><title>Node1</title>
<g id="a_node2"><a xlink:href="chooser_8h_a5c354680a80680d3c040504152d3c616.html#a5c354680a80680d3c040504152d3c616" target="_top" xlink:title="chooser_add_tracking_pair">
<polygon fill="none" stroke="black" points="121,-304.5 121,-323.5 254,-323.5 254,-304.5 121,-304.5"/>
<text text-anchor="middle" x="187.5" y="-311.5" font-family="Helvetica,sans-Serif" font-size="10.00">chooser_add_tracking_pair</text>
</a>
</g>
</g>
<!-- Node0&#45;&gt;Node1 -->
<g id="edge1" class="edge"><title>Node0&#45;&gt;Node1</title>
<path fill="none" stroke="midnightblue" d="M46.3599,-171.719C54.0958,-196.283 77.8131,-261.291 121,-295 123.319,-296.81 125.804,-298.448 128.403,-299.929"/>
<polygon fill="midnightblue" stroke="midnightblue" points="127.067,-303.171 137.592,-304.39 130.124,-296.874 127.067,-303.171"/>
</g>
<!-- Node2 -->
<g id="node3" class="node"><title>Node2</title>
<g id="a_node3"><a xlink:href="chooser_8h_a54391f17335789a40d1a168009c9b5a1.html#a54391f17335789a40d1a168009c9b5a1" target="_top" xlink:title="chooser_clear">
<polygon fill="none" stroke="black" points="149,-266.5 149,-285.5 226,-285.5 226,-266.5 149,-266.5"/>
<text text-anchor="middle" x="187.5" y="-273.5" font-family="Helvetica,sans-Serif" font-size="10.00">chooser_clear</text>
</a>
</g>
</g>
<!-- Node0&#45;&gt;Node2 -->
<g id="edge2" class="edge"><title>Node0&#45;&gt;Node2</title>
<path fill="none" stroke="midnightblue" d="M48.7074,-171.711C59.536,-190.967 86.3826,-234.101 121,-257 126.444,-260.601 132.58,-263.532 138.858,-265.915"/>
<polygon fill="midnightblue" stroke="midnightblue" points="138.168,-269.375 148.762,-269.226 140.388,-262.736 138.168,-269.375"/>
</g>
<!-- Node3 -->
<g id="node4" class="node"><title>Node3</title>
<g id="a_node4"><a xlink:href="chooser_8h_aa055b1a2f2a47c17f612c052a2607ae1.html#aa055b1a2f2a47c17f612c052a2607ae1" target="_top" xlink:title="chooser_non_zero">
<polygon fill="none" stroke="black" points="139.5,-228.5 139.5,-247.5 235.5,-247.5 235.5,-228.5 139.5,-228.5"/>
<text text-anchor="middle" x="187.5" y="-235.5" font-family="Helvetica,sans-Serif" font-size="10.00">chooser_non_zero</text>
</a>
</g>
</g>
<!-- Node0&#45;&gt;Node3 -->
<g id="edge3" class="edge"><title>Node0&#45;&gt;Node3</title>
<path fill="none" stroke="midnightblue" d="M54.2382,-171.841C68.5,-184.432 94.9365,-206.144 121,-219 125.594,-221.266 130.507,-223.309 135.498,-225.139"/>
<polygon fill="midnightblue" stroke="midnightblue" points="134.538,-228.509 145.132,-228.4 136.782,-221.879 134.538,-228.509"/>
</g>
<!-- Node6 -->
<g id="node7" class="node"><title>Node6</title>
<g id="a_node7"><a xlink:href="chooser_8h_a6e78ae331b8eb1f6033fdb88aba27d69.html#a6e78ae331b8eb1f6033fdb88aba27d69" target="_top" xlink:title="chooser_pick">
<polygon fill="none" stroke="black" points="150.5,-190.5 150.5,-209.5 224.5,-209.5 224.5,-190.5 150.5,-190.5"/>
<text text-anchor="middle" x="187.5" y="-197.5" font-family="Helvetica,sans-Serif" font-size="10.00">chooser_pick</text>
</a>
</g>
</g>
<!-- Node0&#45;&gt;Node6 -->
<g id="edge6" class="edge"><title>Node0&#45;&gt;Node6</title>
<path fill="none" stroke="midnightblue" d="M79.5849,-171.589C98.1296,-176.517 120.926,-182.575 140.699,-187.829"/>
<polygon fill="midnightblue" stroke="midnightblue" points="139.863,-191.228 150.427,-190.414 141.661,-184.463 139.863,-191.228"/>
</g>
<!-- Node8 -->
<g id="node9" class="node"><title>Node8</title>
<g id="a_node9"><a xlink:href="graph_8c_ac683cc08fc4c4391a1e872db552f4c3b.html#ac683cc08fc4c4391a1e872db552f4c3b" target="_top" xlink:title="graph_free">
<polygon fill="none" stroke="black" points="156.5,-152.5 156.5,-171.5 218.5,-171.5 218.5,-152.5 156.5,-152.5"/>
<text text-anchor="middle" x="187.5" y="-159.5" font-family="Helvetica,sans-Serif" font-size="10.00">graph_free</text>
</a>
</g>
</g>
<!-- Node0&#45;&gt;Node8 -->
<g id="edge9" class="edge"><title>Node0&#45;&gt;Node8</title>
<path fill="none" stroke="midnightblue" d="M85.2459,-162C104.444,-162 127.125,-162 146.149,-162"/>
<polygon fill="midnightblue" stroke="midnightblue" points="146.296,-165.5 156.296,-162 146.296,-158.5 146.296,-165.5"/>
</g>
<!-- Node9 -->
<g id="node10" class="node"><title>Node9</title>
<g id="a_node10"><a xlink:href="graph_8c_ac96bb5f2ca9a14261f32f070172fb6d9.html#ac96bb5f2ca9a14261f32f070172fb6d9" target="_top" xlink:title="graph_new">
<polygon fill="none" stroke="black" points="155.5,-114.5 155.5,-133.5 219.5,-133.5 219.5,-114.5 155.5,-114.5"/>
<text text-anchor="middle" x="187.5" y="-121.5" font-family="Helvetica,sans-Serif" font-size="10.00">graph_new</text>
</a>
</g>
</g>
<!-- Node0&#45;&gt;Node9 -->
<g id="edge10" class="edge"><title>Node0&#45;&gt;Node9</title>
<path fill="none" stroke="midnightblue" d="M79.5849,-152.411C99.6363,-147.083 124.659,-140.433 145.455,-134.907"/>
<polygon fill="midnightblue" stroke="midnightblue" points="146.518,-138.246 155.284,-132.295 144.72,-131.481 146.518,-138.246"/>
</g>
<!-- Node10 -->
<g id="node11" class="node"><title>Node10</title>
<g id="a_node11"><a xlink:href="oblas_8h_a962c3db45b173ccbaf6418d5894409be.html#a962c3db45b173ccbaf6418d5894409be" target="_top" xlink:title="oaxpy">
<polygon fill="none" stroke="black" points="166,-76.5 166,-95.5 209,-95.5 209,-76.5 166,-76.5"/>
<text text-anchor="middle" x="187.5" y="-83.5" font-family="Helvetica,sans-Serif" font-size="10.00">oaxpy</text>
</a>
</g>
</g>
<!-- Node0&#45;&gt;Node10 -->
<g id="edge11" class="edge"><title>Node0&#45;&gt;Node10</title>
<path fill="none" stroke="midnightblue" d="M54.2382,-152.159C68.5,-139.568 94.9365,-117.856 121,-105 131.894,-99.6264 144.576,-95.5083 155.863,-92.5024"/>
<polygon fill="midnightblue" stroke="midnightblue" points="156.883,-95.8557 165.746,-90.0505 155.197,-89.0616 156.883,-95.8557"/>
</g>
<!-- Node11 -->
<g id="node12" class="node"><title>Node11</title>
<g id="a_node12"><a xlink:href="oblas_8h_aac1e9520179bae9bf58901a111aad57d.html#aac1e9520179bae9bf58901a111aad57d" target="_top" xlink:title="oswapcol">
<polygon fill="none" stroke="black" points="158.5,-38.5 158.5,-57.5 216.5,-57.5 216.5,-38.5 158.5,-38.5"/>
<text text-anchor="middle" x="187.5" y="-45.5" font-family="Helvetica,sans-Serif" font-size="10.00">oswapcol</text>
</a>
</g>
</g>
<!-- Node0&#45;&gt;Node11 -->
<g id="edge12" class="edge"><title>Node0&#45;&gt;Node11</title>
<path fill="none" stroke="midnightblue" d="M48.7074,-152.289C59.536,-133.033 86.3826,-89.8993 121,-67 129.282,-61.5214 139.167,-57.5933 148.717,-54.7877"/>
<polygon fill="midnightblue" stroke="midnightblue" points="149.668,-58.1568 158.465,-52.2525 147.906,-51.3822 149.668,-58.1568"/>
</g>
<!-- Node12 -->
<g id="node13" class="node"><title>Node12</title>
<g id="a_node13"><a xlink:href="oblas_8h_ad0978d40d1e2a78b8ff34f3d0d376dd3.html#ad0978d40d1e2a78b8ff34f3d0d376dd3" target="_top" xlink:title="oswaprow">
<polygon fill="none" stroke="black" points="157,-0.5 157,-19.5 218,-19.5 218,-0.5 157,-0.5"/>
<text text-anchor="middle" x="187.5" y="-7.5" font-family="Helvetica,sans-Serif" font-size="10.00">oswaprow</text>
</a>
</g>
</g>
<!-- Node0&#45;&gt;Node12 -->
<g id="edge13" class="edge"><title>Node0&#45;&gt;Node12</title>
<path fill="none" stroke="midnightblue" d="M46.3599,-152.281C54.0958,-127.717 77.8131,-62.7089 121,-29 128.54,-23.1149 137.843,-19.052 147.047,-16.2473"/>
<polygon fill="midnightblue" stroke="midnightblue" points="148.115,-19.5856 156.906,-13.6711 146.346,-12.813 148.115,-19.5856"/>
</g>
<!-- Node4 -->
<g id="node5" class="node"><title>Node4</title>
<g id="a_node5"><a xlink:href="graph_8c_a4df6f2af3bed651a7f3d19803ec598e4.html#a4df6f2af3bed651a7f3d19803ec598e4" target="_top" xlink:title="graph_link">
<polygon fill="none" stroke="black" points="298,-228.5 298,-247.5 359,-247.5 359,-228.5 298,-228.5"/>
<text text-anchor="middle" x="328.5" y="-235.5" font-family="Helvetica,sans-Serif" font-size="10.00">graph_link</text>
</a>
</g>
</g>
<!-- Node3&#45;&gt;Node4 -->
<g id="edge4" class="edge"><title>Node3&#45;&gt;Node4</title>
<path fill="none" stroke="midnightblue" d="M235.559,-238C252.486,-238 271.403,-238 287.656,-238"/>
<polygon fill="midnightblue" stroke="midnightblue" points="287.905,-241.5 297.905,-238 287.905,-234.5 287.905,-241.5"/>
</g>
<!-- Node5 -->
<g id="node6" class="node"><title>Node5</title>
<g id="a_node6"><a xlink:href="graph_8c_aebad20ec3b086b7fae30e6ef61892839.html#aebad20ec3b086b7fae30e6ef61892839" target="_top" xlink:title="graph_find">
<polygon fill="none" stroke="black" points="403,-209.5 403,-228.5 465,-228.5 465,-209.5 403,-209.5"/>
<text text-anchor="middle" x="434" y="-216.5" font-family="Helvetica,sans-Serif" font-size="10.00">graph_find</text>
</a>
</g>
</g>
<!-- Node4&#45;&gt;Node5 -->
<g id="edge5" class="edge"><title>Node4&#45;&gt;Node5</title>
<path fill="none" stroke="midnightblue" d="M359.159,-232.555C369.678,-230.624 381.696,-228.418 392.937,-226.354"/>
<polygon fill="midnightblue" stroke="midnightblue" points="393.774,-229.759 402.978,-224.511 392.51,-222.875 393.774,-229.759"/>
</g>
<!-- Node7 -->
<g id="node8" class="node"><title>Node7</title>
<g id="a_node8"><a xlink:href="graph_8c_ab380f8ec271892c52ab6836e6dba1746.html#ab380f8ec271892c52ab6836e6dba1746" target="_top" xlink:title="graph_is_max">
<polygon fill="none" stroke="black" points="290,-190.5 290,-209.5 367,-209.5 367,-190.5 290,-190.5"/>
<text text-anchor="middle" x="328.5" y="-197.5" font-family="Helvetica,sans-Serif" font-size="10.00">graph_is_max</text>
</a>
</g>
</g>
<!-- Node6&#45;&gt;Node7 -->
<g id="edge7" class="edge"><title>Node6&#45;&gt;Node7</title>
<path fill="none" stroke="midnightblue" d="M224.658,-200C241.412,-200 261.554,-200 279.555,-200"/>
<polygon fill="midnightblue" stroke="midnightblue" points="279.581,-203.5 289.581,-200 279.581,-196.5 279.581,-203.5"/>
</g>
<!-- Node7&#45;&gt;Node5 -->
<g id="edge8" class="edge"><title>Node7&#45;&gt;Node5</title>
<path fill="none" stroke="midnightblue" d="M367.159,-206.913C375.541,-208.452 384.458,-210.089 392.934,-211.645"/>
<polygon fill="midnightblue" stroke="midnightblue" points="392.52,-215.127 402.988,-213.49 393.784,-208.242 392.52,-215.127"/>
</g>
</g>
</svg>
