<?xml version="1.0" encoding="UTF-8" standalone="no"?>
<!DOCTYPE svg PUBLIC "-//W3C//DTD SVG 1.1//EN"
 "http://www.w3.org/Graphics/SVG/1.1/DTD/svg11.dtd">
<!-- Generated by graphviz version 2.38.0 (20140413.2041)
 -->
<!-- Title: rand.c Pages: 1 -->
<svg width="120pt" height="84pt"
 viewBox="0.00 0.00 119.50 84.00" xmlns="http://www.w3.org/2000/svg" xmlns:xlink="http://www.w3.org/1999/xlink">
<g id="graph0" class="graph" transform="scale(1 1) rotate(0) translate(4 80)">
<title>rand.c</title>
<!-- Node0 -->
<g id="node1" class="node"><title>Node0</title>
<polygon fill="#bfbfbf" stroke="black" points="34.5,-56.5 34.5,-75.5 78.5,-75.5 78.5,-56.5 34.5,-56.5"/>
<text text-anchor="middle" x="56.5" y="-63.5" font-family="Helvetica,sans-Serif" font-size="10.00">rand.c</text>
</g>
<!-- Node1 -->
<g id="node2" class="node"><title>Node1</title>
<polygon fill="none" stroke="#bfbfbf" points="0,-0.5 0,-19.5 49,-19.5 49,-0.5 0,-0.5"/>
<text text-anchor="middle" x="24.5" y="-7.5" font-family="Helvetica,sans-Serif" font-size="10.00">stdint.h</text>
</g>
<!-- Node0&#45;&gt;Node1 -->
<g id="edge1" class="edge"><title>Node0&#45;&gt;Node1</title>
<path fill="none" stroke="midnightblue" d="M51.2159,-56.083C46.789,-48.6127 40.3367,-37.7244 34.8821,-28.5199"/>
<polygon fill="midnightblue" stroke="midnightblue" points="37.7949,-26.5697 29.6858,-19.7511 31.7729,-30.1383 37.7949,-26.5697"/>
</g>
<!-- Node2 -->
<g id="node3" class="node"><title>Node2</title>
<g id="a_node3"><a xlink:href="rand_8h.html" target="_top" xlink:title="rand.h">
<polygon fill="none" stroke="black" points="67.5,-0.5 67.5,-19.5 111.5,-19.5 111.5,-0.5 67.5,-0.5"/>
<text text-anchor="middle" x="89.5" y="-7.5" font-family="Helvetica,sans-Serif" font-size="10.00">rand.h</text>
</a>
</g>
</g>
<!-- Node0&#45;&gt;Node2 -->
<g id="edge2" class="edge"><title>Node0&#45;&gt;Node2</title>
<path fill="none" stroke="midnightblue" d="M61.9493,-56.083C66.5145,-48.6127 73.1684,-37.7244 78.7934,-28.5199"/>
<polygon fill="midnightblue" stroke="midnightblue" points="81.9241,-30.109 84.1521,-19.7511 75.9511,-26.4588 81.9241,-30.109"/>
</g>
</g>
</svg>
