<?xml version="1.0" encoding="UTF-8" standalone="no"?>
<!DOCTYPE svg PUBLIC "-//W3C//DTD SVG 1.1//EN"
 "http://www.w3.org/Graphics/SVG/1.1/DTD/svg11.dtd">
<!-- Generated by graphviz version 2.38.0 (20140413.2041)
 -->
<!-- Title: rand.h Pages: 1 -->
<svg width="205pt" height="84pt"
 viewBox="0.00 0.00 204.50 84.00" xmlns="http://www.w3.org/2000/svg" xmlns:xlink="http://www.w3.org/1999/xlink">
<g id="graph0" class="graph" transform="scale(1 1) rotate(0) translate(4 80)">
<title>rand.h</title>
<!-- Node1 -->
<g id="node1" class="node"><title>Node1</title>
<polygon fill="#bfbfbf" stroke="black" points="82.5,-56.5 82.5,-75.5 126.5,-75.5 126.5,-56.5 82.5,-56.5"/>
<text text-anchor="middle" x="104.5" y="-63.5" font-family="Helvetica,sans-Serif" font-size="10.00">rand.h</text>
</g>
<!-- Node2 -->
<g id="node2" class="node"><title>Node2</title>
<g id="a_node2"><a xlink:href="params_8c.html" target="_top" xlink:title="params.c">
<polygon fill="none" stroke="black" points="0,-0.5 0,-19.5 57,-19.5 57,-0.5 0,-0.5"/>
<text text-anchor="middle" x="28.5" y="-7.5" font-family="Helvetica,sans-Serif" font-size="10.00">params.c</text>
</a>
</g>
</g>
<!-- Node1&#45;&gt;Node2 -->
<g id="edge1" class="edge"><title>Node1&#45;&gt;Node2</title>
<path fill="none" stroke="midnightblue" d="M83.9242,-50.3804C70.188,-40.6204 52.5747,-28.1057 40.9329,-19.8339"/>
<polygon fill="midnightblue" stroke="midnightblue" points="82.1102,-53.385 92.2893,-56.324 86.1647,-47.6787 82.1102,-53.385"/>
</g>
<!-- Node3 -->
<g id="node3" class="node"><title>Node3</title>
<g id="a_node3"><a xlink:href="precode_8c.html" target="_top" xlink:title="precode.c">
<polygon fill="none" stroke="black" points="75,-0.5 75,-19.5 134,-19.5 134,-0.5 75,-0.5"/>
<text text-anchor="middle" x="104.5" y="-7.5" font-family="Helvetica,sans-Serif" font-size="10.00">precode.c</text>
</a>
</g>
</g>
<!-- Node1&#45;&gt;Node3 -->
<g id="edge2" class="edge"><title>Node1&#45;&gt;Node3</title>
<path fill="none" stroke="midnightblue" d="M104.5,-45.8045C104.5,-36.9102 104.5,-26.7798 104.5,-19.7511"/>
<polygon fill="midnightblue" stroke="midnightblue" points="101,-46.083 104.5,-56.083 108,-46.083 101,-46.083"/>
</g>
<!-- Node4 -->
<g id="node4" class="node"><title>Node4</title>
<g id="a_node4"><a xlink:href="rand_8c.html" target="_top" xlink:title="rand.c">
<polygon fill="none" stroke="black" points="152.5,-0.5 152.5,-19.5 196.5,-19.5 196.5,-0.5 152.5,-0.5"/>
<text text-anchor="middle" x="174.5" y="-7.5" font-family="Helvetica,sans-Serif" font-size="10.00">rand.c</text>
</a>
</g>
</g>
<!-- Node1&#45;&gt;Node4 -->
<g id="edge3" class="edge"><title>Node1&#45;&gt;Node4</title>
<path fill="none" stroke="midnightblue" d="M123.814,-50.1008C136.412,-40.3824 152.428,-28.0269 163.049,-19.8339"/>
<polygon fill="midnightblue" stroke="midnightblue" points="121.527,-47.4446 115.747,-56.324 125.802,-52.9871 121.527,-47.4446"/>
</g>
</g>
</svg>
