<?xml version="1.0" encoding="UTF-8" standalone="no"?>
<!DOCTYPE svg PUBLIC "-//W3C//DTD SVG 1.1//EN"
 "http://www.w3.org/Graphics/SVG/1.1/DTD/svg11.dtd">
<!-- Generated by graphviz version 2.38.0 (20140413.2041)
 -->
<!-- Title: nanorq Pages: 1 -->
<svg width="441pt" height="419pt"
 viewBox="0.00 0.00 440.50 419.00" xmlns="http://www.w3.org/2000/svg" xmlns:xlink="http://www.w3.org/1999/xlink">
<g id="graph0" class="graph" transform="scale(1 1) rotate(0) translate(4 415)">
<title>nanorq</title>
<!-- Node19 -->
<g id="node1" class="node"><title>Node19</title>
<polygon fill="#bfbfbf" stroke="black" points="212,-0.5 212,-57.5 258,-57.5 258,-0.5 212,-0.5"/>
<text text-anchor="middle" x="235" y="-45.5" font-family="Helvetica,sans-Serif" font-size="10.00">nanorq</text>
<polyline fill="none" stroke="black" points="212,-38.5 258,-38.5 "/>
<text text-anchor="middle" x="235" y="-26.5" font-family="Helvetica,sans-Serif" font-size="10.00"> </text>
<polyline fill="none" stroke="black" points="212,-19.5 258,-19.5 "/>
<text text-anchor="middle" x="235" y="-7.5" font-family="Helvetica,sans-Serif" font-size="10.00"> </text>
</g>
<!-- Node20 -->
<g id="node2" class="node"><title>Node20</title>
<g id="a_node2"><a xlink:href="nanorq_8c.html#structencoder__core" target="_top" xlink:title="{encoder_core\n|+ sbn\l+ num_symbols\l+ symbol_size\l|}">
<polygon fill="none" stroke="black" points="0,-127.5 0,-206.5 86,-206.5 86,-127.5 0,-127.5"/>
<text text-anchor="middle" x="43" y="-194.5" font-family="Helvetica,sans-Serif" font-size="10.00">encoder_core</text>
<polyline fill="none" stroke="black" points="0,-187.5 86,-187.5 "/>
<text text-anchor="start" x="8" y="-175.5" font-family="Helvetica,sans-Serif" font-size="10.00">+ sbn</text>
<text text-anchor="start" x="8" y="-164.5" font-family="Helvetica,sans-Serif" font-size="10.00">+ num_symbols</text>
<text text-anchor="start" x="8" y="-153.5" font-family="Helvetica,sans-Serif" font-size="10.00">+ symbol_size</text>
<polyline fill="none" stroke="black" points="0,-146.5 86,-146.5 "/>
<text text-anchor="middle" x="43" y="-134.5" font-family="Helvetica,sans-Serif" font-size="10.00"> </text>
</a>
</g>
</g>
<!-- Node20&#45;&gt;Node19 -->
<g id="edge1" class="edge"><title>Node20&#45;&gt;Node19</title>
<path fill="none" stroke="#404040" d="M68.5952,-127.082C81.6786,-109.585 98.8711,-89.8107 118,-76 142.827,-58.0755 175.582,-45.9817 200.118,-38.7113"/>
<polygon fill="none" stroke="#404040" points="200.221,-38.6825 204.915,-33.2078 211.773,-35.4345 207.08,-40.9092 200.221,-38.6825"/>
<text text-anchor="middle" x="142.5" y="-84.5" font-family="Helvetica,sans-Serif" font-size="10.00"> +encoders</text>
</g>
<!-- Node21 -->
<g id="node3" class="node"><title>Node21</title>
<g id="a_node3"><a xlink:href="octmat_8h.html#structoctmat" target="_top" xlink:title="{octmat\n|+ data\l+ rows\l+ cols\l+ cols_al\l|}">
<polygon fill="none" stroke="black" points="44,-293 44,-383 100,-383 100,-293 44,-293"/>
<text text-anchor="middle" x="72" y="-371" font-family="Helvetica,sans-Serif" font-size="10.00">octmat</text>
<polyline fill="none" stroke="black" points="44,-364 100,-364 "/>
<text text-anchor="start" x="52" y="-352" font-family="Helvetica,sans-Serif" font-size="10.00">+ data</text>
<text text-anchor="start" x="52" y="-341" font-family="Helvetica,sans-Serif" font-size="10.00">+ rows</text>
<text text-anchor="start" x="52" y="-330" font-family="Helvetica,sans-Serif" font-size="10.00">+ cols</text>
<text text-anchor="start" x="52" y="-319" font-family="Helvetica,sans-Serif" font-size="10.00">+ cols_al</text>
<polyline fill="none" stroke="black" points="44,-312 100,-312 "/>
<text text-anchor="middle" x="72" y="-300" font-family="Helvetica,sans-Serif" font-size="10.00"> </text>
</a>
</g>
</g>
<!-- Node21&#45;&gt;Node20 -->
<g id="edge2" class="edge"><title>Node21&#45;&gt;Node20</title>
<path fill="none" stroke="#404040" d="M43.8532,-293.367C36.1779,-279.152 28.9068,-262.921 25,-247 22.7372,-237.778 22.919,-227.928 24.4137,-218.42"/>
<polygon fill="none" stroke="#404040" points="24.424,-218.371 21.7617,-211.67 26.9239,-206.635 29.5862,-213.336 24.424,-218.371"/>
<text text-anchor="middle" x="54" y="-239" font-family="Helvetica,sans-Serif" font-size="10.00"> +symbolmat</text>
</g>
<!-- Node24 -->
<g id="node6" class="node"><title>Node24</title>
<g id="a_node6"><a xlink:href="nanorq_8c.html#structdecoder__core" target="_top" xlink:title="{decoder_core\n|+ sbn\l+ num_symbols\l+ symbol_size\l+ repair_bin\l|}">
<polygon fill="none" stroke="black" points="192,-122 192,-212 278,-212 278,-122 192,-122"/>
<text text-anchor="middle" x="235" y="-200" font-family="Helvetica,sans-Serif" font-size="10.00">decoder_core</text>
<polyline fill="none" stroke="black" points="192,-193 278,-193 "/>
<text text-anchor="start" x="200" y="-181" font-family="Helvetica,sans-Serif" font-size="10.00">+ sbn</text>
<text text-anchor="start" x="200" y="-170" font-family="Helvetica,sans-Serif" font-size="10.00">+ num_symbols</text>
<text text-anchor="start" x="200" y="-159" font-family="Helvetica,sans-Serif" font-size="10.00">+ symbol_size</text>
<text text-anchor="start" x="200" y="-148" font-family="Helvetica,sans-Serif" font-size="10.00">+ repair_bin</text>
<polyline fill="none" stroke="black" points="192,-141 278,-141 "/>
<text text-anchor="middle" x="235" y="-129" font-family="Helvetica,sans-Serif" font-size="10.00"> </text>
</a>
</g>
</g>
<!-- Node21&#45;&gt;Node24 -->
<g id="edge6" class="edge"><title>Node21&#45;&gt;Node24</title>
<path fill="none" stroke="#404040" d="M75.0838,-292.914C78.7345,-272.945 86.3461,-250.594 102,-236 126.445,-213.21 146.416,-231.257 181.132,-217.532"/>
<polygon fill="none" stroke="#404040" points="181.564,-217.326 185.264,-211.137 192.401,-212.172 188.701,-218.361 181.564,-217.326"/>
<text text-anchor="middle" x="131" y="-239" font-family="Helvetica,sans-Serif" font-size="10.00"> +symbolmat</text>
</g>
<!-- Node22 -->
<g id="node4" class="node"><title>Node22</title>
<g id="a_node4"><a xlink:href="params_8h.html#structpparams" target="_top" xlink:title="{pparams\n|+ K_padded\l+ S\l+ H\l+ W\l+ L\l+ P\l+ P1\l+ B\l+ J\l|}">
<polygon fill="none" stroke="black" points="158.5,-265.5 158.5,-410.5 227.5,-410.5 227.5,-265.5 158.5,-265.5"/>
<text text-anchor="middle" x="193" y="-398.5" font-family="Helvetica,sans-Serif" font-size="10.00">pparams</text>
<polyline fill="none" stroke="black" points="158.5,-391.5 227.5,-391.5 "/>
<text text-anchor="start" x="166.5" y="-379.5" font-family="Helvetica,sans-Serif" font-size="10.00">+ K_padded</text>
<text text-anchor="start" x="166.5" y="-368.5" font-family="Helvetica,sans-Serif" font-size="10.00">+ S</text>
<text text-anchor="start" x="166.5" y="-357.5" font-family="Helvetica,sans-Serif" font-size="10.00">+ H</text>
<text text-anchor="start" x="166.5" y="-346.5" font-family="Helvetica,sans-Serif" font-size="10.00">+ W</text>
<text text-anchor="start" x="166.5" y="-335.5" font-family="Helvetica,sans-Serif" font-size="10.00">+ L</text>
<text text-anchor="start" x="166.5" y="-324.5" font-family="Helvetica,sans-Serif" font-size="10.00">+ P</text>
<text text-anchor="start" x="166.5" y="-313.5" font-family="Helvetica,sans-Serif" font-size="10.00">+ P1</text>
<text text-anchor="start" x="166.5" y="-302.5" font-family="Helvetica,sans-Serif" font-size="10.00">+ B</text>
<text text-anchor="start" x="166.5" y="-291.5" font-family="Helvetica,sans-Serif" font-size="10.00">+ J</text>
<polyline fill="none" stroke="black" points="158.5,-284.5 227.5,-284.5 "/>
<text text-anchor="middle" x="193" y="-272.5" font-family="Helvetica,sans-Serif" font-size="10.00"> </text>
</a>
</g>
</g>
<!-- Node22&#45;&gt;Node20 -->
<g id="edge3" class="edge"><title>Node22&#45;&gt;Node20</title>
<path fill="none" stroke="#404040" d="M182.531,-265.284C178.253,-254.382 172.291,-244.091 164,-236 141.318,-213.865 122.652,-233.485 95,-218 92.7804,-216.757 90.5856,-215.396 88.4257,-213.945"/>
<polygon fill="none" stroke="#404040" points="88.2122,-213.785 81.012,-213.387 78.6103,-206.587 85.8104,-206.985 88.2122,-213.785"/>
<text text-anchor="middle" x="186" y="-239" font-family="Helvetica,sans-Serif" font-size="10.00"> +prm</text>
</g>
<!-- Node22&#45;&gt;Node24 -->
<g id="edge8" class="edge"><title>Node22&#45;&gt;Node24</title>
<path fill="none" stroke="#404040" d="M210.812,-265.329C214.235,-251.553 217.775,-237.312 221.054,-224.116"/>
<polygon fill="none" stroke="#404040" points="221.088,-223.979 218.653,-217.192 223.982,-212.334 226.417,-219.121 221.088,-223.979"/>
<text text-anchor="middle" x="231" y="-239" font-family="Helvetica,sans-Serif" font-size="10.00"> +prm</text>
</g>
<!-- Node23 -->
<g id="node5" class="node"><title>Node23</title>
<g id="a_node5"><a xlink:href="nanorq_8c.html#structoti__common" target="_top" xlink:title="{oti_common\n|+ F\l+ T\l+ Al\l+ SS\l+ WS\l|}">
<polygon fill="none" stroke="black" points="104,-116.5 104,-217.5 174,-217.5 174,-116.5 104,-116.5"/>
<text text-anchor="middle" x="139" y="-205.5" font-family="Helvetica,sans-Serif" font-size="10.00">oti_common</text>
<polyline fill="none" stroke="black" points="104,-198.5 174,-198.5 "/>
<text text-anchor="start" x="112" y="-186.5" font-family="Helvetica,sans-Serif" font-size="10.00">+ F</text>
<text text-anchor="start" x="112" y="-175.5" font-family="Helvetica,sans-Serif" font-size="10.00">+ T</text>
<text text-anchor="start" x="112" y="-164.5" font-family="Helvetica,sans-Serif" font-size="10.00">+ Al</text>
<text text-anchor="start" x="112" y="-153.5" font-family="Helvetica,sans-Serif" font-size="10.00">+ SS</text>
<text text-anchor="start" x="112" y="-142.5" font-family="Helvetica,sans-Serif" font-size="10.00">+ WS</text>
<polyline fill="none" stroke="black" points="104,-135.5 174,-135.5 "/>
<text text-anchor="middle" x="139" y="-123.5" font-family="Helvetica,sans-Serif" font-size="10.00"> </text>
</a>
</g>
</g>
<!-- Node23&#45;&gt;Node19 -->
<g id="edge4" class="edge"><title>Node23&#45;&gt;Node19</title>
<path fill="none" stroke="#404040" d="M159.679,-116.401C166.467,-102.694 174.693,-88.2356 184,-76 189.459,-68.823 196.143,-61.872 202.853,-55.6398"/>
<polygon fill="none" stroke="#404040" points="202.916,-55.5837 204.76,-48.6123 211.905,-47.6332 210.061,-54.6046 202.916,-55.5837"/>
<text text-anchor="middle" x="207.5" y="-84.5" font-family="Helvetica,sans-Serif" font-size="10.00"> +common</text>
</g>
<!-- Node24&#45;&gt;Node19 -->
<g id="edge5" class="edge"><title>Node24&#45;&gt;Node19</title>
<path fill="none" stroke="#404040" d="M235,-121.845C235,-105.198 235,-86.3689 235,-70.1118"/>
<polygon fill="none" stroke="#404040" points="235,-69.7163 231,-63.7164 235,-57.7163 239,-63.7163 235,-69.7163"/>
<text text-anchor="middle" x="259.5" y="-84.5" font-family="Helvetica,sans-Serif" font-size="10.00"> +decoders</text>
</g>
<!-- Node25 -->
<g id="node7" class="node"><title>Node25</title>
<g id="a_node7"><a xlink:href="structbitmask.html" target="_top" xlink:title="{bitmask\n||+ kvec_t()\l}">
<polygon fill="none" stroke="black" points="253.5,-309.5 253.5,-366.5 314.5,-366.5 314.5,-309.5 253.5,-309.5"/>
<text text-anchor="middle" x="284" y="-354.5" font-family="Helvetica,sans-Serif" font-size="10.00">bitmask</text>
<polyline fill="none" stroke="black" points="253.5,-347.5 314.5,-347.5 "/>
<text text-anchor="middle" x="284" y="-335.5" font-family="Helvetica,sans-Serif" font-size="10.00"> </text>
<polyline fill="none" stroke="black" points="253.5,-328.5 314.5,-328.5 "/>
<text text-anchor="start" x="261.5" y="-316.5" font-family="Helvetica,sans-Serif" font-size="10.00">+ kvec_t()</text>
</a>
</g>
</g>
<!-- Node25&#45;&gt;Node24 -->
<g id="edge7" class="edge"><title>Node25&#45;&gt;Node24</title>
<path fill="none" stroke="#404040" d="M276.018,-309.471C269.297,-286.289 259.471,-252.399 251.121,-223.601"/>
<polygon fill="none" stroke="#404040" points="251.107,-223.554 245.595,-218.905 247.766,-212.029 253.278,-216.677 251.107,-223.554"/>
<text text-anchor="middle" x="274" y="-239" font-family="Helvetica,sans-Serif" font-size="10.00"> +mask</text>
</g>
<!-- Node26 -->
<g id="node8" class="node"><title>Node26</title>
<g id="a_node8"><a xlink:href="nanorq_8c.html#structpartition" target="_top" xlink:title="{partition\n|+ IL\l+ IS\l+ JL\l+ JS\l|}">
<polygon fill="none" stroke="black" points="296.5,-122 296.5,-212 347.5,-212 347.5,-122 296.5,-122"/>
<text text-anchor="middle" x="322" y="-200" font-family="Helvetica,sans-Serif" font-size="10.00">partition</text>
<polyline fill="none" stroke="black" points="296.5,-193 347.5,-193 "/>
<text text-anchor="start" x="304.5" y="-181" font-family="Helvetica,sans-Serif" font-size="10.00">+ IL</text>
<text text-anchor="start" x="304.5" y="-170" font-family="Helvetica,sans-Serif" font-size="10.00">+ IS</text>
<text text-anchor="start" x="304.5" y="-159" font-family="Helvetica,sans-Serif" font-size="10.00">+ JL</text>
<text text-anchor="start" x="304.5" y="-148" font-family="Helvetica,sans-Serif" font-size="10.00">+ JS</text>
<polyline fill="none" stroke="black" points="296.5,-141 347.5,-141 "/>
<text text-anchor="middle" x="322" y="-129" font-family="Helvetica,sans-Serif" font-size="10.00"> </text>
</a>
</g>
</g>
<!-- Node26&#45;&gt;Node19 -->
<g id="edge9" class="edge"><title>Node26&#45;&gt;Node19</title>
<path fill="none" stroke="#404040" d="M310.149,-121.736C304.826,-106.434 297.549,-89.7038 288,-76 282.368,-67.9172 275.006,-60.3511 267.569,-53.7819"/>
<polygon fill="none" stroke="#404040" points="267.465,-53.6959 260.294,-52.9403 258.233,-46.0299 265.404,-46.7855 267.465,-53.6959"/>
<text text-anchor="middle" x="322.5" y="-90" font-family="Helvetica,sans-Serif" font-size="10.00"> +src_part</text>
<text text-anchor="middle" x="322.5" y="-79" font-family="Helvetica,sans-Serif" font-size="10.00">+sub_part</text>
</g>
<!-- Node27 -->
<g id="node9" class="node"><title>Node27</title>
<g id="a_node9"><a xlink:href="nanorq_8c.html#structoti__scheme" target="_top" xlink:title="{oti_scheme\n|+ Z\l+ N\l+ Kt\l|}">
<polygon fill="none" stroke="black" points="365.5,-127.5 365.5,-206.5 432.5,-206.5 432.5,-127.5 365.5,-127.5"/>
<text text-anchor="middle" x="399" y="-194.5" font-family="Helvetica,sans-Serif" font-size="10.00">oti_scheme</text>
<polyline fill="none" stroke="black" points="365.5,-187.5 432.5,-187.5 "/>
<text text-anchor="start" x="373.5" y="-175.5" font-family="Helvetica,sans-Serif" font-size="10.00">+ Z</text>
<text text-anchor="start" x="373.5" y="-164.5" font-family="Helvetica,sans-Serif" font-size="10.00">+ N</text>
<text text-anchor="start" x="373.5" y="-153.5" font-family="Helvetica,sans-Serif" font-size="10.00">+ Kt</text>
<polyline fill="none" stroke="black" points="365.5,-146.5 432.5,-146.5 "/>
<text text-anchor="middle" x="399" y="-134.5" font-family="Helvetica,sans-Serif" font-size="10.00"> </text>
</a>
</g>
</g>
<!-- Node27&#45;&gt;Node19 -->
<g id="edge10" class="edge"><title>Node27&#45;&gt;Node19</title>
<path fill="none" stroke="#404040" d="M384.647,-127.46C376.463,-109.835 364.673,-89.8464 349,-76 326.561,-56.1753 294.477,-44.2641 270.06,-37.5468"/>
<polygon fill="none" stroke="#404040" points="270.051,-37.5445 263.247,-39.9347 258.424,-34.5739 265.228,-32.1837 270.051,-37.5445"/>
<text text-anchor="middle" x="390" y="-84.5" font-family="Helvetica,sans-Serif" font-size="10.00"> +scheme</text>
</g>
</g>
</svg>
