<?xml version="1.0" encoding="UTF-8" standalone="no"?>
<!DOCTYPE svg PUBLIC "-//W3C//DTD SVG 1.1//EN"
 "http://www.w3.org/Graphics/SVG/1.1/DTD/svg11.dtd">
<!-- Generated by graphviz version 2.38.0 (20140413.2041)
 -->
<!-- Title: repair_sym Pages: 1 -->
<svg width="73pt" height="204pt"
 viewBox="0.00 0.00 73.00 204.00" xmlns="http://www.w3.org/2000/svg" xmlns:xlink="http://www.w3.org/1999/xlink">
<g id="graph0" class="graph" transform="scale(1 1) rotate(0) translate(4 200)">
<title>repair_sym</title>
<!-- Node3 -->
<g id="node1" class="node"><title>Node3</title>
<polygon fill="#bfbfbf" stroke="black" points="0,-0.5 0,-57.5 65,-57.5 65,-0.5 0,-0.5"/>
<text text-anchor="middle" x="32.5" y="-45.5" font-family="Helvetica,sans-Serif" font-size="10.00">repair_sym</text>
<polyline fill="none" stroke="black" points="0,-38.5 65,-38.5 "/>
<text text-anchor="start" x="8" y="-26.5" font-family="Helvetica,sans-Serif" font-size="10.00">+ esi</text>
<polyline fill="none" stroke="black" points="0,-19.5 65,-19.5 "/>
<text text-anchor="middle" x="32.5" y="-7.5" font-family="Helvetica,sans-Serif" font-size="10.00"> </text>
</g>
<!-- Node4 -->
<g id="node2" class="node"><title>Node4</title>
<g id="a_node2"><a xlink:href="octmat_8h.html#structoctmat" target="_top" xlink:title="{octmat\n|+ data\l+ rows\l+ cols\l+ cols_al\l|}">
<polygon fill="none" stroke="black" points="4.5,-105.5 4.5,-195.5 60.5,-195.5 60.5,-105.5 4.5,-105.5"/>
<text text-anchor="middle" x="32.5" y="-183.5" font-family="Helvetica,sans-Serif" font-size="10.00">octmat</text>
<polyline fill="none" stroke="black" points="4.5,-176.5 60.5,-176.5 "/>
<text text-anchor="start" x="12.5" y="-164.5" font-family="Helvetica,sans-Serif" font-size="10.00">+ data</text>
<text text-anchor="start" x="12.5" y="-153.5" font-family="Helvetica,sans-Serif" font-size="10.00">+ rows</text>
<text text-anchor="start" x="12.5" y="-142.5" font-family="Helvetica,sans-Serif" font-size="10.00">+ cols</text>
<text text-anchor="start" x="12.5" y="-131.5" font-family="Helvetica,sans-Serif" font-size="10.00">+ cols_al</text>
<polyline fill="none" stroke="black" points="4.5,-124.5 60.5,-124.5 "/>
<text text-anchor="middle" x="32.5" y="-112.5" font-family="Helvetica,sans-Serif" font-size="10.00"> </text>
</a>
</g>
</g>
<!-- Node4&#45;&gt;Node3 -->
<g id="edge1" class="edge"><title>Node4&#45;&gt;Node3</title>
<path fill="none" stroke="#404040" d="M32.5,-105.342C32.5,-93.7485 32.5,-81.3129 32.5,-69.9534"/>
<polygon fill="none" stroke="#404040" points="32.5001,-69.6879 28.5,-63.6879 32.5,-57.6879 36.5,-63.6878 32.5001,-69.6879"/>
<text text-anchor="middle" x="45" y="-79" font-family="Helvetica,sans-Serif" font-size="10.00"> +row</text>
</g>
</g>
</svg>
