<?xml version="1.0" encoding="UTF-8" standalone="no"?>
<!DOCTYPE svg PUBLIC "-//W3C//DTD SVG 1.1//EN"
 "http://www.w3.org/Graphics/SVG/1.1/DTD/svg11.dtd">
<!-- Generated by graphviz version 2.38.0 (20140413.2041)
 -->
<!-- Title: decoder_core Pages: 1 -->
<svg width="235pt" height="292pt"
 viewBox="0.00 0.00 234.50 292.00" xmlns="http://www.w3.org/2000/svg" xmlns:xlink="http://www.w3.org/1999/xlink">
<g id="graph0" class="graph" transform="scale(1 1) rotate(0) translate(4 288)">
<title>decoder_core</title>
<!-- Node14 -->
<g id="node1" class="node"><title>Node14</title>
<polygon fill="#bfbfbf" stroke="black" points="66,-0.5 66,-90.5 152,-90.5 152,-0.5 66,-0.5"/>
<text text-anchor="middle" x="109" y="-78.5" font-family="Helvetica,sans-Serif" font-size="10.00">decoder_core</text>
<polyline fill="none" stroke="black" points="66,-71.5 152,-71.5 "/>
<text text-anchor="start" x="74" y="-59.5" font-family="Helvetica,sans-Serif" font-size="10.00">+ sbn</text>
<text text-anchor="start" x="74" y="-48.5" font-family="Helvetica,sans-Serif" font-size="10.00">+ num_symbols</text>
<text text-anchor="start" x="74" y="-37.5" font-family="Helvetica,sans-Serif" font-size="10.00">+ symbol_size</text>
<text text-anchor="start" x="74" y="-26.5" font-family="Helvetica,sans-Serif" font-size="10.00">+ repair_bin</text>
<polyline fill="none" stroke="black" points="66,-19.5 152,-19.5 "/>
<text text-anchor="middle" x="109" y="-7.5" font-family="Helvetica,sans-Serif" font-size="10.00"> </text>
</g>
<!-- Node15 -->
<g id="node2" class="node"><title>Node15</title>
<g id="a_node2"><a xlink:href="../../de/d35/octmat_8h.html#d2/dbf/structoctmat" target="_top" xlink:title="{octmat\n|+ data\l+ rows\l+ cols\l+ cols_al\l|}">
<polygon fill="none" stroke="black" points="0,-166 0,-256 56,-256 56,-166 0,-166"/>
<text text-anchor="middle" x="28" y="-244" font-family="Helvetica,sans-Serif" font-size="10.00">octmat</text>
<polyline fill="none" stroke="black" points="0,-237 56,-237 "/>
<text text-anchor="start" x="8" y="-225" font-family="Helvetica,sans-Serif" font-size="10.00">+ data</text>
<text text-anchor="start" x="8" y="-214" font-family="Helvetica,sans-Serif" font-size="10.00">+ rows</text>
<text text-anchor="start" x="8" y="-203" font-family="Helvetica,sans-Serif" font-size="10.00">+ cols</text>
<text text-anchor="start" x="8" y="-192" font-family="Helvetica,sans-Serif" font-size="10.00">+ cols_al</text>
<polyline fill="none" stroke="black" points="0,-185 56,-185 "/>
<text text-anchor="middle" x="28" y="-173" font-family="Helvetica,sans-Serif" font-size="10.00"> </text>
</a>
</g>
</g>
<!-- Node15&#45;&gt;Node14 -->
<g id="edge1" class="edge"><title>Node15&#45;&gt;Node14</title>
<path fill="none" stroke="#404040" d="M30.585,-165.872C33.0817,-147.466 37.8732,-126.375 47,-109 50.0651,-103.165 53.8569,-97.522 58.0437,-92.1723"/>
<polygon fill="none" stroke="#404040" points="58.1665,-92.0276 59.0018,-84.865 65.9347,-82.8812 65.0994,-90.0438 58.1665,-92.0276"/>
<text text-anchor="middle" x="76" y="-112" font-family="Helvetica,sans-Serif" font-size="10.00"> +symbolmat</text>
</g>
<!-- Node16 -->
<g id="node3" class="node"><title>Node16</title>
<g id="a_node3"><a xlink:href="../../de/dc2/structbitmask.html" target="_top" xlink:title="{bitmask\n||+ kvec_t()\l}">
<polygon fill="none" stroke="black" points="78.5,-182.5 78.5,-239.5 139.5,-239.5 139.5,-182.5 78.5,-182.5"/>
<text text-anchor="middle" x="109" y="-227.5" font-family="Helvetica,sans-Serif" font-size="10.00">bitmask</text>
<polyline fill="none" stroke="black" points="78.5,-220.5 139.5,-220.5 "/>
<text text-anchor="middle" x="109" y="-208.5" font-family="Helvetica,sans-Serif" font-size="10.00"> </text>
<polyline fill="none" stroke="black" points="78.5,-201.5 139.5,-201.5 "/>
<text text-anchor="start" x="86.5" y="-189.5" font-family="Helvetica,sans-Serif" font-size="10.00">+ kvec_t()</text>
</a>
</g>
</g>
<!-- Node16&#45;&gt;Node14 -->
<g id="edge2" class="edge"><title>Node16&#45;&gt;Node14</title>
<path fill="none" stroke="#404040" d="M109,-182.264C109,-160.537 109,-129.597 109,-102.739"/>
<polygon fill="none" stroke="#404040" points="109,-102.734 105,-96.7337 109,-90.7337 113,-96.7336 109,-102.734"/>
<text text-anchor="middle" x="126" y="-112" font-family="Helvetica,sans-Serif" font-size="10.00"> +mask</text>
</g>
<!-- Node17 -->
<g id="node4" class="node"><title>Node17</title>
<g id="a_node4"><a xlink:href="../../da/d33/params_8h.html#d0/d1d/structpparams" target="_top" xlink:title="{pparams\n|+ K_padded\l+ S\l+ H\l+ W\l+ L\l+ P\l+ P1\l+ B\l+ J\l|}">
<polygon fill="none" stroke="black" points="157.5,-138.5 157.5,-283.5 226.5,-283.5 226.5,-138.5 157.5,-138.5"/>
<text text-anchor="middle" x="192" y="-271.5" font-family="Helvetica,sans-Serif" font-size="10.00">pparams</text>
<polyline fill="none" stroke="black" points="157.5,-264.5 226.5,-264.5 "/>
<text text-anchor="start" x="165.5" y="-252.5" font-family="Helvetica,sans-Serif" font-size="10.00">+ K_padded</text>
<text text-anchor="start" x="165.5" y="-241.5" font-family="Helvetica,sans-Serif" font-size="10.00">+ S</text>
<text text-anchor="start" x="165.5" y="-230.5" font-family="Helvetica,sans-Serif" font-size="10.00">+ H</text>
<text text-anchor="start" x="165.5" y="-219.5" font-family="Helvetica,sans-Serif" font-size="10.00">+ W</text>
<text text-anchor="start" x="165.5" y="-208.5" font-family="Helvetica,sans-Serif" font-size="10.00">+ L</text>
<text text-anchor="start" x="165.5" y="-197.5" font-family="Helvetica,sans-Serif" font-size="10.00">+ P</text>
<text text-anchor="start" x="165.5" y="-186.5" font-family="Helvetica,sans-Serif" font-size="10.00">+ P1</text>
<text text-anchor="start" x="165.5" y="-175.5" font-family="Helvetica,sans-Serif" font-size="10.00">+ B</text>
<text text-anchor="start" x="165.5" y="-164.5" font-family="Helvetica,sans-Serif" font-size="10.00">+ J</text>
<polyline fill="none" stroke="black" points="157.5,-157.5 226.5,-157.5 "/>
<text text-anchor="middle" x="192" y="-145.5" font-family="Helvetica,sans-Serif" font-size="10.00"> </text>
</a>
</g>
</g>
<!-- Node17&#45;&gt;Node14 -->
<g id="edge3" class="edge"><title>Node17&#45;&gt;Node14</title>
<path fill="none" stroke="#404040" d="M161.402,-138.278C156.773,-128.347 151.901,-118.352 147,-109 145.682,-106.485 144.304,-103.933 142.888,-101.368"/>
<polygon fill="none" stroke="#404040" points="142.825,-101.259 136.383,-98.02 136.895,-90.8271 143.337,-94.0662 142.825,-101.259"/>
<text text-anchor="middle" x="166" y="-112" font-family="Helvetica,sans-Serif" font-size="10.00"> +prm</text>
</g>
</g>
</svg>
