<?xml version="1.0" encoding="UTF-8" standalone="no"?>
<!DOCTYPE svg PUBLIC "-//W3C//DTD SVG 1.1//EN"
 "http://www.w3.org/Graphics/SVG/1.1/DTD/svg11.dtd">
<!-- Generated by graphviz version 2.38.0 (20140413.2041)
 -->
<!-- Title: nanorq_free Pages: 1 -->
<svg width="343pt" height="104pt"
 viewBox="0.00 0.00 343.00 104.00" xmlns="http://www.w3.org/2000/svg" xmlns:xlink="http://www.w3.org/1999/xlink">
<g id="graph0" class="graph" transform="scale(1 1) rotate(0) translate(4 100)">
<title>nanorq_free</title>
<!-- Node0 -->
<g id="node1" class="node"><title>Node0</title>
<polygon fill="#bfbfbf" stroke="black" points="0,-38.5 0,-57.5 68,-57.5 68,-38.5 0,-38.5"/>
<text text-anchor="middle" x="34" y="-45.5" font-family="Helvetica,sans-Serif" font-size="10.00">nanorq_free</text>
</g>
<!-- Node1 -->
<g id="node2" class="node"><title>Node1</title>
<g id="a_node2"><a xlink:href="../../d1/d0b/nanorq_8c_a8b5d857ee6c09e2d40d5d15bd217952c.html#a8b5d857ee6c09e2d40d5d15bd217952c" target="_top" xlink:title="nanorq_blocks">
<polygon fill="none" stroke="black" points="125,-76.5 125,-95.5 205,-95.5 205,-76.5 125,-76.5"/>
<text text-anchor="middle" x="165" y="-83.5" font-family="Helvetica,sans-Serif" font-size="10.00">nanorq_blocks</text>
</a>
</g>
</g>
<!-- Node0&#45;&gt;Node1 -->
<g id="edge1" class="edge"><title>Node0&#45;&gt;Node1</title>
<path fill="none" stroke="midnightblue" d="M67.5521,-57.589C83.8993,-62.4044 103.909,-68.2988 121.457,-73.468"/>
<polygon fill="midnightblue" stroke="midnightblue" points="120.877,-76.9457 131.458,-76.4141 122.855,-70.2309 120.877,-76.9457"/>
</g>
<!-- Node2 -->
<g id="node3" class="node"><title>Node2</title>
<g id="a_node3"><a xlink:href="../../d1/d0b/nanorq_8c_a45eddf22280758102e953573c28f2a9d.html#a45eddf22280758102e953573c28f2a9d" target="_top" xlink:title="nanorq_decode_cleanup">
<polygon fill="none" stroke="black" points="104,-38.5 104,-57.5 226,-57.5 226,-38.5 104,-38.5"/>
<text text-anchor="middle" x="165" y="-45.5" font-family="Helvetica,sans-Serif" font-size="10.00">nanorq_decode_cleanup</text>
</a>
</g>
</g>
<!-- Node0&#45;&gt;Node2 -->
<g id="edge2" class="edge"><title>Node0&#45;&gt;Node2</title>
<path fill="none" stroke="midnightblue" d="M68.2207,-48C76.1396,-48 84.8886,-48 93.7836,-48"/>
<polygon fill="midnightblue" stroke="midnightblue" points="93.8521,-51.5001 103.852,-48 93.8521,-44.5001 93.8521,-51.5001"/>
</g>
<!-- Node5 -->
<g id="node6" class="node"><title>Node5</title>
<g id="a_node6"><a xlink:href="../../d1/d0b/nanorq_8c_abe7c4610af63c2f3a3eb0f2b991d4ca8.html#abe7c4610af63c2f3a3eb0f2b991d4ca8" target="_top" xlink:title="nanorq_encode_cleanup">
<polygon fill="none" stroke="black" points="104,-0.5 104,-19.5 226,-19.5 226,-0.5 104,-0.5"/>
<text text-anchor="middle" x="165" y="-7.5" font-family="Helvetica,sans-Serif" font-size="10.00">nanorq_encode_cleanup</text>
</a>
</g>
</g>
<!-- Node0&#45;&gt;Node5 -->
<g id="edge5" class="edge"><title>Node0&#45;&gt;Node5</title>
<path fill="none" stroke="midnightblue" d="M67.5521,-38.411C83.8993,-33.5956 103.909,-27.7012 121.457,-22.532"/>
<polygon fill="midnightblue" stroke="midnightblue" points="122.855,-25.7691 131.458,-19.5859 120.877,-19.0543 122.855,-25.7691"/>
</g>
<!-- Node3 -->
<g id="node4" class="node"><title>Node3</title>
<g id="a_node4"><a xlink:href="../../d6/d74/bitmask_8c_a4486db4fb9c5530dc5131eacdb0114ae.html#a4486db4fb9c5530dc5131eacdb0114ae" target="_top" xlink:title="bitmask_free">
<polygon fill="none" stroke="black" points="262,-38.5 262,-57.5 335,-57.5 335,-38.5 262,-38.5"/>
<text text-anchor="middle" x="298.5" y="-45.5" font-family="Helvetica,sans-Serif" font-size="10.00">bitmask_free</text>
</a>
</g>
</g>
<!-- Node2&#45;&gt;Node3 -->
<g id="edge3" class="edge"><title>Node2&#45;&gt;Node3</title>
<path fill="none" stroke="midnightblue" d="M226.362,-48C234.907,-48 243.574,-48 251.782,-48"/>
<polygon fill="midnightblue" stroke="midnightblue" points="251.887,-51.5001 261.887,-48 251.887,-44.5001 251.887,-51.5001"/>
</g>
<!-- Node4 -->
<g id="node5" class="node"><title>Node4</title>
<g id="a_node5"><a xlink:href="../../d2/dd1/octmat_8c_ac7854c0635a9441a5a352f95dbbd7bbd.html#ac7854c0635a9441a5a352f95dbbd7bbd" target="_top" xlink:title="om_destroy">
<polygon fill="none" stroke="black" points="264.5,-0.5 264.5,-19.5 332.5,-19.5 332.5,-0.5 264.5,-0.5"/>
<text text-anchor="middle" x="298.5" y="-7.5" font-family="Helvetica,sans-Serif" font-size="10.00">om_destroy</text>
</a>
</g>
</g>
<!-- Node2&#45;&gt;Node4 -->
<g id="edge4" class="edge"><title>Node2&#45;&gt;Node4</title>
<path fill="none" stroke="midnightblue" d="M199.183,-38.411C216.003,-33.5506 236.626,-27.5909 254.634,-22.3873"/>
<polygon fill="midnightblue" stroke="midnightblue" points="255.692,-25.7246 264.328,-19.5859 253.749,-18.9997 255.692,-25.7246"/>
</g>
<!-- Node5&#45;&gt;Node4 -->
<g id="edge6" class="edge"><title>Node5&#45;&gt;Node4</title>
<path fill="none" stroke="midnightblue" d="M226.362,-10C235.776,-10 245.339,-10 254.271,-10"/>
<polygon fill="midnightblue" stroke="midnightblue" points="254.42,-13.5001 264.42,-10 254.42,-6.5001 254.42,-13.5001"/>
</g>
</g>
</svg>
