<?xml version="1.0" encoding="UTF-8" standalone="no"?>
<!DOCTYPE svg PUBLIC "-//W3C//DTD SVG 1.1//EN"
 "http://www.w3.org/Graphics/SVG/1.1/DTD/svg11.dtd">
<!-- Generated by graphviz version 2.38.0 (20140413.2041)
 -->
<!-- Title: nanorq_generate_symbols Pages: 1 -->
<svg width="532pt" height="47pt"
 viewBox="0.00 0.00 532.00 47.00" xmlns="http://www.w3.org/2000/svg" xmlns:xlink="http://www.w3.org/1999/xlink">
<g id="graph0" class="graph" transform="scale(1 1) rotate(0) translate(4 43)">
<title>nanorq_generate_symbols</title>
<!-- Node45 -->
<g id="node1" class="node"><title>Node45</title>
<polygon fill="#bfbfbf" stroke="black" points="0,-19.5 0,-38.5 131,-38.5 131,-19.5 0,-19.5"/>
<text text-anchor="middle" x="65.5" y="-26.5" font-family="Helvetica,sans-Serif" font-size="10.00">nanorq_generate_symbols</text>
</g>
<!-- Node46 -->
<g id="node2" class="node"><title>Node46</title>
<g id="a_node2"><a xlink:href="../../dd/d3f/encode_8c_a3c04138a5bfe5d72780bb7e82a18e627.html#a3c04138a5bfe5d72780bb7e82a18e627" target="_top" xlink:title="main">
<polygon fill="none" stroke="black" points="486,-19.5 486,-38.5 524,-38.5 524,-19.5 486,-19.5"/>
<text text-anchor="middle" x="505" y="-26.5" font-family="Helvetica,sans-Serif" font-size="10.00">main</text>
</a>
</g>
</g>
<!-- Node45&#45;&gt;Node46 -->
<g id="edge1" class="edge"><title>Node45&#45;&gt;Node46</title>
<path fill="none" stroke="midnightblue" d="M141.189,-29C245.32,-29 427.875,-29 485.814,-29"/>
<polygon fill="midnightblue" stroke="midnightblue" points="141.055,-25.5001 131.055,-29 141.055,-32.5001 141.055,-25.5001"/>
</g>
<!-- Node47 -->
<g id="node3" class="node"><title>Node47</title>
<g id="a_node3"><a xlink:href="../../d6/da2/nanorq_8h_a956615eb4ea3ce34369951295e93f708.html#a956615eb4ea3ce34369951295e93f708" target="_top" xlink:title="nanorq_encode">
<polygon fill="none" stroke="black" points="167,-0.5 167,-19.5 250,-19.5 250,-0.5 167,-0.5"/>
<text text-anchor="middle" x="208.5" y="-7.5" font-family="Helvetica,sans-Serif" font-size="10.00">nanorq_encode</text>
</a>
</g>
</g>
<!-- Node45&#45;&gt;Node47 -->
<g id="edge2" class="edge"><title>Node45&#45;&gt;Node47</title>
<path fill="none" stroke="midnightblue" d="M141.221,-18.9311C150.071,-17.7387 158.831,-16.5583 166.942,-15.4653"/>
<polygon fill="midnightblue" stroke="midnightblue" points="140.666,-15.4743 131.223,-20.2785 141.6,-22.4116 140.666,-15.4743"/>
</g>
<!-- Node48 -->
<g id="node4" class="node"><title>Node48</title>
<g id="a_node4"><a xlink:href="../../dd/d3f/encode_8c_a0993cb61d7e4c1b1a1606d159f5b1410.html#a0993cb61d7e4c1b1a1606d159f5b1410" target="_top" xlink:title="dump_esi">
<polygon fill="none" stroke="black" points="286,-0.5 286,-19.5 345,-19.5 345,-0.5 286,-0.5"/>
<text text-anchor="middle" x="315.5" y="-7.5" font-family="Helvetica,sans-Serif" font-size="10.00">dump_esi</text>
</a>
</g>
</g>
<!-- Node47&#45;&gt;Node48 -->
<g id="edge3" class="edge"><title>Node47&#45;&gt;Node48</title>
<path fill="none" stroke="midnightblue" d="M260.272,-10C269.015,-10 277.823,-10 285.723,-10"/>
<polygon fill="midnightblue" stroke="midnightblue" points="260.096,-6.5001 250.096,-10 260.096,-13.5001 260.096,-6.5001"/>
</g>
<!-- Node49 -->
<g id="node5" class="node"><title>Node49</title>
<g id="a_node5"><a xlink:href="../../dd/d3f/encode_8c_ae7f8bbf4dcea92f802d2521fa0264f93.html#ae7f8bbf4dcea92f802d2521fa0264f93" target="_top" xlink:title="dump_block">
<polygon fill="none" stroke="black" points="381,-0.5 381,-19.5 450,-19.5 450,-0.5 381,-0.5"/>
<text text-anchor="middle" x="415.5" y="-7.5" font-family="Helvetica,sans-Serif" font-size="10.00">dump_block</text>
</a>
</g>
</g>
<!-- Node48&#45;&gt;Node49 -->
<g id="edge4" class="edge"><title>Node48&#45;&gt;Node49</title>
<path fill="none" stroke="midnightblue" d="M355.17,-10C363.653,-10 372.569,-10 380.837,-10"/>
<polygon fill="midnightblue" stroke="midnightblue" points="355.109,-6.5001 345.109,-10 355.109,-13.5001 355.109,-6.5001"/>
</g>
<!-- Node49&#45;&gt;Node46 -->
<g id="edge5" class="edge"><title>Node49&#45;&gt;Node46</title>
<path fill="none" stroke="midnightblue" d="M459.916,-19.4275C469.058,-21.4126 478.22,-23.402 485.804,-25.0488"/>
<polygon fill="midnightblue" stroke="midnightblue" points="460.595,-15.9933 450.08,-17.2916 459.109,-22.8339 460.595,-15.9933"/>
</g>
</g>
</svg>
