<?xml version="1.0" encoding="UTF-8" standalone="no"?>
<!DOCTYPE svg PUBLIC "-//W3C//DTD SVG 1.1//EN"
 "http://www.w3.org/Graphics/SVG/1.1/DTD/svg11.dtd">
<!-- Generated by graphviz version 2.38.0 (20140413.2041)
 -->
<!-- Title: graph.c Pages: 1 -->
<svg width="524pt" height="84pt"
 viewBox="0.00 0.00 523.50 84.00" xmlns="http://www.w3.org/2000/svg" xmlns:xlink="http://www.w3.org/1999/xlink">
<g id="graph0" class="graph" transform="scale(1 1) rotate(0) translate(4 80)">
<title>graph.c</title>
<!-- Node0 -->
<g id="node1" class="node"><title>Node0</title>
<polygon fill="#bfbfbf" stroke="black" points="235.5,-56.5 235.5,-75.5 284.5,-75.5 284.5,-56.5 235.5,-56.5"/>
<text text-anchor="middle" x="260" y="-63.5" font-family="Helvetica,sans-Serif" font-size="10.00">graph.c</text>
</g>
<!-- Node1 -->
<g id="node2" class="node"><title>Node1</title>
<polygon fill="none" stroke="#bfbfbf" points="0,-0.5 0,-19.5 46,-19.5 46,-0.5 0,-0.5"/>
<text text-anchor="middle" x="23" y="-7.5" font-family="Helvetica,sans-Serif" font-size="10.00">stdio.h</text>
</g>
<!-- Node0&#45;&gt;Node1 -->
<g id="edge1" class="edge"><title>Node0&#45;&gt;Node1</title>
<path fill="none" stroke="midnightblue" d="M235.279,-60.0569C198.383,-52.5758 126.525,-37.6067 55.9722,-20.1314"/>
<polygon fill="midnightblue" stroke="midnightblue" points="56.5794,-16.6757 46.0294,-17.6495 54.884,-23.4673 56.5794,-16.6757"/>
</g>
<!-- Node2 -->
<g id="node3" class="node"><title>Node2</title>
<polygon fill="none" stroke="#bfbfbf" points="64,-0.5 64,-19.5 112,-19.5 112,-0.5 64,-0.5"/>
<text text-anchor="middle" x="88" y="-7.5" font-family="Helvetica,sans-Serif" font-size="10.00">stdlib.h</text>
</g>
<!-- Node0&#45;&gt;Node2 -->
<g id="edge2" class="edge"><title>Node0&#45;&gt;Node2</title>
<path fill="none" stroke="midnightblue" d="M235.357,-57.2631C205.556,-47.9072 155.247,-32.1125 121.83,-21.6211"/>
<polygon fill="midnightblue" stroke="midnightblue" points="122.632,-18.2046 112.043,-18.5484 120.536,-24.8832 122.632,-18.2046"/>
</g>
<!-- Node3 -->
<g id="node4" class="node"><title>Node3</title>
<polygon fill="none" stroke="#bfbfbf" points="130.5,-0.5 130.5,-19.5 179.5,-19.5 179.5,-0.5 130.5,-0.5"/>
<text text-anchor="middle" x="155" y="-7.5" font-family="Helvetica,sans-Serif" font-size="10.00">stdint.h</text>
</g>
<!-- Node0&#45;&gt;Node3 -->
<g id="edge3" class="edge"><title>Node0&#45;&gt;Node3</title>
<path fill="none" stroke="midnightblue" d="M243.13,-56.324C226.291,-47.6641 200.193,-34.2424 180.762,-24.249"/>
<polygon fill="midnightblue" stroke="midnightblue" points="182.322,-21.1155 171.828,-19.6545 179.12,-27.3405 182.322,-21.1155"/>
</g>
<!-- Node4 -->
<g id="node5" class="node"><title>Node4</title>
<polygon fill="none" stroke="#bfbfbf" points="198,-0.5 198,-19.5 254,-19.5 254,-0.5 198,-0.5"/>
<text text-anchor="middle" x="226" y="-7.5" font-family="Helvetica,sans-Serif" font-size="10.00">stdbool.h</text>
</g>
<!-- Node0&#45;&gt;Node4 -->
<g id="edge4" class="edge"><title>Node0&#45;&gt;Node4</title>
<path fill="none" stroke="midnightblue" d="M254.386,-56.083C249.633,-48.5341 242.682,-37.4948 236.848,-28.2298"/>
<polygon fill="midnightblue" stroke="midnightblue" points="239.8,-26.3486 231.51,-19.7511 233.876,-30.0783 239.8,-26.3486"/>
</g>
<!-- Node5 -->
<g id="node6" class="node"><title>Node5</title>
<g id="a_node6"><a xlink:href="../../d5/d99/kvec_8h.html" target="_top" xlink:title="kvec.h">
<polygon fill="none" stroke="black" points="272,-0.5 272,-19.5 318,-19.5 318,-0.5 272,-0.5"/>
<text text-anchor="middle" x="295" y="-7.5" font-family="Helvetica,sans-Serif" font-size="10.00">kvec.h</text>
</a>
</g>
</g>
<!-- Node0&#45;&gt;Node5 -->
<g id="edge5" class="edge"><title>Node0&#45;&gt;Node5</title>
<path fill="none" stroke="midnightblue" d="M265.78,-56.083C270.672,-48.5341 277.827,-37.4948 283.833,-28.2298"/>
<polygon fill="midnightblue" stroke="midnightblue" points="286.826,-30.0463 289.328,-19.7511 280.952,-26.239 286.826,-30.0463"/>
</g>
<!-- Node6 -->
<g id="node7" class="node"><title>Node6</title>
<g id="a_node7"><a xlink:href="../../de/d35/octmat_8h.html" target="_top" xlink:title="octmat.h">
<polygon fill="none" stroke="black" points="336.5,-0.5 336.5,-19.5 391.5,-19.5 391.5,-0.5 336.5,-0.5"/>
<text text-anchor="middle" x="364" y="-7.5" font-family="Helvetica,sans-Serif" font-size="10.00">octmat.h</text>
</a>
</g>
</g>
<!-- Node0&#45;&gt;Node6 -->
<g id="edge6" class="edge"><title>Node0&#45;&gt;Node6</title>
<path fill="none" stroke="midnightblue" d="M276.709,-56.324C293.312,-47.7034 319.002,-34.3643 338.22,-24.3855"/>
<polygon fill="midnightblue" stroke="midnightblue" points="340.07,-27.3689 347.332,-19.6545 336.844,-21.1565 340.07,-27.3689"/>
</g>
<!-- Node7 -->
<g id="node8" class="node"><title>Node7</title>
<g id="a_node8"><a xlink:href="../../d8/d3c/util_8h.html" target="_top" xlink:title="util.h">
<polygon fill="none" stroke="black" points="410,-0.5 410,-19.5 448,-19.5 448,-0.5 410,-0.5"/>
<text text-anchor="middle" x="429" y="-7.5" font-family="Helvetica,sans-Serif" font-size="10.00">util.h</text>
</a>
</g>
</g>
<!-- Node0&#45;&gt;Node7 -->
<g id="edge7" class="edge"><title>Node0&#45;&gt;Node7</title>
<path fill="none" stroke="midnightblue" d="M284.711,-57.1304C311.052,-48.7383 354.227,-34.9722 400.188,-20.2559"/>
<polygon fill="midnightblue" stroke="midnightblue" points="401.266,-23.5857 409.722,-17.2023 399.131,-16.9193 401.266,-23.5857"/>
</g>
<!-- Node8 -->
<g id="node9" class="node"><title>Node8</title>
<g id="a_node9"><a xlink:href="../../d6/df3/graph_8h.html" target="_top" xlink:title="graph.h">
<polygon fill="none" stroke="black" points="466.5,-0.5 466.5,-19.5 515.5,-19.5 515.5,-0.5 466.5,-0.5"/>
<text text-anchor="middle" x="491" y="-7.5" font-family="Helvetica,sans-Serif" font-size="10.00">graph.h</text>
</a>
</g>
</g>
<!-- Node0&#45;&gt;Node8 -->
<g id="edge8" class="edge"><title>Node0&#45;&gt;Node8</title>
<path fill="none" stroke="midnightblue" d="M284.634,-59.6568C320.241,-51.8721 388.394,-36.7447 456.152,-20.144"/>
<polygon fill="midnightblue" stroke="midnightblue" points="457.269,-23.4737 466.143,-17.6848 455.596,-16.6766 457.269,-23.4737"/>
</g>
</g>
</svg>
