<?xml version="1.0" encoding="UTF-8" standalone="no"?>
<!DOCTYPE svg PUBLIC "-//W3C//DTD SVG 1.1//EN"
 "http://www.w3.org/Graphics/SVG/1.1/DTD/svg11.dtd">
<!-- Generated by graphviz version 2.38.0 (20140413.2041)
 -->
<!-- Title: encoder_core Pages: 1 -->
<svg width="152pt" height="281pt"
 viewBox="0.00 0.00 151.50 281.00" xmlns="http://www.w3.org/2000/svg" xmlns:xlink="http://www.w3.org/1999/xlink">
<g id="graph0" class="graph" transform="scale(1 1) rotate(0) translate(4 277)">
<title>encoder_core</title>
<!-- Node10 -->
<g id="node1" class="node"><title>Node10</title>
<polygon fill="#bfbfbf" stroke="black" points="25,-0.5 25,-79.5 111,-79.5 111,-0.5 25,-0.5"/>
<text text-anchor="middle" x="68" y="-67.5" font-family="Helvetica,sans-Serif" font-size="10.00">encoder_core</text>
<polyline fill="none" stroke="black" points="25,-60.5 111,-60.5 "/>
<text text-anchor="start" x="33" y="-48.5" font-family="Helvetica,sans-Serif" font-size="10.00">+ sbn</text>
<text text-anchor="start" x="33" y="-37.5" font-family="Helvetica,sans-Serif" font-size="10.00">+ num_symbols</text>
<text text-anchor="start" x="33" y="-26.5" font-family="Helvetica,sans-Serif" font-size="10.00">+ symbol_size</text>
<polyline fill="none" stroke="black" points="25,-19.5 111,-19.5 "/>
<text text-anchor="middle" x="68" y="-7.5" font-family="Helvetica,sans-Serif" font-size="10.00"> </text>
</g>
<!-- Node11 -->
<g id="node2" class="node"><title>Node11</title>
<g id="a_node2"><a xlink:href="../../de/d35/octmat_8h.html#d2/dbf/structoctmat" target="_top" xlink:title="{octmat\n|+ data\l+ rows\l+ cols\l+ cols_al\l|}">
<polygon fill="none" stroke="black" points="0,-155 0,-245 56,-245 56,-155 0,-155"/>
<text text-anchor="middle" x="28" y="-233" font-family="Helvetica,sans-Serif" font-size="10.00">octmat</text>
<polyline fill="none" stroke="black" points="0,-226 56,-226 "/>
<text text-anchor="start" x="8" y="-214" font-family="Helvetica,sans-Serif" font-size="10.00">+ data</text>
<text text-anchor="start" x="8" y="-203" font-family="Helvetica,sans-Serif" font-size="10.00">+ rows</text>
<text text-anchor="start" x="8" y="-192" font-family="Helvetica,sans-Serif" font-size="10.00">+ cols</text>
<text text-anchor="start" x="8" y="-181" font-family="Helvetica,sans-Serif" font-size="10.00">+ cols_al</text>
<polyline fill="none" stroke="black" points="0,-174 56,-174 "/>
<text text-anchor="middle" x="28" y="-162" font-family="Helvetica,sans-Serif" font-size="10.00"> </text>
</a>
</g>
</g>
<!-- Node11&#45;&gt;Node10 -->
<g id="edge1" class="edge"><title>Node11&#45;&gt;Node10</title>
<path fill="none" stroke="#404040" d="M22.9143,-154.873C22.2468,-136.863 23.3134,-116.065 29,-98 29.8045,-95.4445 30.7656,-92.9009 31.8499,-90.3865"/>
<polygon fill="none" stroke="#404040" points="31.8845,-90.3179 31.0155,-83.1593 37.2892,-79.6039 38.1582,-86.7625 31.8845,-90.3179"/>
<text text-anchor="middle" x="58" y="-101" font-family="Helvetica,sans-Serif" font-size="10.00"> +symbolmat</text>
</g>
<!-- Node12 -->
<g id="node3" class="node"><title>Node12</title>
<g id="a_node3"><a xlink:href="../../da/d33/params_8h.html#d0/d1d/structpparams" target="_top" xlink:title="{pparams\n|+ K_padded\l+ S\l+ H\l+ W\l+ L\l+ P\l+ P1\l+ B\l+ J\l|}">
<polygon fill="none" stroke="black" points="74.5,-127.5 74.5,-272.5 143.5,-272.5 143.5,-127.5 74.5,-127.5"/>
<text text-anchor="middle" x="109" y="-260.5" font-family="Helvetica,sans-Serif" font-size="10.00">pparams</text>
<polyline fill="none" stroke="black" points="74.5,-253.5 143.5,-253.5 "/>
<text text-anchor="start" x="82.5" y="-241.5" font-family="Helvetica,sans-Serif" font-size="10.00">+ K_padded</text>
<text text-anchor="start" x="82.5" y="-230.5" font-family="Helvetica,sans-Serif" font-size="10.00">+ S</text>
<text text-anchor="start" x="82.5" y="-219.5" font-family="Helvetica,sans-Serif" font-size="10.00">+ H</text>
<text text-anchor="start" x="82.5" y="-208.5" font-family="Helvetica,sans-Serif" font-size="10.00">+ W</text>
<text text-anchor="start" x="82.5" y="-197.5" font-family="Helvetica,sans-Serif" font-size="10.00">+ L</text>
<text text-anchor="start" x="82.5" y="-186.5" font-family="Helvetica,sans-Serif" font-size="10.00">+ P</text>
<text text-anchor="start" x="82.5" y="-175.5" font-family="Helvetica,sans-Serif" font-size="10.00">+ P1</text>
<text text-anchor="start" x="82.5" y="-164.5" font-family="Helvetica,sans-Serif" font-size="10.00">+ B</text>
<text text-anchor="start" x="82.5" y="-153.5" font-family="Helvetica,sans-Serif" font-size="10.00">+ J</text>
<polyline fill="none" stroke="black" points="74.5,-146.5 143.5,-146.5 "/>
<text text-anchor="middle" x="109" y="-134.5" font-family="Helvetica,sans-Serif" font-size="10.00"> </text>
</a>
</g>
</g>
<!-- Node12&#45;&gt;Node10 -->
<g id="edge2" class="edge"><title>Node12&#45;&gt;Node10</title>
<path fill="none" stroke="#404040" d="M94.3824,-127.312C92.0758,-117.424 89.591,-107.431 87,-98 86.4141,-95.8673 85.7949,-93.6969 85.152,-91.5096"/>
<polygon fill="none" stroke="#404040" points="85.069,-91.2397 79.4819,-86.6807 81.5412,-79.7699 87.1283,-84.3288 85.069,-91.2397"/>
<text text-anchor="middle" x="103" y="-101" font-family="Helvetica,sans-Serif" font-size="10.00"> +prm</text>
</g>
</g>
</svg>
